<?xml version="1.0" encoding="UTF-8" standalone="no"?>
<svg
   width="47.145866mm"
   height="18.828848mm"
   viewBox="0 0 47.145866 18.828848"
   version="1.1"
   id="svg9306"
   xmlns="http://www.w3.org/2000/svg"
   xmlns:svg="http://www.w3.org/2000/svg">
  <defs
     id="defs9303" />
  <g
     id="layer1"
     transform="translate(-47.821298,-151.07981)">
    <g
       id="g8994"
       transform="matrix(0.35277777,0,0,0.35277777,-34.503979,54.772123)">
      <g
         style="fill:#211e1e;fill-opacity:1"
         id="g3342">
        <g
           id="use3340"
           transform="translate(256.67838,283.55988)">
          <path
             style="stroke:none"
             d="m 5.6875,-4.484375 v 0.140625 c 0.34375,0.078125 0.4375,0.140625 0.4375,0.3125 0,0.15625 -0.046875,0.390625 -0.15625,0.65625 L 5.0625,-1.15625 4.234375,-3.390625 C 4.0625,-3.84375 4.0625,-3.84375 4.0625,-3.984375 c 0,-0.21875 0.109375,-0.28125 0.578125,-0.359375 v -0.140625 h -2.03125 v 0.140625 c 0.375,0.046875 0.484375,0.15625 0.6875,0.6875 C 3.375,-3.453125 3.4375,-3.265625 3.5,-3.09375 L 2.59375,-1.109375 1.609375,-3.703125 C 1.5625,-3.8125 1.546875,-3.90625 1.546875,-4 c 0,-0.21875 0.125,-0.296875 0.453125,-0.34375 V -4.484375 H 0.203125 v 0.140625 c 0.234375,0.03125 0.3125,0.125 0.53125,0.640625 l 1.34375,3.40625 c 0.125,0.296875 0.203125,0.4375 0.265625,0.4375 0.046875,0 0.125,-0.125 0.25,-0.390625 l 1.109375,-2.390625 0.90625,2.34375 c 0.140625,0.375 0.1875,0.4375 0.25,0.4375 0.0625,0 0.109375,-0.09375 0.28125,-0.484375 l 1.375,-3.453125 C 6.6875,-4.21875 6.71875,-4.265625 6.921875,-4.34375 v -0.140625 z m 0,0"
             id="path8996" />
        </g>
      </g>
      <g
         style="fill:#211e1e;fill-opacity:1"
         id="g3346">
        <g
           id="use3344"
           transform="translate(263.75848,283.55988)">
          <path
             style="stroke:none"
             d="m 2.5,-4.578125 c -1.296875,0 -2.203125,0.953125 -2.203125,2.328125 0,1.34375 0.921875,2.34375 2.171875,2.34375 1.265625,0 2.21875,-1.046875 2.21875,-2.421875 0,-1.3125 -0.921875,-2.25 -2.1875,-2.25 z M 2.359375,-4.3125 c 0.84375,0 1.421875,0.96875 1.421875,2.328125 0,1.125 -0.4375,1.8125 -1.1875,1.8125 -0.390625,0 -0.765625,-0.25 -0.96875,-0.640625 C 1.34375,-1.328125 1.1875,-2.03125 1.1875,-2.734375 1.1875,-3.6875 1.65625,-4.3125 2.359375,-4.3125 Z m 0,0"
             id="path9000" />
        </g>
      </g>
      <g
         style="fill:#211e1e;fill-opacity:1"
         id="g3350">
        <g
           id="use3348"
           transform="translate(268.79846,283.55988)">
          <path
             style="stroke:none"
             d="m 0.0625,-3.890625 c 0.140625,-0.03125 0.234375,-0.03125 0.359375,-0.03125 0.25,0 0.328125,0.15625 0.328125,0.59375 v 2.484375 c 0,0.5 -0.0625,0.578125 -0.703125,0.6875 V 0 H 2.4375 V -0.15625 C 1.765625,-0.171875 1.59375,-0.328125 1.59375,-0.890625 v -2.25 c 0,-0.3125 0.4375,-0.8125 0.703125,-0.8125 0.0625,0 0.140625,0.046875 0.25,0.140625 0.171875,0.140625 0.28125,0.203125 0.40625,0.203125 0.234375,0 0.390625,-0.171875 0.390625,-0.453125 0,-0.328125 -0.21875,-0.515625 -0.546875,-0.515625 -0.421875,0 -0.71875,0.21875 -1.203125,0.921875 V -4.5625 L 1.546875,-4.578125 c -0.53125,0.21875 -0.890625,0.34375 -1.484375,0.53125 z m 0,0"
             id="path9004" />
        </g>
      </g>
      <g
         style="fill:#211e1e;fill-opacity:1"
         id="g3354">
        <g
           id="use3352"
           transform="translate(272.15848,283.55988)">
          <path
             style="stroke:none"
             d="m 3.421875,0.09375 1.46875,-0.515625 v -0.15625 C 4.71875,-0.5625 4.6875,-0.5625 4.671875,-0.5625 c -0.359375,0 -0.4375,-0.109375 -0.4375,-0.578125 V -6.78125 L 4.171875,-6.8125 C 3.703125,-6.640625 3.34375,-6.546875 2.71875,-6.375 v 0.171875 c 0.078125,-0.015625 0.125,-0.015625 0.21875,-0.015625 0.359375,0 0.453125,0.09375 0.453125,0.5 v 1.5625 c -0.375,-0.3125 -0.65625,-0.421875 -1.046875,-0.421875 -1.140625,0 -2.078125,1.125 -2.078125,2.53125 0,1.28125 0.75,2.140625 1.84375,2.140625 0.5625,0 0.9375,-0.1875 1.28125,-0.65625 v 0.625 z m -0.03125,-1.109375 c 0,0.0625 -0.078125,0.1875 -0.171875,0.296875 -0.171875,0.203125 -0.421875,0.296875 -0.71875,0.296875 -0.828125,0 -1.375,-0.796875 -1.375,-2.015625 0,-1.125 0.484375,-1.875 1.25,-1.875 0.53125,0 1.015625,0.46875 1.015625,1 z m 0,0"
             id="path9008" />
        </g>
      </g>
      <g
         style="fill:#211e1e;fill-opacity:1"
         id="g3358">
        <g
           id="use3356"
           transform="translate(277.19846,283.55988)">
          <path
             style="stroke:none"
             d="M 3.140625,-3.125 3.09375,-4.484375 H 2.984375 L 2.96875,-4.46875 C 2.875,-4.390625 2.875,-4.390625 2.828125,-4.390625 c -0.0625,0 -0.15625,-0.015625 -0.265625,-0.0625 -0.21875,-0.078125 -0.4375,-0.125 -0.703125,-0.125 -0.78125,0 -1.34375,0.515625 -1.34375,1.234375 0,0.546875 0.3125,0.953125 1.15625,1.4375 L 2.25,-1.578125 c 0.359375,0.1875 0.515625,0.4375 0.515625,0.734375 0,0.4375 -0.3125,0.71875 -0.828125,0.71875 -0.328125,0 -0.640625,-0.125 -0.828125,-0.34375 -0.21875,-0.25 -0.296875,-0.484375 -0.4375,-1.046875 h -0.15625 v 1.5625 h 0.125 C 0.71875,-0.0625 0.75,-0.078125 0.875,-0.078125 c 0.09375,0 0.234375,0.015625 0.453125,0.078125 0.28125,0.0625 0.5625,0.09375 0.734375,0.09375 0.765625,0 1.40625,-0.578125 1.40625,-1.265625 0,-0.5 -0.234375,-0.828125 -0.84375,-1.1875 L 1.5625,-3 C 1.28125,-3.15625 1.125,-3.40625 1.125,-3.671875 c 0,-0.40625 0.3125,-0.6875 0.765625,-0.6875 0.578125,0 0.875,0.34375 1.09375,1.234375 z m 0,0"
             id="path9012" />
        </g>
      </g>
      <g
         style="fill:#211e1e;fill-opacity:1"
         id="g3362">
        <g
           id="use3360"
           transform="translate(290.15848,277.92004)">
          <path
             style="stroke:none"
             d="M 4.15625,-0.125 C 3.734375,-0.15625 3.6875,-0.21875 3.59375,-0.75 l -0.6875,-4.171875 h -0.1875 l -2.140625,3.6875 C 0,-0.265625 -0.078125,-0.171875 -0.375,-0.125 V 0 H 1 v -0.125 c -0.375,-0.03125 -0.4375,-0.0625 -0.4375,-0.25 0,-0.140625 0.03125,-0.203125 0.15625,-0.453125 l 0.421875,-0.84375 h 1.625 l 0.140625,0.96875 c 0,0.0625 0.015625,0.140625 0.015625,0.1875 0,0.28125 -0.109375,0.359375 -0.578125,0.390625 V 0 h 1.8125 z M 1.296875,-1.9375 2.390625,-3.84375 2.71875,-1.9375 Z m 0,0"
             id="path9016" />
        </g>
      </g>
      <g
         style="fill:#211e1e;fill-opacity:1"
         id="g3366">
        <g
           id="use3364"
           transform="translate(283.0784,283.55988)">
          <path
             style="stroke:none"
             d="m 9.046875,-2.296875 c 0.1875,0 0.359375,0 0.359375,-0.203125 0,-0.1875 -0.171875,-0.1875 -0.359375,-0.1875 h -7.40625 c 0.546875,-0.421875 0.828125,-0.828125 0.90625,-0.96875 0.4375,-0.6875 0.53125,-1.3125 0.53125,-1.3125 0,-0.125 -0.125,-0.125 -0.203125,-0.125 -0.171875,0 -0.1875,0.015625 -0.21875,0.203125 C 2.421875,-3.921875 1.828125,-3.09375 0.703125,-2.625 0.59375,-2.578125 0.5625,-2.5625 0.5625,-2.5 c 0,0.078125 0.046875,0.09375 0.140625,0.140625 1.046875,0.421875 1.703125,1.203125 1.953125,2.3125 0.03125,0.125 0.046875,0.15625 0.21875,0.15625 0.078125,0 0.203125,0 0.203125,-0.125 0,-0.015625 -0.09375,-0.640625 -0.515625,-1.3125 C 2.359375,-1.625 2.078125,-1.96875 1.640625,-2.296875 Z m 0,0"
             id="path9020" />
        </g>
      </g>
      <g
         style="fill:#211e1e;fill-opacity:1"
         id="g3370">
        <g
           id="use3368"
           transform="translate(291.35849,283.55988)">
          <path
             style="stroke:none"
             d="m 6.5625,-2.296875 c 0.171875,0 0.359375,0 0.359375,-0.203125 0,-0.1875 -0.1875,-0.1875 -0.359375,-0.1875 H 1.171875 c -0.171875,0 -0.34375,0 -0.34375,0.1875 0,0.203125 0.171875,0.203125 0.34375,0.203125 z m 0,0"
             id="path9024" />
        </g>
      </g>
      <g
         style="fill:#211e1e;fill-opacity:1"
         id="g3374">
        <g
           id="use3372"
           transform="translate(301.3186,283.55988)">
          <path
             style="stroke:none"
             d="m 3.421875,0.09375 1.46875,-0.515625 v -0.15625 C 4.71875,-0.5625 4.6875,-0.5625 4.671875,-0.5625 c -0.359375,0 -0.4375,-0.109375 -0.4375,-0.578125 V -6.78125 L 4.171875,-6.8125 C 3.703125,-6.640625 3.34375,-6.546875 2.71875,-6.375 v 0.171875 c 0.078125,-0.015625 0.125,-0.015625 0.21875,-0.015625 0.359375,0 0.453125,0.09375 0.453125,0.5 v 1.5625 c -0.375,-0.3125 -0.65625,-0.421875 -1.046875,-0.421875 -1.140625,0 -2.078125,1.125 -2.078125,2.53125 0,1.28125 0.75,2.140625 1.84375,2.140625 0.5625,0 0.9375,-0.1875 1.28125,-0.65625 v 0.625 z m -0.03125,-1.109375 c 0,0.0625 -0.078125,0.1875 -0.171875,0.296875 -0.171875,0.203125 -0.421875,0.296875 -0.71875,0.296875 -0.828125,0 -1.375,-0.796875 -1.375,-2.015625 0,-1.125 0.484375,-1.875 1.25,-1.875 0.53125,0 1.015625,0.46875 1.015625,1 z m 0,0"
             id="path9028" />
        </g>
      </g>
      <g
         style="fill:#211e1e;fill-opacity:1"
         id="g3378">
        <g
           id="use3376"
           transform="translate(306.35861,283.55988)">
          <path
             style="stroke:none"
             d="m 2.5,-4.578125 c -1.296875,0 -2.203125,0.953125 -2.203125,2.328125 0,1.34375 0.921875,2.34375 2.171875,2.34375 1.265625,0 2.21875,-1.046875 2.21875,-2.421875 0,-1.3125 -0.921875,-2.25 -2.1875,-2.25 z M 2.359375,-4.3125 c 0.84375,0 1.421875,0.96875 1.421875,2.328125 0,1.125 -0.4375,1.8125 -1.1875,1.8125 -0.390625,0 -0.765625,-0.25 -0.96875,-0.640625 C 1.34375,-1.328125 1.1875,-2.03125 1.1875,-2.734375 1.1875,-3.6875 1.65625,-4.3125 2.359375,-4.3125 Z m 0,0"
             id="path9032" />
        </g>
      </g>
      <g
         style="fill:#211e1e;fill-opacity:1"
         id="g3382">
        <g
           id="use3380"
           transform="translate(311.39862,283.55988)">
          <path
             style="stroke:none"
             d="M 3.96875,-1.5625 C 3.484375,-0.859375 3.125,-0.625 2.5625,-0.625 c -0.90625,0 -1.546875,-0.796875 -1.546875,-1.9375 0,-1.03125 0.546875,-1.734375 1.359375,-1.734375 0.359375,0 0.484375,0.109375 0.578125,0.484375 l 0.0625,0.21875 c 0.078125,0.28125 0.265625,0.453125 0.46875,0.453125 0.265625,0 0.484375,-0.1875 0.484375,-0.421875 0,-0.546875 -0.703125,-1.015625 -1.53125,-1.015625 -0.5,0 -1,0.1875 -1.40625,0.546875 -0.5,0.4375 -0.78125,1.125 -0.78125,1.90625 0,1.296875 0.78125,2.21875 1.890625,2.21875 0.453125,0 0.84375,-0.15625 1.203125,-0.46875 0.28125,-0.234375 0.46875,-0.5 0.765625,-1.09375 z m 0,0"
             id="path9036" />
        </g>
      </g>
      <g
         style="fill:#211e1e;fill-opacity:1"
         id="g3386">
        <g
           id="use3384"
           transform="translate(315.83859,283.55988)">
          <path
             style="stroke:none"
             d="m 4.78125,-0.5 h -0.0625 c -0.453125,0 -0.5625,-0.109375 -0.5625,-0.5625 V -4.484375 H 2.578125 V -4.3125 c 0.625,0.03125 0.734375,0.125 0.734375,0.625 v 2.34375 c 0,0.28125 -0.046875,0.421875 -0.1875,0.53125 -0.265625,0.21875 -0.578125,0.328125 -0.875,0.328125 -0.390625,0 -0.703125,-0.328125 -0.703125,-0.75 v -3.25 H 0.09375 v 0.140625 c 0.46875,0.03125 0.609375,0.171875 0.609375,0.640625 v 2.5 c 0,0.796875 0.484375,1.296875 1.203125,1.296875 0.375,0 0.765625,-0.15625 1.03125,-0.421875 L 3.375,-0.75 v 0.8125 l 0.03125,0.03125 c 0.5,-0.203125 0.859375,-0.3125 1.375,-0.453125 z m 0,0"
             id="path9040" />
        </g>
      </g>
      <g
         style="fill:#211e1e;fill-opacity:1"
         id="g3390">
        <g
           id="use3388"
           transform="translate(320.8786,283.55988)">
          <path
             style="stroke:none"
             d="M 0.1875,-3.96875 C 0.3125,-4 0.40625,-4 0.515625,-4 c 0.25,0 0.34375,0.15625 0.34375,0.625 v 2.53125 c 0,0.53125 -0.140625,0.6875 -0.703125,0.6875 V 0 H 2.375 V -0.15625 C 1.84375,-0.171875 1.6875,-0.28125 1.6875,-0.671875 v -2.8125 c 0,-0.015625 0.09375,-0.109375 0.15625,-0.1875 0.25,-0.21875 0.671875,-0.390625 1.03125,-0.390625 0.4375,0 0.65625,0.34375 0.65625,1.046875 v 2.15625 c 0,0.5625 -0.109375,0.671875 -0.6875,0.703125 V 0 h 2.234375 v -0.15625 c -0.5625,0 -0.71875,-0.171875 -0.71875,-0.796875 v -2.5 C 4.671875,-3.890625 5,-4.0625 5.453125,-4.0625 c 0.5625,0 0.75,0.265625 0.75,1.09375 V -0.875 c 0,0.578125 -0.078125,0.65625 -0.65625,0.71875 V 0 H 7.71875 v -0.15625 l -0.25,-0.015625 C 7.171875,-0.1875 7.03125,-0.375 7.03125,-0.75 v -2.0625 c 0,-1.171875 -0.375,-1.765625 -1.15625,-1.765625 -0.578125,0 -1.078125,0.25 -1.625,0.828125 -0.171875,-0.5625 -0.515625,-0.828125 -1.046875,-0.828125 -0.4375,0 -0.71875,0.125 -1.546875,0.765625 v -0.75 L 1.578125,-4.578125 c -0.5,0.1875 -0.84375,0.296875 -1.390625,0.4375 z m 0,0"
             id="path9044" />
        </g>
      </g>
      <g
         style="fill:#211e1e;fill-opacity:1"
         id="g3394">
        <g
           id="use3392"
           transform="translate(328.67859,283.55988)">
          <path
             style="stroke:none"
             d="M 4.0625,-1.640625 C 3.59375,-0.875 3.15625,-0.59375 2.515625,-0.59375 c -0.5625,0 -0.984375,-0.28125 -1.28125,-0.859375 -0.171875,-0.375 -0.25,-0.703125 -0.265625,-1.3125 h 3.0625 c -0.078125,-0.640625 -0.171875,-0.9375 -0.421875,-1.25 -0.296875,-0.359375 -0.765625,-0.5625 -1.28125,-0.5625 -0.5,0 -0.96875,0.171875 -1.34375,0.515625 C 0.515625,-3.65625 0.25,-2.953125 0.25,-2.140625 0.25,-0.75 0.96875,0.09375 2.109375,0.09375 c 0.953125,0 1.703125,-0.578125 2.125,-1.65625 z m -3.078125,-1.4375 c 0.109375,-0.78125 0.453125,-1.15625 1.0625,-1.15625 0.609375,0 0.84375,0.28125 0.96875,1.15625 z m 0,0"
             id="path9048" />
        </g>
      </g>
      <g
         style="fill:#211e1e;fill-opacity:1"
         id="g3398">
        <g
           id="use3396"
           transform="translate(333.11859,283.55988)">
          <path
             style="stroke:none"
             d="M 0.15625,-3.96875 C 0.21875,-4 0.3125,-4 0.421875,-4 c 0.28125,0 0.375,0.140625 0.375,0.625 v 2.484375 c 0,0.5625 -0.109375,0.703125 -0.625,0.734375 V 0 h 2.125 V -0.15625 C 1.78125,-0.1875 1.640625,-0.3125 1.640625,-0.671875 V -3.46875 c 0.46875,-0.453125 0.6875,-0.5625 1.015625,-0.5625 0.5,0 0.734375,0.296875 0.734375,0.953125 v 2.09375 c 0,0.625 -0.125,0.796875 -0.625,0.828125 V 0 h 2.0625 V -0.15625 C 4.34375,-0.203125 4.234375,-0.3125 4.234375,-0.8125 v -2.28125 c 0,-0.9375 -0.453125,-1.484375 -1.1875,-1.484375 -0.453125,0 -0.765625,0.15625 -1.4375,0.796875 V -4.5625 L 1.53125,-4.578125 c -0.484375,0.171875 -0.828125,0.28125 -1.375,0.4375 z m 0,0"
             id="path9052" />
        </g>
      </g>
      <g
         style="fill:#211e1e;fill-opacity:1"
         id="g3402">
        <g
           id="use3400"
           transform="translate(338.1586,283.55988)">
          <path
             style="stroke:none"
             d="M 2.546875,-4.484375 H 1.53125 v -1.15625 c 0,-0.09375 0,-0.125 -0.0625,-0.125 C 1.390625,-5.6875 1.328125,-5.59375 1.265625,-5.5 c -0.375,0.5625 -0.8125,1.03125 -0.96875,1.078125 C 0.1875,-4.359375 0.125,-4.28125 0.125,-4.234375 c 0,0.03125 0.015625,0.046875 0.046875,0.0625 h 0.53125 v 3 c 0,0.84375 0.296875,1.265625 0.875,1.265625 0.5,0 0.875,-0.234375 1.203125,-0.75 l -0.125,-0.109375 c -0.21875,0.25 -0.390625,0.34375 -0.609375,0.34375 C 1.6875,-0.421875 1.53125,-0.6875 1.53125,-1.3125 v -2.859375 h 1.015625 z m 0,0"
             id="path9056" />
        </g>
      </g>
      <g
         style="fill:#211e1e;fill-opacity:1"
         id="g3406">
        <g
           id="use3404"
           transform="translate(340.91861,283.55988)">
          <path
             style="stroke:none"
             d="M 3.140625,-3.125 3.09375,-4.484375 H 2.984375 L 2.96875,-4.46875 C 2.875,-4.390625 2.875,-4.390625 2.828125,-4.390625 c -0.0625,0 -0.15625,-0.015625 -0.265625,-0.0625 -0.21875,-0.078125 -0.4375,-0.125 -0.703125,-0.125 -0.78125,0 -1.34375,0.515625 -1.34375,1.234375 0,0.546875 0.3125,0.953125 1.15625,1.4375 L 2.25,-1.578125 c 0.359375,0.1875 0.515625,0.4375 0.515625,0.734375 0,0.4375 -0.3125,0.71875 -0.828125,0.71875 -0.328125,0 -0.640625,-0.125 -0.828125,-0.34375 -0.21875,-0.25 -0.296875,-0.484375 -0.4375,-1.046875 h -0.15625 v 1.5625 h 0.125 C 0.71875,-0.0625 0.75,-0.078125 0.875,-0.078125 c 0.09375,0 0.234375,0.015625 0.453125,0.078125 0.28125,0.0625 0.5625,0.09375 0.734375,0.09375 0.765625,0 1.40625,-0.578125 1.40625,-1.265625 0,-0.5 -0.234375,-0.828125 -0.84375,-1.1875 L 1.5625,-3 C 1.28125,-3.15625 1.125,-3.40625 1.125,-3.671875 c 0,-0.40625 0.3125,-0.6875 0.765625,-0.6875 0.578125,0 0.875,0.34375 1.09375,1.234375 z m 0,0"
             id="path9060" />
        </g>
      </g>
      <g
         style="fill:#211e1e;fill-opacity:1"
         id="g3658">
        <g
           id="use3656"
           transform="translate(233.87862,323.40018)">
          <path
             style="stroke:none"
             d="M 5.625,-0.15625 C 5.046875,-0.203125 5,-0.296875 4.859375,-1.015625 l -0.9375,-5.640625 h -0.25 L 0.78125,-1.671875 c -0.796875,1.328125 -0.890625,1.4375 -1.296875,1.515625 V 0 h 1.875 v -0.15625 c -0.515625,-0.046875 -0.59375,-0.109375 -0.59375,-0.359375 0,-0.1875 0.03125,-0.265625 0.203125,-0.609375 l 0.5625,-1.125 h 2.203125 l 0.1875,1.296875 c 0.015625,0.09375 0.03125,0.1875 0.03125,0.265625 0,0.375 -0.140625,0.46875 -0.78125,0.53125 V 0 H 5.625 Z m -3.875,-2.453125 1.484375,-2.59375 0.4375,2.59375 z m 0,0"
             id="path9064" />
        </g>
      </g>
      <g
         style="fill:#211e1e;fill-opacity:1"
         id="g3662">
        <g
           id="use3660"
           transform="translate(239.99854,323.40018)">
          <path
             style="stroke:none"
             d="m 3.296875,2.390625 c 0,-0.03125 0,-0.046875 -0.171875,-0.21875 C 1.890625,0.921875 1.5625,-0.96875 1.5625,-2.5 c 0,-1.734375 0.375,-3.46875 1.609375,-4.703125 0.125,-0.125 0.125,-0.140625 0.125,-0.171875 0,-0.078125 -0.03125,-0.109375 -0.09375,-0.109375 -0.109375,0 -1,0.6875 -1.59375,1.953125 -0.5,1.09375 -0.625,2.203125 -0.625,3.03125 0,0.78125 0.109375,1.984375 0.65625,3.125 C 2.25,1.84375 3.09375,2.5 3.203125,2.5 c 0.0625,0 0.09375,-0.03125 0.09375,-0.109375 z m 0,0"
             id="path9068" />
        </g>
      </g>
      <g
         style="fill:#211e1e;fill-opacity:1"
         id="g3666">
        <g
           id="use3664"
           transform="translate(243.83836,323.40018)">
          <path
             style="stroke:none"
             d="m 3.5625,-1.09375 c -0.71875,0.59375 -1.015625,0.75 -1.453125,0.75 -0.5625,0 -0.9375,-0.359375 -0.9375,-0.890625 0,-0.15625 0.03125,-0.296875 0.109375,-0.625 l 0.28125,-0.03125 c 1.484375,-0.21875 2.546875,-0.96875 2.546875,-1.828125 0,-0.421875 -0.296875,-0.671875 -0.796875,-0.671875 -1.4375,0 -3,1.640625 -3,3.140625 0,0.796875 0.53125,1.359375 1.3125,1.359375 0.703125,0 1.46875,-0.40625 2.0625,-1.078125 z M 1.515625,-2.515625 c 0.34375,-0.890625 1.078125,-1.65625 1.578125,-1.65625 0.21875,0 0.359375,0.171875 0.359375,0.390625 0,0.3125 -0.1875,0.671875 -0.5,0.96875 -0.375,0.34375 -0.75,0.53125 -1.609375,0.734375 z m 0,0"
             id="path9072" />
        </g>
      </g>
      <g
         style="fill:#211e1e;fill-opacity:1"
         id="g3670">
        <g
           id="use3668"
           transform="translate(248.27859,324.84003)">
          <path
             style="stroke:none"
             d="m 1.640625,-0.84375 c -0.1875,0.234375 -0.234375,0.296875 -0.3125,0.375 -0.125,0.125 -0.234375,0.203125 -0.296875,0.203125 -0.0625,0 -0.109375,-0.0625 -0.109375,-0.109375 0,-0.078125 0.015625,-0.1875 0.0625,-0.328125 0,-0.015625 0.03125,-0.078125 0.046875,-0.125 v -0.03125 L 1.6875,-3.234375 1.65625,-3.25 c -0.734375,0.140625 -0.890625,0.15625 -1.171875,0.1875 v 0.109375 C 0.875,-2.9375 0.9375,-2.921875 0.9375,-2.765625 c 0,0.046875 -0.015625,0.171875 -0.0625,0.3125 l -0.34375,1.3125 c -0.125,0.421875 -0.171875,0.65625 -0.171875,0.796875 0,0.28125 0.125,0.421875 0.34375,0.421875 0.34375,0 0.609375,-0.21875 1.03125,-0.84375 z m -0.0625,-3.984375 c -0.203125,0 -0.34375,0.171875 -0.34375,0.390625 0,0.234375 0.140625,0.390625 0.34375,0.390625 0.203125,0 0.375,-0.171875 0.375,-0.375 0,-0.203125 -0.171875,-0.40625 -0.375,-0.40625 z m 0,0"
             id="path9076" />
        </g>
      </g>
      <g
         style="fill:#211e1e;fill-opacity:1"
         id="g3674">
        <g
           id="use3672"
           transform="translate(252.23837,323.40018)">
          <path
             style="stroke:none"
             d="m 4.078125,-2.296875 h 2.78125 C 7,-2.296875 7.1875,-2.296875 7.1875,-2.5 7.1875,-2.6875 7,-2.6875 6.859375,-2.6875 h -2.78125 v -2.796875 c 0,-0.140625 0,-0.328125 -0.203125,-0.328125 -0.203125,0 -0.203125,0.1875 -0.203125,0.328125 V -2.6875 h -2.78125 c -0.140625,0 -0.328125,0 -0.328125,0.1875 0,0.203125 0.1875,0.203125 0.328125,0.203125 h 2.78125 V 0.5 c 0,0.140625 0,0.328125 0.203125,0.328125 0.203125,0 0.203125,-0.1875 0.203125,-0.328125 z m 0,0"
             id="path9080" />
        </g>
      </g>
      <g
         style="fill:#211e1e;fill-opacity:1"
         id="g3678">
        <g
           id="use3676"
           transform="translate(261.47821,323.40018)">
          <path
             style="stroke:none"
             d="m 3.5625,-1.09375 c -0.71875,0.59375 -1.015625,0.75 -1.453125,0.75 -0.5625,0 -0.9375,-0.359375 -0.9375,-0.890625 0,-0.15625 0.03125,-0.296875 0.109375,-0.625 l 0.28125,-0.03125 c 1.484375,-0.21875 2.546875,-0.96875 2.546875,-1.828125 0,-0.421875 -0.296875,-0.671875 -0.796875,-0.671875 -1.4375,0 -3,1.640625 -3,3.140625 0,0.796875 0.53125,1.359375 1.3125,1.359375 0.703125,0 1.46875,-0.40625 2.0625,-1.078125 z M 1.515625,-2.515625 c 0.34375,-0.890625 1.078125,-1.65625 1.578125,-1.65625 0.21875,0 0.359375,0.171875 0.359375,0.390625 0,0.3125 -0.1875,0.671875 -0.5,0.96875 -0.375,0.34375 -0.75,0.53125 -1.609375,0.734375 z m 0,0"
             id="path9084" />
        </g>
      </g>
      <g
         style="fill:#211e1e;fill-opacity:1"
         id="g3682">
        <g
           id="use3680"
           transform="translate(266.99854,324.84003)">
          <path
             style="stroke:none"
             d="M 1.8125,-3.234375 1.796875,-3.25 c -0.65625,0.109375 -1.03125,0.171875 -1.265625,0.1875 v 0.109375 H 0.796875 C 0.84375,-2.96875 1,-2.921875 1.03125,-2.890625 c 0.03125,0.03125 0.046875,0.09375 0.046875,0.171875 0,0.078125 -0.03125,0.265625 -0.109375,0.59375 L 0.4375,0.015625 c -0.25,1.015625 -0.421875,1.34375 -0.71875,1.34375 -0.09375,0 -0.125,-0.03125 -0.125,-0.078125 0,-0.03125 0,-0.046875 0.03125,-0.09375 0.046875,-0.046875 0.0625,-0.09375 0.0625,-0.140625 0,-0.15625 -0.140625,-0.28125 -0.3125,-0.28125 -0.171875,0 -0.296875,0.140625 -0.296875,0.3125 0,0.25 0.25,0.453125 0.59375,0.453125 0.640625,0 1.078125,-0.5625 1.375,-1.734375 z m -0.140625,-1.59375 c -0.203125,0 -0.359375,0.171875 -0.359375,0.390625 0,0.234375 0.140625,0.390625 0.359375,0.390625 0.1875,0 0.359375,-0.171875 0.359375,-0.375 0,-0.203125 -0.171875,-0.40625 -0.359375,-0.40625 z m 0,0"
             id="path9088" />
        </g>
      </g>
      <g
         style="fill:#211e1e;fill-opacity:1"
         id="g3686">
        <g
           id="use3684"
           transform="translate(270.95868,323.40018)">
          <path
             style="stroke:none"
             d="m 4.078125,-2.296875 h 2.78125 C 7,-2.296875 7.1875,-2.296875 7.1875,-2.5 7.1875,-2.6875 7,-2.6875 6.859375,-2.6875 h -2.78125 v -2.796875 c 0,-0.140625 0,-0.328125 -0.203125,-0.328125 -0.203125,0 -0.203125,0.1875 -0.203125,0.328125 V -2.6875 h -2.78125 c -0.140625,0 -0.328125,0 -0.328125,0.1875 0,0.203125 0.1875,0.203125 0.328125,0.203125 h 2.78125 V 0.5 c 0,0.140625 0,0.328125 0.203125,0.328125 0.203125,0 0.203125,-0.1875 0.203125,-0.328125 z m 0,0"
             id="path9092" />
        </g>
      </g>
      <g
         style="fill:#211e1e;fill-opacity:1"
         id="g3690">
        <g
           id="use3688"
           transform="translate(280.19852,323.40018)">
          <path
             style="stroke:none"
             d="m 3.5625,-1.09375 c -0.71875,0.59375 -1.015625,0.75 -1.453125,0.75 -0.5625,0 -0.9375,-0.359375 -0.9375,-0.890625 0,-0.15625 0.03125,-0.296875 0.109375,-0.625 l 0.28125,-0.03125 c 1.484375,-0.21875 2.546875,-0.96875 2.546875,-1.828125 0,-0.421875 -0.296875,-0.671875 -0.796875,-0.671875 -1.4375,0 -3,1.640625 -3,3.140625 0,0.796875 0.53125,1.359375 1.3125,1.359375 0.703125,0 1.46875,-0.40625 2.0625,-1.078125 z M 1.515625,-2.515625 c 0.34375,-0.890625 1.078125,-1.65625 1.578125,-1.65625 0.21875,0 0.359375,0.171875 0.359375,0.390625 0,0.3125 -0.1875,0.671875 -0.5,0.96875 -0.375,0.34375 -0.75,0.53125 -1.609375,0.734375 z m 0,0"
             id="path9096" />
        </g>
      </g>
      <g
         style="fill:#211e1e;fill-opacity:1"
         id="g3694">
        <g
           id="use3692"
           transform="translate(284.63837,325.08026)">
          <path
             style="stroke:none"
             d="m 3.046875,-0.796875 -0.109375,0.1875 c -0.125,0.21875 -0.21875,0.3125 -0.328125,0.3125 -0.15625,0 -0.3125,-0.25 -0.59375,-0.953125 -0.046875,-0.09375 -0.15625,-0.359375 -0.28125,-0.65625 1.09375,-0.96875 1.3125,-1.109375 1.671875,-1.125 v -0.125 H 2.046875 v 0.125 h 0.125 c 0.1875,0 0.28125,0.046875 0.28125,0.125 0,0.140625 -0.359375,0.515625 -1.046875,1.03125 -0.109375,0.078125 -0.203125,0.15625 -0.328125,0.25 L 1.96875,-5 1.9375,-5.03125 C 1.5,-4.9375 1.21875,-4.890625 0.78125,-4.84375 v 0.125 c 0.359375,-0.015625 0.5,0.046875 0.5,0.1875 -0.015625,0.125 -0.0625,0.3125 -0.15625,0.65625 -0.03125,0.109375 -0.0625,0.1875 -0.078125,0.25 v 0.0625 L 0.109375,0 H 0.65625 L 1.015625,-1.328125 1.3125,-1.5625 c 0.125,0.328125 0.3125,0.765625 0.453125,1.03125 C 2,-0.0625 2.125,0.078125 2.34375,0.078125 c 0.296875,0 0.484375,-0.1875 0.8125,-0.796875 z m 0,0"
             id="path9100" />
        </g>
      </g>
      <g
         style="fill:#211e1e;fill-opacity:1"
         id="g3698">
        <g
           id="use3696"
           transform="translate(288.35867,323.40018)">
          <path
             style="stroke:none"
             d="m 2.875,-2.5 c 0,-0.765625 -0.109375,-1.96875 -0.65625,-3.109375 -0.59375,-1.21875 -1.453125,-1.875 -1.546875,-1.875 -0.0625,0 -0.109375,0.046875 -0.109375,0.109375 0,0.03125 0,0.046875 0.1875,0.234375 0.984375,0.984375 1.546875,2.5625 1.546875,4.640625 0,1.71875 -0.359375,3.46875 -1.59375,4.71875 C 0.5625,2.34375 0.5625,2.359375 0.5625,2.390625 0.5625,2.453125 0.609375,2.5 0.671875,2.5 0.765625,2.5 1.671875,1.8125 2.25,0.546875 2.765625,-0.546875 2.875,-1.65625 2.875,-2.5 Z m 0,0"
             id="path9104" />
        </g>
      </g>
      <g
         style="fill:#211e1e;fill-opacity:1"
         id="g3702">
        <g
           id="use3700"
           transform="translate(294.47858,323.40018)">
          <path
             style="stroke:none"
             d="m 6.84375,-3.265625 c 0.15625,0 0.34375,0 0.34375,-0.1875 C 7.1875,-3.65625 7,-3.65625 6.859375,-3.65625 h -5.96875 c -0.140625,0 -0.328125,0 -0.328125,0.203125 0,0.1875 0.1875,0.1875 0.328125,0.1875 z m 0.015625,1.9375 c 0.140625,0 0.328125,0 0.328125,-0.203125 0,-0.1875 -0.1875,-0.1875 -0.34375,-0.1875 H 0.890625 c -0.140625,0 -0.328125,0 -0.328125,0.1875 0,0.203125 0.1875,0.203125 0.328125,0.203125 z m 0,0"
             id="path9108" />
        </g>
      </g>
      <g
         style="fill:#211e1e;fill-opacity:1"
         id="g3706">
        <g
           id="use3704"
           transform="translate(304.43878,323.40018)">
          <path
             style="stroke:none"
             d="M 5.625,-0.15625 C 5.046875,-0.203125 5,-0.296875 4.859375,-1.015625 l -0.9375,-5.640625 h -0.25 L 0.78125,-1.671875 c -0.796875,1.328125 -0.890625,1.4375 -1.296875,1.515625 V 0 h 1.875 v -0.15625 c -0.515625,-0.046875 -0.59375,-0.109375 -0.59375,-0.359375 0,-0.1875 0.03125,-0.265625 0.203125,-0.609375 l 0.5625,-1.125 h 2.203125 l 0.1875,1.296875 c 0.015625,0.09375 0.03125,0.1875 0.03125,0.265625 0,0.375 -0.140625,0.46875 -0.78125,0.53125 V 0 H 5.625 Z m -3.875,-2.453125 1.484375,-2.59375 0.4375,2.59375 z m 0,0"
             id="path9112" />
        </g>
      </g>
      <g
         style="fill:#211e1e;fill-opacity:1"
         id="g3710">
        <g
           id="use3708"
           transform="translate(310.55875,323.40018)">
          <path
             style="stroke:none"
             d="m 3.5625,-1.09375 c -0.71875,0.59375 -1.015625,0.75 -1.453125,0.75 -0.5625,0 -0.9375,-0.359375 -0.9375,-0.890625 0,-0.15625 0.03125,-0.296875 0.109375,-0.625 l 0.28125,-0.03125 c 1.484375,-0.21875 2.546875,-0.96875 2.546875,-1.828125 0,-0.421875 -0.296875,-0.671875 -0.796875,-0.671875 -1.4375,0 -3,1.640625 -3,3.140625 0,0.796875 0.53125,1.359375 1.3125,1.359375 0.703125,0 1.46875,-0.40625 2.0625,-1.078125 z M 1.515625,-2.515625 c 0.34375,-0.890625 1.078125,-1.65625 1.578125,-1.65625 0.21875,0 0.359375,0.171875 0.359375,0.390625 0,0.3125 -0.1875,0.671875 -0.5,0.96875 -0.375,0.34375 -0.75,0.53125 -1.609375,0.734375 z m 0,0"
             id="path9116" />
        </g>
      </g>
      <g
         style="fill:#211e1e;fill-opacity:1"
         id="g3714">
        <g
           id="use3712"
           transform="translate(314.99857,324.84003)">
          <path
             style="stroke:none"
             d="m 1.640625,-0.84375 c -0.1875,0.234375 -0.234375,0.296875 -0.3125,0.375 -0.125,0.125 -0.234375,0.203125 -0.296875,0.203125 -0.0625,0 -0.109375,-0.0625 -0.109375,-0.109375 0,-0.078125 0.015625,-0.1875 0.0625,-0.328125 0,-0.015625 0.03125,-0.078125 0.046875,-0.125 v -0.03125 L 1.6875,-3.234375 1.65625,-3.25 c -0.734375,0.140625 -0.890625,0.15625 -1.171875,0.1875 v 0.109375 C 0.875,-2.9375 0.9375,-2.921875 0.9375,-2.765625 c 0,0.046875 -0.015625,0.171875 -0.0625,0.3125 l -0.34375,1.3125 c -0.125,0.421875 -0.171875,0.65625 -0.171875,0.796875 0,0.28125 0.125,0.421875 0.34375,0.421875 0.34375,0 0.609375,-0.21875 1.03125,-0.84375 z m -0.0625,-3.984375 c -0.203125,0 -0.34375,0.171875 -0.34375,0.390625 0,0.234375 0.140625,0.390625 0.34375,0.390625 0.203125,0 0.375,-0.171875 0.375,-0.375 0,-0.203125 -0.171875,-0.40625 -0.375,-0.40625 z m 0,0"
             id="path9120" />
        </g>
      </g>
      <g
         style="fill:#211e1e;fill-opacity:1"
         id="g3718">
        <g
           id="use3716"
           transform="translate(318.83841,323.40018)">
          <path
             style="stroke:none"
             d="m 4.078125,-2.296875 h 2.78125 C 7,-2.296875 7.1875,-2.296875 7.1875,-2.5 7.1875,-2.6875 7,-2.6875 6.859375,-2.6875 h -2.78125 v -2.796875 c 0,-0.140625 0,-0.328125 -0.203125,-0.328125 -0.203125,0 -0.203125,0.1875 -0.203125,0.328125 V -2.6875 h -2.78125 c -0.140625,0 -0.328125,0 -0.328125,0.1875 0,0.203125 0.1875,0.203125 0.328125,0.203125 h 2.78125 V 0.5 c 0,0.140625 0,0.328125 0.203125,0.328125 0.203125,0 0.203125,-0.1875 0.203125,-0.328125 z m 0,0"
             id="path9124" />
        </g>
      </g>
      <g
         style="fill:#211e1e;fill-opacity:1"
         id="g3722">
        <g
           id="use3720"
           transform="translate(328.07825,323.40018)">
          <path
             style="stroke:none"
             d="M 5.625,-0.15625 C 5.046875,-0.203125 5,-0.296875 4.859375,-1.015625 l -0.9375,-5.640625 h -0.25 L 0.78125,-1.671875 c -0.796875,1.328125 -0.890625,1.4375 -1.296875,1.515625 V 0 h 1.875 v -0.15625 c -0.515625,-0.046875 -0.59375,-0.109375 -0.59375,-0.359375 0,-0.1875 0.03125,-0.265625 0.203125,-0.609375 l 0.5625,-1.125 h 2.203125 l 0.1875,1.296875 c 0.015625,0.09375 0.03125,0.1875 0.03125,0.265625 0,0.375 -0.140625,0.46875 -0.78125,0.53125 V 0 H 5.625 Z m -3.875,-2.453125 1.484375,-2.59375 0.4375,2.59375 z m 0,0"
             id="path9128" />
        </g>
      </g>
      <g
         style="fill:#211e1e;fill-opacity:1"
         id="g3726">
        <g
           id="use3724"
           transform="translate(334.19824,323.40018)">
          <path
             style="stroke:none"
             d="m 3.5625,-1.09375 c -0.71875,0.59375 -1.015625,0.75 -1.453125,0.75 -0.5625,0 -0.9375,-0.359375 -0.9375,-0.890625 0,-0.15625 0.03125,-0.296875 0.109375,-0.625 l 0.28125,-0.03125 c 1.484375,-0.21875 2.546875,-0.96875 2.546875,-1.828125 0,-0.421875 -0.296875,-0.671875 -0.796875,-0.671875 -1.4375,0 -3,1.640625 -3,3.140625 0,0.796875 0.53125,1.359375 1.3125,1.359375 0.703125,0 1.46875,-0.40625 2.0625,-1.078125 z M 1.515625,-2.515625 c 0.34375,-0.890625 1.078125,-1.65625 1.578125,-1.65625 0.21875,0 0.359375,0.171875 0.359375,0.390625 0,0.3125 -0.1875,0.671875 -0.5,0.96875 -0.375,0.34375 -0.75,0.53125 -1.609375,0.734375 z m 0,0"
             id="path9132" />
        </g>
      </g>
      <g
         style="fill:#211e1e;fill-opacity:1"
         id="g3730">
        <g
           id="use3728"
           transform="translate(339.71844,324.84003)">
          <path
             style="stroke:none"
             d="M 1.8125,-3.234375 1.796875,-3.25 c -0.65625,0.109375 -1.03125,0.171875 -1.265625,0.1875 v 0.109375 H 0.796875 C 0.84375,-2.96875 1,-2.921875 1.03125,-2.890625 c 0.03125,0.03125 0.046875,0.09375 0.046875,0.171875 0,0.078125 -0.03125,0.265625 -0.109375,0.59375 L 0.4375,0.015625 c -0.25,1.015625 -0.421875,1.34375 -0.71875,1.34375 -0.09375,0 -0.125,-0.03125 -0.125,-0.078125 0,-0.03125 0,-0.046875 0.03125,-0.09375 0.046875,-0.046875 0.0625,-0.09375 0.0625,-0.140625 0,-0.15625 -0.140625,-0.28125 -0.3125,-0.28125 -0.171875,0 -0.296875,0.140625 -0.296875,0.3125 0,0.25 0.25,0.453125 0.59375,0.453125 0.640625,0 1.078125,-0.5625 1.375,-1.734375 z m -0.140625,-1.59375 c -0.203125,0 -0.359375,0.171875 -0.359375,0.390625 0,0.234375 0.140625,0.390625 0.359375,0.390625 0.1875,0 0.359375,-0.171875 0.359375,-0.375 0,-0.203125 -0.171875,-0.40625 -0.359375,-0.40625 z m 0,0"
             id="path9136" />
        </g>
      </g>
      <g
         style="fill:#211e1e;fill-opacity:1"
         id="g3734">
        <g
           id="use3732"
           transform="translate(343.79852,323.40018)">
          <path
             style="stroke:none"
             d="m 4.078125,-2.296875 h 2.78125 C 7,-2.296875 7.1875,-2.296875 7.1875,-2.5 7.1875,-2.6875 7,-2.6875 6.859375,-2.6875 h -2.78125 v -2.796875 c 0,-0.140625 0,-0.328125 -0.203125,-0.328125 -0.203125,0 -0.203125,0.1875 -0.203125,0.328125 V -2.6875 h -2.78125 c -0.140625,0 -0.328125,0 -0.328125,0.1875 0,0.203125 0.1875,0.203125 0.328125,0.203125 h 2.78125 V 0.5 c 0,0.140625 0,0.328125 0.203125,0.328125 0.203125,0 0.203125,-0.1875 0.203125,-0.328125 z m 0,0"
             id="path9140" />
        </g>
      </g>
      <g
         style="fill:#211e1e;fill-opacity:1"
         id="g3738">
        <g
           id="use3736"
           transform="translate(353.03836,323.40018)">
          <path
             style="stroke:none"
             d="M 5.625,-0.15625 C 5.046875,-0.203125 5,-0.296875 4.859375,-1.015625 l -0.9375,-5.640625 h -0.25 L 0.78125,-1.671875 c -0.796875,1.328125 -0.890625,1.4375 -1.296875,1.515625 V 0 h 1.875 v -0.15625 c -0.515625,-0.046875 -0.59375,-0.109375 -0.59375,-0.359375 0,-0.1875 0.03125,-0.265625 0.203125,-0.609375 l 0.5625,-1.125 h 2.203125 l 0.1875,1.296875 c 0.015625,0.09375 0.03125,0.1875 0.03125,0.265625 0,0.375 -0.140625,0.46875 -0.78125,0.53125 V 0 H 5.625 Z m -3.875,-2.453125 1.484375,-2.59375 0.4375,2.59375 z m 0,0"
             id="path9144" />
        </g>
      </g>
      <g
         style="fill:#211e1e;fill-opacity:1"
         id="g3742">
        <g
           id="use3740"
           transform="translate(359.15836,323.40018)">
          <path
             style="stroke:none"
             d="m 3.5625,-1.09375 c -0.71875,0.59375 -1.015625,0.75 -1.453125,0.75 -0.5625,0 -0.9375,-0.359375 -0.9375,-0.890625 0,-0.15625 0.03125,-0.296875 0.109375,-0.625 l 0.28125,-0.03125 c 1.484375,-0.21875 2.546875,-0.96875 2.546875,-1.828125 0,-0.421875 -0.296875,-0.671875 -0.796875,-0.671875 -1.4375,0 -3,1.640625 -3,3.140625 0,0.796875 0.53125,1.359375 1.3125,1.359375 0.703125,0 1.46875,-0.40625 2.0625,-1.078125 z M 1.515625,-2.515625 c 0.34375,-0.890625 1.078125,-1.65625 1.578125,-1.65625 0.21875,0 0.359375,0.171875 0.359375,0.390625 0,0.3125 -0.1875,0.671875 -0.5,0.96875 -0.375,0.34375 -0.75,0.53125 -1.609375,0.734375 z m 0,0"
             id="path9148" />
        </g>
      </g>
      <g
         style="fill:#211e1e;fill-opacity:1"
         id="g3746">
        <g
           id="use3744"
           transform="translate(363.59857,325.08026)">
          <path
             style="stroke:none"
             d="m 3.046875,-0.796875 -0.109375,0.1875 c -0.125,0.21875 -0.21875,0.3125 -0.328125,0.3125 -0.15625,0 -0.3125,-0.25 -0.59375,-0.953125 -0.046875,-0.09375 -0.15625,-0.359375 -0.28125,-0.65625 1.09375,-0.96875 1.3125,-1.109375 1.671875,-1.125 v -0.125 H 2.046875 v 0.125 h 0.125 c 0.1875,0 0.28125,0.046875 0.28125,0.125 0,0.140625 -0.359375,0.515625 -1.046875,1.03125 -0.109375,0.078125 -0.203125,0.15625 -0.328125,0.25 L 1.96875,-5 1.9375,-5.03125 C 1.5,-4.9375 1.21875,-4.890625 0.78125,-4.84375 v 0.125 c 0.359375,-0.015625 0.5,0.046875 0.5,0.1875 -0.015625,0.125 -0.0625,0.3125 -0.15625,0.65625 -0.03125,0.109375 -0.0625,0.1875 -0.078125,0.25 v 0.0625 L 0.109375,0 H 0.65625 L 1.015625,-1.328125 1.3125,-1.5625 c 0.125,0.328125 0.3125,0.765625 0.453125,1.03125 C 2,-0.0625 2.125,0.078125 2.34375,0.078125 c 0.296875,0 0.484375,-0.1875 0.8125,-0.796875 z m 0,0"
             id="path9152" />
        </g>
      </g>
    </g>
  </g>
</svg>
