<?xml version="1.0" encoding="UTF-8" standalone="no"?>
<svg
   width="29.537407mm"
   height="16.863474mm"
   viewBox="0 0 29.537407 16.863474"
   version="1.1"
   id="svg10690"
   xmlns="http://www.w3.org/2000/svg"
   xmlns:svg="http://www.w3.org/2000/svg">
  <defs
     id="defs10687" />
  <g
     id="layer1"
     transform="translate(-55.483216,-120.64903)">
    <g
       id="g10420"
       transform="matrix(0.35277777,0,0,0.35277777,-35.181717,-10.023242)">
      <g
         style="fill:#211e1e;fill-opacity:1"
         id="g4154">
        <g
           id="use4152"
           transform="translate(257.51859,396.84006)">
          <path
             style="stroke:none"
             d="M 5.625,-0.15625 C 5.046875,-0.203125 5,-0.296875 4.859375,-1.015625 l -0.9375,-5.640625 h -0.25 L 0.78125,-1.671875 c -0.796875,1.328125 -0.890625,1.4375 -1.296875,1.515625 V 0 h 1.875 v -0.15625 c -0.515625,-0.046875 -0.59375,-0.109375 -0.59375,-0.359375 0,-0.1875 0.03125,-0.265625 0.203125,-0.609375 l 0.5625,-1.125 h 2.203125 l 0.1875,1.296875 c 0.015625,0.09375 0.03125,0.1875 0.03125,0.265625 0,0.375 -0.140625,0.46875 -0.78125,0.53125 V 0 H 5.625 Z m -3.875,-2.453125 1.484375,-2.59375 0.4375,2.59375 z m 0,0"
             id="path10422" />
        </g>
      </g>
      <g
         style="fill:#211e1e;fill-opacity:1"
         id="g4158">
        <g
           id="use4156"
           transform="translate(263.63849,392.64005)">
          <path
             style="stroke:none"
             d="M 4.671875,-4.8125 H 0.75 l -0.3125,1.125 0.125,0.03125 c 0.390625,-0.796875 0.625,-0.921875 1.765625,-0.90625 l -1.0625,3.90625 c -0.125,0.390625 -0.296875,0.5 -0.78125,0.53125 V 0 H 2.625 v -0.125 c -0.125,0 -0.25,-0.015625 -0.28125,-0.015625 -0.296875,-0.015625 -0.390625,-0.09375 -0.390625,-0.3125 0,-0.09375 0.015625,-0.1875 0.09375,-0.4375 L 3.0625,-4.5625 h 0.40625 c 0.53125,0 0.765625,0.1875 0.765625,0.609375 0,0.09375 0,0.203125 -0.015625,0.328125 l 0.125,0.015625 z m 0,0"
             id="path10426" />
        </g>
      </g>
      <g
         style="fill:#211e1e;fill-opacity:1"
         id="g4162">
        <g
           id="use4160"
           transform="translate(271.43848,396.84006)">
          <path
             style="stroke:none"
             d="m 6.84375,-3.265625 c 0.15625,0 0.34375,0 0.34375,-0.1875 C 7.1875,-3.65625 7,-3.65625 6.859375,-3.65625 h -5.96875 c -0.140625,0 -0.328125,0 -0.328125,0.203125 0,0.1875 0.1875,0.1875 0.328125,0.1875 z m 0.015625,1.9375 c 0.140625,0 0.328125,0 0.328125,-0.203125 0,-0.1875 -0.1875,-0.1875 -0.34375,-0.1875 H 0.890625 c -0.140625,0 -0.328125,0 -0.328125,0.1875 0,0.203125 0.1875,0.203125 0.328125,0.203125 z m 0,0"
             id="path10430" />
        </g>
      </g>
      <g
         style="fill:#211e1e;fill-opacity:1"
         id="g4166">
        <g
           id="use4164"
           transform="translate(281.39865,370.80026)">
          <path
             style="stroke:none"
             d="M 3.734375,17.640625 C 3.953125,17.640625 4,17.640625 4,17.5 4.03125,10.515625 4.828125,4.71875 8.328125,-0.15625 c 0.0625,-0.09375 0.0625,-0.109375 0.0625,-0.140625 0,-0.09375 -0.0625,-0.09375 -0.21875,-0.09375 -0.171875,0 -0.1875,0 -0.203125,0.015625 -0.046875,0.03125 -1.3125,1.484375 -2.3125,3.5 -1.3125,2.625 -2.140625,5.640625 -2.515625,9.28125 -0.03125,0.296875 -0.234375,2.375 -0.234375,4.734375 v 0.390625 c 0,0.109375 0.0625,0.109375 0.28125,0.109375 z m 0,0"
             id="path10434" />
        </g>
      </g>
      <g
         style="fill:#211e1e;fill-opacity:1"
         id="g4170">
        <g
           id="use4168"
           transform="translate(281.39865,388.32016)">
          <path
             style="stroke:none"
             d="M 4,0.171875 C 4,-0.09375 4,-0.09375 3.734375,-0.09375 H 3.1875 c -0.28125,0 -0.28125,0 -0.28125,0.265625 V 5.8125 c 0,0.265625 0,0.265625 0.28125,0.265625 H 3.734375 C 4,6.078125 4,6.078125 4,5.8125 Z m 0,0"
             id="path10438" />
        </g>
      </g>
      <g
         style="fill:#211e1e;fill-opacity:1"
         id="g4174">
        <g
           id="use4172"
           transform="translate(281.39865,394.32016)">
          <path
             style="stroke:none"
             d="M 4,0.171875 C 4,-0.09375 4,-0.09375 3.734375,-0.09375 H 3.1875 c -0.28125,0 -0.28125,0 -0.28125,0.265625 V 5.8125 c 0,0.265625 0,0.265625 0.28125,0.265625 H 3.734375 C 4,6.078125 4,6.078125 4,5.8125 Z m 0,0"
             id="path10442" />
        </g>
      </g>
      <g
         style="fill:#211e1e;fill-opacity:1"
         id="g4178">
        <g
           id="use4176"
           transform="translate(281.39865,400.68033)">
          <path
             style="stroke:none"
             d="m 3.1875,-0.5 c -0.21875,0 -0.28125,0 -0.28125,0.109375 V 0 c 0,6.09375 1.078125,9.65625 1.390625,10.671875 C 4.96875,12.875 6.078125,15.21875 7.75,17.265625 7.890625,17.453125 7.9375,17.5 7.96875,17.515625 8,17.53125 8,17.53125 8.171875,17.53125 c 0.15625,0 0.21875,0 0.21875,-0.09375 0,-0.01563 0,-0.04687 -0.0625,-0.125 C 5.015625,12.703125 4.015625,7.15625 4,-0.359375 4,-0.5 3.953125,-0.5 3.734375,-0.5 Z m 0,0"
             id="path10446" />
        </g>
      </g>
      <g
         style="fill:#211e1e;fill-opacity:1"
         id="g4182">
        <g
           id="use4180"
           transform="translate(291.59866,378.72012)">
          <path
             style="stroke:none"
             d="m 1.53125,-3.296875 c 0.578125,0 0.8125,0.03125 1.046875,0.109375 0.625,0.234375 1.015625,0.796875 1.015625,1.484375 0,0.828125 -0.578125,1.484375 -1.3125,1.484375 -0.265625,0 -0.46875,-0.078125 -0.828125,-0.3125 -0.3125,-0.171875 -0.46875,-0.25 -0.640625,-0.25 -0.234375,0 -0.390625,0.140625 -0.390625,0.359375 0,0.34375 0.4375,0.5625 1.140625,0.5625 0.765625,0 1.546875,-0.265625 2.015625,-0.671875 C 4.046875,-0.9375 4.3125,-1.515625 4.3125,-2.1875 c 0,-0.5 -0.171875,-0.96875 -0.453125,-1.28125 C 3.65625,-3.6875 3.46875,-3.8125 3.03125,-4 c 0.6875,-0.46875 0.9375,-0.828125 0.9375,-1.375 0,-0.8125 -0.640625,-1.359375 -1.5625,-1.359375 -0.5,0 -0.9375,0.171875 -1.296875,0.484375 -0.296875,0.265625 -0.4375,0.53125 -0.65625,1.125 L 0.59375,-5.078125 C 1,-5.8125 1.453125,-6.140625 2.078125,-6.140625 c 0.65625,0 1.109375,0.4375 1.109375,1.0625 0,0.359375 -0.15625,0.71875 -0.40625,0.96875 -0.296875,0.296875 -0.578125,0.453125 -1.25,0.6875 z m 0,0"
             id="path10450" />
        </g>
      </g>
      <g
         style="fill:#211e1e;fill-opacity:1"
         id="g4186">
        <g
           id="use4184"
           transform="translate(296.63864,378.72012)">
          <path
             style="stroke:none"
             d="m 4.734375,-1.359375 -0.125,-0.0625 C 4.234375,-0.84375 4.109375,-0.75 3.65625,-0.75 h -2.375 l 1.671875,-1.765625 c 0.890625,-0.921875 1.28125,-1.6875 1.28125,-2.453125 0,-1 -0.8125,-1.765625 -1.859375,-1.765625 -0.546875,0 -1.0625,0.21875 -1.421875,0.609375 C 0.625,-5.78125 0.484375,-5.46875 0.3125,-4.75 l 0.203125,0.046875 C 0.921875,-5.6875 1.28125,-6 1.96875,-6 2.796875,-6 3.375,-5.4375 3.375,-4.59375 3.375,-3.8125 2.90625,-2.890625 2.078125,-2 l -1.78125,1.875 V 0 H 4.1875 Z m 0,0"
             id="path10454" />
        </g>
      </g>
      <g
         style="fill:#211e1e;fill-opacity:1"
         id="g4190">
        <g
           id="use4188"
           transform="translate(304.55881,378.72012)">
          <path
             style="stroke:none"
             d="m 0.59375,0.21875 c 1.109375,-0.125 1.65625,-0.3125 2.34375,-0.8125 1.03125,-0.75 1.640625,-1.984375 1.640625,-3.328125 0,-1.65625 -0.921875,-2.8125 -2.203125,-2.8125 -1.1875,0 -2.078125,1 -2.078125,2.34375 0,1.21875 0.71875,2.03125 1.796875,2.03125 0.546875,0 0.96875,-0.15625 1.5,-0.578125 -0.40625,1.625 -1.515625,2.703125 -3.03125,2.953125 z m 3.015625,-3.75 c 0,0.1875 -0.046875,0.28125 -0.15625,0.375 -0.265625,0.234375 -0.640625,0.359375 -1,0.359375 -0.765625,0 -1.234375,-0.734375 -1.234375,-1.921875 0,-0.578125 0.15625,-1.171875 0.359375,-1.4375 C 1.75,-6.34375 2,-6.453125 2.296875,-6.453125 c 0.859375,0 1.3125,0.84375 1.3125,2.53125 z m 0,0"
             id="path10458" />
        </g>
      </g>
      <g
         style="fill:#211e1e;fill-opacity:1"
         id="g4194">
        <g
           id="use4192"
           transform="translate(312.47873,378.72012)">
          <path
             style="stroke:none"
             d="M 4.453125,-6.8125 C 3.3125,-6.71875 2.734375,-6.53125 2,-6.015625 0.921875,-5.25 0.34375,-4.109375 0.34375,-2.78125 c 0,0.875 0.265625,1.75 0.6875,2.25 0.390625,0.4375 0.921875,0.671875 1.546875,0.671875 1.234375,0 2.09375,-0.953125 2.09375,-2.328125 0,-1.265625 -0.734375,-2.078125 -1.875,-2.078125 -0.4375,0 -0.65625,0.0625 -1.28125,0.453125 C 1.78125,-5.328125 2.90625,-6.40625 4.46875,-6.65625 Z m -2.046875,3 c 0.859375,0 1.359375,0.71875 1.359375,1.96875 0,1.09375 -0.390625,1.703125 -1.078125,1.703125 -0.890625,0 -1.421875,-0.9375 -1.421875,-2.484375 0,-0.5 0.078125,-0.78125 0.28125,-0.9375 C 1.75,-3.71875 2.0625,-3.8125 2.40625,-3.8125 Z m 0,0"
             id="path10462" />
        </g>
      </g>
      <g
         style="fill:#211e1e;fill-opacity:1"
         id="g4198">
        <g
           id="use4196"
           transform="translate(320.39865,378.72012)">
          <path
             style="stroke:none"
             d="m 4.734375,-1.359375 -0.125,-0.0625 C 4.234375,-0.84375 4.109375,-0.75 3.65625,-0.75 h -2.375 l 1.671875,-1.765625 c 0.890625,-0.921875 1.28125,-1.6875 1.28125,-2.453125 0,-1 -0.8125,-1.765625 -1.859375,-1.765625 -0.546875,0 -1.0625,0.21875 -1.421875,0.609375 C 0.625,-5.78125 0.484375,-5.46875 0.3125,-4.75 l 0.203125,0.046875 C 0.921875,-5.6875 1.28125,-6 1.96875,-6 2.796875,-6 3.375,-5.4375 3.375,-4.59375 3.375,-3.8125 2.90625,-2.890625 2.078125,-2 l -1.78125,1.875 V 0 H 4.1875 Z m 0,0"
             id="path10466" />
        </g>
      </g>
      <g
         style="fill:#211e1e;fill-opacity:1"
         id="g4202">
        <g
           id="use4200"
           transform="translate(328.43863,378.72012)">
          <path
             style="stroke:none"
             d="m 2.53125,-6.734375 c -0.546875,0 -0.96875,0.171875 -1.328125,0.515625 -0.578125,0.5625 -0.96875,1.703125 -0.96875,2.875 0,1.078125 0.328125,2.25 0.796875,2.8125 0.375,0.4375 0.875,0.671875 1.46875,0.671875 0.5,0 0.921875,-0.171875 1.28125,-0.515625 C 4.359375,-0.921875 4.75,-2.078125 4.75,-3.296875 c 0,-2.03125 -0.90625,-3.4375 -2.21875,-3.4375 z m -0.03125,0.25 c 0.84375,0 1.28125,1.125 1.28125,3.21875 0,2.078125 -0.4375,3.140625 -1.28125,3.140625 -0.859375,0 -1.296875,-1.0625 -1.296875,-3.140625 0,-2.109375 0.4375,-3.21875 1.296875,-3.21875 z m 0,0"
             id="path10470" />
        </g>
      </g>
      <g
         style="fill:#211e1e;fill-opacity:1"
         id="g4206">
        <g
           id="use4204"
           transform="translate(291.59866,390.72012)">
          <path
             style="stroke:none"
             d="M 4.703125,-2.296875 H 3.6875 v -4.4375 H 3.25 l -3.125,4.4375 v 0.625 H 2.921875 V 0 H 3.6875 v -1.671875 h 1.015625 z m -1.796875,0 H 0.515625 L 2.90625,-5.71875 Z m 0,0"
             id="path10474" />
        </g>
      </g>
      <g
         style="fill:#211e1e;fill-opacity:1"
         id="g4210">
        <g
           id="use4208"
           transform="translate(296.63864,390.72012)">
          <path
             style="stroke:none"
             d="M 4.703125,-2.296875 H 3.6875 v -4.4375 H 3.25 l -3.125,4.4375 v 0.625 H 2.921875 V 0 H 3.6875 v -1.671875 h 1.015625 z m -1.796875,0 H 0.515625 L 2.90625,-5.71875 Z m 0,0"
             id="path10478" />
        </g>
      </g>
      <g
         style="fill:#211e1e;fill-opacity:1"
         id="g4214">
        <g
           id="use4212"
           transform="translate(304.55881,390.72012)">
          <path
             style="stroke:none"
             d="m 1.53125,-3.296875 c 0.578125,0 0.8125,0.03125 1.046875,0.109375 0.625,0.234375 1.015625,0.796875 1.015625,1.484375 0,0.828125 -0.578125,1.484375 -1.3125,1.484375 -0.265625,0 -0.46875,-0.078125 -0.828125,-0.3125 -0.3125,-0.171875 -0.46875,-0.25 -0.640625,-0.25 -0.234375,0 -0.390625,0.140625 -0.390625,0.359375 0,0.34375 0.4375,0.5625 1.140625,0.5625 0.765625,0 1.546875,-0.265625 2.015625,-0.671875 C 4.046875,-0.9375 4.3125,-1.515625 4.3125,-2.1875 c 0,-0.5 -0.171875,-0.96875 -0.453125,-1.28125 C 3.65625,-3.6875 3.46875,-3.8125 3.03125,-4 c 0.6875,-0.46875 0.9375,-0.828125 0.9375,-1.375 0,-0.8125 -0.640625,-1.359375 -1.5625,-1.359375 -0.5,0 -0.9375,0.171875 -1.296875,0.484375 -0.296875,0.265625 -0.4375,0.53125 -0.65625,1.125 L 0.59375,-5.078125 C 1,-5.8125 1.453125,-6.140625 2.078125,-6.140625 c 0.65625,0 1.109375,0.4375 1.109375,1.0625 0,0.359375 -0.15625,0.71875 -0.40625,0.96875 -0.296875,0.296875 -0.578125,0.453125 -1.25,0.6875 z m 0,0"
             id="path10482" />
        </g>
      </g>
      <g
         style="fill:#211e1e;fill-opacity:1"
         id="g4218">
        <g
           id="use4216"
           transform="translate(312.47873,390.72012)">
          <path
             style="stroke:none"
             d="M 4.703125,-2.296875 H 3.6875 v -4.4375 H 3.25 l -3.125,4.4375 v 0.625 H 2.921875 V 0 H 3.6875 v -1.671875 h 1.015625 z m -1.796875,0 H 0.515625 L 2.90625,-5.71875 Z m 0,0"
             id="path10486" />
        </g>
      </g>
      <g
         style="fill:#211e1e;fill-opacity:1"
         id="g4222">
        <g
           id="use4220"
           transform="translate(320.39865,390.72012)">
          <path
             style="stroke:none"
             d="m 2.53125,-6.734375 c -0.546875,0 -0.96875,0.171875 -1.328125,0.515625 -0.578125,0.5625 -0.96875,1.703125 -0.96875,2.875 0,1.078125 0.328125,2.25 0.796875,2.8125 0.375,0.4375 0.875,0.671875 1.46875,0.671875 0.5,0 0.921875,-0.171875 1.28125,-0.515625 C 4.359375,-0.921875 4.75,-2.078125 4.75,-3.296875 c 0,-2.03125 -0.90625,-3.4375 -2.21875,-3.4375 z m -0.03125,0.25 c 0.84375,0 1.28125,1.125 1.28125,3.21875 0,2.078125 -0.4375,3.140625 -1.28125,3.140625 -0.859375,0 -1.296875,-1.0625 -1.296875,-3.140625 0,-2.109375 0.4375,-3.21875 1.296875,-3.21875 z m 0,0"
             id="path10490" />
        </g>
      </g>
      <g
         style="fill:#211e1e;fill-opacity:1"
         id="g4226">
        <g
           id="use4224"
           transform="translate(328.43863,390.72012)">
          <path
             style="stroke:none"
             d="m 2.53125,-6.734375 c -0.546875,0 -0.96875,0.171875 -1.328125,0.515625 -0.578125,0.5625 -0.96875,1.703125 -0.96875,2.875 0,1.078125 0.328125,2.25 0.796875,2.8125 0.375,0.4375 0.875,0.671875 1.46875,0.671875 0.5,0 0.921875,-0.171875 1.28125,-0.515625 C 4.359375,-0.921875 4.75,-2.078125 4.75,-3.296875 c 0,-2.03125 -0.90625,-3.4375 -2.21875,-3.4375 z m -0.03125,0.25 c 0.84375,0 1.28125,1.125 1.28125,3.21875 0,2.078125 -0.4375,3.140625 -1.28125,3.140625 -0.859375,0 -1.296875,-1.0625 -1.296875,-3.140625 0,-2.109375 0.4375,-3.21875 1.296875,-3.21875 z m 0,0"
             id="path10494" />
        </g>
      </g>
      <g
         style="fill:#211e1e;fill-opacity:1"
         id="g4230">
        <g
           id="use4228"
           transform="translate(293.99866,402.72012)">
          <path
             style="stroke:none"
             d="m 2.90625,-6.734375 -1.796875,0.90625 V -5.6875 C 1.21875,-5.734375 1.328125,-5.78125 1.375,-5.796875 1.5625,-5.875 1.71875,-5.90625 1.828125,-5.90625 2.03125,-5.90625 2.125,-5.765625 2.125,-5.4375 v 4.515625 c 0,0.328125 -0.078125,0.546875 -0.234375,0.640625 -0.15625,0.09375 -0.296875,0.125 -0.71875,0.125 V 0 h 2.75 v -0.15625 c -0.78125,0 -0.9375,-0.109375 -0.9375,-0.578125 V -6.71875 Z m 0,0"
             id="path10498" />
        </g>
      </g>
      <g
         style="fill:#211e1e;fill-opacity:1"
         id="g4234">
        <g
           id="use4232"
           transform="translate(304.55881,402.72012)">
          <path
             style="stroke:none"
             d="m 2.53125,-6.734375 c -0.546875,0 -0.96875,0.171875 -1.328125,0.515625 -0.578125,0.5625 -0.96875,1.703125 -0.96875,2.875 0,1.078125 0.328125,2.25 0.796875,2.8125 0.375,0.4375 0.875,0.671875 1.46875,0.671875 0.5,0 0.921875,-0.171875 1.28125,-0.515625 C 4.359375,-0.921875 4.75,-2.078125 4.75,-3.296875 c 0,-2.03125 -0.90625,-3.4375 -2.21875,-3.4375 z m -0.03125,0.25 c 0.84375,0 1.28125,1.125 1.28125,3.21875 0,2.078125 -0.4375,3.140625 -1.28125,3.140625 -0.859375,0 -1.296875,-1.0625 -1.296875,-3.140625 0,-2.109375 0.4375,-3.21875 1.296875,-3.21875 z m 0,0"
             id="path10502" />
        </g>
      </g>
      <g
         style="fill:#211e1e;fill-opacity:1"
         id="g4238">
        <g
           id="use4236"
           transform="translate(312.47873,402.72012)">
          <path
             style="stroke:none"
             d="m 2.53125,-6.734375 c -0.546875,0 -0.96875,0.171875 -1.328125,0.515625 -0.578125,0.5625 -0.96875,1.703125 -0.96875,2.875 0,1.078125 0.328125,2.25 0.796875,2.8125 0.375,0.4375 0.875,0.671875 1.46875,0.671875 0.5,0 0.921875,-0.171875 1.28125,-0.515625 C 4.359375,-0.921875 4.75,-2.078125 4.75,-3.296875 c 0,-2.03125 -0.90625,-3.4375 -2.21875,-3.4375 z m -0.03125,0.25 c 0.84375,0 1.28125,1.125 1.28125,3.21875 0,2.078125 -0.4375,3.140625 -1.28125,3.140625 -0.859375,0 -1.296875,-1.0625 -1.296875,-3.140625 0,-2.109375 0.4375,-3.21875 1.296875,-3.21875 z m 0,0"
             id="path10506" />
        </g>
      </g>
      <g
         style="fill:#211e1e;fill-opacity:1"
         id="g4242">
        <g
           id="use4240"
           transform="translate(320.39865,402.72012)">
          <path
             style="stroke:none"
             d="m 2.53125,-6.734375 c -0.546875,0 -0.96875,0.171875 -1.328125,0.515625 -0.578125,0.5625 -0.96875,1.703125 -0.96875,2.875 0,1.078125 0.328125,2.25 0.796875,2.8125 0.375,0.4375 0.875,0.671875 1.46875,0.671875 0.5,0 0.921875,-0.171875 1.28125,-0.515625 C 4.359375,-0.921875 4.75,-2.078125 4.75,-3.296875 c 0,-2.03125 -0.90625,-3.4375 -2.21875,-3.4375 z m -0.03125,0.25 c 0.84375,0 1.28125,1.125 1.28125,3.21875 0,2.078125 -0.4375,3.140625 -1.28125,3.140625 -0.859375,0 -1.296875,-1.0625 -1.296875,-3.140625 0,-2.109375 0.4375,-3.21875 1.296875,-3.21875 z m 0,0"
             id="path10510" />
        </g>
      </g>
      <g
         style="fill:#211e1e;fill-opacity:1"
         id="g4246">
        <g
           id="use4244"
           transform="translate(328.43863,402.72012)">
          <path
             style="stroke:none"
             d="m 4.734375,-1.359375 -0.125,-0.0625 C 4.234375,-0.84375 4.109375,-0.75 3.65625,-0.75 h -2.375 l 1.671875,-1.765625 c 0.890625,-0.921875 1.28125,-1.6875 1.28125,-2.453125 0,-1 -0.8125,-1.765625 -1.859375,-1.765625 -0.546875,0 -1.0625,0.21875 -1.421875,0.609375 C 0.625,-5.78125 0.484375,-5.46875 0.3125,-4.75 l 0.203125,0.046875 C 0.921875,-5.6875 1.28125,-6 1.96875,-6 2.796875,-6 3.375,-5.4375 3.375,-4.59375 3.375,-3.8125 2.90625,-2.890625 2.078125,-2 l -1.78125,1.875 V 0 H 4.1875 Z m 0,0"
             id="path10514" />
        </g>
      </g>
      <g
         style="fill:#211e1e;fill-opacity:1"
         id="g4250">
        <g
           id="use4248"
           transform="translate(291.59866,414.60022)">
          <path
             style="stroke:none"
             d="m 2.90625,-6.734375 -1.796875,0.90625 V -5.6875 C 1.21875,-5.734375 1.328125,-5.78125 1.375,-5.796875 1.5625,-5.875 1.71875,-5.90625 1.828125,-5.90625 2.03125,-5.90625 2.125,-5.765625 2.125,-5.4375 v 4.515625 c 0,0.328125 -0.078125,0.546875 -0.234375,0.640625 -0.15625,0.09375 -0.296875,0.125 -0.71875,0.125 V 0 h 2.75 v -0.15625 c -0.78125,0 -0.9375,-0.109375 -0.9375,-0.578125 V -6.71875 Z m 0,0"
             id="path10518" />
        </g>
      </g>
      <g
         style="fill:#211e1e;fill-opacity:1"
         id="g4254">
        <g
           id="use4252"
           transform="translate(296.63864,414.60022)">
          <path
             style="stroke:none"
             d="m 2.890625,-3.703125 c 0.984375,-0.53125 1.34375,-0.9375 1.34375,-1.625 0,-0.8125 -0.71875,-1.40625 -1.71875,-1.40625 -1.09375,0 -1.890625,0.65625 -1.890625,1.578125 0,0.640625 0.1875,0.921875 1.234375,1.84375 C 0.78125,-2.5 0.5625,-2.1875 0.5625,-1.5 c 0,0.96875 0.78125,1.640625 1.90625,1.640625 1.203125,0 1.96875,-0.65625 1.96875,-1.6875 0,-0.765625 -0.34375,-1.25 -1.546875,-2.15625 z m -0.171875,1.03125 c 0.71875,0.515625 0.953125,0.875 0.953125,1.4375 0,0.640625 -0.4375,1.09375 -1.09375,1.09375 -0.75,0 -1.265625,-0.578125 -1.265625,-1.4375 0,-0.640625 0.21875,-1.0625 0.796875,-1.53125 z M 2.609375,-3.875 c -0.890625,-0.578125 -1.25,-1.046875 -1.25,-1.59375 0,-0.578125 0.4375,-0.984375 1.078125,-0.984375 0.671875,0 1.09375,0.4375 1.09375,1.125 0,0.5625 -0.265625,1.015625 -0.84375,1.390625 -0.046875,0.03125 -0.046875,0.03125 -0.078125,0.0625 z m 0,0"
             id="path10522" />
        </g>
      </g>
      <g
         style="fill:#211e1e;fill-opacity:1"
         id="g4258">
        <g
           id="use4256"
           transform="translate(304.55881,414.60022)">
          <path
             style="stroke:none"
             d="m 4.734375,-1.359375 -0.125,-0.0625 C 4.234375,-0.84375 4.109375,-0.75 3.65625,-0.75 h -2.375 l 1.671875,-1.765625 c 0.890625,-0.921875 1.28125,-1.6875 1.28125,-2.453125 0,-1 -0.8125,-1.765625 -1.859375,-1.765625 -0.546875,0 -1.0625,0.21875 -1.421875,0.609375 C 0.625,-5.78125 0.484375,-5.46875 0.3125,-4.75 l 0.203125,0.046875 C 0.921875,-5.6875 1.28125,-6 1.96875,-6 2.796875,-6 3.375,-5.4375 3.375,-4.59375 3.375,-3.8125 2.90625,-2.890625 2.078125,-2 l -1.78125,1.875 V 0 H 4.1875 Z m 0,0"
             id="path10526" />
        </g>
      </g>
      <g
         style="fill:#211e1e;fill-opacity:1"
         id="g4262">
        <g
           id="use4260"
           transform="translate(312.47873,414.60022)">
          <path
             style="stroke:none"
             d="M 4.703125,-2.296875 H 3.6875 v -4.4375 H 3.25 l -3.125,4.4375 v 0.625 H 2.921875 V 0 H 3.6875 v -1.671875 h 1.015625 z m -1.796875,0 H 0.515625 L 2.90625,-5.71875 Z m 0,0"
             id="path10530" />
        </g>
      </g>
      <g
         style="fill:#211e1e;fill-opacity:1"
         id="g4266">
        <g
           id="use4264"
           transform="translate(320.39865,414.60022)">
          <path
             style="stroke:none"
             d="m 2.90625,-6.734375 -1.796875,0.90625 V -5.6875 C 1.21875,-5.734375 1.328125,-5.78125 1.375,-5.796875 1.5625,-5.875 1.71875,-5.90625 1.828125,-5.90625 2.03125,-5.90625 2.125,-5.765625 2.125,-5.4375 v 4.515625 c 0,0.328125 -0.078125,0.546875 -0.234375,0.640625 -0.15625,0.09375 -0.296875,0.125 -0.71875,0.125 V 0 h 2.75 v -0.15625 c -0.78125,0 -0.9375,-0.109375 -0.9375,-0.578125 V -6.71875 Z m 0,0"
             id="path10534" />
        </g>
      </g>
      <g
         style="fill:#211e1e;fill-opacity:1"
         id="g4270">
        <g
           id="use4268"
           transform="translate(328.43863,414.60022)">
          <path
             style="stroke:none"
             d="m 2.53125,-6.734375 c -0.546875,0 -0.96875,0.171875 -1.328125,0.515625 -0.578125,0.5625 -0.96875,1.703125 -0.96875,2.875 0,1.078125 0.328125,2.25 0.796875,2.8125 0.375,0.4375 0.875,0.671875 1.46875,0.671875 0.5,0 0.921875,-0.171875 1.28125,-0.515625 C 4.359375,-0.921875 4.75,-2.078125 4.75,-3.296875 c 0,-2.03125 -0.90625,-3.4375 -2.21875,-3.4375 z m -0.03125,0.25 c 0.84375,0 1.28125,1.125 1.28125,3.21875 0,2.078125 -0.4375,3.140625 -1.28125,3.140625 -0.859375,0 -1.296875,-1.0625 -1.296875,-3.140625 0,-2.109375 0.4375,-3.21875 1.296875,-3.21875 z m 0,0"
             id="path10538" />
        </g>
      </g>
      <g
         style="fill:#211e1e;fill-opacity:1"
         id="g4274">
        <g
           id="use4272"
           transform="translate(334.91855,370.80023)">
          <path
             style="stroke:none"
             d="M 5.8125,17.140625 C 5.8125,11.0625 4.71875,7.484375 4.421875,6.484375 3.734375,4.265625 2.625,1.9375 0.96875,-0.125 0.8125,-0.296875 0.78125,-0.34375 0.734375,-0.375 c -0.015625,0 -0.03125,-0.015625 -0.1875,-0.015625 -0.140625,0 -0.234375,0 -0.234375,0.09375 0,0.03125 0,0.046875 0.140625,0.234375 3.46875,4.84375 4.234375,10.8125 4.25,17.5625 0,0.140625 0.0625,0.140625 0.28125,0.140625 H 5.53125 c 0.203125,0 0.265625,0 0.28125,-0.109375 z m 0,0"
             id="path10542" />
        </g>
      </g>
      <g
         style="fill:#211e1e;fill-opacity:1"
         id="g4278">
        <g
           id="use4276"
           transform="translate(334.91855,388.32013)">
          <path
             style="stroke:none"
             d="M 5.8125,0.171875 C 5.8125,-0.09375 5.796875,-0.09375 5.53125,-0.09375 H 4.984375 c -0.265625,0 -0.28125,0 -0.28125,0.265625 V 5.8125 c 0,0.265625 0.015625,0.265625 0.28125,0.265625 H 5.53125 c 0.265625,0 0.28125,0 0.28125,-0.265625 z m 0,0"
             id="path10546" />
        </g>
      </g>
      <g
         style="fill:#211e1e;fill-opacity:1"
         id="g4282">
        <g
           id="use4280"
           transform="translate(334.91855,394.32013)">
          <path
             style="stroke:none"
             d="M 5.8125,0.171875 C 5.8125,-0.09375 5.796875,-0.09375 5.53125,-0.09375 H 4.984375 c -0.265625,0 -0.28125,0 -0.28125,0.265625 V 5.8125 c 0,0.265625 0.015625,0.265625 0.28125,0.265625 H 5.53125 c 0.265625,0 0.28125,0 0.28125,-0.265625 z m 0,0"
             id="path10550" />
        </g>
      </g>
      <g
         style="fill:#211e1e;fill-opacity:1"
         id="g4286">
        <g
           id="use4284"
           transform="translate(334.91855,400.68027)">
          <path
             style="stroke:none"
             d="M 5.8125,-0.390625 C 5.796875,-0.5 5.734375,-0.5 5.53125,-0.5 H 4.984375 c -0.21875,0 -0.28125,0 -0.28125,0.140625 0,1.03125 -0.015625,3.40625 -0.265625,5.875 C 3.890625,10.671875 2.578125,14.25 0.390625,17.3125 0.3125,17.390625 0.3125,17.421875 0.3125,17.4375 c 0,0.09375 0.09375,0.09375 0.234375,0.09375 0.15625,0 0.1875,0 0.203125,-0.01563 C 0.78125,17.48438 2.046875,16.03125 3.0625,14.03125 4.375,11.390625 5.203125,8.375 5.578125,4.75 5.609375,4.4375 5.8125,2.359375 5.8125,0 Z m 0,0"
             id="path10554" />
        </g>
      </g>
    </g>
  </g>
</svg>
