<?xml version="1.0" encoding="UTF-8" standalone="no"?>
<svg
   width="97.694069mm"
   height="21.09684mm"
   viewBox="0 0 97.694069 21.09684"
   version="1.1"
   id="svg12259"
   xmlns="http://www.w3.org/2000/svg"
   xmlns:svg="http://www.w3.org/2000/svg">
  <defs
     id="defs12256" />
  <g
     id="layer1"
     transform="translate(-24.26066,-158.51312)">
    <g
       id="g11555"
       transform="matrix(0.35277777,0,0,0.35277777,-32.326367,-17.497989)">
      <g
         style="fill:#211e1e;fill-opacity:1"
         id="g4628">
        <g
           id="use4626"
           transform="translate(160.9198,531.23981)">
          <path
             style="stroke:none"
             d="M 5.625,-0.15625 C 5.046875,-0.203125 5,-0.296875 4.859375,-1.015625 l -0.9375,-5.640625 h -0.25 L 0.78125,-1.671875 c -0.796875,1.328125 -0.890625,1.4375 -1.296875,1.515625 V 0 h 1.875 v -0.15625 c -0.515625,-0.046875 -0.59375,-0.109375 -0.59375,-0.359375 0,-0.1875 0.03125,-0.265625 0.203125,-0.609375 l 0.5625,-1.125 h 2.203125 l 0.1875,1.296875 c 0.015625,0.09375 0.03125,0.1875 0.03125,0.265625 0,0.375 -0.140625,0.46875 -0.78125,0.53125 V 0 H 5.625 Z m -3.875,-2.453125 1.484375,-2.59375 0.4375,2.59375 z m 0,0"
             id="path11557" />
        </g>
      </g>
      <g
         style="fill:#211e1e;fill-opacity:1"
         id="g4632">
        <g
           id="use4630"
           transform="translate(167.03972,527.15973)">
          <path
             style="stroke:none"
             d="M 4.671875,-4.8125 H 0.75 l -0.3125,1.125 0.125,0.03125 c 0.390625,-0.796875 0.625,-0.921875 1.765625,-0.90625 l -1.0625,3.90625 c -0.125,0.390625 -0.296875,0.5 -0.78125,0.53125 V 0 H 2.625 v -0.125 c -0.125,0 -0.25,-0.015625 -0.28125,-0.015625 -0.296875,-0.015625 -0.390625,-0.09375 -0.390625,-0.3125 0,-0.09375 0.015625,-0.1875 0.09375,-0.4375 L 3.0625,-4.5625 h 0.40625 c 0.53125,0 0.765625,0.1875 0.765625,0.609375 0,0.09375 0,0.203125 -0.015625,0.328125 l 0.125,0.015625 z m 0,0"
             id="path11561" />
        </g>
      </g>
      <g
         style="fill:#211e1e;fill-opacity:1"
         id="g4636">
        <g
           id="use4634"
           transform="translate(173.63972,499.31992)">
          <path
             style="stroke:none"
             d="M 3.734375,17.640625 C 3.953125,17.640625 4,17.640625 4,17.5 4.03125,10.515625 4.828125,4.71875 8.328125,-0.15625 c 0.0625,-0.09375 0.0625,-0.109375 0.0625,-0.140625 0,-0.09375 -0.0625,-0.09375 -0.21875,-0.09375 -0.171875,0 -0.1875,0 -0.203125,0.015625 -0.046875,0.03125 -1.3125,1.484375 -2.3125,3.5 -1.3125,2.625 -2.140625,5.640625 -2.515625,9.28125 -0.03125,0.296875 -0.234375,2.375 -0.234375,4.734375 v 0.390625 c 0,0.109375 0.0625,0.109375 0.28125,0.109375 z m 0,0"
             id="path11565" />
        </g>
      </g>
      <g
         style="fill:#211e1e;fill-opacity:1"
         id="g4640">
        <g
           id="use4638"
           transform="translate(173.63972,516.83984)">
          <path
             style="stroke:none"
             d="M 4,0.171875 C 4,-0.09375 4,-0.09375 3.734375,-0.09375 H 3.1875 c -0.28125,0 -0.28125,0 -0.28125,0.265625 V 5.8125 c 0,0.265625 0,0.265625 0.28125,0.265625 H 3.734375 C 4,6.078125 4,6.078125 4,5.8125 Z m 0,0"
             id="path11569" />
        </g>
      </g>
      <g
         style="fill:#211e1e;fill-opacity:1"
         id="g4644">
        <g
           id="use4642"
           transform="translate(173.63972,522.83984)">
          <path
             style="stroke:none"
             d="M 4,0.171875 C 4,-0.09375 4,-0.09375 3.734375,-0.09375 H 3.1875 c -0.28125,0 -0.28125,0 -0.28125,0.265625 V 5.8125 c 0,0.265625 0,0.265625 0.28125,0.265625 H 3.734375 C 4,6.078125 4,6.078125 4,5.8125 Z m 0,0"
             id="path11573" />
        </g>
      </g>
      <g
         style="fill:#211e1e;fill-opacity:1"
         id="g4648">
        <g
           id="use4646"
           transform="translate(173.63972,528.83984)">
          <path
             style="stroke:none"
             d="M 4,0.171875 C 4,-0.09375 4,-0.09375 3.734375,-0.09375 H 3.1875 c -0.28125,0 -0.28125,0 -0.28125,0.265625 V 5.8125 c 0,0.265625 0,0.265625 0.28125,0.265625 H 3.734375 C 4,6.078125 4,6.078125 4,5.8125 Z m 0,0"
             id="path11577" />
        </g>
      </g>
      <g
         style="fill:#211e1e;fill-opacity:1"
         id="g4652">
        <g
           id="use4650"
           transform="translate(173.63972,534.71991)">
          <path
             style="stroke:none"
             d="M 4,0.171875 C 4,-0.09375 4,-0.09375 3.734375,-0.09375 H 3.1875 c -0.28125,0 -0.28125,0 -0.28125,0.265625 V 5.8125 c 0,0.265625 0,0.265625 0.28125,0.265625 H 3.734375 C 4,6.078125 4,6.078125 4,5.8125 Z m 0,0"
             id="path11581" />
        </g>
      </g>
      <g
         style="fill:#211e1e;fill-opacity:1"
         id="g4656">
        <g
           id="use4654"
           transform="translate(173.63972,541.19995)">
          <path
             style="stroke:none"
             d="m 3.1875,-0.5 c -0.21875,0 -0.28125,0 -0.28125,0.109375 V 0 c 0,6.09375 1.078125,9.65625 1.390625,10.671875 C 4.96875,12.875 6.078125,15.21875 7.75,17.265625 7.890625,17.453125 7.9375,17.5 7.96875,17.515625 8,17.53125 8,17.53125 8.171875,17.53125 c 0.15625,0 0.21875,0 0.21875,-0.09375 0,-0.01563 0,-0.04687 -0.0625,-0.125 C 5.015625,12.703125 4.015625,7.15625 4,-0.359375 4,-0.5 3.953125,-0.5 3.734375,-0.5 Z m 0,0"
             id="path11585" />
        </g>
      </g>
      <g
         style="fill:#211e1e;fill-opacity:1"
         id="g4660">
        <g
           id="use4658"
           transform="translate(183.83972,507.23978)">
          <path
             style="stroke:none"
             d="m 2.53125,-6.734375 c -0.546875,0 -0.96875,0.171875 -1.328125,0.515625 -0.578125,0.5625 -0.96875,1.703125 -0.96875,2.875 0,1.078125 0.328125,2.25 0.796875,2.8125 0.375,0.4375 0.875,0.671875 1.46875,0.671875 0.5,0 0.921875,-0.171875 1.28125,-0.515625 C 4.359375,-0.921875 4.75,-2.078125 4.75,-3.296875 c 0,-2.03125 -0.90625,-3.4375 -2.21875,-3.4375 z m -0.03125,0.25 c 0.84375,0 1.28125,1.125 1.28125,3.21875 0,2.078125 -0.4375,3.140625 -1.28125,3.140625 -0.859375,0 -1.296875,-1.0625 -1.296875,-3.140625 0,-2.109375 0.4375,-3.21875 1.296875,-3.21875 z m 0,0"
             id="path11589" />
        </g>
      </g>
      <g
         style="fill:#211e1e;fill-opacity:1"
         id="g4664">
        <g
           id="use4662"
           transform="translate(183.83972,519.23981)">
          <path
             style="stroke:none"
             d="m 2.53125,-6.734375 c -0.546875,0 -0.96875,0.171875 -1.328125,0.515625 -0.578125,0.5625 -0.96875,1.703125 -0.96875,2.875 0,1.078125 0.328125,2.25 0.796875,2.8125 0.375,0.4375 0.875,0.671875 1.46875,0.671875 0.5,0 0.921875,-0.171875 1.28125,-0.515625 C 4.359375,-0.921875 4.75,-2.078125 4.75,-3.296875 c 0,-2.03125 -0.90625,-3.4375 -2.21875,-3.4375 z m -0.03125,0.25 c 0.84375,0 1.28125,1.125 1.28125,3.21875 0,2.078125 -0.4375,3.140625 -1.28125,3.140625 -0.859375,0 -1.296875,-1.0625 -1.296875,-3.140625 0,-2.109375 0.4375,-3.21875 1.296875,-3.21875 z m 0,0"
             id="path11593" />
        </g>
      </g>
      <g
         style="fill:#211e1e;fill-opacity:1"
         id="g4668">
        <g
           id="use4666"
           transform="translate(183.83972,531.23981)">
          <path
             style="stroke:none"
             d="m 2.90625,-6.734375 -1.796875,0.90625 V -5.6875 C 1.21875,-5.734375 1.328125,-5.78125 1.375,-5.796875 1.5625,-5.875 1.71875,-5.90625 1.828125,-5.90625 2.03125,-5.90625 2.125,-5.765625 2.125,-5.4375 v 4.515625 c 0,0.328125 -0.078125,0.546875 -0.234375,0.640625 -0.15625,0.09375 -0.296875,0.125 -0.71875,0.125 V 0 h 2.75 v -0.15625 c -0.78125,0 -0.9375,-0.109375 -0.9375,-0.578125 V -6.71875 Z m 0,0"
             id="path11597" />
        </g>
      </g>
      <g
         style="fill:#211e1e;fill-opacity:1"
         id="g4672">
        <g
           id="use4670"
           transform="translate(183.83972,543.11987)">
          <path
             style="stroke:none"
             d="m 2.53125,-6.734375 c -0.546875,0 -0.96875,0.171875 -1.328125,0.515625 -0.578125,0.5625 -0.96875,1.703125 -0.96875,2.875 0,1.078125 0.328125,2.25 0.796875,2.8125 0.375,0.4375 0.875,0.671875 1.46875,0.671875 0.5,0 0.921875,-0.171875 1.28125,-0.515625 C 4.359375,-0.921875 4.75,-2.078125 4.75,-3.296875 c 0,-2.03125 -0.90625,-3.4375 -2.21875,-3.4375 z m -0.03125,0.25 c 0.84375,0 1.28125,1.125 1.28125,3.21875 0,2.078125 -0.4375,3.140625 -1.28125,3.140625 -0.859375,0 -1.296875,-1.0625 -1.296875,-3.140625 0,-2.109375 0.4375,-3.21875 1.296875,-3.21875 z m 0,0"
             id="path11601" />
        </g>
      </g>
      <g
         style="fill:#211e1e;fill-opacity:1"
         id="g4676">
        <g
           id="use4674"
           transform="translate(183.83972,555.11987)">
          <path
             style="stroke:none"
             d="m 2.53125,-6.734375 c -0.546875,0 -0.96875,0.171875 -1.328125,0.515625 -0.578125,0.5625 -0.96875,1.703125 -0.96875,2.875 0,1.078125 0.328125,2.25 0.796875,2.8125 0.375,0.4375 0.875,0.671875 1.46875,0.671875 0.5,0 0.921875,-0.171875 1.28125,-0.515625 C 4.359375,-0.921875 4.75,-2.078125 4.75,-3.296875 c 0,-2.03125 -0.90625,-3.4375 -2.21875,-3.4375 z m -0.03125,0.25 c 0.84375,0 1.28125,1.125 1.28125,3.21875 0,2.078125 -0.4375,3.140625 -1.28125,3.140625 -0.859375,0 -1.296875,-1.0625 -1.296875,-3.140625 0,-2.109375 0.4375,-3.21875 1.296875,-3.21875 z m 0,0"
             id="path11605" />
        </g>
      </g>
      <g
         style="fill:#211e1e;fill-opacity:1"
         id="g4680">
        <g
           id="use4678"
           transform="translate(190.31979,499.31989)">
          <path
             style="stroke:none"
             d="M 5.8125,17.140625 C 5.8125,11.0625 4.71875,7.484375 4.421875,6.484375 3.734375,4.265625 2.625,1.9375 0.96875,-0.125 0.8125,-0.296875 0.78125,-0.34375 0.734375,-0.375 c -0.015625,0 -0.03125,-0.015625 -0.1875,-0.015625 -0.140625,0 -0.234375,0 -0.234375,0.09375 0,0.03125 0,0.046875 0.140625,0.234375 3.46875,4.84375 4.234375,10.8125 4.25,17.5625 0,0.140625 0.0625,0.140625 0.28125,0.140625 H 5.53125 c 0.203125,0 0.265625,0 0.28125,-0.109375 z m 0,0"
             id="path11609" />
        </g>
      </g>
      <g
         style="fill:#211e1e;fill-opacity:1"
         id="g4684">
        <g
           id="use4682"
           transform="translate(190.31979,516.83978)">
          <path
             style="stroke:none"
             d="M 5.8125,0.171875 C 5.8125,-0.09375 5.796875,-0.09375 5.53125,-0.09375 H 4.984375 c -0.265625,0 -0.28125,0 -0.28125,0.265625 V 5.8125 c 0,0.265625 0.015625,0.265625 0.28125,0.265625 H 5.53125 c 0.265625,0 0.28125,0 0.28125,-0.265625 z m 0,0"
             id="path11613" />
        </g>
      </g>
      <g
         style="fill:#211e1e;fill-opacity:1"
         id="g4688">
        <g
           id="use4686"
           transform="translate(190.31979,522.83978)">
          <path
             style="stroke:none"
             d="M 5.8125,0.171875 C 5.8125,-0.09375 5.796875,-0.09375 5.53125,-0.09375 H 4.984375 c -0.265625,0 -0.28125,0 -0.28125,0.265625 V 5.8125 c 0,0.265625 0.015625,0.265625 0.28125,0.265625 H 5.53125 c 0.265625,0 0.28125,0 0.28125,-0.265625 z m 0,0"
             id="path11617" />
        </g>
      </g>
      <g
         style="fill:#211e1e;fill-opacity:1"
         id="g4692">
        <g
           id="use4690"
           transform="translate(190.31979,528.83978)">
          <path
             style="stroke:none"
             d="M 5.8125,0.171875 C 5.8125,-0.09375 5.796875,-0.09375 5.53125,-0.09375 H 4.984375 c -0.265625,0 -0.28125,0 -0.28125,0.265625 V 5.8125 c 0,0.265625 0.015625,0.265625 0.28125,0.265625 H 5.53125 c 0.265625,0 0.28125,0 0.28125,-0.265625 z m 0,0"
             id="path11621" />
        </g>
      </g>
      <g
         style="fill:#211e1e;fill-opacity:1"
         id="g4696">
        <g
           id="use4694"
           transform="translate(190.31979,534.71985)">
          <path
             style="stroke:none"
             d="M 5.8125,0.171875 C 5.8125,-0.09375 5.796875,-0.09375 5.53125,-0.09375 H 4.984375 c -0.265625,0 -0.28125,0 -0.28125,0.265625 V 5.8125 c 0,0.265625 0.015625,0.265625 0.28125,0.265625 H 5.53125 c 0.265625,0 0.28125,0 0.28125,-0.265625 z m 0,0"
             id="path11625" />
        </g>
      </g>
      <g
         style="fill:#211e1e;fill-opacity:1"
         id="g4700">
        <g
           id="use4698"
           transform="translate(190.31979,541.19995)">
          <path
             style="stroke:none"
             d="M 5.8125,-0.390625 C 5.796875,-0.5 5.734375,-0.5 5.53125,-0.5 H 4.984375 c -0.21875,0 -0.28125,0 -0.28125,0.140625 0,1.03125 -0.015625,3.40625 -0.265625,5.875 C 3.890625,10.671875 2.578125,14.25 0.390625,17.3125 0.3125,17.390625 0.3125,17.421875 0.3125,17.4375 c 0,0.09375 0.09375,0.09375 0.234375,0.09375 0.15625,0 0.1875,0 0.203125,-0.01563 C 0.78125,17.48438 2.046875,16.03125 3.0625,14.03125 4.375,11.390625 5.203125,8.375 5.578125,4.75 5.609375,4.4375 5.8125,2.359375 5.8125,0 Z m 0,0"
             id="path11629" />
        </g>
      </g>
      <g
         style="fill:#211e1e;fill-opacity:1"
         id="g4704">
        <g
           id="use4702"
           transform="translate(201.2397,531.23981)">
          <path
             style="stroke:none"
             d="m 6.84375,-3.265625 c 0.15625,0 0.34375,0 0.34375,-0.1875 C 7.1875,-3.65625 7,-3.65625 6.859375,-3.65625 h -5.96875 c -0.140625,0 -0.328125,0 -0.328125,0.203125 0,0.1875 0.1875,0.1875 0.328125,0.1875 z m 0.015625,1.9375 c 0.140625,0 0.328125,0 0.328125,-0.203125 0,-0.1875 -0.1875,-0.1875 -0.34375,-0.1875 H 0.890625 c -0.140625,0 -0.328125,0 -0.328125,0.1875 0,0.203125 0.1875,0.203125 0.328125,0.203125 z m 0,0"
             id="path11633" />
        </g>
      </g>
      <g
         style="fill:#211e1e;fill-opacity:1"
         id="g4708">
        <g
           id="use4706"
           transform="translate(211.19986,505.31989)">
          <path
             style="stroke:none"
             d="M 3.734375,17.640625 C 3.953125,17.640625 4,17.640625 4,17.5 4.03125,10.515625 4.828125,4.71875 8.328125,-0.15625 c 0.0625,-0.09375 0.0625,-0.109375 0.0625,-0.140625 0,-0.09375 -0.0625,-0.09375 -0.21875,-0.09375 -0.171875,0 -0.1875,0 -0.203125,0.015625 -0.046875,0.03125 -1.3125,1.484375 -2.3125,3.5 -1.3125,2.625 -2.140625,5.640625 -2.515625,9.28125 -0.03125,0.296875 -0.234375,2.375 -0.234375,4.734375 v 0.390625 c 0,0.109375 0.0625,0.109375 0.28125,0.109375 z m 0,0"
             id="path11637" />
        </g>
      </g>
      <g
         style="fill:#211e1e;fill-opacity:1"
         id="g4712">
        <g
           id="use4710"
           transform="translate(211.19986,522.83978)">
          <path
             style="stroke:none"
             d="M 4,0.171875 C 4,-0.09375 4,-0.09375 3.734375,-0.09375 H 3.1875 c -0.28125,0 -0.28125,0 -0.28125,0.265625 V 5.8125 c 0,0.265625 0,0.265625 0.28125,0.265625 H 3.734375 C 4,6.078125 4,6.078125 4,5.8125 Z m 0,0"
             id="path11641" />
        </g>
      </g>
      <g
         style="fill:#211e1e;fill-opacity:1"
         id="g4716">
        <g
           id="use4714"
           transform="translate(211.19986,528.83978)">
          <path
             style="stroke:none"
             d="M 4,0.171875 C 4,-0.09375 4,-0.09375 3.734375,-0.09375 H 3.1875 c -0.28125,0 -0.28125,0 -0.28125,0.265625 V 5.8125 c 0,0.265625 0,0.265625 0.28125,0.265625 H 3.734375 C 4,6.078125 4,6.078125 4,5.8125 Z m 0,0"
             id="path11645" />
        </g>
      </g>
      <g
         style="fill:#211e1e;fill-opacity:1"
         id="g4720">
        <g
           id="use4718"
           transform="translate(211.19986,535.19995)">
          <path
             style="stroke:none"
             d="m 3.1875,-0.5 c -0.21875,0 -0.28125,0 -0.28125,0.109375 V 0 c 0,6.09375 1.078125,9.65625 1.390625,10.671875 C 4.96875,12.875 6.078125,15.21875 7.75,17.265625 7.890625,17.453125 7.9375,17.5 7.96875,17.515625 8,17.53125 8,17.53125 8.171875,17.53125 c 0.15625,0 0.21875,0 0.21875,-0.09375 0,-0.01563 0,-0.04687 -0.0625,-0.125 C 5.015625,12.703125 4.015625,7.15625 4,-0.359375 4,-0.5 3.953125,-0.5 3.734375,-0.5 Z m 0,0"
             id="path11649" />
        </g>
      </g>
      <g
         style="fill:#211e1e;fill-opacity:1"
         id="g4724">
        <g
           id="use4722"
           transform="translate(221.39986,513.23975)">
          <path
             style="stroke:none"
             d="M 4.453125,-6.8125 C 3.3125,-6.71875 2.734375,-6.53125 2,-6.015625 0.921875,-5.25 0.34375,-4.109375 0.34375,-2.78125 c 0,0.875 0.265625,1.75 0.6875,2.25 0.390625,0.4375 0.921875,0.671875 1.546875,0.671875 1.234375,0 2.09375,-0.953125 2.09375,-2.328125 0,-1.265625 -0.734375,-2.078125 -1.875,-2.078125 -0.4375,0 -0.65625,0.0625 -1.28125,0.453125 C 1.78125,-5.328125 2.90625,-6.40625 4.46875,-6.65625 Z m -2.046875,3 c 0.859375,0 1.359375,0.71875 1.359375,1.96875 0,1.09375 -0.390625,1.703125 -1.078125,1.703125 -0.890625,0 -1.421875,-0.9375 -1.421875,-2.484375 0,-0.5 0.078125,-0.78125 0.28125,-0.9375 C 1.75,-3.71875 2.0625,-3.8125 2.40625,-3.8125 Z m 0,0"
             id="path11653" />
        </g>
      </g>
      <g
         style="fill:#211e1e;fill-opacity:1"
         id="g4728">
        <g
           id="use4726"
           transform="translate(221.39986,525.23975)">
          <path
             style="stroke:none"
             d="M 4.703125,-2.296875 H 3.6875 v -4.4375 H 3.25 l -3.125,4.4375 v 0.625 H 2.921875 V 0 H 3.6875 v -1.671875 h 1.015625 z m -1.796875,0 H 0.515625 L 2.90625,-5.71875 Z m 0,0"
             id="path11657" />
        </g>
      </g>
      <g
         style="fill:#211e1e;fill-opacity:1"
         id="g4732">
        <g
           id="use4730"
           transform="translate(221.39986,537.11981)">
          <path
             style="stroke:none"
             d="m 2.53125,-6.734375 c -0.546875,0 -0.96875,0.171875 -1.328125,0.515625 -0.578125,0.5625 -0.96875,1.703125 -0.96875,2.875 0,1.078125 0.328125,2.25 0.796875,2.8125 0.375,0.4375 0.875,0.671875 1.46875,0.671875 0.5,0 0.921875,-0.171875 1.28125,-0.515625 C 4.359375,-0.921875 4.75,-2.078125 4.75,-3.296875 c 0,-2.03125 -0.90625,-3.4375 -2.21875,-3.4375 z m -0.03125,0.25 c 0.84375,0 1.28125,1.125 1.28125,3.21875 0,2.078125 -0.4375,3.140625 -1.28125,3.140625 -0.859375,0 -1.296875,-1.0625 -1.296875,-3.140625 0,-2.109375 0.4375,-3.21875 1.296875,-3.21875 z m 0,0"
             id="path11661" />
        </g>
      </g>
      <g
         style="fill:#211e1e;fill-opacity:1"
         id="g4736">
        <g
           id="use4734"
           transform="translate(221.39986,549.11981)">
          <path
             style="stroke:none"
             d="M 4.703125,-2.296875 H 3.6875 v -4.4375 H 3.25 l -3.125,4.4375 v 0.625 H 2.921875 V 0 H 3.6875 v -1.671875 h 1.015625 z m -1.796875,0 H 0.515625 L 2.90625,-5.71875 Z m 0,0"
             id="path11665" />
        </g>
      </g>
      <g
         style="fill:#211e1e;fill-opacity:1"
         id="g4740">
        <g
           id="use4738"
           transform="translate(227.87994,505.31985)">
          <path
             style="stroke:none"
             d="M 5.8125,17.140625 C 5.8125,11.0625 4.71875,7.484375 4.421875,6.484375 3.734375,4.265625 2.625,1.9375 0.96875,-0.125 0.8125,-0.296875 0.78125,-0.34375 0.734375,-0.375 c -0.015625,0 -0.03125,-0.015625 -0.1875,-0.015625 -0.140625,0 -0.234375,0 -0.234375,0.09375 0,0.03125 0,0.046875 0.140625,0.234375 3.46875,4.84375 4.234375,10.8125 4.25,17.5625 0,0.140625 0.0625,0.140625 0.28125,0.140625 H 5.53125 c 0.203125,0 0.265625,0 0.28125,-0.109375 z m 0,0"
             id="path11669" />
        </g>
      </g>
      <g
         style="fill:#211e1e;fill-opacity:1"
         id="g4744">
        <g
           id="use4742"
           transform="translate(227.87994,522.83972)">
          <path
             style="stroke:none"
             d="M 5.8125,0.171875 C 5.8125,-0.09375 5.796875,-0.09375 5.53125,-0.09375 H 4.984375 c -0.265625,0 -0.28125,0 -0.28125,0.265625 V 5.8125 c 0,0.265625 0.015625,0.265625 0.28125,0.265625 H 5.53125 c 0.265625,0 0.28125,0 0.28125,-0.265625 z m 0,0"
             id="path11673" />
        </g>
      </g>
      <g
         style="fill:#211e1e;fill-opacity:1"
         id="g4748">
        <g
           id="use4746"
           transform="translate(227.87994,528.83972)">
          <path
             style="stroke:none"
             d="M 5.8125,0.171875 C 5.8125,-0.09375 5.796875,-0.09375 5.53125,-0.09375 H 4.984375 c -0.265625,0 -0.28125,0 -0.28125,0.265625 V 5.8125 c 0,0.265625 0.015625,0.265625 0.28125,0.265625 H 5.53125 c 0.265625,0 0.28125,0 0.28125,-0.265625 z m 0,0"
             id="path11677" />
        </g>
      </g>
      <g
         style="fill:#211e1e;fill-opacity:1"
         id="g4752">
        <g
           id="use4750"
           transform="translate(227.87994,535.19989)">
          <path
             style="stroke:none"
             d="M 5.8125,-0.390625 C 5.796875,-0.5 5.734375,-0.5 5.53125,-0.5 H 4.984375 c -0.21875,0 -0.28125,0 -0.28125,0.140625 0,1.03125 -0.015625,3.40625 -0.265625,5.875 C 3.890625,10.671875 2.578125,14.25 0.390625,17.3125 0.3125,17.390625 0.3125,17.421875 0.3125,17.4375 c 0,0.09375 0.09375,0.09375 0.234375,0.09375 0.15625,0 0.1875,0 0.203125,-0.01563 C 0.78125,17.48438 2.046875,16.03125 3.0625,14.03125 4.375,11.390625 5.203125,8.375 5.578125,4.75 5.609375,4.4375 5.8125,2.359375 5.8125,0 Z m 0,0"
             id="path11681" />
        </g>
      </g>
      <g
         style="fill:#211e1e;fill-opacity:1"
         id="g4756">
        <g
           id="use4754"
           transform="translate(262.67993,531.23975)">
          <path
             style="stroke:none"
             d="M 5.625,-0.15625 C 5.046875,-0.203125 5,-0.296875 4.859375,-1.015625 l -0.9375,-5.640625 h -0.25 L 0.78125,-1.671875 c -0.796875,1.328125 -0.890625,1.4375 -1.296875,1.515625 V 0 h 1.875 v -0.15625 c -0.515625,-0.046875 -0.59375,-0.109375 -0.59375,-0.359375 0,-0.1875 0.03125,-0.265625 0.203125,-0.609375 l 0.5625,-1.125 h 2.203125 l 0.1875,1.296875 c 0.015625,0.09375 0.03125,0.1875 0.03125,0.265625 0,0.375 -0.140625,0.46875 -0.78125,0.53125 V 0 H 5.625 Z m -3.875,-2.453125 1.484375,-2.59375 0.4375,2.59375 z m 0,0"
             id="path11685" />
        </g>
      </g>
      <g
         style="fill:#211e1e;fill-opacity:1"
         id="g4760">
        <g
           id="use4758"
           transform="translate(268.79987,527.15967)">
          <path
             style="stroke:none"
             d="M 4.671875,-4.8125 H 0.75 l -0.3125,1.125 0.125,0.03125 c 0.390625,-0.796875 0.625,-0.921875 1.765625,-0.90625 l -1.0625,3.90625 c -0.125,0.390625 -0.296875,0.5 -0.78125,0.53125 V 0 H 2.625 v -0.125 c -0.125,0 -0.25,-0.015625 -0.28125,-0.015625 -0.296875,-0.015625 -0.390625,-0.09375 -0.390625,-0.3125 0,-0.09375 0.015625,-0.1875 0.09375,-0.4375 L 3.0625,-4.5625 h 0.40625 c 0.53125,0 0.765625,0.1875 0.765625,0.609375 0,0.09375 0,0.203125 -0.015625,0.328125 l 0.125,0.015625 z m 0,0"
             id="path11689" />
        </g>
      </g>
      <g
         style="fill:#211e1e;fill-opacity:1"
         id="g4764">
        <g
           id="use4762"
           transform="translate(275.51978,499.31985)">
          <path
             style="stroke:none"
             d="M 3.734375,17.640625 C 3.953125,17.640625 4,17.640625 4,17.5 4.03125,10.515625 4.828125,4.71875 8.328125,-0.15625 c 0.0625,-0.09375 0.0625,-0.109375 0.0625,-0.140625 0,-0.09375 -0.0625,-0.09375 -0.21875,-0.09375 -0.171875,0 -0.1875,0 -0.203125,0.015625 -0.046875,0.03125 -1.3125,1.484375 -2.3125,3.5 -1.3125,2.625 -2.140625,5.640625 -2.515625,9.28125 -0.03125,0.296875 -0.234375,2.375 -0.234375,4.734375 v 0.390625 c 0,0.109375 0.0625,0.109375 0.28125,0.109375 z m 0,0"
             id="path11693" />
        </g>
      </g>
      <g
         style="fill:#211e1e;fill-opacity:1"
         id="g4768">
        <g
           id="use4766"
           transform="translate(275.51978,516.83978)">
          <path
             style="stroke:none"
             d="M 4,0.171875 C 4,-0.09375 4,-0.09375 3.734375,-0.09375 H 3.1875 c -0.28125,0 -0.28125,0 -0.28125,0.265625 V 5.8125 c 0,0.265625 0,0.265625 0.28125,0.265625 H 3.734375 C 4,6.078125 4,6.078125 4,5.8125 Z m 0,0"
             id="path11697" />
        </g>
      </g>
      <g
         style="fill:#211e1e;fill-opacity:1"
         id="g4772">
        <g
           id="use4770"
           transform="translate(275.51978,522.83978)">
          <path
             style="stroke:none"
             d="M 4,0.171875 C 4,-0.09375 4,-0.09375 3.734375,-0.09375 H 3.1875 c -0.28125,0 -0.28125,0 -0.28125,0.265625 V 5.8125 c 0,0.265625 0,0.265625 0.28125,0.265625 H 3.734375 C 4,6.078125 4,6.078125 4,5.8125 Z m 0,0"
             id="path11701" />
        </g>
      </g>
      <g
         style="fill:#211e1e;fill-opacity:1"
         id="g4776">
        <g
           id="use4774"
           transform="translate(275.51978,528.83978)">
          <path
             style="stroke:none"
             d="M 4,0.171875 C 4,-0.09375 4,-0.09375 3.734375,-0.09375 H 3.1875 c -0.28125,0 -0.28125,0 -0.28125,0.265625 V 5.8125 c 0,0.265625 0,0.265625 0.28125,0.265625 H 3.734375 C 4,6.078125 4,6.078125 4,5.8125 Z m 0,0"
             id="path11705" />
        </g>
      </g>
      <g
         style="fill:#211e1e;fill-opacity:1"
         id="g4780">
        <g
           id="use4778"
           transform="translate(275.51978,534.71985)">
          <path
             style="stroke:none"
             d="M 4,0.171875 C 4,-0.09375 4,-0.09375 3.734375,-0.09375 H 3.1875 c -0.28125,0 -0.28125,0 -0.28125,0.265625 V 5.8125 c 0,0.265625 0,0.265625 0.28125,0.265625 H 3.734375 C 4,6.078125 4,6.078125 4,5.8125 Z m 0,0"
             id="path11709" />
        </g>
      </g>
      <g
         style="fill:#211e1e;fill-opacity:1"
         id="g4784">
        <g
           id="use4782"
           transform="translate(275.51978,541.19989)">
          <path
             style="stroke:none"
             d="m 3.1875,-0.5 c -0.21875,0 -0.28125,0 -0.28125,0.109375 V 0 c 0,6.09375 1.078125,9.65625 1.390625,10.671875 C 4.96875,12.875 6.078125,15.21875 7.75,17.265625 7.890625,17.453125 7.9375,17.5 7.96875,17.515625 8,17.53125 8,17.53125 8.171875,17.53125 c 0.15625,0 0.21875,0 0.21875,-0.09375 0,-0.01563 0,-0.04687 -0.0625,-0.125 C 5.015625,12.703125 4.015625,7.15625 4,-0.359375 4,-0.5 3.953125,-0.5 3.734375,-0.5 Z m 0,0"
             id="path11713" />
        </g>
      </g>
      <g
         style="fill:#211e1e;fill-opacity:1"
         id="g4788">
        <g
           id="use4786"
           transform="translate(285.71979,507.23972)">
          <path
             style="stroke:none"
             d="m 2.53125,-6.734375 c -0.546875,0 -0.96875,0.171875 -1.328125,0.515625 -0.578125,0.5625 -0.96875,1.703125 -0.96875,2.875 0,1.078125 0.328125,2.25 0.796875,2.8125 0.375,0.4375 0.875,0.671875 1.46875,0.671875 0.5,0 0.921875,-0.171875 1.28125,-0.515625 C 4.359375,-0.921875 4.75,-2.078125 4.75,-3.296875 c 0,-2.03125 -0.90625,-3.4375 -2.21875,-3.4375 z m -0.03125,0.25 c 0.84375,0 1.28125,1.125 1.28125,3.21875 0,2.078125 -0.4375,3.140625 -1.28125,3.140625 -0.859375,0 -1.296875,-1.0625 -1.296875,-3.140625 0,-2.109375 0.4375,-3.21875 1.296875,-3.21875 z m 0,0"
             id="path11717" />
        </g>
      </g>
      <g
         style="fill:#211e1e;fill-opacity:1"
         id="g4792">
        <g
           id="use4790"
           transform="translate(285.71979,519.23975)">
          <path
             style="stroke:none"
             d="m 2.53125,-6.734375 c -0.546875,0 -0.96875,0.171875 -1.328125,0.515625 -0.578125,0.5625 -0.96875,1.703125 -0.96875,2.875 0,1.078125 0.328125,2.25 0.796875,2.8125 0.375,0.4375 0.875,0.671875 1.46875,0.671875 0.5,0 0.921875,-0.171875 1.28125,-0.515625 C 4.359375,-0.921875 4.75,-2.078125 4.75,-3.296875 c 0,-2.03125 -0.90625,-3.4375 -2.21875,-3.4375 z m -0.03125,0.25 c 0.84375,0 1.28125,1.125 1.28125,3.21875 0,2.078125 -0.4375,3.140625 -1.28125,3.140625 -0.859375,0 -1.296875,-1.0625 -1.296875,-3.140625 0,-2.109375 0.4375,-3.21875 1.296875,-3.21875 z m 0,0"
             id="path11721" />
        </g>
      </g>
      <g
         style="fill:#211e1e;fill-opacity:1"
         id="g4796">
        <g
           id="use4794"
           transform="translate(285.71979,531.23975)">
          <path
             style="stroke:none"
             d="m 2.53125,-6.734375 c -0.546875,0 -0.96875,0.171875 -1.328125,0.515625 -0.578125,0.5625 -0.96875,1.703125 -0.96875,2.875 0,1.078125 0.328125,2.25 0.796875,2.8125 0.375,0.4375 0.875,0.671875 1.46875,0.671875 0.5,0 0.921875,-0.171875 1.28125,-0.515625 C 4.359375,-0.921875 4.75,-2.078125 4.75,-3.296875 c 0,-2.03125 -0.90625,-3.4375 -2.21875,-3.4375 z m -0.03125,0.25 c 0.84375,0 1.28125,1.125 1.28125,3.21875 0,2.078125 -0.4375,3.140625 -1.28125,3.140625 -0.859375,0 -1.296875,-1.0625 -1.296875,-3.140625 0,-2.109375 0.4375,-3.21875 1.296875,-3.21875 z m 0,0"
             id="path11725" />
        </g>
      </g>
      <g
         style="fill:#211e1e;fill-opacity:1"
         id="g4800">
        <g
           id="use4798"
           transform="translate(285.71979,543.11981)">
          <path
             style="stroke:none"
             d="m 2.53125,-6.734375 c -0.546875,0 -0.96875,0.171875 -1.328125,0.515625 -0.578125,0.5625 -0.96875,1.703125 -0.96875,2.875 0,1.078125 0.328125,2.25 0.796875,2.8125 0.375,0.4375 0.875,0.671875 1.46875,0.671875 0.5,0 0.921875,-0.171875 1.28125,-0.515625 C 4.359375,-0.921875 4.75,-2.078125 4.75,-3.296875 c 0,-2.03125 -0.90625,-3.4375 -2.21875,-3.4375 z m -0.03125,0.25 c 0.84375,0 1.28125,1.125 1.28125,3.21875 0,2.078125 -0.4375,3.140625 -1.28125,3.140625 -0.859375,0 -1.296875,-1.0625 -1.296875,-3.140625 0,-2.109375 0.4375,-3.21875 1.296875,-3.21875 z m 0,0"
             id="path11729" />
        </g>
      </g>
      <g
         style="fill:#211e1e;fill-opacity:1"
         id="g4804">
        <g
           id="use4802"
           transform="translate(285.71979,555.11981)">
          <path
             style="stroke:none"
             d="m 2.90625,-6.734375 -1.796875,0.90625 V -5.6875 C 1.21875,-5.734375 1.328125,-5.78125 1.375,-5.796875 1.5625,-5.875 1.71875,-5.90625 1.828125,-5.90625 2.03125,-5.90625 2.125,-5.765625 2.125,-5.4375 v 4.515625 c 0,0.328125 -0.078125,0.546875 -0.234375,0.640625 -0.15625,0.09375 -0.296875,0.125 -0.71875,0.125 V 0 h 2.75 v -0.15625 c -0.78125,0 -0.9375,-0.109375 -0.9375,-0.578125 V -6.71875 Z m 0,0"
             id="path11733" />
        </g>
      </g>
      <g
         style="fill:#211e1e;fill-opacity:1"
         id="g4808">
        <g
           id="use4806"
           transform="translate(292.19986,499.31982)">
          <path
             style="stroke:none"
             d="M 5.8125,17.140625 C 5.8125,11.0625 4.71875,7.484375 4.421875,6.484375 3.734375,4.265625 2.625,1.9375 0.96875,-0.125 0.8125,-0.296875 0.78125,-0.34375 0.734375,-0.375 c -0.015625,0 -0.03125,-0.015625 -0.1875,-0.015625 -0.140625,0 -0.234375,0 -0.234375,0.09375 0,0.03125 0,0.046875 0.140625,0.234375 3.46875,4.84375 4.234375,10.8125 4.25,17.5625 0,0.140625 0.0625,0.140625 0.28125,0.140625 H 5.53125 c 0.203125,0 0.265625,0 0.28125,-0.109375 z m 0,0"
             id="path11737" />
        </g>
      </g>
      <g
         style="fill:#211e1e;fill-opacity:1"
         id="g4812">
        <g
           id="use4810"
           transform="translate(292.19986,516.83972)">
          <path
             style="stroke:none"
             d="M 5.8125,0.171875 C 5.8125,-0.09375 5.796875,-0.09375 5.53125,-0.09375 H 4.984375 c -0.265625,0 -0.28125,0 -0.28125,0.265625 V 5.8125 c 0,0.265625 0.015625,0.265625 0.28125,0.265625 H 5.53125 c 0.265625,0 0.28125,0 0.28125,-0.265625 z m 0,0"
             id="path11741" />
        </g>
      </g>
      <g
         style="fill:#211e1e;fill-opacity:1"
         id="g4816">
        <g
           id="use4814"
           transform="translate(292.19986,522.83972)">
          <path
             style="stroke:none"
             d="M 5.8125,0.171875 C 5.8125,-0.09375 5.796875,-0.09375 5.53125,-0.09375 H 4.984375 c -0.265625,0 -0.28125,0 -0.28125,0.265625 V 5.8125 c 0,0.265625 0.015625,0.265625 0.28125,0.265625 H 5.53125 c 0.265625,0 0.28125,0 0.28125,-0.265625 z m 0,0"
             id="path11745" />
        </g>
      </g>
      <g
         style="fill:#211e1e;fill-opacity:1"
         id="g4820">
        <g
           id="use4818"
           transform="translate(292.19986,528.83972)">
          <path
             style="stroke:none"
             d="M 5.8125,0.171875 C 5.8125,-0.09375 5.796875,-0.09375 5.53125,-0.09375 H 4.984375 c -0.265625,0 -0.28125,0 -0.28125,0.265625 V 5.8125 c 0,0.265625 0.015625,0.265625 0.28125,0.265625 H 5.53125 c 0.265625,0 0.28125,0 0.28125,-0.265625 z m 0,0"
             id="path11749" />
        </g>
      </g>
      <g
         style="fill:#211e1e;fill-opacity:1"
         id="g4824">
        <g
           id="use4822"
           transform="translate(292.19986,534.71979)">
          <path
             style="stroke:none"
             d="M 5.8125,0.171875 C 5.8125,-0.09375 5.796875,-0.09375 5.53125,-0.09375 H 4.984375 c -0.265625,0 -0.28125,0 -0.28125,0.265625 V 5.8125 c 0,0.265625 0.015625,0.265625 0.28125,0.265625 H 5.53125 c 0.265625,0 0.28125,0 0.28125,-0.265625 z m 0,0"
             id="path11753" />
        </g>
      </g>
      <g
         style="fill:#211e1e;fill-opacity:1"
         id="g4828">
        <g
           id="use4826"
           transform="translate(292.19986,541.19989)">
          <path
             style="stroke:none"
             d="M 5.8125,-0.390625 C 5.796875,-0.5 5.734375,-0.5 5.53125,-0.5 H 4.984375 c -0.21875,0 -0.28125,0 -0.28125,0.140625 0,1.03125 -0.015625,3.40625 -0.265625,5.875 C 3.890625,10.671875 2.578125,14.25 0.390625,17.3125 0.3125,17.390625 0.3125,17.421875 0.3125,17.4375 c 0,0.09375 0.09375,0.09375 0.234375,0.09375 0.15625,0 0.1875,0 0.203125,-0.01563 C 0.78125,17.48438 2.046875,16.03125 3.0625,14.03125 4.375,11.390625 5.203125,8.375 5.578125,4.75 5.609375,4.4375 5.8125,2.359375 5.8125,0 Z m 0,0"
             id="path11757" />
        </g>
      </g>
      <g
         style="fill:#211e1e;fill-opacity:1"
         id="g4832">
        <g
           id="use4830"
           transform="translate(303.11975,531.23975)">
          <path
             style="stroke:none"
             d="m 6.84375,-3.265625 c 0.15625,0 0.34375,0 0.34375,-0.1875 C 7.1875,-3.65625 7,-3.65625 6.859375,-3.65625 h -5.96875 c -0.140625,0 -0.328125,0 -0.328125,0.203125 0,0.1875 0.1875,0.1875 0.328125,0.1875 z m 0.015625,1.9375 c 0.140625,0 0.328125,0 0.328125,-0.203125 0,-0.1875 -0.1875,-0.1875 -0.34375,-0.1875 H 0.890625 c -0.140625,0 -0.328125,0 -0.328125,0.1875 0,0.203125 0.1875,0.203125 0.328125,0.203125 z m 0,0"
             id="path11761" />
        </g>
      </g>
      <g
         style="fill:#211e1e;fill-opacity:1"
         id="g4836">
        <g
           id="use4834"
           transform="translate(313.07993,505.31982)">
          <path
             style="stroke:none"
             d="M 3.734375,17.640625 C 3.953125,17.640625 4,17.640625 4,17.5 4.03125,10.515625 4.828125,4.71875 8.328125,-0.15625 c 0.0625,-0.09375 0.0625,-0.109375 0.0625,-0.140625 0,-0.09375 -0.0625,-0.09375 -0.21875,-0.09375 -0.171875,0 -0.1875,0 -0.203125,0.015625 -0.046875,0.03125 -1.3125,1.484375 -2.3125,3.5 -1.3125,2.625 -2.140625,5.640625 -2.515625,9.28125 -0.03125,0.296875 -0.234375,2.375 -0.234375,4.734375 v 0.390625 c 0,0.109375 0.0625,0.109375 0.28125,0.109375 z m 0,0"
             id="path11765" />
        </g>
      </g>
      <g
         style="fill:#211e1e;fill-opacity:1"
         id="g4840">
        <g
           id="use4838"
           transform="translate(313.07993,522.83972)">
          <path
             style="stroke:none"
             d="M 4,0.171875 C 4,-0.09375 4,-0.09375 3.734375,-0.09375 H 3.1875 c -0.28125,0 -0.28125,0 -0.28125,0.265625 V 5.8125 c 0,0.265625 0,0.265625 0.28125,0.265625 H 3.734375 C 4,6.078125 4,6.078125 4,5.8125 Z m 0,0"
             id="path11769" />
        </g>
      </g>
      <g
         style="fill:#211e1e;fill-opacity:1"
         id="g4844">
        <g
           id="use4842"
           transform="translate(313.07993,528.83972)">
          <path
             style="stroke:none"
             d="M 4,0.171875 C 4,-0.09375 4,-0.09375 3.734375,-0.09375 H 3.1875 c -0.28125,0 -0.28125,0 -0.28125,0.265625 V 5.8125 c 0,0.265625 0,0.265625 0.28125,0.265625 H 3.734375 C 4,6.078125 4,6.078125 4,5.8125 Z m 0,0"
             id="path11773" />
        </g>
      </g>
      <g
         style="fill:#211e1e;fill-opacity:1"
         id="g4848">
        <g
           id="use4846"
           transform="translate(313.07993,535.19989)">
          <path
             style="stroke:none"
             d="m 3.1875,-0.5 c -0.21875,0 -0.28125,0 -0.28125,0.109375 V 0 c 0,6.09375 1.078125,9.65625 1.390625,10.671875 C 4.96875,12.875 6.078125,15.21875 7.75,17.265625 7.890625,17.453125 7.9375,17.5 7.96875,17.515625 8,17.53125 8,17.53125 8.171875,17.53125 c 0.15625,0 0.21875,0 0.21875,-0.09375 0,-0.01563 0,-0.04687 -0.0625,-0.125 C 5.015625,12.703125 4.015625,7.15625 4,-0.359375 4,-0.5 3.953125,-0.5 3.734375,-0.5 Z m 0,0"
             id="path11777" />
        </g>
      </g>
      <g
         style="fill:#211e1e;fill-opacity:1"
         id="g4852">
        <g
           id="use4850"
           transform="translate(323.27991,513.23969)">
          <path
             style="stroke:none"
             d="m 2.53125,-6.734375 c -0.546875,0 -0.96875,0.171875 -1.328125,0.515625 -0.578125,0.5625 -0.96875,1.703125 -0.96875,2.875 0,1.078125 0.328125,2.25 0.796875,2.8125 0.375,0.4375 0.875,0.671875 1.46875,0.671875 0.5,0 0.921875,-0.171875 1.28125,-0.515625 C 4.359375,-0.921875 4.75,-2.078125 4.75,-3.296875 c 0,-2.03125 -0.90625,-3.4375 -2.21875,-3.4375 z m -0.03125,0.25 c 0.84375,0 1.28125,1.125 1.28125,3.21875 0,2.078125 -0.4375,3.140625 -1.28125,3.140625 -0.859375,0 -1.296875,-1.0625 -1.296875,-3.140625 0,-2.109375 0.4375,-3.21875 1.296875,-3.21875 z m 0,0"
             id="path11781" />
        </g>
      </g>
      <g
         style="fill:#211e1e;fill-opacity:1"
         id="g4856">
        <g
           id="use4854"
           transform="translate(323.27991,525.23969)">
          <path
             style="stroke:none"
             d="m 2.53125,-6.734375 c -0.546875,0 -0.96875,0.171875 -1.328125,0.515625 -0.578125,0.5625 -0.96875,1.703125 -0.96875,2.875 0,1.078125 0.328125,2.25 0.796875,2.8125 0.375,0.4375 0.875,0.671875 1.46875,0.671875 0.5,0 0.921875,-0.171875 1.28125,-0.515625 C 4.359375,-0.921875 4.75,-2.078125 4.75,-3.296875 c 0,-2.03125 -0.90625,-3.4375 -2.21875,-3.4375 z m -0.03125,0.25 c 0.84375,0 1.28125,1.125 1.28125,3.21875 0,2.078125 -0.4375,3.140625 -1.28125,3.140625 -0.859375,0 -1.296875,-1.0625 -1.296875,-3.140625 0,-2.109375 0.4375,-3.21875 1.296875,-3.21875 z m 0,0"
             id="path11785" />
        </g>
      </g>
      <g
         style="fill:#211e1e;fill-opacity:1"
         id="g4860">
        <g
           id="use4858"
           transform="translate(323.27991,537.11975)">
          <path
             style="stroke:none"
             d="m 4.734375,-1.359375 -0.125,-0.0625 C 4.234375,-0.84375 4.109375,-0.75 3.65625,-0.75 h -2.375 l 1.671875,-1.765625 c 0.890625,-0.921875 1.28125,-1.6875 1.28125,-2.453125 0,-1 -0.8125,-1.765625 -1.859375,-1.765625 -0.546875,0 -1.0625,0.21875 -1.421875,0.609375 C 0.625,-5.78125 0.484375,-5.46875 0.3125,-4.75 l 0.203125,0.046875 C 0.921875,-5.6875 1.28125,-6 1.96875,-6 2.796875,-6 3.375,-5.4375 3.375,-4.59375 3.375,-3.8125 2.90625,-2.890625 2.078125,-2 l -1.78125,1.875 V 0 H 4.1875 Z m 0,0"
             id="path11789" />
        </g>
      </g>
      <g
         style="fill:#211e1e;fill-opacity:1"
         id="g4864">
        <g
           id="use4862"
           transform="translate(323.27991,549.11975)">
          <path
             style="stroke:none"
             d="m 2.53125,-6.734375 c -0.546875,0 -0.96875,0.171875 -1.328125,0.515625 -0.578125,0.5625 -0.96875,1.703125 -0.96875,2.875 0,1.078125 0.328125,2.25 0.796875,2.8125 0.375,0.4375 0.875,0.671875 1.46875,0.671875 0.5,0 0.921875,-0.171875 1.28125,-0.515625 C 4.359375,-0.921875 4.75,-2.078125 4.75,-3.296875 c 0,-2.03125 -0.90625,-3.4375 -2.21875,-3.4375 z m -0.03125,0.25 c 0.84375,0 1.28125,1.125 1.28125,3.21875 0,2.078125 -0.4375,3.140625 -1.28125,3.140625 -0.859375,0 -1.296875,-1.0625 -1.296875,-3.140625 0,-2.109375 0.4375,-3.21875 1.296875,-3.21875 z m 0,0"
             id="path11793" />
        </g>
      </g>
      <g
         style="fill:#211e1e;fill-opacity:1"
         id="g4868">
        <g
           id="use4866"
           transform="translate(329.76001,505.31979)">
          <path
             style="stroke:none"
             d="M 5.8125,17.140625 C 5.8125,11.0625 4.71875,7.484375 4.421875,6.484375 3.734375,4.265625 2.625,1.9375 0.96875,-0.125 0.8125,-0.296875 0.78125,-0.34375 0.734375,-0.375 c -0.015625,0 -0.03125,-0.015625 -0.1875,-0.015625 -0.140625,0 -0.234375,0 -0.234375,0.09375 0,0.03125 0,0.046875 0.140625,0.234375 3.46875,4.84375 4.234375,10.8125 4.25,17.5625 0,0.140625 0.0625,0.140625 0.28125,0.140625 H 5.53125 c 0.203125,0 0.265625,0 0.28125,-0.109375 z m 0,0"
             id="path11797" />
        </g>
      </g>
      <g
         style="fill:#211e1e;fill-opacity:1"
         id="g4872">
        <g
           id="use4870"
           transform="translate(329.76001,522.83966)">
          <path
             style="stroke:none"
             d="M 5.8125,0.171875 C 5.8125,-0.09375 5.796875,-0.09375 5.53125,-0.09375 H 4.984375 c -0.265625,0 -0.28125,0 -0.28125,0.265625 V 5.8125 c 0,0.265625 0.015625,0.265625 0.28125,0.265625 H 5.53125 c 0.265625,0 0.28125,0 0.28125,-0.265625 z m 0,0"
             id="path11801" />
        </g>
      </g>
      <g
         style="fill:#211e1e;fill-opacity:1"
         id="g4876">
        <g
           id="use4874"
           transform="translate(329.76001,528.83966)">
          <path
             style="stroke:none"
             d="M 5.8125,0.171875 C 5.8125,-0.09375 5.796875,-0.09375 5.53125,-0.09375 H 4.984375 c -0.265625,0 -0.28125,0 -0.28125,0.265625 V 5.8125 c 0,0.265625 0.015625,0.265625 0.28125,0.265625 H 5.53125 c 0.265625,0 0.28125,0 0.28125,-0.265625 z m 0,0"
             id="path11805" />
        </g>
      </g>
      <g
         style="fill:#211e1e;fill-opacity:1"
         id="g4880">
        <g
           id="use4878"
           transform="translate(329.76001,535.19983)">
          <path
             style="stroke:none"
             d="M 5.8125,-0.390625 C 5.796875,-0.5 5.734375,-0.5 5.53125,-0.5 H 4.984375 c -0.21875,0 -0.28125,0 -0.28125,0.140625 0,1.03125 -0.015625,3.40625 -0.265625,5.875 C 3.890625,10.671875 2.578125,14.25 0.390625,17.3125 0.3125,17.390625 0.3125,17.421875 0.3125,17.4375 c 0,0.09375 0.09375,0.09375 0.234375,0.09375 0.15625,0 0.1875,0 0.203125,-0.01563 C 0.78125,17.48438 2.046875,16.03125 3.0625,14.03125 4.375,11.390625 5.203125,8.375 5.578125,4.75 5.609375,4.4375 5.8125,2.359375 5.8125,0 Z m 0,0"
             id="path11809" />
        </g>
      </g>
      <g
         style="fill:#211e1e;fill-opacity:1"
         id="g4884">
        <g
           id="use4882"
           transform="translate(364.56,531.23969)">
          <path
             style="stroke:none"
             d="M 5.625,-0.15625 C 5.046875,-0.203125 5,-0.296875 4.859375,-1.015625 l -0.9375,-5.640625 h -0.25 L 0.78125,-1.671875 c -0.796875,1.328125 -0.890625,1.4375 -1.296875,1.515625 V 0 h 1.875 v -0.15625 c -0.515625,-0.046875 -0.59375,-0.109375 -0.59375,-0.359375 0,-0.1875 0.03125,-0.265625 0.203125,-0.609375 l 0.5625,-1.125 h 2.203125 l 0.1875,1.296875 c 0.015625,0.09375 0.03125,0.1875 0.03125,0.265625 0,0.375 -0.140625,0.46875 -0.78125,0.53125 V 0 H 5.625 Z m -3.875,-2.453125 1.484375,-2.59375 0.4375,2.59375 z m 0,0"
             id="path11813" />
        </g>
      </g>
      <g
         style="fill:#211e1e;fill-opacity:1"
         id="g4888">
        <g
           id="use4886"
           transform="translate(370.67993,527.15961)">
          <path
             style="stroke:none"
             d="M 4.671875,-4.8125 H 0.75 l -0.3125,1.125 0.125,0.03125 c 0.390625,-0.796875 0.625,-0.921875 1.765625,-0.90625 l -1.0625,3.90625 c -0.125,0.390625 -0.296875,0.5 -0.78125,0.53125 V 0 H 2.625 v -0.125 c -0.125,0 -0.25,-0.015625 -0.28125,-0.015625 -0.296875,-0.015625 -0.390625,-0.09375 -0.390625,-0.3125 0,-0.09375 0.015625,-0.1875 0.09375,-0.4375 L 3.0625,-4.5625 h 0.40625 c 0.53125,0 0.765625,0.1875 0.765625,0.609375 0,0.09375 0,0.203125 -0.015625,0.328125 l 0.125,0.015625 z m 0,0"
             id="path11817" />
        </g>
      </g>
      <g
         style="fill:#211e1e;fill-opacity:1"
         id="g4892">
        <g
           id="use4890"
           transform="translate(377.27991,499.31979)">
          <path
             style="stroke:none"
             d="M 3.734375,17.640625 C 3.953125,17.640625 4,17.640625 4,17.5 4.03125,10.515625 4.828125,4.71875 8.328125,-0.15625 c 0.0625,-0.09375 0.0625,-0.109375 0.0625,-0.140625 0,-0.09375 -0.0625,-0.09375 -0.21875,-0.09375 -0.171875,0 -0.1875,0 -0.203125,0.015625 -0.046875,0.03125 -1.3125,1.484375 -2.3125,3.5 -1.3125,2.625 -2.140625,5.640625 -2.515625,9.28125 -0.03125,0.296875 -0.234375,2.375 -0.234375,4.734375 v 0.390625 c 0,0.109375 0.0625,0.109375 0.28125,0.109375 z m 0,0"
             id="path11821" />
        </g>
      </g>
      <g
         style="fill:#211e1e;fill-opacity:1"
         id="g4896">
        <g
           id="use4894"
           transform="translate(377.27991,516.83972)">
          <path
             style="stroke:none"
             d="M 4,0.171875 C 4,-0.09375 4,-0.09375 3.734375,-0.09375 H 3.1875 c -0.28125,0 -0.28125,0 -0.28125,0.265625 V 5.8125 c 0,0.265625 0,0.265625 0.28125,0.265625 H 3.734375 C 4,6.078125 4,6.078125 4,5.8125 Z m 0,0"
             id="path11825" />
        </g>
      </g>
      <g
         style="fill:#211e1e;fill-opacity:1"
         id="g4900">
        <g
           id="use4898"
           transform="translate(377.27991,522.83972)">
          <path
             style="stroke:none"
             d="M 4,0.171875 C 4,-0.09375 4,-0.09375 3.734375,-0.09375 H 3.1875 c -0.28125,0 -0.28125,0 -0.28125,0.265625 V 5.8125 c 0,0.265625 0,0.265625 0.28125,0.265625 H 3.734375 C 4,6.078125 4,6.078125 4,5.8125 Z m 0,0"
             id="path11829" />
        </g>
      </g>
      <g
         style="fill:#211e1e;fill-opacity:1"
         id="g4904">
        <g
           id="use4902"
           transform="translate(377.27991,528.83972)">
          <path
             style="stroke:none"
             d="M 4,0.171875 C 4,-0.09375 4,-0.09375 3.734375,-0.09375 H 3.1875 c -0.28125,0 -0.28125,0 -0.28125,0.265625 V 5.8125 c 0,0.265625 0,0.265625 0.28125,0.265625 H 3.734375 C 4,6.078125 4,6.078125 4,5.8125 Z m 0,0"
             id="path11833" />
        </g>
      </g>
      <g
         style="fill:#211e1e;fill-opacity:1"
         id="g4908">
        <g
           id="use4906"
           transform="translate(377.27991,534.71979)">
          <path
             style="stroke:none"
             d="M 4,0.171875 C 4,-0.09375 4,-0.09375 3.734375,-0.09375 H 3.1875 c -0.28125,0 -0.28125,0 -0.28125,0.265625 V 5.8125 c 0,0.265625 0,0.265625 0.28125,0.265625 H 3.734375 C 4,6.078125 4,6.078125 4,5.8125 Z m 0,0"
             id="path11837" />
        </g>
      </g>
      <g
         style="fill:#211e1e;fill-opacity:1"
         id="g4912">
        <g
           id="use4910"
           transform="translate(377.27991,541.19989)">
          <path
             style="stroke:none"
             d="m 3.1875,-0.5 c -0.21875,0 -0.28125,0 -0.28125,0.109375 V 0 c 0,6.09375 1.078125,9.65625 1.390625,10.671875 C 4.96875,12.875 6.078125,15.21875 7.75,17.265625 7.890625,17.453125 7.9375,17.5 7.96875,17.515625 8,17.53125 8,17.53125 8.171875,17.53125 c 0.15625,0 0.21875,0 0.21875,-0.09375 0,-0.01563 0,-0.04687 -0.0625,-0.125 C 5.015625,12.703125 4.015625,7.15625 4,-0.359375 4,-0.5 3.953125,-0.5 3.734375,-0.5 Z m 0,0"
             id="path11841" />
        </g>
      </g>
      <g
         style="fill:#211e1e;fill-opacity:1"
         id="g4916">
        <g
           id="use4914"
           transform="translate(387.47992,507.23965)">
          <path
             style="stroke:none"
             d="m 2.53125,-6.734375 c -0.546875,0 -0.96875,0.171875 -1.328125,0.515625 -0.578125,0.5625 -0.96875,1.703125 -0.96875,2.875 0,1.078125 0.328125,2.25 0.796875,2.8125 0.375,0.4375 0.875,0.671875 1.46875,0.671875 0.5,0 0.921875,-0.171875 1.28125,-0.515625 C 4.359375,-0.921875 4.75,-2.078125 4.75,-3.296875 c 0,-2.03125 -0.90625,-3.4375 -2.21875,-3.4375 z m -0.03125,0.25 c 0.84375,0 1.28125,1.125 1.28125,3.21875 0,2.078125 -0.4375,3.140625 -1.28125,3.140625 -0.859375,0 -1.296875,-1.0625 -1.296875,-3.140625 0,-2.109375 0.4375,-3.21875 1.296875,-3.21875 z m 0,0"
             id="path11845" />
        </g>
      </g>
      <g
         style="fill:#211e1e;fill-opacity:1"
         id="g4920">
        <g
           id="use4918"
           transform="translate(387.47992,519.23969)">
          <path
             style="stroke:none"
             d="m 2.53125,-6.734375 c -0.546875,0 -0.96875,0.171875 -1.328125,0.515625 -0.578125,0.5625 -0.96875,1.703125 -0.96875,2.875 0,1.078125 0.328125,2.25 0.796875,2.8125 0.375,0.4375 0.875,0.671875 1.46875,0.671875 0.5,0 0.921875,-0.171875 1.28125,-0.515625 C 4.359375,-0.921875 4.75,-2.078125 4.75,-3.296875 c 0,-2.03125 -0.90625,-3.4375 -2.21875,-3.4375 z m -0.03125,0.25 c 0.84375,0 1.28125,1.125 1.28125,3.21875 0,2.078125 -0.4375,3.140625 -1.28125,3.140625 -0.859375,0 -1.296875,-1.0625 -1.296875,-3.140625 0,-2.109375 0.4375,-3.21875 1.296875,-3.21875 z m 0,0"
             id="path11849" />
        </g>
      </g>
      <g
         style="fill:#211e1e;fill-opacity:1"
         id="g4924">
        <g
           id="use4922"
           transform="translate(387.47992,531.23969)">
          <path
             style="stroke:none"
             d="m 2.90625,-6.734375 -1.796875,0.90625 V -5.6875 C 1.21875,-5.734375 1.328125,-5.78125 1.375,-5.796875 1.5625,-5.875 1.71875,-5.90625 1.828125,-5.90625 2.03125,-5.90625 2.125,-5.765625 2.125,-5.4375 v 4.515625 c 0,0.328125 -0.078125,0.546875 -0.234375,0.640625 -0.15625,0.09375 -0.296875,0.125 -0.71875,0.125 V 0 h 2.75 v -0.15625 c -0.78125,0 -0.9375,-0.109375 -0.9375,-0.578125 V -6.71875 Z m 0,0"
             id="path11853" />
        </g>
      </g>
      <g
         style="fill:#211e1e;fill-opacity:1"
         id="g4928">
        <g
           id="use4926"
           transform="translate(387.47992,543.11975)">
          <path
             style="stroke:none"
             d="m 2.53125,-6.734375 c -0.546875,0 -0.96875,0.171875 -1.328125,0.515625 -0.578125,0.5625 -0.96875,1.703125 -0.96875,2.875 0,1.078125 0.328125,2.25 0.796875,2.8125 0.375,0.4375 0.875,0.671875 1.46875,0.671875 0.5,0 0.921875,-0.171875 1.28125,-0.515625 C 4.359375,-0.921875 4.75,-2.078125 4.75,-3.296875 c 0,-2.03125 -0.90625,-3.4375 -2.21875,-3.4375 z m -0.03125,0.25 c 0.84375,0 1.28125,1.125 1.28125,3.21875 0,2.078125 -0.4375,3.140625 -1.28125,3.140625 -0.859375,0 -1.296875,-1.0625 -1.296875,-3.140625 0,-2.109375 0.4375,-3.21875 1.296875,-3.21875 z m 0,0"
             id="path11857" />
        </g>
      </g>
      <g
         style="fill:#211e1e;fill-opacity:1"
         id="g4932">
        <g
           id="use4930"
           transform="translate(387.47992,555.11975)">
          <path
             style="stroke:none"
             d="m 2.90625,-6.734375 -1.796875,0.90625 V -5.6875 C 1.21875,-5.734375 1.328125,-5.78125 1.375,-5.796875 1.5625,-5.875 1.71875,-5.90625 1.828125,-5.90625 2.03125,-5.90625 2.125,-5.765625 2.125,-5.4375 v 4.515625 c 0,0.328125 -0.078125,0.546875 -0.234375,0.640625 -0.15625,0.09375 -0.296875,0.125 -0.71875,0.125 V 0 h 2.75 v -0.15625 c -0.78125,0 -0.9375,-0.109375 -0.9375,-0.578125 V -6.71875 Z m 0,0"
             id="path11861" />
        </g>
      </g>
      <g
         style="fill:#211e1e;fill-opacity:1"
         id="g4936">
        <g
           id="use4934"
           transform="translate(393.95999,499.31976)">
          <path
             style="stroke:none"
             d="M 5.8125,17.140625 C 5.8125,11.0625 4.71875,7.484375 4.421875,6.484375 3.734375,4.265625 2.625,1.9375 0.96875,-0.125 0.8125,-0.296875 0.78125,-0.34375 0.734375,-0.375 c -0.015625,0 -0.03125,-0.015625 -0.1875,-0.015625 -0.140625,0 -0.234375,0 -0.234375,0.09375 0,0.03125 0,0.046875 0.140625,0.234375 3.46875,4.84375 4.234375,10.8125 4.25,17.5625 0,0.140625 0.0625,0.140625 0.28125,0.140625 H 5.53125 c 0.203125,0 0.265625,0 0.28125,-0.109375 z m 0,0"
             id="path11865" />
        </g>
      </g>
      <g
         style="fill:#211e1e;fill-opacity:1"
         id="g4940">
        <g
           id="use4938"
           transform="translate(393.95999,516.83966)">
          <path
             style="stroke:none"
             d="M 5.8125,0.171875 C 5.8125,-0.09375 5.796875,-0.09375 5.53125,-0.09375 H 4.984375 c -0.265625,0 -0.28125,0 -0.28125,0.265625 V 5.8125 c 0,0.265625 0.015625,0.265625 0.28125,0.265625 H 5.53125 c 0.265625,0 0.28125,0 0.28125,-0.265625 z m 0,0"
             id="path11869" />
        </g>
      </g>
      <g
         style="fill:#211e1e;fill-opacity:1"
         id="g4944">
        <g
           id="use4942"
           transform="translate(393.95999,522.83966)">
          <path
             style="stroke:none"
             d="M 5.8125,0.171875 C 5.8125,-0.09375 5.796875,-0.09375 5.53125,-0.09375 H 4.984375 c -0.265625,0 -0.28125,0 -0.28125,0.265625 V 5.8125 c 0,0.265625 0.015625,0.265625 0.28125,0.265625 H 5.53125 c 0.265625,0 0.28125,0 0.28125,-0.265625 z m 0,0"
             id="path11873" />
        </g>
      </g>
      <g
         style="fill:#211e1e;fill-opacity:1"
         id="g4948">
        <g
           id="use4946"
           transform="translate(393.95999,528.83966)">
          <path
             style="stroke:none"
             d="M 5.8125,0.171875 C 5.8125,-0.09375 5.796875,-0.09375 5.53125,-0.09375 H 4.984375 c -0.265625,0 -0.28125,0 -0.28125,0.265625 V 5.8125 c 0,0.265625 0.015625,0.265625 0.28125,0.265625 H 5.53125 c 0.265625,0 0.28125,0 0.28125,-0.265625 z m 0,0"
             id="path11877" />
        </g>
      </g>
      <g
         style="fill:#211e1e;fill-opacity:1"
         id="g4952">
        <g
           id="use4950"
           transform="translate(393.95999,534.71973)">
          <path
             style="stroke:none"
             d="M 5.8125,0.171875 C 5.8125,-0.09375 5.796875,-0.09375 5.53125,-0.09375 H 4.984375 c -0.265625,0 -0.28125,0 -0.28125,0.265625 V 5.8125 c 0,0.265625 0.015625,0.265625 0.28125,0.265625 H 5.53125 c 0.265625,0 0.28125,0 0.28125,-0.265625 z m 0,0"
             id="path11881" />
        </g>
      </g>
      <g
         style="fill:#211e1e;fill-opacity:1"
         id="g4956">
        <g
           id="use4954"
           transform="translate(393.95999,541.19983)">
          <path
             style="stroke:none"
             d="M 5.8125,-0.390625 C 5.796875,-0.5 5.734375,-0.5 5.53125,-0.5 H 4.984375 c -0.21875,0 -0.28125,0 -0.28125,0.140625 0,1.03125 -0.015625,3.40625 -0.265625,5.875 C 3.890625,10.671875 2.578125,14.25 0.390625,17.3125 0.3125,17.390625 0.3125,17.421875 0.3125,17.4375 c 0,0.09375 0.09375,0.09375 0.234375,0.09375 0.15625,0 0.1875,0 0.203125,-0.01563 C 0.78125,17.48438 2.046875,16.03125 3.0625,14.03125 4.375,11.390625 5.203125,8.375 5.578125,4.75 5.609375,4.4375 5.8125,2.359375 5.8125,0 Z m 0,0"
             id="path11885" />
        </g>
      </g>
      <g
         style="fill:#211e1e;fill-opacity:1"
         id="g4960">
        <g
           id="use4958"
           transform="translate(404.87991,531.23969)">
          <path
             style="stroke:none"
             d="m 6.84375,-3.265625 c 0.15625,0 0.34375,0 0.34375,-0.1875 C 7.1875,-3.65625 7,-3.65625 6.859375,-3.65625 h -5.96875 c -0.140625,0 -0.328125,0 -0.328125,0.203125 0,0.1875 0.1875,0.1875 0.328125,0.1875 z m 0.015625,1.9375 c 0.140625,0 0.328125,0 0.328125,-0.203125 0,-0.1875 -0.1875,-0.1875 -0.34375,-0.1875 H 0.890625 c -0.140625,0 -0.328125,0 -0.328125,0.1875 0,0.203125 0.1875,0.203125 0.328125,0.203125 z m 0,0"
             id="path11889" />
        </g>
      </g>
      <g
         style="fill:#211e1e;fill-opacity:1"
         id="g4964">
        <g
           id="use4962"
           transform="translate(414.83966,505.31976)">
          <path
             style="stroke:none"
             d="M 3.734375,17.640625 C 3.953125,17.640625 4,17.640625 4,17.5 4.03125,10.515625 4.828125,4.71875 8.328125,-0.15625 c 0.0625,-0.09375 0.0625,-0.109375 0.0625,-0.140625 0,-0.09375 -0.0625,-0.09375 -0.21875,-0.09375 -0.171875,0 -0.1875,0 -0.203125,0.015625 -0.046875,0.03125 -1.3125,1.484375 -2.3125,3.5 -1.3125,2.625 -2.140625,5.640625 -2.515625,9.28125 -0.03125,0.296875 -0.234375,2.375 -0.234375,4.734375 v 0.390625 c 0,0.109375 0.0625,0.109375 0.28125,0.109375 z m 0,0"
             id="path11893" />
        </g>
      </g>
      <g
         style="fill:#211e1e;fill-opacity:1"
         id="g4968">
        <g
           id="use4966"
           transform="translate(414.83966,522.83966)">
          <path
             style="stroke:none"
             d="M 4,0.171875 C 4,-0.09375 4,-0.09375 3.734375,-0.09375 H 3.1875 c -0.28125,0 -0.28125,0 -0.28125,0.265625 V 5.8125 c 0,0.265625 0,0.265625 0.28125,0.265625 H 3.734375 C 4,6.078125 4,6.078125 4,5.8125 Z m 0,0"
             id="path11897" />
        </g>
      </g>
      <g
         style="fill:#211e1e;fill-opacity:1"
         id="g4972">
        <g
           id="use4970"
           transform="translate(414.83966,528.83966)">
          <path
             style="stroke:none"
             d="M 4,0.171875 C 4,-0.09375 4,-0.09375 3.734375,-0.09375 H 3.1875 c -0.28125,0 -0.28125,0 -0.28125,0.265625 V 5.8125 c 0,0.265625 0,0.265625 0.28125,0.265625 H 3.734375 C 4,6.078125 4,6.078125 4,5.8125 Z m 0,0"
             id="path11901" />
        </g>
      </g>
      <g
         style="fill:#211e1e;fill-opacity:1"
         id="g4976">
        <g
           id="use4974"
           transform="translate(414.83966,535.19983)">
          <path
             style="stroke:none"
             d="m 3.1875,-0.5 c -0.21875,0 -0.28125,0 -0.28125,0.109375 V 0 c 0,6.09375 1.078125,9.65625 1.390625,10.671875 C 4.96875,12.875 6.078125,15.21875 7.75,17.265625 7.890625,17.453125 7.9375,17.5 7.96875,17.515625 8,17.53125 8,17.53125 8.171875,17.53125 c 0.15625,0 0.21875,0 0.21875,-0.09375 0,-0.01563 0,-0.04687 -0.0625,-0.125 C 5.015625,12.703125 4.015625,7.15625 4,-0.359375 4,-0.5 3.953125,-0.5 3.734375,-0.5 Z m 0,0"
             id="path11905" />
        </g>
      </g>
      <g
         style="fill:#211e1e;fill-opacity:1"
         id="g4980">
        <g
           id="use4978"
           transform="translate(425.03967,513.23962)">
          <path
             style="stroke:none"
             d="M 4.453125,-6.8125 C 3.3125,-6.71875 2.734375,-6.53125 2,-6.015625 0.921875,-5.25 0.34375,-4.109375 0.34375,-2.78125 c 0,0.875 0.265625,1.75 0.6875,2.25 0.390625,0.4375 0.921875,0.671875 1.546875,0.671875 1.234375,0 2.09375,-0.953125 2.09375,-2.328125 0,-1.265625 -0.734375,-2.078125 -1.875,-2.078125 -0.4375,0 -0.65625,0.0625 -1.28125,0.453125 C 1.78125,-5.328125 2.90625,-6.40625 4.46875,-6.65625 Z m -2.046875,3 c 0.859375,0 1.359375,0.71875 1.359375,1.96875 0,1.09375 -0.390625,1.703125 -1.078125,1.703125 -0.890625,0 -1.421875,-0.9375 -1.421875,-2.484375 0,-0.5 0.078125,-0.78125 0.28125,-0.9375 C 1.75,-3.71875 2.0625,-3.8125 2.40625,-3.8125 Z m 0,0"
             id="path11909" />
        </g>
      </g>
      <g
         style="fill:#211e1e;fill-opacity:1"
         id="g4984">
        <g
           id="use4982"
           transform="translate(425.03967,525.23962)">
          <path
             style="stroke:none"
             d="M 4.703125,-2.296875 H 3.6875 v -4.4375 H 3.25 l -3.125,4.4375 v 0.625 H 2.921875 V 0 H 3.6875 v -1.671875 h 1.015625 z m -1.796875,0 H 0.515625 L 2.90625,-5.71875 Z m 0,0"
             id="path11913" />
        </g>
      </g>
      <g
         style="fill:#211e1e;fill-opacity:1"
         id="g4988">
        <g
           id="use4986"
           transform="translate(425.03967,537.11969)">
          <path
             style="stroke:none"
             d="m 4.734375,-1.359375 -0.125,-0.0625 C 4.234375,-0.84375 4.109375,-0.75 3.65625,-0.75 h -2.375 l 1.671875,-1.765625 c 0.890625,-0.921875 1.28125,-1.6875 1.28125,-2.453125 0,-1 -0.8125,-1.765625 -1.859375,-1.765625 -0.546875,0 -1.0625,0.21875 -1.421875,0.609375 C 0.625,-5.78125 0.484375,-5.46875 0.3125,-4.75 l 0.203125,0.046875 C 0.921875,-5.6875 1.28125,-6 1.96875,-6 2.796875,-6 3.375,-5.4375 3.375,-4.59375 3.375,-3.8125 2.90625,-2.890625 2.078125,-2 l -1.78125,1.875 V 0 H 4.1875 Z m 0,0"
             id="path11917" />
        </g>
      </g>
      <g
         style="fill:#211e1e;fill-opacity:1"
         id="g4992">
        <g
           id="use4990"
           transform="translate(425.03967,549.11969)">
          <path
             style="stroke:none"
             d="M 4.703125,-2.296875 H 3.6875 v -4.4375 H 3.25 l -3.125,4.4375 v 0.625 H 2.921875 V 0 H 3.6875 v -1.671875 h 1.015625 z m -1.796875,0 H 0.515625 L 2.90625,-5.71875 Z m 0,0"
             id="path11921" />
        </g>
      </g>
      <g
         style="fill:#211e1e;fill-opacity:1"
         id="g4996">
        <g
           id="use4994"
           transform="translate(431.51974,505.31973)">
          <path
             style="stroke:none"
             d="M 5.8125,17.140625 C 5.8125,11.0625 4.71875,7.484375 4.421875,6.484375 3.734375,4.265625 2.625,1.9375 0.96875,-0.125 0.8125,-0.296875 0.78125,-0.34375 0.734375,-0.375 c -0.015625,0 -0.03125,-0.015625 -0.1875,-0.015625 -0.140625,0 -0.234375,0 -0.234375,0.09375 0,0.03125 0,0.046875 0.140625,0.234375 3.46875,4.84375 4.234375,10.8125 4.25,17.5625 0,0.140625 0.0625,0.140625 0.28125,0.140625 H 5.53125 c 0.203125,0 0.265625,0 0.28125,-0.109375 z m 0,0"
             id="path11925" />
        </g>
      </g>
      <g
         style="fill:#211e1e;fill-opacity:1"
         id="g5000">
        <g
           id="use4998"
           transform="translate(431.51974,522.8396)">
          <path
             style="stroke:none"
             d="M 5.8125,0.171875 C 5.8125,-0.09375 5.796875,-0.09375 5.53125,-0.09375 H 4.984375 c -0.265625,0 -0.28125,0 -0.28125,0.265625 V 5.8125 c 0,0.265625 0.015625,0.265625 0.28125,0.265625 H 5.53125 c 0.265625,0 0.28125,0 0.28125,-0.265625 z m 0,0"
             id="path11929" />
        </g>
      </g>
      <g
         style="fill:#211e1e;fill-opacity:1"
         id="g5004">
        <g
           id="use5002"
           transform="translate(431.51974,528.8396)">
          <path
             style="stroke:none"
             d="M 5.8125,0.171875 C 5.8125,-0.09375 5.796875,-0.09375 5.53125,-0.09375 H 4.984375 c -0.265625,0 -0.28125,0 -0.28125,0.265625 V 5.8125 c 0,0.265625 0.015625,0.265625 0.28125,0.265625 H 5.53125 c 0.265625,0 0.28125,0 0.28125,-0.265625 z m 0,0"
             id="path11933" />
        </g>
      </g>
      <g
         style="fill:#211e1e;fill-opacity:1"
         id="g5008">
        <g
           id="use5006"
           transform="translate(431.51974,535.19977)">
          <path
             style="stroke:none"
             d="M 5.8125,-0.390625 C 5.796875,-0.5 5.734375,-0.5 5.53125,-0.5 H 4.984375 c -0.21875,0 -0.28125,0 -0.28125,0.140625 0,1.03125 -0.015625,3.40625 -0.265625,5.875 C 3.890625,10.671875 2.578125,14.25 0.390625,17.3125 0.3125,17.390625 0.3125,17.421875 0.3125,17.4375 c 0,0.09375 0.09375,0.09375 0.234375,0.09375 0.15625,0 0.1875,0 0.203125,-0.01563 C 0.78125,17.48438 2.046875,16.03125 3.0625,14.03125 4.375,11.390625 5.203125,8.375 5.578125,4.75 5.609375,4.4375 5.8125,2.359375 5.8125,0 Z m 0,0"
             id="path11937" />
        </g>
      </g>
    </g>
  </g>
</svg>
