<?xml version="1.0" encoding="UTF-8" standalone="no"?>
<svg
   width="33.940125mm"
   height="16.863354mm"
   viewBox="0 0 33.940125 16.863354"
   version="1.1"
   id="svg10029"
   xmlns="http://www.w3.org/2000/svg"
   xmlns:svg="http://www.w3.org/2000/svg">
  <defs
     id="defs10026" />
  <g
     id="layer1"
     transform="translate(-28.151092,-114.3664)">
    <g
       id="g9773"
       transform="matrix(0.35277777,0,0,0.35277777,-60.313047,-51.61186)">
      <g
         style="fill:#211e1e;fill-opacity:1"
         id="g6945">
        <g
           id="use6943"
           transform="translate(251.28012,496.92001)">
          <path
             style="stroke:none"
             d="M 5.625,-0.15625 C 5.046875,-0.203125 5,-0.296875 4.859375,-1.015625 l -0.9375,-5.640625 h -0.25 L 0.78125,-1.671875 c -0.796875,1.328125 -0.890625,1.4375 -1.296875,1.515625 V 0 h 1.875 v -0.15625 c -0.515625,-0.046875 -0.59375,-0.109375 -0.59375,-0.359375 0,-0.1875 0.03125,-0.265625 0.203125,-0.609375 l 0.5625,-1.125 h 2.203125 l 0.1875,1.296875 c 0.015625,0.09375 0.03125,0.1875 0.03125,0.265625 0,0.375 -0.140625,0.46875 -0.78125,0.53125 V 0 H 5.625 Z m -3.875,-2.453125 1.484375,-2.59375 0.4375,2.59375 z m 0,0"
             id="path9775" />
        </g>
      </g>
      <g
         style="fill:#211e1e;fill-opacity:1"
         id="g6949">
        <g
           id="use6947"
           transform="translate(259.68011,496.92001)">
          <path
             style="stroke:none"
             d="m 6.84375,-3.265625 c 0.15625,0 0.34375,0 0.34375,-0.1875 C 7.1875,-3.65625 7,-3.65625 6.859375,-3.65625 h -5.96875 c -0.140625,0 -0.328125,0 -0.328125,0.203125 0,0.1875 0.1875,0.1875 0.328125,0.1875 z m 0.015625,1.9375 c 0.140625,0 0.328125,0 0.328125,-0.203125 0,-0.1875 -0.1875,-0.1875 -0.34375,-0.1875 H 0.890625 c -0.140625,0 -0.328125,0 -0.328125,0.1875 0,0.203125 0.1875,0.203125 0.328125,0.203125 z m 0,0"
             id="path9779" />
        </g>
      </g>
      <g
         style="fill:#211e1e;fill-opacity:1"
         id="g6953">
        <g
           id="use6951"
           transform="translate(269.63989,470.88019)">
          <path
             style="stroke:none"
             d="M 3.734375,17.640625 C 3.953125,17.640625 4,17.640625 4,17.5 4.03125,10.515625 4.828125,4.71875 8.328125,-0.15625 c 0.0625,-0.09375 0.0625,-0.109375 0.0625,-0.140625 0,-0.09375 -0.0625,-0.09375 -0.21875,-0.09375 -0.171875,0 -0.1875,0 -0.203125,0.015625 -0.046875,0.03125 -1.3125,1.484375 -2.3125,3.5 -1.3125,2.625 -2.140625,5.640625 -2.515625,9.28125 -0.03125,0.296875 -0.234375,2.375 -0.234375,4.734375 v 0.390625 c 0,0.109375 0.0625,0.109375 0.28125,0.109375 z m 0,0"
             id="path9783" />
        </g>
      </g>
      <g
         style="fill:#211e1e;fill-opacity:1"
         id="g6957">
        <g
           id="use6955"
           transform="translate(269.63989,488.40009)">
          <path
             style="stroke:none"
             d="M 4,0.171875 C 4,-0.09375 4,-0.09375 3.734375,-0.09375 H 3.1875 c -0.28125,0 -0.28125,0 -0.28125,0.265625 V 5.8125 c 0,0.265625 0,0.265625 0.28125,0.265625 H 3.734375 C 4,6.078125 4,6.078125 4,5.8125 Z m 0,0"
             id="path9787" />
        </g>
      </g>
      <g
         style="fill:#211e1e;fill-opacity:1"
         id="g6961">
        <g
           id="use6959"
           transform="translate(269.63989,494.40009)">
          <path
             style="stroke:none"
             d="M 4,0.171875 C 4,-0.09375 4,-0.09375 3.734375,-0.09375 H 3.1875 c -0.28125,0 -0.28125,0 -0.28125,0.265625 V 5.8125 c 0,0.265625 0,0.265625 0.28125,0.265625 H 3.734375 C 4,6.078125 4,6.078125 4,5.8125 Z m 0,0"
             id="path9791" />
        </g>
      </g>
      <g
         style="fill:#211e1e;fill-opacity:1"
         id="g6965">
        <g
           id="use6963"
           transform="translate(269.63989,500.75986)">
          <path
             style="stroke:none"
             d="m 3.1875,-0.5 c -0.21875,0 -0.28125,0 -0.28125,0.109375 V 0 c 0,6.09375 1.078125,9.65625 1.390625,10.671875 C 4.96875,12.875 6.078125,15.21875 7.75,17.265625 7.890625,17.453125 7.9375,17.5 7.96875,17.515625 8,17.53125 8,17.53125 8.171875,17.53125 c 0.15625,0 0.21875,0 0.21875,-0.09375 0,-0.01563 0,-0.04687 -0.0625,-0.125 C 5.015625,12.703125 4.015625,7.15625 4,-0.359375 4,-0.5 3.953125,-0.5 3.734375,-0.5 Z m 0,0"
             id="path9795" />
        </g>
      </g>
      <g
         style="fill:#211e1e;fill-opacity:1"
         id="g6969">
        <g
           id="use6967"
           transform="translate(283.68008,478.92007)">
          <path
             style="stroke:none"
             d="m 4.734375,-1.359375 -0.125,-0.0625 C 4.234375,-0.84375 4.109375,-0.75 3.65625,-0.75 h -2.375 l 1.671875,-1.765625 c 0.890625,-0.921875 1.28125,-1.6875 1.28125,-2.453125 0,-1 -0.8125,-1.765625 -1.859375,-1.765625 -0.546875,0 -1.0625,0.21875 -1.421875,0.609375 C 0.625,-5.78125 0.484375,-5.46875 0.3125,-4.75 l 0.203125,0.046875 C 0.921875,-5.6875 1.28125,-6 1.96875,-6 2.796875,-6 3.375,-5.4375 3.375,-4.59375 3.375,-3.8125 2.90625,-2.890625 2.078125,-2 l -1.78125,1.875 V 0 H 4.1875 Z m 0,0"
             id="path9799" />
        </g>
      </g>
      <g
         style="fill:#211e1e;fill-opacity:1"
         id="g6973">
        <g
           id="use6971"
           transform="translate(295.56018,478.92007)">
          <path
             style="stroke:none"
             d="m 6.5625,-2.296875 c 0.171875,0 0.359375,0 0.359375,-0.203125 0,-0.1875 -0.1875,-0.1875 -0.359375,-0.1875 H 1.171875 c -0.171875,0 -0.34375,0 -0.34375,0.1875 0,0.203125 0.171875,0.203125 0.34375,0.203125 z m 0,0"
             id="path9803" />
        </g>
      </g>
      <g
         style="fill:#211e1e;fill-opacity:1"
         id="g6977">
        <g
           id="use6975"
           transform="translate(303.3602,478.92007)">
          <path
             style="stroke:none"
             d="m 2.90625,-6.734375 -1.796875,0.90625 V -5.6875 C 1.21875,-5.734375 1.328125,-5.78125 1.375,-5.796875 1.5625,-5.875 1.71875,-5.90625 1.828125,-5.90625 2.03125,-5.90625 2.125,-5.765625 2.125,-5.4375 v 4.515625 c 0,0.328125 -0.078125,0.546875 -0.234375,0.640625 -0.15625,0.09375 -0.296875,0.125 -0.71875,0.125 V 0 h 2.75 v -0.15625 c -0.78125,0 -0.9375,-0.109375 -0.9375,-0.578125 V -6.71875 Z m 0,0"
             id="path9807" />
        </g>
      </g>
      <g
         style="fill:#211e1e;fill-opacity:1"
         id="g6981">
        <g
           id="use6979"
           transform="translate(315.12033,478.92007)">
          <path
             style="stroke:none"
             d="m 2.90625,-6.734375 -1.796875,0.90625 V -5.6875 C 1.21875,-5.734375 1.328125,-5.78125 1.375,-5.796875 1.5625,-5.875 1.71875,-5.90625 1.828125,-5.90625 2.03125,-5.90625 2.125,-5.765625 2.125,-5.4375 v 4.515625 c 0,0.328125 -0.078125,0.546875 -0.234375,0.640625 -0.15625,0.09375 -0.296875,0.125 -0.71875,0.125 V 0 h 2.75 v -0.15625 c -0.78125,0 -0.9375,-0.109375 -0.9375,-0.578125 V -6.71875 Z m 0,0"
             id="path9811" />
        </g>
      </g>
      <g
         style="fill:#211e1e;fill-opacity:1"
         id="g6985">
        <g
           id="use6983"
           transform="translate(330.8403,478.92007)">
          <path
             style="stroke:none"
             d="m 4.734375,-1.359375 -0.125,-0.0625 C 4.234375,-0.84375 4.109375,-0.75 3.65625,-0.75 h -2.375 l 1.671875,-1.765625 c 0.890625,-0.921875 1.28125,-1.6875 1.28125,-2.453125 0,-1 -0.8125,-1.765625 -1.859375,-1.765625 -0.546875,0 -1.0625,0.21875 -1.421875,0.609375 C 0.625,-5.78125 0.484375,-5.46875 0.3125,-4.75 l 0.203125,0.046875 C 0.921875,-5.6875 1.28125,-6 1.96875,-6 2.796875,-6 3.375,-5.4375 3.375,-4.59375 3.375,-3.8125 2.90625,-2.890625 2.078125,-2 l -1.78125,1.875 V 0 H 4.1875 Z m 0,0"
             id="path9815" />
        </g>
      </g>
      <g
         style="fill:#211e1e;fill-opacity:1"
         id="g6989">
        <g
           id="use6987"
           transform="translate(279.8399,490.80017)">
          <path
             style="stroke:none"
             d="m 6.5625,-2.296875 c 0.171875,0 0.359375,0 0.359375,-0.203125 0,-0.1875 -0.1875,-0.1875 -0.359375,-0.1875 H 1.171875 c -0.171875,0 -0.34375,0 -0.34375,0.1875 0,0.203125 0.171875,0.203125 0.34375,0.203125 z m 0,0"
             id="path9819" />
        </g>
      </g>
      <g
         style="fill:#211e1e;fill-opacity:1"
         id="g6993">
        <g
           id="use6991"
           transform="translate(287.63989,490.80017)">
          <path
             style="stroke:none"
             d="m 2.90625,-6.734375 -1.796875,0.90625 V -5.6875 C 1.21875,-5.734375 1.328125,-5.78125 1.375,-5.796875 1.5625,-5.875 1.71875,-5.90625 1.828125,-5.90625 2.03125,-5.90625 2.125,-5.765625 2.125,-5.4375 v 4.515625 c 0,0.328125 -0.078125,0.546875 -0.234375,0.640625 -0.15625,0.09375 -0.296875,0.125 -0.71875,0.125 V 0 h 2.75 v -0.15625 c -0.78125,0 -0.9375,-0.109375 -0.9375,-0.578125 V -6.71875 Z m 0,0"
             id="path9823" />
        </g>
      </g>
      <g
         style="fill:#211e1e;fill-opacity:1"
         id="g6997">
        <g
           id="use6995"
           transform="translate(299.40002,490.80017)">
          <path
             style="stroke:none"
             d="m 2.90625,-6.734375 -1.796875,0.90625 V -5.6875 C 1.21875,-5.734375 1.328125,-5.78125 1.375,-5.796875 1.5625,-5.875 1.71875,-5.90625 1.828125,-5.90625 2.03125,-5.90625 2.125,-5.765625 2.125,-5.4375 v 4.515625 c 0,0.328125 -0.078125,0.546875 -0.234375,0.640625 -0.15625,0.09375 -0.296875,0.125 -0.71875,0.125 V 0 h 2.75 v -0.15625 c -0.78125,0 -0.9375,-0.109375 -0.9375,-0.578125 V -6.71875 Z m 0,0"
             id="path9827" />
        </g>
      </g>
      <g
         style="fill:#211e1e;fill-opacity:1"
         id="g7001">
        <g
           id="use6999"
           transform="translate(311.16019,490.80017)">
          <path
             style="stroke:none"
             d="m 6.5625,-2.296875 c 0.171875,0 0.359375,0 0.359375,-0.203125 0,-0.1875 -0.1875,-0.1875 -0.359375,-0.1875 H 1.171875 c -0.171875,0 -0.34375,0 -0.34375,0.1875 0,0.203125 0.171875,0.203125 0.34375,0.203125 z m 0,0"
             id="path9831" />
        </g>
      </g>
      <g
         style="fill:#211e1e;fill-opacity:1"
         id="g7005">
        <g
           id="use7003"
           transform="translate(318.96021,490.80017)">
          <path
             style="stroke:none"
             d="m 4.734375,-1.359375 -0.125,-0.0625 C 4.234375,-0.84375 4.109375,-0.75 3.65625,-0.75 h -2.375 l 1.671875,-1.765625 c 0.890625,-0.921875 1.28125,-1.6875 1.28125,-2.453125 0,-1 -0.8125,-1.765625 -1.859375,-1.765625 -0.546875,0 -1.0625,0.21875 -1.421875,0.609375 C 0.625,-5.78125 0.484375,-5.46875 0.3125,-4.75 l 0.203125,0.046875 C 0.921875,-5.6875 1.28125,-6 1.96875,-6 2.796875,-6 3.375,-5.4375 3.375,-4.59375 3.375,-3.8125 2.90625,-2.890625 2.078125,-2 l -1.78125,1.875 V 0 H 4.1875 Z m 0,0"
             id="path9835" />
        </g>
      </g>
      <g
         style="fill:#211e1e;fill-opacity:1"
         id="g7009">
        <g
           id="use7007"
           transform="translate(326.8801,490.80017)">
          <path
             style="stroke:none"
             d="m 6.5625,-2.296875 c 0.171875,0 0.359375,0 0.359375,-0.203125 0,-0.1875 -0.1875,-0.1875 -0.359375,-0.1875 H 1.171875 c -0.171875,0 -0.34375,0 -0.34375,0.1875 0,0.203125 0.171875,0.203125 0.34375,0.203125 z m 0,0"
             id="path9839" />
        </g>
      </g>
      <g
         style="fill:#211e1e;fill-opacity:1"
         id="g7013">
        <g
           id="use7011"
           transform="translate(334.68011,490.80017)">
          <path
             style="stroke:none"
             d="m 2.90625,-6.734375 -1.796875,0.90625 V -5.6875 C 1.21875,-5.734375 1.328125,-5.78125 1.375,-5.796875 1.5625,-5.875 1.71875,-5.90625 1.828125,-5.90625 2.03125,-5.90625 2.125,-5.765625 2.125,-5.4375 v 4.515625 c 0,0.328125 -0.078125,0.546875 -0.234375,0.640625 -0.15625,0.09375 -0.296875,0.125 -0.71875,0.125 V 0 h 2.75 v -0.15625 c -0.78125,0 -0.9375,-0.109375 -0.9375,-0.578125 V -6.71875 Z m 0,0"
             id="path9843" />
        </g>
      </g>
      <g
         style="fill:#211e1e;fill-opacity:1"
         id="g7017">
        <g
           id="use7015"
           transform="translate(283.68011,502.80017)">
          <path
             style="stroke:none"
             d="m 2.90625,-6.734375 -1.796875,0.90625 V -5.6875 C 1.21875,-5.734375 1.328125,-5.78125 1.375,-5.796875 1.5625,-5.875 1.71875,-5.90625 1.828125,-5.90625 2.03125,-5.90625 2.125,-5.765625 2.125,-5.4375 v 4.515625 c 0,0.328125 -0.078125,0.546875 -0.234375,0.640625 -0.15625,0.09375 -0.296875,0.125 -0.71875,0.125 V 0 h 2.75 v -0.15625 c -0.78125,0 -0.9375,-0.109375 -0.9375,-0.578125 V -6.71875 Z m 0,0"
             id="path9847" />
        </g>
      </g>
      <g
         style="fill:#211e1e;fill-opacity:1"
         id="g7021">
        <g
           id="use7019"
           transform="translate(295.56021,502.80017)">
          <path
             style="stroke:none"
             d="m 6.5625,-2.296875 c 0.171875,0 0.359375,0 0.359375,-0.203125 0,-0.1875 -0.1875,-0.1875 -0.359375,-0.1875 H 1.171875 c -0.171875,0 -0.34375,0 -0.34375,0.1875 0,0.203125 0.171875,0.203125 0.34375,0.203125 z m 0,0"
             id="path9851" />
        </g>
      </g>
      <g
         style="fill:#211e1e;fill-opacity:1"
         id="g7025">
        <g
           id="use7023"
           transform="translate(303.3602,502.80017)">
          <path
             style="stroke:none"
             d="m 4.734375,-1.359375 -0.125,-0.0625 C 4.234375,-0.84375 4.109375,-0.75 3.65625,-0.75 h -2.375 l 1.671875,-1.765625 c 0.890625,-0.921875 1.28125,-1.6875 1.28125,-2.453125 0,-1 -0.8125,-1.765625 -1.859375,-1.765625 -0.546875,0 -1.0625,0.21875 -1.421875,0.609375 C 0.625,-5.78125 0.484375,-5.46875 0.3125,-4.75 l 0.203125,0.046875 C 0.921875,-5.6875 1.28125,-6 1.96875,-6 2.796875,-6 3.375,-5.4375 3.375,-4.59375 3.375,-3.8125 2.90625,-2.890625 2.078125,-2 l -1.78125,1.875 V 0 H 4.1875 Z m 0,0"
             id="path9855" />
        </g>
      </g>
      <g
         style="fill:#211e1e;fill-opacity:1"
         id="g7029">
        <g
           id="use7027"
           transform="translate(315.12036,502.80017)">
          <path
             style="stroke:none"
             d="m 1.796875,-5.8125 h 1.96875 c 0.15625,0 0.1875,-0.015625 0.21875,-0.09375 l 0.375,-0.875 L 4.28125,-6.859375 C 4.125,-6.65625 4.03125,-6.59375 3.8125,-6.59375 H 1.734375 l -1.09375,2.359375 c 0,0.015625 0,0.03125 0,0.046875 0,0.046875 0.03125,0.078125 0.109375,0.078125 0.328125,0 0.71875,0.078125 1.140625,0.203125 1.140625,0.375 1.671875,0.984375 1.671875,1.96875 0,0.953125 -0.609375,1.703125 -1.390625,1.703125 -0.203125,0 -0.375,-0.0625 -0.671875,-0.28125 C 1.1875,-0.75 0.953125,-0.84375 0.75,-0.84375 c -0.296875,0 -0.4375,0.109375 -0.4375,0.359375 0,0.390625 0.46875,0.625 1.21875,0.625 0.84375,0 1.5625,-0.265625 2.0625,-0.78125 C 4.046875,-1.09375 4.25,-1.65625 4.25,-2.40625 c 0,-0.71875 -0.1875,-1.1875 -0.6875,-1.6875 -0.4375,-0.4375 -1,-0.65625 -2.171875,-0.875 z m 0,0"
             id="path9859" />
        </g>
      </g>
      <g
         style="fill:#211e1e;fill-opacity:1"
         id="g7033">
        <g
           id="use7031"
           transform="translate(330.8403,502.80017)">
          <path
             style="stroke:none"
             d="m 2.90625,-6.734375 -1.796875,0.90625 V -5.6875 C 1.21875,-5.734375 1.328125,-5.78125 1.375,-5.796875 1.5625,-5.875 1.71875,-5.90625 1.828125,-5.90625 2.03125,-5.90625 2.125,-5.765625 2.125,-5.4375 v 4.515625 c 0,0.328125 -0.078125,0.546875 -0.234375,0.640625 -0.15625,0.09375 -0.296875,0.125 -0.71875,0.125 V 0 h 2.75 v -0.15625 c -0.78125,0 -0.9375,-0.109375 -0.9375,-0.578125 V -6.71875 Z m 0,0"
             id="path9863" />
        </g>
      </g>
      <g
         style="fill:#211e1e;fill-opacity:1"
         id="g7037">
        <g
           id="use7035"
           transform="translate(283.68011,514.80017)">
          <path
             style="stroke:none"
             d="m 4.734375,-1.359375 -0.125,-0.0625 C 4.234375,-0.84375 4.109375,-0.75 3.65625,-0.75 h -2.375 l 1.671875,-1.765625 c 0.890625,-0.921875 1.28125,-1.6875 1.28125,-2.453125 0,-1 -0.8125,-1.765625 -1.859375,-1.765625 -0.546875,0 -1.0625,0.21875 -1.421875,0.609375 C 0.625,-5.78125 0.484375,-5.46875 0.3125,-4.75 l 0.203125,0.046875 C 0.921875,-5.6875 1.28125,-6 1.96875,-6 2.796875,-6 3.375,-5.4375 3.375,-4.59375 3.375,-3.8125 2.90625,-2.890625 2.078125,-2 l -1.78125,1.875 V 0 H 4.1875 Z m 0,0"
             id="path9867" />
        </g>
      </g>
      <g
         style="fill:#211e1e;fill-opacity:1"
         id="g7041">
        <g
           id="use7039"
           transform="translate(295.56021,514.80017)">
          <path
             style="stroke:none"
             d="m 6.5625,-2.296875 c 0.171875,0 0.359375,0 0.359375,-0.203125 0,-0.1875 -0.1875,-0.1875 -0.359375,-0.1875 H 1.171875 c -0.171875,0 -0.34375,0 -0.34375,0.1875 0,0.203125 0.171875,0.203125 0.34375,0.203125 z m 0,0"
             id="path9871" />
        </g>
      </g>
      <g
         style="fill:#211e1e;fill-opacity:1"
         id="g7045">
        <g
           id="use7043"
           transform="translate(303.3602,514.80017)">
          <path
             style="stroke:none"
             d="m 2.90625,-6.734375 -1.796875,0.90625 V -5.6875 C 1.21875,-5.734375 1.328125,-5.78125 1.375,-5.796875 1.5625,-5.875 1.71875,-5.90625 1.828125,-5.90625 2.03125,-5.90625 2.125,-5.765625 2.125,-5.4375 v 4.515625 c 0,0.328125 -0.078125,0.546875 -0.234375,0.640625 -0.15625,0.09375 -0.296875,0.125 -0.71875,0.125 V 0 h 2.75 v -0.15625 c -0.78125,0 -0.9375,-0.109375 -0.9375,-0.578125 V -6.71875 Z m 0,0"
             id="path9875" />
        </g>
      </g>
      <g
         style="fill:#211e1e;fill-opacity:1"
         id="g7049">
        <g
           id="use7047"
           transform="translate(315.12036,514.80017)">
          <path
             style="stroke:none"
             d="m 2.90625,-6.734375 -1.796875,0.90625 V -5.6875 C 1.21875,-5.734375 1.328125,-5.78125 1.375,-5.796875 1.5625,-5.875 1.71875,-5.90625 1.828125,-5.90625 2.03125,-5.90625 2.125,-5.765625 2.125,-5.4375 v 4.515625 c 0,0.328125 -0.078125,0.546875 -0.234375,0.640625 -0.15625,0.09375 -0.296875,0.125 -0.71875,0.125 V 0 h 2.75 v -0.15625 c -0.78125,0 -0.9375,-0.109375 -0.9375,-0.578125 V -6.71875 Z m 0,0"
             id="path9879" />
        </g>
      </g>
      <g
         style="fill:#211e1e;fill-opacity:1"
         id="g7053">
        <g
           id="use7051"
           transform="translate(330.8403,514.80017)">
          <path
             style="stroke:none"
             d="m 4.734375,-1.359375 -0.125,-0.0625 C 4.234375,-0.84375 4.109375,-0.75 3.65625,-0.75 h -2.375 l 1.671875,-1.765625 c 0.890625,-0.921875 1.28125,-1.6875 1.28125,-2.453125 0,-1 -0.8125,-1.765625 -1.859375,-1.765625 -0.546875,0 -1.0625,0.21875 -1.421875,0.609375 C 0.625,-5.78125 0.484375,-5.46875 0.3125,-4.75 l 0.203125,0.046875 C 0.921875,-5.6875 1.28125,-6 1.96875,-6 2.796875,-6 3.375,-5.4375 3.375,-4.59375 3.375,-3.8125 2.90625,-2.890625 2.078125,-2 l -1.78125,1.875 V 0 H 4.1875 Z m 0,0"
             id="path9883" />
        </g>
      </g>
      <g
         style="fill:#211e1e;fill-opacity:1"
         id="g7057">
        <g
           id="use7055"
           transform="translate(341.16022,470.88028)">
          <path
             style="stroke:none"
             d="M 5.8125,17.140625 C 5.8125,11.0625 4.71875,7.484375 4.421875,6.484375 3.734375,4.265625 2.625,1.9375 0.96875,-0.125 0.8125,-0.296875 0.78125,-0.34375 0.734375,-0.375 c -0.015625,0 -0.03125,-0.015625 -0.1875,-0.015625 -0.140625,0 -0.234375,0 -0.234375,0.09375 0,0.03125 0,0.046875 0.140625,0.234375 3.46875,4.84375 4.234375,10.8125 4.25,17.5625 0,0.140625 0.0625,0.140625 0.28125,0.140625 H 5.53125 c 0.203125,0 0.265625,0 0.28125,-0.109375 z m 0,0"
             id="path9887" />
        </g>
      </g>
      <g
         style="fill:#211e1e;fill-opacity:1"
         id="g7061">
        <g
           id="use7059"
           transform="translate(341.16022,488.40018)">
          <path
             style="stroke:none"
             d="M 5.8125,0.171875 C 5.8125,-0.09375 5.796875,-0.09375 5.53125,-0.09375 H 4.984375 c -0.265625,0 -0.28125,0 -0.28125,0.265625 V 5.8125 c 0,0.265625 0.015625,0.265625 0.28125,0.265625 H 5.53125 c 0.265625,0 0.28125,0 0.28125,-0.265625 z m 0,0"
             id="path9891" />
        </g>
      </g>
      <g
         style="fill:#211e1e;fill-opacity:1"
         id="g7065">
        <g
           id="use7063"
           transform="translate(341.16022,494.40018)">
          <path
             style="stroke:none"
             d="M 5.8125,0.171875 C 5.8125,-0.09375 5.796875,-0.09375 5.53125,-0.09375 H 4.984375 c -0.265625,0 -0.28125,0 -0.28125,0.265625 V 5.8125 c 0,0.265625 0.015625,0.265625 0.28125,0.265625 H 5.53125 c 0.265625,0 0.28125,0 0.28125,-0.265625 z m 0,0"
             id="path9895" />
        </g>
      </g>
      <g
         style="fill:#211e1e;fill-opacity:1"
         id="g7069">
        <g
           id="use7067"
           transform="translate(341.16022,500.75995)">
          <path
             style="stroke:none"
             d="M 5.8125,-0.390625 C 5.796875,-0.5 5.734375,-0.5 5.53125,-0.5 H 4.984375 c -0.21875,0 -0.28125,0 -0.28125,0.140625 0,1.03125 -0.015625,3.40625 -0.265625,5.875 C 3.890625,10.671875 2.578125,14.25 0.390625,17.3125 0.3125,17.390625 0.3125,17.421875 0.3125,17.4375 c 0,0.09375 0.09375,0.09375 0.234375,0.09375 0.15625,0 0.1875,0 0.203125,-0.01563 C 0.78125,17.48438 2.046875,16.03125 3.0625,14.03125 4.375,11.390625 5.203125,8.375 5.578125,4.75 5.609375,4.4375 5.8125,2.359375 5.8125,0 Z m 0,0"
             id="path9899" />
        </g>
      </g>
    </g>
  </g>
</svg>
