<?xml version="1.0" encoding="UTF-8" standalone="no"?>
<svg
   width="53.072685mm"
   height="16.863464mm"
   viewBox="0 0 53.072685 16.863464"
   version="1.1"
   id="svg13747"
   xmlns="http://www.w3.org/2000/svg"
   xmlns:svg="http://www.w3.org/2000/svg">
  <defs
     id="defs13744" />
  <g
     id="layer1"
     transform="translate(-11.730966,-161.20096)">
    <g
       id="g13393"
       transform="matrix(0.35277777,0,0,0.35277777,-66.742204,-24.123554)">
      <g
         style="fill:#211e1e;fill-opacity:1"
         id="g4094">
        <g
           id="use4092"
           transform="translate(222.95926,551.75983)">
          <path
             style="stroke:none"
             d="M 5.625,-0.15625 C 5.046875,-0.203125 5,-0.296875 4.859375,-1.015625 l -0.9375,-5.640625 h -0.25 L 0.78125,-1.671875 c -0.796875,1.328125 -0.890625,1.4375 -1.296875,1.515625 V 0 h 1.875 v -0.15625 c -0.515625,-0.046875 -0.59375,-0.109375 -0.59375,-0.359375 0,-0.1875 0.03125,-0.265625 0.203125,-0.609375 l 0.5625,-1.125 h 2.203125 l 0.1875,1.296875 c 0.015625,0.09375 0.03125,0.1875 0.03125,0.265625 0,0.375 -0.140625,0.46875 -0.78125,0.53125 V 0 H 5.625 Z m -3.875,-2.453125 1.484375,-2.59375 0.4375,2.59375 z m 0,0"
             id="path13395" />
        </g>
      </g>
      <g
         style="fill:#211e1e;fill-opacity:1"
         id="g4098">
        <g
           id="use4096"
           transform="translate(229.07918,553.31995)">
          <path
             style="stroke:none"
             d="M 2.140625,-4.984375 0.8125,-4.3125 v 0.09375 C 0.90625,-4.25 0.984375,-4.28125 1.015625,-4.296875 1.15625,-4.34375 1.28125,-4.375 1.34375,-4.375 c 0.15625,0 0.234375,0.109375 0.234375,0.34375 v 3.34375 c 0,0.25 -0.0625,0.421875 -0.1875,0.484375 C 1.28125,-0.140625 1.1875,-0.125 0.875,-0.109375 V 0 H 2.90625 V -0.109375 C 2.328125,-0.125 2.203125,-0.1875 2.203125,-0.546875 V -4.96875 Z m 0,0"
             id="path13399" />
        </g>
      </g>
      <g
         style="fill:#211e1e;fill-opacity:1"
         id="g4102">
        <g
           id="use4100"
           transform="translate(235.43895,551.75983)">
          <path
             style="stroke:none"
             d="m 6.84375,-3.265625 c 0.15625,0 0.34375,0 0.34375,-0.1875 C 7.1875,-3.65625 7,-3.65625 6.859375,-3.65625 h -5.96875 c -0.140625,0 -0.328125,0 -0.328125,0.203125 0,0.1875 0.1875,0.1875 0.328125,0.1875 z m 0.015625,1.9375 c 0.140625,0 0.328125,0 0.328125,-0.203125 0,-0.1875 -0.1875,-0.1875 -0.34375,-0.1875 H 0.890625 c -0.140625,0 -0.328125,0 -0.328125,0.1875 0,0.203125 0.1875,0.203125 0.328125,0.203125 z m 0,0"
             id="path13403" />
        </g>
      </g>
      <g
         style="fill:#211e1e;fill-opacity:1"
         id="g4106">
        <g
           id="use4104"
           transform="translate(245.39911,525.71997)">
          <path
             style="stroke:none"
             d="M 3.734375,17.640625 C 3.953125,17.640625 4,17.640625 4,17.5 4.03125,10.515625 4.828125,4.71875 8.328125,-0.15625 c 0.0625,-0.09375 0.0625,-0.109375 0.0625,-0.140625 0,-0.09375 -0.0625,-0.09375 -0.21875,-0.09375 -0.171875,0 -0.1875,0 -0.203125,0.015625 -0.046875,0.03125 -1.3125,1.484375 -2.3125,3.5 -1.3125,2.625 -2.140625,5.640625 -2.515625,9.28125 -0.03125,0.296875 -0.234375,2.375 -0.234375,4.734375 v 0.390625 c 0,0.109375 0.0625,0.109375 0.28125,0.109375 z m 0,0"
             id="path13407" />
        </g>
      </g>
      <g
         style="fill:#211e1e;fill-opacity:1"
         id="g4110">
        <g
           id="use4108"
           transform="translate(245.39911,543.23993)">
          <path
             style="stroke:none"
             d="M 4,0.171875 C 4,-0.09375 4,-0.09375 3.734375,-0.09375 H 3.1875 c -0.28125,0 -0.28125,0 -0.28125,0.265625 V 5.8125 c 0,0.265625 0,0.265625 0.28125,0.265625 H 3.734375 C 4,6.078125 4,6.078125 4,5.8125 Z m 0,0"
             id="path13411" />
        </g>
      </g>
      <g
         style="fill:#211e1e;fill-opacity:1"
         id="g4114">
        <g
           id="use4112"
           transform="translate(245.39911,549.23993)">
          <path
             style="stroke:none"
             d="M 4,0.171875 C 4,-0.09375 4,-0.09375 3.734375,-0.09375 H 3.1875 c -0.28125,0 -0.28125,0 -0.28125,0.265625 V 5.8125 c 0,0.265625 0,0.265625 0.28125,0.265625 H 3.734375 C 4,6.078125 4,6.078125 4,5.8125 Z m 0,0"
             id="path13415" />
        </g>
      </g>
      <g
         style="fill:#211e1e;fill-opacity:1"
         id="g4118">
        <g
           id="use4116"
           transform="translate(245.39911,555.60004)">
          <path
             style="stroke:none"
             d="m 3.1875,-0.5 c -0.21875,0 -0.28125,0 -0.28125,0.109375 V 0 c 0,6.09375 1.078125,9.65625 1.390625,10.671875 C 4.96875,12.875 6.078125,15.21875 7.75,17.265625 7.890625,17.453125 7.9375,17.5 7.96875,17.515625 8,17.53125 8,17.53125 8.171875,17.53125 c 0.15625,0 0.21875,0 0.21875,-0.09375 0,-0.01563 0,-0.04687 -0.0625,-0.125 C 5.015625,12.703125 4.015625,7.15625 4,-0.359375 4,-0.5 3.953125,-0.5 3.734375,-0.5 Z m 0,0"
             id="path13419" />
        </g>
      </g>
      <g
         style="fill:#211e1e;fill-opacity:1"
         id="g4122">
        <g
           id="use4120"
           transform="translate(255.59911,533.63983)">
          <path
             style="stroke:none"
             d="m 2.90625,-6.734375 -1.796875,0.90625 V -5.6875 C 1.21875,-5.734375 1.328125,-5.78125 1.375,-5.796875 1.5625,-5.875 1.71875,-5.90625 1.828125,-5.90625 2.03125,-5.90625 2.125,-5.765625 2.125,-5.4375 v 4.515625 c 0,0.328125 -0.078125,0.546875 -0.234375,0.640625 -0.15625,0.09375 -0.296875,0.125 -0.71875,0.125 V 0 h 2.75 v -0.15625 c -0.78125,0 -0.9375,-0.109375 -0.9375,-0.578125 V -6.71875 Z m 0,0"
             id="path13423" />
        </g>
      </g>
      <g
         style="fill:#211e1e;fill-opacity:1"
         id="g4126">
        <g
           id="use4124"
           transform="translate(263.51904,533.63983)">
          <path
             style="stroke:none"
             d="m 2.90625,-6.734375 -1.796875,0.90625 V -5.6875 C 1.21875,-5.734375 1.328125,-5.78125 1.375,-5.796875 1.5625,-5.875 1.71875,-5.90625 1.828125,-5.90625 2.03125,-5.90625 2.125,-5.765625 2.125,-5.4375 v 4.515625 c 0,0.328125 -0.078125,0.546875 -0.234375,0.640625 -0.15625,0.09375 -0.296875,0.125 -0.71875,0.125 V 0 h 2.75 v -0.15625 c -0.78125,0 -0.9375,-0.109375 -0.9375,-0.578125 V -6.71875 Z m 0,0"
             id="path13427" />
        </g>
      </g>
      <g
         style="fill:#211e1e;fill-opacity:1"
         id="g4130">
        <g
           id="use4128"
           transform="translate(271.55902,533.63983)">
          <path
             style="stroke:none"
             d="m 2.90625,-6.734375 -1.796875,0.90625 V -5.6875 C 1.21875,-5.734375 1.328125,-5.78125 1.375,-5.796875 1.5625,-5.875 1.71875,-5.90625 1.828125,-5.90625 2.03125,-5.90625 2.125,-5.765625 2.125,-5.4375 v 4.515625 c 0,0.328125 -0.078125,0.546875 -0.234375,0.640625 -0.15625,0.09375 -0.296875,0.125 -0.71875,0.125 V 0 h 2.75 v -0.15625 c -0.78125,0 -0.9375,-0.109375 -0.9375,-0.578125 V -6.71875 Z m 0,0"
             id="path13431" />
        </g>
      </g>
      <g
         style="fill:#211e1e;fill-opacity:1"
         id="g4134">
        <g
           id="use4132"
           transform="translate(279.47894,533.63983)">
          <path
             style="stroke:none"
             d="m 2.90625,-6.734375 -1.796875,0.90625 V -5.6875 C 1.21875,-5.734375 1.328125,-5.78125 1.375,-5.796875 1.5625,-5.875 1.71875,-5.90625 1.828125,-5.90625 2.03125,-5.90625 2.125,-5.765625 2.125,-5.4375 v 4.515625 c 0,0.328125 -0.078125,0.546875 -0.234375,0.640625 -0.15625,0.09375 -0.296875,0.125 -0.71875,0.125 V 0 h 2.75 v -0.15625 c -0.78125,0 -0.9375,-0.109375 -0.9375,-0.578125 V -6.71875 Z m 0,0"
             id="path13435" />
        </g>
      </g>
      <g
         style="fill:#211e1e;fill-opacity:1"
         id="g4138">
        <g
           id="use4136"
           transform="translate(255.59911,545.63983)">
          <path
             style="stroke:none"
             d="m 2.90625,-6.734375 -1.796875,0.90625 V -5.6875 C 1.21875,-5.734375 1.328125,-5.78125 1.375,-5.796875 1.5625,-5.875 1.71875,-5.90625 1.828125,-5.90625 2.03125,-5.90625 2.125,-5.765625 2.125,-5.4375 v 4.515625 c 0,0.328125 -0.078125,0.546875 -0.234375,0.640625 -0.15625,0.09375 -0.296875,0.125 -0.71875,0.125 V 0 h 2.75 v -0.15625 c -0.78125,0 -0.9375,-0.109375 -0.9375,-0.578125 V -6.71875 Z m 0,0"
             id="path13439" />
        </g>
      </g>
      <g
         style="fill:#211e1e;fill-opacity:1"
         id="g4142">
        <g
           id="use4140"
           transform="translate(263.51904,545.63983)">
          <path
             style="stroke:none"
             d="m 2.90625,-6.734375 -1.796875,0.90625 V -5.6875 C 1.21875,-5.734375 1.328125,-5.78125 1.375,-5.796875 1.5625,-5.875 1.71875,-5.90625 1.828125,-5.90625 2.03125,-5.90625 2.125,-5.765625 2.125,-5.4375 v 4.515625 c 0,0.328125 -0.078125,0.546875 -0.234375,0.640625 -0.15625,0.09375 -0.296875,0.125 -0.71875,0.125 V 0 h 2.75 v -0.15625 c -0.78125,0 -0.9375,-0.109375 -0.9375,-0.578125 V -6.71875 Z m 0,0"
             id="path13443" />
        </g>
      </g>
      <g
         style="fill:#211e1e;fill-opacity:1"
         id="g4146">
        <g
           id="use4144"
           transform="translate(271.55902,545.63983)">
          <path
             style="stroke:none"
             d="m 2.90625,-6.734375 -1.796875,0.90625 V -5.6875 C 1.21875,-5.734375 1.328125,-5.78125 1.375,-5.796875 1.5625,-5.875 1.71875,-5.90625 1.828125,-5.90625 2.03125,-5.90625 2.125,-5.765625 2.125,-5.4375 v 4.515625 c 0,0.328125 -0.078125,0.546875 -0.234375,0.640625 -0.15625,0.09375 -0.296875,0.125 -0.71875,0.125 V 0 h 2.75 v -0.15625 c -0.78125,0 -0.9375,-0.109375 -0.9375,-0.578125 V -6.71875 Z m 0,0"
             id="path13447" />
        </g>
      </g>
      <g
         style="fill:#211e1e;fill-opacity:1"
         id="g4150">
        <g
           id="use4148"
           transform="translate(279.47894,545.63983)">
          <path
             style="stroke:none"
             d="m 2.90625,-6.734375 -1.796875,0.90625 V -5.6875 C 1.21875,-5.734375 1.328125,-5.78125 1.375,-5.796875 1.5625,-5.875 1.71875,-5.90625 1.828125,-5.90625 2.03125,-5.90625 2.125,-5.765625 2.125,-5.4375 v 4.515625 c 0,0.328125 -0.078125,0.546875 -0.234375,0.640625 -0.15625,0.09375 -0.296875,0.125 -0.71875,0.125 V 0 h 2.75 v -0.15625 c -0.78125,0 -0.9375,-0.109375 -0.9375,-0.578125 V -6.71875 Z m 0,0"
             id="path13451" />
        </g>
      </g>
      <g
         style="fill:#211e1e;fill-opacity:1"
         id="g4154">
        <g
           id="use4152"
           transform="translate(255.59911,557.63983)">
          <path
             style="stroke:none"
             d="m 2.90625,-6.734375 -1.796875,0.90625 V -5.6875 C 1.21875,-5.734375 1.328125,-5.78125 1.375,-5.796875 1.5625,-5.875 1.71875,-5.90625 1.828125,-5.90625 2.03125,-5.90625 2.125,-5.765625 2.125,-5.4375 v 4.515625 c 0,0.328125 -0.078125,0.546875 -0.234375,0.640625 -0.15625,0.09375 -0.296875,0.125 -0.71875,0.125 V 0 h 2.75 v -0.15625 c -0.78125,0 -0.9375,-0.109375 -0.9375,-0.578125 V -6.71875 Z m 0,0"
             id="path13455" />
        </g>
      </g>
      <g
         style="fill:#211e1e;fill-opacity:1"
         id="g4158">
        <g
           id="use4156"
           transform="translate(263.51904,557.63983)">
          <path
             style="stroke:none"
             d="m 2.90625,-6.734375 -1.796875,0.90625 V -5.6875 C 1.21875,-5.734375 1.328125,-5.78125 1.375,-5.796875 1.5625,-5.875 1.71875,-5.90625 1.828125,-5.90625 2.03125,-5.90625 2.125,-5.765625 2.125,-5.4375 v 4.515625 c 0,0.328125 -0.078125,0.546875 -0.234375,0.640625 -0.15625,0.09375 -0.296875,0.125 -0.71875,0.125 V 0 h 2.75 v -0.15625 c -0.78125,0 -0.9375,-0.109375 -0.9375,-0.578125 V -6.71875 Z m 0,0"
             id="path13459" />
        </g>
      </g>
      <g
         style="fill:#211e1e;fill-opacity:1"
         id="g4162">
        <g
           id="use4160"
           transform="translate(271.55902,557.63983)">
          <path
             style="stroke:none"
             d="m 2.90625,-6.734375 -1.796875,0.90625 V -5.6875 C 1.21875,-5.734375 1.328125,-5.78125 1.375,-5.796875 1.5625,-5.875 1.71875,-5.90625 1.828125,-5.90625 2.03125,-5.90625 2.125,-5.765625 2.125,-5.4375 v 4.515625 c 0,0.328125 -0.078125,0.546875 -0.234375,0.640625 -0.15625,0.09375 -0.296875,0.125 -0.71875,0.125 V 0 h 2.75 v -0.15625 c -0.78125,0 -0.9375,-0.109375 -0.9375,-0.578125 V -6.71875 Z m 0,0"
             id="path13463" />
        </g>
      </g>
      <g
         style="fill:#211e1e;fill-opacity:1"
         id="g4166">
        <g
           id="use4164"
           transform="translate(279.47894,557.63983)">
          <path
             style="stroke:none"
             d="m 2.90625,-6.734375 -1.796875,0.90625 V -5.6875 C 1.21875,-5.734375 1.328125,-5.78125 1.375,-5.796875 1.5625,-5.875 1.71875,-5.90625 1.828125,-5.90625 2.03125,-5.90625 2.125,-5.765625 2.125,-5.4375 v 4.515625 c 0,0.328125 -0.078125,0.546875 -0.234375,0.640625 -0.15625,0.09375 -0.296875,0.125 -0.71875,0.125 V 0 h 2.75 v -0.15625 c -0.78125,0 -0.9375,-0.109375 -0.9375,-0.578125 V -6.71875 Z m 0,0"
             id="path13467" />
        </g>
      </g>
      <g
         style="fill:#211e1e;fill-opacity:1"
         id="g4170">
        <g
           id="use4168"
           transform="translate(255.59911,569.51996)">
          <path
             style="stroke:none"
             d="m 2.90625,-6.734375 -1.796875,0.90625 V -5.6875 C 1.21875,-5.734375 1.328125,-5.78125 1.375,-5.796875 1.5625,-5.875 1.71875,-5.90625 1.828125,-5.90625 2.03125,-5.90625 2.125,-5.765625 2.125,-5.4375 v 4.515625 c 0,0.328125 -0.078125,0.546875 -0.234375,0.640625 -0.15625,0.09375 -0.296875,0.125 -0.71875,0.125 V 0 h 2.75 v -0.15625 c -0.78125,0 -0.9375,-0.109375 -0.9375,-0.578125 V -6.71875 Z m 0,0"
             id="path13471" />
        </g>
      </g>
      <g
         style="fill:#211e1e;fill-opacity:1"
         id="g4174">
        <g
           id="use4172"
           transform="translate(263.51904,569.51996)">
          <path
             style="stroke:none"
             d="m 2.90625,-6.734375 -1.796875,0.90625 V -5.6875 C 1.21875,-5.734375 1.328125,-5.78125 1.375,-5.796875 1.5625,-5.875 1.71875,-5.90625 1.828125,-5.90625 2.03125,-5.90625 2.125,-5.765625 2.125,-5.4375 v 4.515625 c 0,0.328125 -0.078125,0.546875 -0.234375,0.640625 -0.15625,0.09375 -0.296875,0.125 -0.71875,0.125 V 0 h 2.75 v -0.15625 c -0.78125,0 -0.9375,-0.109375 -0.9375,-0.578125 V -6.71875 Z m 0,0"
             id="path13475" />
        </g>
      </g>
      <g
         style="fill:#211e1e;fill-opacity:1"
         id="g4178">
        <g
           id="use4176"
           transform="translate(271.55902,569.51996)">
          <path
             style="stroke:none"
             d="m 2.90625,-6.734375 -1.796875,0.90625 V -5.6875 C 1.21875,-5.734375 1.328125,-5.78125 1.375,-5.796875 1.5625,-5.875 1.71875,-5.90625 1.828125,-5.90625 2.03125,-5.90625 2.125,-5.765625 2.125,-5.4375 v 4.515625 c 0,0.328125 -0.078125,0.546875 -0.234375,0.640625 -0.15625,0.09375 -0.296875,0.125 -0.71875,0.125 V 0 h 2.75 v -0.15625 c -0.78125,0 -0.9375,-0.109375 -0.9375,-0.578125 V -6.71875 Z m 0,0"
             id="path13479" />
        </g>
      </g>
      <g
         style="fill:#211e1e;fill-opacity:1"
         id="g4182">
        <g
           id="use4180"
           transform="translate(279.47894,569.51996)">
          <path
             style="stroke:none"
             d="m 2.90625,-6.734375 -1.796875,0.90625 V -5.6875 C 1.21875,-5.734375 1.328125,-5.78125 1.375,-5.796875 1.5625,-5.875 1.71875,-5.90625 1.828125,-5.90625 2.03125,-5.90625 2.125,-5.765625 2.125,-5.4375 v 4.515625 c 0,0.328125 -0.078125,0.546875 -0.234375,0.640625 -0.15625,0.09375 -0.296875,0.125 -0.71875,0.125 V 0 h 2.75 v -0.15625 c -0.78125,0 -0.9375,-0.109375 -0.9375,-0.578125 V -6.71875 Z m 0,0"
             id="path13483" />
        </g>
      </g>
      <g
         style="fill:#211e1e;fill-opacity:1"
         id="g4186">
        <g
           id="use4184"
           transform="translate(285.95932,525.71997)">
          <path
             style="stroke:none"
             d="M 5.8125,17.140625 C 5.8125,11.0625 4.71875,7.484375 4.421875,6.484375 3.734375,4.265625 2.625,1.9375 0.96875,-0.125 0.8125,-0.296875 0.78125,-0.34375 0.734375,-0.375 c -0.015625,0 -0.03125,-0.015625 -0.1875,-0.015625 -0.140625,0 -0.234375,0 -0.234375,0.09375 0,0.03125 0,0.046875 0.140625,0.234375 3.46875,4.84375 4.234375,10.8125 4.25,17.5625 0,0.140625 0.0625,0.140625 0.28125,0.140625 H 5.53125 c 0.203125,0 0.265625,0 0.28125,-0.109375 z m 0,0"
             id="path13487" />
        </g>
      </g>
      <g
         style="fill:#211e1e;fill-opacity:1"
         id="g4190">
        <g
           id="use4188"
           transform="translate(285.95932,543.23987)">
          <path
             style="stroke:none"
             d="M 5.8125,0.171875 C 5.8125,-0.09375 5.796875,-0.09375 5.53125,-0.09375 H 4.984375 c -0.265625,0 -0.28125,0 -0.28125,0.265625 V 5.8125 c 0,0.265625 0.015625,0.265625 0.28125,0.265625 H 5.53125 c 0.265625,0 0.28125,0 0.28125,-0.265625 z m 0,0"
             id="path13491" />
        </g>
      </g>
      <g
         style="fill:#211e1e;fill-opacity:1"
         id="g4194">
        <g
           id="use4192"
           transform="translate(285.95932,549.23987)">
          <path
             style="stroke:none"
             d="M 5.8125,0.171875 C 5.8125,-0.09375 5.796875,-0.09375 5.53125,-0.09375 H 4.984375 c -0.265625,0 -0.28125,0 -0.28125,0.265625 V 5.8125 c 0,0.265625 0.015625,0.265625 0.28125,0.265625 H 5.53125 c 0.265625,0 0.28125,0 0.28125,-0.265625 z m 0,0"
             id="path13495" />
        </g>
      </g>
      <g
         style="fill:#211e1e;fill-opacity:1"
         id="g4198">
        <g
           id="use4196"
           transform="translate(285.95932,555.60004)">
          <path
             style="stroke:none"
             d="M 5.8125,-0.390625 C 5.796875,-0.5 5.734375,-0.5 5.53125,-0.5 H 4.984375 c -0.21875,0 -0.28125,0 -0.28125,0.140625 0,1.03125 -0.015625,3.40625 -0.265625,5.875 C 3.890625,10.671875 2.578125,14.25 0.390625,17.3125 0.3125,17.390625 0.3125,17.421875 0.3125,17.4375 c 0,0.09375 0.09375,0.09375 0.234375,0.09375 0.15625,0 0.1875,0 0.203125,-0.01563 C 0.78125,17.48438 2.046875,16.03125 3.0625,14.03125 4.375,11.390625 5.203125,8.375 5.578125,4.75 5.609375,4.4375 5.8125,2.359375 5.8125,0 Z m 0,0"
             id="path13499" />
        </g>
      </g>
      <g
         style="fill:#211e1e;fill-opacity:1"
         id="g4202">
        <g
           id="use4200"
           transform="translate(296.87921,551.75977)">
          <path
             style="stroke:none"
             d="m 6.84375,-3.265625 c 0.15625,0 0.34375,0 0.34375,-0.1875 C 7.1875,-3.65625 7,-3.65625 6.859375,-3.65625 h -5.96875 c -0.140625,0 -0.328125,0 -0.328125,0.203125 0,0.1875 0.1875,0.1875 0.328125,0.1875 z m 0.015625,1.9375 c 0.140625,0 0.328125,0 0.328125,-0.203125 0,-0.1875 -0.1875,-0.1875 -0.34375,-0.1875 H 0.890625 c -0.140625,0 -0.328125,0 -0.328125,0.1875 0,0.203125 0.1875,0.203125 0.328125,0.203125 z m 0,0"
             id="path13503" />
        </g>
      </g>
      <g
         style="fill:#211e1e;fill-opacity:1"
         id="g4206">
        <g
           id="use4204"
           transform="translate(306.83899,525.71997)">
          <path
             style="stroke:none"
             d="M 3.734375,17.640625 C 3.953125,17.640625 4,17.640625 4,17.5 4.03125,10.515625 4.828125,4.71875 8.328125,-0.15625 c 0.0625,-0.09375 0.0625,-0.109375 0.0625,-0.140625 0,-0.09375 -0.0625,-0.09375 -0.21875,-0.09375 -0.171875,0 -0.1875,0 -0.203125,0.015625 -0.046875,0.03125 -1.3125,1.484375 -2.3125,3.5 -1.3125,2.625 -2.140625,5.640625 -2.515625,9.28125 -0.03125,0.296875 -0.234375,2.375 -0.234375,4.734375 v 0.390625 c 0,0.109375 0.0625,0.109375 0.28125,0.109375 z m 0,0"
             id="path13507" />
        </g>
      </g>
      <g
         style="fill:#211e1e;fill-opacity:1"
         id="g4210">
        <g
           id="use4208"
           transform="translate(306.83899,543.23987)">
          <path
             style="stroke:none"
             d="M 4,0.171875 C 4,-0.09375 4,-0.09375 3.734375,-0.09375 H 3.1875 c -0.28125,0 -0.28125,0 -0.28125,0.265625 V 5.8125 c 0,0.265625 0,0.265625 0.28125,0.265625 H 3.734375 C 4,6.078125 4,6.078125 4,5.8125 Z m 0,0"
             id="path13511" />
        </g>
      </g>
      <g
         style="fill:#211e1e;fill-opacity:1"
         id="g4214">
        <g
           id="use4212"
           transform="translate(306.83899,549.23987)">
          <path
             style="stroke:none"
             d="M 4,0.171875 C 4,-0.09375 4,-0.09375 3.734375,-0.09375 H 3.1875 c -0.28125,0 -0.28125,0 -0.28125,0.265625 V 5.8125 c 0,0.265625 0,0.265625 0.28125,0.265625 H 3.734375 C 4,6.078125 4,6.078125 4,5.8125 Z m 0,0"
             id="path13515" />
        </g>
      </g>
      <g
         style="fill:#211e1e;fill-opacity:1"
         id="g4218">
        <g
           id="use4216"
           transform="translate(306.83899,555.60004)">
          <path
             style="stroke:none"
             d="m 3.1875,-0.5 c -0.21875,0 -0.28125,0 -0.28125,0.109375 V 0 c 0,6.09375 1.078125,9.65625 1.390625,10.671875 C 4.96875,12.875 6.078125,15.21875 7.75,17.265625 7.890625,17.453125 7.9375,17.5 7.96875,17.515625 8,17.53125 8,17.53125 8.171875,17.53125 c 0.15625,0 0.21875,0 0.21875,-0.09375 0,-0.01563 0,-0.04687 -0.0625,-0.125 C 5.015625,12.703125 4.015625,7.15625 4,-0.359375 4,-0.5 3.953125,-0.5 3.734375,-0.5 Z m 0,0"
             id="path13519" />
        </g>
      </g>
      <g
         style="fill:#211e1e;fill-opacity:1"
         id="g4222">
        <g
           id="use4220"
           transform="translate(317.03897,533.63983)">
          <path
             style="stroke:none"
             d="m 2.90625,-6.734375 -1.796875,0.90625 V -5.6875 C 1.21875,-5.734375 1.328125,-5.78125 1.375,-5.796875 1.5625,-5.875 1.71875,-5.90625 1.828125,-5.90625 2.03125,-5.90625 2.125,-5.765625 2.125,-5.4375 v 4.515625 c 0,0.328125 -0.078125,0.546875 -0.234375,0.640625 -0.15625,0.09375 -0.296875,0.125 -0.71875,0.125 V 0 h 2.75 v -0.15625 c -0.78125,0 -0.9375,-0.109375 -0.9375,-0.578125 V -6.71875 Z m 0,0"
             id="path13523" />
        </g>
      </g>
      <g
         style="fill:#211e1e;fill-opacity:1"
         id="g4226">
        <g
           id="use4224"
           transform="translate(317.03897,545.63983)">
          <path
             style="stroke:none"
             d="m 2.90625,-6.734375 -1.796875,0.90625 V -5.6875 C 1.21875,-5.734375 1.328125,-5.78125 1.375,-5.796875 1.5625,-5.875 1.71875,-5.90625 1.828125,-5.90625 2.03125,-5.90625 2.125,-5.765625 2.125,-5.4375 v 4.515625 c 0,0.328125 -0.078125,0.546875 -0.234375,0.640625 -0.15625,0.09375 -0.296875,0.125 -0.71875,0.125 V 0 h 2.75 v -0.15625 c -0.78125,0 -0.9375,-0.109375 -0.9375,-0.578125 V -6.71875 Z m 0,0"
             id="path13527" />
        </g>
      </g>
      <g
         style="fill:#211e1e;fill-opacity:1"
         id="g4230">
        <g
           id="use4228"
           transform="translate(317.03897,557.63983)">
          <path
             style="stroke:none"
             d="m 2.90625,-6.734375 -1.796875,0.90625 V -5.6875 C 1.21875,-5.734375 1.328125,-5.78125 1.375,-5.796875 1.5625,-5.875 1.71875,-5.90625 1.828125,-5.90625 2.03125,-5.90625 2.125,-5.765625 2.125,-5.4375 v 4.515625 c 0,0.328125 -0.078125,0.546875 -0.234375,0.640625 -0.15625,0.09375 -0.296875,0.125 -0.71875,0.125 V 0 h 2.75 v -0.15625 c -0.78125,0 -0.9375,-0.109375 -0.9375,-0.578125 V -6.71875 Z m 0,0"
             id="path13531" />
        </g>
      </g>
      <g
         style="fill:#211e1e;fill-opacity:1"
         id="g4234">
        <g
           id="use4232"
           transform="translate(317.03897,569.51996)">
          <path
             style="stroke:none"
             d="m 2.90625,-6.734375 -1.796875,0.90625 V -5.6875 C 1.21875,-5.734375 1.328125,-5.78125 1.375,-5.796875 1.5625,-5.875 1.71875,-5.90625 1.828125,-5.90625 2.03125,-5.90625 2.125,-5.765625 2.125,-5.4375 v 4.515625 c 0,0.328125 -0.078125,0.546875 -0.234375,0.640625 -0.15625,0.09375 -0.296875,0.125 -0.71875,0.125 V 0 h 2.75 v -0.15625 c -0.78125,0 -0.9375,-0.109375 -0.9375,-0.578125 V -6.71875 Z m 0,0"
             id="path13535" />
        </g>
      </g>
      <g
         style="fill:#211e1e;fill-opacity:1"
         id="g4238">
        <g
           id="use4236"
           transform="translate(323.51907,525.71997)">
          <path
             style="stroke:none"
             d="M 5.8125,17.140625 C 5.8125,11.0625 4.71875,7.484375 4.421875,6.484375 3.734375,4.265625 2.625,1.9375 0.96875,-0.125 0.8125,-0.296875 0.78125,-0.34375 0.734375,-0.375 c -0.015625,0 -0.03125,-0.015625 -0.1875,-0.015625 -0.140625,0 -0.234375,0 -0.234375,0.09375 0,0.03125 0,0.046875 0.140625,0.234375 3.46875,4.84375 4.234375,10.8125 4.25,17.5625 0,0.140625 0.0625,0.140625 0.28125,0.140625 H 5.53125 c 0.203125,0 0.265625,0 0.28125,-0.109375 z m 0,0"
             id="path13539" />
        </g>
      </g>
      <g
         style="fill:#211e1e;fill-opacity:1"
         id="g4242">
        <g
           id="use4240"
           transform="translate(323.51907,543.23987)">
          <path
             style="stroke:none"
             d="M 5.8125,0.171875 C 5.8125,-0.09375 5.796875,-0.09375 5.53125,-0.09375 H 4.984375 c -0.265625,0 -0.28125,0 -0.28125,0.265625 V 5.8125 c 0,0.265625 0.015625,0.265625 0.28125,0.265625 H 5.53125 c 0.265625,0 0.28125,0 0.28125,-0.265625 z m 0,0"
             id="path13543" />
        </g>
      </g>
      <g
         style="fill:#211e1e;fill-opacity:1"
         id="g4246">
        <g
           id="use4244"
           transform="translate(323.51907,549.23987)">
          <path
             style="stroke:none"
             d="M 5.8125,0.171875 C 5.8125,-0.09375 5.796875,-0.09375 5.53125,-0.09375 H 4.984375 c -0.265625,0 -0.28125,0 -0.28125,0.265625 V 5.8125 c 0,0.265625 0.015625,0.265625 0.28125,0.265625 H 5.53125 c 0.265625,0 0.28125,0 0.28125,-0.265625 z m 0,0"
             id="path13547" />
        </g>
      </g>
      <g
         style="fill:#211e1e;fill-opacity:1"
         id="g4250">
        <g
           id="use4248"
           transform="translate(323.51907,555.60004)">
          <path
             style="stroke:none"
             d="M 5.8125,-0.390625 C 5.796875,-0.5 5.734375,-0.5 5.53125,-0.5 H 4.984375 c -0.21875,0 -0.28125,0 -0.28125,0.140625 0,1.03125 -0.015625,3.40625 -0.265625,5.875 C 3.890625,10.671875 2.578125,14.25 0.390625,17.3125 0.3125,17.390625 0.3125,17.421875 0.3125,17.4375 c 0,0.09375 0.09375,0.09375 0.234375,0.09375 0.15625,0 0.1875,0 0.203125,-0.01563 C 0.78125,17.48438 2.046875,16.03125 3.0625,14.03125 4.375,11.390625 5.203125,8.375 5.578125,4.75 5.609375,4.4375 5.8125,2.359375 5.8125,0 Z m 0,0"
             id="path13551" />
        </g>
      </g>
      <g
         style="fill:#211e1e;fill-opacity:1"
         id="g4254">
        <g
           id="use4252"
           transform="translate(333.35928,543.60004)">
          <path
             style="stroke:none"
             d="m 4.109375,11.453125 c 0,-0.03125 -0.015625,-0.0625 -0.03125,-0.09375 C 3.625,10.875 2.9375,10.0625 2.515625,8.4375 2.296875,7.53125 2.203125,6.515625 2.203125,5.578125 c 0,-2.625 0.625,-4.453125 1.828125,-5.75 0.078125,-0.09375 0.078125,-0.109375 0.078125,-0.125 C 4.109375,-0.40625 4.03125,-0.40625 4,-0.40625 c -0.15625,0 -0.6875,0.609375 -0.8125,0.75 -1.03125,1.21875 -1.671875,3 -1.671875,5.234375 0,1.40625 0.25,3.40625 1.5625,5.09375 0.09375,0.125 0.734375,0.875 0.921875,0.875 0.03125,0 0.109375,0 0.109375,-0.09375 z m 0,0"
             id="path13555" />
        </g>
      </g>
      <g
         style="fill:#211e1e;fill-opacity:1"
         id="g4258">
        <g
           id="use4256"
           transform="translate(339.47922,551.63983)">
          <path
             style="stroke:none"
             d="m 2.90625,-6.734375 -1.796875,0.90625 V -5.6875 C 1.21875,-5.734375 1.328125,-5.78125 1.375,-5.796875 1.5625,-5.875 1.71875,-5.90625 1.828125,-5.90625 2.03125,-5.90625 2.125,-5.765625 2.125,-5.4375 v 4.515625 c 0,0.328125 -0.078125,0.546875 -0.234375,0.640625 -0.15625,0.09375 -0.296875,0.125 -0.71875,0.125 V 0 h 2.75 v -0.15625 c -0.78125,0 -0.9375,-0.109375 -0.9375,-0.578125 V -6.71875 Z m 0,0"
             id="path13559" />
        </g>
      </g>
      <g
         style="fill:#211e1e;fill-opacity:1"
         id="g4262">
        <g
           id="use4260"
           transform="translate(347.39914,551.63983)">
          <path
             style="stroke:none"
             d="m 2.90625,-6.734375 -1.796875,0.90625 V -5.6875 C 1.21875,-5.734375 1.328125,-5.78125 1.375,-5.796875 1.5625,-5.875 1.71875,-5.90625 1.828125,-5.90625 2.03125,-5.90625 2.125,-5.765625 2.125,-5.4375 v 4.515625 c 0,0.328125 -0.078125,0.546875 -0.234375,0.640625 -0.15625,0.09375 -0.296875,0.125 -0.71875,0.125 V 0 h 2.75 v -0.15625 c -0.78125,0 -0.9375,-0.109375 -0.9375,-0.578125 V -6.71875 Z m 0,0"
             id="path13563" />
        </g>
      </g>
      <g
         style="fill:#211e1e;fill-opacity:1"
         id="g4266">
        <g
           id="use4264"
           transform="translate(355.31906,551.63983)">
          <path
             style="stroke:none"
             d="m 2.90625,-6.734375 -1.796875,0.90625 V -5.6875 C 1.21875,-5.734375 1.328125,-5.78125 1.375,-5.796875 1.5625,-5.875 1.71875,-5.90625 1.828125,-5.90625 2.03125,-5.90625 2.125,-5.765625 2.125,-5.4375 v 4.515625 c 0,0.328125 -0.078125,0.546875 -0.234375,0.640625 -0.15625,0.09375 -0.296875,0.125 -0.71875,0.125 V 0 h 2.75 v -0.15625 c -0.78125,0 -0.9375,-0.109375 -0.9375,-0.578125 V -6.71875 Z m 0,0"
             id="path13567" />
        </g>
      </g>
      <g
         style="fill:#211e1e;fill-opacity:1"
         id="g4270">
        <g
           id="use4268"
           transform="translate(363.35904,551.63983)">
          <path
             style="stroke:none"
             d="m 2.90625,-6.734375 -1.796875,0.90625 V -5.6875 C 1.21875,-5.734375 1.328125,-5.78125 1.375,-5.796875 1.5625,-5.875 1.71875,-5.90625 1.828125,-5.90625 2.03125,-5.90625 2.125,-5.765625 2.125,-5.4375 v 4.515625 c 0,0.328125 -0.078125,0.546875 -0.234375,0.640625 -0.15625,0.09375 -0.296875,0.125 -0.71875,0.125 V 0 h 2.75 v -0.15625 c -0.78125,0 -0.9375,-0.109375 -0.9375,-0.578125 V -6.71875 Z m 0,0"
             id="path13571" />
        </g>
      </g>
      <g
         style="fill:#211e1e;fill-opacity:1"
         id="g4274">
        <g
           id="use4272"
           transform="translate(369.83902,543.60004)">
          <path
             style="stroke:none"
             d="m 3.046875,5.578125 c 0,-1.40625 -0.25,-3.421875 -1.5625,-5.09375 -0.09375,-0.125 -0.75,-0.890625 -0.921875,-0.890625 -0.046875,0 -0.125,0.03125 -0.125,0.109375 0,0.03125 0.015625,0.0625 0.0625,0.09375 C 0.984375,0.3125 1.625,1.125 2.03125,2.71875 2.265625,3.625 2.359375,4.640625 2.359375,5.578125 c 0,1 -0.09375,2.015625 -0.359375,3 -0.375,1.390625 -0.96875,2.1875 -1.46875,2.75 -0.09375,0.09375 -0.09375,0.109375 -0.09375,0.125 0,0.07813 0.078125,0.09375 0.125,0.09375 0.140625,0 0.6875,-0.59375 0.8125,-0.734375 1.015625,-1.21875 1.671875,-3 1.671875,-5.234375 z m 0,0"
             id="path13575" />
        </g>
      </g>
    </g>
  </g>
</svg>
