<?xml version="1.0" encoding="UTF-8" standalone="no"?>
<svg
   width="62.823383mm"
   height="10.329774mm"
   viewBox="0 0 62.823383 10.329774"
   version="1.1"
   id="svg14024"
   xmlns="http://www.w3.org/2000/svg"
   xmlns:svg="http://www.w3.org/2000/svg">
  <defs
     id="defs14021" />
  <g
     id="layer1"
     transform="translate(-78.723549,-189.25753)">
    <g
       id="g13952"
       transform="matrix(0.35277777,0,0,0.35277777,4.0945163,88.96529)">
      <path
         style="fill:#211e1e;fill-opacity:1;fill-rule:nonzero;stroke:none"
         d="m 211.54687,284.29297 h 73.44141 v 0.48047 h -73.44141 z m 0,0"
         id="path3143" />
      <path
         style="fill:#211e1e;fill-opacity:1;fill-rule:nonzero;stroke:none"
         d="m 211.54687,284.77344 h 0.48047 v 28.4414 h -0.48047 z m 0,0"
         id="path3145" />
      <g
         style="fill:#211e1e;fill-opacity:1"
         id="g3149">
        <g
           id="use3147"
           transform="translate(244.32001,302.51999)">
          <path
             style="stroke:none"
             d="M 6.859375,-6.515625 H 5 v 0.171875 c 0.453125,0.046875 0.625,0.140625 0.625,0.328125 0,0.1875 -0.1875,0.625 -0.515625,1.1875 L 3.0625,-1.28125 2.40625,-5.6875 C 2.390625,-5.734375 2.390625,-5.78125 2.390625,-5.84375 c 0,-0.34375 0.140625,-0.4375 0.765625,-0.5 V -6.515625 H 0.75 V -6.34375 C 1.3125,-6.28125 1.328125,-6.25 1.546875,-5 l 0.84375,5.171875 h 0.1875 l 3.71875,-6.125 C 6.46875,-6.21875 6.625,-6.34375 6.859375,-6.34375 Z m 0,0"
             id="path13954" />
        </g>
      </g>
      <path
         style="fill:#211e1e;fill-opacity:1;fill-rule:nonzero;stroke:none"
         d="m 284.62891,284.77344 h 0.48046 v 28.4414 h -0.48046 z m 0,0"
         id="path3151" />
      <path
         style="fill:#211e1e;fill-opacity:1;fill-rule:nonzero;stroke:none"
         d="m 211.54687,313.09375 h 73.44141 v 0.48047 h -73.44141 z m 0,0"
         id="path3153" />
      <g
         style="fill:#211e1e;fill-opacity:1"
         id="g3157">
        <g
           id="use3155"
           transform="translate(287.16,302.51999)">
          <path
             style="stroke:none"
             d="m 7.203125,-4.5 c 0,-0.21875 -0.078125,-0.3125 -0.140625,-0.3125 -0.046875,0 -0.140625,0.046875 -0.140625,0.28125 C 6.875,-3.84375 6.1875,-3.4375 5.53125,-3.4375 4.953125,-3.4375 4.453125,-3.75 3.9375,-4.09375 3.40625,-4.453125 2.859375,-4.8125 2.21875,-4.8125 c -0.9375,0 -1.671875,0.703125 -1.671875,1.625 0,0.21875 0.078125,0.296875 0.140625,0.296875 0.09375,0 0.140625,-0.1875 0.140625,-0.234375 C 0.875,-3.953125 1.6875,-4.25 2.21875,-4.25 c 0.578125,0 1.078125,0.296875 1.59375,0.65625 0.53125,0.359375 1.078125,0.71875 1.71875,0.71875 0.921875,0 1.671875,-0.71875 1.671875,-1.625 z m 0,2.328125 c 0,-0.296875 -0.125,-0.3125 -0.140625,-0.3125 -0.046875,0 -0.140625,0.046875 -0.140625,0.265625 C 6.875,-1.53125 6.1875,-1.109375 5.53125,-1.109375 c -0.578125,0 -1.078125,-0.3125 -1.59375,-0.671875 C 3.40625,-2.140625 2.859375,-2.5 2.21875,-2.5 c -0.9375,0 -1.671875,0.71875 -1.671875,1.625 0,0.234375 0.078125,0.3125 0.140625,0.3125 0.09375,0 0.140625,-0.1875 0.140625,-0.234375 C 0.875,-1.640625 1.6875,-1.9375 2.21875,-1.9375 c 0.578125,0 1.078125,0.3125 1.59375,0.65625 0.53125,0.359375 1.078125,0.71875 1.71875,0.71875 0.953125,0 1.671875,-0.734375 1.671875,-1.609375 z m 0,0"
             id="path13958" />
        </g>
      </g>
      <path
         style="fill:#211e1e;fill-opacity:1;fill-rule:nonzero;stroke:none"
         d="m 297.10937,284.29297 h 15.83985 v 0.48047 h -15.83985 z m 0,0"
         id="path3159" />
      <path
         style="fill:#211e1e;fill-opacity:1;fill-rule:nonzero;stroke:none"
         d="m 297.10937,284.77344 h 0.48047 v 28.4414 h -0.48047 z m 0,0"
         id="path3161" />
      <g
         style="fill:#211e1e;fill-opacity:1"
         id="g3165">
        <g
           id="use3163"
           transform="translate(300,302.51999)">
          <path
             style="stroke:none"
             d="M 9.03125,-6.515625 H 7.1875 v 0.171875 c 0.53125,0.046875 0.640625,0.109375 0.640625,0.390625 0,0.15625 -0.078125,0.40625 -0.203125,0.671875 L 5.765625,-1.609375 5.359375,-5.625 v -0.140625 c 0,-0.40625 0.140625,-0.53125 0.671875,-0.578125 v -0.171875 h -2.375 v 0.171875 c 0.578125,0.015625 0.6875,0.078125 0.75,0.578125 L 4.5,-5.078125 2.78125,-1.609375 2.34375,-5.65625 c -0.015625,-0.0625 -0.015625,-0.125 -0.015625,-0.140625 0,-0.390625 0.125,-0.484375 0.734375,-0.546875 V -6.515625 H 0.703125 V -6.34375 C 1.03125,-6.3125 1.125,-6.28125 1.21875,-6.1875 1.328125,-6.078125 1.375,-5.890625 1.5,-4.96875 l 0.609375,5.140625 h 0.1875 L 4.515625,-4.34375 H 4.5625 l 0.5,4.515625 H 5.265625 L 8.28125,-5.625 c 0.265625,-0.515625 0.375,-0.609375 0.75,-0.71875 z m 0,0"
             id="path13962" />
        </g>
      </g>
      <path
         style="fill:#211e1e;fill-opacity:1;fill-rule:nonzero;stroke:none"
         d="m 312.58984,284.77344 h 0.48047 v 28.4414 h -0.48047 z m 0,0"
         id="path3167" />
      <path
         style="fill:#211e1e;fill-opacity:1;fill-rule:nonzero;stroke:none"
         d="m 297.10937,313.09375 h 15.83985 v 0.48047 h -15.83985 z m 0,0"
         id="path3169" />
      <path
         style="fill:#211e1e;fill-opacity:1;fill-rule:nonzero;stroke:none"
         d="m 315.10937,298.69141 h 74.51954 v 0.48046 h -74.51954 z m 0,0"
         id="path3171" />
      <path
         style="fill:#211e1e;fill-opacity:1;fill-rule:nonzero;stroke:none"
         d="m 315.10937,299.05078 h 0.48047 v 14.16016 h -0.48047 z m 0,0"
         id="path3173" />
      <g
         style="fill:#211e1e;fill-opacity:1"
         id="g3177">
        <g
           id="use3175"
           transform="translate(348.48001,309.48001)">
          <path
             style="stroke:none"
             d="M 7.640625,-6.515625 H 5.1875 v 0.171875 c 0.578125,0.0625 0.6875,0.140625 0.6875,0.421875 0,0.140625 -0.03125,0.375 -0.109375,0.625 l -0.453125,1.625 H 2.46875 l 0.546875,-1.9375 c 0.140625,-0.515625 0.40625,-0.703125 1,-0.734375 v -0.171875 h -2.71875 v 0.171875 c 0.609375,0.046875 0.765625,0.140625 0.765625,0.421875 0,0.140625 -0.03125,0.375 -0.109375,0.625 l -1.21875,4.40625 c -0.1875,0.578125 -0.25,0.625 -0.8125,0.734375 V 0 H 2.375 V -0.15625 C 1.78125,-0.234375 1.671875,-0.3125 1.671875,-0.59375 c 0,-0.078125 0,-0.15625 0.015625,-0.21875 L 2.359375,-3.25 H 5.1875 L 4.546875,-0.890625 C 4.390625,-0.375 4.1875,-0.234375 3.53125,-0.15625 V 0 H 6.265625 V -0.15625 C 5.625,-0.21875 5.484375,-0.296875 5.484375,-0.578125 c 0,-0.09375 0.015625,-0.15625 0.03125,-0.234375 l 1.3125,-4.796875 C 7,-6.1875 7.078125,-6.25 7.640625,-6.34375 Z m 0,0"
             id="path13966" />
        </g>
      </g>
      <path
         style="fill:#211e1e;fill-opacity:1;fill-rule:nonzero;stroke:none"
         d="m 389.14844,299.05078 h 0.48047 v 14.16016 h -0.48047 z m 0,0"
         id="path3179" />
      <path
         style="fill:#211e1e;fill-opacity:1;fill-rule:nonzero;stroke:none"
         d="m 315.10937,313.09375 h 74.51954 v 0.48047 h -74.51954 z m 0,0"
         id="path3181" />
    </g>
  </g>
</svg>
