<?xml version="1.0" encoding="UTF-8" standalone="no"?>
<svg
   width="23.018082mm"
   height="21.096807mm"
   viewBox="0 0 23.018082 21.096807"
   version="1.1"
   id="svg10537"
   xmlns="http://www.w3.org/2000/svg"
   xmlns:svg="http://www.w3.org/2000/svg">
  <defs
     id="defs10534" />
  <g
     id="layer1"
     transform="translate(-81.017883,-148.80352)">
    <g
       id="g10267"
       transform="matrix(0.35277777,0,0,0.35277777,-12.907359,-10.909414)">
      <g
         style="fill:#211e1e;fill-opacity:1"
         id="g5889">
        <g
           id="use5887"
           transform="translate(266.76041,485.16)">
          <path
             style="stroke:none"
             d="M 5.625,-0.15625 C 5.046875,-0.203125 5,-0.296875 4.859375,-1.015625 l -0.9375,-5.640625 h -0.25 L 0.78125,-1.671875 c -0.796875,1.328125 -0.890625,1.4375 -1.296875,1.515625 V 0 h 1.875 v -0.15625 c -0.515625,-0.046875 -0.59375,-0.109375 -0.59375,-0.359375 0,-0.1875 0.03125,-0.265625 0.203125,-0.609375 l 0.5625,-1.125 h 2.203125 l 0.1875,1.296875 c 0.015625,0.09375 0.03125,0.1875 0.03125,0.265625 0,0.375 -0.140625,0.46875 -0.78125,0.53125 V 0 H 5.625 Z m -3.875,-2.453125 1.484375,-2.59375 0.4375,2.59375 z m 0,0"
             id="path10269" />
        </g>
      </g>
      <g
         style="fill:#211e1e;fill-opacity:1"
         id="g5893">
        <g
           id="use5891"
           transform="translate(275.16043,485.16)">
          <path
             style="stroke:none"
             d="m 6.84375,-3.265625 c 0.15625,0 0.34375,0 0.34375,-0.1875 C 7.1875,-3.65625 7,-3.65625 6.859375,-3.65625 h -5.96875 c -0.140625,0 -0.328125,0 -0.328125,0.203125 0,0.1875 0.1875,0.1875 0.328125,0.1875 z m 0.015625,1.9375 c 0.140625,0 0.328125,0 0.328125,-0.203125 0,-0.1875 -0.1875,-0.1875 -0.34375,-0.1875 H 0.890625 c -0.140625,0 -0.328125,0 -0.328125,0.1875 0,0.203125 0.1875,0.203125 0.328125,0.203125 z m 0,0"
             id="path10273" />
        </g>
      </g>
      <g
         style="fill:#211e1e;fill-opacity:1"
         id="g5897">
        <g
           id="use5895"
           transform="translate(285.12018,453.12021)">
          <path
             style="stroke:none"
             d="M 3.734375,17.640625 C 3.953125,17.640625 4,17.640625 4,17.5 4.03125,10.515625 4.828125,4.71875 8.328125,-0.15625 c 0.0625,-0.09375 0.0625,-0.109375 0.0625,-0.140625 0,-0.09375 -0.0625,-0.09375 -0.21875,-0.09375 -0.171875,0 -0.1875,0 -0.203125,0.015625 -0.046875,0.03125 -1.3125,1.484375 -2.3125,3.5 -1.3125,2.625 -2.140625,5.640625 -2.515625,9.28125 -0.03125,0.296875 -0.234375,2.375 -0.234375,4.734375 v 0.390625 c 0,0.109375 0.0625,0.109375 0.28125,0.109375 z m 0,0"
             id="path10277" />
        </g>
      </g>
      <g
         style="fill:#211e1e;fill-opacity:1"
         id="g5901">
        <g
           id="use5899"
           transform="translate(285.12018,470.64011)">
          <path
             style="stroke:none"
             d="M 4,0.171875 C 4,-0.09375 4,-0.09375 3.734375,-0.09375 H 3.1875 c -0.28125,0 -0.28125,0 -0.28125,0.265625 V 5.8125 c 0,0.265625 0,0.265625 0.28125,0.265625 H 3.734375 C 4,6.078125 4,6.078125 4,5.8125 Z m 0,0"
             id="path10281" />
        </g>
      </g>
      <g
         style="fill:#211e1e;fill-opacity:1"
         id="g5905">
        <g
           id="use5903"
           transform="translate(285.12018,476.64011)">
          <path
             style="stroke:none"
             d="M 4,0.171875 C 4,-0.09375 4,-0.09375 3.734375,-0.09375 H 3.1875 c -0.28125,0 -0.28125,0 -0.28125,0.265625 V 5.8125 c 0,0.265625 0,0.265625 0.28125,0.265625 H 3.734375 C 4,6.078125 4,6.078125 4,5.8125 Z m 0,0"
             id="path10285" />
        </g>
      </g>
      <g
         style="fill:#211e1e;fill-opacity:1"
         id="g5909">
        <g
           id="use5907"
           transform="translate(285.12018,482.64011)">
          <path
             style="stroke:none"
             d="M 4,0.171875 C 4,-0.09375 4,-0.09375 3.734375,-0.09375 H 3.1875 c -0.28125,0 -0.28125,0 -0.28125,0.265625 V 5.8125 c 0,0.265625 0,0.265625 0.28125,0.265625 H 3.734375 C 4,6.078125 4,6.078125 4,5.8125 Z m 0,0"
             id="path10289" />
        </g>
      </g>
      <g
         style="fill:#211e1e;fill-opacity:1"
         id="g5913">
        <g
           id="use5911"
           transform="translate(285.12018,488.64011)">
          <path
             style="stroke:none"
             d="M 4,0.171875 C 4,-0.09375 4,-0.09375 3.734375,-0.09375 H 3.1875 c -0.28125,0 -0.28125,0 -0.28125,0.265625 V 5.8125 c 0,0.265625 0,0.265625 0.28125,0.265625 H 3.734375 C 4,6.078125 4,6.078125 4,5.8125 Z m 0,0"
             id="path10293" />
        </g>
      </g>
      <g
         style="fill:#211e1e;fill-opacity:1"
         id="g5917">
        <g
           id="use5915"
           transform="translate(285.12018,495.00027)">
          <path
             style="stroke:none"
             d="m 3.1875,-0.5 c -0.21875,0 -0.28125,0 -0.28125,0.109375 V 0 c 0,6.09375 1.078125,9.65625 1.390625,10.671875 C 4.96875,12.875 6.078125,15.21875 7.75,17.265625 7.890625,17.453125 7.9375,17.5 7.96875,17.515625 8,17.53125 8,17.53125 8.171875,17.53125 c 0.15625,0 0.21875,0 0.21875,-0.09375 0,-0.01563 0,-0.04687 -0.0625,-0.125 C 5.015625,12.703125 4.015625,7.15625 4,-0.359375 4,-0.5 3.953125,-0.5 3.734375,-0.5 Z m 0,0"
             id="path10297" />
        </g>
      </g>
      <g
         style="fill:#211e1e;fill-opacity:1"
         id="g5921">
        <g
           id="use5919"
           transform="translate(295.32019,461.16046)">
          <path
             style="stroke:none"
             d="M 4.703125,-2.296875 H 3.6875 v -4.4375 H 3.25 l -3.125,4.4375 v 0.625 H 2.921875 V 0 H 3.6875 v -1.671875 h 1.015625 z m -1.796875,0 H 0.515625 L 2.90625,-5.71875 Z m 0,0"
             id="path10301" />
        </g>
      </g>
      <g
         style="fill:#211e1e;fill-opacity:1"
         id="g5925">
        <g
           id="use5923"
           transform="translate(303.24011,461.16046)">
          <path
             style="stroke:none"
             d="m 1.796875,-5.8125 h 1.96875 c 0.15625,0 0.1875,-0.015625 0.21875,-0.09375 l 0.375,-0.875 L 4.28125,-6.859375 C 4.125,-6.65625 4.03125,-6.59375 3.8125,-6.59375 H 1.734375 l -1.09375,2.359375 c 0,0.015625 0,0.03125 0,0.046875 0,0.046875 0.03125,0.078125 0.109375,0.078125 0.328125,0 0.71875,0.078125 1.140625,0.203125 1.140625,0.375 1.671875,0.984375 1.671875,1.96875 0,0.953125 -0.609375,1.703125 -1.390625,1.703125 -0.203125,0 -0.375,-0.0625 -0.671875,-0.28125 C 1.1875,-0.75 0.953125,-0.84375 0.75,-0.84375 c -0.296875,0 -0.4375,0.109375 -0.4375,0.359375 0,0.390625 0.46875,0.625 1.21875,0.625 0.84375,0 1.5625,-0.265625 2.0625,-0.78125 C 4.046875,-1.09375 4.25,-1.65625 4.25,-2.40625 c 0,-0.71875 -0.1875,-1.1875 -0.6875,-1.6875 -0.4375,-0.4375 -1,-0.65625 -2.171875,-0.875 z m 0,0"
             id="path10305" />
        </g>
      </g>
      <g
         style="fill:#211e1e;fill-opacity:1"
         id="g5929">
        <g
           id="use5927"
           transform="translate(311.16003,461.16046)">
          <path
             style="stroke:none"
             d="M 4.703125,-2.296875 H 3.6875 v -4.4375 H 3.25 l -3.125,4.4375 v 0.625 H 2.921875 V 0 H 3.6875 v -1.671875 h 1.015625 z m -1.796875,0 H 0.515625 L 2.90625,-5.71875 Z m 0,0"
             id="path10309" />
        </g>
      </g>
      <g
         style="fill:#211e1e;fill-opacity:1"
         id="g5933">
        <g
           id="use5931"
           transform="translate(319.20001,461.16046)">
          <path
             style="stroke:none"
             d="m 2.90625,-6.734375 -1.796875,0.90625 V -5.6875 C 1.21875,-5.734375 1.328125,-5.78125 1.375,-5.796875 1.5625,-5.875 1.71875,-5.90625 1.828125,-5.90625 2.03125,-5.90625 2.125,-5.765625 2.125,-5.4375 v 4.515625 c 0,0.328125 -0.078125,0.546875 -0.234375,0.640625 -0.15625,0.09375 -0.296875,0.125 -0.71875,0.125 V 0 h 2.75 v -0.15625 c -0.78125,0 -0.9375,-0.109375 -0.9375,-0.578125 V -6.71875 Z m 0,0"
             id="path10313" />
        </g>
      </g>
      <g
         style="fill:#211e1e;fill-opacity:1"
         id="g5937">
        <g
           id="use5935"
           transform="translate(295.32019,473.04016)">
          <path
             style="stroke:none"
             d="m 1.796875,-5.8125 h 1.96875 c 0.15625,0 0.1875,-0.015625 0.21875,-0.09375 l 0.375,-0.875 L 4.28125,-6.859375 C 4.125,-6.65625 4.03125,-6.59375 3.8125,-6.59375 H 1.734375 l -1.09375,2.359375 c 0,0.015625 0,0.03125 0,0.046875 0,0.046875 0.03125,0.078125 0.109375,0.078125 0.328125,0 0.71875,0.078125 1.140625,0.203125 1.140625,0.375 1.671875,0.984375 1.671875,1.96875 0,0.953125 -0.609375,1.703125 -1.390625,1.703125 -0.203125,0 -0.375,-0.0625 -0.671875,-0.28125 C 1.1875,-0.75 0.953125,-0.84375 0.75,-0.84375 c -0.296875,0 -0.4375,0.109375 -0.4375,0.359375 0,0.390625 0.46875,0.625 1.21875,0.625 0.84375,0 1.5625,-0.265625 2.0625,-0.78125 C 4.046875,-1.09375 4.25,-1.65625 4.25,-2.40625 c 0,-0.71875 -0.1875,-1.1875 -0.6875,-1.6875 -0.4375,-0.4375 -1,-0.65625 -2.171875,-0.875 z m 0,0"
             id="path10317" />
        </g>
      </g>
      <g
         style="fill:#211e1e;fill-opacity:1"
         id="g5941">
        <g
           id="use5939"
           transform="translate(303.24011,473.04016)">
          <path
             style="stroke:none"
             d="m 1.796875,-5.8125 h 1.96875 c 0.15625,0 0.1875,-0.015625 0.21875,-0.09375 l 0.375,-0.875 L 4.28125,-6.859375 C 4.125,-6.65625 4.03125,-6.59375 3.8125,-6.59375 H 1.734375 l -1.09375,2.359375 c 0,0.015625 0,0.03125 0,0.046875 0,0.046875 0.03125,0.078125 0.109375,0.078125 0.328125,0 0.71875,0.078125 1.140625,0.203125 1.140625,0.375 1.671875,0.984375 1.671875,1.96875 0,0.953125 -0.609375,1.703125 -1.390625,1.703125 -0.203125,0 -0.375,-0.0625 -0.671875,-0.28125 C 1.1875,-0.75 0.953125,-0.84375 0.75,-0.84375 c -0.296875,0 -0.4375,0.109375 -0.4375,0.359375 0,0.390625 0.46875,0.625 1.21875,0.625 0.84375,0 1.5625,-0.265625 2.0625,-0.78125 C 4.046875,-1.09375 4.25,-1.65625 4.25,-2.40625 c 0,-0.71875 -0.1875,-1.1875 -0.6875,-1.6875 -0.4375,-0.4375 -1,-0.65625 -2.171875,-0.875 z m 0,0"
             id="path10321" />
        </g>
      </g>
      <g
         style="fill:#211e1e;fill-opacity:1"
         id="g5945">
        <g
           id="use5943"
           transform="translate(311.16003,473.04016)">
          <path
             style="stroke:none"
             d="m 1.796875,-5.8125 h 1.96875 c 0.15625,0 0.1875,-0.015625 0.21875,-0.09375 l 0.375,-0.875 L 4.28125,-6.859375 C 4.125,-6.65625 4.03125,-6.59375 3.8125,-6.59375 H 1.734375 l -1.09375,2.359375 c 0,0.015625 0,0.03125 0,0.046875 0,0.046875 0.03125,0.078125 0.109375,0.078125 0.328125,0 0.71875,0.078125 1.140625,0.203125 1.140625,0.375 1.671875,0.984375 1.671875,1.96875 0,0.953125 -0.609375,1.703125 -1.390625,1.703125 -0.203125,0 -0.375,-0.0625 -0.671875,-0.28125 C 1.1875,-0.75 0.953125,-0.84375 0.75,-0.84375 c -0.296875,0 -0.4375,0.109375 -0.4375,0.359375 0,0.390625 0.46875,0.625 1.21875,0.625 0.84375,0 1.5625,-0.265625 2.0625,-0.78125 C 4.046875,-1.09375 4.25,-1.65625 4.25,-2.40625 c 0,-0.71875 -0.1875,-1.1875 -0.6875,-1.6875 -0.4375,-0.4375 -1,-0.65625 -2.171875,-0.875 z m 0,0"
             id="path10325" />
        </g>
      </g>
      <g
         style="fill:#211e1e;fill-opacity:1"
         id="g5949">
        <g
           id="use5947"
           transform="translate(319.20001,473.04016)">
          <path
             style="stroke:none"
             d="m 2.90625,-6.734375 -1.796875,0.90625 V -5.6875 C 1.21875,-5.734375 1.328125,-5.78125 1.375,-5.796875 1.5625,-5.875 1.71875,-5.90625 1.828125,-5.90625 2.03125,-5.90625 2.125,-5.765625 2.125,-5.4375 v 4.515625 c 0,0.328125 -0.078125,0.546875 -0.234375,0.640625 -0.15625,0.09375 -0.296875,0.125 -0.71875,0.125 V 0 h 2.75 v -0.15625 c -0.78125,0 -0.9375,-0.109375 -0.9375,-0.578125 V -6.71875 Z m 0,0"
             id="path10329" />
        </g>
      </g>
      <g
         style="fill:#211e1e;fill-opacity:1"
         id="g5953">
        <g
           id="use5951"
           transform="translate(295.32019,485.04016)">
          <path
             style="stroke:none"
             d="m 1.796875,-5.8125 h 1.96875 c 0.15625,0 0.1875,-0.015625 0.21875,-0.09375 l 0.375,-0.875 L 4.28125,-6.859375 C 4.125,-6.65625 4.03125,-6.59375 3.8125,-6.59375 H 1.734375 l -1.09375,2.359375 c 0,0.015625 0,0.03125 0,0.046875 0,0.046875 0.03125,0.078125 0.109375,0.078125 0.328125,0 0.71875,0.078125 1.140625,0.203125 1.140625,0.375 1.671875,0.984375 1.671875,1.96875 0,0.953125 -0.609375,1.703125 -1.390625,1.703125 -0.203125,0 -0.375,-0.0625 -0.671875,-0.28125 C 1.1875,-0.75 0.953125,-0.84375 0.75,-0.84375 c -0.296875,0 -0.4375,0.109375 -0.4375,0.359375 0,0.390625 0.46875,0.625 1.21875,0.625 0.84375,0 1.5625,-0.265625 2.0625,-0.78125 C 4.046875,-1.09375 4.25,-1.65625 4.25,-2.40625 c 0,-0.71875 -0.1875,-1.1875 -0.6875,-1.6875 -0.4375,-0.4375 -1,-0.65625 -2.171875,-0.875 z m 0,0"
             id="path10333" />
        </g>
      </g>
      <g
         style="fill:#211e1e;fill-opacity:1"
         id="g5957">
        <g
           id="use5955"
           transform="translate(303.24011,485.04016)">
          <path
             style="stroke:none"
             d="m 1.53125,-3.296875 c 0.578125,0 0.8125,0.03125 1.046875,0.109375 0.625,0.234375 1.015625,0.796875 1.015625,1.484375 0,0.828125 -0.578125,1.484375 -1.3125,1.484375 -0.265625,0 -0.46875,-0.078125 -0.828125,-0.3125 -0.3125,-0.171875 -0.46875,-0.25 -0.640625,-0.25 -0.234375,0 -0.390625,0.140625 -0.390625,0.359375 0,0.34375 0.4375,0.5625 1.140625,0.5625 0.765625,0 1.546875,-0.265625 2.015625,-0.671875 C 4.046875,-0.9375 4.3125,-1.515625 4.3125,-2.1875 c 0,-0.5 -0.171875,-0.96875 -0.453125,-1.28125 C 3.65625,-3.6875 3.46875,-3.8125 3.03125,-4 c 0.6875,-0.46875 0.9375,-0.828125 0.9375,-1.375 0,-0.8125 -0.640625,-1.359375 -1.5625,-1.359375 -0.5,0 -0.9375,0.171875 -1.296875,0.484375 -0.296875,0.265625 -0.4375,0.53125 -0.65625,1.125 L 0.59375,-5.078125 C 1,-5.8125 1.453125,-6.140625 2.078125,-6.140625 c 0.65625,0 1.109375,0.4375 1.109375,1.0625 0,0.359375 -0.15625,0.71875 -0.40625,0.96875 -0.296875,0.296875 -0.578125,0.453125 -1.25,0.6875 z m 0,0"
             id="path10337" />
        </g>
      </g>
      <g
         style="fill:#211e1e;fill-opacity:1"
         id="g5961">
        <g
           id="use5959"
           transform="translate(311.16003,485.04016)">
          <path
             style="stroke:none"
             d="m 4.734375,-1.359375 -0.125,-0.0625 C 4.234375,-0.84375 4.109375,-0.75 3.65625,-0.75 h -2.375 l 1.671875,-1.765625 c 0.890625,-0.921875 1.28125,-1.6875 1.28125,-2.453125 0,-1 -0.8125,-1.765625 -1.859375,-1.765625 -0.546875,0 -1.0625,0.21875 -1.421875,0.609375 C 0.625,-5.78125 0.484375,-5.46875 0.3125,-4.75 l 0.203125,0.046875 C 0.921875,-5.6875 1.28125,-6 1.96875,-6 2.796875,-6 3.375,-5.4375 3.375,-4.59375 3.375,-3.8125 2.90625,-2.890625 2.078125,-2 l -1.78125,1.875 V 0 H 4.1875 Z m 0,0"
             id="path10341" />
        </g>
      </g>
      <g
         style="fill:#211e1e;fill-opacity:1"
         id="g5965">
        <g
           id="use5963"
           transform="translate(319.20001,485.04016)">
          <path
             style="stroke:none"
             d="m 4.734375,-1.359375 -0.125,-0.0625 C 4.234375,-0.84375 4.109375,-0.75 3.65625,-0.75 h -2.375 l 1.671875,-1.765625 c 0.890625,-0.921875 1.28125,-1.6875 1.28125,-2.453125 0,-1 -0.8125,-1.765625 -1.859375,-1.765625 -0.546875,0 -1.0625,0.21875 -1.421875,0.609375 C 0.625,-5.78125 0.484375,-5.46875 0.3125,-4.75 l 0.203125,0.046875 C 0.921875,-5.6875 1.28125,-6 1.96875,-6 2.796875,-6 3.375,-5.4375 3.375,-4.59375 3.375,-3.8125 2.90625,-2.890625 2.078125,-2 l -1.78125,1.875 V 0 H 4.1875 Z m 0,0"
             id="path10345" />
        </g>
      </g>
      <g
         style="fill:#211e1e;fill-opacity:1"
         id="g5969">
        <g
           id="use5967"
           transform="translate(295.32019,497.04016)">
          <path
             style="stroke:none"
             d="M 4.703125,-2.296875 H 3.6875 v -4.4375 H 3.25 l -3.125,4.4375 v 0.625 H 2.921875 V 0 H 3.6875 v -1.671875 h 1.015625 z m -1.796875,0 H 0.515625 L 2.90625,-5.71875 Z m 0,0"
             id="path10349" />
        </g>
      </g>
      <g
         style="fill:#211e1e;fill-opacity:1"
         id="g5973">
        <g
           id="use5971"
           transform="translate(303.24011,497.04016)">
          <path
             style="stroke:none"
             d="m 4.734375,-1.359375 -0.125,-0.0625 C 4.234375,-0.84375 4.109375,-0.75 3.65625,-0.75 h -2.375 l 1.671875,-1.765625 c 0.890625,-0.921875 1.28125,-1.6875 1.28125,-2.453125 0,-1 -0.8125,-1.765625 -1.859375,-1.765625 -0.546875,0 -1.0625,0.21875 -1.421875,0.609375 C 0.625,-5.78125 0.484375,-5.46875 0.3125,-4.75 l 0.203125,0.046875 C 0.921875,-5.6875 1.28125,-6 1.96875,-6 2.796875,-6 3.375,-5.4375 3.375,-4.59375 3.375,-3.8125 2.90625,-2.890625 2.078125,-2 l -1.78125,1.875 V 0 H 4.1875 Z m 0,0"
             id="path10353" />
        </g>
      </g>
      <g
         style="fill:#211e1e;fill-opacity:1"
         id="g5977">
        <g
           id="use5975"
           transform="translate(311.16003,497.04016)">
          <path
             style="stroke:none"
             d="m 2.90625,-6.734375 -1.796875,0.90625 V -5.6875 C 1.21875,-5.734375 1.328125,-5.78125 1.375,-5.796875 1.5625,-5.875 1.71875,-5.90625 1.828125,-5.90625 2.03125,-5.90625 2.125,-5.765625 2.125,-5.4375 v 4.515625 c 0,0.328125 -0.078125,0.546875 -0.234375,0.640625 -0.15625,0.09375 -0.296875,0.125 -0.71875,0.125 V 0 h 2.75 v -0.15625 c -0.78125,0 -0.9375,-0.109375 -0.9375,-0.578125 V -6.71875 Z m 0,0"
             id="path10357" />
        </g>
      </g>
      <g
         style="fill:#211e1e;fill-opacity:1"
         id="g5981">
        <g
           id="use5979"
           transform="translate(319.20001,497.04016)">
          <path
             style="stroke:none"
             d="m 1.796875,-5.8125 h 1.96875 c 0.15625,0 0.1875,-0.015625 0.21875,-0.09375 l 0.375,-0.875 L 4.28125,-6.859375 C 4.125,-6.65625 4.03125,-6.59375 3.8125,-6.59375 H 1.734375 l -1.09375,2.359375 c 0,0.015625 0,0.03125 0,0.046875 0,0.046875 0.03125,0.078125 0.109375,0.078125 0.328125,0 0.71875,0.078125 1.140625,0.203125 1.140625,0.375 1.671875,0.984375 1.671875,1.96875 0,0.953125 -0.609375,1.703125 -1.390625,1.703125 -0.203125,0 -0.375,-0.0625 -0.671875,-0.28125 C 1.1875,-0.75 0.953125,-0.84375 0.75,-0.84375 c -0.296875,0 -0.4375,0.109375 -0.4375,0.359375 0,0.390625 0.46875,0.625 1.21875,0.625 0.84375,0 1.5625,-0.265625 2.0625,-0.78125 C 4.046875,-1.09375 4.25,-1.65625 4.25,-2.40625 c 0,-0.71875 -0.1875,-1.1875 -0.6875,-1.6875 -0.4375,-0.4375 -1,-0.65625 -2.171875,-0.875 z m 0,0"
             id="path10361" />
        </g>
      </g>
      <g
         style="fill:#211e1e;fill-opacity:1"
         id="g5985">
        <g
           id="use5983"
           transform="translate(295.32019,508.92026)">
          <path
             style="stroke:none"
             d="m 1.796875,-5.8125 h 1.96875 c 0.15625,0 0.1875,-0.015625 0.21875,-0.09375 l 0.375,-0.875 L 4.28125,-6.859375 C 4.125,-6.65625 4.03125,-6.59375 3.8125,-6.59375 H 1.734375 l -1.09375,2.359375 c 0,0.015625 0,0.03125 0,0.046875 0,0.046875 0.03125,0.078125 0.109375,0.078125 0.328125,0 0.71875,0.078125 1.140625,0.203125 1.140625,0.375 1.671875,0.984375 1.671875,1.96875 0,0.953125 -0.609375,1.703125 -1.390625,1.703125 -0.203125,0 -0.375,-0.0625 -0.671875,-0.28125 C 1.1875,-0.75 0.953125,-0.84375 0.75,-0.84375 c -0.296875,0 -0.4375,0.109375 -0.4375,0.359375 0,0.390625 0.46875,0.625 1.21875,0.625 0.84375,0 1.5625,-0.265625 2.0625,-0.78125 C 4.046875,-1.09375 4.25,-1.65625 4.25,-2.40625 c 0,-0.71875 -0.1875,-1.1875 -0.6875,-1.6875 -0.4375,-0.4375 -1,-0.65625 -2.171875,-0.875 z m 0,0"
             id="path10365" />
        </g>
      </g>
      <g
         style="fill:#211e1e;fill-opacity:1"
         id="g5989">
        <g
           id="use5987"
           transform="translate(303.24011,508.92026)">
          <path
             style="stroke:none"
             d="m 2.90625,-6.734375 -1.796875,0.90625 V -5.6875 C 1.21875,-5.734375 1.328125,-5.78125 1.375,-5.796875 1.5625,-5.875 1.71875,-5.90625 1.828125,-5.90625 2.03125,-5.90625 2.125,-5.765625 2.125,-5.4375 v 4.515625 c 0,0.328125 -0.078125,0.546875 -0.234375,0.640625 -0.15625,0.09375 -0.296875,0.125 -0.71875,0.125 V 0 h 2.75 v -0.15625 c -0.78125,0 -0.9375,-0.109375 -0.9375,-0.578125 V -6.71875 Z m 0,0"
             id="path10369" />
        </g>
      </g>
      <g
         style="fill:#211e1e;fill-opacity:1"
         id="g5993">
        <g
           id="use5991"
           transform="translate(311.16003,508.92026)">
          <path
             style="stroke:none"
             d="m 2.90625,-6.734375 -1.796875,0.90625 V -5.6875 C 1.21875,-5.734375 1.328125,-5.78125 1.375,-5.796875 1.5625,-5.875 1.71875,-5.90625 1.828125,-5.90625 2.03125,-5.90625 2.125,-5.765625 2.125,-5.4375 v 4.515625 c 0,0.328125 -0.078125,0.546875 -0.234375,0.640625 -0.15625,0.09375 -0.296875,0.125 -0.71875,0.125 V 0 h 2.75 v -0.15625 c -0.78125,0 -0.9375,-0.109375 -0.9375,-0.578125 V -6.71875 Z m 0,0"
             id="path10373" />
        </g>
      </g>
      <g
         style="fill:#211e1e;fill-opacity:1"
         id="g5997">
        <g
           id="use5995"
           transform="translate(319.20001,508.92026)">
          <path
             style="stroke:none"
             d="m 1.796875,-5.8125 h 1.96875 c 0.15625,0 0.1875,-0.015625 0.21875,-0.09375 l 0.375,-0.875 L 4.28125,-6.859375 C 4.125,-6.65625 4.03125,-6.59375 3.8125,-6.59375 H 1.734375 l -1.09375,2.359375 c 0,0.015625 0,0.03125 0,0.046875 0,0.046875 0.03125,0.078125 0.109375,0.078125 0.328125,0 0.71875,0.078125 1.140625,0.203125 1.140625,0.375 1.671875,0.984375 1.671875,1.96875 0,0.953125 -0.609375,1.703125 -1.390625,1.703125 -0.203125,0 -0.375,-0.0625 -0.671875,-0.28125 C 1.1875,-0.75 0.953125,-0.84375 0.75,-0.84375 c -0.296875,0 -0.4375,0.109375 -0.4375,0.359375 0,0.390625 0.46875,0.625 1.21875,0.625 0.84375,0 1.5625,-0.265625 2.0625,-0.78125 C 4.046875,-1.09375 4.25,-1.65625 4.25,-2.40625 c 0,-0.71875 -0.1875,-1.1875 -0.6875,-1.6875 -0.4375,-0.4375 -1,-0.65625 -2.171875,-0.875 z m 0,0"
             id="path10377" />
        </g>
      </g>
      <g
         style="fill:#211e1e;fill-opacity:1"
         id="g6001">
        <g
           id="use5999"
           transform="translate(325.68039,453.12027)">
          <path
             style="stroke:none"
             d="M 5.8125,17.140625 C 5.8125,11.0625 4.71875,7.484375 4.421875,6.484375 3.734375,4.265625 2.625,1.9375 0.96875,-0.125 0.8125,-0.296875 0.78125,-0.34375 0.734375,-0.375 c -0.015625,0 -0.03125,-0.015625 -0.1875,-0.015625 -0.140625,0 -0.234375,0 -0.234375,0.09375 0,0.03125 0,0.046875 0.140625,0.234375 3.46875,4.84375 4.234375,10.8125 4.25,17.5625 0,0.140625 0.0625,0.140625 0.28125,0.140625 H 5.53125 c 0.203125,0 0.265625,0 0.28125,-0.109375 z m 0,0"
             id="path10381" />
        </g>
      </g>
      <g
         style="fill:#211e1e;fill-opacity:1"
         id="g6005">
        <g
           id="use6003"
           transform="translate(325.68039,470.64017)">
          <path
             style="stroke:none"
             d="M 5.8125,0.171875 C 5.8125,-0.09375 5.796875,-0.09375 5.53125,-0.09375 H 4.984375 c -0.265625,0 -0.28125,0 -0.28125,0.265625 V 5.8125 c 0,0.265625 0.015625,0.265625 0.28125,0.265625 H 5.53125 c 0.265625,0 0.28125,0 0.28125,-0.265625 z m 0,0"
             id="path10385" />
        </g>
      </g>
      <g
         style="fill:#211e1e;fill-opacity:1"
         id="g6009">
        <g
           id="use6007"
           transform="translate(325.68039,476.64017)">
          <path
             style="stroke:none"
             d="M 5.8125,0.171875 C 5.8125,-0.09375 5.796875,-0.09375 5.53125,-0.09375 H 4.984375 c -0.265625,0 -0.28125,0 -0.28125,0.265625 V 5.8125 c 0,0.265625 0.015625,0.265625 0.28125,0.265625 H 5.53125 c 0.265625,0 0.28125,0 0.28125,-0.265625 z m 0,0"
             id="path10389" />
        </g>
      </g>
      <g
         style="fill:#211e1e;fill-opacity:1"
         id="g6013">
        <g
           id="use6011"
           transform="translate(325.68039,482.64017)">
          <path
             style="stroke:none"
             d="M 5.8125,0.171875 C 5.8125,-0.09375 5.796875,-0.09375 5.53125,-0.09375 H 4.984375 c -0.265625,0 -0.28125,0 -0.28125,0.265625 V 5.8125 c 0,0.265625 0.015625,0.265625 0.28125,0.265625 H 5.53125 c 0.265625,0 0.28125,0 0.28125,-0.265625 z m 0,0"
             id="path10393" />
        </g>
      </g>
      <g
         style="fill:#211e1e;fill-opacity:1"
         id="g6017">
        <g
           id="use6015"
           transform="translate(325.68039,488.64017)">
          <path
             style="stroke:none"
             d="M 5.8125,0.171875 C 5.8125,-0.09375 5.796875,-0.09375 5.53125,-0.09375 H 4.984375 c -0.265625,0 -0.28125,0 -0.28125,0.265625 V 5.8125 c 0,0.265625 0.015625,0.265625 0.28125,0.265625 H 5.53125 c 0.265625,0 0.28125,0 0.28125,-0.265625 z m 0,0"
             id="path10397" />
        </g>
      </g>
      <g
         style="fill:#211e1e;fill-opacity:1"
         id="g6021">
        <g
           id="use6019"
           transform="translate(325.68039,495.00031)">
          <path
             style="stroke:none"
             d="M 5.8125,-0.390625 C 5.796875,-0.5 5.734375,-0.5 5.53125,-0.5 H 4.984375 c -0.21875,0 -0.28125,0 -0.28125,0.140625 0,1.03125 -0.015625,3.40625 -0.265625,5.875 C 3.890625,10.671875 2.578125,14.25 0.390625,17.3125 0.3125,17.390625 0.3125,17.421875 0.3125,17.4375 c 0,0.09375 0.09375,0.09375 0.234375,0.09375 0.15625,0 0.1875,0 0.203125,-0.01563 C 0.78125,17.48438 2.046875,16.03125 3.0625,14.03125 4.375,11.390625 5.203125,8.375 5.578125,4.75 5.609375,4.4375 5.8125,2.359375 5.8125,0 Z m 0,0"
             id="path10401" />
        </g>
      </g>
    </g>
  </g>
</svg>
