<?xml version="1.0" encoding="UTF-8" standalone="no"?>
<svg
   width="88.541428mm"
   height="21.054506mm"
   viewBox="0 0 88.541428 21.054506"
   version="1.1"
   id="svg11720"
   xmlns="http://www.w3.org/2000/svg"
   xmlns:svg="http://www.w3.org/2000/svg">
  <defs
     id="defs11717" />
  <g
     id="layer1"
     transform="translate(-25.981209,-131.69005)">
    <g
       id="g11219"
       transform="matrix(0.35277777,0,0,0.35277777,-35.56569,-67.054183)">
      <g
         style="fill:#211e1e;fill-opacity:1"
         id="g6613">
        <g
           id="use6611"
           transform="translate(173.76053,595.68042)">
          <path
             style="stroke:none"
             d="M 9.03125,-6.515625 H 7.1875 v 0.171875 c 0.53125,0.046875 0.640625,0.109375 0.640625,0.390625 0,0.15625 -0.078125,0.40625 -0.203125,0.671875 L 5.765625,-1.609375 5.359375,-5.625 v -0.140625 c 0,-0.40625 0.140625,-0.53125 0.671875,-0.578125 v -0.171875 h -2.375 v 0.171875 c 0.578125,0.015625 0.6875,0.078125 0.75,0.578125 L 4.5,-5.078125 2.78125,-1.609375 2.34375,-5.65625 c -0.015625,-0.0625 -0.015625,-0.125 -0.015625,-0.140625 0,-0.390625 0.125,-0.484375 0.734375,-0.546875 V -6.515625 H 0.703125 V -6.34375 C 1.03125,-6.3125 1.125,-6.28125 1.21875,-6.1875 1.328125,-6.078125 1.375,-5.890625 1.5,-4.96875 l 0.609375,5.140625 h 0.1875 L 4.515625,-4.34375 H 4.5625 l 0.5,4.515625 H 5.265625 L 8.28125,-5.625 c 0.265625,-0.515625 0.375,-0.609375 0.75,-0.71875 z m 0,0"
             id="path11221" />
        </g>
      </g>
      <g
         style="fill:#211e1e;fill-opacity:1"
         id="g6617">
        <g
           id="use6615"
           transform="translate(181.56053,597.24017)">
          <path
             style="stroke:none"
             d="M 2.140625,-4.984375 0.8125,-4.3125 v 0.09375 C 0.90625,-4.25 0.984375,-4.28125 1.015625,-4.296875 1.15625,-4.34375 1.28125,-4.375 1.34375,-4.375 c 0.15625,0 0.234375,0.109375 0.234375,0.34375 v 3.34375 c 0,0.25 -0.0625,0.421875 -0.1875,0.484375 C 1.28125,-0.140625 1.1875,-0.125 0.875,-0.109375 V 0 H 2.90625 V -0.109375 C 2.328125,-0.125 2.203125,-0.1875 2.203125,-0.546875 V -4.96875 Z m 0,0"
             id="path11225" />
        </g>
      </g>
      <g
         style="fill:#211e1e;fill-opacity:1"
         id="g6621">
        <g
           id="use6619"
           transform="translate(187.9203,595.68042)">
          <path
             style="stroke:none"
             d="m 6.84375,-3.265625 c 0.15625,0 0.34375,0 0.34375,-0.1875 C 7.1875,-3.65625 7,-3.65625 6.859375,-3.65625 h -5.96875 c -0.140625,0 -0.328125,0 -0.328125,0.203125 0,0.1875 0.1875,0.1875 0.328125,0.1875 z m 0.015625,1.9375 c 0.140625,0 0.328125,0 0.328125,-0.203125 0,-0.1875 -0.1875,-0.1875 -0.34375,-0.1875 H 0.890625 c -0.140625,0 -0.328125,0 -0.328125,0.1875 0,0.203125 0.1875,0.203125 0.328125,0.203125 z m 0,0"
             id="path11229" />
        </g>
      </g>
      <g
         style="fill:#211e1e;fill-opacity:1"
         id="g6625">
        <g
           id="use6623"
           transform="translate(197.88046,563.76013)">
          <path
             style="stroke:none"
             d="M 3.734375,17.640625 C 3.953125,17.640625 4,17.640625 4,17.5 4.03125,10.515625 4.828125,4.71875 8.328125,-0.15625 c 0.0625,-0.09375 0.0625,-0.109375 0.0625,-0.140625 0,-0.09375 -0.0625,-0.09375 -0.21875,-0.09375 -0.171875,0 -0.1875,0 -0.203125,0.015625 -0.046875,0.03125 -1.3125,1.484375 -2.3125,3.5 -1.3125,2.625 -2.140625,5.640625 -2.515625,9.28125 -0.03125,0.296875 -0.234375,2.375 -0.234375,4.734375 v 0.390625 c 0,0.109375 0.0625,0.109375 0.28125,0.109375 z m 0,0"
             id="path11233" />
        </g>
      </g>
      <g
         style="fill:#211e1e;fill-opacity:1"
         id="g6629">
        <g
           id="use6627"
           transform="translate(197.88046,581.2804)">
          <path
             style="stroke:none"
             d="M 4,0.171875 C 4,-0.09375 4,-0.09375 3.734375,-0.09375 H 3.1875 c -0.28125,0 -0.28125,0 -0.28125,0.265625 V 5.8125 c 0,0.265625 0,0.265625 0.28125,0.265625 H 3.734375 C 4,6.078125 4,6.078125 4,5.8125 Z m 0,0"
             id="path11237" />
        </g>
      </g>
      <g
         style="fill:#211e1e;fill-opacity:1"
         id="g6633">
        <g
           id="use6631"
           transform="translate(197.88046,587.2804)">
          <path
             style="stroke:none"
             d="M 4,0.171875 C 4,-0.09375 4,-0.09375 3.734375,-0.09375 H 3.1875 c -0.28125,0 -0.28125,0 -0.28125,0.265625 V 5.8125 c 0,0.265625 0,0.265625 0.28125,0.265625 H 3.734375 C 4,6.078125 4,6.078125 4,5.8125 Z m 0,0"
             id="path11241" />
        </g>
      </g>
      <g
         style="fill:#211e1e;fill-opacity:1"
         id="g6637">
        <g
           id="use6635"
           transform="translate(197.88046,593.1601)">
          <path
             style="stroke:none"
             d="M 4,0.171875 C 4,-0.09375 4,-0.09375 3.734375,-0.09375 H 3.1875 c -0.28125,0 -0.28125,0 -0.28125,0.265625 V 5.8125 c 0,0.265625 0,0.265625 0.28125,0.265625 H 3.734375 C 4,6.078125 4,6.078125 4,5.8125 Z m 0,0"
             id="path11245" />
        </g>
      </g>
      <g
         style="fill:#211e1e;fill-opacity:1"
         id="g6641">
        <g
           id="use6639"
           transform="translate(197.88046,599.1601)">
          <path
             style="stroke:none"
             d="M 4,0.171875 C 4,-0.09375 4,-0.09375 3.734375,-0.09375 H 3.1875 c -0.28125,0 -0.28125,0 -0.28125,0.265625 V 5.8125 c 0,0.265625 0,0.265625 0.28125,0.265625 H 3.734375 C 4,6.078125 4,6.078125 4,5.8125 Z m 0,0"
             id="path11249" />
        </g>
      </g>
      <g
         style="fill:#211e1e;fill-opacity:1"
         id="g6645">
        <g
           id="use6643"
           transform="translate(197.88046,605.52026)">
          <path
             style="stroke:none"
             d="m 3.1875,-0.5 c -0.21875,0 -0.28125,0 -0.28125,0.109375 V 0 c 0,6.09375 1.078125,9.65625 1.390625,10.671875 C 4.96875,12.875 6.078125,15.21875 7.75,17.265625 7.890625,17.453125 7.9375,17.5 7.96875,17.515625 8,17.53125 8,17.53125 8.171875,17.53125 c 0.15625,0 0.21875,0 0.21875,-0.09375 0,-0.01563 0,-0.04687 -0.0625,-0.125 C 5.015625,12.703125 4.015625,7.15625 4,-0.359375 4,-0.5 3.953125,-0.5 3.734375,-0.5 Z m 0,0"
             id="path11253" />
        </g>
      </g>
      <g
         style="fill:#211e1e;fill-opacity:1"
         id="g6649">
        <g
           id="use6647"
           transform="translate(208.08046,571.68048)">
          <path
             style="stroke:none"
             d="M 4.46875,-6.59375 H 0.78125 L 0.203125,-5.140625 0.375,-5.046875 c 0.421875,-0.6875 0.609375,-0.8125 1.15625,-0.8125 H 3.6875 l -1.96875,5.9375 H 2.359375 L 4.46875,-6.4375 Z m 0,0"
             id="path11257" />
        </g>
      </g>
      <g
         style="fill:#211e1e;fill-opacity:1"
         id="g6653">
        <g
           id="use6651"
           transform="translate(213.1203,571.68048)">
          <path
             style="stroke:none"
             d="m 1.90625,-0.53125 c 0,-0.28125 -0.234375,-0.53125 -0.515625,-0.53125 -0.296875,0 -0.53125,0.25 -0.53125,0.53125 C 0.859375,-0.234375 1.09375,0 1.390625,0 1.671875,0 1.90625,-0.234375 1.90625,-0.53125 Z m 0,0"
             id="path11261" />
        </g>
      </g>
      <g
         style="fill:#211e1e;fill-opacity:1"
         id="g6657">
        <g
           id="use6655"
           transform="translate(215.88046,571.68048)">
          <path
             style="stroke:none"
             d="m 2.90625,-6.734375 -1.796875,0.90625 V -5.6875 C 1.21875,-5.734375 1.328125,-5.78125 1.375,-5.796875 1.5625,-5.875 1.71875,-5.90625 1.828125,-5.90625 2.03125,-5.90625 2.125,-5.765625 2.125,-5.4375 v 4.515625 c 0,0.328125 -0.078125,0.546875 -0.234375,0.640625 -0.15625,0.09375 -0.296875,0.125 -0.71875,0.125 V 0 h 2.75 v -0.15625 c -0.78125,0 -0.9375,-0.109375 -0.9375,-0.578125 V -6.71875 Z m 0,0"
             id="path11265" />
        </g>
      </g>
      <g
         style="fill:#211e1e;fill-opacity:1"
         id="g6661">
        <g
           id="use6659"
           transform="translate(220.92044,571.68048)">
          <path
             style="stroke:none"
             d="m 1.53125,-3.296875 c 0.578125,0 0.8125,0.03125 1.046875,0.109375 0.625,0.234375 1.015625,0.796875 1.015625,1.484375 0,0.828125 -0.578125,1.484375 -1.3125,1.484375 -0.265625,0 -0.46875,-0.078125 -0.828125,-0.3125 -0.3125,-0.171875 -0.46875,-0.25 -0.640625,-0.25 -0.234375,0 -0.390625,0.140625 -0.390625,0.359375 0,0.34375 0.4375,0.5625 1.140625,0.5625 0.765625,0 1.546875,-0.265625 2.015625,-0.671875 C 4.046875,-0.9375 4.3125,-1.515625 4.3125,-2.1875 c 0,-0.5 -0.171875,-0.96875 -0.453125,-1.28125 C 3.65625,-3.6875 3.46875,-3.8125 3.03125,-4 c 0.6875,-0.46875 0.9375,-0.828125 0.9375,-1.375 0,-0.8125 -0.640625,-1.359375 -1.5625,-1.359375 -0.5,0 -0.9375,0.171875 -1.296875,0.484375 -0.296875,0.265625 -0.4375,0.53125 -0.65625,1.125 L 0.59375,-5.078125 C 1,-5.8125 1.453125,-6.140625 2.078125,-6.140625 c 0.65625,0 1.109375,0.4375 1.109375,1.0625 0,0.359375 -0.15625,0.71875 -0.40625,0.96875 -0.296875,0.296875 -0.578125,0.453125 -1.25,0.6875 z m 0,0"
             id="path11269" />
        </g>
      </g>
      <g
         style="fill:#211e1e;fill-opacity:1"
         id="g6665">
        <g
           id="use6663"
           transform="translate(225.96046,571.68048)">
          <path
             style="stroke:none"
             d="M 4.46875,-6.59375 H 0.78125 L 0.203125,-5.140625 0.375,-5.046875 c 0.421875,-0.6875 0.609375,-0.8125 1.15625,-0.8125 H 3.6875 l -1.96875,5.9375 H 2.359375 L 4.46875,-6.4375 Z m 0,0"
             id="path11273" />
        </g>
      </g>
      <g
         style="fill:#211e1e;fill-opacity:1"
         id="g6669">
        <g
           id="use6667"
           transform="translate(208.08046,583.68048)">
          <path
             style="stroke:none"
             d="m 2.890625,-3.703125 c 0.984375,-0.53125 1.34375,-0.9375 1.34375,-1.625 0,-0.8125 -0.71875,-1.40625 -1.71875,-1.40625 -1.09375,0 -1.890625,0.65625 -1.890625,1.578125 0,0.640625 0.1875,0.921875 1.234375,1.84375 C 0.78125,-2.5 0.5625,-2.1875 0.5625,-1.5 c 0,0.96875 0.78125,1.640625 1.90625,1.640625 1.203125,0 1.96875,-0.65625 1.96875,-1.6875 0,-0.765625 -0.34375,-1.25 -1.546875,-2.15625 z m -0.171875,1.03125 c 0.71875,0.515625 0.953125,0.875 0.953125,1.4375 0,0.640625 -0.4375,1.09375 -1.09375,1.09375 -0.75,0 -1.265625,-0.578125 -1.265625,-1.4375 0,-0.640625 0.21875,-1.0625 0.796875,-1.53125 z M 2.609375,-3.875 c -0.890625,-0.578125 -1.25,-1.046875 -1.25,-1.59375 0,-0.578125 0.4375,-0.984375 1.078125,-0.984375 0.671875,0 1.09375,0.4375 1.09375,1.125 0,0.5625 -0.265625,1.015625 -0.84375,1.390625 -0.046875,0.03125 -0.046875,0.03125 -0.078125,0.0625 z m 0,0"
             id="path11277" />
        </g>
      </g>
      <g
         style="fill:#211e1e;fill-opacity:1"
         id="g6673">
        <g
           id="use6671"
           transform="translate(213.1203,583.68048)">
          <path
             style="stroke:none"
             d="m 1.90625,-0.53125 c 0,-0.28125 -0.234375,-0.53125 -0.515625,-0.53125 -0.296875,0 -0.53125,0.25 -0.53125,0.53125 C 0.859375,-0.234375 1.09375,0 1.390625,0 1.671875,0 1.90625,-0.234375 1.90625,-0.53125 Z m 0,0"
             id="path11281" />
        </g>
      </g>
      <g
         style="fill:#211e1e;fill-opacity:1"
         id="g6677">
        <g
           id="use6675"
           transform="translate(215.88046,583.68048)">
          <path
             style="stroke:none"
             d="m 4.734375,-1.359375 -0.125,-0.0625 C 4.234375,-0.84375 4.109375,-0.75 3.65625,-0.75 h -2.375 l 1.671875,-1.765625 c 0.890625,-0.921875 1.28125,-1.6875 1.28125,-2.453125 0,-1 -0.8125,-1.765625 -1.859375,-1.765625 -0.546875,0 -1.0625,0.21875 -1.421875,0.609375 C 0.625,-5.78125 0.484375,-5.46875 0.3125,-4.75 l 0.203125,0.046875 C 0.921875,-5.6875 1.28125,-6 1.96875,-6 2.796875,-6 3.375,-5.4375 3.375,-4.59375 3.375,-3.8125 2.90625,-2.890625 2.078125,-2 l -1.78125,1.875 V 0 H 4.1875 Z m 0,0"
             id="path11285" />
        </g>
      </g>
      <g
         style="fill:#211e1e;fill-opacity:1"
         id="g6681">
        <g
           id="use6679"
           transform="translate(220.92044,583.68048)">
          <path
             style="stroke:none"
             d="m 2.90625,-6.734375 -1.796875,0.90625 V -5.6875 C 1.21875,-5.734375 1.328125,-5.78125 1.375,-5.796875 1.5625,-5.875 1.71875,-5.90625 1.828125,-5.90625 2.03125,-5.90625 2.125,-5.765625 2.125,-5.4375 v 4.515625 c 0,0.328125 -0.078125,0.546875 -0.234375,0.640625 -0.15625,0.09375 -0.296875,0.125 -0.71875,0.125 V 0 h 2.75 v -0.15625 c -0.78125,0 -0.9375,-0.109375 -0.9375,-0.578125 V -6.71875 Z m 0,0"
             id="path11289" />
        </g>
      </g>
      <g
         style="fill:#211e1e;fill-opacity:1"
         id="g6685">
        <g
           id="use6683"
           transform="translate(225.96046,583.68048)">
          <path
             style="stroke:none"
             d="M 4.703125,-2.296875 H 3.6875 v -4.4375 H 3.25 l -3.125,4.4375 v 0.625 H 2.921875 V 0 H 3.6875 v -1.671875 h 1.015625 z m -1.796875,0 H 0.515625 L 2.90625,-5.71875 Z m 0,0"
             id="path11293" />
        </g>
      </g>
      <g
         style="fill:#211e1e;fill-opacity:1"
         id="g6689">
        <g
           id="use6687"
           transform="translate(208.08046,595.56018)">
          <path
             style="stroke:none"
             d="M 4.453125,-6.8125 C 3.3125,-6.71875 2.734375,-6.53125 2,-6.015625 0.921875,-5.25 0.34375,-4.109375 0.34375,-2.78125 c 0,0.875 0.265625,1.75 0.6875,2.25 0.390625,0.4375 0.921875,0.671875 1.546875,0.671875 1.234375,0 2.09375,-0.953125 2.09375,-2.328125 0,-1.265625 -0.734375,-2.078125 -1.875,-2.078125 -0.4375,0 -0.65625,0.0625 -1.28125,0.453125 C 1.78125,-5.328125 2.90625,-6.40625 4.46875,-6.65625 Z m -2.046875,3 c 0.859375,0 1.359375,0.71875 1.359375,1.96875 0,1.09375 -0.390625,1.703125 -1.078125,1.703125 -0.890625,0 -1.421875,-0.9375 -1.421875,-2.484375 0,-0.5 0.078125,-0.78125 0.28125,-0.9375 C 1.75,-3.71875 2.0625,-3.8125 2.40625,-3.8125 Z m 0,0"
             id="path11297" />
        </g>
      </g>
      <g
         style="fill:#211e1e;fill-opacity:1"
         id="g6693">
        <g
           id="use6691"
           transform="translate(213.1203,595.56018)">
          <path
             style="stroke:none"
             d="m 1.90625,-0.53125 c 0,-0.28125 -0.234375,-0.53125 -0.515625,-0.53125 -0.296875,0 -0.53125,0.25 -0.53125,0.53125 C 0.859375,-0.234375 1.09375,0 1.390625,0 1.671875,0 1.90625,-0.234375 1.90625,-0.53125 Z m 0,0"
             id="path11301" />
        </g>
      </g>
      <g
         style="fill:#211e1e;fill-opacity:1"
         id="g6697">
        <g
           id="use6695"
           transform="translate(215.88046,595.56018)">
          <path
             style="stroke:none"
             d="m 1.53125,-3.296875 c 0.578125,0 0.8125,0.03125 1.046875,0.109375 0.625,0.234375 1.015625,0.796875 1.015625,1.484375 0,0.828125 -0.578125,1.484375 -1.3125,1.484375 -0.265625,0 -0.46875,-0.078125 -0.828125,-0.3125 -0.3125,-0.171875 -0.46875,-0.25 -0.640625,-0.25 -0.234375,0 -0.390625,0.140625 -0.390625,0.359375 0,0.34375 0.4375,0.5625 1.140625,0.5625 0.765625,0 1.546875,-0.265625 2.015625,-0.671875 C 4.046875,-0.9375 4.3125,-1.515625 4.3125,-2.1875 c 0,-0.5 -0.171875,-0.96875 -0.453125,-1.28125 C 3.65625,-3.6875 3.46875,-3.8125 3.03125,-4 c 0.6875,-0.46875 0.9375,-0.828125 0.9375,-1.375 0,-0.8125 -0.640625,-1.359375 -1.5625,-1.359375 -0.5,0 -0.9375,0.171875 -1.296875,0.484375 -0.296875,0.265625 -0.4375,0.53125 -0.65625,1.125 L 0.59375,-5.078125 C 1,-5.8125 1.453125,-6.140625 2.078125,-6.140625 c 0.65625,0 1.109375,0.4375 1.109375,1.0625 0,0.359375 -0.15625,0.71875 -0.40625,0.96875 -0.296875,0.296875 -0.578125,0.453125 -1.25,0.6875 z m 0,0"
             id="path11305" />
        </g>
      </g>
      <g
         style="fill:#211e1e;fill-opacity:1"
         id="g6701">
        <g
           id="use6699"
           transform="translate(220.92044,595.56018)">
          <path
             style="stroke:none"
             d="m 0.59375,0.21875 c 1.109375,-0.125 1.65625,-0.3125 2.34375,-0.8125 1.03125,-0.75 1.640625,-1.984375 1.640625,-3.328125 0,-1.65625 -0.921875,-2.8125 -2.203125,-2.8125 -1.1875,0 -2.078125,1 -2.078125,2.34375 0,1.21875 0.71875,2.03125 1.796875,2.03125 0.546875,0 0.96875,-0.15625 1.5,-0.578125 -0.40625,1.625 -1.515625,2.703125 -3.03125,2.953125 z m 3.015625,-3.75 c 0,0.1875 -0.046875,0.28125 -0.15625,0.375 -0.265625,0.234375 -0.640625,0.359375 -1,0.359375 -0.765625,0 -1.234375,-0.734375 -1.234375,-1.921875 0,-0.578125 0.15625,-1.171875 0.359375,-1.4375 C 1.75,-6.34375 2,-6.453125 2.296875,-6.453125 c 0.859375,0 1.3125,0.84375 1.3125,2.53125 z m 0,0"
             id="path11309" />
        </g>
      </g>
      <g
         style="fill:#211e1e;fill-opacity:1"
         id="g6705">
        <g
           id="use6703"
           transform="translate(225.96046,595.56018)">
          <path
             style="stroke:none"
             d="m 2.890625,-3.703125 c 0.984375,-0.53125 1.34375,-0.9375 1.34375,-1.625 0,-0.8125 -0.71875,-1.40625 -1.71875,-1.40625 -1.09375,0 -1.890625,0.65625 -1.890625,1.578125 0,0.640625 0.1875,0.921875 1.234375,1.84375 C 0.78125,-2.5 0.5625,-2.1875 0.5625,-1.5 c 0,0.96875 0.78125,1.640625 1.90625,1.640625 1.203125,0 1.96875,-0.65625 1.96875,-1.6875 0,-0.765625 -0.34375,-1.25 -1.546875,-2.15625 z m -0.171875,1.03125 c 0.71875,0.515625 0.953125,0.875 0.953125,1.4375 0,0.640625 -0.4375,1.09375 -1.09375,1.09375 -0.75,0 -1.265625,-0.578125 -1.265625,-1.4375 0,-0.640625 0.21875,-1.0625 0.796875,-1.53125 z M 2.609375,-3.875 c -0.890625,-0.578125 -1.25,-1.046875 -1.25,-1.59375 0,-0.578125 0.4375,-0.984375 1.078125,-0.984375 0.671875,0 1.09375,0.4375 1.09375,1.125 0,0.5625 -0.265625,1.015625 -0.84375,1.390625 -0.046875,0.03125 -0.046875,0.03125 -0.078125,0.0625 z m 0,0"
             id="path11313" />
        </g>
      </g>
      <g
         style="fill:#211e1e;fill-opacity:1"
         id="g6709">
        <g
           id="use6707"
           transform="translate(208.08046,607.56018)">
          <path
             style="stroke:none"
             d="m 1.796875,-5.8125 h 1.96875 c 0.15625,0 0.1875,-0.015625 0.21875,-0.09375 l 0.375,-0.875 L 4.28125,-6.859375 C 4.125,-6.65625 4.03125,-6.59375 3.8125,-6.59375 H 1.734375 l -1.09375,2.359375 c 0,0.015625 0,0.03125 0,0.046875 0,0.046875 0.03125,0.078125 0.109375,0.078125 0.328125,0 0.71875,0.078125 1.140625,0.203125 1.140625,0.375 1.671875,0.984375 1.671875,1.96875 0,0.953125 -0.609375,1.703125 -1.390625,1.703125 -0.203125,0 -0.375,-0.0625 -0.671875,-0.28125 C 1.1875,-0.75 0.953125,-0.84375 0.75,-0.84375 c -0.296875,0 -0.4375,0.109375 -0.4375,0.359375 0,0.390625 0.46875,0.625 1.21875,0.625 0.84375,0 1.5625,-0.265625 2.0625,-0.78125 C 4.046875,-1.09375 4.25,-1.65625 4.25,-2.40625 c 0,-0.71875 -0.1875,-1.1875 -0.6875,-1.6875 -0.4375,-0.4375 -1,-0.65625 -2.171875,-0.875 z m 0,0"
             id="path11317" />
        </g>
      </g>
      <g
         style="fill:#211e1e;fill-opacity:1"
         id="g6713">
        <g
           id="use6711"
           transform="translate(213.1203,607.56018)">
          <path
             style="stroke:none"
             d="m 1.90625,-0.53125 c 0,-0.28125 -0.234375,-0.53125 -0.515625,-0.53125 -0.296875,0 -0.53125,0.25 -0.53125,0.53125 C 0.859375,-0.234375 1.09375,0 1.390625,0 1.671875,0 1.90625,-0.234375 1.90625,-0.53125 Z m 0,0"
             id="path11321" />
        </g>
      </g>
      <g
         style="fill:#211e1e;fill-opacity:1"
         id="g6717">
        <g
           id="use6715"
           transform="translate(215.88046,607.56018)">
          <path
             style="stroke:none"
             d="m 0.59375,0.21875 c 1.109375,-0.125 1.65625,-0.3125 2.34375,-0.8125 1.03125,-0.75 1.640625,-1.984375 1.640625,-3.328125 0,-1.65625 -0.921875,-2.8125 -2.203125,-2.8125 -1.1875,0 -2.078125,1 -2.078125,2.34375 0,1.21875 0.71875,2.03125 1.796875,2.03125 0.546875,0 0.96875,-0.15625 1.5,-0.578125 -0.40625,1.625 -1.515625,2.703125 -3.03125,2.953125 z m 3.015625,-3.75 c 0,0.1875 -0.046875,0.28125 -0.15625,0.375 -0.265625,0.234375 -0.640625,0.359375 -1,0.359375 -0.765625,0 -1.234375,-0.734375 -1.234375,-1.921875 0,-0.578125 0.15625,-1.171875 0.359375,-1.4375 C 1.75,-6.34375 2,-6.453125 2.296875,-6.453125 c 0.859375,0 1.3125,0.84375 1.3125,2.53125 z m 0,0"
             id="path11325" />
        </g>
      </g>
      <g
         style="fill:#211e1e;fill-opacity:1"
         id="g6721">
        <g
           id="use6719"
           transform="translate(220.92044,607.56018)">
          <path
             style="stroke:none"
             d="M 4.46875,-6.59375 H 0.78125 L 0.203125,-5.140625 0.375,-5.046875 c 0.421875,-0.6875 0.609375,-0.8125 1.15625,-0.8125 H 3.6875 l -1.96875,5.9375 H 2.359375 L 4.46875,-6.4375 Z m 0,0"
             id="path11329" />
        </g>
      </g>
      <g
         style="fill:#211e1e;fill-opacity:1"
         id="g6725">
        <g
           id="use6723"
           transform="translate(225.96046,607.56018)">
          <path
             style="stroke:none"
             d="M 4.703125,-2.296875 H 3.6875 v -4.4375 H 3.25 l -3.125,4.4375 v 0.625 H 2.921875 V 0 H 3.6875 v -1.671875 h 1.015625 z m -1.796875,0 H 0.515625 L 2.90625,-5.71875 Z m 0,0"
             id="path11333" />
        </g>
      </g>
      <g
         style="fill:#211e1e;fill-opacity:1"
         id="g6729">
        <g
           id="use6727"
           transform="translate(208.08046,619.56018)">
          <path
             style="stroke:none"
             d="M 4.453125,-6.8125 C 3.3125,-6.71875 2.734375,-6.53125 2,-6.015625 0.921875,-5.25 0.34375,-4.109375 0.34375,-2.78125 c 0,0.875 0.265625,1.75 0.6875,2.25 0.390625,0.4375 0.921875,0.671875 1.546875,0.671875 1.234375,0 2.09375,-0.953125 2.09375,-2.328125 0,-1.265625 -0.734375,-2.078125 -1.875,-2.078125 -0.4375,0 -0.65625,0.0625 -1.28125,0.453125 C 1.78125,-5.328125 2.90625,-6.40625 4.46875,-6.65625 Z m -2.046875,3 c 0.859375,0 1.359375,0.71875 1.359375,1.96875 0,1.09375 -0.390625,1.703125 -1.078125,1.703125 -0.890625,0 -1.421875,-0.9375 -1.421875,-2.484375 0,-0.5 0.078125,-0.78125 0.28125,-0.9375 C 1.75,-3.71875 2.0625,-3.8125 2.40625,-3.8125 Z m 0,0"
             id="path11337" />
        </g>
      </g>
      <g
         style="fill:#211e1e;fill-opacity:1"
         id="g6733">
        <g
           id="use6731"
           transform="translate(213.1203,619.56018)">
          <path
             style="stroke:none"
             d="m 1.90625,-0.53125 c 0,-0.28125 -0.234375,-0.53125 -0.515625,-0.53125 -0.296875,0 -0.53125,0.25 -0.53125,0.53125 C 0.859375,-0.234375 1.09375,0 1.390625,0 1.671875,0 1.90625,-0.234375 1.90625,-0.53125 Z m 0,0"
             id="path11341" />
        </g>
      </g>
      <g
         style="fill:#211e1e;fill-opacity:1"
         id="g6737">
        <g
           id="use6735"
           transform="translate(215.88046,619.56018)">
          <path
             style="stroke:none"
             d="m 2.90625,-6.734375 -1.796875,0.90625 V -5.6875 C 1.21875,-5.734375 1.328125,-5.78125 1.375,-5.796875 1.5625,-5.875 1.71875,-5.90625 1.828125,-5.90625 2.03125,-5.90625 2.125,-5.765625 2.125,-5.4375 v 4.515625 c 0,0.328125 -0.078125,0.546875 -0.234375,0.640625 -0.15625,0.09375 -0.296875,0.125 -0.71875,0.125 V 0 h 2.75 v -0.15625 c -0.78125,0 -0.9375,-0.109375 -0.9375,-0.578125 V -6.71875 Z m 0,0"
             id="path11345" />
        </g>
      </g>
      <g
         style="fill:#211e1e;fill-opacity:1"
         id="g6741">
        <g
           id="use6739"
           transform="translate(220.92044,619.56018)">
          <path
             style="stroke:none"
             d="m 1.796875,-5.8125 h 1.96875 c 0.15625,0 0.1875,-0.015625 0.21875,-0.09375 l 0.375,-0.875 L 4.28125,-6.859375 C 4.125,-6.65625 4.03125,-6.59375 3.8125,-6.59375 H 1.734375 l -1.09375,2.359375 c 0,0.015625 0,0.03125 0,0.046875 0,0.046875 0.03125,0.078125 0.109375,0.078125 0.328125,0 0.71875,0.078125 1.140625,0.203125 1.140625,0.375 1.671875,0.984375 1.671875,1.96875 0,0.953125 -0.609375,1.703125 -1.390625,1.703125 -0.203125,0 -0.375,-0.0625 -0.671875,-0.28125 C 1.1875,-0.75 0.953125,-0.84375 0.75,-0.84375 c -0.296875,0 -0.4375,0.109375 -0.4375,0.359375 0,0.390625 0.46875,0.625 1.21875,0.625 0.84375,0 1.5625,-0.265625 2.0625,-0.78125 C 4.046875,-1.09375 4.25,-1.65625 4.25,-2.40625 c 0,-0.71875 -0.1875,-1.1875 -0.6875,-1.6875 -0.4375,-0.4375 -1,-0.65625 -2.171875,-0.875 z m 0,0"
             id="path11349" />
        </g>
      </g>
      <g
         style="fill:#211e1e;fill-opacity:1"
         id="g6745">
        <g
           id="use6743"
           transform="translate(225.96046,619.56018)">
          <path
             style="stroke:none"
             d="m 1.796875,-5.8125 h 1.96875 c 0.15625,0 0.1875,-0.015625 0.21875,-0.09375 l 0.375,-0.875 L 4.28125,-6.859375 C 4.125,-6.65625 4.03125,-6.59375 3.8125,-6.59375 H 1.734375 l -1.09375,2.359375 c 0,0.015625 0,0.03125 0,0.046875 0,0.046875 0.03125,0.078125 0.109375,0.078125 0.328125,0 0.71875,0.078125 1.140625,0.203125 1.140625,0.375 1.671875,0.984375 1.671875,1.96875 0,0.953125 -0.609375,1.703125 -1.390625,1.703125 -0.203125,0 -0.375,-0.0625 -0.671875,-0.28125 C 1.1875,-0.75 0.953125,-0.84375 0.75,-0.84375 c -0.296875,0 -0.4375,0.109375 -0.4375,0.359375 0,0.390625 0.46875,0.625 1.21875,0.625 0.84375,0 1.5625,-0.265625 2.0625,-0.78125 C 4.046875,-1.09375 4.25,-1.65625 4.25,-2.40625 c 0,-0.71875 -0.1875,-1.1875 -0.6875,-1.6875 -0.4375,-0.4375 -1,-0.65625 -2.171875,-0.875 z m 0,0"
             id="path11353" />
        </g>
      </g>
      <g
         style="fill:#211e1e;fill-opacity:1"
         id="g6749">
        <g
           id="use6747"
           transform="translate(232.20036,563.76019)">
          <path
             style="stroke:none"
             d="M 5.8125,17.140625 C 5.8125,11.0625 4.71875,7.484375 4.421875,6.484375 3.734375,4.265625 2.625,1.9375 0.96875,-0.125 0.8125,-0.296875 0.78125,-0.34375 0.734375,-0.375 c -0.015625,0 -0.03125,-0.015625 -0.1875,-0.015625 -0.140625,0 -0.234375,0 -0.234375,0.09375 0,0.03125 0,0.046875 0.140625,0.234375 3.46875,4.84375 4.234375,10.8125 4.25,17.5625 0,0.140625 0.0625,0.140625 0.28125,0.140625 H 5.53125 c 0.203125,0 0.265625,0 0.28125,-0.109375 z m 0,0"
             id="path11357" />
        </g>
      </g>
      <g
         style="fill:#211e1e;fill-opacity:1"
         id="g6753">
        <g
           id="use6751"
           transform="translate(232.20036,581.28046)">
          <path
             style="stroke:none"
             d="M 5.8125,0.171875 C 5.8125,-0.09375 5.796875,-0.09375 5.53125,-0.09375 H 4.984375 c -0.265625,0 -0.28125,0 -0.28125,0.265625 V 5.8125 c 0,0.265625 0.015625,0.265625 0.28125,0.265625 H 5.53125 c 0.265625,0 0.28125,0 0.28125,-0.265625 z m 0,0"
             id="path11361" />
        </g>
      </g>
      <g
         style="fill:#211e1e;fill-opacity:1"
         id="g6757">
        <g
           id="use6755"
           transform="translate(232.20036,587.28046)">
          <path
             style="stroke:none"
             d="M 5.8125,0.171875 C 5.8125,-0.09375 5.796875,-0.09375 5.53125,-0.09375 H 4.984375 c -0.265625,0 -0.28125,0 -0.28125,0.265625 V 5.8125 c 0,0.265625 0.015625,0.265625 0.28125,0.265625 H 5.53125 c 0.265625,0 0.28125,0 0.28125,-0.265625 z m 0,0"
             id="path11365" />
        </g>
      </g>
      <g
         style="fill:#211e1e;fill-opacity:1"
         id="g6761">
        <g
           id="use6759"
           transform="translate(232.20036,593.16016)">
          <path
             style="stroke:none"
             d="M 5.8125,0.171875 C 5.8125,-0.09375 5.796875,-0.09375 5.53125,-0.09375 H 4.984375 c -0.265625,0 -0.28125,0 -0.28125,0.265625 V 5.8125 c 0,0.265625 0.015625,0.265625 0.28125,0.265625 H 5.53125 c 0.265625,0 0.28125,0 0.28125,-0.265625 z m 0,0"
             id="path11369" />
        </g>
      </g>
      <g
         style="fill:#211e1e;fill-opacity:1"
         id="g6765">
        <g
           id="use6763"
           transform="translate(232.20036,599.16016)">
          <path
             style="stroke:none"
             d="M 5.8125,0.171875 C 5.8125,-0.09375 5.796875,-0.09375 5.53125,-0.09375 H 4.984375 c -0.265625,0 -0.28125,0 -0.28125,0.265625 V 5.8125 c 0,0.265625 0.015625,0.265625 0.28125,0.265625 H 5.53125 c 0.265625,0 0.28125,0 0.28125,-0.265625 z m 0,0"
             id="path11373" />
        </g>
      </g>
      <g
         style="fill:#211e1e;fill-opacity:1"
         id="g6769">
        <g
           id="use6767"
           transform="translate(232.20036,605.52032)">
          <path
             style="stroke:none"
             d="M 5.8125,-0.390625 C 5.796875,-0.5 5.734375,-0.5 5.53125,-0.5 H 4.984375 c -0.21875,0 -0.28125,0 -0.28125,0.140625 0,1.03125 -0.015625,3.40625 -0.265625,5.875 C 3.890625,10.671875 2.578125,14.25 0.390625,17.3125 0.3125,17.390625 0.3125,17.421875 0.3125,17.4375 c 0,0.09375 0.09375,0.09375 0.234375,0.09375 0.15625,0 0.1875,0 0.203125,-0.01563 C 0.78125,17.48438 2.046875,16.03125 3.0625,14.03125 4.375,11.390625 5.203125,8.375 5.578125,4.75 5.609375,4.4375 5.8125,2.359375 5.8125,0 Z m 0,0"
             id="path11377" />
        </g>
      </g>
      <g
         style="fill:#211e1e;fill-opacity:1"
         id="g6773">
        <g
           id="use6771"
           transform="translate(281.88046,595.68048)">
          <path
             style="stroke:none"
             d="M 7.640625,-6.515625 H 5.1875 v 0.171875 c 0.578125,0.0625 0.6875,0.140625 0.6875,0.421875 0,0.140625 -0.03125,0.375 -0.109375,0.625 l -0.453125,1.625 H 2.46875 l 0.546875,-1.9375 c 0.140625,-0.515625 0.40625,-0.703125 1,-0.734375 v -0.171875 h -2.71875 v 0.171875 c 0.609375,0.046875 0.765625,0.140625 0.765625,0.421875 0,0.140625 -0.03125,0.375 -0.109375,0.625 l -1.21875,4.40625 c -0.1875,0.578125 -0.25,0.625 -0.8125,0.734375 V 0 H 2.375 V -0.15625 C 1.78125,-0.234375 1.671875,-0.3125 1.671875,-0.59375 c 0,-0.078125 0,-0.15625 0.015625,-0.21875 L 2.359375,-3.25 H 5.1875 L 4.546875,-0.890625 C 4.390625,-0.375 4.1875,-0.234375 3.53125,-0.15625 V 0 H 6.265625 V -0.15625 C 5.625,-0.21875 5.484375,-0.296875 5.484375,-0.578125 c 0,-0.09375 0.015625,-0.15625 0.03125,-0.234375 l 1.3125,-4.796875 C 7,-6.1875 7.078125,-6.25 7.640625,-6.34375 Z m 0,0"
             id="path11381" />
        </g>
      </g>
      <g
         style="fill:#211e1e;fill-opacity:1"
         id="g6777">
        <g
           id="use6775"
           transform="translate(288.84024,597.24023)">
          <path
             style="stroke:none"
             d="M 2.140625,-4.984375 0.8125,-4.3125 v 0.09375 C 0.90625,-4.25 0.984375,-4.28125 1.015625,-4.296875 1.15625,-4.34375 1.28125,-4.375 1.34375,-4.375 c 0.15625,0 0.234375,0.109375 0.234375,0.34375 v 3.34375 c 0,0.25 -0.0625,0.421875 -0.1875,0.484375 C 1.28125,-0.140625 1.1875,-0.125 0.875,-0.109375 V 0 H 2.90625 V -0.109375 C 2.328125,-0.125 2.203125,-0.1875 2.203125,-0.546875 V -4.96875 Z m 0,0"
             id="path11385" />
        </g>
      </g>
      <g
         style="fill:#211e1e;fill-opacity:1"
         id="g6781">
        <g
           id="use6779"
           transform="translate(295.20038,595.68048)">
          <path
             style="stroke:none"
             d="m 6.84375,-3.265625 c 0.15625,0 0.34375,0 0.34375,-0.1875 C 7.1875,-3.65625 7,-3.65625 6.859375,-3.65625 h -5.96875 c -0.140625,0 -0.328125,0 -0.328125,0.203125 0,0.1875 0.1875,0.1875 0.328125,0.1875 z m 0.015625,1.9375 c 0.140625,0 0.328125,0 0.328125,-0.203125 0,-0.1875 -0.1875,-0.1875 -0.34375,-0.1875 H 0.890625 c -0.140625,0 -0.328125,0 -0.328125,0.1875 0,0.203125 0.1875,0.203125 0.328125,0.203125 z m 0,0"
             id="path11389" />
        </g>
      </g>
      <g
         style="fill:#211e1e;fill-opacity:1"
         id="g6785">
        <g
           id="use6783"
           transform="translate(305.16055,587.64026)">
          <path
             style="stroke:none"
             d="m 4.109375,11.453125 c 0,-0.03125 -0.015625,-0.0625 -0.03125,-0.09375 C 3.625,10.875 2.9375,10.0625 2.515625,8.4375 2.296875,7.53125 2.203125,6.515625 2.203125,5.578125 c 0,-2.625 0.625,-4.453125 1.828125,-5.75 0.078125,-0.09375 0.078125,-0.109375 0.078125,-0.125 C 4.109375,-0.40625 4.03125,-0.40625 4,-0.40625 c -0.15625,0 -0.6875,0.609375 -0.8125,0.75 -1.03125,1.21875 -1.671875,3 -1.671875,5.234375 0,1.40625 0.25,3.40625 1.5625,5.09375 0.09375,0.125 0.734375,0.875 0.921875,0.875 0.03125,0 0.109375,0 0.109375,-0.09375 z m 0,0"
             id="path11393" />
        </g>
      </g>
      <g
         style="fill:#211e1e;fill-opacity:1"
         id="g6789">
        <g
           id="use6787"
           transform="translate(311.28046,595.56018)">
          <path
             style="stroke:none"
             d="m 2.53125,-6.734375 c -0.546875,0 -0.96875,0.171875 -1.328125,0.515625 -0.578125,0.5625 -0.96875,1.703125 -0.96875,2.875 0,1.078125 0.328125,2.25 0.796875,2.8125 0.375,0.4375 0.875,0.671875 1.46875,0.671875 0.5,0 0.921875,-0.171875 1.28125,-0.515625 C 4.359375,-0.921875 4.75,-2.078125 4.75,-3.296875 c 0,-2.03125 -0.90625,-3.4375 -2.21875,-3.4375 z m -0.03125,0.25 c 0.84375,0 1.28125,1.125 1.28125,3.21875 0,2.078125 -0.4375,3.140625 -1.28125,3.140625 -0.859375,0 -1.296875,-1.0625 -1.296875,-3.140625 0,-2.109375 0.4375,-3.21875 1.296875,-3.21875 z m 0,0"
             id="path11397" />
        </g>
      </g>
      <g
         style="fill:#211e1e;fill-opacity:1"
         id="g6793">
        <g
           id="use6791"
           transform="translate(316.32031,595.56018)">
          <path
             style="stroke:none"
             d="m 1.90625,-0.53125 c 0,-0.28125 -0.234375,-0.53125 -0.515625,-0.53125 -0.296875,0 -0.53125,0.25 -0.53125,0.53125 C 0.859375,-0.234375 1.09375,0 1.390625,0 1.671875,0 1.90625,-0.234375 1.90625,-0.53125 Z m 0,0"
             id="path11401" />
        </g>
      </g>
      <g
         style="fill:#211e1e;fill-opacity:1"
         id="g6797">
        <g
           id="use6795"
           transform="translate(319.08047,595.56018)">
          <path
             style="stroke:none"
             d="M 4.453125,-6.8125 C 3.3125,-6.71875 2.734375,-6.53125 2,-6.015625 0.921875,-5.25 0.34375,-4.109375 0.34375,-2.78125 c 0,0.875 0.265625,1.75 0.6875,2.25 0.390625,0.4375 0.921875,0.671875 1.546875,0.671875 1.234375,0 2.09375,-0.953125 2.09375,-2.328125 0,-1.265625 -0.734375,-2.078125 -1.875,-2.078125 -0.4375,0 -0.65625,0.0625 -1.28125,0.453125 C 1.78125,-5.328125 2.90625,-6.40625 4.46875,-6.65625 Z m -2.046875,3 c 0.859375,0 1.359375,0.71875 1.359375,1.96875 0,1.09375 -0.390625,1.703125 -1.078125,1.703125 -0.890625,0 -1.421875,-0.9375 -1.421875,-2.484375 0,-0.5 0.078125,-0.78125 0.28125,-0.9375 C 1.75,-3.71875 2.0625,-3.8125 2.40625,-3.8125 Z m 0,0"
             id="path11405" />
        </g>
      </g>
      <g
         style="fill:#211e1e;fill-opacity:1"
         id="g6801">
        <g
           id="use6799"
           transform="translate(324.12045,595.56018)">
          <path
             style="stroke:none"
             d="M 4.46875,-6.59375 H 0.78125 L 0.203125,-5.140625 0.375,-5.046875 c 0.421875,-0.6875 0.609375,-0.8125 1.15625,-0.8125 H 3.6875 l -1.96875,5.9375 H 2.359375 L 4.46875,-6.4375 Z m 0,0"
             id="path11409" />
        </g>
      </g>
      <g
         style="fill:#211e1e;fill-opacity:1"
         id="g6805">
        <g
           id="use6803"
           transform="translate(329.16046,595.56018)">
          <path
             style="stroke:none"
             d="m 2.53125,-6.734375 c -0.546875,0 -0.96875,0.171875 -1.328125,0.515625 -0.578125,0.5625 -0.96875,1.703125 -0.96875,2.875 0,1.078125 0.328125,2.25 0.796875,2.8125 0.375,0.4375 0.875,0.671875 1.46875,0.671875 0.5,0 0.921875,-0.171875 1.28125,-0.515625 C 4.359375,-0.921875 4.75,-2.078125 4.75,-3.296875 c 0,-2.03125 -0.90625,-3.4375 -2.21875,-3.4375 z m -0.03125,0.25 c 0.84375,0 1.28125,1.125 1.28125,3.21875 0,2.078125 -0.4375,3.140625 -1.28125,3.140625 -0.859375,0 -1.296875,-1.0625 -1.296875,-3.140625 0,-2.109375 0.4375,-3.21875 1.296875,-3.21875 z m 0,0"
             id="path11413" />
        </g>
      </g>
      <g
         style="fill:#211e1e;fill-opacity:1"
         id="g6809">
        <g
           id="use6807"
           transform="translate(334.20047,595.56018)">
          <path
             style="stroke:none"
             d="m 0.59375,0.21875 c 1.109375,-0.125 1.65625,-0.3125 2.34375,-0.8125 1.03125,-0.75 1.640625,-1.984375 1.640625,-3.328125 0,-1.65625 -0.921875,-2.8125 -2.203125,-2.8125 -1.1875,0 -2.078125,1 -2.078125,2.34375 0,1.21875 0.71875,2.03125 1.796875,2.03125 0.546875,0 0.96875,-0.15625 1.5,-0.578125 -0.40625,1.625 -1.515625,2.703125 -3.03125,2.953125 z m 3.015625,-3.75 c 0,0.1875 -0.046875,0.28125 -0.15625,0.375 -0.265625,0.234375 -0.640625,0.359375 -1,0.359375 -0.765625,0 -1.234375,-0.734375 -1.234375,-1.921875 0,-0.578125 0.15625,-1.171875 0.359375,-1.4375 C 1.75,-6.34375 2,-6.453125 2.296875,-6.453125 c 0.859375,0 1.3125,0.84375 1.3125,2.53125 z m 0,0"
             id="path11417" />
        </g>
      </g>
      <g
         style="fill:#211e1e;fill-opacity:1"
         id="g6813">
        <g
           id="use6811"
           transform="translate(341.88046,595.56018)">
          <path
             style="stroke:none"
             d="m 2.53125,-6.734375 c -0.546875,0 -0.96875,0.171875 -1.328125,0.515625 -0.578125,0.5625 -0.96875,1.703125 -0.96875,2.875 0,1.078125 0.328125,2.25 0.796875,2.8125 0.375,0.4375 0.875,0.671875 1.46875,0.671875 0.5,0 0.921875,-0.171875 1.28125,-0.515625 C 4.359375,-0.921875 4.75,-2.078125 4.75,-3.296875 c 0,-2.03125 -0.90625,-3.4375 -2.21875,-3.4375 z m -0.03125,0.25 c 0.84375,0 1.28125,1.125 1.28125,3.21875 0,2.078125 -0.4375,3.140625 -1.28125,3.140625 -0.859375,0 -1.296875,-1.0625 -1.296875,-3.140625 0,-2.109375 0.4375,-3.21875 1.296875,-3.21875 z m 0,0"
             id="path11421" />
        </g>
      </g>
      <g
         style="fill:#211e1e;fill-opacity:1"
         id="g6817">
        <g
           id="use6815"
           transform="translate(346.92026,595.56018)">
          <path
             style="stroke:none"
             d="m 1.90625,-0.53125 c 0,-0.28125 -0.234375,-0.53125 -0.515625,-0.53125 -0.296875,0 -0.53125,0.25 -0.53125,0.53125 C 0.859375,-0.234375 1.09375,0 1.390625,0 1.671875,0 1.90625,-0.234375 1.90625,-0.53125 Z m 0,0"
             id="path11425" />
        </g>
      </g>
      <g
         style="fill:#211e1e;fill-opacity:1"
         id="g6821">
        <g
           id="use6819"
           transform="translate(349.68042,595.56018)">
          <path
             style="stroke:none"
             d="M 4.703125,-2.296875 H 3.6875 v -4.4375 H 3.25 l -3.125,4.4375 v 0.625 H 2.921875 V 0 H 3.6875 v -1.671875 h 1.015625 z m -1.796875,0 H 0.515625 L 2.90625,-5.71875 Z m 0,0"
             id="path11429" />
        </g>
      </g>
      <g
         style="fill:#211e1e;fill-opacity:1"
         id="g6825">
        <g
           id="use6823"
           transform="translate(354.72043,595.56018)">
          <path
             style="stroke:none"
             d="m 2.890625,-3.703125 c 0.984375,-0.53125 1.34375,-0.9375 1.34375,-1.625 0,-0.8125 -0.71875,-1.40625 -1.71875,-1.40625 -1.09375,0 -1.890625,0.65625 -1.890625,1.578125 0,0.640625 0.1875,0.921875 1.234375,1.84375 C 0.78125,-2.5 0.5625,-2.1875 0.5625,-1.5 c 0,0.96875 0.78125,1.640625 1.90625,1.640625 1.203125,0 1.96875,-0.65625 1.96875,-1.6875 0,-0.765625 -0.34375,-1.25 -1.546875,-2.15625 z m -0.171875,1.03125 c 0.71875,0.515625 0.953125,0.875 0.953125,1.4375 0,0.640625 -0.4375,1.09375 -1.09375,1.09375 -0.75,0 -1.265625,-0.578125 -1.265625,-1.4375 0,-0.640625 0.21875,-1.0625 0.796875,-1.53125 z M 2.609375,-3.875 c -0.890625,-0.578125 -1.25,-1.046875 -1.25,-1.59375 0,-0.578125 0.4375,-0.984375 1.078125,-0.984375 0.671875,0 1.09375,0.4375 1.09375,1.125 0,0.5625 -0.265625,1.015625 -0.84375,1.390625 -0.046875,0.03125 -0.046875,0.03125 -0.078125,0.0625 z m 0,0"
             id="path11433" />
        </g>
      </g>
      <g
         style="fill:#211e1e;fill-opacity:1"
         id="g6829">
        <g
           id="use6827"
           transform="translate(359.76044,595.56018)">
          <path
             style="stroke:none"
             d="m 0.59375,0.21875 c 1.109375,-0.125 1.65625,-0.3125 2.34375,-0.8125 1.03125,-0.75 1.640625,-1.984375 1.640625,-3.328125 0,-1.65625 -0.921875,-2.8125 -2.203125,-2.8125 -1.1875,0 -2.078125,1 -2.078125,2.34375 0,1.21875 0.71875,2.03125 1.796875,2.03125 0.546875,0 0.96875,-0.15625 1.5,-0.578125 -0.40625,1.625 -1.515625,2.703125 -3.03125,2.953125 z m 3.015625,-3.75 c 0,0.1875 -0.046875,0.28125 -0.15625,0.375 -0.265625,0.234375 -0.640625,0.359375 -1,0.359375 -0.765625,0 -1.234375,-0.734375 -1.234375,-1.921875 0,-0.578125 0.15625,-1.171875 0.359375,-1.4375 C 1.75,-6.34375 2,-6.453125 2.296875,-6.453125 c 0.859375,0 1.3125,0.84375 1.3125,2.53125 z m 0,0"
             id="path11437" />
        </g>
      </g>
      <g
         style="fill:#211e1e;fill-opacity:1"
         id="g6833">
        <g
           id="use6831"
           transform="translate(364.80042,595.56018)">
          <path
             style="stroke:none"
             d="m 2.890625,-3.703125 c 0.984375,-0.53125 1.34375,-0.9375 1.34375,-1.625 0,-0.8125 -0.71875,-1.40625 -1.71875,-1.40625 -1.09375,0 -1.890625,0.65625 -1.890625,1.578125 0,0.640625 0.1875,0.921875 1.234375,1.84375 C 0.78125,-2.5 0.5625,-2.1875 0.5625,-1.5 c 0,0.96875 0.78125,1.640625 1.90625,1.640625 1.203125,0 1.96875,-0.65625 1.96875,-1.6875 0,-0.765625 -0.34375,-1.25 -1.546875,-2.15625 z m -0.171875,1.03125 c 0.71875,0.515625 0.953125,0.875 0.953125,1.4375 0,0.640625 -0.4375,1.09375 -1.09375,1.09375 -0.75,0 -1.265625,-0.578125 -1.265625,-1.4375 0,-0.640625 0.21875,-1.0625 0.796875,-1.53125 z M 2.609375,-3.875 c -0.890625,-0.578125 -1.25,-1.046875 -1.25,-1.59375 0,-0.578125 0.4375,-0.984375 1.078125,-0.984375 0.671875,0 1.09375,0.4375 1.09375,1.125 0,0.5625 -0.265625,1.015625 -0.84375,1.390625 -0.046875,0.03125 -0.046875,0.03125 -0.078125,0.0625 z m 0,0"
             id="path11441" />
        </g>
      </g>
      <g
         style="fill:#211e1e;fill-opacity:1"
         id="g6837">
        <g
           id="use6835"
           transform="translate(372.60034,595.56018)">
          <path
             style="stroke:none"
             d="m 2.53125,-6.734375 c -0.546875,0 -0.96875,0.171875 -1.328125,0.515625 -0.578125,0.5625 -0.96875,1.703125 -0.96875,2.875 0,1.078125 0.328125,2.25 0.796875,2.8125 0.375,0.4375 0.875,0.671875 1.46875,0.671875 0.5,0 0.921875,-0.171875 1.28125,-0.515625 C 4.359375,-0.921875 4.75,-2.078125 4.75,-3.296875 c 0,-2.03125 -0.90625,-3.4375 -2.21875,-3.4375 z m -0.03125,0.25 c 0.84375,0 1.28125,1.125 1.28125,3.21875 0,2.078125 -0.4375,3.140625 -1.28125,3.140625 -0.859375,0 -1.296875,-1.0625 -1.296875,-3.140625 0,-2.109375 0.4375,-3.21875 1.296875,-3.21875 z m 0,0"
             id="path11445" />
        </g>
      </g>
      <g
         style="fill:#211e1e;fill-opacity:1"
         id="g6841">
        <g
           id="use6839"
           transform="translate(377.64023,595.56018)">
          <path
             style="stroke:none"
             d="m 1.90625,-0.53125 c 0,-0.28125 -0.234375,-0.53125 -0.515625,-0.53125 -0.296875,0 -0.53125,0.25 -0.53125,0.53125 C 0.859375,-0.234375 1.09375,0 1.390625,0 1.671875,0 1.90625,-0.234375 1.90625,-0.53125 Z m 0,0"
             id="path11449" />
        </g>
      </g>
      <g
         style="fill:#211e1e;fill-opacity:1"
         id="g6845">
        <g
           id="use6843"
           transform="translate(380.40039,595.56018)">
          <path
             style="stroke:none"
             d="M 4.703125,-2.296875 H 3.6875 v -4.4375 H 3.25 l -3.125,4.4375 v 0.625 H 2.921875 V 0 H 3.6875 v -1.671875 h 1.015625 z m -1.796875,0 H 0.515625 L 2.90625,-5.71875 Z m 0,0"
             id="path11453" />
        </g>
      </g>
      <g
         style="fill:#211e1e;fill-opacity:1"
         id="g6849">
        <g
           id="use6847"
           transform="translate(385.44037,595.56018)">
          <path
             style="stroke:none"
             d="m 2.53125,-6.734375 c -0.546875,0 -0.96875,0.171875 -1.328125,0.515625 -0.578125,0.5625 -0.96875,1.703125 -0.96875,2.875 0,1.078125 0.328125,2.25 0.796875,2.8125 0.375,0.4375 0.875,0.671875 1.46875,0.671875 0.5,0 0.921875,-0.171875 1.28125,-0.515625 C 4.359375,-0.921875 4.75,-2.078125 4.75,-3.296875 c 0,-2.03125 -0.90625,-3.4375 -2.21875,-3.4375 z m -0.03125,0.25 c 0.84375,0 1.28125,1.125 1.28125,3.21875 0,2.078125 -0.4375,3.140625 -1.28125,3.140625 -0.859375,0 -1.296875,-1.0625 -1.296875,-3.140625 0,-2.109375 0.4375,-3.21875 1.296875,-3.21875 z m 0,0"
             id="path11457" />
        </g>
      </g>
      <g
         style="fill:#211e1e;fill-opacity:1"
         id="g6853">
        <g
           id="use6851"
           transform="translate(390.48038,595.56018)">
          <path
             style="stroke:none"
             d="M 4.453125,-6.8125 C 3.3125,-6.71875 2.734375,-6.53125 2,-6.015625 0.921875,-5.25 0.34375,-4.109375 0.34375,-2.78125 c 0,0.875 0.265625,1.75 0.6875,2.25 0.390625,0.4375 0.921875,0.671875 1.546875,0.671875 1.234375,0 2.09375,-0.953125 2.09375,-2.328125 0,-1.265625 -0.734375,-2.078125 -1.875,-2.078125 -0.4375,0 -0.65625,0.0625 -1.28125,0.453125 C 1.78125,-5.328125 2.90625,-6.40625 4.46875,-6.65625 Z m -2.046875,3 c 0.859375,0 1.359375,0.71875 1.359375,1.96875 0,1.09375 -0.390625,1.703125 -1.078125,1.703125 -0.890625,0 -1.421875,-0.9375 -1.421875,-2.484375 0,-0.5 0.078125,-0.78125 0.28125,-0.9375 C 1.75,-3.71875 2.0625,-3.8125 2.40625,-3.8125 Z m 0,0"
             id="path11461" />
        </g>
      </g>
      <g
         style="fill:#211e1e;fill-opacity:1"
         id="g6857">
        <g
           id="use6855"
           transform="translate(398.28046,595.56018)">
          <path
             style="stroke:none"
             d="m 2.53125,-6.734375 c -0.546875,0 -0.96875,0.171875 -1.328125,0.515625 -0.578125,0.5625 -0.96875,1.703125 -0.96875,2.875 0,1.078125 0.328125,2.25 0.796875,2.8125 0.375,0.4375 0.875,0.671875 1.46875,0.671875 0.5,0 0.921875,-0.171875 1.28125,-0.515625 C 4.359375,-0.921875 4.75,-2.078125 4.75,-3.296875 c 0,-2.03125 -0.90625,-3.4375 -2.21875,-3.4375 z m -0.03125,0.25 c 0.84375,0 1.28125,1.125 1.28125,3.21875 0,2.078125 -0.4375,3.140625 -1.28125,3.140625 -0.859375,0 -1.296875,-1.0625 -1.296875,-3.140625 0,-2.109375 0.4375,-3.21875 1.296875,-3.21875 z m 0,0"
             id="path11465" />
        </g>
      </g>
      <g
         style="fill:#211e1e;fill-opacity:1"
         id="g6861">
        <g
           id="use6859"
           transform="translate(403.32028,595.56018)">
          <path
             style="stroke:none"
             d="m 1.90625,-0.53125 c 0,-0.28125 -0.234375,-0.53125 -0.515625,-0.53125 -0.296875,0 -0.53125,0.25 -0.53125,0.53125 C 0.859375,-0.234375 1.09375,0 1.390625,0 1.671875,0 1.90625,-0.234375 1.90625,-0.53125 Z m 0,0"
             id="path11469" />
        </g>
      </g>
      <g
         style="fill:#211e1e;fill-opacity:1"
         id="g6865">
        <g
           id="use6863"
           transform="translate(406.08044,595.56018)">
          <path
             style="stroke:none"
             d="m 1.53125,-3.296875 c 0.578125,0 0.8125,0.03125 1.046875,0.109375 0.625,0.234375 1.015625,0.796875 1.015625,1.484375 0,0.828125 -0.578125,1.484375 -1.3125,1.484375 -0.265625,0 -0.46875,-0.078125 -0.828125,-0.3125 -0.3125,-0.171875 -0.46875,-0.25 -0.640625,-0.25 -0.234375,0 -0.390625,0.140625 -0.390625,0.359375 0,0.34375 0.4375,0.5625 1.140625,0.5625 0.765625,0 1.546875,-0.265625 2.015625,-0.671875 C 4.046875,-0.9375 4.3125,-1.515625 4.3125,-2.1875 c 0,-0.5 -0.171875,-0.96875 -0.453125,-1.28125 C 3.65625,-3.6875 3.46875,-3.8125 3.03125,-4 c 0.6875,-0.46875 0.9375,-0.828125 0.9375,-1.375 0,-0.8125 -0.640625,-1.359375 -1.5625,-1.359375 -0.5,0 -0.9375,0.171875 -1.296875,0.484375 -0.296875,0.265625 -0.4375,0.53125 -0.65625,1.125 L 0.59375,-5.078125 C 1,-5.8125 1.453125,-6.140625 2.078125,-6.140625 c 0.65625,0 1.109375,0.4375 1.109375,1.0625 0,0.359375 -0.15625,0.71875 -0.40625,0.96875 -0.296875,0.296875 -0.578125,0.453125 -1.25,0.6875 z m 0,0"
             id="path11473" />
        </g>
      </g>
      <g
         style="fill:#211e1e;fill-opacity:1"
         id="g6869">
        <g
           id="use6867"
           transform="translate(411.12045,595.56018)">
          <path
             style="stroke:none"
             d="m 2.890625,-3.703125 c 0.984375,-0.53125 1.34375,-0.9375 1.34375,-1.625 0,-0.8125 -0.71875,-1.40625 -1.71875,-1.40625 -1.09375,0 -1.890625,0.65625 -1.890625,1.578125 0,0.640625 0.1875,0.921875 1.234375,1.84375 C 0.78125,-2.5 0.5625,-2.1875 0.5625,-1.5 c 0,0.96875 0.78125,1.640625 1.90625,1.640625 1.203125,0 1.96875,-0.65625 1.96875,-1.6875 0,-0.765625 -0.34375,-1.25 -1.546875,-2.15625 z m -0.171875,1.03125 c 0.71875,0.515625 0.953125,0.875 0.953125,1.4375 0,0.640625 -0.4375,1.09375 -1.09375,1.09375 -0.75,0 -1.265625,-0.578125 -1.265625,-1.4375 0,-0.640625 0.21875,-1.0625 0.796875,-1.53125 z M 2.609375,-3.875 c -0.890625,-0.578125 -1.25,-1.046875 -1.25,-1.59375 0,-0.578125 0.4375,-0.984375 1.078125,-0.984375 0.671875,0 1.09375,0.4375 1.09375,1.125 0,0.5625 -0.265625,1.015625 -0.84375,1.390625 -0.046875,0.03125 -0.046875,0.03125 -0.078125,0.0625 z m 0,0"
             id="path11477" />
        </g>
      </g>
      <g
         style="fill:#211e1e;fill-opacity:1"
         id="g6873">
        <g
           id="use6871"
           transform="translate(416.16046,595.56018)">
          <path
             style="stroke:none"
             d="m 2.90625,-6.734375 -1.796875,0.90625 V -5.6875 C 1.21875,-5.734375 1.328125,-5.78125 1.375,-5.796875 1.5625,-5.875 1.71875,-5.90625 1.828125,-5.90625 2.03125,-5.90625 2.125,-5.765625 2.125,-5.4375 v 4.515625 c 0,0.328125 -0.078125,0.546875 -0.234375,0.640625 -0.15625,0.09375 -0.296875,0.125 -0.71875,0.125 V 0 h 2.75 v -0.15625 c -0.78125,0 -0.9375,-0.109375 -0.9375,-0.578125 V -6.71875 Z m 0,0"
             id="path11481" />
        </g>
      </g>
      <g
         style="fill:#211e1e;fill-opacity:1"
         id="g6877">
        <g
           id="use6875"
           transform="translate(422.40036,587.64026)">
          <path
             style="stroke:none"
             d="m 3.046875,5.578125 c 0,-1.40625 -0.25,-3.421875 -1.5625,-5.09375 -0.09375,-0.125 -0.75,-0.890625 -0.921875,-0.890625 -0.046875,0 -0.125,0.03125 -0.125,0.109375 0,0.03125 0.015625,0.0625 0.0625,0.09375 C 0.984375,0.3125 1.625,1.125 2.03125,2.71875 2.265625,3.625 2.359375,4.640625 2.359375,5.578125 c 0,1 -0.09375,2.015625 -0.359375,3 -0.375,1.390625 -0.96875,2.1875 -1.46875,2.75 -0.09375,0.09375 -0.09375,0.109375 -0.09375,0.125 0,0.07813 0.078125,0.09375 0.125,0.09375 0.140625,0 0.6875,-0.59375 0.8125,-0.734375 1.015625,-1.21875 1.671875,-3 1.671875,-5.234375 z m 0,0"
             id="path11485" />
        </g>
      </g>
    </g>
  </g>
</svg>
