<?xml version="1.0" encoding="UTF-8" standalone="no"?>
<svg
   width="81.099579mm"
   height="21.054369mm"
   viewBox="0 0 81.099579 21.054369"
   version="1.1"
   id="svg10366"
   xmlns="http://www.w3.org/2000/svg"
   xmlns:svg="http://www.w3.org/2000/svg">
  <defs
     id="defs10363" />
  <g
     id="layer1"
     transform="translate(-50.263671,-144.82666)">
    <g
       id="g9368"
       transform="matrix(0.35277777,0,0,0.35277777,-14.620739,110.97073)">
      <g
         style="fill:#211e1e;fill-opacity:1"
         id="g545">
        <g
           id="use543"
           transform="translate(184.43994,128.28011)">
          <path
             style="stroke:none"
             d="M 5.625,-0.15625 C 5.046875,-0.203125 5,-0.296875 4.859375,-1.015625 l -0.9375,-5.640625 h -0.25 L 0.78125,-1.671875 c -0.796875,1.328125 -0.890625,1.4375 -1.296875,1.515625 V 0 h 1.875 v -0.15625 c -0.515625,-0.046875 -0.59375,-0.109375 -0.59375,-0.359375 0,-0.1875 0.03125,-0.265625 0.203125,-0.609375 l 0.5625,-1.125 h 2.203125 l 0.1875,1.296875 c 0.015625,0.09375 0.03125,0.1875 0.03125,0.265625 0,0.375 -0.140625,0.46875 -0.78125,0.53125 V 0 H 5.625 Z m -3.875,-2.453125 1.484375,-2.59375 0.4375,2.59375 z m 0,0"
             id="path9370" />
        </g>
      </g>
      <g
         style="fill:#211e1e;fill-opacity:1"
         id="g549">
        <g
           id="use547"
           transform="translate(192.00011,128.28011)">
          <path
             style="stroke:none"
             d="m 6.5625,-2.296875 c 0.171875,0 0.359375,0 0.359375,-0.203125 0,-0.1875 -0.1875,-0.1875 -0.359375,-0.1875 H 1.171875 c -0.171875,0 -0.34375,0 -0.34375,0.1875 0,0.203125 0.171875,0.203125 0.34375,0.203125 z m 0,0"
             id="path9374" />
        </g>
      </g>
      <g
         style="fill:#211e1e;fill-opacity:1"
         id="g553">
        <g
           id="use551"
           transform="translate(200.76027,128.28011)">
          <path
             style="stroke:none"
             d="M 9.03125,-6.515625 H 7.1875 v 0.171875 c 0.53125,0.046875 0.640625,0.109375 0.640625,0.390625 0,0.15625 -0.078125,0.40625 -0.203125,0.671875 L 5.765625,-1.609375 5.359375,-5.625 v -0.140625 c 0,-0.40625 0.140625,-0.53125 0.671875,-0.578125 v -0.171875 h -2.375 v 0.171875 c 0.578125,0.015625 0.6875,0.078125 0.75,0.578125 L 4.5,-5.078125 2.78125,-1.609375 2.34375,-5.65625 c -0.015625,-0.0625 -0.015625,-0.125 -0.015625,-0.140625 0,-0.390625 0.125,-0.484375 0.734375,-0.546875 V -6.515625 H 0.703125 V -6.34375 C 1.03125,-6.3125 1.125,-6.28125 1.21875,-6.1875 1.328125,-6.078125 1.375,-5.890625 1.5,-4.96875 l 0.609375,5.140625 h 0.1875 L 4.515625,-4.34375 H 4.5625 l 0.5,4.515625 H 5.265625 L 8.28125,-5.625 c 0.265625,-0.515625 0.375,-0.609375 0.75,-0.71875 z m 0,0"
             id="path9378" />
        </g>
      </g>
      <g
         style="fill:#211e1e;fill-opacity:1"
         id="g557">
        <g
           id="use555"
           transform="translate(208.56026,129.83987)">
          <path
             style="stroke:none"
             d="M 2.140625,-4.984375 0.8125,-4.3125 v 0.09375 C 0.90625,-4.25 0.984375,-4.28125 1.015625,-4.296875 1.15625,-4.34375 1.28125,-4.375 1.34375,-4.375 c 0.15625,0 0.234375,0.109375 0.234375,0.34375 v 3.34375 c 0,0.25 -0.0625,0.421875 -0.1875,0.484375 C 1.28125,-0.140625 1.1875,-0.125 0.875,-0.109375 V 0 H 2.90625 V -0.109375 C 2.328125,-0.125 2.203125,-0.1875 2.203125,-0.546875 V -4.96875 Z m 0,0"
             id="path9382" />
        </g>
      </g>
      <g
         style="fill:#211e1e;fill-opacity:1"
         id="g561">
        <g
           id="use559"
           transform="translate(212.52003,128.28011)">
          <path
             style="stroke:none"
             d="M 7.640625,-6.515625 H 5.1875 v 0.171875 c 0.578125,0.0625 0.6875,0.140625 0.6875,0.421875 0,0.140625 -0.03125,0.375 -0.109375,0.625 l -0.453125,1.625 H 2.46875 l 0.546875,-1.9375 c 0.140625,-0.515625 0.40625,-0.703125 1,-0.734375 v -0.171875 h -2.71875 v 0.171875 c 0.609375,0.046875 0.765625,0.140625 0.765625,0.421875 0,0.140625 -0.03125,0.375 -0.109375,0.625 l -1.21875,4.40625 c -0.1875,0.578125 -0.25,0.625 -0.8125,0.734375 V 0 H 2.375 V -0.15625 C 1.78125,-0.234375 1.671875,-0.3125 1.671875,-0.59375 c 0,-0.078125 0,-0.15625 0.015625,-0.21875 L 2.359375,-3.25 H 5.1875 L 4.546875,-0.890625 C 4.390625,-0.375 4.1875,-0.234375 3.53125,-0.15625 V 0 H 6.265625 V -0.15625 C 5.625,-0.21875 5.484375,-0.296875 5.484375,-0.578125 c 0,-0.09375 0.015625,-0.15625 0.03125,-0.234375 l 1.3125,-4.796875 C 7,-6.1875 7.078125,-6.25 7.640625,-6.34375 Z m 0,0"
             id="path9386" />
        </g>
      </g>
      <g
         style="fill:#211e1e;fill-opacity:1"
         id="g565">
        <g
           id="use563"
           transform="translate(219.48019,129.83987)">
          <path
             style="stroke:none"
             d="M 2.140625,-4.984375 0.8125,-4.3125 v 0.09375 C 0.90625,-4.25 0.984375,-4.28125 1.015625,-4.296875 1.15625,-4.34375 1.28125,-4.375 1.34375,-4.375 c 0.15625,0 0.234375,0.109375 0.234375,0.34375 v 3.34375 c 0,0.25 -0.0625,0.421875 -0.1875,0.484375 C 1.28125,-0.140625 1.1875,-0.125 0.875,-0.109375 V 0 H 2.90625 V -0.109375 C 2.328125,-0.125 2.203125,-0.1875 2.203125,-0.546875 V -4.96875 Z m 0,0"
             id="path9390" />
        </g>
      </g>
      <g
         style="fill:#211e1e;fill-opacity:1"
         id="g569">
        <g
           id="use567"
           transform="translate(225.83997,128.28011)">
          <path
             style="stroke:none"
             d="m 6.84375,-3.265625 c 0.15625,0 0.34375,0 0.34375,-0.1875 C 7.1875,-3.65625 7,-3.65625 6.859375,-3.65625 h -5.96875 c -0.140625,0 -0.328125,0 -0.328125,0.203125 0,0.1875 0.1875,0.1875 0.328125,0.1875 z m 0.015625,1.9375 c 0.140625,0 0.328125,0 0.328125,-0.203125 0,-0.1875 -0.1875,-0.1875 -0.34375,-0.1875 H 0.890625 c -0.140625,0 -0.328125,0 -0.328125,0.1875 0,0.203125 0.1875,0.203125 0.328125,0.203125 z m 0,0"
             id="path9394" />
        </g>
      </g>
      <g
         style="fill:#211e1e;fill-opacity:1"
         id="g573">
        <g
           id="use571"
           transform="translate(235.80013,96.360199)">
          <path
             style="stroke:none"
             d="M 3.734375,17.640625 C 3.953125,17.640625 4,17.640625 4,17.5 4.03125,10.515625 4.828125,4.71875 8.328125,-0.15625 c 0.0625,-0.09375 0.0625,-0.109375 0.0625,-0.140625 0,-0.09375 -0.0625,-0.09375 -0.21875,-0.09375 -0.171875,0 -0.1875,0 -0.203125,0.015625 -0.046875,0.03125 -1.3125,1.484375 -2.3125,3.5 -1.3125,2.625 -2.140625,5.640625 -2.515625,9.28125 -0.03125,0.296875 -0.234375,2.375 -0.234375,4.734375 v 0.390625 c 0,0.109375 0.0625,0.109375 0.28125,0.109375 z m 0,0"
             id="path9398" />
        </g>
      </g>
      <g
         style="fill:#211e1e;fill-opacity:1"
         id="g577">
        <g
           id="use575"
           transform="translate(235.80013,113.8801)">
          <path
             style="stroke:none"
             d="M 4,0.171875 C 4,-0.09375 4,-0.09375 3.734375,-0.09375 H 3.1875 c -0.28125,0 -0.28125,0 -0.28125,0.265625 V 5.8125 c 0,0.265625 0,0.265625 0.28125,0.265625 H 3.734375 C 4,6.078125 4,6.078125 4,5.8125 Z m 0,0"
             id="path9402" />
        </g>
      </g>
      <g
         style="fill:#211e1e;fill-opacity:1"
         id="g581">
        <g
           id="use579"
           transform="translate(235.80013,119.8801)">
          <path
             style="stroke:none"
             d="M 4,0.171875 C 4,-0.09375 4,-0.09375 3.734375,-0.09375 H 3.1875 c -0.28125,0 -0.28125,0 -0.28125,0.265625 V 5.8125 c 0,0.265625 0,0.265625 0.28125,0.265625 H 3.734375 C 4,6.078125 4,6.078125 4,5.8125 Z m 0,0"
             id="path9406" />
        </g>
      </g>
      <g
         style="fill:#211e1e;fill-opacity:1"
         id="g585">
        <g
           id="use583"
           transform="translate(235.80013,125.76018)">
          <path
             style="stroke:none"
             d="M 4,0.171875 C 4,-0.09375 4,-0.09375 3.734375,-0.09375 H 3.1875 c -0.28125,0 -0.28125,0 -0.28125,0.265625 V 5.8125 c 0,0.265625 0,0.265625 0.28125,0.265625 H 3.734375 C 4,6.078125 4,6.078125 4,5.8125 Z m 0,0"
             id="path9410" />
        </g>
      </g>
      <g
         style="fill:#211e1e;fill-opacity:1"
         id="g589">
        <g
           id="use587"
           transform="translate(235.80013,131.76018)">
          <path
             style="stroke:none"
             d="M 4,0.171875 C 4,-0.09375 4,-0.09375 3.734375,-0.09375 H 3.1875 c -0.28125,0 -0.28125,0 -0.28125,0.265625 V 5.8125 c 0,0.265625 0,0.265625 0.28125,0.265625 H 3.734375 C 4,6.078125 4,6.078125 4,5.8125 Z m 0,0"
             id="path9414" />
        </g>
      </g>
      <g
         style="fill:#211e1e;fill-opacity:1"
         id="g593">
        <g
           id="use591"
           transform="translate(235.80013,138.11995)">
          <path
             style="stroke:none"
             d="m 3.1875,-0.5 c -0.21875,0 -0.28125,0 -0.28125,0.109375 V 0 c 0,6.09375 1.078125,9.65625 1.390625,10.671875 C 4.96875,12.875 6.078125,15.21875 7.75,17.265625 7.890625,17.453125 7.9375,17.5 7.96875,17.515625 8,17.53125 8,17.53125 8.171875,17.53125 c 0.15625,0 0.21875,0 0.21875,-0.09375 0,-0.01563 0,-0.04687 -0.0625,-0.125 C 5.015625,12.703125 4.015625,7.15625 4,-0.359375 4,-0.5 3.953125,-0.5 3.734375,-0.5 Z m 0,0"
             id="path9418" />
        </g>
      </g>
      <g
         style="fill:#211e1e;fill-opacity:1"
         id="g597">
        <g
           id="use595"
           transform="translate(251.03992,104.28015)">
          <path
             style="stroke:none"
             d="m 6.5625,-2.296875 c 0.171875,0 0.359375,0 0.359375,-0.203125 0,-0.1875 -0.1875,-0.1875 -0.359375,-0.1875 H 1.171875 c -0.171875,0 -0.34375,0 -0.34375,0.1875 0,0.203125 0.171875,0.203125 0.34375,0.203125 z m 0,0"
             id="path9422" />
        </g>
      </g>
      <g
         style="fill:#211e1e;fill-opacity:1"
         id="g601">
        <g
           id="use599"
           transform="translate(258.83994,104.28015)">
          <path
             style="stroke:none"
             d="m 2.53125,-6.734375 c -0.546875,0 -0.96875,0.171875 -1.328125,0.515625 -0.578125,0.5625 -0.96875,1.703125 -0.96875,2.875 0,1.078125 0.328125,2.25 0.796875,2.8125 0.375,0.4375 0.875,0.671875 1.46875,0.671875 0.5,0 0.921875,-0.171875 1.28125,-0.515625 C 4.359375,-0.921875 4.75,-2.078125 4.75,-3.296875 c 0,-2.03125 -0.90625,-3.4375 -2.21875,-3.4375 z m -0.03125,0.25 c 0.84375,0 1.28125,1.125 1.28125,3.21875 0,2.078125 -0.4375,3.140625 -1.28125,3.140625 -0.859375,0 -1.296875,-1.0625 -1.296875,-3.140625 0,-2.109375 0.4375,-3.21875 1.296875,-3.21875 z m 0,0"
             id="path9426" />
        </g>
      </g>
      <g
         style="fill:#211e1e;fill-opacity:1"
         id="g605">
        <g
           id="use603"
           transform="translate(263.87976,104.28015)">
          <path
             style="stroke:none"
             d="m 1.90625,-0.53125 c 0,-0.28125 -0.234375,-0.53125 -0.515625,-0.53125 -0.296875,0 -0.53125,0.25 -0.53125,0.53125 C 0.859375,-0.234375 1.09375,0 1.390625,0 1.671875,0 1.90625,-0.234375 1.90625,-0.53125 Z m 0,0"
             id="path9430" />
        </g>
      </g>
      <g
         style="fill:#211e1e;fill-opacity:1"
         id="g609">
        <g
           id="use607"
           transform="translate(266.63992,104.28015)">
          <path
             style="stroke:none"
             d="M 4.46875,-6.59375 H 0.78125 L 0.203125,-5.140625 0.375,-5.046875 c 0.421875,-0.6875 0.609375,-0.8125 1.15625,-0.8125 H 3.6875 l -1.96875,5.9375 H 2.359375 L 4.46875,-6.4375 Z m 0,0"
             id="path9434" />
        </g>
      </g>
      <g
         style="fill:#211e1e;fill-opacity:1"
         id="g613">
        <g
           id="use611"
           transform="translate(271.6799,104.28015)">
          <path
             style="stroke:none"
             d="m 2.890625,-3.703125 c 0.984375,-0.53125 1.34375,-0.9375 1.34375,-1.625 0,-0.8125 -0.71875,-1.40625 -1.71875,-1.40625 -1.09375,0 -1.890625,0.65625 -1.890625,1.578125 0,0.640625 0.1875,0.921875 1.234375,1.84375 C 0.78125,-2.5 0.5625,-2.1875 0.5625,-1.5 c 0,0.96875 0.78125,1.640625 1.90625,1.640625 1.203125,0 1.96875,-0.65625 1.96875,-1.6875 0,-0.765625 -0.34375,-1.25 -1.546875,-2.15625 z m -0.171875,1.03125 c 0.71875,0.515625 0.953125,0.875 0.953125,1.4375 0,0.640625 -0.4375,1.09375 -1.09375,1.09375 -0.75,0 -1.265625,-0.578125 -1.265625,-1.4375 0,-0.640625 0.21875,-1.0625 0.796875,-1.53125 z M 2.609375,-3.875 c -0.890625,-0.578125 -1.25,-1.046875 -1.25,-1.59375 0,-0.578125 0.4375,-0.984375 1.078125,-0.984375 0.671875,0 1.09375,0.4375 1.09375,1.125 0,0.5625 -0.265625,1.015625 -0.84375,1.390625 -0.046875,0.03125 -0.046875,0.03125 -0.078125,0.0625 z m 0,0"
             id="path9438" />
        </g>
      </g>
      <g
         style="fill:#211e1e;fill-opacity:1"
         id="g617">
        <g
           id="use615"
           transform="translate(276.71991,104.28015)">
          <path
             style="stroke:none"
             d="m 2.890625,-3.703125 c 0.984375,-0.53125 1.34375,-0.9375 1.34375,-1.625 0,-0.8125 -0.71875,-1.40625 -1.71875,-1.40625 -1.09375,0 -1.890625,0.65625 -1.890625,1.578125 0,0.640625 0.1875,0.921875 1.234375,1.84375 C 0.78125,-2.5 0.5625,-2.1875 0.5625,-1.5 c 0,0.96875 0.78125,1.640625 1.90625,1.640625 1.203125,0 1.96875,-0.65625 1.96875,-1.6875 0,-0.765625 -0.34375,-1.25 -1.546875,-2.15625 z m -0.171875,1.03125 c 0.71875,0.515625 0.953125,0.875 0.953125,1.4375 0,0.640625 -0.4375,1.09375 -1.09375,1.09375 -0.75,0 -1.265625,-0.578125 -1.265625,-1.4375 0,-0.640625 0.21875,-1.0625 0.796875,-1.53125 z M 2.609375,-3.875 c -0.890625,-0.578125 -1.25,-1.046875 -1.25,-1.59375 0,-0.578125 0.4375,-0.984375 1.078125,-0.984375 0.671875,0 1.09375,0.4375 1.09375,1.125 0,0.5625 -0.265625,1.015625 -0.84375,1.390625 -0.046875,0.03125 -0.046875,0.03125 -0.078125,0.0625 z m 0,0"
             id="path9442" />
        </g>
      </g>
      <g
         style="fill:#211e1e;fill-opacity:1"
         id="g621">
        <g
           id="use619"
           transform="translate(281.75992,104.28015)">
          <path
             style="stroke:none"
             d="m 1.796875,-5.8125 h 1.96875 c 0.15625,0 0.1875,-0.015625 0.21875,-0.09375 l 0.375,-0.875 L 4.28125,-6.859375 C 4.125,-6.65625 4.03125,-6.59375 3.8125,-6.59375 H 1.734375 l -1.09375,2.359375 c 0,0.015625 0,0.03125 0,0.046875 0,0.046875 0.03125,0.078125 0.109375,0.078125 0.328125,0 0.71875,0.078125 1.140625,0.203125 1.140625,0.375 1.671875,0.984375 1.671875,1.96875 0,0.953125 -0.609375,1.703125 -1.390625,1.703125 -0.203125,0 -0.375,-0.0625 -0.671875,-0.28125 C 1.1875,-0.75 0.953125,-0.84375 0.75,-0.84375 c -0.296875,0 -0.4375,0.109375 -0.4375,0.359375 0,0.390625 0.46875,0.625 1.21875,0.625 0.84375,0 1.5625,-0.265625 2.0625,-0.78125 C 4.046875,-1.09375 4.25,-1.65625 4.25,-2.40625 c 0,-0.71875 -0.1875,-1.1875 -0.6875,-1.6875 -0.4375,-0.4375 -1,-0.65625 -2.171875,-0.875 z m 0,0"
             id="path9446" />
        </g>
      </g>
      <g
         style="fill:#211e1e;fill-opacity:1"
         id="g625">
        <g
           id="use623"
           transform="translate(300.72,104.28015)">
          <path
             style="stroke:none"
             d="m 2.90625,-6.734375 -1.796875,0.90625 V -5.6875 C 1.21875,-5.734375 1.328125,-5.78125 1.375,-5.796875 1.5625,-5.875 1.71875,-5.90625 1.828125,-5.90625 2.03125,-5.90625 2.125,-5.765625 2.125,-5.4375 v 4.515625 c 0,0.328125 -0.078125,0.546875 -0.234375,0.640625 -0.15625,0.09375 -0.296875,0.125 -0.71875,0.125 V 0 h 2.75 v -0.15625 c -0.78125,0 -0.9375,-0.109375 -0.9375,-0.578125 V -6.71875 Z m 0,0"
             id="path9450" />
        </g>
      </g>
      <g
         style="fill:#211e1e;fill-opacity:1"
         id="g629">
        <g
           id="use627"
           transform="translate(305.75983,104.28015)">
          <path
             style="stroke:none"
             d="m 1.90625,-0.53125 c 0,-0.28125 -0.234375,-0.53125 -0.515625,-0.53125 -0.296875,0 -0.53125,0.25 -0.53125,0.53125 C 0.859375,-0.234375 1.09375,0 1.390625,0 1.671875,0 1.90625,-0.234375 1.90625,-0.53125 Z m 0,0"
             id="path9454" />
        </g>
      </g>
      <g
         style="fill:#211e1e;fill-opacity:1"
         id="g633">
        <g
           id="use631"
           transform="translate(308.51999,104.28015)">
          <path
             style="stroke:none"
             d="m 1.796875,-5.8125 h 1.96875 c 0.15625,0 0.1875,-0.015625 0.21875,-0.09375 l 0.375,-0.875 L 4.28125,-6.859375 C 4.125,-6.65625 4.03125,-6.59375 3.8125,-6.59375 H 1.734375 l -1.09375,2.359375 c 0,0.015625 0,0.03125 0,0.046875 0,0.046875 0.03125,0.078125 0.109375,0.078125 0.328125,0 0.71875,0.078125 1.140625,0.203125 1.140625,0.375 1.671875,0.984375 1.671875,1.96875 0,0.953125 -0.609375,1.703125 -1.390625,1.703125 -0.203125,0 -0.375,-0.0625 -0.671875,-0.28125 C 1.1875,-0.75 0.953125,-0.84375 0.75,-0.84375 c -0.296875,0 -0.4375,0.109375 -0.4375,0.359375 0,0.390625 0.46875,0.625 1.21875,0.625 0.84375,0 1.5625,-0.265625 2.0625,-0.78125 C 4.046875,-1.09375 4.25,-1.65625 4.25,-2.40625 c 0,-0.71875 -0.1875,-1.1875 -0.6875,-1.6875 -0.4375,-0.4375 -1,-0.65625 -2.171875,-0.875 z m 0,0"
             id="path9458" />
        </g>
      </g>
      <g
         style="fill:#211e1e;fill-opacity:1"
         id="g637">
        <g
           id="use635"
           transform="translate(313.55997,104.28015)">
          <path
             style="stroke:none"
             d="m 2.53125,-6.734375 c -0.546875,0 -0.96875,0.171875 -1.328125,0.515625 -0.578125,0.5625 -0.96875,1.703125 -0.96875,2.875 0,1.078125 0.328125,2.25 0.796875,2.8125 0.375,0.4375 0.875,0.671875 1.46875,0.671875 0.5,0 0.921875,-0.171875 1.28125,-0.515625 C 4.359375,-0.921875 4.75,-2.078125 4.75,-3.296875 c 0,-2.03125 -0.90625,-3.4375 -2.21875,-3.4375 z m -0.03125,0.25 c 0.84375,0 1.28125,1.125 1.28125,3.21875 0,2.078125 -0.4375,3.140625 -1.28125,3.140625 -0.859375,0 -1.296875,-1.0625 -1.296875,-3.140625 0,-2.109375 0.4375,-3.21875 1.296875,-3.21875 z m 0,0"
             id="path9462" />
        </g>
      </g>
      <g
         style="fill:#211e1e;fill-opacity:1"
         id="g641">
        <g
           id="use639"
           transform="translate(318.59998,104.28015)">
          <path
             style="stroke:none"
             d="M 4.703125,-2.296875 H 3.6875 v -4.4375 H 3.25 l -3.125,4.4375 v 0.625 H 2.921875 V 0 H 3.6875 v -1.671875 h 1.015625 z m -1.796875,0 H 0.515625 L 2.90625,-5.71875 Z m 0,0"
             id="path9466" />
        </g>
      </g>
      <g
         style="fill:#211e1e;fill-opacity:1"
         id="g645">
        <g
           id="use643"
           transform="translate(339.11993,104.28015)">
          <path
             style="stroke:none"
             d="m 2.90625,-6.734375 -1.796875,0.90625 V -5.6875 C 1.21875,-5.734375 1.328125,-5.78125 1.375,-5.796875 1.5625,-5.875 1.71875,-5.90625 1.828125,-5.90625 2.03125,-5.90625 2.125,-5.765625 2.125,-5.4375 v 4.515625 c 0,0.328125 -0.078125,0.546875 -0.234375,0.640625 -0.15625,0.09375 -0.296875,0.125 -0.71875,0.125 V 0 h 2.75 v -0.15625 c -0.78125,0 -0.9375,-0.109375 -0.9375,-0.578125 V -6.71875 Z m 0,0"
             id="path9470" />
        </g>
      </g>
      <g
         style="fill:#211e1e;fill-opacity:1"
         id="g649">
        <g
           id="use647"
           transform="translate(344.15979,104.28015)">
          <path
             style="stroke:none"
             d="m 1.90625,-0.53125 c 0,-0.28125 -0.234375,-0.53125 -0.515625,-0.53125 -0.296875,0 -0.53125,0.25 -0.53125,0.53125 C 0.859375,-0.234375 1.09375,0 1.390625,0 1.671875,0 1.90625,-0.234375 1.90625,-0.53125 Z m 0,0"
             id="path9474" />
        </g>
      </g>
      <g
         style="fill:#211e1e;fill-opacity:1"
         id="g653">
        <g
           id="use651"
           transform="translate(346.91995,104.28015)">
          <path
             style="stroke:none"
             d="m 2.90625,-6.734375 -1.796875,0.90625 V -5.6875 C 1.21875,-5.734375 1.328125,-5.78125 1.375,-5.796875 1.5625,-5.875 1.71875,-5.90625 1.828125,-5.90625 2.03125,-5.90625 2.125,-5.765625 2.125,-5.4375 v 4.515625 c 0,0.328125 -0.078125,0.546875 -0.234375,0.640625 -0.15625,0.09375 -0.296875,0.125 -0.71875,0.125 V 0 h 2.75 v -0.15625 c -0.78125,0 -0.9375,-0.109375 -0.9375,-0.578125 V -6.71875 Z m 0,0"
             id="path9478" />
        </g>
      </g>
      <g
         style="fill:#211e1e;fill-opacity:1"
         id="g657">
        <g
           id="use655"
           transform="translate(351.95993,104.28015)">
          <path
             style="stroke:none"
             d="m 2.53125,-6.734375 c -0.546875,0 -0.96875,0.171875 -1.328125,0.515625 -0.578125,0.5625 -0.96875,1.703125 -0.96875,2.875 0,1.078125 0.328125,2.25 0.796875,2.8125 0.375,0.4375 0.875,0.671875 1.46875,0.671875 0.5,0 0.921875,-0.171875 1.28125,-0.515625 C 4.359375,-0.921875 4.75,-2.078125 4.75,-3.296875 c 0,-2.03125 -0.90625,-3.4375 -2.21875,-3.4375 z m -0.03125,0.25 c 0.84375,0 1.28125,1.125 1.28125,3.21875 0,2.078125 -0.4375,3.140625 -1.28125,3.140625 -0.859375,0 -1.296875,-1.0625 -1.296875,-3.140625 0,-2.109375 0.4375,-3.21875 1.296875,-3.21875 z m 0,0"
             id="path9482" />
        </g>
      </g>
      <g
         style="fill:#211e1e;fill-opacity:1"
         id="g661">
        <g
           id="use659"
           transform="translate(356.99994,104.28015)">
          <path
             style="stroke:none"
             d="m 4.734375,-1.359375 -0.125,-0.0625 C 4.234375,-0.84375 4.109375,-0.75 3.65625,-0.75 h -2.375 l 1.671875,-1.765625 c 0.890625,-0.921875 1.28125,-1.6875 1.28125,-2.453125 0,-1 -0.8125,-1.765625 -1.859375,-1.765625 -0.546875,0 -1.0625,0.21875 -1.421875,0.609375 C 0.625,-5.78125 0.484375,-5.46875 0.3125,-4.75 l 0.203125,0.046875 C 0.921875,-5.6875 1.28125,-6 1.96875,-6 2.796875,-6 3.375,-5.4375 3.375,-4.59375 3.375,-3.8125 2.90625,-2.890625 2.078125,-2 l -1.78125,1.875 V 0 H 4.1875 Z m 0,0"
             id="path9486" />
        </g>
      </g>
      <g
         style="fill:#211e1e;fill-opacity:1"
         id="g665">
        <g
           id="use663"
           transform="translate(376.08014,104.28015)">
          <path
             style="stroke:none"
             d="m 6.5625,-2.296875 c 0.171875,0 0.359375,0 0.359375,-0.203125 0,-0.1875 -0.1875,-0.1875 -0.359375,-0.1875 H 1.171875 c -0.171875,0 -0.34375,0 -0.34375,0.1875 0,0.203125 0.171875,0.203125 0.34375,0.203125 z m 0,0"
             id="path9490" />
        </g>
      </g>
      <g
         style="fill:#211e1e;fill-opacity:1"
         id="g669">
        <g
           id="use667"
           transform="translate(383.88016,104.28015)">
          <path
             style="stroke:none"
             d="m 2.90625,-6.734375 -1.796875,0.90625 V -5.6875 C 1.21875,-5.734375 1.328125,-5.78125 1.375,-5.796875 1.5625,-5.875 1.71875,-5.90625 1.828125,-5.90625 2.03125,-5.90625 2.125,-5.765625 2.125,-5.4375 v 4.515625 c 0,0.328125 -0.078125,0.546875 -0.234375,0.640625 -0.15625,0.09375 -0.296875,0.125 -0.71875,0.125 V 0 h 2.75 v -0.15625 c -0.78125,0 -0.9375,-0.109375 -0.9375,-0.578125 V -6.71875 Z m 0,0"
             id="path9494" />
        </g>
      </g>
      <g
         style="fill:#211e1e;fill-opacity:1"
         id="g673">
        <g
           id="use671"
           transform="translate(388.91998,104.28015)">
          <path
             style="stroke:none"
             d="m 1.90625,-0.53125 c 0,-0.28125 -0.234375,-0.53125 -0.515625,-0.53125 -0.296875,0 -0.53125,0.25 -0.53125,0.53125 C 0.859375,-0.234375 1.09375,0 1.390625,0 1.671875,0 1.90625,-0.234375 1.90625,-0.53125 Z m 0,0"
             id="path9498" />
        </g>
      </g>
      <g
         style="fill:#211e1e;fill-opacity:1"
         id="g677">
        <g
           id="use675"
           transform="translate(391.68015,104.28015)">
          <path
             style="stroke:none"
             d="M 4.46875,-6.59375 H 0.78125 L 0.203125,-5.140625 0.375,-5.046875 c 0.421875,-0.6875 0.609375,-0.8125 1.15625,-0.8125 H 3.6875 l -1.96875,5.9375 H 2.359375 L 4.46875,-6.4375 Z m 0,0"
             id="path9502" />
        </g>
      </g>
      <g
         style="fill:#211e1e;fill-opacity:1"
         id="g681">
        <g
           id="use679"
           transform="translate(396.72012,104.28015)">
          <path
             style="stroke:none"
             d="m 4.734375,-1.359375 -0.125,-0.0625 C 4.234375,-0.84375 4.109375,-0.75 3.65625,-0.75 h -2.375 l 1.671875,-1.765625 c 0.890625,-0.921875 1.28125,-1.6875 1.28125,-2.453125 0,-1 -0.8125,-1.765625 -1.859375,-1.765625 -0.546875,0 -1.0625,0.21875 -1.421875,0.609375 C 0.625,-5.78125 0.484375,-5.46875 0.3125,-4.75 l 0.203125,0.046875 C 0.921875,-5.6875 1.28125,-6 1.96875,-6 2.796875,-6 3.375,-5.4375 3.375,-4.59375 3.375,-3.8125 2.90625,-2.890625 2.078125,-2 l -1.78125,1.875 V 0 H 4.1875 Z m 0,0"
             id="path9506" />
        </g>
      </g>
      <g
         style="fill:#211e1e;fill-opacity:1"
         id="g685">
        <g
           id="use683"
           transform="translate(253.44014,116.28015)">
          <path
             style="stroke:none"
             d="m 6.5625,-2.296875 c 0.171875,0 0.359375,0 0.359375,-0.203125 0,-0.1875 -0.1875,-0.1875 -0.359375,-0.1875 H 1.171875 c -0.171875,0 -0.34375,0 -0.34375,0.1875 0,0.203125 0.171875,0.203125 0.34375,0.203125 z m 0,0"
             id="path9510" />
        </g>
      </g>
      <g
         style="fill:#211e1e;fill-opacity:1"
         id="g689">
        <g
           id="use687"
           transform="translate(261.24014,116.28015)">
          <path
             style="stroke:none"
             d="m 2.53125,-6.734375 c -0.546875,0 -0.96875,0.171875 -1.328125,0.515625 -0.578125,0.5625 -0.96875,1.703125 -0.96875,2.875 0,1.078125 0.328125,2.25 0.796875,2.8125 0.375,0.4375 0.875,0.671875 1.46875,0.671875 0.5,0 0.921875,-0.171875 1.28125,-0.515625 C 4.359375,-0.921875 4.75,-2.078125 4.75,-3.296875 c 0,-2.03125 -0.90625,-3.4375 -2.21875,-3.4375 z m -0.03125,0.25 c 0.84375,0 1.28125,1.125 1.28125,3.21875 0,2.078125 -0.4375,3.140625 -1.28125,3.140625 -0.859375,0 -1.296875,-1.0625 -1.296875,-3.140625 0,-2.109375 0.4375,-3.21875 1.296875,-3.21875 z m 0,0"
             id="path9514" />
        </g>
      </g>
      <g
         style="fill:#211e1e;fill-opacity:1"
         id="g693">
        <g
           id="use691"
           transform="translate(266.28,116.28015)">
          <path
             style="stroke:none"
             d="m 1.90625,-0.53125 c 0,-0.28125 -0.234375,-0.53125 -0.515625,-0.53125 -0.296875,0 -0.53125,0.25 -0.53125,0.53125 C 0.859375,-0.234375 1.09375,0 1.390625,0 1.671875,0 1.90625,-0.234375 1.90625,-0.53125 Z m 0,0"
             id="path9518" />
        </g>
      </g>
      <g
         style="fill:#211e1e;fill-opacity:1"
         id="g697">
        <g
           id="use695"
           transform="translate(269.04013,116.28015)">
          <path
             style="stroke:none"
             d="m 1.796875,-5.8125 h 1.96875 c 0.15625,0 0.1875,-0.015625 0.21875,-0.09375 l 0.375,-0.875 L 4.28125,-6.859375 C 4.125,-6.65625 4.03125,-6.59375 3.8125,-6.59375 H 1.734375 l -1.09375,2.359375 c 0,0.015625 0,0.03125 0,0.046875 0,0.046875 0.03125,0.078125 0.109375,0.078125 0.328125,0 0.71875,0.078125 1.140625,0.203125 1.140625,0.375 1.671875,0.984375 1.671875,1.96875 0,0.953125 -0.609375,1.703125 -1.390625,1.703125 -0.203125,0 -0.375,-0.0625 -0.671875,-0.28125 C 1.1875,-0.75 0.953125,-0.84375 0.75,-0.84375 c -0.296875,0 -0.4375,0.109375 -0.4375,0.359375 0,0.390625 0.46875,0.625 1.21875,0.625 0.84375,0 1.5625,-0.265625 2.0625,-0.78125 C 4.046875,-1.09375 4.25,-1.65625 4.25,-2.40625 c 0,-0.71875 -0.1875,-1.1875 -0.6875,-1.6875 -0.4375,-0.4375 -1,-0.65625 -2.171875,-0.875 z m 0,0"
             id="path9522" />
        </g>
      </g>
      <g
         style="fill:#211e1e;fill-opacity:1"
         id="g701">
        <g
           id="use699"
           transform="translate(274.08014,116.28015)">
          <path
             style="stroke:none"
             d="m 2.90625,-6.734375 -1.796875,0.90625 V -5.6875 C 1.21875,-5.734375 1.328125,-5.78125 1.375,-5.796875 1.5625,-5.875 1.71875,-5.90625 1.828125,-5.90625 2.03125,-5.90625 2.125,-5.765625 2.125,-5.4375 v 4.515625 c 0,0.328125 -0.078125,0.546875 -0.234375,0.640625 -0.15625,0.09375 -0.296875,0.125 -0.71875,0.125 V 0 h 2.75 v -0.15625 c -0.78125,0 -0.9375,-0.109375 -0.9375,-0.578125 V -6.71875 Z m 0,0"
             id="path9526" />
        </g>
      </g>
      <g
         style="fill:#211e1e;fill-opacity:1"
         id="g705">
        <g
           id="use703"
           transform="translate(279.12015,116.28015)">
          <path
             style="stroke:none"
             d="m 2.90625,-6.734375 -1.796875,0.90625 V -5.6875 C 1.21875,-5.734375 1.328125,-5.78125 1.375,-5.796875 1.5625,-5.875 1.71875,-5.90625 1.828125,-5.90625 2.03125,-5.90625 2.125,-5.765625 2.125,-5.4375 v 4.515625 c 0,0.328125 -0.078125,0.546875 -0.234375,0.640625 -0.15625,0.09375 -0.296875,0.125 -0.71875,0.125 V 0 h 2.75 v -0.15625 c -0.78125,0 -0.9375,-0.109375 -0.9375,-0.578125 V -6.71875 Z m 0,0"
             id="path9530" />
        </g>
      </g>
      <g
         style="fill:#211e1e;fill-opacity:1"
         id="g709">
        <g
           id="use707"
           transform="translate(300.72025,116.28015)">
          <path
             style="stroke:none"
             d="m 2.53125,-6.734375 c -0.546875,0 -0.96875,0.171875 -1.328125,0.515625 -0.578125,0.5625 -0.96875,1.703125 -0.96875,2.875 0,1.078125 0.328125,2.25 0.796875,2.8125 0.375,0.4375 0.875,0.671875 1.46875,0.671875 0.5,0 0.921875,-0.171875 1.28125,-0.515625 C 4.359375,-0.921875 4.75,-2.078125 4.75,-3.296875 c 0,-2.03125 -0.90625,-3.4375 -2.21875,-3.4375 z m -0.03125,0.25 c 0.84375,0 1.28125,1.125 1.28125,3.21875 0,2.078125 -0.4375,3.140625 -1.28125,3.140625 -0.859375,0 -1.296875,-1.0625 -1.296875,-3.140625 0,-2.109375 0.4375,-3.21875 1.296875,-3.21875 z m 0,0"
             id="path9534" />
        </g>
      </g>
      <g
         style="fill:#211e1e;fill-opacity:1"
         id="g713">
        <g
           id="use711"
           transform="translate(305.76004,116.28015)">
          <path
             style="stroke:none"
             d="m 1.90625,-0.53125 c 0,-0.28125 -0.234375,-0.53125 -0.515625,-0.53125 -0.296875,0 -0.53125,0.25 -0.53125,0.53125 C 0.859375,-0.234375 1.09375,0 1.390625,0 1.671875,0 1.90625,-0.234375 1.90625,-0.53125 Z m 0,0"
             id="path9538" />
        </g>
      </g>
      <g
         style="fill:#211e1e;fill-opacity:1"
         id="g717">
        <g
           id="use715"
           transform="translate(308.5202,116.28015)">
          <path
             style="stroke:none"
             d="m 0.59375,0.21875 c 1.109375,-0.125 1.65625,-0.3125 2.34375,-0.8125 1.03125,-0.75 1.640625,-1.984375 1.640625,-3.328125 0,-1.65625 -0.921875,-2.8125 -2.203125,-2.8125 -1.1875,0 -2.078125,1 -2.078125,2.34375 0,1.21875 0.71875,2.03125 1.796875,2.03125 0.546875,0 0.96875,-0.15625 1.5,-0.578125 -0.40625,1.625 -1.515625,2.703125 -3.03125,2.953125 z m 3.015625,-3.75 c 0,0.1875 -0.046875,0.28125 -0.15625,0.375 -0.265625,0.234375 -0.640625,0.359375 -1,0.359375 -0.765625,0 -1.234375,-0.734375 -1.234375,-1.921875 0,-0.578125 0.15625,-1.171875 0.359375,-1.4375 C 1.75,-6.34375 2,-6.453125 2.296875,-6.453125 c 0.859375,0 1.3125,0.84375 1.3125,2.53125 z m 0,0"
             id="path9542" />
        </g>
      </g>
      <g
         style="fill:#211e1e;fill-opacity:1"
         id="g721">
        <g
           id="use719"
           transform="translate(313.56018,116.28015)">
          <path
             style="stroke:none"
             d="M 4.46875,-6.59375 H 0.78125 L 0.203125,-5.140625 0.375,-5.046875 c 0.421875,-0.6875 0.609375,-0.8125 1.15625,-0.8125 H 3.6875 l -1.96875,5.9375 H 2.359375 L 4.46875,-6.4375 Z m 0,0"
             id="path9546" />
        </g>
      </g>
      <g
         style="fill:#211e1e;fill-opacity:1"
         id="g725">
        <g
           id="use723"
           transform="translate(318.60019,116.28015)">
          <path
             style="stroke:none"
             d="M 4.46875,-6.59375 H 0.78125 L 0.203125,-5.140625 0.375,-5.046875 c 0.421875,-0.6875 0.609375,-0.8125 1.15625,-0.8125 H 3.6875 l -1.96875,5.9375 H 2.359375 L 4.46875,-6.4375 Z m 0,0"
             id="path9550" />
        </g>
      </g>
      <g
         style="fill:#211e1e;fill-opacity:1"
         id="g729">
        <g
           id="use727"
           transform="translate(339.12015,116.28015)">
          <path
             style="stroke:none"
             d="m 2.90625,-6.734375 -1.796875,0.90625 V -5.6875 C 1.21875,-5.734375 1.328125,-5.78125 1.375,-5.796875 1.5625,-5.875 1.71875,-5.90625 1.828125,-5.90625 2.03125,-5.90625 2.125,-5.765625 2.125,-5.4375 v 4.515625 c 0,0.328125 -0.078125,0.546875 -0.234375,0.640625 -0.15625,0.09375 -0.296875,0.125 -0.71875,0.125 V 0 h 2.75 v -0.15625 c -0.78125,0 -0.9375,-0.109375 -0.9375,-0.578125 V -6.71875 Z m 0,0"
             id="path9554" />
        </g>
      </g>
      <g
         style="fill:#211e1e;fill-opacity:1"
         id="g733">
        <g
           id="use731"
           transform="translate(344.16,116.28015)">
          <path
             style="stroke:none"
             d="m 1.90625,-0.53125 c 0,-0.28125 -0.234375,-0.53125 -0.515625,-0.53125 -0.296875,0 -0.53125,0.25 -0.53125,0.53125 C 0.859375,-0.234375 1.09375,0 1.390625,0 1.671875,0 1.90625,-0.234375 1.90625,-0.53125 Z m 0,0"
             id="path9558" />
        </g>
      </g>
      <g
         style="fill:#211e1e;fill-opacity:1"
         id="g737">
        <g
           id="use735"
           transform="translate(346.92017,116.28015)">
          <path
             style="stroke:none"
             d="M 4.453125,-6.8125 C 3.3125,-6.71875 2.734375,-6.53125 2,-6.015625 0.921875,-5.25 0.34375,-4.109375 0.34375,-2.78125 c 0,0.875 0.265625,1.75 0.6875,2.25 0.390625,0.4375 0.921875,0.671875 1.546875,0.671875 1.234375,0 2.09375,-0.953125 2.09375,-2.328125 0,-1.265625 -0.734375,-2.078125 -1.875,-2.078125 -0.4375,0 -0.65625,0.0625 -1.28125,0.453125 C 1.78125,-5.328125 2.90625,-6.40625 4.46875,-6.65625 Z m -2.046875,3 c 0.859375,0 1.359375,0.71875 1.359375,1.96875 0,1.09375 -0.390625,1.703125 -1.078125,1.703125 -0.890625,0 -1.421875,-0.9375 -1.421875,-2.484375 0,-0.5 0.078125,-0.78125 0.28125,-0.9375 C 1.75,-3.71875 2.0625,-3.8125 2.40625,-3.8125 Z m 0,0"
             id="path9562" />
        </g>
      </g>
      <g
         style="fill:#211e1e;fill-opacity:1"
         id="g741">
        <g
           id="use739"
           transform="translate(351.96014,116.28015)">
          <path
             style="stroke:none"
             d="M 4.453125,-6.8125 C 3.3125,-6.71875 2.734375,-6.53125 2,-6.015625 0.921875,-5.25 0.34375,-4.109375 0.34375,-2.78125 c 0,0.875 0.265625,1.75 0.6875,2.25 0.390625,0.4375 0.921875,0.671875 1.546875,0.671875 1.234375,0 2.09375,-0.953125 2.09375,-2.328125 0,-1.265625 -0.734375,-2.078125 -1.875,-2.078125 -0.4375,0 -0.65625,0.0625 -1.28125,0.453125 C 1.78125,-5.328125 2.90625,-6.40625 4.46875,-6.65625 Z m -2.046875,3 c 0.859375,0 1.359375,0.71875 1.359375,1.96875 0,1.09375 -0.390625,1.703125 -1.078125,1.703125 -0.890625,0 -1.421875,-0.9375 -1.421875,-2.484375 0,-0.5 0.078125,-0.78125 0.28125,-0.9375 C 1.75,-3.71875 2.0625,-3.8125 2.40625,-3.8125 Z m 0,0"
             id="path9566" />
        </g>
      </g>
      <g
         style="fill:#211e1e;fill-opacity:1"
         id="g745">
        <g
           id="use743"
           transform="translate(357.00015,116.28015)">
          <path
             style="stroke:none"
             d="m 1.796875,-5.8125 h 1.96875 c 0.15625,0 0.1875,-0.015625 0.21875,-0.09375 l 0.375,-0.875 L 4.28125,-6.859375 C 4.125,-6.65625 4.03125,-6.59375 3.8125,-6.59375 H 1.734375 l -1.09375,2.359375 c 0,0.015625 0,0.03125 0,0.046875 0,0.046875 0.03125,0.078125 0.109375,0.078125 0.328125,0 0.71875,0.078125 1.140625,0.203125 1.140625,0.375 1.671875,0.984375 1.671875,1.96875 0,0.953125 -0.609375,1.703125 -1.390625,1.703125 -0.203125,0 -0.375,-0.0625 -0.671875,-0.28125 C 1.1875,-0.75 0.953125,-0.84375 0.75,-0.84375 c -0.296875,0 -0.4375,0.109375 -0.4375,0.359375 0,0.390625 0.46875,0.625 1.21875,0.625 0.84375,0 1.5625,-0.265625 2.0625,-0.78125 C 4.046875,-1.09375 4.25,-1.65625 4.25,-2.40625 c 0,-0.71875 -0.1875,-1.1875 -0.6875,-1.6875 -0.4375,-0.4375 -1,-0.65625 -2.171875,-0.875 z m 0,0"
             id="path9570" />
        </g>
      </g>
      <g
         style="fill:#211e1e;fill-opacity:1"
         id="g749">
        <g
           id="use747"
           transform="translate(376.08035,116.28015)">
          <path
             style="stroke:none"
             d="m 6.5625,-2.296875 c 0.171875,0 0.359375,0 0.359375,-0.203125 0,-0.1875 -0.1875,-0.1875 -0.359375,-0.1875 H 1.171875 c -0.171875,0 -0.34375,0 -0.34375,0.1875 0,0.203125 0.171875,0.203125 0.34375,0.203125 z m 0,0"
             id="path9574" />
        </g>
      </g>
      <g
         style="fill:#211e1e;fill-opacity:1"
         id="g753">
        <g
           id="use751"
           transform="translate(383.88037,116.28015)">
          <path
             style="stroke:none"
             d="m 4.734375,-1.359375 -0.125,-0.0625 C 4.234375,-0.84375 4.109375,-0.75 3.65625,-0.75 h -2.375 l 1.671875,-1.765625 c 0.890625,-0.921875 1.28125,-1.6875 1.28125,-2.453125 0,-1 -0.8125,-1.765625 -1.859375,-1.765625 -0.546875,0 -1.0625,0.21875 -1.421875,0.609375 C 0.625,-5.78125 0.484375,-5.46875 0.3125,-4.75 l 0.203125,0.046875 C 0.921875,-5.6875 1.28125,-6 1.96875,-6 2.796875,-6 3.375,-5.4375 3.375,-4.59375 3.375,-3.8125 2.90625,-2.890625 2.078125,-2 l -1.78125,1.875 V 0 H 4.1875 Z m 0,0"
             id="path9578" />
        </g>
      </g>
      <g
         style="fill:#211e1e;fill-opacity:1"
         id="g757">
        <g
           id="use755"
           transform="translate(388.9202,116.28015)">
          <path
             style="stroke:none"
             d="m 1.90625,-0.53125 c 0,-0.28125 -0.234375,-0.53125 -0.515625,-0.53125 -0.296875,0 -0.53125,0.25 -0.53125,0.53125 C 0.859375,-0.234375 1.09375,0 1.390625,0 1.671875,0 1.90625,-0.234375 1.90625,-0.53125 Z m 0,0"
             id="path9582" />
        </g>
      </g>
      <g
         style="fill:#211e1e;fill-opacity:1"
         id="g761">
        <g
           id="use759"
           transform="translate(391.68036,116.28015)">
          <path
             style="stroke:none"
             d="m 2.90625,-6.734375 -1.796875,0.90625 V -5.6875 C 1.21875,-5.734375 1.328125,-5.78125 1.375,-5.796875 1.5625,-5.875 1.71875,-5.90625 1.828125,-5.90625 2.03125,-5.90625 2.125,-5.765625 2.125,-5.4375 v 4.515625 c 0,0.328125 -0.078125,0.546875 -0.234375,0.640625 -0.15625,0.09375 -0.296875,0.125 -0.71875,0.125 V 0 h 2.75 v -0.15625 c -0.78125,0 -0.9375,-0.109375 -0.9375,-0.578125 V -6.71875 Z m 0,0"
             id="path9586" />
        </g>
      </g>
      <g
         style="fill:#211e1e;fill-opacity:1"
         id="g765">
        <g
           id="use763"
           transform="translate(396.72034,116.28015)">
          <path
             style="stroke:none"
             d="m 1.53125,-3.296875 c 0.578125,0 0.8125,0.03125 1.046875,0.109375 0.625,0.234375 1.015625,0.796875 1.015625,1.484375 0,0.828125 -0.578125,1.484375 -1.3125,1.484375 -0.265625,0 -0.46875,-0.078125 -0.828125,-0.3125 -0.3125,-0.171875 -0.46875,-0.25 -0.640625,-0.25 -0.234375,0 -0.390625,0.140625 -0.390625,0.359375 0,0.34375 0.4375,0.5625 1.140625,0.5625 0.765625,0 1.546875,-0.265625 2.015625,-0.671875 C 4.046875,-0.9375 4.3125,-1.515625 4.3125,-2.1875 c 0,-0.5 -0.171875,-0.96875 -0.453125,-1.28125 C 3.65625,-3.6875 3.46875,-3.8125 3.03125,-4 c 0.6875,-0.46875 0.9375,-0.828125 0.9375,-1.375 0,-0.8125 -0.640625,-1.359375 -1.5625,-1.359375 -0.5,0 -0.9375,0.171875 -1.296875,0.484375 -0.296875,0.265625 -0.4375,0.53125 -0.65625,1.125 L 0.59375,-5.078125 C 1,-5.8125 1.453125,-6.140625 2.078125,-6.140625 c 0.65625,0 1.109375,0.4375 1.109375,1.0625 0,0.359375 -0.15625,0.71875 -0.40625,0.96875 -0.296875,0.296875 -0.578125,0.453125 -1.25,0.6875 z m 0,0"
             id="path9590" />
        </g>
      </g>
      <g
         style="fill:#211e1e;fill-opacity:1"
         id="g769">
        <g
           id="use767"
           transform="translate(254.88037,128.16025)">
          <path
             style="stroke:none"
             d="m 2.53125,-6.734375 c -0.546875,0 -0.96875,0.171875 -1.328125,0.515625 -0.578125,0.5625 -0.96875,1.703125 -0.96875,2.875 0,1.078125 0.328125,2.25 0.796875,2.8125 0.375,0.4375 0.875,0.671875 1.46875,0.671875 0.5,0 0.921875,-0.171875 1.28125,-0.515625 C 4.359375,-0.921875 4.75,-2.078125 4.75,-3.296875 c 0,-2.03125 -0.90625,-3.4375 -2.21875,-3.4375 z m -0.03125,0.25 c 0.84375,0 1.28125,1.125 1.28125,3.21875 0,2.078125 -0.4375,3.140625 -1.28125,3.140625 -0.859375,0 -1.296875,-1.0625 -1.296875,-3.140625 0,-2.109375 0.4375,-3.21875 1.296875,-3.21875 z m 0,0"
             id="path9594" />
        </g>
      </g>
      <g
         style="fill:#211e1e;fill-opacity:1"
         id="g773">
        <g
           id="use771"
           transform="translate(259.9202,128.16025)">
          <path
             style="stroke:none"
             d="m 1.90625,-0.53125 c 0,-0.28125 -0.234375,-0.53125 -0.515625,-0.53125 -0.296875,0 -0.53125,0.25 -0.53125,0.53125 C 0.859375,-0.234375 1.09375,0 1.390625,0 1.671875,0 1.90625,-0.234375 1.90625,-0.53125 Z m 0,0"
             id="path9598" />
        </g>
      </g>
      <g
         style="fill:#211e1e;fill-opacity:1"
         id="g777">
        <g
           id="use775"
           transform="translate(262.68036,128.16025)">
          <path
             style="stroke:none"
             d="M 4.46875,-6.59375 H 0.78125 L 0.203125,-5.140625 0.375,-5.046875 c 0.421875,-0.6875 0.609375,-0.8125 1.15625,-0.8125 H 3.6875 l -1.96875,5.9375 H 2.359375 L 4.46875,-6.4375 Z m 0,0"
             id="path9602" />
        </g>
      </g>
      <g
         style="fill:#211e1e;fill-opacity:1"
         id="g781">
        <g
           id="use779"
           transform="translate(267.72034,128.16025)">
          <path
             style="stroke:none"
             d="m 2.53125,-6.734375 c -0.546875,0 -0.96875,0.171875 -1.328125,0.515625 -0.578125,0.5625 -0.96875,1.703125 -0.96875,2.875 0,1.078125 0.328125,2.25 0.796875,2.8125 0.375,0.4375 0.875,0.671875 1.46875,0.671875 0.5,0 0.921875,-0.171875 1.28125,-0.515625 C 4.359375,-0.921875 4.75,-2.078125 4.75,-3.296875 c 0,-2.03125 -0.90625,-3.4375 -2.21875,-3.4375 z m -0.03125,0.25 c 0.84375,0 1.28125,1.125 1.28125,3.21875 0,2.078125 -0.4375,3.140625 -1.28125,3.140625 -0.859375,0 -1.296875,-1.0625 -1.296875,-3.140625 0,-2.109375 0.4375,-3.21875 1.296875,-3.21875 z m 0,0"
             id="path9606" />
        </g>
      </g>
      <g
         style="fill:#211e1e;fill-opacity:1"
         id="g785">
        <g
           id="use783"
           transform="translate(272.76038,128.16025)">
          <path
             style="stroke:none"
             d="M 4.46875,-6.59375 H 0.78125 L 0.203125,-5.140625 0.375,-5.046875 c 0.421875,-0.6875 0.609375,-0.8125 1.15625,-0.8125 H 3.6875 l -1.96875,5.9375 H 2.359375 L 4.46875,-6.4375 Z m 0,0"
             id="path9610" />
        </g>
      </g>
      <g
         style="fill:#211e1e;fill-opacity:1"
         id="g789">
        <g
           id="use787"
           transform="translate(277.80035,128.16025)">
          <path
             style="stroke:none"
             d="M 4.46875,-6.59375 H 0.78125 L 0.203125,-5.140625 0.375,-5.046875 c 0.421875,-0.6875 0.609375,-0.8125 1.15625,-0.8125 H 3.6875 l -1.96875,5.9375 H 2.359375 L 4.46875,-6.4375 Z m 0,0"
             id="path9614" />
        </g>
      </g>
      <g
         style="fill:#211e1e;fill-opacity:1"
         id="g793">
        <g
           id="use791"
           transform="translate(294.36047,128.16025)">
          <path
             style="stroke:none"
             d="m 6.5625,-2.296875 c 0.171875,0 0.359375,0 0.359375,-0.203125 0,-0.1875 -0.1875,-0.1875 -0.359375,-0.1875 H 1.171875 c -0.171875,0 -0.34375,0 -0.34375,0.1875 0,0.203125 0.171875,0.203125 0.34375,0.203125 z m 0,0"
             id="path9618" />
        </g>
      </g>
      <g
         style="fill:#211e1e;fill-opacity:1"
         id="g797">
        <g
           id="use795"
           transform="translate(302.16046,128.16025)">
          <path
             style="stroke:none"
             d="m 2.53125,-6.734375 c -0.546875,0 -0.96875,0.171875 -1.328125,0.515625 -0.578125,0.5625 -0.96875,1.703125 -0.96875,2.875 0,1.078125 0.328125,2.25 0.796875,2.8125 0.375,0.4375 0.875,0.671875 1.46875,0.671875 0.5,0 0.921875,-0.171875 1.28125,-0.515625 C 4.359375,-0.921875 4.75,-2.078125 4.75,-3.296875 c 0,-2.03125 -0.90625,-3.4375 -2.21875,-3.4375 z m -0.03125,0.25 c 0.84375,0 1.28125,1.125 1.28125,3.21875 0,2.078125 -0.4375,3.140625 -1.28125,3.140625 -0.859375,0 -1.296875,-1.0625 -1.296875,-3.140625 0,-2.109375 0.4375,-3.21875 1.296875,-3.21875 z m 0,0"
             id="path9622" />
        </g>
      </g>
      <g
         style="fill:#211e1e;fill-opacity:1"
         id="g801">
        <g
           id="use799"
           transform="translate(307.20032,128.16025)">
          <path
             style="stroke:none"
             d="m 1.90625,-0.53125 c 0,-0.28125 -0.234375,-0.53125 -0.515625,-0.53125 -0.296875,0 -0.53125,0.25 -0.53125,0.53125 C 0.859375,-0.234375 1.09375,0 1.390625,0 1.671875,0 1.90625,-0.234375 1.90625,-0.53125 Z m 0,0"
             id="path9626" />
        </g>
      </g>
      <g
         style="fill:#211e1e;fill-opacity:1"
         id="g805">
        <g
           id="use803"
           transform="translate(309.96045,128.16025)">
          <path
             style="stroke:none"
             d="m 2.90625,-6.734375 -1.796875,0.90625 V -5.6875 C 1.21875,-5.734375 1.328125,-5.78125 1.375,-5.796875 1.5625,-5.875 1.71875,-5.90625 1.828125,-5.90625 2.03125,-5.90625 2.125,-5.765625 2.125,-5.4375 v 4.515625 c 0,0.328125 -0.078125,0.546875 -0.234375,0.640625 -0.15625,0.09375 -0.296875,0.125 -0.71875,0.125 V 0 h 2.75 v -0.15625 c -0.78125,0 -0.9375,-0.109375 -0.9375,-0.578125 V -6.71875 Z m 0,0"
             id="path9630" />
        </g>
      </g>
      <g
         style="fill:#211e1e;fill-opacity:1"
         id="g809">
        <g
           id="use807"
           transform="translate(315.00046,128.16025)">
          <path
             style="stroke:none"
             d="m 1.53125,-3.296875 c 0.578125,0 0.8125,0.03125 1.046875,0.109375 0.625,0.234375 1.015625,0.796875 1.015625,1.484375 0,0.828125 -0.578125,1.484375 -1.3125,1.484375 -0.265625,0 -0.46875,-0.078125 -0.828125,-0.3125 -0.3125,-0.171875 -0.46875,-0.25 -0.640625,-0.25 -0.234375,0 -0.390625,0.140625 -0.390625,0.359375 0,0.34375 0.4375,0.5625 1.140625,0.5625 0.765625,0 1.546875,-0.265625 2.015625,-0.671875 C 4.046875,-0.9375 4.3125,-1.515625 4.3125,-2.1875 c 0,-0.5 -0.171875,-0.96875 -0.453125,-1.28125 C 3.65625,-3.6875 3.46875,-3.8125 3.03125,-4 c 0.6875,-0.46875 0.9375,-0.828125 0.9375,-1.375 0,-0.8125 -0.640625,-1.359375 -1.5625,-1.359375 -0.5,0 -0.9375,0.171875 -1.296875,0.484375 -0.296875,0.265625 -0.4375,0.53125 -0.65625,1.125 L 0.59375,-5.078125 C 1,-5.8125 1.453125,-6.140625 2.078125,-6.140625 c 0.65625,0 1.109375,0.4375 1.109375,1.0625 0,0.359375 -0.15625,0.71875 -0.40625,0.96875 -0.296875,0.296875 -0.578125,0.453125 -1.25,0.6875 z m 0,0"
             id="path9634" />
        </g>
      </g>
      <g
         style="fill:#211e1e;fill-opacity:1"
         id="g813">
        <g
           id="use811"
           transform="translate(320.04047,128.16025)">
          <path
             style="stroke:none"
             d="m 1.53125,-3.296875 c 0.578125,0 0.8125,0.03125 1.046875,0.109375 0.625,0.234375 1.015625,0.796875 1.015625,1.484375 0,0.828125 -0.578125,1.484375 -1.3125,1.484375 -0.265625,0 -0.46875,-0.078125 -0.828125,-0.3125 -0.3125,-0.171875 -0.46875,-0.25 -0.640625,-0.25 -0.234375,0 -0.390625,0.140625 -0.390625,0.359375 0,0.34375 0.4375,0.5625 1.140625,0.5625 0.765625,0 1.546875,-0.265625 2.015625,-0.671875 C 4.046875,-0.9375 4.3125,-1.515625 4.3125,-2.1875 c 0,-0.5 -0.171875,-0.96875 -0.453125,-1.28125 C 3.65625,-3.6875 3.46875,-3.8125 3.03125,-4 c 0.6875,-0.46875 0.9375,-0.828125 0.9375,-1.375 0,-0.8125 -0.640625,-1.359375 -1.5625,-1.359375 -0.5,0 -0.9375,0.171875 -1.296875,0.484375 -0.296875,0.265625 -0.4375,0.53125 -0.65625,1.125 L 0.59375,-5.078125 C 1,-5.8125 1.453125,-6.140625 2.078125,-6.140625 c 0.65625,0 1.109375,0.4375 1.109375,1.0625 0,0.359375 -0.15625,0.71875 -0.40625,0.96875 -0.296875,0.296875 -0.578125,0.453125 -1.25,0.6875 z m 0,0"
             id="path9638" />
        </g>
      </g>
      <g
         style="fill:#211e1e;fill-opacity:1"
         id="g817">
        <g
           id="use815"
           transform="translate(325.08044,128.16025)">
          <path
             style="stroke:none"
             d="M 4.703125,-2.296875 H 3.6875 v -4.4375 H 3.25 l -3.125,4.4375 v 0.625 H 2.921875 V 0 H 3.6875 v -1.671875 h 1.015625 z m -1.796875,0 H 0.515625 L 2.90625,-5.71875 Z m 0,0"
             id="path9642" />
        </g>
      </g>
      <g
         style="fill:#211e1e;fill-opacity:1"
         id="g821">
        <g
           id="use819"
           transform="translate(332.76047,128.16025)">
          <path
             style="stroke:none"
             d="m 6.5625,-2.296875 c 0.171875,0 0.359375,0 0.359375,-0.203125 0,-0.1875 -0.1875,-0.1875 -0.359375,-0.1875 H 1.171875 c -0.171875,0 -0.34375,0 -0.34375,0.1875 0,0.203125 0.171875,0.203125 0.34375,0.203125 z m 0,0"
             id="path9646" />
        </g>
      </g>
      <g
         style="fill:#211e1e;fill-opacity:1"
         id="g825">
        <g
           id="use823"
           transform="translate(340.56046,128.16025)">
          <path
             style="stroke:none"
             d="m 2.53125,-6.734375 c -0.546875,0 -0.96875,0.171875 -1.328125,0.515625 -0.578125,0.5625 -0.96875,1.703125 -0.96875,2.875 0,1.078125 0.328125,2.25 0.796875,2.8125 0.375,0.4375 0.875,0.671875 1.46875,0.671875 0.5,0 0.921875,-0.171875 1.28125,-0.515625 C 4.359375,-0.921875 4.75,-2.078125 4.75,-3.296875 c 0,-2.03125 -0.90625,-3.4375 -2.21875,-3.4375 z m -0.03125,0.25 c 0.84375,0 1.28125,1.125 1.28125,3.21875 0,2.078125 -0.4375,3.140625 -1.28125,3.140625 -0.859375,0 -1.296875,-1.0625 -1.296875,-3.140625 0,-2.109375 0.4375,-3.21875 1.296875,-3.21875 z m 0,0"
             id="path9650" />
        </g>
      </g>
      <g
         style="fill:#211e1e;fill-opacity:1"
         id="g829">
        <g
           id="use827"
           transform="translate(345.60031,128.16025)">
          <path
             style="stroke:none"
             d="m 1.90625,-0.53125 c 0,-0.28125 -0.234375,-0.53125 -0.515625,-0.53125 -0.296875,0 -0.53125,0.25 -0.53125,0.53125 C 0.859375,-0.234375 1.09375,0 1.390625,0 1.671875,0 1.90625,-0.234375 1.90625,-0.53125 Z m 0,0"
             id="path9654" />
        </g>
      </g>
      <g
         style="fill:#211e1e;fill-opacity:1"
         id="g833">
        <g
           id="use831"
           transform="translate(348.36047,128.16025)">
          <path
             style="stroke:none"
             d="m 1.796875,-5.8125 h 1.96875 c 0.15625,0 0.1875,-0.015625 0.21875,-0.09375 l 0.375,-0.875 L 4.28125,-6.859375 C 4.125,-6.65625 4.03125,-6.59375 3.8125,-6.59375 H 1.734375 l -1.09375,2.359375 c 0,0.015625 0,0.03125 0,0.046875 0,0.046875 0.03125,0.078125 0.109375,0.078125 0.328125,0 0.71875,0.078125 1.140625,0.203125 1.140625,0.375 1.671875,0.984375 1.671875,1.96875 0,0.953125 -0.609375,1.703125 -1.390625,1.703125 -0.203125,0 -0.375,-0.0625 -0.671875,-0.28125 C 1.1875,-0.75 0.953125,-0.84375 0.75,-0.84375 c -0.296875,0 -0.4375,0.109375 -0.4375,0.359375 0,0.390625 0.46875,0.625 1.21875,0.625 0.84375,0 1.5625,-0.265625 2.0625,-0.78125 C 4.046875,-1.09375 4.25,-1.65625 4.25,-2.40625 c 0,-0.71875 -0.1875,-1.1875 -0.6875,-1.6875 -0.4375,-0.4375 -1,-0.65625 -2.171875,-0.875 z m 0,0"
             id="path9658" />
        </g>
      </g>
      <g
         style="fill:#211e1e;fill-opacity:1"
         id="g837">
        <g
           id="use835"
           transform="translate(353.40045,128.16025)">
          <path
             style="stroke:none"
             d="m 0.59375,0.21875 c 1.109375,-0.125 1.65625,-0.3125 2.34375,-0.8125 1.03125,-0.75 1.640625,-1.984375 1.640625,-3.328125 0,-1.65625 -0.921875,-2.8125 -2.203125,-2.8125 -1.1875,0 -2.078125,1 -2.078125,2.34375 0,1.21875 0.71875,2.03125 1.796875,2.03125 0.546875,0 0.96875,-0.15625 1.5,-0.578125 -0.40625,1.625 -1.515625,2.703125 -3.03125,2.953125 z m 3.015625,-3.75 c 0,0.1875 -0.046875,0.28125 -0.15625,0.375 -0.265625,0.234375 -0.640625,0.359375 -1,0.359375 -0.765625,0 -1.234375,-0.734375 -1.234375,-1.921875 0,-0.578125 0.15625,-1.171875 0.359375,-1.4375 C 1.75,-6.34375 2,-6.453125 2.296875,-6.453125 c 0.859375,0 1.3125,0.84375 1.3125,2.53125 z m 0,0"
             id="path9662" />
        </g>
      </g>
      <g
         style="fill:#211e1e;fill-opacity:1"
         id="g841">
        <g
           id="use839"
           transform="translate(358.44046,128.16025)">
          <path
             style="stroke:none"
             d="M 4.46875,-6.59375 H 0.78125 L 0.203125,-5.140625 0.375,-5.046875 c 0.421875,-0.6875 0.609375,-0.8125 1.15625,-0.8125 H 3.6875 l -1.96875,5.9375 H 2.359375 L 4.46875,-6.4375 Z m 0,0"
             id="path9666" />
        </g>
      </g>
      <g
         style="fill:#211e1e;fill-opacity:1"
         id="g845">
        <g
           id="use843"
           transform="translate(363.48044,128.16025)">
          <path
             style="stroke:none"
             d="M 4.453125,-6.8125 C 3.3125,-6.71875 2.734375,-6.53125 2,-6.015625 0.921875,-5.25 0.34375,-4.109375 0.34375,-2.78125 c 0,0.875 0.265625,1.75 0.6875,2.25 0.390625,0.4375 0.921875,0.671875 1.546875,0.671875 1.234375,0 2.09375,-0.953125 2.09375,-2.328125 0,-1.265625 -0.734375,-2.078125 -1.875,-2.078125 -0.4375,0 -0.65625,0.0625 -1.28125,0.453125 C 1.78125,-5.328125 2.90625,-6.40625 4.46875,-6.65625 Z m -2.046875,3 c 0.859375,0 1.359375,0.71875 1.359375,1.96875 0,1.09375 -0.390625,1.703125 -1.078125,1.703125 -0.890625,0 -1.421875,-0.9375 -1.421875,-2.484375 0,-0.5 0.078125,-0.78125 0.28125,-0.9375 C 1.75,-3.71875 2.0625,-3.8125 2.40625,-3.8125 Z m 0,0"
             id="path9670" />
        </g>
      </g>
      <g
         style="fill:#211e1e;fill-opacity:1"
         id="g849">
        <g
           id="use847"
           transform="translate(371.16046,128.16025)">
          <path
             style="stroke:none"
             d="m 6.5625,-2.296875 c 0.171875,0 0.359375,0 0.359375,-0.203125 0,-0.1875 -0.1875,-0.1875 -0.359375,-0.1875 H 1.171875 c -0.171875,0 -0.34375,0 -0.34375,0.1875 0,0.203125 0.171875,0.203125 0.34375,0.203125 z m 0,0"
             id="path9674" />
        </g>
      </g>
      <g
         style="fill:#211e1e;fill-opacity:1"
         id="g853">
        <g
           id="use851"
           transform="translate(378.96045,128.16025)">
          <path
             style="stroke:none"
             d="m 2.53125,-6.734375 c -0.546875,0 -0.96875,0.171875 -1.328125,0.515625 -0.578125,0.5625 -0.96875,1.703125 -0.96875,2.875 0,1.078125 0.328125,2.25 0.796875,2.8125 0.375,0.4375 0.875,0.671875 1.46875,0.671875 0.5,0 0.921875,-0.171875 1.28125,-0.515625 C 4.359375,-0.921875 4.75,-2.078125 4.75,-3.296875 c 0,-2.03125 -0.90625,-3.4375 -2.21875,-3.4375 z m -0.03125,0.25 c 0.84375,0 1.28125,1.125 1.28125,3.21875 0,2.078125 -0.4375,3.140625 -1.28125,3.140625 -0.859375,0 -1.296875,-1.0625 -1.296875,-3.140625 0,-2.109375 0.4375,-3.21875 1.296875,-3.21875 z m 0,0"
             id="path9678" />
        </g>
      </g>
      <g
         style="fill:#211e1e;fill-opacity:1"
         id="g857">
        <g
           id="use855"
           transform="translate(384.00031,128.16025)">
          <path
             style="stroke:none"
             d="m 1.90625,-0.53125 c 0,-0.28125 -0.234375,-0.53125 -0.515625,-0.53125 -0.296875,0 -0.53125,0.25 -0.53125,0.53125 C 0.859375,-0.234375 1.09375,0 1.390625,0 1.671875,0 1.90625,-0.234375 1.90625,-0.53125 Z m 0,0"
             id="path9682" />
        </g>
      </g>
      <g
         style="fill:#211e1e;fill-opacity:1"
         id="g861">
        <g
           id="use859"
           transform="translate(386.76047,128.16025)">
          <path
             style="stroke:none"
             d="M 4.703125,-2.296875 H 3.6875 v -4.4375 H 3.25 l -3.125,4.4375 v 0.625 H 2.921875 V 0 H 3.6875 v -1.671875 h 1.015625 z m -1.796875,0 H 0.515625 L 2.90625,-5.71875 Z m 0,0"
             id="path9686" />
        </g>
      </g>
      <g
         style="fill:#211e1e;fill-opacity:1"
         id="g865">
        <g
           id="use863"
           transform="translate(391.80045,128.16025)">
          <path
             style="stroke:none"
             d="m 1.53125,-3.296875 c 0.578125,0 0.8125,0.03125 1.046875,0.109375 0.625,0.234375 1.015625,0.796875 1.015625,1.484375 0,0.828125 -0.578125,1.484375 -1.3125,1.484375 -0.265625,0 -0.46875,-0.078125 -0.828125,-0.3125 -0.3125,-0.171875 -0.46875,-0.25 -0.640625,-0.25 -0.234375,0 -0.390625,0.140625 -0.390625,0.359375 0,0.34375 0.4375,0.5625 1.140625,0.5625 0.765625,0 1.546875,-0.265625 2.015625,-0.671875 C 4.046875,-0.9375 4.3125,-1.515625 4.3125,-2.1875 c 0,-0.5 -0.171875,-0.96875 -0.453125,-1.28125 C 3.65625,-3.6875 3.46875,-3.8125 3.03125,-4 c 0.6875,-0.46875 0.9375,-0.828125 0.9375,-1.375 0,-0.8125 -0.640625,-1.359375 -1.5625,-1.359375 -0.5,0 -0.9375,0.171875 -1.296875,0.484375 -0.296875,0.265625 -0.4375,0.53125 -0.65625,1.125 L 0.59375,-5.078125 C 1,-5.8125 1.453125,-6.140625 2.078125,-6.140625 c 0.65625,0 1.109375,0.4375 1.109375,1.0625 0,0.359375 -0.15625,0.71875 -0.40625,0.96875 -0.296875,0.296875 -0.578125,0.453125 -1.25,0.6875 z m 0,0"
             id="path9690" />
        </g>
      </g>
      <g
         style="fill:#211e1e;fill-opacity:1"
         id="g869">
        <g
           id="use867"
           transform="translate(396.84045,128.16025)">
          <path
             style="stroke:none"
             d="M 4.46875,-6.59375 H 0.78125 L 0.203125,-5.140625 0.375,-5.046875 c 0.421875,-0.6875 0.609375,-0.8125 1.15625,-0.8125 H 3.6875 l -1.96875,5.9375 H 2.359375 L 4.46875,-6.4375 Z m 0,0"
             id="path9694" />
        </g>
      </g>
      <g
         style="fill:#211e1e;fill-opacity:1"
         id="g873">
        <g
           id="use871"
           transform="translate(401.88046,128.16025)">
          <path
             style="stroke:none"
             d="m 2.890625,-3.703125 c 0.984375,-0.53125 1.34375,-0.9375 1.34375,-1.625 0,-0.8125 -0.71875,-1.40625 -1.71875,-1.40625 -1.09375,0 -1.890625,0.65625 -1.890625,1.578125 0,0.640625 0.1875,0.921875 1.234375,1.84375 C 0.78125,-2.5 0.5625,-2.1875 0.5625,-1.5 c 0,0.96875 0.78125,1.640625 1.90625,1.640625 1.203125,0 1.96875,-0.65625 1.96875,-1.6875 0,-0.765625 -0.34375,-1.25 -1.546875,-2.15625 z m -0.171875,1.03125 c 0.71875,0.515625 0.953125,0.875 0.953125,1.4375 0,0.640625 -0.4375,1.09375 -1.09375,1.09375 -0.75,0 -1.265625,-0.578125 -1.265625,-1.4375 0,-0.640625 0.21875,-1.0625 0.796875,-1.53125 z M 2.609375,-3.875 c -0.890625,-0.578125 -1.25,-1.046875 -1.25,-1.59375 0,-0.578125 0.4375,-0.984375 1.078125,-0.984375 0.671875,0 1.09375,0.4375 1.09375,1.125 0,0.5625 -0.265625,1.015625 -0.84375,1.390625 -0.046875,0.03125 -0.046875,0.03125 -0.078125,0.0625 z m 0,0"
             id="path9698" />
        </g>
      </g>
      <g
         style="fill:#211e1e;fill-opacity:1"
         id="g877">
        <g
           id="use875"
           transform="translate(246.00046,140.16025)">
          <path
             style="stroke:none"
             d="m 6.5625,-2.296875 c 0.171875,0 0.359375,0 0.359375,-0.203125 0,-0.1875 -0.1875,-0.1875 -0.359375,-0.1875 H 1.171875 c -0.171875,0 -0.34375,0 -0.34375,0.1875 0,0.203125 0.171875,0.203125 0.34375,0.203125 z m 0,0"
             id="path9702" />
        </g>
      </g>
      <g
         style="fill:#211e1e;fill-opacity:1"
         id="g881">
        <g
           id="use879"
           transform="translate(253.80046,140.16025)">
          <path
             style="stroke:none"
             d="m 2.53125,-6.734375 c -0.546875,0 -0.96875,0.171875 -1.328125,0.515625 -0.578125,0.5625 -0.96875,1.703125 -0.96875,2.875 0,1.078125 0.328125,2.25 0.796875,2.8125 0.375,0.4375 0.875,0.671875 1.46875,0.671875 0.5,0 0.921875,-0.171875 1.28125,-0.515625 C 4.359375,-0.921875 4.75,-2.078125 4.75,-3.296875 c 0,-2.03125 -0.90625,-3.4375 -2.21875,-3.4375 z m -0.03125,0.25 c 0.84375,0 1.28125,1.125 1.28125,3.21875 0,2.078125 -0.4375,3.140625 -1.28125,3.140625 -0.859375,0 -1.296875,-1.0625 -1.296875,-3.140625 0,-2.109375 0.4375,-3.21875 1.296875,-3.21875 z m 0,0"
             id="path9706" />
        </g>
      </g>
      <g
         style="fill:#211e1e;fill-opacity:1"
         id="g885">
        <g
           id="use883"
           transform="translate(258.8403,140.16025)">
          <path
             style="stroke:none"
             d="m 1.90625,-0.53125 c 0,-0.28125 -0.234375,-0.53125 -0.515625,-0.53125 -0.296875,0 -0.53125,0.25 -0.53125,0.53125 C 0.859375,-0.234375 1.09375,0 1.390625,0 1.671875,0 1.90625,-0.234375 1.90625,-0.53125 Z m 0,0"
             id="path9710" />
        </g>
      </g>
      <g
         style="fill:#211e1e;fill-opacity:1"
         id="g889">
        <g
           id="use887"
           transform="translate(261.60046,140.16025)">
          <path
             style="stroke:none"
             d="m 2.53125,-6.734375 c -0.546875,0 -0.96875,0.171875 -1.328125,0.515625 -0.578125,0.5625 -0.96875,1.703125 -0.96875,2.875 0,1.078125 0.328125,2.25 0.796875,2.8125 0.375,0.4375 0.875,0.671875 1.46875,0.671875 0.5,0 0.921875,-0.171875 1.28125,-0.515625 C 4.359375,-0.921875 4.75,-2.078125 4.75,-3.296875 c 0,-2.03125 -0.90625,-3.4375 -2.21875,-3.4375 z m -0.03125,0.25 c 0.84375,0 1.28125,1.125 1.28125,3.21875 0,2.078125 -0.4375,3.140625 -1.28125,3.140625 -0.859375,0 -1.296875,-1.0625 -1.296875,-3.140625 0,-2.109375 0.4375,-3.21875 1.296875,-3.21875 z m 0,0"
             id="path9714" />
        </g>
      </g>
      <g
         style="fill:#211e1e;fill-opacity:1"
         id="g893">
        <g
           id="use891"
           transform="translate(266.64044,140.16025)">
          <path
             style="stroke:none"
             d="m 2.53125,-6.734375 c -0.546875,0 -0.96875,0.171875 -1.328125,0.515625 -0.578125,0.5625 -0.96875,1.703125 -0.96875,2.875 0,1.078125 0.328125,2.25 0.796875,2.8125 0.375,0.4375 0.875,0.671875 1.46875,0.671875 0.5,0 0.921875,-0.171875 1.28125,-0.515625 C 4.359375,-0.921875 4.75,-2.078125 4.75,-3.296875 c 0,-2.03125 -0.90625,-3.4375 -2.21875,-3.4375 z m -0.03125,0.25 c 0.84375,0 1.28125,1.125 1.28125,3.21875 0,2.078125 -0.4375,3.140625 -1.28125,3.140625 -0.859375,0 -1.296875,-1.0625 -1.296875,-3.140625 0,-2.109375 0.4375,-3.21875 1.296875,-3.21875 z m 0,0"
             id="path9718" />
        </g>
      </g>
      <g
         style="fill:#211e1e;fill-opacity:1"
         id="g897">
        <g
           id="use895"
           transform="translate(271.68045,140.16025)">
          <path
             style="stroke:none"
             d="m 2.890625,-3.703125 c 0.984375,-0.53125 1.34375,-0.9375 1.34375,-1.625 0,-0.8125 -0.71875,-1.40625 -1.71875,-1.40625 -1.09375,0 -1.890625,0.65625 -1.890625,1.578125 0,0.640625 0.1875,0.921875 1.234375,1.84375 C 0.78125,-2.5 0.5625,-2.1875 0.5625,-1.5 c 0,0.96875 0.78125,1.640625 1.90625,1.640625 1.203125,0 1.96875,-0.65625 1.96875,-1.6875 0,-0.765625 -0.34375,-1.25 -1.546875,-2.15625 z m -0.171875,1.03125 c 0.71875,0.515625 0.953125,0.875 0.953125,1.4375 0,0.640625 -0.4375,1.09375 -1.09375,1.09375 -0.75,0 -1.265625,-0.578125 -1.265625,-1.4375 0,-0.640625 0.21875,-1.0625 0.796875,-1.53125 z M 2.609375,-3.875 c -0.890625,-0.578125 -1.25,-1.046875 -1.25,-1.59375 0,-0.578125 0.4375,-0.984375 1.078125,-0.984375 0.671875,0 1.09375,0.4375 1.09375,1.125 0,0.5625 -0.265625,1.015625 -0.84375,1.390625 -0.046875,0.03125 -0.046875,0.03125 -0.078125,0.0625 z m 0,0"
             id="path9722" />
        </g>
      </g>
      <g
         style="fill:#211e1e;fill-opacity:1"
         id="g901">
        <g
           id="use899"
           transform="translate(276.72046,140.16025)">
          <path
             style="stroke:none"
             d="m 2.90625,-6.734375 -1.796875,0.90625 V -5.6875 C 1.21875,-5.734375 1.328125,-5.78125 1.375,-5.796875 1.5625,-5.875 1.71875,-5.90625 1.828125,-5.90625 2.03125,-5.90625 2.125,-5.765625 2.125,-5.4375 v 4.515625 c 0,0.328125 -0.078125,0.546875 -0.234375,0.640625 -0.15625,0.09375 -0.296875,0.125 -0.71875,0.125 V 0 h 2.75 v -0.15625 c -0.78125,0 -0.9375,-0.109375 -0.9375,-0.578125 V -6.71875 Z m 0,0"
             id="path9726" />
        </g>
      </g>
      <g
         style="fill:#211e1e;fill-opacity:1"
         id="g905">
        <g
           id="use903"
           transform="translate(281.76047,140.16025)">
          <path
             style="stroke:none"
             d="M 4.46875,-6.59375 H 0.78125 L 0.203125,-5.140625 0.375,-5.046875 c 0.421875,-0.6875 0.609375,-0.8125 1.15625,-0.8125 H 3.6875 l -1.96875,5.9375 H 2.359375 L 4.46875,-6.4375 Z m 0,0"
             id="path9730" />
        </g>
      </g>
      <g
         style="fill:#211e1e;fill-opacity:1"
         id="g909">
        <g
           id="use907"
           transform="translate(286.80045,140.16025)">
          <path
             style="stroke:none"
             d="m 1.796875,-5.8125 h 1.96875 c 0.15625,0 0.1875,-0.015625 0.21875,-0.09375 l 0.375,-0.875 L 4.28125,-6.859375 C 4.125,-6.65625 4.03125,-6.59375 3.8125,-6.59375 H 1.734375 l -1.09375,2.359375 c 0,0.015625 0,0.03125 0,0.046875 0,0.046875 0.03125,0.078125 0.109375,0.078125 0.328125,0 0.71875,0.078125 1.140625,0.203125 1.140625,0.375 1.671875,0.984375 1.671875,1.96875 0,0.953125 -0.609375,1.703125 -1.390625,1.703125 -0.203125,0 -0.375,-0.0625 -0.671875,-0.28125 C 1.1875,-0.75 0.953125,-0.84375 0.75,-0.84375 c -0.296875,0 -0.4375,0.109375 -0.4375,0.359375 0,0.390625 0.46875,0.625 1.21875,0.625 0.84375,0 1.5625,-0.265625 2.0625,-0.78125 C 4.046875,-1.09375 4.25,-1.65625 4.25,-2.40625 c 0,-0.71875 -0.1875,-1.1875 -0.6875,-1.6875 -0.4375,-0.4375 -1,-0.65625 -2.171875,-0.875 z m 0,0"
             id="path9734" />
        </g>
      </g>
      <g
         style="fill:#211e1e;fill-opacity:1"
         id="g913">
        <g
           id="use911"
           transform="translate(296.88055,140.16025)">
          <path
             style="stroke:none"
             d="m 6.5625,-2.296875 c 0.171875,0 0.359375,0 0.359375,-0.203125 0,-0.1875 -0.1875,-0.1875 -0.359375,-0.1875 H 1.171875 c -0.171875,0 -0.34375,0 -0.34375,0.1875 0,0.203125 0.171875,0.203125 0.34375,0.203125 z m 0,0"
             id="path9738" />
        </g>
      </g>
      <g
         style="fill:#211e1e;fill-opacity:1"
         id="g917">
        <g
           id="use915"
           transform="translate(304.68057,140.16025)">
          <path
             style="stroke:none"
             d="m 2.53125,-6.734375 c -0.546875,0 -0.96875,0.171875 -1.328125,0.515625 -0.578125,0.5625 -0.96875,1.703125 -0.96875,2.875 0,1.078125 0.328125,2.25 0.796875,2.8125 0.375,0.4375 0.875,0.671875 1.46875,0.671875 0.5,0 0.921875,-0.171875 1.28125,-0.515625 C 4.359375,-0.921875 4.75,-2.078125 4.75,-3.296875 c 0,-2.03125 -0.90625,-3.4375 -2.21875,-3.4375 z m -0.03125,0.25 c 0.84375,0 1.28125,1.125 1.28125,3.21875 0,2.078125 -0.4375,3.140625 -1.28125,3.140625 -0.859375,0 -1.296875,-1.0625 -1.296875,-3.140625 0,-2.109375 0.4375,-3.21875 1.296875,-3.21875 z m 0,0"
             id="path9742" />
        </g>
      </g>
      <g
         style="fill:#211e1e;fill-opacity:1"
         id="g921">
        <g
           id="use919"
           transform="translate(309.7204,140.16025)">
          <path
             style="stroke:none"
             d="m 1.90625,-0.53125 c 0,-0.28125 -0.234375,-0.53125 -0.515625,-0.53125 -0.296875,0 -0.53125,0.25 -0.53125,0.53125 C 0.859375,-0.234375 1.09375,0 1.390625,0 1.671875,0 1.90625,-0.234375 1.90625,-0.53125 Z m 0,0"
             id="path9746" />
        </g>
      </g>
      <g
         style="fill:#211e1e;fill-opacity:1"
         id="g925">
        <g
           id="use923"
           transform="translate(312.48056,140.16025)">
          <path
             style="stroke:none"
             d="m 0.59375,0.21875 c 1.109375,-0.125 1.65625,-0.3125 2.34375,-0.8125 1.03125,-0.75 1.640625,-1.984375 1.640625,-3.328125 0,-1.65625 -0.921875,-2.8125 -2.203125,-2.8125 -1.1875,0 -2.078125,1 -2.078125,2.34375 0,1.21875 0.71875,2.03125 1.796875,2.03125 0.546875,0 0.96875,-0.15625 1.5,-0.578125 -0.40625,1.625 -1.515625,2.703125 -3.03125,2.953125 z m 3.015625,-3.75 c 0,0.1875 -0.046875,0.28125 -0.15625,0.375 -0.265625,0.234375 -0.640625,0.359375 -1,0.359375 -0.765625,0 -1.234375,-0.734375 -1.234375,-1.921875 0,-0.578125 0.15625,-1.171875 0.359375,-1.4375 C 1.75,-6.34375 2,-6.453125 2.296875,-6.453125 c 0.859375,0 1.3125,0.84375 1.3125,2.53125 z m 0,0"
             id="path9750" />
        </g>
      </g>
      <g
         style="fill:#211e1e;fill-opacity:1"
         id="g929">
        <g
           id="use927"
           transform="translate(317.52054,140.16025)">
          <path
             style="stroke:none"
             d="m 4.734375,-1.359375 -0.125,-0.0625 C 4.234375,-0.84375 4.109375,-0.75 3.65625,-0.75 h -2.375 l 1.671875,-1.765625 c 0.890625,-0.921875 1.28125,-1.6875 1.28125,-2.453125 0,-1 -0.8125,-1.765625 -1.859375,-1.765625 -0.546875,0 -1.0625,0.21875 -1.421875,0.609375 C 0.625,-5.78125 0.484375,-5.46875 0.3125,-4.75 l 0.203125,0.046875 C 0.921875,-5.6875 1.28125,-6 1.96875,-6 2.796875,-6 3.375,-5.4375 3.375,-4.59375 3.375,-3.8125 2.90625,-2.890625 2.078125,-2 l -1.78125,1.875 V 0 H 4.1875 Z m 0,0"
             id="path9754" />
        </g>
      </g>
      <g
         style="fill:#211e1e;fill-opacity:1"
         id="g933">
        <g
           id="use931"
           transform="translate(322.56055,140.16025)">
          <path
             style="stroke:none"
             d="M 4.453125,-6.8125 C 3.3125,-6.71875 2.734375,-6.53125 2,-6.015625 0.921875,-5.25 0.34375,-4.109375 0.34375,-2.78125 c 0,0.875 0.265625,1.75 0.6875,2.25 0.390625,0.4375 0.921875,0.671875 1.546875,0.671875 1.234375,0 2.09375,-0.953125 2.09375,-2.328125 0,-1.265625 -0.734375,-2.078125 -1.875,-2.078125 -0.4375,0 -0.65625,0.0625 -1.28125,0.453125 C 1.78125,-5.328125 2.90625,-6.40625 4.46875,-6.65625 Z m -2.046875,3 c 0.859375,0 1.359375,0.71875 1.359375,1.96875 0,1.09375 -0.390625,1.703125 -1.078125,1.703125 -0.890625,0 -1.421875,-0.9375 -1.421875,-2.484375 0,-0.5 0.078125,-0.78125 0.28125,-0.9375 C 1.75,-3.71875 2.0625,-3.8125 2.40625,-3.8125 Z m 0,0"
             id="path9758" />
        </g>
      </g>
      <g
         style="fill:#211e1e;fill-opacity:1"
         id="g937">
        <g
           id="use935"
           transform="translate(335.28058,140.16025)">
          <path
             style="stroke:none"
             d="m 6.5625,-2.296875 c 0.171875,0 0.359375,0 0.359375,-0.203125 0,-0.1875 -0.1875,-0.1875 -0.359375,-0.1875 H 1.171875 c -0.171875,0 -0.34375,0 -0.34375,0.1875 0,0.203125 0.171875,0.203125 0.34375,0.203125 z m 0,0"
             id="path9762" />
        </g>
      </g>
      <g
         style="fill:#211e1e;fill-opacity:1"
         id="g941">
        <g
           id="use939"
           transform="translate(343.08057,140.16025)">
          <path
             style="stroke:none"
             d="m 2.90625,-6.734375 -1.796875,0.90625 V -5.6875 C 1.21875,-5.734375 1.328125,-5.78125 1.375,-5.796875 1.5625,-5.875 1.71875,-5.90625 1.828125,-5.90625 2.03125,-5.90625 2.125,-5.765625 2.125,-5.4375 v 4.515625 c 0,0.328125 -0.078125,0.546875 -0.234375,0.640625 -0.15625,0.09375 -0.296875,0.125 -0.71875,0.125 V 0 h 2.75 v -0.15625 c -0.78125,0 -0.9375,-0.109375 -0.9375,-0.578125 V -6.71875 Z m 0,0"
             id="path9766" />
        </g>
      </g>
      <g
         style="fill:#211e1e;fill-opacity:1"
         id="g945">
        <g
           id="use943"
           transform="translate(348.12039,140.16025)">
          <path
             style="stroke:none"
             d="m 1.90625,-0.53125 c 0,-0.28125 -0.234375,-0.53125 -0.515625,-0.53125 -0.296875,0 -0.53125,0.25 -0.53125,0.53125 C 0.859375,-0.234375 1.09375,0 1.390625,0 1.671875,0 1.90625,-0.234375 1.90625,-0.53125 Z m 0,0"
             id="path9770" />
        </g>
      </g>
      <g
         style="fill:#211e1e;fill-opacity:1"
         id="g949">
        <g
           id="use947"
           transform="translate(350.88055,140.16025)">
          <path
             style="stroke:none"
             d="M 4.703125,-2.296875 H 3.6875 v -4.4375 H 3.25 l -3.125,4.4375 v 0.625 H 2.921875 V 0 H 3.6875 v -1.671875 h 1.015625 z m -1.796875,0 H 0.515625 L 2.90625,-5.71875 Z m 0,0"
             id="path9774" />
        </g>
      </g>
      <g
         style="fill:#211e1e;fill-opacity:1"
         id="g953">
        <g
           id="use951"
           transform="translate(355.92056,140.16025)">
          <path
             style="stroke:none"
             d="m 4.734375,-1.359375 -0.125,-0.0625 C 4.234375,-0.84375 4.109375,-0.75 3.65625,-0.75 h -2.375 l 1.671875,-1.765625 c 0.890625,-0.921875 1.28125,-1.6875 1.28125,-2.453125 0,-1 -0.8125,-1.765625 -1.859375,-1.765625 -0.546875,0 -1.0625,0.21875 -1.421875,0.609375 C 0.625,-5.78125 0.484375,-5.46875 0.3125,-4.75 l 0.203125,0.046875 C 0.921875,-5.6875 1.28125,-6 1.96875,-6 2.796875,-6 3.375,-5.4375 3.375,-4.59375 3.375,-3.8125 2.90625,-2.890625 2.078125,-2 l -1.78125,1.875 V 0 H 4.1875 Z m 0,0"
             id="path9778" />
        </g>
      </g>
      <g
         style="fill:#211e1e;fill-opacity:1"
         id="g957">
        <g
           id="use955"
           transform="translate(360.96057,140.16025)">
          <path
             style="stroke:none"
             d="M 4.453125,-6.8125 C 3.3125,-6.71875 2.734375,-6.53125 2,-6.015625 0.921875,-5.25 0.34375,-4.109375 0.34375,-2.78125 c 0,0.875 0.265625,1.75 0.6875,2.25 0.390625,0.4375 0.921875,0.671875 1.546875,0.671875 1.234375,0 2.09375,-0.953125 2.09375,-2.328125 0,-1.265625 -0.734375,-2.078125 -1.875,-2.078125 -0.4375,0 -0.65625,0.0625 -1.28125,0.453125 C 1.78125,-5.328125 2.90625,-6.40625 4.46875,-6.65625 Z m -2.046875,3 c 0.859375,0 1.359375,0.71875 1.359375,1.96875 0,1.09375 -0.390625,1.703125 -1.078125,1.703125 -0.890625,0 -1.421875,-0.9375 -1.421875,-2.484375 0,-0.5 0.078125,-0.78125 0.28125,-0.9375 C 1.75,-3.71875 2.0625,-3.8125 2.40625,-3.8125 Z m 0,0"
             id="path9782" />
        </g>
      </g>
      <g
         style="fill:#211e1e;fill-opacity:1"
         id="g961">
        <g
           id="use959"
           transform="translate(377.52036,140.16025)">
          <path
             style="stroke:none"
             d="m 4.734375,-1.359375 -0.125,-0.0625 C 4.234375,-0.84375 4.109375,-0.75 3.65625,-0.75 h -2.375 l 1.671875,-1.765625 c 0.890625,-0.921875 1.28125,-1.6875 1.28125,-2.453125 0,-1 -0.8125,-1.765625 -1.859375,-1.765625 -0.546875,0 -1.0625,0.21875 -1.421875,0.609375 C 0.625,-5.78125 0.484375,-5.46875 0.3125,-4.75 l 0.203125,0.046875 C 0.921875,-5.6875 1.28125,-6 1.96875,-6 2.796875,-6 3.375,-5.4375 3.375,-4.59375 3.375,-3.8125 2.90625,-2.890625 2.078125,-2 l -1.78125,1.875 V 0 H 4.1875 Z m 0,0"
             id="path9786" />
        </g>
      </g>
      <g
         style="fill:#211e1e;fill-opacity:1"
         id="g965">
        <g
           id="use963"
           transform="translate(382.56027,140.16025)">
          <path
             style="stroke:none"
             d="m 1.90625,-0.53125 c 0,-0.28125 -0.234375,-0.53125 -0.515625,-0.53125 -0.296875,0 -0.53125,0.25 -0.53125,0.53125 C 0.859375,-0.234375 1.09375,0 1.390625,0 1.671875,0 1.90625,-0.234375 1.90625,-0.53125 Z m 0,0"
             id="path9790" />
        </g>
      </g>
      <g
         style="fill:#211e1e;fill-opacity:1"
         id="g969">
        <g
           id="use967"
           transform="translate(385.32043,140.16025)">
          <path
             style="stroke:none"
             d="M 4.46875,-6.59375 H 0.78125 L 0.203125,-5.140625 0.375,-5.046875 c 0.421875,-0.6875 0.609375,-0.8125 1.15625,-0.8125 H 3.6875 l -1.96875,5.9375 H 2.359375 L 4.46875,-6.4375 Z m 0,0"
             id="path9794" />
        </g>
      </g>
      <g
         style="fill:#211e1e;fill-opacity:1"
         id="g973">
        <g
           id="use971"
           transform="translate(390.36041,140.16025)">
          <path
             style="stroke:none"
             d="m 4.734375,-1.359375 -0.125,-0.0625 C 4.234375,-0.84375 4.109375,-0.75 3.65625,-0.75 h -2.375 l 1.671875,-1.765625 c 0.890625,-0.921875 1.28125,-1.6875 1.28125,-2.453125 0,-1 -0.8125,-1.765625 -1.859375,-1.765625 -0.546875,0 -1.0625,0.21875 -1.421875,0.609375 C 0.625,-5.78125 0.484375,-5.46875 0.3125,-4.75 l 0.203125,0.046875 C 0.921875,-5.6875 1.28125,-6 1.96875,-6 2.796875,-6 3.375,-5.4375 3.375,-4.59375 3.375,-3.8125 2.90625,-2.890625 2.078125,-2 l -1.78125,1.875 V 0 H 4.1875 Z m 0,0"
             id="path9798" />
        </g>
      </g>
      <g
         style="fill:#211e1e;fill-opacity:1"
         id="g977">
        <g
           id="use975"
           transform="translate(395.40042,140.16025)">
          <path
             style="stroke:none"
             d="M 4.703125,-2.296875 H 3.6875 v -4.4375 H 3.25 l -3.125,4.4375 v 0.625 H 2.921875 V 0 H 3.6875 v -1.671875 h 1.015625 z m -1.796875,0 H 0.515625 L 2.90625,-5.71875 Z m 0,0"
             id="path9802" />
        </g>
      </g>
      <g
         style="fill:#211e1e;fill-opacity:1"
         id="g981">
        <g
           id="use979"
           transform="translate(254.88042,152.03995)">
          <path
             style="stroke:none"
             d="m 2.53125,-6.734375 c -0.546875,0 -0.96875,0.171875 -1.328125,0.515625 -0.578125,0.5625 -0.96875,1.703125 -0.96875,2.875 0,1.078125 0.328125,2.25 0.796875,2.8125 0.375,0.4375 0.875,0.671875 1.46875,0.671875 0.5,0 0.921875,-0.171875 1.28125,-0.515625 C 4.359375,-0.921875 4.75,-2.078125 4.75,-3.296875 c 0,-2.03125 -0.90625,-3.4375 -2.21875,-3.4375 z m -0.03125,0.25 c 0.84375,0 1.28125,1.125 1.28125,3.21875 0,2.078125 -0.4375,3.140625 -1.28125,3.140625 -0.859375,0 -1.296875,-1.0625 -1.296875,-3.140625 0,-2.109375 0.4375,-3.21875 1.296875,-3.21875 z m 0,0"
             id="path9806" />
        </g>
      </g>
      <g
         style="fill:#211e1e;fill-opacity:1"
         id="g985">
        <g
           id="use983"
           transform="translate(259.92026,152.03995)">
          <path
             style="stroke:none"
             d="m 1.90625,-0.53125 c 0,-0.28125 -0.234375,-0.53125 -0.515625,-0.53125 -0.296875,0 -0.53125,0.25 -0.53125,0.53125 C 0.859375,-0.234375 1.09375,0 1.390625,0 1.671875,0 1.90625,-0.234375 1.90625,-0.53125 Z m 0,0"
             id="path9810" />
        </g>
      </g>
      <g
         style="fill:#211e1e;fill-opacity:1"
         id="g989">
        <g
           id="use987"
           transform="translate(262.68042,152.03995)">
          <path
             style="stroke:none"
             d="m 2.890625,-3.703125 c 0.984375,-0.53125 1.34375,-0.9375 1.34375,-1.625 0,-0.8125 -0.71875,-1.40625 -1.71875,-1.40625 -1.09375,0 -1.890625,0.65625 -1.890625,1.578125 0,0.640625 0.1875,0.921875 1.234375,1.84375 C 0.78125,-2.5 0.5625,-2.1875 0.5625,-1.5 c 0,0.96875 0.78125,1.640625 1.90625,1.640625 1.203125,0 1.96875,-0.65625 1.96875,-1.6875 0,-0.765625 -0.34375,-1.25 -1.546875,-2.15625 z m -0.171875,1.03125 c 0.71875,0.515625 0.953125,0.875 0.953125,1.4375 0,0.640625 -0.4375,1.09375 -1.09375,1.09375 -0.75,0 -1.265625,-0.578125 -1.265625,-1.4375 0,-0.640625 0.21875,-1.0625 0.796875,-1.53125 z M 2.609375,-3.875 c -0.890625,-0.578125 -1.25,-1.046875 -1.25,-1.59375 0,-0.578125 0.4375,-0.984375 1.078125,-0.984375 0.671875,0 1.09375,0.4375 1.09375,1.125 0,0.5625 -0.265625,1.015625 -0.84375,1.390625 -0.046875,0.03125 -0.046875,0.03125 -0.078125,0.0625 z m 0,0"
             id="path9814" />
        </g>
      </g>
      <g
         style="fill:#211e1e;fill-opacity:1"
         id="g993">
        <g
           id="use991"
           transform="translate(267.7204,152.03995)">
          <path
             style="stroke:none"
             d="M 4.46875,-6.59375 H 0.78125 L 0.203125,-5.140625 0.375,-5.046875 c 0.421875,-0.6875 0.609375,-0.8125 1.15625,-0.8125 H 3.6875 l -1.96875,5.9375 H 2.359375 L 4.46875,-6.4375 Z m 0,0"
             id="path9818" />
        </g>
      </g>
      <g
         style="fill:#211e1e;fill-opacity:1"
         id="g997">
        <g
           id="use995"
           transform="translate(272.76044,152.03995)">
          <path
             style="stroke:none"
             d="m 2.53125,-6.734375 c -0.546875,0 -0.96875,0.171875 -1.328125,0.515625 -0.578125,0.5625 -0.96875,1.703125 -0.96875,2.875 0,1.078125 0.328125,2.25 0.796875,2.8125 0.375,0.4375 0.875,0.671875 1.46875,0.671875 0.5,0 0.921875,-0.171875 1.28125,-0.515625 C 4.359375,-0.921875 4.75,-2.078125 4.75,-3.296875 c 0,-2.03125 -0.90625,-3.4375 -2.21875,-3.4375 z m -0.03125,0.25 c 0.84375,0 1.28125,1.125 1.28125,3.21875 0,2.078125 -0.4375,3.140625 -1.28125,3.140625 -0.859375,0 -1.296875,-1.0625 -1.296875,-3.140625 0,-2.109375 0.4375,-3.21875 1.296875,-3.21875 z m 0,0"
             id="path9822" />
        </g>
      </g>
      <g
         style="fill:#211e1e;fill-opacity:1"
         id="g1001">
        <g
           id="use999"
           transform="translate(277.80042,152.03995)">
          <path
             style="stroke:none"
             d="m 1.53125,-3.296875 c 0.578125,0 0.8125,0.03125 1.046875,0.109375 0.625,0.234375 1.015625,0.796875 1.015625,1.484375 0,0.828125 -0.578125,1.484375 -1.3125,1.484375 -0.265625,0 -0.46875,-0.078125 -0.828125,-0.3125 -0.3125,-0.171875 -0.46875,-0.25 -0.640625,-0.25 -0.234375,0 -0.390625,0.140625 -0.390625,0.359375 0,0.34375 0.4375,0.5625 1.140625,0.5625 0.765625,0 1.546875,-0.265625 2.015625,-0.671875 C 4.046875,-0.9375 4.3125,-1.515625 4.3125,-2.1875 c 0,-0.5 -0.171875,-0.96875 -0.453125,-1.28125 C 3.65625,-3.6875 3.46875,-3.8125 3.03125,-4 c 0.6875,-0.46875 0.9375,-0.828125 0.9375,-1.375 0,-0.8125 -0.640625,-1.359375 -1.5625,-1.359375 -0.5,0 -0.9375,0.171875 -1.296875,0.484375 -0.296875,0.265625 -0.4375,0.53125 -0.65625,1.125 L 0.59375,-5.078125 C 1,-5.8125 1.453125,-6.140625 2.078125,-6.140625 c 0.65625,0 1.109375,0.4375 1.109375,1.0625 0,0.359375 -0.15625,0.71875 -0.40625,0.96875 -0.296875,0.296875 -0.578125,0.453125 -1.25,0.6875 z m 0,0"
             id="path9826" />
        </g>
      </g>
      <g
         style="fill:#211e1e;fill-opacity:1"
         id="g1005">
        <g
           id="use1003"
           transform="translate(296.88043,152.03995)">
          <path
             style="stroke:none"
             d="m 6.5625,-2.296875 c 0.171875,0 0.359375,0 0.359375,-0.203125 0,-0.1875 -0.1875,-0.1875 -0.359375,-0.1875 H 1.171875 c -0.171875,0 -0.34375,0 -0.34375,0.1875 0,0.203125 0.171875,0.203125 0.34375,0.203125 z m 0,0"
             id="path9830" />
        </g>
      </g>
      <g
         style="fill:#211e1e;fill-opacity:1"
         id="g1009">
        <g
           id="use1007"
           transform="translate(304.68042,152.03995)">
          <path
             style="stroke:none"
             d="m 4.734375,-1.359375 -0.125,-0.0625 C 4.234375,-0.84375 4.109375,-0.75 3.65625,-0.75 h -2.375 l 1.671875,-1.765625 c 0.890625,-0.921875 1.28125,-1.6875 1.28125,-2.453125 0,-1 -0.8125,-1.765625 -1.859375,-1.765625 -0.546875,0 -1.0625,0.21875 -1.421875,0.609375 C 0.625,-5.78125 0.484375,-5.46875 0.3125,-4.75 l 0.203125,0.046875 C 0.921875,-5.6875 1.28125,-6 1.96875,-6 2.796875,-6 3.375,-5.4375 3.375,-4.59375 3.375,-3.8125 2.90625,-2.890625 2.078125,-2 l -1.78125,1.875 V 0 H 4.1875 Z m 0,0"
             id="path9834" />
        </g>
      </g>
      <g
         style="fill:#211e1e;fill-opacity:1"
         id="g1013">
        <g
           id="use1011"
           transform="translate(309.72028,152.03995)">
          <path
             style="stroke:none"
             d="m 1.90625,-0.53125 c 0,-0.28125 -0.234375,-0.53125 -0.515625,-0.53125 -0.296875,0 -0.53125,0.25 -0.53125,0.53125 C 0.859375,-0.234375 1.09375,0 1.390625,0 1.671875,0 1.90625,-0.234375 1.90625,-0.53125 Z m 0,0"
             id="path9838" />
        </g>
      </g>
      <g
         style="fill:#211e1e;fill-opacity:1"
         id="g1017">
        <g
           id="use1015"
           transform="translate(312.48044,152.03995)">
          <path
             style="stroke:none"
             d="m 2.53125,-6.734375 c -0.546875,0 -0.96875,0.171875 -1.328125,0.515625 -0.578125,0.5625 -0.96875,1.703125 -0.96875,2.875 0,1.078125 0.328125,2.25 0.796875,2.8125 0.375,0.4375 0.875,0.671875 1.46875,0.671875 0.5,0 0.921875,-0.171875 1.28125,-0.515625 C 4.359375,-0.921875 4.75,-2.078125 4.75,-3.296875 c 0,-2.03125 -0.90625,-3.4375 -2.21875,-3.4375 z m -0.03125,0.25 c 0.84375,0 1.28125,1.125 1.28125,3.21875 0,2.078125 -0.4375,3.140625 -1.28125,3.140625 -0.859375,0 -1.296875,-1.0625 -1.296875,-3.140625 0,-2.109375 0.4375,-3.21875 1.296875,-3.21875 z m 0,0"
             id="path9842" />
        </g>
      </g>
      <g
         style="fill:#211e1e;fill-opacity:1"
         id="g1021">
        <g
           id="use1019"
           transform="translate(317.52042,152.03995)">
          <path
             style="stroke:none"
             d="m 2.90625,-6.734375 -1.796875,0.90625 V -5.6875 C 1.21875,-5.734375 1.328125,-5.78125 1.375,-5.796875 1.5625,-5.875 1.71875,-5.90625 1.828125,-5.90625 2.03125,-5.90625 2.125,-5.765625 2.125,-5.4375 v 4.515625 c 0,0.328125 -0.078125,0.546875 -0.234375,0.640625 -0.15625,0.09375 -0.296875,0.125 -0.71875,0.125 V 0 h 2.75 v -0.15625 c -0.78125,0 -0.9375,-0.109375 -0.9375,-0.578125 V -6.71875 Z m 0,0"
             id="path9846" />
        </g>
      </g>
      <g
         style="fill:#211e1e;fill-opacity:1"
         id="g1025">
        <g
           id="use1023"
           transform="translate(322.56042,152.03995)">
          <path
             style="stroke:none"
             d="m 1.796875,-5.8125 h 1.96875 c 0.15625,0 0.1875,-0.015625 0.21875,-0.09375 l 0.375,-0.875 L 4.28125,-6.859375 C 4.125,-6.65625 4.03125,-6.59375 3.8125,-6.59375 H 1.734375 l -1.09375,2.359375 c 0,0.015625 0,0.03125 0,0.046875 0,0.046875 0.03125,0.078125 0.109375,0.078125 0.328125,0 0.71875,0.078125 1.140625,0.203125 1.140625,0.375 1.671875,0.984375 1.671875,1.96875 0,0.953125 -0.609375,1.703125 -1.390625,1.703125 -0.203125,0 -0.375,-0.0625 -0.671875,-0.28125 C 1.1875,-0.75 0.953125,-0.84375 0.75,-0.84375 c -0.296875,0 -0.4375,0.109375 -0.4375,0.359375 0,0.390625 0.46875,0.625 1.21875,0.625 0.84375,0 1.5625,-0.265625 2.0625,-0.78125 C 4.046875,-1.09375 4.25,-1.65625 4.25,-2.40625 c 0,-0.71875 -0.1875,-1.1875 -0.6875,-1.6875 -0.4375,-0.4375 -1,-0.65625 -2.171875,-0.875 z m 0,0"
             id="path9850" />
        </g>
      </g>
      <g
         style="fill:#211e1e;fill-opacity:1"
         id="g1029">
        <g
           id="use1027"
           transform="translate(335.28043,152.03995)">
          <path
             style="stroke:none"
             d="m 6.5625,-2.296875 c 0.171875,0 0.359375,0 0.359375,-0.203125 0,-0.1875 -0.1875,-0.1875 -0.359375,-0.1875 H 1.171875 c -0.171875,0 -0.34375,0 -0.34375,0.1875 0,0.203125 0.171875,0.203125 0.34375,0.203125 z m 0,0"
             id="path9854" />
        </g>
      </g>
      <g
         style="fill:#211e1e;fill-opacity:1"
         id="g1033">
        <g
           id="use1031"
           transform="translate(343.08041,152.03995)">
          <path
             style="stroke:none"
             d="m 2.90625,-6.734375 -1.796875,0.90625 V -5.6875 C 1.21875,-5.734375 1.328125,-5.78125 1.375,-5.796875 1.5625,-5.875 1.71875,-5.90625 1.828125,-5.90625 2.03125,-5.90625 2.125,-5.765625 2.125,-5.4375 v 4.515625 c 0,0.328125 -0.078125,0.546875 -0.234375,0.640625 -0.15625,0.09375 -0.296875,0.125 -0.71875,0.125 V 0 h 2.75 v -0.15625 c -0.78125,0 -0.9375,-0.109375 -0.9375,-0.578125 V -6.71875 Z m 0,0"
             id="path9858" />
        </g>
      </g>
      <g
         style="fill:#211e1e;fill-opacity:1"
         id="g1037">
        <g
           id="use1035"
           transform="translate(348.12027,152.03995)">
          <path
             style="stroke:none"
             d="m 1.90625,-0.53125 c 0,-0.28125 -0.234375,-0.53125 -0.515625,-0.53125 -0.296875,0 -0.53125,0.25 -0.53125,0.53125 C 0.859375,-0.234375 1.09375,0 1.390625,0 1.671875,0 1.90625,-0.234375 1.90625,-0.53125 Z m 0,0"
             id="path9862" />
        </g>
      </g>
      <g
         style="fill:#211e1e;fill-opacity:1"
         id="g1041">
        <g
           id="use1039"
           transform="translate(350.88043,152.03995)">
          <path
             style="stroke:none"
             d="M 4.703125,-2.296875 H 3.6875 v -4.4375 H 3.25 l -3.125,4.4375 v 0.625 H 2.921875 V 0 H 3.6875 v -1.671875 h 1.015625 z m -1.796875,0 H 0.515625 L 2.90625,-5.71875 Z m 0,0"
             id="path9866" />
        </g>
      </g>
      <g
         style="fill:#211e1e;fill-opacity:1"
         id="g1045">
        <g
           id="use1043"
           transform="translate(355.92041,152.03995)">
          <path
             style="stroke:none"
             d="m 0.59375,0.21875 c 1.109375,-0.125 1.65625,-0.3125 2.34375,-0.8125 1.03125,-0.75 1.640625,-1.984375 1.640625,-3.328125 0,-1.65625 -0.921875,-2.8125 -2.203125,-2.8125 -1.1875,0 -2.078125,1 -2.078125,2.34375 0,1.21875 0.71875,2.03125 1.796875,2.03125 0.546875,0 0.96875,-0.15625 1.5,-0.578125 -0.40625,1.625 -1.515625,2.703125 -3.03125,2.953125 z m 3.015625,-3.75 c 0,0.1875 -0.046875,0.28125 -0.15625,0.375 -0.265625,0.234375 -0.640625,0.359375 -1,0.359375 -0.765625,0 -1.234375,-0.734375 -1.234375,-1.921875 0,-0.578125 0.15625,-1.171875 0.359375,-1.4375 C 1.75,-6.34375 2,-6.453125 2.296875,-6.453125 c 0.859375,0 1.3125,0.84375 1.3125,2.53125 z m 0,0"
             id="path9870" />
        </g>
      </g>
      <g
         style="fill:#211e1e;fill-opacity:1"
         id="g1049">
        <g
           id="use1047"
           transform="translate(360.96042,152.03995)">
          <path
             style="stroke:none"
             d="m 0.59375,0.21875 c 1.109375,-0.125 1.65625,-0.3125 2.34375,-0.8125 1.03125,-0.75 1.640625,-1.984375 1.640625,-3.328125 0,-1.65625 -0.921875,-2.8125 -2.203125,-2.8125 -1.1875,0 -2.078125,1 -2.078125,2.34375 0,1.21875 0.71875,2.03125 1.796875,2.03125 0.546875,0 0.96875,-0.15625 1.5,-0.578125 -0.40625,1.625 -1.515625,2.703125 -3.03125,2.953125 z m 3.015625,-3.75 c 0,0.1875 -0.046875,0.28125 -0.15625,0.375 -0.265625,0.234375 -0.640625,0.359375 -1,0.359375 -0.765625,0 -1.234375,-0.734375 -1.234375,-1.921875 0,-0.578125 0.15625,-1.171875 0.359375,-1.4375 C 1.75,-6.34375 2,-6.453125 2.296875,-6.453125 c 0.859375,0 1.3125,0.84375 1.3125,2.53125 z m 0,0"
             id="path9874" />
        </g>
      </g>
      <g
         style="fill:#211e1e;fill-opacity:1"
         id="g1053">
        <g
           id="use1051"
           transform="translate(377.52023,152.03995)">
          <path
             style="stroke:none"
             d="m 4.734375,-1.359375 -0.125,-0.0625 C 4.234375,-0.84375 4.109375,-0.75 3.65625,-0.75 h -2.375 l 1.671875,-1.765625 c 0.890625,-0.921875 1.28125,-1.6875 1.28125,-2.453125 0,-1 -0.8125,-1.765625 -1.859375,-1.765625 -0.546875,0 -1.0625,0.21875 -1.421875,0.609375 C 0.625,-5.78125 0.484375,-5.46875 0.3125,-4.75 l 0.203125,0.046875 C 0.921875,-5.6875 1.28125,-6 1.96875,-6 2.796875,-6 3.375,-5.4375 3.375,-4.59375 3.375,-3.8125 2.90625,-2.890625 2.078125,-2 l -1.78125,1.875 V 0 H 4.1875 Z m 0,0"
             id="path9878" />
        </g>
      </g>
      <g
         style="fill:#211e1e;fill-opacity:1"
         id="g1057">
        <g
           id="use1055"
           transform="translate(382.56012,152.03995)">
          <path
             style="stroke:none"
             d="m 1.90625,-0.53125 c 0,-0.28125 -0.234375,-0.53125 -0.515625,-0.53125 -0.296875,0 -0.53125,0.25 -0.53125,0.53125 C 0.859375,-0.234375 1.09375,0 1.390625,0 1.671875,0 1.90625,-0.234375 1.90625,-0.53125 Z m 0,0"
             id="path9882" />
        </g>
      </g>
      <g
         style="fill:#211e1e;fill-opacity:1"
         id="g1061">
        <g
           id="use1059"
           transform="translate(385.32028,152.03995)">
          <path
             style="stroke:none"
             d="M 4.453125,-6.8125 C 3.3125,-6.71875 2.734375,-6.53125 2,-6.015625 0.921875,-5.25 0.34375,-4.109375 0.34375,-2.78125 c 0,0.875 0.265625,1.75 0.6875,2.25 0.390625,0.4375 0.921875,0.671875 1.546875,0.671875 1.234375,0 2.09375,-0.953125 2.09375,-2.328125 0,-1.265625 -0.734375,-2.078125 -1.875,-2.078125 -0.4375,0 -0.65625,0.0625 -1.28125,0.453125 C 1.78125,-5.328125 2.90625,-6.40625 4.46875,-6.65625 Z m -2.046875,3 c 0.859375,0 1.359375,0.71875 1.359375,1.96875 0,1.09375 -0.390625,1.703125 -1.078125,1.703125 -0.890625,0 -1.421875,-0.9375 -1.421875,-2.484375 0,-0.5 0.078125,-0.78125 0.28125,-0.9375 C 1.75,-3.71875 2.0625,-3.8125 2.40625,-3.8125 Z m 0,0"
             id="path9886" />
        </g>
      </g>
      <g
         style="fill:#211e1e;fill-opacity:1"
         id="g1065">
        <g
           id="use1063"
           transform="translate(390.36026,152.03995)">
          <path
             style="stroke:none"
             d="m 1.796875,-5.8125 h 1.96875 c 0.15625,0 0.1875,-0.015625 0.21875,-0.09375 l 0.375,-0.875 L 4.28125,-6.859375 C 4.125,-6.65625 4.03125,-6.59375 3.8125,-6.59375 H 1.734375 l -1.09375,2.359375 c 0,0.015625 0,0.03125 0,0.046875 0,0.046875 0.03125,0.078125 0.109375,0.078125 0.328125,0 0.71875,0.078125 1.140625,0.203125 1.140625,0.375 1.671875,0.984375 1.671875,1.96875 0,0.953125 -0.609375,1.703125 -1.390625,1.703125 -0.203125,0 -0.375,-0.0625 -0.671875,-0.28125 C 1.1875,-0.75 0.953125,-0.84375 0.75,-0.84375 c -0.296875,0 -0.4375,0.109375 -0.4375,0.359375 0,0.390625 0.46875,0.625 1.21875,0.625 0.84375,0 1.5625,-0.265625 2.0625,-0.78125 C 4.046875,-1.09375 4.25,-1.65625 4.25,-2.40625 c 0,-0.71875 -0.1875,-1.1875 -0.6875,-1.6875 -0.4375,-0.4375 -1,-0.65625 -2.171875,-0.875 z m 0,0"
             id="path9890" />
        </g>
      </g>
      <g
         style="fill:#211e1e;fill-opacity:1"
         id="g1069">
        <g
           id="use1067"
           transform="translate(395.40027,152.03995)">
          <path
             style="stroke:none"
             d="m 1.796875,-5.8125 h 1.96875 c 0.15625,0 0.1875,-0.015625 0.21875,-0.09375 l 0.375,-0.875 L 4.28125,-6.859375 C 4.125,-6.65625 4.03125,-6.59375 3.8125,-6.59375 H 1.734375 l -1.09375,2.359375 c 0,0.015625 0,0.03125 0,0.046875 0,0.046875 0.03125,0.078125 0.109375,0.078125 0.328125,0 0.71875,0.078125 1.140625,0.203125 1.140625,0.375 1.671875,0.984375 1.671875,1.96875 0,0.953125 -0.609375,1.703125 -1.390625,1.703125 -0.203125,0 -0.375,-0.0625 -0.671875,-0.28125 C 1.1875,-0.75 0.953125,-0.84375 0.75,-0.84375 c -0.296875,0 -0.4375,0.109375 -0.4375,0.359375 0,0.390625 0.46875,0.625 1.21875,0.625 0.84375,0 1.5625,-0.265625 2.0625,-0.78125 C 4.046875,-1.09375 4.25,-1.65625 4.25,-2.40625 c 0,-0.71875 -0.1875,-1.1875 -0.6875,-1.6875 -0.4375,-0.4375 -1,-0.65625 -2.171875,-0.875 z m 0,0"
             id="path9894" />
        </g>
      </g>
      <g
         style="fill:#211e1e;fill-opacity:1"
         id="g1073">
        <g
           id="use1071"
           transform="translate(408.0004,96.360252)">
          <path
             style="stroke:none"
             d="M 5.8125,17.140625 C 5.8125,11.0625 4.71875,7.484375 4.421875,6.484375 3.734375,4.265625 2.625,1.9375 0.96875,-0.125 0.8125,-0.296875 0.78125,-0.34375 0.734375,-0.375 c -0.015625,0 -0.03125,-0.015625 -0.1875,-0.015625 -0.140625,0 -0.234375,0 -0.234375,0.09375 0,0.03125 0,0.046875 0.140625,0.234375 3.46875,4.84375 4.234375,10.8125 4.25,17.5625 0,0.140625 0.0625,0.140625 0.28125,0.140625 H 5.53125 c 0.203125,0 0.265625,0 0.28125,-0.109375 z m 0,0"
             id="path9898" />
        </g>
      </g>
      <g
         style="fill:#211e1e;fill-opacity:1"
         id="g1077">
        <g
           id="use1075"
           transform="translate(408.0004,113.88015)">
          <path
             style="stroke:none"
             d="M 5.8125,0.171875 C 5.8125,-0.09375 5.796875,-0.09375 5.53125,-0.09375 H 4.984375 c -0.265625,0 -0.28125,0 -0.28125,0.265625 V 5.8125 c 0,0.265625 0.015625,0.265625 0.28125,0.265625 H 5.53125 c 0.265625,0 0.28125,0 0.28125,-0.265625 z m 0,0"
             id="path9902" />
        </g>
      </g>
      <g
         style="fill:#211e1e;fill-opacity:1"
         id="g1081">
        <g
           id="use1079"
           transform="translate(408.0004,119.88015)">
          <path
             style="stroke:none"
             d="M 5.8125,0.171875 C 5.8125,-0.09375 5.796875,-0.09375 5.53125,-0.09375 H 4.984375 c -0.265625,0 -0.28125,0 -0.28125,0.265625 V 5.8125 c 0,0.265625 0.015625,0.265625 0.28125,0.265625 H 5.53125 c 0.265625,0 0.28125,0 0.28125,-0.265625 z m 0,0"
             id="path9906" />
        </g>
      </g>
      <g
         style="fill:#211e1e;fill-opacity:1"
         id="g1085">
        <g
           id="use1083"
           transform="translate(408.0004,125.76023)">
          <path
             style="stroke:none"
             d="M 5.8125,0.171875 C 5.8125,-0.09375 5.796875,-0.09375 5.53125,-0.09375 H 4.984375 c -0.265625,0 -0.28125,0 -0.28125,0.265625 V 5.8125 c 0,0.265625 0.015625,0.265625 0.28125,0.265625 H 5.53125 c 0.265625,0 0.28125,0 0.28125,-0.265625 z m 0,0"
             id="path9910" />
        </g>
      </g>
      <g
         style="fill:#211e1e;fill-opacity:1"
         id="g1089">
        <g
           id="use1087"
           transform="translate(408.0004,131.76022)">
          <path
             style="stroke:none"
             d="M 5.8125,0.171875 C 5.8125,-0.09375 5.796875,-0.09375 5.53125,-0.09375 H 4.984375 c -0.265625,0 -0.28125,0 -0.28125,0.265625 V 5.8125 c 0,0.265625 0.015625,0.265625 0.28125,0.265625 H 5.53125 c 0.265625,0 0.28125,0 0.28125,-0.265625 z m 0,0"
             id="path9914" />
        </g>
      </g>
      <g
         style="fill:#211e1e;fill-opacity:1"
         id="g1093">
        <g
           id="use1091"
           transform="translate(408.0004,138.12)">
          <path
             style="stroke:none"
             d="M 5.8125,-0.390625 C 5.796875,-0.5 5.734375,-0.5 5.53125,-0.5 H 4.984375 c -0.21875,0 -0.28125,0 -0.28125,0.140625 0,1.03125 -0.015625,3.40625 -0.265625,5.875 C 3.890625,10.671875 2.578125,14.25 0.390625,17.3125 0.3125,17.390625 0.3125,17.421875 0.3125,17.4375 c 0,0.09375 0.09375,0.09375 0.234375,0.09375 0.15625,0 0.1875,0 0.203125,-0.01563 C 0.78125,17.48438 2.046875,16.03125 3.0625,14.03125 4.375,11.390625 5.203125,8.375 5.578125,4.75 5.609375,4.4375 5.8125,2.359375 5.8125,0 Z m 0,0"
             id="path9918" />
        </g>
      </g>
    </g>
  </g>
</svg>
