<?xml version="1.0" encoding="UTF-8" standalone="no"?>
<svg
   width="42.228893mm"
   height="9.7027025mm"
   viewBox="0 0 42.228893 9.7027025"
   version="1.1"
   id="svg9389"
   xmlns="http://www.w3.org/2000/svg"
   xmlns:svg="http://www.w3.org/2000/svg">
  <defs
     id="defs9386" />
  <g
     id="layer1"
     transform="translate(-39.427861,-141.36403)">
    <g
       id="g9152"
       transform="matrix(0.35277777,0,0,0.35277777,-45.466351,-70.044441)">
      <g
         style="fill:#211e1e;fill-opacity:1"
         id="g6029">
        <g
           id="use6027"
           transform="translate(240.59814,624.60052)">
          <path
             style="stroke:none"
             d="m 0.09375,-3.921875 c 0.078125,0 0.15625,0 0.25,0 0.328125,0 0.40625,0.09375 0.40625,0.5625 V 1.3125 C 0.75,1.828125 0.640625,1.9375 0.046875,2 V 2.15625 H 2.46875 V 1.984375 c -0.75,-0.015625 -0.890625,-0.125 -0.890625,-0.75 v -1.5625 C 1.9375,0 2.171875,0.09375 2.59375,0.09375 c 1.171875,0 2.09375,-1.109375 2.09375,-2.5625 0,-1.234375 -0.703125,-2.109375 -1.671875,-2.109375 -0.546875,0 -0.984375,0.234375 -1.4375,0.78125 V -4.5625 L 1.53125,-4.578125 C 0.984375,-4.375 0.640625,-4.25 0.09375,-4.078125 Z m 1.484375,0.59375 c 0,-0.296875 0.5625,-0.65625 1.03125,-0.65625 0.734375,0 1.21875,0.75 1.21875,1.90625 0,1.109375 -0.484375,1.859375 -1.203125,1.859375 -0.46875,0 -1.046875,-0.359375 -1.046875,-0.65625 z m 0,0"
             id="path9154" />
        </g>
      </g>
      <g
         style="fill:#211e1e;fill-opacity:1"
         id="g6033">
        <g
           id="use6031"
           transform="translate(245.63812,624.60052)">
          <path
             style="stroke:none"
             d="M 4.0625,-1.640625 C 3.59375,-0.875 3.15625,-0.59375 2.515625,-0.59375 c -0.5625,0 -0.984375,-0.28125 -1.28125,-0.859375 -0.171875,-0.375 -0.25,-0.703125 -0.265625,-1.3125 h 3.0625 c -0.078125,-0.640625 -0.171875,-0.9375 -0.421875,-1.25 -0.296875,-0.359375 -0.765625,-0.5625 -1.28125,-0.5625 -0.5,0 -0.96875,0.171875 -1.34375,0.515625 C 0.515625,-3.65625 0.25,-2.953125 0.25,-2.140625 0.25,-0.75 0.96875,0.09375 2.109375,0.09375 c 0.953125,0 1.703125,-0.578125 2.125,-1.65625 z m -3.078125,-1.4375 c 0.109375,-0.78125 0.453125,-1.15625 1.0625,-1.15625 0.609375,0 0.84375,0.28125 0.96875,1.15625 z m 0,0"
             id="path9158" />
        </g>
      </g>
      <g
         style="fill:#211e1e;fill-opacity:1"
         id="g6037">
        <g
           id="use6035"
           transform="translate(250.07814,624.60052)">
          <path
             style="stroke:none"
             d="m 2.5,-4.578125 c -1.296875,0 -2.203125,0.953125 -2.203125,2.328125 0,1.34375 0.921875,2.34375 2.171875,2.34375 1.265625,0 2.21875,-1.046875 2.21875,-2.421875 0,-1.3125 -0.921875,-2.25 -2.1875,-2.25 z M 2.359375,-4.3125 c 0.84375,0 1.421875,0.96875 1.421875,2.328125 0,1.125 -0.4375,1.8125 -1.1875,1.8125 -0.390625,0 -0.765625,-0.25 -0.96875,-0.640625 C 1.34375,-1.328125 1.1875,-2.03125 1.1875,-2.734375 1.1875,-3.6875 1.65625,-4.3125 2.359375,-4.3125 Z m 0,0"
             id="path9162" />
        </g>
      </g>
      <g
         style="fill:#211e1e;fill-opacity:1"
         id="g6041">
        <g
           id="use6039"
           transform="translate(255.11813,624.60052)">
          <path
             style="stroke:none"
             d="m 0.09375,-3.921875 c 0.078125,0 0.15625,0 0.25,0 0.328125,0 0.40625,0.09375 0.40625,0.5625 V 1.3125 C 0.75,1.828125 0.640625,1.9375 0.046875,2 V 2.15625 H 2.46875 V 1.984375 c -0.75,-0.015625 -0.890625,-0.125 -0.890625,-0.75 v -1.5625 C 1.9375,0 2.171875,0.09375 2.59375,0.09375 c 1.171875,0 2.09375,-1.109375 2.09375,-2.5625 0,-1.234375 -0.703125,-2.109375 -1.671875,-2.109375 -0.546875,0 -0.984375,0.234375 -1.4375,0.78125 V -4.5625 L 1.53125,-4.578125 C 0.984375,-4.375 0.640625,-4.25 0.09375,-4.078125 Z m 1.484375,0.59375 c 0,-0.296875 0.5625,-0.65625 1.03125,-0.65625 0.734375,0 1.21875,0.75 1.21875,1.90625 0,1.109375 -0.484375,1.859375 -1.203125,1.859375 -0.46875,0 -1.046875,-0.359375 -1.046875,-0.65625 z m 0,0"
             id="path9166" />
        </g>
      </g>
      <g
         style="fill:#211e1e;fill-opacity:1"
         id="g6045">
        <g
           id="use6043"
           transform="translate(260.15814,624.60052)">
          <path
             style="stroke:none"
             d="M 0.1875,-6.203125 H 0.25 c 0.109375,-0.015625 0.234375,-0.03125 0.3125,-0.03125 0.3125,0 0.421875,0.140625 0.421875,0.609375 v 4.75 c 0,0.546875 -0.140625,0.671875 -0.78125,0.71875 V 0 H 2.5625 v -0.15625 c -0.625,-0.03125 -0.75,-0.140625 -0.75,-0.6875 v -5.9375 L 1.78125,-6.8125 C 1.25,-6.640625 0.875,-6.546875 0.1875,-6.375 Z m 0,0"
             id="path9170" />
        </g>
      </g>
      <g
         style="fill:#211e1e;fill-opacity:1"
         id="g6049">
        <g
           id="use6047"
           transform="translate(262.91812,624.60052)">
          <path
             style="stroke:none"
             d="M 4.0625,-1.640625 C 3.59375,-0.875 3.15625,-0.59375 2.515625,-0.59375 c -0.5625,0 -0.984375,-0.28125 -1.28125,-0.859375 -0.171875,-0.375 -0.25,-0.703125 -0.265625,-1.3125 h 3.0625 c -0.078125,-0.640625 -0.171875,-0.9375 -0.421875,-1.25 -0.296875,-0.359375 -0.765625,-0.5625 -1.28125,-0.5625 -0.5,0 -0.96875,0.171875 -1.34375,0.515625 C 0.515625,-3.65625 0.25,-2.953125 0.25,-2.140625 0.25,-0.75 0.96875,0.09375 2.109375,0.09375 c 0.953125,0 1.703125,-0.578125 2.125,-1.65625 z m -3.078125,-1.4375 c 0.109375,-0.78125 0.453125,-1.15625 1.0625,-1.15625 0.609375,0 0.84375,0.28125 0.96875,1.15625 z m 0,0"
             id="path9174" />
        </g>
      </g>
      <g
         style="fill:#211e1e;fill-opacity:1"
         id="g6053">
        <g
           id="use6051"
           transform="translate(296.63794,604.08063)">
          <path
             style="stroke:none"
             d="m 5.078125,-4.8125 h -1.375 v 0.109375 c 0.328125,0.046875 0.46875,0.109375 0.46875,0.25 0,0.140625 -0.140625,0.46875 -0.390625,0.890625 L 2.265625,-0.9375 1.78125,-4.21875 C 1.765625,-4.25 1.765625,-4.28125 1.765625,-4.328125 c 0,-0.25 0.109375,-0.3125 0.578125,-0.375 V -4.8125 H 0.5625 v 0.109375 c 0.40625,0.0625 0.421875,0.078125 0.578125,1 L 1.765625,0.125 H 1.90625 l 2.75,-4.53125 c 0.125,-0.203125 0.25,-0.28125 0.421875,-0.296875 z m 0,0"
             id="path9178" />
        </g>
      </g>
      <g
         style="fill:#211e1e;fill-opacity:1"
         id="g6057">
        <g
           id="use6055"
           transform="translate(268.31805,610.2005)">
          <path
             style="stroke:none"
             d="m 4.578125,-0.921875 c 0,-0.265625 0,-0.28125 -0.203125,-0.28125 -1.015625,0 -3.265625,0.484375 -4.609375,2.921875 V 1.875 c 0,0.25 0,0.265625 0.234375,0.265625 0.1875,0 0.203125,-0.015625 0.25,-0.09375 C 1.0625,0.75 2.4375,0.046875 4.46875,0 4.578125,0 4.578125,-0.0625 4.578125,-0.28125 Z m 0,0"
             id="path9182" />
        </g>
      </g>
      <path
         style="fill:#211e1e;fill-opacity:1;fill-rule:nonzero;stroke:none"
         d="m 272.74609,609.01172 h 22.32032 v 1.19922 h -22.32032 z m 0,0"
         id="path6059" />
      <g
         style="fill:#211e1e;fill-opacity:1"
         id="g6063">
        <g
           id="use6061"
           transform="translate(295.07999,610.20001)">
          <path
             style="stroke:none"
             d="m 4.71875,-3.078125 c 0,-0.234375 0,-0.25 -0.234375,-0.25 -0.1875,0 -0.203125,0.015625 -0.25,0.078125 -0.8125,1.3125 -2.1875,2.015625 -4.21875,2.046875 -0.109375,0 -0.109375,0.078125 -0.109375,0.28125 v 0.640625 c 0,0.265625 0,0.28125 0.203125,0.28125 C 1.125,0 3.375,-0.484375 4.71875,-2.90625 Z m 0,0"
             id="path9186" />
        </g>
      </g>
      <g
         style="fill:#211e1e;fill-opacity:1"
         id="g6067">
        <g
           id="use6065"
           transform="translate(299.51999,610.20001)">
          <path
             style="stroke:none"
             d="m 4.578125,-0.921875 c 0,-0.21875 0,-0.28125 -0.125,-0.28125 -0.609375,0 -1.609375,-0.078125 -2.5,-0.515625 C 0.875,-2.265625 0.46875,-2.890625 0.21875,-3.28125 0.1875,-3.328125 0.125,-3.328125 0,-3.328125 c -0.234375,0 -0.234375,0.015625 -0.234375,0.25 V -2.90625 C 1.109375,-0.46875 3.359375,0 4.375,0 4.578125,0 4.578125,-0.015625 4.578125,-0.28125 Z m 0,0"
             id="path9190" />
        </g>
      </g>
      <path
         style="fill:#211e1e;fill-opacity:1;fill-rule:nonzero;stroke:none"
         d="m 303.94922,609.01172 h 22.32031 v 1.19922 h -22.32031 z m 0,0"
         id="path6069" />
      <g
         style="fill:#211e1e;fill-opacity:1"
         id="g6073">
        <g
           id="use6071"
           transform="translate(326.28,610.20001)">
          <path
             style="stroke:none"
             d="M 4.71875,1.71875 C 3.375,-0.734375 1.125,-1.203125 0.109375,-1.203125 c -0.203125,0 -0.203125,0.015625 -0.203125,0.28125 v 0.640625 c 0,0.234375 0,0.28125 0.140625,0.28125 0.59375,0.015625 1.59375,0.09375 2.484375,0.53125 1.078125,0.53125 1.484375,1.15625 1.734375,1.546875 0.03125,0.0625 0.09375,0.0625 0.21875,0.0625 C 4.71875,2.140625 4.71875,2.125 4.71875,1.875 Z m 0,0"
             id="path9194" />
        </g>
      </g>
      <g
         style="fill:#211e1e;fill-opacity:1"
         id="g6077">
        <g
           id="use6075"
           transform="translate(273.83981,618.95978)">
          <path
             style="stroke:none"
             d="m 6.6875,-4.8125 h -1.375 v 0.109375 c 0.40625,0.046875 0.484375,0.09375 0.484375,0.296875 0,0.125 -0.0625,0.3125 -0.15625,0.5 L 4.265625,-1.1875 3.96875,-4.15625 3.953125,-4.265625 c 0,-0.296875 0.109375,-0.390625 0.515625,-0.4375 V -4.8125 H 2.703125 v 0.109375 c 0.4375,0.015625 0.5,0.078125 0.5625,0.4375 l 0.0625,0.5 -1.265625,2.578125 -0.328125,-3 C 1.71875,-4.21875 1.71875,-4.28125 1.71875,-4.296875 c 0,-0.28125 0.09375,-0.34375 0.546875,-0.40625 V -4.8125 H 0.53125 v 0.109375 c 0.234375,0.03125 0.296875,0.0625 0.375,0.125 C 0.984375,-4.5 1.015625,-4.359375 1.109375,-3.6875 L 1.5625,0.125 H 1.703125 L 3.34375,-3.21875 H 3.375 L 3.75,0.125 H 3.890625 L 6.125,-4.171875 c 0.203125,-0.375 0.28125,-0.4375 0.5625,-0.53125 z m 0,0"
             id="path9198" />
        </g>
      </g>
      <g
         style="fill:#211e1e;fill-opacity:1"
         id="g6081">
        <g
           id="use6079"
           transform="translate(268.31989,624.59998)">
          <path
             style="stroke:none"
             d="m 9.046875,-2.296875 c 0.1875,0 0.359375,0 0.359375,-0.203125 0,-0.1875 -0.171875,-0.1875 -0.359375,-0.1875 h -7.40625 c 0.546875,-0.421875 0.828125,-0.828125 0.90625,-0.96875 0.4375,-0.6875 0.53125,-1.3125 0.53125,-1.3125 0,-0.125 -0.125,-0.125 -0.203125,-0.125 -0.171875,0 -0.1875,0.015625 -0.21875,0.203125 C 2.421875,-3.921875 1.828125,-3.09375 0.703125,-2.625 0.59375,-2.578125 0.5625,-2.5625 0.5625,-2.5 c 0,0.078125 0.046875,0.09375 0.140625,0.140625 1.046875,0.421875 1.703125,1.203125 1.953125,2.3125 0.03125,0.125 0.046875,0.15625 0.21875,0.15625 0.078125,0 0.203125,0 0.203125,-0.125 0,-0.015625 -0.09375,-0.640625 -0.515625,-1.3125 C 2.359375,-1.625 2.078125,-1.96875 1.640625,-2.296875 Z m 0,0"
             id="path9202" />
        </g>
      </g>
      <g
         style="fill:#211e1e;fill-opacity:1"
         id="g6085">
        <g
           id="use6083"
           transform="translate(276.59995,624.59998)">
          <path
             style="stroke:none"
             d="m 6.5625,-2.296875 c 0.171875,0 0.359375,0 0.359375,-0.203125 0,-0.1875 -0.1875,-0.1875 -0.359375,-0.1875 H 1.171875 c -0.171875,0 -0.34375,0 -0.34375,0.1875 0,0.203125 0.171875,0.203125 0.34375,0.203125 z m 0,0"
             id="path9206" />
        </g>
      </g>
      <g
         style="fill:#211e1e;fill-opacity:1"
         id="g6089">
        <g
           id="use6087"
           transform="translate(286.56009,624.59998)">
          <path
             style="stroke:none"
             d="M 4.6875,-3.875 V -4.25 H 3.921875 C 3.71875,-4.25 3.5625,-4.28125 3.375,-4.359375 L 3.15625,-4.4375 C 2.875,-4.53125 2.609375,-4.578125 2.359375,-4.578125 c -0.9375,0 -1.671875,0.703125 -1.671875,1.625 0,0.625 0.265625,1 0.921875,1.328125 -0.1875,0.171875 -0.359375,0.34375 -0.421875,0.40625 -0.328125,0.28125 -0.453125,0.484375 -0.453125,0.6875 0,0.203125 0.109375,0.328125 0.515625,0.515625 -0.703125,0.53125 -0.96875,0.859375 -0.96875,1.21875 0,0.53125 0.78125,0.96875 1.71875,0.96875 0.75,0 1.53125,-0.265625 2.046875,-0.671875 0.375,-0.3125 0.546875,-0.625 0.546875,-1.015625 0,-0.609375 -0.46875,-1.03125 -1.203125,-1.0625 l -1.28125,-0.0625 C 1.578125,-0.65625 1.328125,-0.75 1.328125,-0.90625 c 0,-0.203125 0.328125,-0.546875 0.59375,-0.625 0.09375,0 0.15625,0.015625 0.1875,0.015625 C 2.296875,-1.5 2.4375,-1.484375 2.5,-1.484375 c 0.359375,0 0.765625,-0.15625 1.0625,-0.421875 0.328125,-0.28125 0.484375,-0.625 0.484375,-1.125 C 4.046875,-3.3125 4,-3.546875 3.859375,-3.875 Z M 1.46875,0.015625 c 0.328125,0.078125 1.125,0.140625 1.609375,0.140625 0.90625,0 1.234375,0.125 1.234375,0.484375 0,0.578125 -0.75,0.96875 -1.875,0.96875 -0.875,0 -1.453125,-0.296875 -1.453125,-0.734375 0,-0.234375 0.0625,-0.359375 0.484375,-0.859375 z M 1.515625,-3.375 c 0,-0.578125 0.28125,-0.9375 0.734375,-0.9375 0.3125,0 0.578125,0.171875 0.734375,0.46875 0.171875,0.359375 0.296875,0.8125 0.296875,1.203125 0,0.5625 -0.296875,0.90625 -0.75,0.90625 -0.59375,0 -1.015625,-0.640625 -1.015625,-1.609375 z m 0,0"
             id="path9210" />
        </g>
      </g>
      <g
         style="fill:#211e1e;fill-opacity:1"
         id="g6093">
        <g
           id="use6091"
           transform="translate(291.60007,624.59998)">
          <path
             style="stroke:none"
             d="M 4.0625,-1.640625 C 3.59375,-0.875 3.15625,-0.59375 2.515625,-0.59375 c -0.5625,0 -0.984375,-0.28125 -1.28125,-0.859375 -0.171875,-0.375 -0.25,-0.703125 -0.265625,-1.3125 h 3.0625 c -0.078125,-0.640625 -0.171875,-0.9375 -0.421875,-1.25 -0.296875,-0.359375 -0.765625,-0.5625 -1.28125,-0.5625 -0.5,0 -0.96875,0.171875 -1.34375,0.515625 C 0.515625,-3.65625 0.25,-2.953125 0.25,-2.140625 0.25,-0.75 0.96875,0.09375 2.109375,0.09375 c 0.953125,0 1.703125,-0.578125 2.125,-1.65625 z m -3.078125,-1.4375 c 0.109375,-0.78125 0.453125,-1.15625 1.0625,-1.15625 0.609375,0 0.84375,0.28125 0.96875,1.15625 z m 0,0"
             id="path9214" />
        </g>
      </g>
      <g
         style="fill:#211e1e;fill-opacity:1"
         id="g6097">
        <g
           id="use6095"
           transform="translate(296.04007,624.59998)">
          <path
             style="stroke:none"
             d="M 0.15625,-3.96875 C 0.21875,-4 0.3125,-4 0.421875,-4 c 0.28125,0 0.375,0.140625 0.375,0.625 v 2.484375 c 0,0.5625 -0.109375,0.703125 -0.625,0.734375 V 0 h 2.125 V -0.15625 C 1.78125,-0.1875 1.640625,-0.3125 1.640625,-0.671875 V -3.46875 c 0.46875,-0.453125 0.6875,-0.5625 1.015625,-0.5625 0.5,0 0.734375,0.296875 0.734375,0.953125 v 2.09375 c 0,0.625 -0.125,0.796875 -0.625,0.828125 V 0 h 2.0625 V -0.15625 C 4.34375,-0.203125 4.234375,-0.3125 4.234375,-0.8125 v -2.28125 c 0,-0.9375 -0.453125,-1.484375 -1.1875,-1.484375 -0.453125,0 -0.765625,0.15625 -1.4375,0.796875 V -4.5625 L 1.53125,-4.578125 c -0.484375,0.171875 -0.828125,0.28125 -1.375,0.4375 z m 0,0"
             id="path9218" />
        </g>
      </g>
      <g
         style="fill:#211e1e;fill-opacity:1"
         id="g6101">
        <g
           id="use6099"
           transform="translate(301.08008,624.59998)">
          <path
             style="stroke:none"
             d="m 0.0625,-3.890625 c 0.140625,-0.03125 0.234375,-0.03125 0.359375,-0.03125 0.25,0 0.328125,0.15625 0.328125,0.59375 v 2.484375 c 0,0.5 -0.0625,0.578125 -0.703125,0.6875 V 0 H 2.4375 V -0.15625 C 1.765625,-0.171875 1.59375,-0.328125 1.59375,-0.890625 v -2.25 c 0,-0.3125 0.4375,-0.8125 0.703125,-0.8125 0.0625,0 0.140625,0.046875 0.25,0.140625 0.171875,0.140625 0.28125,0.203125 0.40625,0.203125 0.234375,0 0.390625,-0.171875 0.390625,-0.453125 0,-0.328125 -0.21875,-0.515625 -0.546875,-0.515625 -0.421875,0 -0.71875,0.21875 -1.203125,0.921875 V -4.5625 L 1.546875,-4.578125 c -0.53125,0.21875 -0.890625,0.34375 -1.484375,0.53125 z m 0,0"
             id="path9222" />
        </g>
      </g>
      <g
         style="fill:#211e1e;fill-opacity:1"
         id="g6105">
        <g
           id="use6103"
           transform="translate(304.44009,624.59998)">
          <path
             style="stroke:none"
             d="M 4.0625,-1.640625 C 3.59375,-0.875 3.15625,-0.59375 2.515625,-0.59375 c -0.5625,0 -0.984375,-0.28125 -1.28125,-0.859375 -0.171875,-0.375 -0.25,-0.703125 -0.265625,-1.3125 h 3.0625 c -0.078125,-0.640625 -0.171875,-0.9375 -0.421875,-1.25 -0.296875,-0.359375 -0.765625,-0.5625 -1.28125,-0.5625 -0.5,0 -0.96875,0.171875 -1.34375,0.515625 C 0.515625,-3.65625 0.25,-2.953125 0.25,-2.140625 0.25,-0.75 0.96875,0.09375 2.109375,0.09375 c 0.953125,0 1.703125,-0.578125 2.125,-1.65625 z m -3.078125,-1.4375 c 0.109375,-0.78125 0.453125,-1.15625 1.0625,-1.15625 0.609375,0 0.84375,0.28125 0.96875,1.15625 z m 0,0"
             id="path9226" />
        </g>
      </g>
      <g
         style="fill:#211e1e;fill-opacity:1"
         id="g6109">
        <g
           id="use6107"
           transform="translate(308.88007,624.59998)">
          <path
             style="stroke:none"
             d="M 3.140625,-3.125 3.09375,-4.484375 H 2.984375 L 2.96875,-4.46875 C 2.875,-4.390625 2.875,-4.390625 2.828125,-4.390625 c -0.0625,0 -0.15625,-0.015625 -0.265625,-0.0625 -0.21875,-0.078125 -0.4375,-0.125 -0.703125,-0.125 -0.78125,0 -1.34375,0.515625 -1.34375,1.234375 0,0.546875 0.3125,0.953125 1.15625,1.4375 L 2.25,-1.578125 c 0.359375,0.1875 0.515625,0.4375 0.515625,0.734375 0,0.4375 -0.3125,0.71875 -0.828125,0.71875 -0.328125,0 -0.640625,-0.125 -0.828125,-0.34375 -0.21875,-0.25 -0.296875,-0.484375 -0.4375,-1.046875 h -0.15625 v 1.5625 h 0.125 C 0.71875,-0.0625 0.75,-0.078125 0.875,-0.078125 c 0.09375,0 0.234375,0.015625 0.453125,0.078125 0.28125,0.0625 0.5625,0.09375 0.734375,0.09375 0.765625,0 1.40625,-0.578125 1.40625,-1.265625 0,-0.5 -0.234375,-0.828125 -0.84375,-1.1875 L 1.5625,-3 C 1.28125,-3.15625 1.125,-3.40625 1.125,-3.671875 c 0,-0.40625 0.3125,-0.6875 0.765625,-0.6875 0.578125,0 0.875,0.34375 1.09375,1.234375 z m 0,0"
             id="path9230" />
        </g>
      </g>
      <g
         style="fill:#211e1e;fill-opacity:1"
         id="g6113">
        <g
           id="use6111"
           transform="translate(321.11987,618.95978)">
          <path
             style="stroke:none"
             d="M 5.65625,-4.8125 H 3.828125 v 0.109375 c 0.4375,0.0625 0.515625,0.109375 0.515625,0.328125 0,0.09375 -0.015625,0.265625 -0.078125,0.453125 L 3.9375,-2.71875 H 1.828125 l 0.40625,-1.4375 C 2.34375,-4.53125 2.53125,-4.671875 2.96875,-4.703125 V -4.8125 H 0.953125 v 0.109375 C 1.421875,-4.65625 1.53125,-4.59375 1.53125,-4.375 c 0,0.09375 -0.03125,0.265625 -0.078125,0.453125 L 0.53125,-0.65625 C 0.40625,-0.234375 0.359375,-0.1875 -0.0625,-0.125 V 0 H 1.75 V -0.125 C 1.3125,-0.171875 1.234375,-0.234375 1.234375,-0.4375 c 0,-0.0625 0,-0.109375 0.015625,-0.171875 L 1.734375,-2.40625 H 3.84375 l -0.484375,1.75 C 3.25,-0.28125 3.09375,-0.171875 2.625,-0.125 V 0 h 2 V -0.125 C 4.15625,-0.15625 4.0625,-0.21875 4.0625,-0.421875 c 0,-0.078125 0,-0.125 0.015625,-0.1875 l 0.96875,-3.546875 c 0.125,-0.421875 0.1875,-0.46875 0.609375,-0.546875 z m 0,0"
             id="path9234" />
        </g>
      </g>
      <g
         style="fill:#211e1e;fill-opacity:1"
         id="g6117">
        <g
           id="use6115"
           transform="translate(314.7601,624.59998)">
          <path
             style="stroke:none"
             d="m 9.046875,-2.296875 c 0.1875,0 0.359375,0 0.359375,-0.203125 0,-0.1875 -0.171875,-0.1875 -0.359375,-0.1875 h -7.40625 c 0.546875,-0.421875 0.828125,-0.828125 0.90625,-0.96875 0.4375,-0.6875 0.53125,-1.3125 0.53125,-1.3125 0,-0.125 -0.125,-0.125 -0.203125,-0.125 -0.171875,0 -0.1875,0.015625 -0.21875,0.203125 C 2.421875,-3.921875 1.828125,-3.09375 0.703125,-2.625 0.59375,-2.578125 0.5625,-2.5625 0.5625,-2.5 c 0,0.078125 0.046875,0.09375 0.140625,0.140625 1.046875,0.421875 1.703125,1.203125 1.953125,2.3125 0.03125,0.125 0.046875,0.15625 0.21875,0.15625 0.078125,0 0.203125,0 0.203125,-0.125 0,-0.015625 -0.09375,-0.640625 -0.515625,-1.3125 C 2.359375,-1.625 2.078125,-1.96875 1.640625,-2.296875 Z m 0,0"
             id="path9238" />
        </g>
      </g>
      <g
         style="fill:#211e1e;fill-opacity:1"
         id="g6121">
        <g
           id="use6119"
           transform="translate(323.04019,624.59998)">
          <path
             style="stroke:none"
             d="m 6.5625,-2.296875 c 0.171875,0 0.359375,0 0.359375,-0.203125 0,-0.1875 -0.1875,-0.1875 -0.359375,-0.1875 H 1.171875 c -0.171875,0 -0.34375,0 -0.34375,0.1875 0,0.203125 0.171875,0.203125 0.34375,0.203125 z m 0,0"
             id="path9242" />
        </g>
      </g>
      <g
         style="fill:#211e1e;fill-opacity:1"
         id="g6125">
        <g
           id="use6123"
           transform="translate(331.92032,624.59998)">
          <path
             style="stroke:none"
             d="M 0.1875,-3.96875 C 0.3125,-4 0.40625,-4 0.515625,-4 c 0.25,0 0.34375,0.15625 0.34375,0.625 v 2.53125 c 0,0.53125 -0.140625,0.6875 -0.703125,0.6875 V 0 H 2.375 V -0.15625 C 1.84375,-0.171875 1.6875,-0.28125 1.6875,-0.671875 v -2.8125 c 0,-0.015625 0.09375,-0.109375 0.15625,-0.1875 0.25,-0.21875 0.671875,-0.390625 1.03125,-0.390625 0.4375,0 0.65625,0.34375 0.65625,1.046875 v 2.15625 c 0,0.5625 -0.109375,0.671875 -0.6875,0.703125 V 0 h 2.234375 v -0.15625 c -0.5625,0 -0.71875,-0.171875 -0.71875,-0.796875 v -2.5 C 4.671875,-3.890625 5,-4.0625 5.453125,-4.0625 c 0.5625,0 0.75,0.265625 0.75,1.09375 V -0.875 c 0,0.578125 -0.078125,0.65625 -0.65625,0.71875 V 0 H 7.71875 v -0.15625 l -0.25,-0.015625 C 7.171875,-0.1875 7.03125,-0.375 7.03125,-0.75 v -2.0625 c 0,-1.171875 -0.375,-1.765625 -1.15625,-1.765625 -0.578125,0 -1.078125,0.25 -1.625,0.828125 -0.171875,-0.5625 -0.515625,-0.828125 -1.046875,-0.828125 -0.4375,0 -0.71875,0.125 -1.546875,0.765625 v -0.75 L 1.578125,-4.578125 c -0.5,0.1875 -0.84375,0.296875 -1.390625,0.4375 z m 0,0"
             id="path9246" />
        </g>
      </g>
      <g
         style="fill:#211e1e;fill-opacity:1"
         id="g6129">
        <g
           id="use6127"
           transform="translate(339.72031,624.59998)">
          <path
             style="stroke:none"
             d="m 2.5,-4.578125 c -1.296875,0 -2.203125,0.953125 -2.203125,2.328125 0,1.34375 0.921875,2.34375 2.171875,2.34375 1.265625,0 2.21875,-1.046875 2.21875,-2.421875 0,-1.3125 -0.921875,-2.25 -2.1875,-2.25 z M 2.359375,-4.3125 c 0.84375,0 1.421875,0.96875 1.421875,2.328125 0,1.125 -0.4375,1.8125 -1.1875,1.8125 -0.390625,0 -0.765625,-0.25 -0.96875,-0.640625 C 1.34375,-1.328125 1.1875,-2.03125 1.1875,-2.734375 1.1875,-3.6875 1.65625,-4.3125 2.359375,-4.3125 Z m 0,0"
             id="path9250" />
        </g>
      </g>
      <g
         style="fill:#211e1e;fill-opacity:1"
         id="g6133">
        <g
           id="use6131"
           transform="translate(344.64023,624.59998)">
          <path
             style="stroke:none"
             d="M 4.75,-4.484375 H 3.375 v 0.140625 c 0.3125,0.03125 0.46875,0.140625 0.46875,0.328125 0,0.09375 -0.03125,0.203125 -0.0625,0.296875 L 2.796875,-1.140625 1.78125,-3.6875 C 1.71875,-3.828125 1.6875,-3.96875 1.6875,-4.0625 c 0,-0.171875 0.109375,-0.25 0.453125,-0.28125 V -4.484375 H 0.1875 v 0.140625 c 0.375,0.03125 0.453125,0.125 0.90625,1.15625 l 1.203125,2.859375 C 2.3125,-0.265625 2.34375,-0.203125 2.375,-0.125 2.4375,0.0625 2.5,0.140625 2.546875,0.140625 c 0.0625,0 0.140625,-0.125 0.28125,-0.5 L 4.109375,-3.5625 c 0.28125,-0.671875 0.34375,-0.75 0.640625,-0.78125 z m 0,0"
             id="path9254" />
        </g>
      </g>
      <g
         style="fill:#211e1e;fill-opacity:1"
         id="g6137">
        <g
           id="use6135"
           transform="translate(349.68024,624.59998)">
          <path
             style="stroke:none"
             d="M 1.75,-4.578125 0.203125,-4.03125 v 0.140625 H 0.28125 c 0.125,-0.03125 0.25,-0.03125 0.34375,-0.03125 0.234375,0 0.328125,0.15625 0.328125,0.59375 v 2.3125 c 0,0.71875 -0.109375,0.828125 -0.796875,0.859375 V 0 H 2.515625 V -0.15625 C 1.859375,-0.203125 1.78125,-0.296875 1.78125,-1.015625 V -4.5625 Z M 1.28125,-6.8125 c -0.28125,0 -0.5,0.234375 -0.5,0.515625 0,0.28125 0.21875,0.5 0.5,0.5 0.28125,0 0.515625,-0.21875 0.515625,-0.5 0,-0.28125 -0.234375,-0.515625 -0.515625,-0.515625 z m 0,0"
             id="path9258" />
        </g>
      </g>
      <g
         style="fill:#211e1e;fill-opacity:1"
         id="g6141">
        <g
           id="use6139"
           transform="translate(352.44025,624.59998)">
          <path
             style="stroke:none"
             d="M 4.0625,-1.640625 C 3.59375,-0.875 3.15625,-0.59375 2.515625,-0.59375 c -0.5625,0 -0.984375,-0.28125 -1.28125,-0.859375 -0.171875,-0.375 -0.25,-0.703125 -0.265625,-1.3125 h 3.0625 c -0.078125,-0.640625 -0.171875,-0.9375 -0.421875,-1.25 -0.296875,-0.359375 -0.765625,-0.5625 -1.28125,-0.5625 -0.5,0 -0.96875,0.171875 -1.34375,0.515625 C 0.515625,-3.65625 0.25,-2.953125 0.25,-2.140625 0.25,-0.75 0.96875,0.09375 2.109375,0.09375 c 0.953125,0 1.703125,-0.578125 2.125,-1.65625 z m -3.078125,-1.4375 c 0.109375,-0.78125 0.453125,-1.15625 1.0625,-1.15625 0.609375,0 0.84375,0.28125 0.96875,1.15625 z m 0,0"
             id="path9262" />
        </g>
      </g>
      <g
         style="fill:#211e1e;fill-opacity:1"
         id="g6145">
        <g
           id="use6143"
           transform="translate(356.88022,624.59998)">
          <path
             style="stroke:none"
             d="M 3.140625,-3.125 3.09375,-4.484375 H 2.984375 L 2.96875,-4.46875 C 2.875,-4.390625 2.875,-4.390625 2.828125,-4.390625 c -0.0625,0 -0.15625,-0.015625 -0.265625,-0.0625 -0.21875,-0.078125 -0.4375,-0.125 -0.703125,-0.125 -0.78125,0 -1.34375,0.515625 -1.34375,1.234375 0,0.546875 0.3125,0.953125 1.15625,1.4375 L 2.25,-1.578125 c 0.359375,0.1875 0.515625,0.4375 0.515625,0.734375 0,0.4375 -0.3125,0.71875 -0.828125,0.71875 -0.328125,0 -0.640625,-0.125 -0.828125,-0.34375 -0.21875,-0.25 -0.296875,-0.484375 -0.4375,-1.046875 h -0.15625 v 1.5625 h 0.125 C 0.71875,-0.0625 0.75,-0.078125 0.875,-0.078125 c 0.09375,0 0.234375,0.015625 0.453125,0.078125 0.28125,0.0625 0.5625,0.09375 0.734375,0.09375 0.765625,0 1.40625,-0.578125 1.40625,-1.265625 0,-0.5 -0.234375,-0.828125 -0.84375,-1.1875 L 1.5625,-3 C 1.28125,-3.15625 1.125,-3.40625 1.125,-3.671875 c 0,-0.40625 0.3125,-0.6875 0.765625,-0.6875 0.578125,0 0.875,0.34375 1.09375,1.234375 z m 0,0"
             id="path9266" />
        </g>
      </g>
    </g>
  </g>
</svg>
