<?xml version="1.0" encoding="UTF-8" standalone="no"?>
<svg
   width="20.679668mm"
   height="8.6247091mm"
   viewBox="0 0 20.679668 8.6247091"
   version="1.1"
   id="svg6829"
   xmlns="http://www.w3.org/2000/svg"
   xmlns:svg="http://www.w3.org/2000/svg">
  <defs
     id="defs6826" />
  <g
     id="layer1"
     transform="translate(-73.048627,-140.18957)">
    <g
       id="g6692"
       transform="matrix(0.35277777,0,0,0.35277777,-22.558144,81.011098)">
      <g
         style="fill:#211e1e;fill-opacity:1"
         id="g1601">
        <g
           id="use1599"
           transform="translate(270.83945,181.6801)">
          <path
             style="stroke:none"
             d="m 4.625,-1.09375 c -0.15625,0.140625 -0.203125,0.203125 -0.28125,0.28125 -0.296875,0.296875 -0.421875,0.40625 -0.515625,0.40625 -0.078125,0 -0.140625,-0.0625 -0.140625,-0.125 0,-0.203125 0.421875,-1.90625 0.890625,-3.625 0.03125,-0.09375 0.03125,-0.125 0.0625,-0.203125 L 4.5625,-4.390625 3.953125,-4.328125 3.921875,-4.296875 3.8125,-3.8125 c -0.078125,-0.375 -0.359375,-0.578125 -0.796875,-0.578125 -1.3125,0 -2.84375,1.8125 -2.84375,3.390625 0,0.703125 0.375,1.109375 1.015625,1.109375 0.703125,0 1.125,-0.328125 2,-1.5625 -0.203125,0.78125 -0.234375,0.90625 -0.234375,1.140625 0,0.296875 0.125,0.40625 0.40625,0.40625 C 3.765625,0.09375 4,-0.09375 4.75,-1 Z M 3.078125,-4.171875 c 0.34375,0.015625 0.5625,0.25 0.5625,0.609375 0,0.828125 -0.5,2 -1.1875,2.75 C 2.21875,-0.546875 1.875,-0.375 1.578125,-0.375 1.234375,-0.375 1,-0.671875 1,-1.125 1,-1.671875 1.390625,-2.6875 1.8125,-3.3125 2.21875,-3.890625 2.6875,-4.203125 3.078125,-4.171875 Z m 0,0"
             id="path6694" />
        </g>
      </g>
      <g
         style="fill:#211e1e;fill-opacity:1"
         id="g1605">
        <g
           id="use1603"
           transform="translate(275.87967,183.11993)">
          <path
             style="stroke:none"
             d="m 1.640625,-0.84375 c -0.1875,0.234375 -0.234375,0.296875 -0.3125,0.375 -0.125,0.125 -0.234375,0.203125 -0.296875,0.203125 -0.0625,0 -0.109375,-0.0625 -0.109375,-0.109375 0,-0.078125 0.015625,-0.1875 0.0625,-0.328125 0,-0.015625 0.03125,-0.078125 0.046875,-0.125 v -0.03125 L 1.6875,-3.234375 1.65625,-3.25 c -0.734375,0.140625 -0.890625,0.15625 -1.171875,0.1875 v 0.109375 C 0.875,-2.9375 0.9375,-2.921875 0.9375,-2.765625 c 0,0.046875 -0.015625,0.171875 -0.0625,0.3125 l -0.34375,1.3125 c -0.125,0.421875 -0.171875,0.65625 -0.171875,0.796875 0,0.28125 0.125,0.421875 0.34375,0.421875 0.34375,0 0.609375,-0.21875 1.03125,-0.84375 z m -0.0625,-3.984375 c -0.203125,0 -0.34375,0.171875 -0.34375,0.390625 0,0.234375 0.140625,0.390625 0.34375,0.390625 0.203125,0 0.375,-0.171875 0.375,-0.375 0,-0.203125 -0.171875,-0.40625 -0.375,-0.40625 z m 0,0"
             id="path6698" />
        </g>
      </g>
      <g
         style="fill:#211e1e;fill-opacity:1"
         id="g1609">
        <g
           id="use1607"
           transform="translate(278.9996,183.11993)">
          <path
             style="stroke:none"
             d="M 1.8125,-3.234375 1.796875,-3.25 c -0.65625,0.109375 -1.03125,0.171875 -1.265625,0.1875 v 0.109375 H 0.796875 C 0.84375,-2.96875 1,-2.921875 1.03125,-2.890625 c 0.03125,0.03125 0.046875,0.09375 0.046875,0.171875 0,0.078125 -0.03125,0.265625 -0.109375,0.59375 L 0.4375,0.015625 c -0.25,1.015625 -0.421875,1.34375 -0.71875,1.34375 -0.09375,0 -0.125,-0.03125 -0.125,-0.078125 0,-0.03125 0,-0.046875 0.03125,-0.09375 0.046875,-0.046875 0.0625,-0.09375 0.0625,-0.140625 0,-0.15625 -0.140625,-0.28125 -0.3125,-0.28125 -0.171875,0 -0.296875,0.140625 -0.296875,0.3125 0,0.25 0.25,0.453125 0.59375,0.453125 0.640625,0 1.078125,-0.5625 1.375,-1.734375 z m -0.140625,-1.59375 c -0.203125,0 -0.359375,0.171875 -0.359375,0.390625 0,0.234375 0.140625,0.390625 0.359375,0.390625 0.1875,0 0.359375,-0.171875 0.359375,-0.375 0,-0.203125 -0.171875,-0.40625 -0.359375,-0.40625 z m 0,0"
             id="path6702" />
        </g>
      </g>
      <g
         style="fill:#211e1e;fill-opacity:1"
         id="g1613">
        <g
           id="use1611"
           transform="translate(283.91953,181.6801)">
          <path
             style="stroke:none"
             d="m 6.84375,-3.265625 c 0.15625,0 0.34375,0 0.34375,-0.1875 C 7.1875,-3.65625 7,-3.65625 6.859375,-3.65625 h -5.96875 c -0.140625,0 -0.328125,0 -0.328125,0.203125 0,0.1875 0.1875,0.1875 0.328125,0.1875 z m 0.015625,1.9375 c 0.140625,0 0.328125,0 0.328125,-0.203125 0,-0.1875 -0.1875,-0.1875 -0.34375,-0.1875 H 0.890625 c -0.140625,0 -0.328125,0 -0.328125,0.1875 0,0.203125 0.1875,0.203125 0.328125,0.203125 z m 0,0"
             id="path6706" />
        </g>
      </g>
      <g
         style="fill:#211e1e;fill-opacity:1"
         id="g1617">
        <g
           id="use1615"
           transform="translate(297.59961,171)">
          <path
             style="stroke:none"
             d="M 5.078125,-0.859375 C 5,-0.78125 4.953125,-0.703125 4.921875,-0.671875 4.71875,-0.40625 4.5625,-0.28125 4.453125,-0.28125 c -0.0625,0 -0.09375,-0.046875 -0.09375,-0.109375 0,-0.046875 0.03125,-0.15625 0.078125,-0.34375 l 0.5,-1.84375 c 0,-0.03125 0.015625,-0.171875 0.015625,-0.203125 0,-0.265625 -0.1875,-0.46875 -0.4375,-0.46875 C 4.375,-3.25 4.234375,-3.203125 4.0625,-3.09375 3.6875,-2.859375 3.390625,-2.5 2.890625,-1.6875 3.0625,-2.25 3.171875,-2.671875 3.171875,-2.8125 c 0,-0.25 -0.15625,-0.4375 -0.40625,-0.4375 -0.453125,0 -0.96875,0.484375 -1.65625,1.546875 l 0.4375,-1.53125 L 1.515625,-3.25 c -0.40625,0.09375 -0.5625,0.109375 -1.171875,0.21875 v 0.125 h 0.1875 c 0.1875,0 0.28125,0.046875 0.28125,0.15625 0,0.09375 -0.171875,0.765625 -0.4375,1.703125 C 0.203125,-0.453125 0.1875,-0.375 0.09375,0 H 0.640625 C 1,-1.171875 1.109375,-1.453125 1.359375,-1.828125 1.765625,-2.453125 2.21875,-2.875 2.46875,-2.875 c 0.09375,0 0.140625,0.078125 0.140625,0.1875 C 2.609375,-2.625 2.375,-1.71875 1.90625,0 h 0.5625 c 0.296875,-1.15625 0.4375,-1.515625 0.8125,-2.046875 0.359375,-0.5 0.734375,-0.828125 0.9375,-0.828125 0.09375,0 0.15625,0.078125 0.15625,0.15625 0,0.046875 -0.015625,0.125 -0.046875,0.265625 l -0.4375,1.6875 c -0.0625,0.28125 -0.09375,0.421875 -0.09375,0.5 0,0.21875 0.109375,0.328125 0.296875,0.328125 0.34375,0 0.671875,-0.234375 1.0625,-0.78125 l 0.03125,-0.0625 z m 0,0"
             id="path6710" />
        </g>
      </g>
      <g
         style="fill:#211e1e;fill-opacity:1"
         id="g1621">
        <g
           id="use1619"
           transform="translate(295.19962,183.8398)">
          <path
             style="stroke:none"
             d="M 2.53125,-10.203125 H 6.375 c 1.640625,0 2.078125,0.328125 2.3125,1.78125 h 0.375 L 8.921875,-10.78125 h -8.59375 l 3.34375,6.6875 -3.46875,5.859375 H 9.1875 L 9.96875,-1.25 h -0.375 C 9.140625,-0.09375 8.703125,0.15625 7.046875,0.15625 H 2.34375 l 2.875,-5.046875 z m 0,0"
             id="path6714" />
        </g>
      </g>
      <g
         style="fill:#211e1e;fill-opacity:1"
         id="g1625">
        <g
           id="use1623"
           transform="translate(293.8797,192.11987)">
          <path
             style="stroke:none"
             d="m 3.046875,-0.796875 -0.109375,0.1875 c -0.125,0.21875 -0.21875,0.3125 -0.328125,0.3125 -0.15625,0 -0.3125,-0.25 -0.59375,-0.953125 -0.046875,-0.09375 -0.15625,-0.359375 -0.28125,-0.65625 1.09375,-0.96875 1.3125,-1.109375 1.671875,-1.125 v -0.125 H 2.046875 v 0.125 h 0.125 c 0.1875,0 0.28125,0.046875 0.28125,0.125 0,0.140625 -0.359375,0.515625 -1.046875,1.03125 -0.109375,0.078125 -0.203125,0.15625 -0.328125,0.25 L 1.96875,-5 1.9375,-5.03125 C 1.5,-4.9375 1.21875,-4.890625 0.78125,-4.84375 v 0.125 c 0.359375,-0.015625 0.5,0.046875 0.5,0.1875 -0.015625,0.125 -0.0625,0.3125 -0.15625,0.65625 -0.03125,0.109375 -0.0625,0.1875 -0.078125,0.25 v 0.0625 L 0.109375,0 H 0.65625 L 1.015625,-1.328125 1.3125,-1.5625 c 0.125,0.328125 0.3125,0.765625 0.453125,1.03125 C 2,-0.0625 2.125,0.078125 2.34375,0.078125 c 0.296875,0 0.484375,-0.1875 0.8125,-0.796875 z m 0,0"
             id="path6718" />
        </g>
      </g>
      <g
         style="fill:#211e1e;fill-opacity:1"
         id="g1629">
        <g
           id="use1627"
           transform="translate(297.23984,192.11987)">
          <path
             style="stroke:none"
             d="m 5.0625,-2.40625 c 0.109375,0 0.25,0 0.25,-0.15625 0,-0.140625 -0.140625,-0.140625 -0.234375,-0.140625 H 0.65625 c -0.109375,0 -0.25,0 -0.25,0.140625 0,0.15625 0.140625,0.15625 0.25,0.15625 z m 0.015625,1.421875 c 0.09375,0 0.234375,0 0.234375,-0.140625 0,-0.15625 -0.140625,-0.15625 -0.25,-0.15625 H 0.65625 c -0.109375,0 -0.25,0 -0.25,0.15625 0,0.140625 0.140625,0.140625 0.25,0.140625 z m 0,0"
             id="path6722" />
        </g>
      </g>
      <g
         style="fill:#211e1e;fill-opacity:1"
         id="g1633">
        <g
           id="use1631"
           transform="translate(303,192.11987)">
          <path
             style="stroke:none"
             d="M 2.140625,-4.984375 0.8125,-4.3125 v 0.09375 C 0.90625,-4.25 0.984375,-4.28125 1.015625,-4.296875 1.15625,-4.34375 1.28125,-4.375 1.34375,-4.375 c 0.15625,0 0.234375,0.109375 0.234375,0.34375 v 3.34375 c 0,0.25 -0.0625,0.421875 -0.1875,0.484375 C 1.28125,-0.140625 1.1875,-0.125 0.875,-0.109375 V 0 H 2.90625 V -0.109375 C 2.328125,-0.125 2.203125,-0.1875 2.203125,-0.546875 V -4.96875 Z m 0,0"
             id="path6726" />
        </g>
      </g>
      <g
         style="fill:#211e1e;fill-opacity:1"
         id="g1637">
        <g
           id="use1635"
           transform="translate(307.79962,181.68008)">
          <path
             style="stroke:none"
             d="M 1.09375,-6.40625 C 1.6875,-6.390625 1.75,-6.359375 1.75,-6.140625 c 0,0.09375 -0.03125,0.203125 -0.09375,0.421875 -0.015625,0.078125 -0.046875,0.140625 -0.046875,0.203125 l -0.03125,0.0625 -1.34375,5 v 0.03125 c 0,0.234375 0.765625,0.53125 1.328125,0.53125 1.5,0 3.15625,-1.75 3.15625,-3.3125 0,-0.6875 -0.484375,-1.1875 -1.15625,-1.1875 -0.703125,0 -1.21875,0.40625 -1.921875,1.5 0.515625,-1.890625 0.578125,-2.15625 1.03125,-3.875 L 2.625,-6.8125 c -0.5,0.09375 -0.859375,0.15625 -1.53125,0.234375 z m 2.078125,2.5 c 0.421875,0 0.703125,0.328125 0.703125,0.859375 0,0.65625 -0.515625,1.71875 -1.109375,2.34375 -0.359375,0.375 -0.796875,0.578125 -1.21875,0.578125 -0.3125,0 -0.453125,-0.109375 -0.453125,-0.328125 0,-0.609375 0.296875,-1.578125 0.703125,-2.3125 C 2.25,-3.53125 2.6875,-3.90625 3.171875,-3.90625 Z m 0,0"
             id="path6730" />
        </g>
      </g>
      <g
         style="fill:#211e1e;fill-opacity:1"
         id="g1641">
        <g
           id="use1639"
           transform="translate(312.83945,183.36015)">
          <path
             style="stroke:none"
             d="m 1.640625,-0.84375 c -0.1875,0.234375 -0.234375,0.296875 -0.3125,0.375 -0.125,0.125 -0.234375,0.203125 -0.296875,0.203125 -0.0625,0 -0.109375,-0.0625 -0.109375,-0.109375 0,-0.078125 0.015625,-0.1875 0.0625,-0.328125 0,-0.015625 0.03125,-0.078125 0.046875,-0.125 v -0.03125 L 1.6875,-3.234375 1.65625,-3.25 c -0.734375,0.140625 -0.890625,0.15625 -1.171875,0.1875 v 0.109375 C 0.875,-2.9375 0.9375,-2.921875 0.9375,-2.765625 c 0,0.046875 -0.015625,0.171875 -0.0625,0.3125 l -0.34375,1.3125 c -0.125,0.421875 -0.171875,0.65625 -0.171875,0.796875 0,0.28125 0.125,0.421875 0.34375,0.421875 0.34375,0 0.609375,-0.21875 1.03125,-0.84375 z m -0.0625,-3.984375 c -0.203125,0 -0.34375,0.171875 -0.34375,0.390625 0,0.234375 0.140625,0.390625 0.34375,0.390625 0.203125,0 0.375,-0.171875 0.375,-0.375 0,-0.203125 -0.171875,-0.40625 -0.375,-0.40625 z m 0,0"
             id="path6734" />
        </g>
      </g>
      <g
         style="fill:#211e1e;fill-opacity:1"
         id="g1645">
        <g
           id="use1643"
           transform="translate(314.87946,183.36015)">
          <path
             style="stroke:none"
             d="m 3.046875,-0.796875 -0.109375,0.1875 c -0.125,0.21875 -0.21875,0.3125 -0.328125,0.3125 -0.15625,0 -0.3125,-0.25 -0.59375,-0.953125 -0.046875,-0.09375 -0.15625,-0.359375 -0.28125,-0.65625 1.09375,-0.96875 1.3125,-1.109375 1.671875,-1.125 v -0.125 H 2.046875 v 0.125 h 0.125 c 0.1875,0 0.28125,0.046875 0.28125,0.125 0,0.140625 -0.359375,0.515625 -1.046875,1.03125 -0.109375,0.078125 -0.203125,0.15625 -0.328125,0.25 L 1.96875,-5 1.9375,-5.03125 C 1.5,-4.9375 1.21875,-4.890625 0.78125,-4.84375 v 0.125 c 0.359375,-0.015625 0.5,0.046875 0.5,0.1875 -0.015625,0.125 -0.0625,0.3125 -0.15625,0.65625 -0.03125,0.109375 -0.0625,0.1875 -0.078125,0.25 v 0.0625 L 0.109375,0 H 0.65625 L 1.015625,-1.328125 1.3125,-1.5625 c 0.125,0.328125 0.3125,0.765625 0.453125,1.03125 C 2,-0.0625 2.125,0.078125 2.34375,0.078125 c 0.296875,0 0.484375,-0.1875 0.8125,-0.796875 z m 0,0"
             id="path6738" />
        </g>
      </g>
      <g
         style="fill:#211e1e;fill-opacity:1"
         id="g1649">
        <g
           id="use1647"
           transform="translate(318.71954,181.68008)">
          <path
             style="stroke:none"
             d="M 3.484375,-1.0625 C 2.9375,-0.46875 2.546875,-0.25 2.0625,-0.25 1.5,-0.25 1.15625,-0.671875 1.15625,-1.390625 1.15625,-2.234375 1.5,-3.125 2.0625,-3.703125 2.359375,-4 2.75,-4.1875 3.140625,-4.1875 c 0.234375,0 0.375,0.078125 0.375,0.203125 0,0.046875 -0.015625,0.09375 -0.0625,0.1875 -0.0625,0.125 -0.078125,0.203125 -0.078125,0.28125 0,0.25 0.140625,0.390625 0.390625,0.390625 0.265625,0 0.46875,-0.203125 0.46875,-0.46875 0,-0.453125 -0.453125,-0.796875 -1.046875,-0.796875 -1.5,0 -2.890625,1.453125 -2.890625,3 0,0.953125 0.546875,1.5 1.46875,1.5 0.734375,0 1.28125,-0.3125 1.890625,-1.0625 z m 0,0"
             id="path6742" />
        </g>
      </g>
      <g
         style="fill:#211e1e;fill-opacity:1"
         id="g1653">
        <g
           id="use1651"
           transform="translate(323.15976,183.36015)">
          <path
             style="stroke:none"
             d="m 3.046875,-0.796875 -0.109375,0.1875 c -0.125,0.21875 -0.21875,0.3125 -0.328125,0.3125 -0.15625,0 -0.3125,-0.25 -0.59375,-0.953125 -0.046875,-0.09375 -0.15625,-0.359375 -0.28125,-0.65625 1.09375,-0.96875 1.3125,-1.109375 1.671875,-1.125 v -0.125 H 2.046875 v 0.125 h 0.125 c 0.1875,0 0.28125,0.046875 0.28125,0.125 0,0.140625 -0.359375,0.515625 -1.046875,1.03125 -0.109375,0.078125 -0.203125,0.15625 -0.328125,0.25 L 1.96875,-5 1.9375,-5.03125 C 1.5,-4.9375 1.21875,-4.890625 0.78125,-4.84375 v 0.125 c 0.359375,-0.015625 0.5,0.046875 0.5,0.1875 -0.015625,0.125 -0.0625,0.3125 -0.15625,0.65625 -0.03125,0.109375 -0.0625,0.1875 -0.078125,0.25 v 0.0625 L 0.109375,0 H 0.65625 L 1.015625,-1.328125 1.3125,-1.5625 c 0.125,0.328125 0.3125,0.765625 0.453125,1.03125 C 2,-0.0625 2.125,0.078125 2.34375,0.078125 c 0.296875,0 0.484375,-0.1875 0.8125,-0.796875 z m 0,0"
             id="path6746" />
        </g>
      </g>
      <g
         style="fill:#211e1e;fill-opacity:1"
         id="g1657">
        <g
           id="use1655"
           transform="translate(327.59961,183.36015)">
          <path
             style="stroke:none"
             d="M 1.8125,-3.234375 1.796875,-3.25 c -0.65625,0.109375 -1.03125,0.171875 -1.265625,0.1875 v 0.109375 H 0.796875 C 0.84375,-2.96875 1,-2.921875 1.03125,-2.890625 c 0.03125,0.03125 0.046875,0.09375 0.046875,0.171875 0,0.078125 -0.03125,0.265625 -0.109375,0.59375 L 0.4375,0.015625 c -0.25,1.015625 -0.421875,1.34375 -0.71875,1.34375 -0.09375,0 -0.125,-0.03125 -0.125,-0.078125 0,-0.03125 0,-0.046875 0.03125,-0.09375 0.046875,-0.046875 0.0625,-0.09375 0.0625,-0.140625 0,-0.15625 -0.140625,-0.28125 -0.3125,-0.28125 -0.171875,0 -0.296875,0.140625 -0.296875,0.3125 0,0.25 0.25,0.453125 0.59375,0.453125 0.640625,0 1.078125,-0.5625 1.375,-1.734375 z m -0.140625,-1.59375 c -0.203125,0 -0.359375,0.171875 -0.359375,0.390625 0,0.234375 0.140625,0.390625 0.359375,0.390625 0.1875,0 0.359375,-0.171875 0.359375,-0.375 0,-0.203125 -0.171875,-0.40625 -0.359375,-0.40625 z m 0,0"
             id="path6750" />
        </g>
      </g>
    </g>
  </g>
</svg>
