<?xml version="1.0" encoding="UTF-8" standalone="no"?>
<svg
   width="51.694275mm"
   height="6.9957399mm"
   viewBox="0 0 51.694275 6.9957399"
   version="1.1"
   id="svg7449"
   xmlns="http://www.w3.org/2000/svg"
   xmlns:svg="http://www.w3.org/2000/svg">
  <defs
     id="defs7446" />
  <g
     id="layer1"
     transform="translate(-23.843246,-125.5829)">
    <g
       id="g7266"
       transform="matrix(0.35277777,0,0,0.35277777,-56.280655,37.353574)">
      <g
         style="fill:#211e1e;fill-opacity:1"
         id="g2317">
        <g
           id="use2315"
           transform="translate(228.23967,258.71997)">
          <path
             style="stroke:none"
             d="M 3.203125,-5.046875 1.96875,-6.71875 h -0.625 l -1.234375,1.671875 h 0.34375 l 1.203125,-1.03125 1.21875,1.03125 z m 0,0"
             id="path7268" />
        </g>
      </g>
      <g
         style="fill:#211e1e;fill-opacity:1"
         id="g2321">
        <g
           id="use2319"
           transform="translate(226.91975,258.71997)">
          <path
             style="stroke:none"
             d="M 0.203125,-4.015625 C 0.3125,-4.03125 0.40625,-4.03125 0.515625,-4.03125 c 0.375,0 0.484375,0.171875 0.625,1.09375 0.09375,0.6875 0.21875,2.1875 0.21875,2.765625 0,0.28125 0.015625,0.34375 0.09375,0.34375 0.234375,0 1.171875,-1.046875 2.1875,-2.46875 C 3.984375,-2.796875 4.25,-3.4375 4.25,-3.8125 c 0,-0.3125 -0.265625,-0.578125 -0.5625,-0.578125 -0.21875,0 -0.375,0.125 -0.375,0.328125 0,0.171875 0.0625,0.28125 0.25,0.4375 0.125,0.125 0.171875,0.203125 0.171875,0.3125 0,0.453125 -0.65625,1.5625 -1.359375,2.296875 l -0.3125,0.3125 C 2,-2.109375 1.9375,-2.625 1.796875,-3.359375 c -0.1875,-1.015625 -0.1875,-1.03125 -0.28125,-1.03125 -0.046875,0 -0.125,0 -0.203125,0.03125 -0.171875,0.046875 -0.71875,0.15625 -1.109375,0.21875 z m 0,0"
             id="path7272" />
        </g>
      </g>
      <g
         style="fill:#211e1e;fill-opacity:1"
         id="g2325">
        <g
           id="use2323"
           transform="translate(231.35999,260.28012)">
          <path
             style="stroke:none"
             d="m 0.140625,-2.9375 c 0.09375,-0.015625 0.15625,-0.03125 0.234375,-0.03125 0.1875,0 0.265625,0.125 0.265625,0.46875 v 1.875 c 0,0.390625 -0.109375,0.5 -0.515625,0.515625 V 0 H 1.75 V -0.109375 C 1.359375,-0.125 1.25,-0.203125 1.25,-0.5 v -2.078125 c 0,-0.015625 0.0625,-0.078125 0.109375,-0.140625 0.1875,-0.171875 0.5,-0.296875 0.765625,-0.296875 0.328125,0 0.484375,0.265625 0.484375,0.78125 v 1.59375 c 0,0.421875 -0.078125,0.5 -0.5,0.53125 V 0 h 1.65625 V -0.109375 C 3.34375,-0.125 3.234375,-0.25 3.234375,-0.703125 V -2.5625 C 3.453125,-2.875 3.6875,-3.015625 4.03125,-3.015625 c 0.421875,0 0.5625,0.203125 0.5625,0.8125 v 1.5625 c 0,0.421875 -0.0625,0.484375 -0.5,0.53125 V 0 h 1.625 V -0.109375 L 5.53125,-0.125 C 5.296875,-0.140625 5.203125,-0.265625 5.203125,-0.5625 v -1.515625 c 0,-0.875 -0.28125,-1.3125 -0.859375,-1.3125 -0.421875,0 -0.796875,0.1875 -1.1875,0.625 -0.140625,-0.421875 -0.390625,-0.625 -0.78125,-0.625 -0.328125,0 -0.53125,0.09375 -1.15625,0.5625 V -3.375 L 1.171875,-3.390625 c -0.375,0.140625 -0.625,0.21875 -1.03125,0.328125 z m 0,0"
             id="path7276" />
        </g>
      </g>
      <g
         style="fill:#211e1e;fill-opacity:1"
         id="g2329">
        <g
           id="use2327"
           transform="translate(237.11998,260.28012)">
          <path
             style="stroke:none"
             d="m 1.84375,-3.390625 c -0.953125,0 -1.625,0.703125 -1.625,1.71875 0,1 0.6875,1.75 1.609375,1.75 0.9375,0 1.640625,-0.78125 1.640625,-1.796875 0,-0.96875 -0.6875,-1.671875 -1.625,-1.671875 z M 1.75,-3.1875 c 0.625,0 1.046875,0.703125 1.046875,1.71875 0,0.828125 -0.328125,1.34375 -0.875,1.34375 -0.296875,0 -0.5625,-0.1875 -0.71875,-0.484375 C 1,-0.984375 0.875,-1.5 0.875,-2.03125 0.875,-2.734375 1.21875,-3.1875 1.75,-3.1875 Z m 0,0"
             id="path7280" />
        </g>
      </g>
      <g
         style="fill:#211e1e;fill-opacity:1"
         id="g2333">
        <g
           id="use2331"
           transform="translate(240.72011,260.28012)">
          <path
             style="stroke:none"
             d="M 3.515625,-3.3125 H 2.5 v 0.109375 c 0.234375,0.015625 0.34375,0.09375 0.34375,0.234375 0,0.078125 -0.015625,0.140625 -0.046875,0.21875 L 2.0625,-0.84375 1.3125,-2.734375 C 1.265625,-2.828125 1.25,-2.9375 1.25,-3 c 0,-0.140625 0.078125,-0.1875 0.328125,-0.203125 V -3.3125 h -1.4375 v 0.109375 C 0.421875,-3.1875 0.46875,-3.125 0.8125,-2.359375 L 1.703125,-0.25 C 1.71875,-0.203125 1.734375,-0.140625 1.75,-0.09375 1.796875,0.046875 1.84375,0.109375 1.890625,0.109375 1.9375,0.109375 1.984375,0 2.09375,-0.265625 l 0.9375,-2.375 c 0.21875,-0.5 0.265625,-0.546875 0.484375,-0.5625 z m 0,0"
             id="path7284" />
        </g>
      </g>
      <g
         style="fill:#211e1e;fill-opacity:1"
         id="g2337">
        <g
           id="use2335"
           transform="translate(244.44009,260.28012)">
          <path
             style="stroke:none"
             d="m 1.296875,-3.390625 -1.15625,0.40625 V -2.875 l 0.0625,-0.015625 c 0.09375,0 0.1875,-0.015625 0.25,-0.015625 0.1875,0 0.25,0.125 0.25,0.4375 V -0.75 c 0,0.53125 -0.078125,0.609375 -0.578125,0.640625 V 0 H 1.859375 V -0.109375 C 1.375,-0.140625 1.3125,-0.21875 1.3125,-0.75 V -3.375 Z M 0.9375,-5.03125 c -0.1875,0 -0.359375,0.15625 -0.359375,0.375 0,0.203125 0.15625,0.375 0.359375,0.375 0.21875,0 0.390625,-0.171875 0.390625,-0.375 0,-0.21875 -0.171875,-0.375 -0.390625,-0.375 z m 0,0"
             id="path7288" />
        </g>
      </g>
      <g
         style="fill:#211e1e;fill-opacity:1"
         id="g2341">
        <g
           id="use2339"
           transform="translate(246.4801,260.28012)">
          <path
             style="stroke:none"
             d="M 3.015625,-1.203125 C 2.65625,-0.65625 2.34375,-0.4375 1.859375,-0.4375 1.453125,-0.4375 1.125,-0.65625 0.921875,-1.0625 0.78125,-1.34375 0.734375,-1.59375 0.71875,-2.046875 h 2.265625 c -0.0625,-0.46875 -0.125,-0.6875 -0.3125,-0.921875 -0.21875,-0.265625 -0.5625,-0.421875 -0.953125,-0.421875 -0.359375,0 -0.703125,0.125 -0.984375,0.375 -0.34375,0.3125 -0.546875,0.828125 -0.546875,1.4375 0,1.015625 0.53125,1.65625 1.375,1.65625 0.703125,0 1.25,-0.4375 1.5625,-1.234375 z M 0.734375,-2.28125 C 0.8125,-2.859375 1.0625,-3.125 1.515625,-3.125 c 0.453125,0 0.625,0.203125 0.71875,0.84375 z m 0,0"
             id="path7292" />
        </g>
      </g>
      <g
         style="fill:#211e1e;fill-opacity:1"
         id="g2345">
        <g
           id="use2343"
           transform="translate(249.60017,260.28012)">
          <path
             style="stroke:none"
             d="m 1.5,0 c 0,-0.5 -0.1875,-0.78125 -0.46875,-0.78125 -0.25,0 -0.390625,0.1875 -0.390625,0.390625 C 0.640625,-0.1875 0.78125,0 1.03125,0 1.109375,0 1.203125,-0.03125 1.28125,-0.09375 1.3125,-0.109375 1.3125,-0.125 1.3125,-0.125 c 0.015625,0 0.015625,0.015625 0.015625,0.125 0,0.53125 -0.25,0.984375 -0.5,1.21875 C 0.75,1.3125 0.75,1.3125 0.75,1.34375 0.75,1.390625 0.796875,1.421875 0.828125,1.421875 0.90625,1.421875 1.5,0.859375 1.5,0 Z m 0,0"
             id="path7296" />
        </g>
      </g>
      <g
         style="fill:#211e1e;fill-opacity:1"
         id="g2349">
        <g
           id="use2347"
           transform="translate(251.64001,260.28012)">
          <path
             style="stroke:none"
             d="M 0.0625,-2.890625 C 0.125,-2.90625 0.1875,-2.90625 0.25,-2.90625 c 0.25,0 0.296875,0.078125 0.296875,0.421875 V 0.96875 c 0,0.375 -0.078125,0.46875 -0.515625,0.5 v 0.125 h 1.796875 v -0.125 C 1.265625,1.453125 1.171875,1.375 1.171875,0.921875 V -0.25 c 0.265625,0.25 0.4375,0.328125 0.75,0.328125 0.859375,0 1.546875,-0.828125 1.546875,-1.90625 0,-0.90625 -0.515625,-1.5625 -1.234375,-1.5625 -0.40625,0 -0.734375,0.1875 -1.0625,0.578125 V -3.375 L 1.125,-3.390625 c -0.390625,0.15625 -0.65625,0.25 -1.0625,0.375 z m 1.109375,0.421875 c 0,-0.21875 0.40625,-0.484375 0.75,-0.484375 0.546875,0 0.90625,0.5625 0.90625,1.421875 0,0.8125 -0.359375,1.375 -0.890625,1.375 -0.34375,0 -0.765625,-0.265625 -0.765625,-0.5 z m 0,0"
             id="path7300" />
        </g>
      </g>
      <g
         style="fill:#211e1e;fill-opacity:1"
         id="g2353">
        <g
           id="use2351"
           transform="translate(255.36,260.28012)">
          <path
             style="stroke:none"
             d="M 3.015625,-1.203125 C 2.65625,-0.65625 2.34375,-0.4375 1.859375,-0.4375 1.453125,-0.4375 1.125,-0.65625 0.921875,-1.0625 0.78125,-1.34375 0.734375,-1.59375 0.71875,-2.046875 h 2.265625 c -0.0625,-0.46875 -0.125,-0.6875 -0.3125,-0.921875 -0.21875,-0.265625 -0.5625,-0.421875 -0.953125,-0.421875 -0.359375,0 -0.703125,0.125 -0.984375,0.375 -0.34375,0.3125 -0.546875,0.828125 -0.546875,1.4375 0,1.015625 0.53125,1.65625 1.375,1.65625 0.703125,0 1.25,-0.4375 1.5625,-1.234375 z M 0.734375,-2.28125 C 0.8125,-2.859375 1.0625,-3.125 1.515625,-3.125 c 0.453125,0 0.625,0.203125 0.71875,0.84375 z m 0,0"
             id="path7304" />
        </g>
      </g>
      <g
         style="fill:#211e1e;fill-opacity:1"
         id="g2357">
        <g
           id="use2355"
           transform="translate(258.60004,260.28012)">
          <path
             style="stroke:none"
             d="M 0.046875,-2.875 C 0.15625,-2.890625 0.21875,-2.90625 0.3125,-2.90625 c 0.1875,0 0.25,0.125 0.25,0.4375 V -0.625 c 0,0.375 -0.046875,0.421875 -0.53125,0.515625 V 0 H 1.8125 V -0.109375 C 1.3125,-0.125 1.1875,-0.25 1.1875,-0.65625 v -1.671875 c 0,-0.234375 0.3125,-0.59375 0.515625,-0.59375 0.03125,0 0.109375,0.03125 0.1875,0.109375 C 2,-2.71875 2.09375,-2.671875 2.1875,-2.671875 c 0.171875,0 0.28125,-0.125 0.28125,-0.328125 0,-0.25 -0.15625,-0.390625 -0.40625,-0.390625 -0.3125,0 -0.515625,0.171875 -0.875,0.6875 V -3.375 L 1.140625,-3.390625 C 0.75,-3.234375 0.484375,-3.140625 0.046875,-3 Z m 0,0"
             id="path7308" />
        </g>
      </g>
      <g
         style="fill:#211e1e;fill-opacity:1"
         id="g2361">
        <g
           id="use2359"
           transform="translate(261.00003,260.28012)">
          <path
             style="stroke:none"
             d="m 2.328125,-2.3125 -0.03125,-1 H 2.21875 L 2.203125,-3.296875 C 2.125,-3.25 2.125,-3.25 2.09375,-3.25 c -0.046875,0 -0.125,-0.015625 -0.203125,-0.046875 -0.15625,-0.0625 -0.3125,-0.09375 -0.515625,-0.09375 -0.578125,0 -1,0.375 -1,0.90625 0,0.421875 0.234375,0.71875 0.859375,1.0625 l 0.4375,0.25 c 0.25,0.140625 0.375,0.328125 0.375,0.546875 0,0.328125 -0.234375,0.53125 -0.609375,0.53125 -0.25,0 -0.484375,-0.09375 -0.625,-0.25 C 0.65625,-0.53125 0.59375,-0.703125 0.5,-1.125 H 0.390625 v 1.15625 h 0.09375 C 0.53125,-0.046875 0.5625,-0.0625 0.65625,-0.0625 c 0.0625,0 0.15625,0.015625 0.328125,0.0625 0.203125,0.046875 0.40625,0.078125 0.546875,0.078125 0.5625,0 1.03125,-0.4375 1.03125,-0.953125 0,-0.359375 -0.171875,-0.609375 -0.609375,-0.875 L 1.15625,-2.21875 c -0.21875,-0.125 -0.328125,-0.296875 -0.328125,-0.5 0,-0.296875 0.234375,-0.5 0.578125,-0.5 0.421875,0 0.640625,0.25 0.8125,0.90625 z m 0,0"
             id="path7312" />
        </g>
      </g>
      <g
         style="fill:#211e1e;fill-opacity:1"
         id="g2365">
        <g
           id="use2363"
           transform="translate(263.88,260.28012)">
          <path
             style="stroke:none"
             d="m 1.84375,-3.390625 c -0.953125,0 -1.625,0.703125 -1.625,1.71875 0,1 0.6875,1.75 1.609375,1.75 0.9375,0 1.640625,-0.78125 1.640625,-1.796875 0,-0.96875 -0.6875,-1.671875 -1.625,-1.671875 z M 1.75,-3.1875 c 0.625,0 1.046875,0.703125 1.046875,1.71875 0,0.828125 -0.328125,1.34375 -0.875,1.34375 -0.296875,0 -0.5625,-0.1875 -0.71875,-0.484375 C 1,-0.984375 0.875,-1.5 0.875,-2.03125 0.875,-2.734375 1.21875,-3.1875 1.75,-3.1875 Z m 0,0"
             id="path7316" />
        </g>
      </g>
      <g
         style="fill:#211e1e;fill-opacity:1"
         id="g2369">
        <g
           id="use2367"
           transform="translate(267.60001,260.28012)">
          <path
             style="stroke:none"
             d="m 0.125,-2.9375 c 0.03125,-0.015625 0.109375,-0.03125 0.1875,-0.03125 0.21875,0 0.28125,0.109375 0.28125,0.46875 v 1.84375 c 0,0.40625 -0.078125,0.515625 -0.46875,0.546875 V 0 h 1.578125 v -0.109375 c -0.390625,-0.03125 -0.5,-0.125 -0.5,-0.390625 V -2.5625 C 1.5625,-2.890625 1.71875,-2.984375 1.96875,-2.984375 c 0.359375,0 0.53125,0.21875 0.53125,0.71875 v 1.53125 c 0,0.46875 -0.09375,0.59375 -0.453125,0.625 V 0 h 1.53125 V -0.109375 C 3.21875,-0.140625 3.125,-0.234375 3.125,-0.59375 v -1.6875 c 0,-0.703125 -0.328125,-1.109375 -0.875,-1.109375 -0.328125,0 -0.5625,0.125 -1.0625,0.59375 V -3.375 L 1.140625,-3.390625 C 0.78125,-3.265625 0.53125,-3.171875 0.125,-3.0625 Z m 0,0"
             id="path7320" />
        </g>
      </g>
      <g
         style="fill:#211e1e;fill-opacity:1"
         id="g2373">
        <g
           id="use2371"
           transform="translate(274.07983,258.71997)">
          <path
             style="stroke:none"
             d="m 6.84375,-3.265625 c 0.15625,0 0.34375,0 0.34375,-0.1875 C 7.1875,-3.65625 7,-3.65625 6.859375,-3.65625 h -5.96875 c -0.140625,0 -0.328125,0 -0.328125,0.203125 0,0.1875 0.1875,0.1875 0.328125,0.1875 z m 0.015625,1.9375 c 0.140625,0 0.328125,0 0.328125,-0.203125 0,-0.1875 -0.1875,-0.1875 -0.34375,-0.1875 H 0.890625 c -0.140625,0 -0.328125,0 -0.328125,0.1875 0,0.203125 0.1875,0.203125 0.328125,0.203125 z m 0,0"
             id="path7324" />
        </g>
      </g>
      <g
         style="fill:#211e1e;fill-opacity:1"
         id="g2377">
        <g
           id="use2375"
           transform="translate(291.35992,260.88013)">
          <path
             style="stroke:none"
             d="M 2.53125,-10.203125 H 6.375 c 1.640625,0 2.078125,0.328125 2.3125,1.78125 h 0.375 L 8.921875,-10.78125 h -8.59375 l 3.34375,6.6875 -3.46875,5.859375 H 9.1875 L 9.96875,-1.25 h -0.375 C 9.140625,-0.09375 8.703125,0.15625 7.046875,0.15625 H 2.34375 l 2.875,-5.046875 z m 0,0"
             id="path7328" />
        </g>
      </g>
      <g
         style="fill:#211e1e;fill-opacity:1"
         id="g2381">
        <g
           id="use2379"
           transform="translate(284.03961,268.31995)">
          <path
             style="stroke:none"
             d="M 3.484375,-2.984375 H 3.03125 c -0.015625,0 -0.0625,-0.015625 -0.125,-0.0625 C 2.71875,-3.171875 2.46875,-3.25 2.1875,-3.25 c -0.8125,0 -1.484375,0.5625 -1.484375,1.265625 0,0.375 0.171875,0.59375 0.59375,0.796875 -0.4375,0.28125 -0.578125,0.4375 -0.578125,0.609375 0,0.09375 0.0625,0.1875 0.203125,0.296875 C 0.1875,0.1875 0.0625,0.34375 0.0625,0.671875 c 0,0.515625 0.484375,0.84375 1.234375,0.84375 0.921875,0 1.546875,-0.4375 1.546875,-1.078125 0,-0.453125 -0.359375,-0.78125 -1.0625,-0.96875 -0.328125,-0.078125 -0.515625,-0.203125 -0.515625,-0.3125 0,-0.109375 0.171875,-0.296875 0.265625,-0.296875 0.015625,0 0.03125,0 0.046875,0 0.0625,0.015625 0.171875,0.03125 0.234375,0.03125 0.671875,0 1.359375,-0.609375 1.359375,-1.171875 0,-0.125 -0.015625,-0.265625 -0.0625,-0.421875 h 0.375 z m -2.390625,2.78125 c 0,0 0.015625,0 0.03125,0.015625 0.03125,0 0.09375,0.03125 0.21875,0.0625 0.78125,0.25 1.046875,0.453125 1.046875,0.78125 0,0.40625 -0.421875,0.703125 -0.984375,0.703125 -0.59375,0 -0.9375,-0.28125 -0.9375,-0.75 0,-0.1875 0.046875,-0.3125 0.15625,-0.453125 0.09375,-0.125 0.40625,-0.359375 0.46875,-0.359375 z M 2.1875,-3.09375 c 0.265625,0 0.40625,0.1875 0.40625,0.53125 0,0.25 -0.09375,0.578125 -0.21875,0.828125 -0.171875,0.296875 -0.40625,0.46875 -0.65625,0.46875 -0.265625,0 -0.4375,-0.203125 -0.4375,-0.5625 0,-0.671875 0.421875,-1.265625 0.90625,-1.265625 z m 0,0"
             id="path7332" />
        </g>
      </g>
      <g
         style="fill:#211e1e;fill-opacity:1"
         id="g2385">
        <g
           id="use2383"
           transform="translate(287.75952,268.31995)">
          <path
             style="stroke:none"
             d="m 4.046875,-1.703125 c 0.125,0 0.25,0 0.25,-0.140625 0,-0.140625 -0.125,-0.140625 -0.25,-0.140625 h -3.125 C 1,-2.984375 1.84375,-3.6875 2.890625,-3.6875 h 1.15625 c 0.125,0 0.25,0 0.25,-0.140625 0,-0.15625 -0.125,-0.15625 -0.25,-0.15625 H 2.875 c -1.265625,0 -2.265625,0.953125 -2.265625,2.140625 0,1.1875 1,2.140625 2.265625,2.140625 h 1.171875 c 0.125,0 0.25,0 0.25,-0.15625 C 4.296875,0 4.171875,0 4.046875,0 H 2.890625 C 1.84375,0 1,-0.703125 0.921875,-1.703125 Z m 0,0"
             id="path7336" />
        </g>
      </g>
      <g
         style="fill:#211e1e;fill-opacity:1"
         id="g2389">
        <g
           id="use2387"
           transform="translate(292.67944,268.31995)">
          <path
             style="stroke:none"
             d="M 3.46875,-2.859375 V -3.15625 H 2.890625 C 2.75,-3.15625 2.640625,-3.171875 2.5,-3.21875 L 2.328125,-3.28125 C 2.125,-3.359375 1.9375,-3.390625 1.734375,-3.390625 c -0.6875,0 -1.21875,0.53125 -1.21875,1.203125 0,0.46875 0.1875,0.734375 0.671875,0.984375 C 1.046875,-1.0625 0.921875,-0.9375 0.875,-0.90625 0.640625,-0.6875 0.53125,-0.546875 0.53125,-0.390625 0.53125,-0.25 0.625,-0.15625 0.921875,0 0.40625,0.375 0.203125,0.625 0.203125,0.890625 c 0,0.390625 0.578125,0.71875 1.28125,0.71875 0.546875,0 1.125,-0.1875 1.515625,-0.5 C 3.28125,0.875 3.40625,0.640625 3.40625,0.359375 3.40625,-0.09375 3.046875,-0.40625 2.5,-0.421875 L 1.5625,-0.46875 C 1.171875,-0.484375 0.984375,-0.546875 0.984375,-0.671875 c 0,-0.140625 0.234375,-0.40625 0.4375,-0.46875 0.0625,0.015625 0.125,0.015625 0.140625,0.015625 0.140625,0.015625 0.234375,0.03125 0.28125,0.03125 0.265625,0 0.5625,-0.109375 0.796875,-0.3125 C 2.890625,-1.609375 3,-1.875 3,-2.234375 3,-2.453125 2.953125,-2.625 2.859375,-2.859375 Z m -2.390625,2.875 c 0.25,0.046875 0.84375,0.09375 1.203125,0.09375 0.671875,0 0.90625,0.09375 0.90625,0.359375 0,0.4375 -0.546875,0.71875 -1.390625,0.71875 -0.640625,0 -1.078125,-0.21875 -1.078125,-0.53125 0,-0.171875 0.0625,-0.265625 0.359375,-0.640625 z M 1.125,-2.5 c 0,-0.421875 0.203125,-0.6875 0.546875,-0.6875 0.21875,0 0.421875,0.125 0.53125,0.34375 0.140625,0.265625 0.21875,0.609375 0.21875,0.890625 0,0.40625 -0.203125,0.671875 -0.546875,0.671875 -0.4375,0 -0.75,-0.484375 -0.75,-1.1875 z m 0,0"
             id="path7340" />
        </g>
      </g>
      <g
         style="fill:#211e1e;fill-opacity:1"
         id="g2393">
        <g
           id="use2391"
           transform="translate(296.39944,268.31995)">
          <path
             style="stroke:none"
             d="M 3.015625,-1.203125 C 2.65625,-0.65625 2.34375,-0.4375 1.859375,-0.4375 1.453125,-0.4375 1.125,-0.65625 0.921875,-1.0625 0.78125,-1.34375 0.734375,-1.59375 0.71875,-2.046875 h 2.265625 c -0.0625,-0.46875 -0.125,-0.6875 -0.3125,-0.921875 -0.21875,-0.265625 -0.5625,-0.421875 -0.953125,-0.421875 -0.359375,0 -0.703125,0.125 -0.984375,0.375 -0.34375,0.3125 -0.546875,0.828125 -0.546875,1.4375 0,1.015625 0.53125,1.65625 1.375,1.65625 0.703125,0 1.25,-0.4375 1.5625,-1.234375 z M 0.734375,-2.28125 C 0.8125,-2.859375 1.0625,-3.125 1.515625,-3.125 c 0.453125,0 0.625,0.203125 0.71875,0.84375 z m 0,0"
             id="path7344" />
        </g>
      </g>
      <g
         style="fill:#211e1e;fill-opacity:1"
         id="g2397">
        <g
           id="use2395"
           transform="translate(299.63947,268.31995)">
          <path
             style="stroke:none"
             d="m 0.125,-2.9375 c 0.03125,-0.015625 0.109375,-0.03125 0.1875,-0.03125 0.21875,0 0.28125,0.109375 0.28125,0.46875 v 1.84375 c 0,0.40625 -0.078125,0.515625 -0.46875,0.546875 V 0 h 1.578125 v -0.109375 c -0.390625,-0.03125 -0.5,-0.125 -0.5,-0.390625 V -2.5625 C 1.5625,-2.890625 1.71875,-2.984375 1.96875,-2.984375 c 0.359375,0 0.53125,0.21875 0.53125,0.71875 v 1.53125 c 0,0.46875 -0.09375,0.59375 -0.453125,0.625 V 0 h 1.53125 V -0.109375 C 3.21875,-0.140625 3.125,-0.234375 3.125,-0.59375 v -1.6875 c 0,-0.703125 -0.328125,-1.109375 -0.875,-1.109375 -0.328125,0 -0.5625,0.125 -1.0625,0.59375 V -3.375 L 1.140625,-3.390625 C 0.78125,-3.265625 0.53125,-3.171875 0.125,-3.0625 Z m 0,0"
             id="path7348" />
        </g>
      </g>
      <g
         style="fill:#211e1e;fill-opacity:1"
         id="g2401">
        <g
           id="use2399"
           transform="translate(303.35944,268.31995)">
          <path
             style="stroke:none"
             d="M 0.046875,-2.875 C 0.15625,-2.890625 0.21875,-2.90625 0.3125,-2.90625 c 0.1875,0 0.25,0.125 0.25,0.4375 V -0.625 c 0,0.375 -0.046875,0.421875 -0.53125,0.515625 V 0 H 1.8125 V -0.109375 C 1.3125,-0.125 1.1875,-0.25 1.1875,-0.65625 v -1.671875 c 0,-0.234375 0.3125,-0.59375 0.515625,-0.59375 0.03125,0 0.109375,0.03125 0.1875,0.109375 C 2,-2.71875 2.09375,-2.671875 2.1875,-2.671875 c 0.171875,0 0.28125,-0.125 0.28125,-0.328125 0,-0.25 -0.15625,-0.390625 -0.40625,-0.390625 -0.3125,0 -0.515625,0.171875 -0.875,0.6875 V -3.375 L 1.140625,-3.390625 C 0.75,-3.234375 0.484375,-3.140625 0.046875,-3 Z m 0,0"
             id="path7352" />
        </g>
      </g>
      <g
         style="fill:#211e1e;fill-opacity:1"
         id="g2405">
        <g
           id="use2403"
           transform="translate(305.75943,268.31995)">
          <path
             style="stroke:none"
             d="M 3.015625,-1.203125 C 2.65625,-0.65625 2.34375,-0.4375 1.859375,-0.4375 1.453125,-0.4375 1.125,-0.65625 0.921875,-1.0625 0.78125,-1.34375 0.734375,-1.59375 0.71875,-2.046875 h 2.265625 c -0.0625,-0.46875 -0.125,-0.6875 -0.3125,-0.921875 -0.21875,-0.265625 -0.5625,-0.421875 -0.953125,-0.421875 -0.359375,0 -0.703125,0.125 -0.984375,0.375 -0.34375,0.3125 -0.546875,0.828125 -0.546875,1.4375 0,1.015625 0.53125,1.65625 1.375,1.65625 0.703125,0 1.25,-0.4375 1.5625,-1.234375 z M 0.734375,-2.28125 C 0.8125,-2.859375 1.0625,-3.125 1.515625,-3.125 c 0.453125,0 0.625,0.203125 0.71875,0.84375 z m 0,0"
             id="path7356" />
        </g>
      </g>
      <g
         style="fill:#211e1e;fill-opacity:1"
         id="g2409">
        <g
           id="use2407"
           transform="translate(310.07986,258.71997)">
          <path
             style="stroke:none"
             d="m 0.15625,-4.03125 h 0.203125 c 0.015625,0 0.046875,0 0.09375,0 0.28125,-0.03125 0.375,0.078125 0.4375,0.453125 0.125,0.5625 0.25,1.625 0.28125,2.40625 l 0.03125,0.875 c 0.015625,0.390625 0.046875,0.46875 0.125,0.46875 0.125,0 0.28125,-0.234375 0.640625,-0.921875 0.0625,-0.125 0.25,-0.46875 0.546875,-1 L 3.40625,-3.296875 3.703125,-0.125 c 0.015625,0.28125 0.03125,0.296875 0.109375,0.296875 0.078125,0 0.171875,-0.09375 0.4375,-0.421875 0.015625,-0.015625 0.0625,-0.0625 0.09375,-0.109375 1.359375,-1.625 2.109375,-2.875 2.109375,-3.515625 0,-0.296875 -0.21875,-0.515625 -0.515625,-0.515625 -0.234375,0 -0.390625,0.125 -0.390625,0.328125 0,0.140625 0.0625,0.21875 0.21875,0.359375 0.15625,0.15625 0.21875,0.25 0.21875,0.375 0,0.421875 -0.34375,0.96875 -1.640625,2.59375 L 4.015625,-4.25 C 4.015625,-4.359375 4,-4.390625 3.9375,-4.390625 c -0.046875,0 -0.078125,0.03125 -0.125,0.109375 L 1.890625,-1.25 C 1.859375,-1.953125 1.75,-3 1.640625,-3.703125 c -0.109375,-0.609375 -0.125,-0.6875 -0.25,-0.6875 -0.0625,0 -0.171875,0.03125 -0.296875,0.0625 C 0.984375,-4.28125 0.75,-4.25 0.421875,-4.203125 c -0.046875,0 -0.140625,0.03125 -0.265625,0.046875 z m 0,0"
             id="path7360" />
        </g>
      </g>
      <g
         style="fill:#211e1e;fill-opacity:1"
         id="g2413">
        <g
           id="use2411"
           transform="translate(316.67984,260.28012)">
          <path
             style="stroke:none"
             d="m 0.140625,-2.9375 c 0.09375,-0.015625 0.15625,-0.03125 0.234375,-0.03125 0.1875,0 0.265625,0.125 0.265625,0.46875 v 1.875 c 0,0.390625 -0.109375,0.5 -0.515625,0.515625 V 0 H 1.75 V -0.109375 C 1.359375,-0.125 1.25,-0.203125 1.25,-0.5 v -2.078125 c 0,-0.015625 0.0625,-0.078125 0.109375,-0.140625 0.1875,-0.171875 0.5,-0.296875 0.765625,-0.296875 0.328125,0 0.484375,0.265625 0.484375,0.78125 v 1.59375 c 0,0.421875 -0.078125,0.5 -0.5,0.53125 V 0 h 1.65625 V -0.109375 C 3.34375,-0.125 3.234375,-0.25 3.234375,-0.703125 V -2.5625 C 3.453125,-2.875 3.6875,-3.015625 4.03125,-3.015625 c 0.421875,0 0.5625,0.203125 0.5625,0.8125 v 1.5625 c 0,0.421875 -0.0625,0.484375 -0.5,0.53125 V 0 h 1.625 V -0.109375 L 5.53125,-0.125 C 5.296875,-0.140625 5.203125,-0.265625 5.203125,-0.5625 v -1.515625 c 0,-0.875 -0.28125,-1.3125 -0.859375,-1.3125 -0.421875,0 -0.796875,0.1875 -1.1875,0.625 -0.140625,-0.421875 -0.390625,-0.625 -0.78125,-0.625 -0.328125,0 -0.53125,0.09375 -1.15625,0.5625 V -3.375 L 1.171875,-3.390625 c -0.375,0.140625 -0.625,0.21875 -1.03125,0.328125 z m 0,0"
             id="path7364" />
        </g>
      </g>
      <g
         style="fill:#211e1e;fill-opacity:1"
         id="g2417">
        <g
           id="use2415"
           transform="translate(322.43985,260.28012)">
          <path
             style="stroke:none"
             d="m 1.84375,-3.390625 c -0.953125,0 -1.625,0.703125 -1.625,1.71875 0,1 0.6875,1.75 1.609375,1.75 0.9375,0 1.640625,-0.78125 1.640625,-1.796875 0,-0.96875 -0.6875,-1.671875 -1.625,-1.671875 z M 1.75,-3.1875 c 0.625,0 1.046875,0.703125 1.046875,1.71875 0,0.828125 -0.328125,1.34375 -0.875,1.34375 -0.296875,0 -0.5625,-0.1875 -0.71875,-0.484375 C 1,-0.984375 0.875,-1.5 0.875,-2.03125 0.875,-2.734375 1.21875,-3.1875 1.75,-3.1875 Z m 0,0"
             id="path7368" />
        </g>
      </g>
      <g
         style="fill:#211e1e;fill-opacity:1"
         id="g2421">
        <g
           id="use2419"
           transform="translate(326.03998,260.28012)">
          <path
             style="stroke:none"
             d="M 3.515625,-3.3125 H 2.5 v 0.109375 c 0.234375,0.015625 0.34375,0.09375 0.34375,0.234375 0,0.078125 -0.015625,0.140625 -0.046875,0.21875 L 2.0625,-0.84375 1.3125,-2.734375 C 1.265625,-2.828125 1.25,-2.9375 1.25,-3 c 0,-0.140625 0.078125,-0.1875 0.328125,-0.203125 V -3.3125 h -1.4375 v 0.109375 C 0.421875,-3.1875 0.46875,-3.125 0.8125,-2.359375 L 1.703125,-0.25 C 1.71875,-0.203125 1.734375,-0.140625 1.75,-0.09375 1.796875,0.046875 1.84375,0.109375 1.890625,0.109375 1.9375,0.109375 1.984375,0 2.09375,-0.265625 l 0.9375,-2.375 c 0.21875,-0.5 0.265625,-0.546875 0.484375,-0.5625 z m 0,0"
             id="path7372" />
        </g>
      </g>
      <g
         style="fill:#211e1e;fill-opacity:1"
         id="g2425">
        <g
           id="use2423"
           transform="translate(329.75998,260.28012)">
          <path
             style="stroke:none"
             d="m 1.296875,-3.390625 -1.15625,0.40625 V -2.875 l 0.0625,-0.015625 c 0.09375,0 0.1875,-0.015625 0.25,-0.015625 0.1875,0 0.25,0.125 0.25,0.4375 V -0.75 c 0,0.53125 -0.078125,0.609375 -0.578125,0.640625 V 0 H 1.859375 V -0.109375 C 1.375,-0.140625 1.3125,-0.21875 1.3125,-0.75 V -3.375 Z M 0.9375,-5.03125 c -0.1875,0 -0.359375,0.15625 -0.359375,0.375 0,0.203125 0.15625,0.375 0.359375,0.375 0.21875,0 0.390625,-0.171875 0.390625,-0.375 0,-0.21875 -0.171875,-0.375 -0.390625,-0.375 z m 0,0"
             id="path7376" />
        </g>
      </g>
      <g
         style="fill:#211e1e;fill-opacity:1"
         id="g2429">
        <g
           id="use2427"
           transform="translate(331.79999,260.28012)">
          <path
             style="stroke:none"
             d="M 3.015625,-1.203125 C 2.65625,-0.65625 2.34375,-0.4375 1.859375,-0.4375 1.453125,-0.4375 1.125,-0.65625 0.921875,-1.0625 0.78125,-1.34375 0.734375,-1.59375 0.71875,-2.046875 h 2.265625 c -0.0625,-0.46875 -0.125,-0.6875 -0.3125,-0.921875 -0.21875,-0.265625 -0.5625,-0.421875 -0.953125,-0.421875 -0.359375,0 -0.703125,0.125 -0.984375,0.375 -0.34375,0.3125 -0.546875,0.828125 -0.546875,1.4375 0,1.015625 0.53125,1.65625 1.375,1.65625 0.703125,0 1.25,-0.4375 1.5625,-1.234375 z M 0.734375,-2.28125 C 0.8125,-2.859375 1.0625,-3.125 1.515625,-3.125 c 0.453125,0 0.625,0.203125 0.71875,0.84375 z m 0,0"
             id="path7380" />
        </g>
      </g>
      <g
         style="fill:#211e1e;fill-opacity:1"
         id="g2433">
        <g
           id="use2431"
           transform="translate(335.04004,260.28012)">
          <path
             style="stroke:none"
             d="m 1.5,0 c 0,-0.5 -0.1875,-0.78125 -0.46875,-0.78125 -0.25,0 -0.390625,0.1875 -0.390625,0.390625 C 0.640625,-0.1875 0.78125,0 1.03125,0 1.109375,0 1.203125,-0.03125 1.28125,-0.09375 1.3125,-0.109375 1.3125,-0.125 1.3125,-0.125 c 0.015625,0 0.015625,0.015625 0.015625,0.125 0,0.53125 -0.25,0.984375 -0.5,1.21875 C 0.75,1.3125 0.75,1.3125 0.75,1.34375 0.75,1.390625 0.796875,1.421875 0.828125,1.421875 0.90625,1.421875 1.5,0.859375 1.5,0 Z m 0,0"
             id="path7384" />
        </g>
      </g>
      <g
         style="fill:#211e1e;fill-opacity:1"
         id="g2437">
        <g
           id="use2435"
           transform="translate(337.0799,260.28012)">
          <path
             style="stroke:none"
             d="M 3.484375,-2.984375 H 3.03125 c -0.015625,0 -0.0625,-0.015625 -0.125,-0.0625 C 2.71875,-3.171875 2.46875,-3.25 2.1875,-3.25 c -0.8125,0 -1.484375,0.5625 -1.484375,1.265625 0,0.375 0.171875,0.59375 0.59375,0.796875 -0.4375,0.28125 -0.578125,0.4375 -0.578125,0.609375 0,0.09375 0.0625,0.1875 0.203125,0.296875 C 0.1875,0.1875 0.0625,0.34375 0.0625,0.671875 c 0,0.515625 0.484375,0.84375 1.234375,0.84375 0.921875,0 1.546875,-0.4375 1.546875,-1.078125 0,-0.453125 -0.359375,-0.78125 -1.0625,-0.96875 -0.328125,-0.078125 -0.515625,-0.203125 -0.515625,-0.3125 0,-0.109375 0.171875,-0.296875 0.265625,-0.296875 0.015625,0 0.03125,0 0.046875,0 0.0625,0.015625 0.171875,0.03125 0.234375,0.03125 0.671875,0 1.359375,-0.609375 1.359375,-1.171875 0,-0.125 -0.015625,-0.265625 -0.0625,-0.421875 h 0.375 z m -2.390625,2.78125 c 0,0 0.015625,0 0.03125,0.015625 0.03125,0 0.09375,0.03125 0.21875,0.0625 0.78125,0.25 1.046875,0.453125 1.046875,0.78125 0,0.40625 -0.421875,0.703125 -0.984375,0.703125 -0.59375,0 -0.9375,-0.28125 -0.9375,-0.75 0,-0.1875 0.046875,-0.3125 0.15625,-0.453125 0.09375,-0.125 0.40625,-0.359375 0.46875,-0.359375 z M 2.1875,-3.09375 c 0.265625,0 0.40625,0.1875 0.40625,0.53125 0,0.25 -0.09375,0.578125 -0.21875,0.828125 -0.171875,0.296875 -0.40625,0.46875 -0.65625,0.46875 -0.265625,0 -0.4375,-0.203125 -0.4375,-0.5625 0,-0.671875 0.421875,-1.265625 0.90625,-1.265625 z m 0,0"
             id="path7388" />
        </g>
      </g>
      <g
         style="fill:#211e1e;fill-opacity:1"
         id="g2441">
        <g
           id="use2439"
           transform="translate(343.43967,258.71997)">
          <path
             style="stroke:none"
             d="M 4.640625,-1.171875 C 4.09375,-0.484375 3.984375,-0.375 3.8125,-0.375 c -0.078125,0 -0.15625,-0.09375 -0.15625,-0.1875 0,-0.09375 0.15625,-0.71875 0.328125,-1.234375 0.296875,-0.953125 0.484375,-1.6875 0.484375,-1.9375 0,-0.390625 -0.265625,-0.65625 -0.65625,-0.65625 -0.65625,0 -1.359375,0.65625 -2.28125,2.09375 L 2.71875,-6.765625 2.671875,-6.8125 c -0.578125,0.140625 -0.96875,0.203125 -1.5625,0.265625 v 0.15625 h 0.25 c 0.015625,0 0.03125,0 0.03125,-0.015625 0.140625,-0.046875 0.390625,0.109375 0.390625,0.25 0,0.140625 -0.0625,0.390625 -0.140625,0.6875 -0.015625,0 -0.046875,0.140625 -0.109375,0.359375 L 0.1875,0 h 0.75 C 1.328125,-1.53125 1.46875,-1.875 1.859375,-2.484375 2.375,-3.265625 3.0625,-3.890625 3.40625,-3.890625 c 0.15625,0 0.28125,0.125 0.28125,0.25 0,0.046875 -0.03125,0.171875 -0.0625,0.328125 L 3.078125,-1.25 C 2.9375,-0.75 2.875,-0.453125 2.875,-0.328125 c 0,0.265625 0.171875,0.421875 0.4375,0.421875 0.5,0 0.859375,-0.265625 1.453125,-1.140625 z m 0,0"
             id="path7392" />
        </g>
      </g>
      <g
         style="fill:#211e1e;fill-opacity:1"
         id="g2445">
        <g
           id="use2443"
           transform="translate(348.47989,260.15979)">
          <path
             style="stroke:none"
             d="M 3.484375,-2.984375 H 3.03125 c -0.015625,0 -0.0625,-0.015625 -0.125,-0.0625 C 2.71875,-3.171875 2.46875,-3.25 2.1875,-3.25 c -0.8125,0 -1.484375,0.5625 -1.484375,1.265625 0,0.375 0.171875,0.59375 0.59375,0.796875 -0.4375,0.28125 -0.578125,0.4375 -0.578125,0.609375 0,0.09375 0.0625,0.1875 0.203125,0.296875 C 0.1875,0.1875 0.0625,0.34375 0.0625,0.671875 c 0,0.515625 0.484375,0.84375 1.234375,0.84375 0.921875,0 1.546875,-0.4375 1.546875,-1.078125 0,-0.453125 -0.359375,-0.78125 -1.0625,-0.96875 -0.328125,-0.078125 -0.515625,-0.203125 -0.515625,-0.3125 0,-0.109375 0.171875,-0.296875 0.265625,-0.296875 0.015625,0 0.03125,0 0.046875,0 0.0625,0.015625 0.171875,0.03125 0.234375,0.03125 0.671875,0 1.359375,-0.609375 1.359375,-1.171875 0,-0.125 -0.015625,-0.265625 -0.0625,-0.421875 h 0.375 z m -2.390625,2.78125 c 0,0 0.015625,0 0.03125,0.015625 0.03125,0 0.09375,0.03125 0.21875,0.0625 0.78125,0.25 1.046875,0.453125 1.046875,0.78125 0,0.40625 -0.421875,0.703125 -0.984375,0.703125 -0.59375,0 -0.9375,-0.28125 -0.9375,-0.75 0,-0.1875 0.046875,-0.3125 0.15625,-0.453125 0.09375,-0.125 0.40625,-0.359375 0.46875,-0.359375 z M 2.1875,-3.09375 c 0.265625,0 0.40625,0.1875 0.40625,0.53125 0,0.25 -0.09375,0.578125 -0.21875,0.828125 -0.171875,0.296875 -0.40625,0.46875 -0.65625,0.46875 -0.265625,0 -0.4375,-0.203125 -0.4375,-0.5625 0,-0.671875 0.421875,-1.265625 0.90625,-1.265625 z m 0,0"
             id="path7396" />
        </g>
      </g>
      <g
         style="fill:#211e1e;fill-opacity:1"
         id="g2449">
        <g
           id="use2447"
           transform="translate(352.0799,260.15979)">
          <path
             style="stroke:none"
             d="m 1.5,0 c 0,-0.5 -0.1875,-0.78125 -0.46875,-0.78125 -0.25,0 -0.390625,0.1875 -0.390625,0.390625 C 0.640625,-0.1875 0.78125,0 1.03125,0 1.109375,0 1.203125,-0.03125 1.28125,-0.09375 1.3125,-0.109375 1.3125,-0.125 1.3125,-0.125 c 0.015625,0 0.015625,0.015625 0.015625,0.125 0,0.53125 -0.25,0.984375 -0.5,1.21875 C 0.75,1.3125 0.75,1.3125 0.75,1.34375 0.75,1.390625 0.796875,1.421875 0.828125,1.421875 0.90625,1.421875 1.5,0.859375 1.5,0 Z m 0,0"
             id="path7400" />
        </g>
      </g>
      <g
         style="fill:#211e1e;fill-opacity:1"
         id="g2453">
        <g
           id="use2451"
           transform="translate(354.11972,260.15979)">
          <path
             style="stroke:none"
             d="M 0.0625,-2.890625 C 0.125,-2.90625 0.1875,-2.90625 0.25,-2.90625 c 0.25,0 0.296875,0.078125 0.296875,0.421875 V 0.96875 c 0,0.375 -0.078125,0.46875 -0.515625,0.5 v 0.125 h 1.796875 v -0.125 C 1.265625,1.453125 1.171875,1.375 1.171875,0.921875 V -0.25 c 0.265625,0.25 0.4375,0.328125 0.75,0.328125 0.859375,0 1.546875,-0.828125 1.546875,-1.90625 0,-0.90625 -0.515625,-1.5625 -1.234375,-1.5625 -0.40625,0 -0.734375,0.1875 -1.0625,0.578125 V -3.375 L 1.125,-3.390625 c -0.390625,0.15625 -0.65625,0.25 -1.0625,0.375 z m 1.109375,0.421875 c 0,-0.21875 0.40625,-0.484375 0.75,-0.484375 0.546875,0 0.90625,0.5625 0.90625,1.421875 0,0.8125 -0.359375,1.375 -0.890625,1.375 -0.34375,0 -0.765625,-0.265625 -0.765625,-0.5 z m 0,0"
             id="path7404" />
        </g>
      </g>
      <g
         style="fill:#211e1e;fill-opacity:1"
         id="g2457">
        <g
           id="use2455"
           transform="translate(357.83972,260.15979)">
          <path
             style="stroke:none"
             d="M 3.015625,-1.203125 C 2.65625,-0.65625 2.34375,-0.4375 1.859375,-0.4375 1.453125,-0.4375 1.125,-0.65625 0.921875,-1.0625 0.78125,-1.34375 0.734375,-1.59375 0.71875,-2.046875 h 2.265625 c -0.0625,-0.46875 -0.125,-0.6875 -0.3125,-0.921875 -0.21875,-0.265625 -0.5625,-0.421875 -0.953125,-0.421875 -0.359375,0 -0.703125,0.125 -0.984375,0.375 -0.34375,0.3125 -0.546875,0.828125 -0.546875,1.4375 0,1.015625 0.53125,1.65625 1.375,1.65625 0.703125,0 1.25,-0.4375 1.5625,-1.234375 z M 0.734375,-2.28125 C 0.8125,-2.859375 1.0625,-3.125 1.515625,-3.125 c 0.453125,0 0.625,0.203125 0.71875,0.84375 z m 0,0"
             id="path7408" />
        </g>
      </g>
      <g
         style="fill:#211e1e;fill-opacity:1"
         id="g2461">
        <g
           id="use2459"
           transform="translate(361.07974,260.15979)">
          <path
             style="stroke:none"
             d="M 0.046875,-2.875 C 0.15625,-2.890625 0.21875,-2.90625 0.3125,-2.90625 c 0.1875,0 0.25,0.125 0.25,0.4375 V -0.625 c 0,0.375 -0.046875,0.421875 -0.53125,0.515625 V 0 H 1.8125 V -0.109375 C 1.3125,-0.125 1.1875,-0.25 1.1875,-0.65625 v -1.671875 c 0,-0.234375 0.3125,-0.59375 0.515625,-0.59375 0.03125,0 0.109375,0.03125 0.1875,0.109375 C 2,-2.71875 2.09375,-2.671875 2.1875,-2.671875 c 0.171875,0 0.28125,-0.125 0.28125,-0.328125 0,-0.25 -0.15625,-0.390625 -0.40625,-0.390625 -0.3125,0 -0.515625,0.171875 -0.875,0.6875 V -3.375 L 1.140625,-3.390625 C 0.75,-3.234375 0.484375,-3.140625 0.046875,-3 Z m 0,0"
             id="path7412" />
        </g>
      </g>
      <g
         style="fill:#211e1e;fill-opacity:1"
         id="g2465">
        <g
           id="use2463"
           transform="translate(363.47974,260.15979)">
          <path
             style="stroke:none"
             d="m 2.328125,-2.3125 -0.03125,-1 H 2.21875 L 2.203125,-3.296875 C 2.125,-3.25 2.125,-3.25 2.09375,-3.25 c -0.046875,0 -0.125,-0.015625 -0.203125,-0.046875 -0.15625,-0.0625 -0.3125,-0.09375 -0.515625,-0.09375 -0.578125,0 -1,0.375 -1,0.90625 0,0.421875 0.234375,0.71875 0.859375,1.0625 l 0.4375,0.25 c 0.25,0.140625 0.375,0.328125 0.375,0.546875 0,0.328125 -0.234375,0.53125 -0.609375,0.53125 -0.25,0 -0.484375,-0.09375 -0.625,-0.25 C 0.65625,-0.53125 0.59375,-0.703125 0.5,-1.125 H 0.390625 v 1.15625 h 0.09375 C 0.53125,-0.046875 0.5625,-0.0625 0.65625,-0.0625 c 0.0625,0 0.15625,0.015625 0.328125,0.0625 0.203125,0.046875 0.40625,0.078125 0.546875,0.078125 0.5625,0 1.03125,-0.4375 1.03125,-0.953125 0,-0.359375 -0.171875,-0.609375 -0.609375,-0.875 L 1.15625,-2.21875 c -0.21875,-0.125 -0.328125,-0.296875 -0.328125,-0.5 0,-0.296875 0.234375,-0.5 0.578125,-0.5 0.421875,0 0.640625,0.25 0.8125,0.90625 z m 0,0"
             id="path7416" />
        </g>
      </g>
      <g
         style="fill:#211e1e;fill-opacity:1"
         id="g2469">
        <g
           id="use2467"
           transform="translate(366.35971,260.15979)">
          <path
             style="stroke:none"
             d="m 1.84375,-3.390625 c -0.953125,0 -1.625,0.703125 -1.625,1.71875 0,1 0.6875,1.75 1.609375,1.75 0.9375,0 1.640625,-0.78125 1.640625,-1.796875 0,-0.96875 -0.6875,-1.671875 -1.625,-1.671875 z M 1.75,-3.1875 c 0.625,0 1.046875,0.703125 1.046875,1.71875 0,0.828125 -0.328125,1.34375 -0.875,1.34375 -0.296875,0 -0.5625,-0.1875 -0.71875,-0.484375 C 1,-0.984375 0.875,-1.5 0.875,-2.03125 0.875,-2.734375 1.21875,-3.1875 1.75,-3.1875 Z m 0,0"
             id="path7420" />
        </g>
      </g>
      <g
         style="fill:#211e1e;fill-opacity:1"
         id="g2473">
        <g
           id="use2471"
           transform="translate(370.07971,260.15979)">
          <path
             style="stroke:none"
             d="m 0.125,-2.9375 c 0.03125,-0.015625 0.109375,-0.03125 0.1875,-0.03125 0.21875,0 0.28125,0.109375 0.28125,0.46875 v 1.84375 c 0,0.40625 -0.078125,0.515625 -0.46875,0.546875 V 0 h 1.578125 v -0.109375 c -0.390625,-0.03125 -0.5,-0.125 -0.5,-0.390625 V -2.5625 C 1.5625,-2.890625 1.71875,-2.984375 1.96875,-2.984375 c 0.359375,0 0.53125,0.21875 0.53125,0.71875 v 1.53125 c 0,0.46875 -0.09375,0.59375 -0.453125,0.625 V 0 h 1.53125 V -0.109375 C 3.21875,-0.140625 3.125,-0.234375 3.125,-0.59375 v -1.6875 c 0,-0.703125 -0.328125,-1.109375 -0.875,-1.109375 -0.328125,0 -0.5625,0.125 -1.0625,0.59375 V -3.375 L 1.140625,-3.390625 C 0.78125,-3.265625 0.53125,-3.171875 0.125,-3.0625 Z m 0,0"
             id="path7424" />
        </g>
      </g>
    </g>
  </g>
</svg>
