<?xml version="1.0" encoding="UTF-8" standalone="no"?>
<svg
   width="82.261276mm"
   height="21.09687mm"
   viewBox="0 0 82.261276 21.09687"
   version="1.1"
   id="svg7004"
   xmlns="http://www.w3.org/2000/svg"
   xmlns:svg="http://www.w3.org/2000/svg">
  <defs
     id="defs7001" />
  <g
     id="layer1"
     transform="translate(-43.400133,-169.36503)">
    <g
       id="g6732"
       transform="matrix(0.35277777,0,0,0.35277777,-21.500065,50.419243)">
      <g
         style="fill:#211e1e;fill-opacity:1"
         id="g3333">
        <g
           id="use3331"
           transform="translate(180.71907,337.55981)">
          <path
             style="stroke:none"
             d="m 3.25,17.546875 h 0.6875 v -17.25 h 2.625 v -0.6875 H 3.25 Z m 0,0"
             id="path6734" />
        </g>
      </g>
      <g
         style="fill:#211e1e;fill-opacity:1"
         id="g3337">
        <g
           id="use3335"
           transform="translate(180.71907,355.08011)">
          <path
             style="stroke:none"
             d="m 3.25,5.984375 h 0.6875 v -6 H 3.25 Z m 0,0"
             id="path6738" />
        </g>
      </g>
      <g
         style="fill:#211e1e;fill-opacity:1"
         id="g3341">
        <g
           id="use3339"
           transform="translate(180.71907,361.08011)">
          <path
             style="stroke:none"
             d="m 3.25,5.984375 h 0.6875 v -6 H 3.25 Z m 0,0"
             id="path6742" />
        </g>
      </g>
      <g
         style="fill:#211e1e;fill-opacity:1"
         id="g3345">
        <g
           id="use3343"
           transform="translate(180.71907,367.08011)">
          <path
             style="stroke:none"
             d="m 3.25,5.984375 h 0.6875 v -6 H 3.25 Z m 0,0"
             id="path6746" />
        </g>
      </g>
      <g
         style="fill:#211e1e;fill-opacity:1"
         id="g3349">
        <g
           id="use3347"
           transform="translate(180.71907,373.08011)">
          <path
             style="stroke:none"
             d="m 3.25,5.984375 h 0.6875 v -6 H 3.25 Z m 0,0"
             id="path6750" />
        </g>
      </g>
      <g
         style="fill:#211e1e;fill-opacity:1"
         id="g3353">
        <g
           id="use3351"
           transform="translate(180.71907,379.43988)">
          <path
             style="stroke:none"
             d="m 3.25,17.53125 h 3.3125 v -0.6875 h -2.625 v -17.25 H 3.25 Z m 0,0"
             id="path6754" />
        </g>
      </g>
      <g
         style="fill:#211e1e;fill-opacity:1"
         id="g3357">
        <g
           id="use3355"
           transform="translate(225.11906,367.68008)">
          <path
             style="stroke:none"
             d="M 3.203125,-5.046875 1.96875,-6.71875 h -0.625 l -1.234375,1.671875 h 0.34375 l 1.203125,-1.03125 1.21875,1.03125 z m 0,0"
             id="path6758" />
        </g>
      </g>
      <g
         style="fill:#211e1e;fill-opacity:1"
         id="g3361">
        <g
           id="use3359"
           transform="translate(222.83899,369.59998)">
          <path
             style="stroke:none"
             d="M 6.859375,-6.515625 H 5 v 0.171875 c 0.453125,0.046875 0.625,0.140625 0.625,0.328125 0,0.1875 -0.1875,0.625 -0.515625,1.1875 L 3.0625,-1.28125 2.40625,-5.6875 C 2.390625,-5.734375 2.390625,-5.78125 2.390625,-5.84375 c 0,-0.34375 0.140625,-0.4375 0.765625,-0.5 V -6.515625 H 0.75 V -6.34375 C 1.3125,-6.28125 1.328125,-6.25 1.546875,-5 l 0.84375,5.171875 h 0.1875 l 3.71875,-6.125 C 6.46875,-6.21875 6.625,-6.34375 6.859375,-6.34375 Z m 0,0"
             id="path6762" />
        </g>
      </g>
      <g
         style="fill:#211e1e;fill-opacity:1"
         id="g3365">
        <g
           id="use3363"
           transform="translate(244.19919,381.59998)">
          <path
             style="stroke:none"
             d="m 4.421875,-2.5 c 0,-1.0625 -0.890625,-1.921875 -1.921875,-1.921875 -1.078125,0 -1.953125,0.890625 -1.953125,1.921875 0,1.0625 0.875,1.9375 1.953125,1.9375 1.03125,0 1.921875,-0.859375 1.921875,-1.9375 z m 0,0"
             id="path6766" />
        </g>
      </g>
      <g
         style="fill:#211e1e;fill-opacity:1"
         id="g3369">
        <g
           id="use3367"
           transform="translate(266.039,337.55978)">
          <path
             style="stroke:none"
             d="m 2.703125,17.546875 h 0.6875 v -17.9375 H 0.0625 v 0.6875 h 2.640625 z m 0,0"
             id="path6770" />
        </g>
      </g>
      <g
         style="fill:#211e1e;fill-opacity:1"
         id="g3373">
        <g
           id="use3371"
           transform="translate(266.039,355.08008)">
          <path
             style="stroke:none"
             d="m 2.703125,5.984375 h 0.6875 v -6 h -0.6875 z m 0,0"
             id="path6774" />
        </g>
      </g>
      <g
         style="fill:#211e1e;fill-opacity:1"
         id="g3377">
        <g
           id="use3375"
           transform="translate(266.039,361.08008)">
          <path
             style="stroke:none"
             d="m 2.703125,5.984375 h 0.6875 v -6 h -0.6875 z m 0,0"
             id="path6778" />
        </g>
      </g>
      <g
         style="fill:#211e1e;fill-opacity:1"
         id="g3381">
        <g
           id="use3379"
           transform="translate(266.039,367.08008)">
          <path
             style="stroke:none"
             d="m 2.703125,5.984375 h 0.6875 v -6 h -0.6875 z m 0,0"
             id="path6782" />
        </g>
      </g>
      <g
         style="fill:#211e1e;fill-opacity:1"
         id="g3385">
        <g
           id="use3383"
           transform="translate(266.039,373.08008)">
          <path
             style="stroke:none"
             d="m 2.703125,5.984375 h 0.6875 v -6 h -0.6875 z m 0,0"
             id="path6786" />
        </g>
      </g>
      <g
         style="fill:#211e1e;fill-opacity:1"
         id="g3389">
        <g
           id="use3387"
           transform="translate(266.039,379.43985)">
          <path
             style="stroke:none"
             d="M 2.703125,16.84375 H 0.0625 v 0.6875 h 3.328125 v -17.9375 h -0.6875 z m 0,0"
             id="path6790" />
        </g>
      </g>
      <g
         style="fill:#211e1e;fill-opacity:1"
         id="g3393">
        <g
           id="use3391"
           transform="translate(274.91907,369.60001)">
          <path
             style="stroke:none"
             d="m 6.84375,-3.265625 c 0.15625,0 0.34375,0 0.34375,-0.1875 C 7.1875,-3.65625 7,-3.65625 6.859375,-3.65625 h -5.96875 c -0.140625,0 -0.328125,0 -0.328125,0.203125 0,0.1875 0.1875,0.1875 0.328125,0.1875 z m 0.015625,1.9375 c 0.140625,0 0.328125,0 0.328125,-0.203125 0,-0.1875 -0.1875,-0.1875 -0.34375,-0.1875 H 0.890625 c -0.140625,0 -0.328125,0 -0.328125,0.1875 0,0.203125 0.1875,0.203125 0.328125,0.203125 z m 0,0"
             id="path6794" />
        </g>
      </g>
      <g
         style="fill:#211e1e;fill-opacity:1"
         id="g3397">
        <g
           id="use3395"
           transform="translate(284.87924,337.55981)">
          <path
             style="stroke:none"
             d="m 3.25,17.546875 h 0.6875 v -17.25 h 2.625 v -0.6875 H 3.25 Z m 0,0"
             id="path6798" />
        </g>
      </g>
      <g
         style="fill:#211e1e;fill-opacity:1"
         id="g3401">
        <g
           id="use3399"
           transform="translate(284.87924,355.08011)">
          <path
             style="stroke:none"
             d="m 3.25,5.984375 h 0.6875 v -6 H 3.25 Z m 0,0"
             id="path6802" />
        </g>
      </g>
      <g
         style="fill:#211e1e;fill-opacity:1"
         id="g3405">
        <g
           id="use3403"
           transform="translate(284.87924,361.08011)">
          <path
             style="stroke:none"
             d="m 3.25,5.984375 h 0.6875 v -6 H 3.25 Z m 0,0"
             id="path6806" />
        </g>
      </g>
      <g
         style="fill:#211e1e;fill-opacity:1"
         id="g3409">
        <g
           id="use3407"
           transform="translate(284.87924,367.08011)">
          <path
             style="stroke:none"
             d="m 3.25,5.984375 h 0.6875 v -6 H 3.25 Z m 0,0"
             id="path6810" />
        </g>
      </g>
      <g
         style="fill:#211e1e;fill-opacity:1"
         id="g3413">
        <g
           id="use3411"
           transform="translate(284.87924,373.08011)">
          <path
             style="stroke:none"
             d="m 3.25,5.984375 h 0.6875 v -6 H 3.25 Z m 0,0"
             id="path6814" />
        </g>
      </g>
      <g
         style="fill:#211e1e;fill-opacity:1"
         id="g3417">
        <g
           id="use3415"
           transform="translate(284.87924,379.43988)">
          <path
             style="stroke:none"
             d="m 3.25,17.53125 h 3.3125 v -0.6875 h -2.625 v -17.25 H 3.25 Z m 0,0"
             id="path6818" />
        </g>
      </g>
      <g
         style="fill:#211e1e;fill-opacity:1"
         id="g3421">
        <g
           id="use3419"
           transform="translate(302.27924,369.48013)">
          <path
             style="stroke:none"
             d="M 9.03125,-6.515625 H 7.1875 v 0.171875 c 0.53125,0.046875 0.640625,0.109375 0.640625,0.390625 0,0.15625 -0.078125,0.40625 -0.203125,0.671875 L 5.765625,-1.609375 5.359375,-5.625 v -0.140625 c 0,-0.40625 0.140625,-0.53125 0.671875,-0.578125 v -0.171875 h -2.375 v 0.171875 c 0.578125,0.015625 0.6875,0.078125 0.75,0.578125 L 4.5,-5.078125 2.78125,-1.609375 2.34375,-5.65625 c -0.015625,-0.0625 -0.015625,-0.125 -0.015625,-0.140625 0,-0.390625 0.125,-0.484375 0.734375,-0.546875 V -6.515625 H 0.703125 V -6.34375 C 1.03125,-6.3125 1.125,-6.28125 1.21875,-6.1875 1.328125,-6.078125 1.375,-5.890625 1.5,-4.96875 l 0.609375,5.140625 h 0.1875 L 4.515625,-4.34375 H 4.5625 l 0.5,4.515625 H 5.265625 L 8.28125,-5.625 c 0.265625,-0.515625 0.375,-0.609375 0.75,-0.71875 z m 0,0"
             id="path6822" />
        </g>
      </g>
      <path
         style="fill:#211e1e;fill-opacity:1;fill-rule:nonzero;stroke:none"
         d="m 293.02734,379.21094 h 27 v 2.28125 h -27 z m 0,0"
         id="path3423" />
      <g
         style="fill:#211e1e;fill-opacity:1"
         id="g3427">
        <g
           id="use3425"
           transform="translate(320.76001,337.56)">
          <path
             style="stroke:none"
             d="m 2.703125,17.546875 h 0.6875 v -17.9375 H 0.0625 v 0.6875 h 2.640625 z m 0,0"
             id="path6826" />
        </g>
      </g>
      <g
         style="fill:#211e1e;fill-opacity:1"
         id="g3431">
        <g
           id="use3429"
           transform="translate(320.76001,355.08029)">
          <path
             style="stroke:none"
             d="m 2.703125,5.984375 h 0.6875 v -6 h -0.6875 z m 0,0"
             id="path6830" />
        </g>
      </g>
      <g
         style="fill:#211e1e;fill-opacity:1"
         id="g3435">
        <g
           id="use3433"
           transform="translate(320.76001,361.08029)">
          <path
             style="stroke:none"
             d="m 2.703125,5.984375 h 0.6875 v -6 h -0.6875 z m 0,0"
             id="path6834" />
        </g>
      </g>
      <g
         style="fill:#211e1e;fill-opacity:1"
         id="g3439">
        <g
           id="use3437"
           transform="translate(320.76001,367.08029)">
          <path
             style="stroke:none"
             d="m 2.703125,5.984375 h 0.6875 v -6 h -0.6875 z m 0,0"
             id="path6838" />
        </g>
      </g>
      <g
         style="fill:#211e1e;fill-opacity:1"
         id="g3443">
        <g
           id="use3441"
           transform="translate(320.76001,373.08029)">
          <path
             style="stroke:none"
             d="m 2.703125,5.984375 h 0.6875 v -6 h -0.6875 z m 0,0"
             id="path6842" />
        </g>
      </g>
      <g
         style="fill:#211e1e;fill-opacity:1"
         id="g3447">
        <g
           id="use3445"
           transform="translate(320.76001,379.44006)">
          <path
             style="stroke:none"
             d="M 2.703125,16.84375 H 0.0625 v 0.6875 h 3.328125 v -17.9375 h -0.6875 z m 0,0"
             id="path6846" />
        </g>
      </g>
      <g
         style="fill:#211e1e;fill-opacity:1"
         id="g3451">
        <g
           id="use3449"
           transform="translate(328.4397,349.55997)">
          <path
             style="stroke:none"
             d="m 3.25,17.546875 h 0.6875 v -17.25 h 2.625 v -0.6875 H 3.25 Z m 0,0"
             id="path6850" />
        </g>
      </g>
      <g
         style="fill:#211e1e;fill-opacity:1"
         id="g3455">
        <g
           id="use3453"
           transform="translate(328.4397,367.44006)">
          <path
             style="stroke:none"
             d="m 3.25,17.53125 h 3.3125 v -0.6875 h -2.625 v -17.25 H 3.25 Z m 0,0"
             id="path6854" />
        </g>
      </g>
      <g
         style="fill:#211e1e;fill-opacity:1"
         id="g3459">
        <g
           id="use3457"
           transform="translate(370.56,369.48029)">
          <path
             style="stroke:none"
             d="M 7.640625,-6.515625 H 5.1875 v 0.171875 c 0.578125,0.0625 0.6875,0.140625 0.6875,0.421875 0,0.140625 -0.03125,0.375 -0.109375,0.625 l -0.453125,1.625 H 2.46875 l 0.546875,-1.9375 c 0.140625,-0.515625 0.40625,-0.703125 1,-0.734375 v -0.171875 h -2.71875 v 0.171875 c 0.609375,0.046875 0.765625,0.140625 0.765625,0.421875 0,0.140625 -0.03125,0.375 -0.109375,0.625 l -1.21875,4.40625 c -0.1875,0.578125 -0.25,0.625 -0.8125,0.734375 V 0 H 2.375 V -0.15625 C 1.78125,-0.234375 1.671875,-0.3125 1.671875,-0.59375 c 0,-0.078125 0,-0.15625 0.015625,-0.21875 L 2.359375,-3.25 H 5.1875 L 4.546875,-0.890625 C 4.390625,-0.375 4.1875,-0.234375 3.53125,-0.15625 V 0 H 6.265625 V -0.15625 C 5.625,-0.21875 5.484375,-0.296875 5.484375,-0.578125 c 0,-0.09375 0.015625,-0.15625 0.03125,-0.234375 l 1.3125,-4.796875 C 7,-6.1875 7.078125,-6.25 7.640625,-6.34375 Z m 0,0"
             id="path6858" />
        </g>
      </g>
      <path
         style="fill:#211e1e;fill-opacity:1;fill-rule:nonzero;stroke:none"
         d="m 394.30859,354.49219 h 2.28125 v 27 h -2.28125 z m 0,0"
         id="path3461" />
      <g
         style="fill:#211e1e;fill-opacity:1"
         id="g3465">
        <g
           id="use3463"
           transform="translate(413.76001,349.56)">
          <path
             style="stroke:none"
             d="m 2.703125,17.546875 h 0.6875 v -17.9375 H 0.0625 v 0.6875 h 2.640625 z m 0,0"
             id="path6862" />
        </g>
      </g>
      <g
         style="fill:#211e1e;fill-opacity:1"
         id="g3469">
        <g
           id="use3467"
           transform="translate(413.76001,367.44009)">
          <path
             style="stroke:none"
             d="M 2.703125,16.84375 H 0.0625 v 0.6875 h 3.328125 v -17.9375 h -0.6875 z m 0,0"
             id="path6866" />
        </g>
      </g>
    </g>
  </g>
</svg>
