<?xml version="1.0" encoding="UTF-8" standalone="no"?>
<svg
   width="73.903618mm"
   height="21.096817mm"
   viewBox="0 0 73.903618 21.096817"
   version="1.1"
   id="svg8070"
   xmlns="http://www.w3.org/2000/svg"
   xmlns:svg="http://www.w3.org/2000/svg">
  <defs
     id="defs8067" />
  <g
     id="layer1"
     transform="translate(-50.43473,-132.24005)">
    <g
       id="g7765"
       transform="matrix(0.35277777,0,0,0.35277777,-18.19101,-24.721197)">
      <g
         style="fill:#211e1e;fill-opacity:1"
         id="g3901">
        <g
           id="use3899"
           transform="translate(191.27966,445.32019)">
          <path
             style="stroke:none"
             d="m 3.25,17.546875 h 0.6875 v -17.25 h 2.625 v -0.6875 H 3.25 Z m 0,0"
             id="path7767" />
        </g>
      </g>
      <g
         style="fill:#211e1e;fill-opacity:1"
         id="g3905">
        <g
           id="use3903"
           transform="translate(191.27966,462.84009)">
          <path
             style="stroke:none"
             d="m 3.25,5.984375 h 0.6875 v -6 H 3.25 Z m 0,0"
             id="path7771" />
        </g>
      </g>
      <g
         style="fill:#211e1e;fill-opacity:1"
         id="g3909">
        <g
           id="use3907"
           transform="translate(191.27966,468.84009)">
          <path
             style="stroke:none"
             d="m 3.25,5.984375 h 0.6875 v -6 H 3.25 Z m 0,0"
             id="path7775" />
        </g>
      </g>
      <g
         style="fill:#211e1e;fill-opacity:1"
         id="g3913">
        <g
           id="use3911"
           transform="translate(191.27966,474.84009)">
          <path
             style="stroke:none"
             d="m 3.25,5.984375 h 0.6875 v -6 H 3.25 Z m 0,0"
             id="path7779" />
        </g>
      </g>
      <g
         style="fill:#211e1e;fill-opacity:1"
         id="g3917">
        <g
           id="use3915"
           transform="translate(191.27966,480.72018)">
          <path
             style="stroke:none"
             d="m 3.25,5.984375 h 0.6875 v -6 H 3.25 Z m 0,0"
             id="path7783" />
        </g>
      </g>
      <g
         style="fill:#211e1e;fill-opacity:1"
         id="g3921">
        <g
           id="use3919"
           transform="translate(191.27966,487.20026)">
          <path
             style="stroke:none"
             d="m 3.25,17.53125 h 3.3125 v -0.6875 h -2.625 v -17.25 H 3.25 Z m 0,0"
             id="path7787" />
        </g>
      </g>
      <g
         style="fill:#211e1e;fill-opacity:1"
         id="g3925">
        <g
           id="use3923"
           transform="translate(235.55975,475.32016)">
          <path
             style="stroke:none"
             d="M 3.203125,-5.046875 1.96875,-6.71875 h -0.625 l -1.234375,1.671875 h 0.34375 l 1.203125,-1.03125 1.21875,1.03125 z m 0,0"
             id="path7791" />
        </g>
      </g>
      <g
         style="fill:#211e1e;fill-opacity:1"
         id="g3929">
        <g
           id="use3927"
           transform="translate(233.3996,477.36038)">
          <path
             style="stroke:none"
             d="M 6.859375,-6.515625 H 5 v 0.171875 c 0.453125,0.046875 0.625,0.140625 0.625,0.328125 0,0.1875 -0.1875,0.625 -0.515625,1.1875 L 3.0625,-1.28125 2.40625,-5.6875 C 2.390625,-5.734375 2.390625,-5.78125 2.390625,-5.84375 c 0,-0.34375 0.140625,-0.4375 0.765625,-0.5 V -6.515625 H 0.75 V -6.34375 C 1.3125,-6.28125 1.328125,-6.25 1.546875,-5 l 0.84375,5.171875 h 0.1875 l 3.71875,-6.125 C 6.46875,-6.21875 6.625,-6.34375 6.859375,-6.34375 Z m 0,0"
             id="path7795" />
        </g>
      </g>
      <g
         style="fill:#211e1e;fill-opacity:1"
         id="g3933">
        <g
           id="use3931"
           transform="translate(276.59961,445.32019)">
          <path
             style="stroke:none"
             d="m 2.703125,17.546875 h 0.6875 v -17.9375 H 0.0625 v 0.6875 h 2.640625 z m 0,0"
             id="path7799" />
        </g>
      </g>
      <g
         style="fill:#211e1e;fill-opacity:1"
         id="g3937">
        <g
           id="use3935"
           transform="translate(276.59961,462.84009)">
          <path
             style="stroke:none"
             d="m 2.703125,5.984375 h 0.6875 v -6 h -0.6875 z m 0,0"
             id="path7803" />
        </g>
      </g>
      <g
         style="fill:#211e1e;fill-opacity:1"
         id="g3941">
        <g
           id="use3939"
           transform="translate(276.59961,468.84009)">
          <path
             style="stroke:none"
             d="m 2.703125,5.984375 h 0.6875 v -6 h -0.6875 z m 0,0"
             id="path7807" />
        </g>
      </g>
      <g
         style="fill:#211e1e;fill-opacity:1"
         id="g3945">
        <g
           id="use3943"
           transform="translate(276.59961,474.84009)">
          <path
             style="stroke:none"
             d="m 2.703125,5.984375 h 0.6875 v -6 h -0.6875 z m 0,0"
             id="path7811" />
        </g>
      </g>
      <g
         style="fill:#211e1e;fill-opacity:1"
         id="g3949">
        <g
           id="use3947"
           transform="translate(276.59961,480.72018)">
          <path
             style="stroke:none"
             d="m 2.703125,5.984375 h 0.6875 v -6 h -0.6875 z m 0,0"
             id="path7815" />
        </g>
      </g>
      <g
         style="fill:#211e1e;fill-opacity:1"
         id="g3953">
        <g
           id="use3951"
           transform="translate(276.59961,487.20026)">
          <path
             style="stroke:none"
             d="M 2.703125,16.84375 H 0.0625 v 0.6875 h 3.328125 v -17.9375 h -0.6875 z m 0,0"
             id="path7819" />
        </g>
      </g>
      <g
         style="fill:#211e1e;fill-opacity:1"
         id="g3957">
        <g
           id="use3955"
           transform="translate(284.3996,477.24008)">
          <path
             style="stroke:none"
             d="m 6.84375,-3.265625 c 0.15625,0 0.34375,0 0.34375,-0.1875 C 7.1875,-3.65625 7,-3.65625 6.859375,-3.65625 h -5.96875 c -0.140625,0 -0.328125,0 -0.328125,0.203125 0,0.1875 0.1875,0.1875 0.328125,0.1875 z m 0.015625,1.9375 c 0.140625,0 0.328125,0 0.328125,-0.203125 0,-0.1875 -0.1875,-0.1875 -0.34375,-0.1875 H 0.890625 c -0.140625,0 -0.328125,0 -0.328125,0.1875 0,0.203125 0.1875,0.203125 0.328125,0.203125 z m 0,0"
             id="path7823" />
        </g>
      </g>
      <g
         style="fill:#211e1e;fill-opacity:1"
         id="g3961">
        <g
           id="use3959"
           transform="translate(293.15976,479.40024)">
          <path
             style="stroke:none"
             d="M 2.53125,-10.203125 H 6.375 c 1.640625,0 2.078125,0.328125 2.3125,1.78125 h 0.375 L 8.921875,-10.78125 h -8.59375 l 3.34375,6.6875 -3.46875,5.859375 H 9.1875 L 9.96875,-1.25 h -0.375 C 9.140625,-0.09375 8.703125,0.15625 7.046875,0.15625 H 2.34375 l 2.875,-5.046875 z m 0,0"
             id="path7827" />
        </g>
      </g>
      <g
         style="fill:#211e1e;fill-opacity:1"
         id="g3965">
        <g
           id="use3963"
           transform="translate(296.51953,486.96002)">
          <path
             style="stroke:none"
             d="M 3.484375,-2.984375 H 3.03125 c -0.015625,0 -0.0625,-0.015625 -0.125,-0.0625 C 2.71875,-3.171875 2.46875,-3.25 2.1875,-3.25 c -0.8125,0 -1.484375,0.5625 -1.484375,1.265625 0,0.375 0.171875,0.59375 0.59375,0.796875 -0.4375,0.28125 -0.578125,0.4375 -0.578125,0.609375 0,0.09375 0.0625,0.1875 0.203125,0.296875 C 0.1875,0.1875 0.0625,0.34375 0.0625,0.671875 c 0,0.515625 0.484375,0.84375 1.234375,0.84375 0.921875,0 1.546875,-0.4375 1.546875,-1.078125 0,-0.453125 -0.359375,-0.78125 -1.0625,-0.96875 -0.328125,-0.078125 -0.515625,-0.203125 -0.515625,-0.3125 0,-0.109375 0.171875,-0.296875 0.265625,-0.296875 0.015625,0 0.03125,0 0.046875,0 0.0625,0.015625 0.171875,0.03125 0.234375,0.03125 0.671875,0 1.359375,-0.609375 1.359375,-1.171875 0,-0.125 -0.015625,-0.265625 -0.0625,-0.421875 h 0.375 z m -2.390625,2.78125 c 0,0 0.015625,0 0.03125,0.015625 0.03125,0 0.09375,0.03125 0.21875,0.0625 0.78125,0.25 1.046875,0.453125 1.046875,0.78125 0,0.40625 -0.421875,0.703125 -0.984375,0.703125 -0.59375,0 -0.9375,-0.28125 -0.9375,-0.75 0,-0.1875 0.046875,-0.3125 0.15625,-0.453125 0.09375,-0.125 0.40625,-0.359375 0.46875,-0.359375 z M 2.1875,-3.09375 c 0.265625,0 0.40625,0.1875 0.40625,0.53125 0,0.25 -0.09375,0.578125 -0.21875,0.828125 -0.171875,0.296875 -0.40625,0.46875 -0.65625,0.46875 -0.265625,0 -0.4375,-0.203125 -0.4375,-0.5625 0,-0.671875 0.421875,-1.265625 0.90625,-1.265625 z m 0,0"
             id="path7831" />
        </g>
      </g>
      <g
         style="fill:#211e1e;fill-opacity:1"
         id="g3969">
        <g
           id="use3967"
           transform="translate(304.55975,445.32022)">
          <path
             style="stroke:none"
             d="m 3.25,17.546875 h 0.6875 v -17.25 h 2.625 v -0.6875 H 3.25 Z m 0,0"
             id="path7835" />
        </g>
      </g>
      <g
         style="fill:#211e1e;fill-opacity:1"
         id="g3973">
        <g
           id="use3971"
           transform="translate(304.55975,462.84012)">
          <path
             style="stroke:none"
             d="m 3.25,5.984375 h 0.6875 v -6 H 3.25 Z m 0,0"
             id="path7839" />
        </g>
      </g>
      <g
         style="fill:#211e1e;fill-opacity:1"
         id="g3977">
        <g
           id="use3975"
           transform="translate(304.55975,468.84012)">
          <path
             style="stroke:none"
             d="m 3.25,5.984375 h 0.6875 v -6 H 3.25 Z m 0,0"
             id="path7843" />
        </g>
      </g>
      <g
         style="fill:#211e1e;fill-opacity:1"
         id="g3981">
        <g
           id="use3979"
           transform="translate(304.55975,474.84012)">
          <path
             style="stroke:none"
             d="m 3.25,5.984375 h 0.6875 v -6 H 3.25 Z m 0,0"
             id="path7847" />
        </g>
      </g>
      <g
         style="fill:#211e1e;fill-opacity:1"
         id="g3985">
        <g
           id="use3983"
           transform="translate(304.55975,480.72021)">
          <path
             style="stroke:none"
             d="m 3.25,5.984375 h 0.6875 v -6 H 3.25 Z m 0,0"
             id="path7851" />
        </g>
      </g>
      <g
         style="fill:#211e1e;fill-opacity:1"
         id="g3989">
        <g
           id="use3987"
           transform="translate(304.55975,487.20029)">
          <path
             style="stroke:none"
             d="m 3.25,17.53125 h 3.3125 v -0.6875 h -2.625 v -17.25 H 3.25 Z m 0,0"
             id="path7855" />
        </g>
      </g>
      <g
         style="fill:#211e1e;fill-opacity:1"
         id="g3993">
        <g
           id="use3991"
           transform="translate(310.67969,477.24011)">
          <path
             style="stroke:none"
             d="M 9.03125,-6.515625 H 7.1875 v 0.171875 c 0.53125,0.046875 0.640625,0.109375 0.640625,0.390625 0,0.15625 -0.078125,0.40625 -0.203125,0.671875 L 5.765625,-1.609375 5.359375,-5.625 v -0.140625 c 0,-0.40625 0.140625,-0.53125 0.671875,-0.578125 v -0.171875 h -2.375 v 0.171875 c 0.578125,0.015625 0.6875,0.078125 0.75,0.578125 L 4.5,-5.078125 2.78125,-1.609375 2.34375,-5.65625 c -0.015625,-0.0625 -0.015625,-0.125 -0.015625,-0.140625 0,-0.390625 0.125,-0.484375 0.734375,-0.546875 V -6.515625 H 0.703125 V -6.34375 C 1.03125,-6.3125 1.125,-6.28125 1.21875,-6.1875 1.328125,-6.078125 1.375,-5.890625 1.5,-4.96875 l 0.609375,5.140625 h 0.1875 L 4.515625,-4.34375 H 4.5625 l 0.5,4.515625 H 5.265625 L 8.28125,-5.625 c 0.265625,-0.515625 0.375,-0.609375 0.75,-0.71875 z m 0,0"
             id="path7859" />
        </g>
      </g>
      <g
         style="fill:#211e1e;fill-opacity:1"
         id="g3997">
        <g
           id="use3995"
           transform="translate(318.47968,478.68036)">
          <path
             style="stroke:none"
             d="m 3.28125,-1.84375 c 0,-0.796875 -0.65625,-1.4375 -1.4375,-1.4375 -0.796875,0 -1.4375,0.65625 -1.4375,1.4375 0,0.78125 0.640625,1.4375 1.4375,1.4375 0.78125,0 1.4375,-0.640625 1.4375,-1.4375 z m 0,0"
             id="path7863" />
        </g>
      </g>
      <g
         style="fill:#211e1e;fill-opacity:1"
         id="g4001">
        <g
           id="use3999"
           transform="translate(322.19958,478.68036)">
          <path
             style="stroke:none"
             d="m 1.5,0 c 0,-0.5 -0.1875,-0.78125 -0.46875,-0.78125 -0.25,0 -0.390625,0.1875 -0.390625,0.390625 C 0.640625,-0.1875 0.78125,0 1.03125,0 1.109375,0 1.203125,-0.03125 1.28125,-0.09375 1.3125,-0.109375 1.3125,-0.125 1.3125,-0.125 c 0.015625,0 0.015625,0.015625 0.015625,0.125 0,0.53125 -0.25,0.984375 -0.5,1.21875 C 0.75,1.3125 0.75,1.3125 0.75,1.34375 0.75,1.390625 0.796875,1.421875 0.828125,1.421875 0.90625,1.421875 1.5,0.859375 1.5,0 Z m 0,0"
             id="path7867" />
        </g>
      </g>
      <g
         style="fill:#211e1e;fill-opacity:1"
         id="g4005">
        <g
           id="use4003"
           transform="translate(324.23944,478.68036)">
          <path
             style="stroke:none"
             d="M 3.484375,-2.984375 H 3.03125 c -0.015625,0 -0.0625,-0.015625 -0.125,-0.0625 C 2.71875,-3.171875 2.46875,-3.25 2.1875,-3.25 c -0.8125,0 -1.484375,0.5625 -1.484375,1.265625 0,0.375 0.171875,0.59375 0.59375,0.796875 -0.4375,0.28125 -0.578125,0.4375 -0.578125,0.609375 0,0.09375 0.0625,0.1875 0.203125,0.296875 C 0.1875,0.1875 0.0625,0.34375 0.0625,0.671875 c 0,0.515625 0.484375,0.84375 1.234375,0.84375 0.921875,0 1.546875,-0.4375 1.546875,-1.078125 0,-0.453125 -0.359375,-0.78125 -1.0625,-0.96875 -0.328125,-0.078125 -0.515625,-0.203125 -0.515625,-0.3125 0,-0.109375 0.171875,-0.296875 0.265625,-0.296875 0.015625,0 0.03125,0 0.046875,0 0.0625,0.015625 0.171875,0.03125 0.234375,0.03125 0.671875,0 1.359375,-0.609375 1.359375,-1.171875 0,-0.125 -0.015625,-0.265625 -0.0625,-0.421875 h 0.375 z m -2.390625,2.78125 c 0,0 0.015625,0 0.03125,0.015625 0.03125,0 0.09375,0.03125 0.21875,0.0625 0.78125,0.25 1.046875,0.453125 1.046875,0.78125 0,0.40625 -0.421875,0.703125 -0.984375,0.703125 -0.59375,0 -0.9375,-0.28125 -0.9375,-0.75 0,-0.1875 0.046875,-0.3125 0.15625,-0.453125 0.09375,-0.125 0.40625,-0.359375 0.46875,-0.359375 z M 2.1875,-3.09375 c 0.265625,0 0.40625,0.1875 0.40625,0.53125 0,0.25 -0.09375,0.578125 -0.21875,0.828125 -0.171875,0.296875 -0.40625,0.46875 -0.65625,0.46875 -0.265625,0 -0.4375,-0.203125 -0.4375,-0.5625 0,-0.671875 0.421875,-1.265625 0.90625,-1.265625 z m 0,0"
             id="path7871" />
        </g>
      </g>
      <g
         style="fill:#211e1e;fill-opacity:1"
         id="g4009">
        <g
           id="use4007"
           transform="translate(328.43945,445.32016)">
          <path
             style="stroke:none"
             d="m 2.703125,17.546875 h 0.6875 v -17.9375 H 0.0625 v 0.6875 h 2.640625 z m 0,0"
             id="path7875" />
        </g>
      </g>
      <g
         style="fill:#211e1e;fill-opacity:1"
         id="g4013">
        <g
           id="use4011"
           transform="translate(328.43945,462.84006)">
          <path
             style="stroke:none"
             d="m 2.703125,5.984375 h 0.6875 v -6 h -0.6875 z m 0,0"
             id="path7879" />
        </g>
      </g>
      <g
         style="fill:#211e1e;fill-opacity:1"
         id="g4017">
        <g
           id="use4015"
           transform="translate(328.43945,468.84006)">
          <path
             style="stroke:none"
             d="m 2.703125,5.984375 h 0.6875 v -6 h -0.6875 z m 0,0"
             id="path7883" />
        </g>
      </g>
      <g
         style="fill:#211e1e;fill-opacity:1"
         id="g4021">
        <g
           id="use4019"
           transform="translate(328.43945,474.84006)">
          <path
             style="stroke:none"
             d="m 2.703125,5.984375 h 0.6875 v -6 h -0.6875 z m 0,0"
             id="path7887" />
        </g>
      </g>
      <g
         style="fill:#211e1e;fill-opacity:1"
         id="g4025">
        <g
           id="use4023"
           transform="translate(328.43945,480.72012)">
          <path
             style="stroke:none"
             d="m 2.703125,5.984375 h 0.6875 v -6 h -0.6875 z m 0,0"
             id="path7891" />
        </g>
      </g>
      <g
         style="fill:#211e1e;fill-opacity:1"
         id="g4029">
        <g
           id="use4027"
           transform="translate(328.43945,487.2002)">
          <path
             style="stroke:none"
             d="M 2.703125,16.84375 H 0.0625 v 0.6875 h 3.328125 v -17.9375 h -0.6875 z m 0,0"
             id="path7895" />
        </g>
      </g>
      <g
         style="fill:#211e1e;fill-opacity:1"
         id="g4033">
        <g
           id="use4031"
           transform="translate(336.11951,469.2002)">
          <path
             style="stroke:none"
             d="m 2.015625,11.546875 h 1.90625 V 11.15625 H 2.40625 V 0 h 1.515625 v -0.40625 h -1.90625 z m 0,0"
             id="path7899" />
        </g>
      </g>
      <g
         style="fill:#211e1e;fill-opacity:1"
         id="g4037">
        <g
           id="use4035"
           transform="translate(362.63943,477.12012)">
          <path
             style="stroke:none"
             d="M 7.640625,-6.515625 H 5.1875 v 0.171875 c 0.578125,0.0625 0.6875,0.140625 0.6875,0.421875 0,0.140625 -0.03125,0.375 -0.109375,0.625 l -0.453125,1.625 H 2.46875 l 0.546875,-1.9375 c 0.140625,-0.515625 0.40625,-0.703125 1,-0.734375 v -0.171875 h -2.71875 v 0.171875 c 0.609375,0.046875 0.765625,0.140625 0.765625,0.421875 0,0.140625 -0.03125,0.375 -0.109375,0.625 l -1.21875,4.40625 c -0.1875,0.578125 -0.25,0.625 -0.8125,0.734375 V 0 H 2.375 V -0.15625 C 1.78125,-0.234375 1.671875,-0.3125 1.671875,-0.59375 c 0,-0.078125 0,-0.15625 0.015625,-0.21875 L 2.359375,-3.25 H 5.1875 L 4.546875,-0.890625 C 4.390625,-0.375 4.1875,-0.234375 3.53125,-0.15625 V 0 H 6.265625 V -0.15625 C 5.625,-0.21875 5.484375,-0.296875 5.484375,-0.578125 c 0,-0.09375 0.015625,-0.15625 0.03125,-0.234375 l 1.3125,-4.796875 C 7,-6.1875 7.078125,-6.25 7.640625,-6.34375 Z m 0,0"
             id="path7903" />
        </g>
      </g>
      <g
         style="fill:#211e1e;fill-opacity:1"
         id="g4041">
        <g
           id="use4039"
           transform="translate(369.59958,478.56036)">
          <path
             style="stroke:none"
             d="M 3.484375,-2.984375 H 3.03125 c -0.015625,0 -0.0625,-0.015625 -0.125,-0.0625 C 2.71875,-3.171875 2.46875,-3.25 2.1875,-3.25 c -0.8125,0 -1.484375,0.5625 -1.484375,1.265625 0,0.375 0.171875,0.59375 0.59375,0.796875 -0.4375,0.28125 -0.578125,0.4375 -0.578125,0.609375 0,0.09375 0.0625,0.1875 0.203125,0.296875 C 0.1875,0.1875 0.0625,0.34375 0.0625,0.671875 c 0,0.515625 0.484375,0.84375 1.234375,0.84375 0.921875,0 1.546875,-0.4375 1.546875,-1.078125 0,-0.453125 -0.359375,-0.78125 -1.0625,-0.96875 -0.328125,-0.078125 -0.515625,-0.203125 -0.515625,-0.3125 0,-0.109375 0.171875,-0.296875 0.265625,-0.296875 0.015625,0 0.03125,0 0.046875,0 0.0625,0.015625 0.171875,0.03125 0.234375,0.03125 0.671875,0 1.359375,-0.609375 1.359375,-1.171875 0,-0.125 -0.015625,-0.265625 -0.0625,-0.421875 h 0.375 z m -2.390625,2.78125 c 0,0 0.015625,0 0.03125,0.015625 0.03125,0 0.09375,0.03125 0.21875,0.0625 0.78125,0.25 1.046875,0.453125 1.046875,0.78125 0,0.40625 -0.421875,0.703125 -0.984375,0.703125 -0.59375,0 -0.9375,-0.28125 -0.9375,-0.75 0,-0.1875 0.046875,-0.3125 0.15625,-0.453125 0.09375,-0.125 0.40625,-0.359375 0.46875,-0.359375 z M 2.1875,-3.09375 c 0.265625,0 0.40625,0.1875 0.40625,0.53125 0,0.25 -0.09375,0.578125 -0.21875,0.828125 -0.171875,0.296875 -0.40625,0.46875 -0.65625,0.46875 -0.265625,0 -0.4375,-0.203125 -0.4375,-0.5625 0,-0.671875 0.421875,-1.265625 0.90625,-1.265625 z m 0,0"
             id="path7907" />
        </g>
      </g>
      <g
         style="fill:#211e1e;fill-opacity:1"
         id="g4045">
        <g
           id="use4043"
           transform="translate(373.19958,478.56036)">
          <path
             style="stroke:none"
             d="m 1.5,0 c 0,-0.5 -0.1875,-0.78125 -0.46875,-0.78125 -0.25,0 -0.390625,0.1875 -0.390625,0.390625 C 0.640625,-0.1875 0.78125,0 1.03125,0 1.109375,0 1.203125,-0.03125 1.28125,-0.09375 1.3125,-0.109375 1.3125,-0.125 1.3125,-0.125 c 0.015625,0 0.015625,0.015625 0.015625,0.125 0,0.53125 -0.25,0.984375 -0.5,1.21875 C 0.75,1.3125 0.75,1.3125 0.75,1.34375 0.75,1.390625 0.796875,1.421875 0.828125,1.421875 0.90625,1.421875 1.5,0.859375 1.5,0 Z m 0,0"
             id="path7911" />
        </g>
      </g>
      <g
         style="fill:#211e1e;fill-opacity:1"
         id="g4049">
        <g
           id="use4047"
           transform="translate(375.23941,478.56036)">
          <path
             style="stroke:none"
             d="m 3.28125,-1.84375 c 0,-0.796875 -0.65625,-1.4375 -1.4375,-1.4375 -0.796875,0 -1.4375,0.65625 -1.4375,1.4375 0,0.78125 0.640625,1.4375 1.4375,1.4375 0.78125,0 1.4375,-0.640625 1.4375,-1.4375 z m 0,0"
             id="path7915" />
        </g>
      </g>
      <g
         style="fill:#211e1e;fill-opacity:1"
         id="g4053">
        <g
           id="use4051"
           transform="translate(401.87961,469.2002)">
          <path
             style="stroke:none"
             d="M 2.140625,11.546875 V -0.40625 H 0.21875 V 0 H 1.734375 V 11.15625 H 0.21875 v 0.390625 z m 0,0"
             id="path7919" />
        </g>
      </g>
    </g>
  </g>
</svg>
