<?xml version="1.0" encoding="utf-8"?>
<!-- Generator: Adobe Illustrator 24.3.0, SVG Export Plug-In . SVG Version: 6.00 Build 0)  -->
<svg version="1.1" id="Layer_1" xmlns="http://www.w3.org/2000/svg" xmlns:xlink="http://www.w3.org/1999/xlink" x="0px" y="0px"
	 viewBox="0 0 277.76 138.33" style="enable-background:new 0 0 277.76 138.33;" xml:space="preserve">
<style type="text/css">
	.st0{fill:none;stroke:#000000;stroke-width:0.151;stroke-miterlimit:10;stroke-dasharray:0.604,1.208;}
	.st1{fill:none;stroke:#000000;stroke-width:0.604;stroke-miterlimit:10;}
	.st2{font-family:'Helvetica';}
	.st3{font-size:8.4073px;}
	.st4{fill:none;stroke:#000000;stroke-width:0.302;stroke-miterlimit:10;}
	.st5{font-family:'MyriadPro-Regular';}
	.st6{font-size:12px;}
</style>
<g>
	<g>
		<path class="st0" d="M14.56,123.11V18.98 M14.56,123.11h100.66"/>
		<path class="st1" d="M115.22,123.11h-3.83 M14.56,123.11h3.83"/>
		<text transform="matrix(1.0116 0 0 1 4.7287 125.8748)" class="st2 st3">0</text>
		<path class="st1" d="M115.22,102.27h-3.83 M14.56,102.27h3.83"/>
		<text transform="matrix(1.0116 0 0 1 4.7287 105.037)" class="st2 st3">2</text>
		<path class="st1" d="M115.22,81.44h-3.83 M14.56,81.44h3.83"/>
		<text transform="matrix(1.0116 0 0 1 4.7287 84.1991)" class="st2 st3">4</text>
		<path class="st1" d="M115.22,60.66h-3.83 M14.56,60.66h3.83"/>
		<text transform="matrix(1.0116 0 0 1 4.7287 63.4207)" class="st2 st3">6</text>
		<path class="st1" d="M115.22,39.82h-3.83 M14.56,39.82h3.83"/>
		<text transform="matrix(1.0116 0 0 1 4.7287 42.5829)" class="st2 st3">8</text>
		<path class="st1" d="M115.22,18.98h-3.83 M14.56,18.98h3.83"/>
		<text transform="matrix(1.0116 0 0 1 2.174377e-04 21.745)" class="st2 st3">10</text>
		<path class="st1" d="M14.56,18.98v3.78 M14.56,123.11v-3.78"/>
		<text transform="matrix(1.0116 0 0 1 12.196 134.2831)" class="st2 st3">0</text>
		<path class="st1" d="M34.67,18.98v3.78 M34.67,123.11v-3.78"/>
		<text transform="matrix(1.0116 0 0 1 32.3049 134.2831)" class="st2 st3">2</text>
		<path class="st1" d="M54.84,18.98v3.78 M54.84,123.11v-3.78"/>
		<text transform="matrix(1.0116 0 0 1 52.4739 134.2831)" class="st2 st3">4</text>
		<path class="st1" d="M74.95,18.98v3.78 M74.95,123.11v-3.78"/>
		<text transform="matrix(1.0116 0 0 1 72.5818 134.2831)" class="st2 st3">6</text>
		<path class="st1" d="M95.12,18.98v3.78 M95.12,123.11v-3.78"/>
		<text transform="matrix(1.0116 0 0 1 92.7507 134.2831)" class="st2 st3">8</text>
		<path class="st1" d="M115.22,18.98v3.78 M115.22,123.11v-3.78"/>
		<text transform="matrix(1.0116 0 0 1 110.4948 134.2831)" class="st2 st3">10</text>
		<polyline class="st1" points="14.56,123.11 115.22,123.11 115.22,18.98 14.56,18.98 14.56,123.11 		"/>
		<line class="st4" x1="66.59" y1="100.44" x2="70.42" y2="104.23"/>
		<line class="st4" x1="66.59" y1="104.23" x2="70.42" y2="100.44"/>
		<line class="st4" x1="38.22" y1="89.63" x2="42.05" y2="93.42"/>
		<line class="st4" x1="38.22" y1="93.42" x2="42.05" y2="89.63"/>
		<line class="st4" x1="62.64" y1="36.31" x2="66.47" y2="40.09"/>
		<line class="st4" x1="62.64" y1="40.09" x2="66.47" y2="36.31"/>
		<line class="st4" x1="34.09" y1="62.67" x2="37.92" y2="66.45"/>
		<line class="st4" x1="34.09" y1="66.45" x2="37.92" y2="62.67"/>
		<line class="st4" x1="25.16" y1="58.41" x2="28.99" y2="62.19"/>
		<line class="st4" x1="25.16" y1="62.19" x2="28.99" y2="58.41"/>
		<line class="st4" x1="45.03" y1="112.87" x2="48.85" y2="116.66"/>
		<line class="st4" x1="45.03" y1="116.66" x2="48.85" y2="112.87"/>
		<line class="st4" x1="45.57" y1="89.87" x2="49.4" y2="93.66"/>
		<line class="st4" x1="45.57" y1="93.66" x2="49.4" y2="89.87"/>
		<line class="st4" x1="27.77" y1="64.53" x2="31.6" y2="68.32"/>
		<line class="st4" x1="27.77" y1="68.32" x2="31.6" y2="64.53"/>
		<line class="st4" x1="72.97" y1="26.22" x2="76.8" y2="30"/>
		<line class="st4" x1="72.97" y1="30" x2="76.8" y2="26.22"/>
		<line class="st4" x1="32.03" y1="73.48" x2="35.85" y2="77.26"/>
		<line class="st4" x1="32.03" y1="77.26" x2="35.85" y2="73.48"/>
		<line class="st4" x1="59.36" y1="45.08" x2="63.19" y2="48.86"/>
		<line class="st4" x1="59.36" y1="48.86" x2="63.19" y2="45.08"/>
		<line class="st4" x1="58.7" y1="46.1" x2="62.52" y2="49.88"/>
		<line class="st4" x1="58.7" y1="49.88" x2="62.52" y2="46.1"/>
		<line class="st4" x1="61.25" y1="56.24" x2="65.08" y2="60.03"/>
		<line class="st4" x1="61.25" y1="60.03" x2="65.08" y2="56.24"/>
		<line class="st4" x1="29.35" y1="49.7" x2="33.18" y2="53.48"/>
		<line class="st4" x1="29.35" y1="53.48" x2="33.18" y2="49.7"/>
		<line class="st4" x1="25.89" y1="52.04" x2="29.72" y2="55.82"/>
		<line class="st4" x1="25.89" y1="55.82" x2="29.72" y2="52.04"/>
		<line class="st4" x1="47.34" y1="63.69" x2="51.16" y2="67.47"/>
		<line class="st4" x1="47.34" y1="67.47" x2="51.16" y2="63.69"/>
		<line class="st4" x1="76.68" y1="96.9" x2="80.5" y2="100.68"/>
		<line class="st4" x1="76.68" y1="100.68" x2="80.5" y2="96.9"/>
		<line class="st4" x1="50.43" y1="53.66" x2="54.26" y2="57.45"/>
		<line class="st4" x1="50.43" y1="57.45" x2="54.26" y2="53.66"/>
		<line class="st4" x1="40.41" y1="77.02" x2="44.24" y2="80.81"/>
		<line class="st4" x1="40.41" y1="80.81" x2="44.24" y2="77.02"/>
		<line class="st4" x1="43.87" y1="60.99" x2="47.7" y2="64.77"/>
		<line class="st4" x1="43.87" y1="64.77" x2="47.7" y2="60.99"/>
		<line class="st4" x1="61" y1="113.95" x2="64.83" y2="117.74"/>
		<line class="st4" x1="61" y1="117.74" x2="64.83" y2="113.95"/>
		<line class="st4" x1="42.66" y1="63.39" x2="46.49" y2="67.17"/>
		<line class="st4" x1="42.66" y1="67.17" x2="46.49" y2="63.39"/>
		<line class="st4" x1="29.48" y1="100.92" x2="33.3" y2="104.71"/>
		<line class="st4" x1="29.48" y1="104.71" x2="33.3" y2="100.92"/>
		<line class="st4" x1="39.2" y1="35.53" x2="43.02" y2="39.31"/>
		<line class="st4" x1="39.2" y1="39.31" x2="43.02" y2="35.53"/>
		<line class="st4" x1="40.59" y1="48.08" x2="44.42" y2="51.86"/>
		<line class="st4" x1="40.59" y1="51.86" x2="44.42" y2="48.08"/>
		<line class="st4" x1="33.85" y1="58.23" x2="37.68" y2="62.01"/>
		<line class="st4" x1="33.85" y1="62.01" x2="37.68" y2="58.23"/>
		<line class="st4" x1="63.43" y1="53.9" x2="67.26" y2="57.69"/>
		<line class="st4" x1="63.43" y1="57.69" x2="67.26" y2="53.9"/>
		<line class="st4" x1="38.04" y1="46.52" x2="41.87" y2="50.3"/>
		<line class="st4" x1="38.04" y1="50.3" x2="41.87" y2="46.52"/>
		<line class="st4" x1="27.35" y1="57.45" x2="31.18" y2="61.23"/>
		<line class="st4" x1="27.35" y1="61.23" x2="31.18" y2="57.45"/>
		<line class="st4" x1="26.8" y1="58.77" x2="30.63" y2="62.55"/>
		<line class="st4" x1="26.8" y1="62.55" x2="30.63" y2="58.77"/>
		<line class="st4" x1="57.24" y1="90.47" x2="61.07" y2="94.26"/>
		<line class="st4" x1="57.24" y1="94.26" x2="61.07" y2="90.47"/>
		<line class="st4" x1="43.63" y1="78.64" x2="47.46" y2="82.43"/>
		<line class="st4" x1="43.63" y1="82.43" x2="47.46" y2="78.64"/>
		<line class="st4" x1="67.87" y1="22.14" x2="71.7" y2="25.92"/>
		<line class="st4" x1="67.87" y1="25.92" x2="71.7" y2="22.14"/>
		<line class="st4" x1="63.13" y1="61.95" x2="66.96" y2="65.73"/>
		<line class="st4" x1="63.13" y1="65.73" x2="66.96" y2="61.95"/>
		<line class="st4" x1="53.9" y1="73.72" x2="57.72" y2="77.5"/>
		<line class="st4" x1="53.9" y1="77.5" x2="57.72" y2="73.72"/>
		<line class="st4" x1="58.03" y1="79.54" x2="61.85" y2="83.33"/>
		<line class="st4" x1="58.03" y1="83.33" x2="61.85" y2="79.54"/>
		<line class="st4" x1="39.62" y1="72.58" x2="43.45" y2="76.36"/>
		<line class="st4" x1="39.62" y1="76.36" x2="43.45" y2="72.58"/>
		<line class="st4" x1="54.99" y1="36.13" x2="58.82" y2="39.91"/>
		<line class="st4" x1="54.99" y1="39.91" x2="58.82" y2="36.13"/>
		<line class="st4" x1="42.11" y1="62.31" x2="45.94" y2="66.09"/>
		<line class="st4" x1="42.11" y1="66.09" x2="45.94" y2="62.31"/>
		<line class="st4" x1="47.09" y1="29.04" x2="50.92" y2="32.82"/>
		<line class="st4" x1="47.09" y1="32.82" x2="50.92" y2="29.04"/>
		<line class="st4" x1="26.13" y1="87.83" x2="29.96" y2="91.62"/>
		<line class="st4" x1="26.13" y1="91.62" x2="29.96" y2="87.83"/>
		<line class="st4" x1="39.99" y1="61.23" x2="43.81" y2="65.01"/>
		<line class="st4" x1="39.99" y1="65.01" x2="43.81" y2="61.23"/>
		<line class="st4" x1="42.78" y1="93.24" x2="46.61" y2="97.02"/>
		<line class="st4" x1="42.78" y1="97.02" x2="46.61" y2="93.24"/>
		<line class="st4" x1="54.2" y1="65.49" x2="58.03" y2="69.28"/>
		<line class="st4" x1="54.2" y1="69.28" x2="58.03" y2="65.49"/>
		<line class="st4" x1="47.76" y1="103.99" x2="51.59" y2="107.77"/>
		<line class="st4" x1="47.76" y1="107.77" x2="51.59" y2="103.99"/>
		<line class="st4" x1="47.4" y1="45.74" x2="51.22" y2="49.52"/>
		<line class="st4" x1="47.4" y1="49.52" x2="51.22" y2="45.74"/>
		<line class="st4" x1="57.85" y1="89.33" x2="61.67" y2="93.12"/>
		<line class="st4" x1="57.85" y1="93.12" x2="61.67" y2="89.33"/>
		<line class="st4" x1="51.65" y1="55.7" x2="55.48" y2="59.49"/>
		<line class="st4" x1="51.65" y1="59.49" x2="55.48" y2="55.7"/>
		<line class="st4" x1="43.93" y1="54.86" x2="47.76" y2="58.65"/>
		<line class="st4" x1="43.93" y1="58.65" x2="47.76" y2="54.86"/>
		<line class="st4" x1="35.49" y1="32.04" x2="39.32" y2="35.83"/>
		<line class="st4" x1="35.49" y1="35.83" x2="39.32" y2="32.04"/>
		<line class="st4" x1="47.58" y1="81.77" x2="51.41" y2="85.55"/>
		<line class="st4" x1="47.58" y1="85.55" x2="51.41" y2="81.77"/>
		<line class="st4" x1="24.19" y1="89.33" x2="28.02" y2="93.12"/>
		<line class="st4" x1="24.19" y1="93.12" x2="28.02" y2="89.33"/>
		<line class="st4" x1="43.08" y1="66.99" x2="46.91" y2="70.78"/>
		<line class="st4" x1="43.08" y1="70.78" x2="46.91" y2="66.99"/>
		<line class="st4" x1="13.26" y1="80.63" x2="17.08" y2="84.41"/>
		<line class="st4" x1="13.25" y1="84.41" x2="17.08" y2="80.63"/>
		<line class="st4" x1="33.18" y1="72.34" x2="37.01" y2="76.12"/>
		<line class="st4" x1="33.18" y1="76.12" x2="37.01" y2="72.34"/>
		<line class="st4" x1="27.96" y1="91.92" x2="31.78" y2="95.7"/>
		<line class="st4" x1="27.96" y1="95.7" x2="31.78" y2="91.92"/>
		<line class="st4" x1="44.84" y1="83.39" x2="48.67" y2="87.17"/>
		<line class="st4" x1="44.84" y1="87.17" x2="48.67" y2="83.39"/>
		<line class="st4" x1="94.96" y1="66.03" x2="98.79" y2="69.82"/>
		<line class="st4" x1="94.96" y1="69.82" x2="98.79" y2="66.03"/>
		<line class="st4" x1="96" y1="70" x2="99.82" y2="73.78"/>
		<line class="st4" x1="96" y1="73.78" x2="99.82" y2="70"/>
		<line class="st4" x1="92.41" y1="66.63" x2="96.24" y2="70.42"/>
		<line class="st4" x1="92.41" y1="70.42" x2="96.24" y2="66.63"/>
		<line class="st4" x1="95.81" y1="70.78" x2="99.64" y2="74.56"/>
		<line class="st4" x1="95.81" y1="74.56" x2="99.64" y2="70.78"/>
		<line class="st4" x1="88.28" y1="72.76" x2="92.11" y2="76.54"/>
		<line class="st4" x1="88.28" y1="76.54" x2="92.11" y2="72.76"/>
		<line class="st4" x1="93.51" y1="71.5" x2="97.33" y2="75.28"/>
		<line class="st4" x1="93.51" y1="75.28" x2="97.33" y2="71.5"/>
		<line class="st4" x1="86.76" y1="70.06" x2="90.59" y2="73.84"/>
		<line class="st4" x1="86.76" y1="73.84" x2="90.59" y2="70.06"/>
		<line class="st4" x1="95.63" y1="71.2" x2="99.46" y2="74.98"/>
		<line class="st4" x1="95.63" y1="74.98" x2="99.46" y2="71.2"/>
		<line class="st4" x1="93.08" y1="67.47" x2="96.91" y2="71.26"/>
		<line class="st4" x1="93.08" y1="71.26" x2="96.91" y2="67.47"/>
		<line class="st4" x1="92.05" y1="72.88" x2="95.88" y2="76.66"/>
		<line class="st4" x1="92.05" y1="76.66" x2="95.88" y2="72.88"/>
		<line class="st4" x1="96.73" y1="67.17" x2="100.55" y2="70.96"/>
		<line class="st4" x1="96.73" y1="70.96" x2="100.55" y2="67.17"/>
		<line class="st4" x1="95.94" y1="72.76" x2="99.76" y2="76.54"/>
		<line class="st4" x1="95.94" y1="76.54" x2="99.76" y2="72.76"/>
		<line class="st4" x1="88.83" y1="68.32" x2="92.66" y2="72.1"/>
		<line class="st4" x1="88.83" y1="72.1" x2="92.66" y2="68.32"/>
		<line class="st4" x1="94.6" y1="73.84" x2="98.43" y2="77.62"/>
		<line class="st4" x1="94.6" y1="77.62" x2="98.43" y2="73.84"/>
		<line class="st4" x1="93.87" y1="64.65" x2="97.7" y2="68.44"/>
		<line class="st4" x1="93.87" y1="68.44" x2="97.7" y2="64.65"/>
	</g>
	<text transform="matrix(1 0 0 1 48.8475 10.0439)" class="st5 st6">data</text>
</g>
<g>
	<g>
		<path class="st0" d="M172.37,123.11V18.98 M172.37,123.11h100.66"/>
		<path class="st1" d="M273.03,123.11h-3.83 M172.37,123.11h3.83"/>
		<text transform="matrix(1.0116 0 0 1 162.5362 125.8748)" class="st2 st3">0</text>
		<path class="st1" d="M273.03,102.27h-3.83 M172.37,102.27h3.83"/>
		<text transform="matrix(1.0116 0 0 1 162.5362 105.037)" class="st2 st3">2</text>
		<path class="st1" d="M273.03,81.44h-3.83 M172.37,81.44h3.83"/>
		<text transform="matrix(1.0116 0 0 1 162.5362 84.1991)" class="st2 st3">4</text>
		<path class="st1" d="M273.03,60.66h-3.83 M172.37,60.66h3.83"/>
		<text transform="matrix(1.0116 0 0 1 162.5362 63.4207)" class="st2 st3">6</text>
		<path class="st1" d="M273.03,39.82h-3.83 M172.37,39.82h3.83"/>
		<text transform="matrix(1.0116 0 0 1 162.5362 42.5829)" class="st2 st3">8</text>
		<path class="st1" d="M273.03,18.98h-3.83 M172.37,18.98h3.83"/>
		<text transform="matrix(1.0116 0 0 1 157.8077 21.745)" class="st2 st3">10</text>
		<path class="st1" d="M172.37,18.98v3.78 M172.37,123.11v-3.78"/>
		<text transform="matrix(1.0116 0 0 1 170.0035 134.2831)" class="st2 st3">0</text>
		<path class="st1" d="M192.48,18.98v3.78 M192.48,123.11v-3.78"/>
		<text transform="matrix(1.0116 0 0 1 190.1124 134.2831)" class="st2 st3">2</text>
		<path class="st1" d="M212.65,18.98v3.78 M212.65,123.11v-3.78"/>
		<text transform="matrix(1.0116 0 0 1 210.2813 134.2831)" class="st2 st3">4</text>
		<path class="st1" d="M232.76,18.98v3.78 M232.76,123.11v-3.78"/>
		<text transform="matrix(1.0116 0 0 1 230.3897 134.2831)" class="st2 st3">6</text>
		<path class="st1" d="M252.92,18.98v3.78 M252.92,123.11v-3.78"/>
		<text transform="matrix(1.0116 0 0 1 250.5587 134.2831)" class="st2 st3">8</text>
		<path class="st1" d="M273.03,18.98v3.78 M273.03,123.11v-3.78"/>
		<text transform="matrix(1.0116 0 0 1 268.3028 134.2831)" class="st2 st3">10</text>
		<polyline class="st1" points="172.37,123.11 273.03,123.11 273.03,18.98 172.37,18.98 172.37,123.11 		"/>
		<polygon class="st4" points="197.95,89.63 196.03,91.53 197.95,93.42 199.86,91.53 		"/>
		<line class="st4" x1="197.95" y1="91.68" x2="197.95" y2="91.38"/>
		<polygon class="st4" points="222.37,36.31 220.45,38.2 222.37,40.09 224.28,38.2 		"/>
		<line class="st4" x1="222.37" y1="38.35" x2="222.37" y2="38.05"/>
		<polygon class="st4" points="193.81,62.67 191.9,64.56 193.81,66.45 195.73,64.56 		"/>
		<line class="st4" x1="193.81" y1="64.71" x2="193.81" y2="64.41"/>
		<polygon class="st4" points="184.88,58.41 182.97,60.3 184.88,62.19 186.8,60.3 		"/>
		<line class="st4" x1="184.88" y1="60.45" x2="184.88" y2="60.15"/>
		<polygon class="st4" points="204.75,112.87 202.84,114.77 204.75,116.66 206.66,114.77 		"/>
		<line class="st4" x1="204.75" y1="114.92" x2="204.75" y2="114.62"/>
		<polygon class="st4" points="205.3,89.87 203.38,91.76 205.3,93.66 207.21,91.76 		"/>
		<line class="st4" x1="205.3" y1="91.92" x2="205.3" y2="91.62"/>
		<polygon class="st4" points="187.5,64.53 185.58,66.42 187.5,68.32 189.41,66.42 		"/>
		<line class="st4" x1="187.5" y1="66.57" x2="187.5" y2="66.27"/>
		<polygon class="st4" points="191.75,73.48 189.83,75.37 191.75,77.26 193.66,75.37 		"/>
		<line class="st4" x1="191.75" y1="75.52" x2="191.75" y2="75.22"/>
		<polygon class="st4" points="219.09,45.08 217.17,46.97 219.09,48.86 221,46.97 		"/>
		<line class="st4" x1="219.09" y1="47.12" x2="219.09" y2="46.82"/>
		<polygon class="st4" points="218.42,46.1 216.5,47.99 218.42,49.88 220.33,47.99 		"/>
		<line class="st4" x1="218.42" y1="48.14" x2="218.42" y2="47.84"/>
		<polygon class="st4" points="220.97,56.24 219.06,58.14 220.97,60.03 222.88,58.14 		"/>
		<line class="st4" x1="220.97" y1="58.29" x2="220.97" y2="57.99"/>
		<polygon class="st4" points="189.08,49.7 187.16,51.59 189.08,53.48 190.99,51.59 		"/>
		<line class="st4" x1="189.08" y1="51.74" x2="189.08" y2="51.44"/>
		<polygon class="st4" points="185.61,52.04 183.7,53.93 185.61,55.82 187.53,53.93 		"/>
		<line class="st4" x1="185.61" y1="54.08" x2="185.61" y2="53.78"/>
		<polygon class="st4" points="207.06,63.69 205.14,65.58 207.06,67.47 208.97,65.58 		"/>
		<line class="st4" x1="207.06" y1="65.73" x2="207.06" y2="65.43"/>
		<polygon class="st4" points="210.16,53.66 208.24,55.55 210.16,57.45 212.07,55.55 		"/>
		<line class="st4" x1="210.16" y1="55.7" x2="210.16" y2="55.4"/>
		<polygon class="st4" points="200.13,77.02 198.22,78.91 200.13,80.81 202.05,78.91 		"/>
		<line class="st4" x1="200.13" y1="79.06" x2="200.13" y2="78.76"/>
		<polygon class="st4" points="203.59,60.99 201.68,62.88 203.59,64.77 205.51,62.88 		"/>
		<line class="st4" x1="203.59" y1="63.03" x2="203.59" y2="62.73"/>
		<polygon class="st4" points="220.73,113.95 218.81,115.85 220.73,117.74 222.64,115.85 		"/>
		<line class="st4" x1="220.73" y1="116" x2="220.73" y2="115.7"/>
		<polygon class="st4" points="202.38,63.39 200.47,65.28 202.38,67.17 204.29,65.28 		"/>
		<line class="st4" x1="202.38" y1="65.43" x2="202.38" y2="65.13"/>
		<polygon class="st4" points="189.2,100.92 187.28,102.81 189.2,104.71 191.11,102.81 		"/>
		<line class="st4" x1="189.2" y1="102.96" x2="189.2" y2="102.66"/>
		<polygon class="st4" points="198.92,35.53 197,37.42 198.92,39.31 200.83,37.42 		"/>
		<line class="st4" x1="198.92" y1="37.57" x2="198.92" y2="37.27"/>
		<polygon class="st4" points="200.31,48.08 198.4,49.97 200.31,51.86 202.23,49.97 		"/>
		<line class="st4" x1="200.31" y1="50.12" x2="200.31" y2="49.82"/>
		<polygon class="st4" points="193.57,58.23 191.66,60.12 193.57,62.01 195.49,60.12 		"/>
		<line class="st4" x1="193.57" y1="60.27" x2="193.57" y2="59.97"/>
		<polygon class="st4" points="223.16,53.9 221.24,55.79 223.16,57.69 225.07,55.79 		"/>
		<line class="st4" x1="223.16" y1="55.94" x2="223.16" y2="55.64"/>
		<polygon class="st4" points="197.76,46.52 195.85,48.41 197.76,50.3 199.68,48.41 		"/>
		<line class="st4" x1="197.76" y1="48.56" x2="197.76" y2="48.26"/>
		<polygon class="st4" points="187.07,57.45 185.16,59.34 187.07,61.23 188.98,59.34 		"/>
		<line class="st4" x1="187.07" y1="59.49" x2="187.07" y2="59.19"/>
		<polygon class="st4" points="186.52,58.77 184.61,60.66 186.52,62.55 188.44,60.66 		"/>
		<line class="st4" x1="186.52" y1="60.81" x2="186.52" y2="60.51"/>
		<polygon class="st4" points="216.96,90.47 215.05,92.37 216.96,94.26 218.87,92.37 		"/>
		<line class="st4" x1="216.96" y1="92.52" x2="216.96" y2="92.22"/>
		<polygon class="st4" points="203.35,78.64 201.44,80.54 203.35,82.43 205.27,80.54 		"/>
		<line class="st4" x1="203.35" y1="80.69" x2="203.35" y2="80.39"/>
		<polygon class="st4" points="222.85,61.95 220.94,63.84 222.85,65.73 224.77,63.84 		"/>
		<line class="st4" x1="222.85" y1="63.99" x2="222.85" y2="63.69"/>
		<polygon class="st4" points="213.62,73.72 211.71,75.61 213.62,77.5 215.53,75.61 		"/>
		<line class="st4" x1="213.62" y1="75.76" x2="213.62" y2="75.46"/>
		<polygon class="st4" points="217.75,79.54 215.84,81.44 217.75,83.33 219.66,81.44 		"/>
		<line class="st4" x1="217.75" y1="81.59" x2="217.75" y2="81.29"/>
		<polygon class="st4" points="199.34,72.58 197.43,74.47 199.34,76.36 201.26,74.47 		"/>
		<line class="st4" x1="199.34" y1="74.62" x2="199.34" y2="74.32"/>
		<polygon class="st4" points="214.71,36.13 212.8,38.02 214.71,39.91 216.63,38.02 		"/>
		<line class="st4" x1="214.71" y1="38.17" x2="214.71" y2="37.87"/>
		<polygon class="st4" points="201.83,62.31 199.92,64.2 201.83,66.09 203.75,64.2 		"/>
		<line class="st4" x1="201.83" y1="64.35" x2="201.83" y2="64.05"/>
		<polygon class="st4" points="206.81,29.04 204.9,30.93 206.81,32.82 208.73,30.93 		"/>
		<line class="st4" x1="206.81" y1="31.08" x2="206.81" y2="30.78"/>
		<polygon class="st4" points="185.86,87.83 183.94,89.72 185.86,91.61 187.77,89.72 		"/>
		<line class="st4" x1="185.86" y1="89.87" x2="185.86" y2="89.57"/>
		<polygon class="st4" points="199.71,61.23 197.79,63.12 199.71,65.01 201.62,63.12 		"/>
		<line class="st4" x1="199.71" y1="63.27" x2="199.71" y2="62.97"/>
		<polygon class="st4" points="202.5,93.24 200.59,95.13 202.5,97.02 204.42,95.13 		"/>
		<line class="st4" x1="202.5" y1="95.28" x2="202.5" y2="94.98"/>
		<polygon class="st4" points="213.92,65.49 212.01,67.38 213.92,69.28 215.84,67.38 		"/>
		<line class="st4" x1="213.92" y1="67.53" x2="213.92" y2="67.23"/>
		<polygon class="st4" points="207.48,103.99 205.57,105.88 207.48,107.77 209.4,105.88 		"/>
		<line class="st4" x1="207.48" y1="106.03" x2="207.48" y2="105.73"/>
		<polygon class="st4" points="207.12,45.74 205.2,47.63 207.12,49.52 209.03,47.63 		"/>
		<line class="st4" x1="207.12" y1="47.78" x2="207.12" y2="47.48"/>
		<polygon class="st4" points="217.57,89.33 215.65,91.22 217.57,93.12 219.48,91.22 		"/>
		<line class="st4" x1="217.57" y1="91.38" x2="217.57" y2="91.07"/>
		<polygon class="st4" points="211.37,55.7 209.46,57.6 211.37,59.49 213.28,57.6 		"/>
		<line class="st4" x1="211.37" y1="57.75" x2="211.37" y2="57.45"/>
		<polygon class="st4" points="203.66,54.86 201.74,56.76 203.66,58.65 205.57,56.76 		"/>
		<line class="st4" x1="203.66" y1="56.91" x2="203.66" y2="56.61"/>
		<polygon class="st4" points="195.21,32.04 193.3,33.93 195.21,35.83 197.12,33.93 		"/>
		<line class="st4" x1="195.21" y1="34.08" x2="195.21" y2="33.78"/>
		<polygon class="st4" points="207.3,81.77 205.39,83.66 207.3,85.55 209.21,83.66 		"/>
		<line class="st4" x1="207.3" y1="83.81" x2="207.3" y2="83.51"/>
		<polygon class="st4" points="183.91,89.33 182,91.22 183.91,93.12 185.83,91.22 		"/>
		<line class="st4" x1="183.91" y1="91.38" x2="183.91" y2="91.07"/>
		<polygon class="st4" points="202.81,66.99 200.89,68.89 202.81,70.78 204.72,68.89 		"/>
		<line class="st4" x1="202.81" y1="69.04" x2="202.81" y2="68.74"/>
		<polygon class="st4" points="172.98,80.63 171.06,82.52 172.98,84.41 174.89,82.52 		"/>
		<line class="st4" x1="172.98" y1="82.67" x2="172.98" y2="82.37"/>
		<polygon class="st4" points="192.9,72.34 190.99,74.23 192.9,76.12 194.82,74.23 		"/>
		<line class="st4" x1="192.9" y1="74.38" x2="192.9" y2="74.08"/>
		<polygon class="st4" points="187.68,91.92 185.77,93.81 187.68,95.7 189.59,93.81 		"/>
		<line class="st4" x1="187.68" y1="93.96" x2="187.68" y2="93.66"/>
		<polygon class="st4" points="204.57,83.39 202.65,85.28 204.57,87.17 206.48,85.28 		"/>
		<line class="st4" x1="204.57" y1="85.43" x2="204.57" y2="85.13"/>
		<line class="st4" x1="226.32" y1="104.23" x2="226.32" y2="100.44"/>
		<line class="st4" x1="224.4" y1="102.33" x2="228.23" y2="102.33"/>
		<line class="st4" x1="232.69" y1="30" x2="232.69" y2="26.22"/>
		<line class="st4" x1="230.78" y1="28.11" x2="234.61" y2="28.11"/>
		<line class="st4" x1="236.4" y1="100.68" x2="236.4" y2="96.9"/>
		<line class="st4" x1="234.49" y1="98.79" x2="238.31" y2="98.79"/>
		<line class="st4" x1="227.59" y1="25.92" x2="227.59" y2="22.14"/>
		<line class="st4" x1="225.68" y1="24.03" x2="229.5" y2="24.03"/>
		<line class="st4" x1="254.69" y1="69.82" x2="254.69" y2="66.03"/>
		<line class="st4" x1="252.77" y1="67.92" x2="256.6" y2="67.92"/>
		<line class="st4" x1="255.72" y1="73.78" x2="255.72" y2="70"/>
		<line class="st4" x1="253.81" y1="71.89" x2="257.63" y2="71.89"/>
		<line class="st4" x1="252.13" y1="70.42" x2="252.13" y2="66.63"/>
		<line class="st4" x1="250.22" y1="68.52" x2="254.05" y2="68.52"/>
		<line class="st4" x1="255.54" y1="74.56" x2="255.54" y2="70.78"/>
		<line class="st4" x1="253.62" y1="72.67" x2="257.45" y2="72.67"/>
		<line class="st4" x1="248" y1="76.54" x2="248" y2="72.76"/>
		<line class="st4" x1="246.09" y1="74.65" x2="249.92" y2="74.65"/>
		<line class="st4" x1="253.23" y1="75.28" x2="253.23" y2="71.5"/>
		<line class="st4" x1="251.31" y1="73.39" x2="255.14" y2="73.39"/>
		<line class="st4" x1="246.48" y1="73.84" x2="246.48" y2="70.06"/>
		<line class="st4" x1="244.57" y1="71.95" x2="248.4" y2="71.95"/>
		<line class="st4" x1="255.35" y1="74.98" x2="255.35" y2="71.2"/>
		<line class="st4" x1="253.44" y1="73.09" x2="257.27" y2="73.09"/>
		<line class="st4" x1="252.8" y1="71.26" x2="252.8" y2="67.47"/>
		<line class="st4" x1="250.89" y1="69.37" x2="254.72" y2="69.37"/>
		<line class="st4" x1="251.77" y1="76.66" x2="251.77" y2="72.88"/>
		<line class="st4" x1="249.86" y1="74.77" x2="253.68" y2="74.77"/>
		<line class="st4" x1="256.45" y1="70.96" x2="256.45" y2="67.17"/>
		<line class="st4" x1="254.53" y1="69.07" x2="258.36" y2="69.07"/>
		<line class="st4" x1="255.66" y1="76.54" x2="255.66" y2="72.76"/>
		<line class="st4" x1="253.74" y1="74.65" x2="257.57" y2="74.65"/>
		<line class="st4" x1="248.55" y1="72.1" x2="248.55" y2="68.32"/>
		<line class="st4" x1="246.64" y1="70.21" x2="250.46" y2="70.21"/>
		<line class="st4" x1="254.32" y1="77.62" x2="254.32" y2="73.84"/>
		<line class="st4" x1="252.41" y1="75.73" x2="256.24" y2="75.73"/>
		<line class="st4" x1="253.59" y1="68.44" x2="253.59" y2="64.65"/>
		<line class="st4" x1="251.68" y1="66.54" x2="255.51" y2="66.54"/>
		<path class="st4" d="M250.55,69.85l-0.06-0.36l-0.06-0.36l-0.12-0.3l-0.18-0.3l-0.24-0.3l-0.24-0.24l-0.3-0.18l-0.36-0.18
			l-0.37-0.06l-0.3-0.06l-0.36,0.06l-0.36,0.06l-0.3,0.18l-0.3,0.18l-0.3,0.24l-0.24,0.3l-0.18,0.3l-0.12,0.3l-0.06,0.36L246,69.85
			l0.06,0.42l0.06,0.36l0.12,0.3l0.18,0.3l0.24,0.3l0.3,0.24l0.3,0.18l0.3,0.18l0.36,0.06h0.67l0.37-0.06l0.36-0.18l0.3-0.18
			l0.24-0.24l0.24-0.3l0.18-0.3l0.12-0.3l0.06-0.36L250.55,69.85h1.46l-0.06-0.6l-0.12-0.54l-0.24-0.6l-0.3-0.48l-0.36-0.48
			l-0.43-0.36l-0.55-0.36l-0.49-0.24l-0.61-0.12L248.31,66l-0.61,0.06l-0.55,0.12l-0.55,0.24l-0.49,0.36l-0.49,0.36l-0.37,0.48
			l-0.3,0.48l-0.24,0.6l-0.12,0.54l-0.06,0.6l0.06,0.66l0.12,0.54l0.24,0.6l0.3,0.48l0.37,0.48l0.49,0.36l0.49,0.36l0.55,0.18
			l0.55,0.18l0.61,0.06l0.55-0.06l0.61-0.18l0.49-0.18l0.55-0.36l0.43-0.36l0.36-0.48l0.3-0.48l0.24-0.6l0.12-0.54l0.06-0.66
			 M202.68,69.67v-0.36l-0.12-0.36l-0.12-0.3l-0.18-0.36l-0.24-0.24l-0.24-0.24l-0.3-0.18l-0.36-0.18l-0.3-0.06l-0.37-0.06
			l-0.36,0.06l-0.36,0.06l-0.3,0.18l-0.3,0.18l-0.24,0.24l-0.24,0.24l-0.18,0.36l-0.18,0.3l-0.06,0.36v0.72l0.06,0.36l0.18,0.36
			l0.18,0.3l0.24,0.3l0.24,0.24l0.3,0.18l0.3,0.12l0.36,0.12h0.73l0.3-0.12l0.36-0.12l0.3-0.18l0.24-0.24l0.24-0.3l0.18-0.3
			l0.12-0.36l0.12-0.36V69.67h1.46v-0.6l-0.18-0.6l-0.18-0.54l-0.3-0.48l-0.42-0.48l-0.43-0.42l-0.49-0.3L201.59,66l-0.55-0.12
			l-0.61-0.06l-0.61,0.06L199.28,66l-0.55,0.24l-0.49,0.3l-0.43,0.42l-0.43,0.48l-0.3,0.48l-0.18,0.54l-0.18,0.6v1.2l0.18,0.6
			l0.18,0.54l0.3,0.54l0.43,0.48l0.43,0.36l0.49,0.3l0.55,0.24l0.55,0.18h1.21l0.55-0.18l0.55-0.24l0.49-0.3l0.43-0.36l0.42-0.48
			l0.3-0.54l0.18-0.54l0.18-0.6v-0.6"/>
	</g>
	<text transform="matrix(1 0 0 1 176.1963 10.0441)" class="st5 st6">k-means clustering</text>
</g>
</svg>
