<?xml version="1.0" encoding="UTF-8" standalone="no"?>
<!-- Generator: Adobe Illustrator 19.0.0, SVG Export Plug-In . SVG Version: 6.00 Build 0)  -->

<svg
   version="1.1"
   id="Layer_1"
   x="0px"
   y="0px"
   viewBox="0 0 455.95413 456.88416"
   xml:space="preserve"
   sodipodi:docname="ELMO.svg"
   width="455.95413"
   height="456.88416"
   inkscape:version="1.1.2 (b8e25be8, 2022-02-05)"
   xmlns:inkscape="http://www.inkscape.org/namespaces/inkscape"
   xmlns:sodipodi="http://sodipodi.sourceforge.net/DTD/sodipodi-0.dtd"
   xmlns="http://www.w3.org/2000/svg"
   xmlns:svg="http://www.w3.org/2000/svg"><defs
   id="defs49" /><sodipodi:namedview
   id="namedview47"
   pagecolor="#ffffff"
   bordercolor="#666666"
   borderopacity="1.0"
   inkscape:pageshadow="2"
   inkscape:pageopacity="0.0"
   inkscape:pagecheckerboard="0"
   showgrid="false"
   inkscape:zoom="0.64087302"
   inkscape:cx="228.59443"
   inkscape:cy="226.25387"
   inkscape:window-width="1680"
   inkscape:window-height="997"
   inkscape:window-x="0"
   inkscape:window-y="25"
   inkscape:window-maximized="1"
   inkscape:current-layer="Layer_1"
   fit-margin-top="0"
   fit-margin-left="0"
   fit-margin-right="0"
   fit-margin-bottom="0" />
<style
   type="text/css"
   id="style38">
	.st0{fill:#010101;}
	.st1{fill:#ED2224;}
	.st2{fill:#FFFFFF;}
	.st3{fill:#F57E2E;}
</style>
<g
   id="XMLID_1_"
   transform="translate(-24.725,-24.38335)">
	<path
   id="path3675"
   inkscape:connector-curvature="0"
   class="st0"
   d="m 429.5,24.4 c -8.2,0.1 -13.6,2.5 -19.5,8.6 -4,4.2 -8.6,8.7 -10.2,13.4 -1.4,-4.6 -2.8,-2.7 -3.8,5.6 -1.2,9.3 -2.3,12 -6.3,15.3 -6.1,5.1 -10.3,0.8 -12.4,-2.8 -0.4,-0.7 -0.8,-1.2 -1.1,-1.6 0,-0.3 0,-0.8 0,-1.3 -0.6,-5.2 -8.6,-13.7 -14.4,-15.3 -8.7,-2.3 -15.8,-0.7 -22,5.2 -3.7,3.5 -4.9,5.3 -6.1,9.2 -3,9.8 -6.8,25.2 -1.5,29.5 -0.2,0.1 -0.4,0.2 -0.5,0.3 -2.6,2 -1.7,3.5 2.2,3.5 5.5,0 11.2,7.8 14.4,19.7 0.6,2.2 1.6,4.9 2.8,7.6 -1.7,1.5 -4.6,4.5 -6.1,6.1 l -3.8,3.8 -8,-7.6 c -14.7,-13.9 -17.9,-16.5 -28.3,-22.6 -3.6,-2.1 -6.6,-4.2 -6.6,-4.5 0,-0.9 -18.4,-9.5 -26.8,-12.5 -3.8,-1.4 -7.3,-2.8 -7.8,-3.2 -1.2,-0.9 -15.2,-4.5 -24.8,-6.3 -6,-1.1 -12.1,-1.5 -28.2,-1.5 -17.9,0 -21.8,0.2 -30.2,1.9 -10.4,2 -19.6,4.4 -23.7,6.3 -1.4,0.6 -5.3,2.2 -8.6,3.4 -6.4,2.3 -24.5,10.8 -25.2,11.8 -0.6,0.8 -12,8.3 -12.6,8.3 -1.3,0 -11.1,8.3 -21.6,18.3 -10.5,10 -16.2,16.4 -21.6,24.1 -2.8,4 -5.8,8.1 -6.7,9 -2.8,2.8 -18.6,33.9 -21.7,42.5 -3.9,10.8 -6.8,21.4 -9,32.8 -1,5.2 -2.1,10.6 -2.6,11.9 -3.3,10.5 -3.3,60.2 0,67.5 0.4,0.9 1.2,4.4 1.7,7.8 2.9,17.7 9.7,39.1 17,53.3 2.7,5.3 6.4,12.4 8.1,15.9 1.8,3.5 4.4,7.7 6,9.5 1.5,1.7 3,3.8 3.3,4.5 0.3,0.7 3.6,5.2 7.3,10 3.7,4.7 7.1,9.4 7.4,10.4 0.9,2.7 4.7,6.7 6.5,6.7 0.9,0 2.9,1.5 4.5,3.3 2.5,2.9 2.9,3.8 2.5,6.4 -0.9,6.8 7.6,18.6 15.4,21.5 3.7,1.4 8.1,1 11.7,-0.9 l 3.2,-1.7 8,3.9 c 4.4,2.1 8.2,4.2 8.5,4.6 0.8,1.3 17.7,7.2 27.8,9.7 8.5,2.1 21.5,4.4 30.8,5.3 7.9,0.8 32,-0.3 41.5,-1.9 8.6,-1.4 19.9,-4 23.9,-5.3 9.9,-3.3 18.6,-6.7 19.7,-7.5 0.7,-0.6 4.2,-2.5 7.7,-4.2 6.7,-3.3 19.1,-10.6 21.4,-12.7 0.7,-0.7 4.3,-3.5 8,-6.2 3.7,-2.7 9.4,-7.7 12.8,-11.1 3.3,-3.4 7.8,-7.9 9.9,-10 8.5,-8.4 22.5,-28.2 28.1,-39.8 2,-4.1 4.1,-7.9 4.8,-8.6 2.5,-2.7 9.3,-21.1 14.2,-38.7 6.3,-22.2 8.1,-38 7.4,-64.5 -0.4,-18.2 -2.1,-33 -4.4,-40 -0.7,-2 -2.4,-8.2 -3.8,-13.7 -1.4,-5.5 -3.8,-13.2 -5.3,-17.2 -2.6,-7 -2.6,-7.4 -1.3,-10 1.9,-3.9 0.3,-8.5 -2.4,-9.7 0.3,-0.3 0.7,-0.6 1,-1 5.1,-5.1 11.4,-11.6 13.7,-14.8 0.3,0.1 0.6,0.2 0.8,0.3 9.2,3.1 17,2.2 22,-2.7 0.3,-0.2 0.5,-0.5 0.7,-0.7 1.8,1.1 7.2,0.9 12.7,3.6 4,2 8.5,3.9 10.1,4.2 v 0 c 4.4,1 6.5,0.9 9.6,-0.3 1,-0.4 2.1,-1.1 3.1,-2 2.7,1.7 10.1,1.5 13.1,-1 5.4,-4.6 8.5,-17.2 6.3,-25.3 -1.5,-5.4 -6.1,-12.8 -9.1,-14.5 -1.3,-0.7 -6.2,-2 -11,-3 -4.5,-0.9 -8.7,-4.8 -10.7,-5.9 1.9,-0.2 4.4,-0.7 7.4,-1.6 3.1,-0.9 5.7,-2 5.7,-2.4 0,-0.4 1.2,-1.1 2.6,-1.6 3.1,-1 5.8,-2.8 7.7,-5 0.2,0.2 0.4,0.3 0.7,0.4 1.5,0.5 8.7,-1.2 10.7,-2.8 5.4,-4.5 6.1,-20.5 1.1,-28.3 -2.6,-4.1 -8.6,-8.7 -12.2,-9.3 -3.5,-0.6 -10.8,-0.2 -16.4,0.6 1.2,-0.7 1.1,-1.2 0.4,-2.2 -0.8,-1.2 -1,-2.2 -0.4,-3.2 0.5,-0.8 0.9,-5.6 1,-10.6 0.1,-9 0.1,-9.3 -2.9,-15.5 -2.6,-5.3 -3.7,-6.6 -7.3,-8.6 -3.4,-2.1 -4.8,-2.4 -10,-2.3 z M 210.1,90 c 2.4,0 4.6,0 6.8,0.1 14.9,0.6 34.1,4 38,6.7 1,0.6 2.3,1.2 3.1,1.2 2,0 21.7,7.8 26.4,10.4 2.2,1.2 8.1,5 13.2,8.5 5.1,3.4 10,6.6 10.8,7.1 0.8,0.5 4.8,3.9 8.7,7.5 3.9,3.7 8.4,7.7 9.9,8.8 4.2,3.3 4.2,4.7 0.3,11.7 -1.6,2.8 -3.3,7.3 -4.7,11.6 -2.2,-1.7 -9.9,5.3 -13.4,15.1 -1.8,5.1 -2.5,13.4 -1.7,17.7 -0.7,0.5 -1.5,1.4 -2.6,2.6 -3.1,3.3 -7.4,10.4 -9.9,16.5 -1,-6 -5.4,-12.9 -8.3,-17.1 l -2.2,-3.2 1.7,-1.6 c 3.6,-3.4 0.4,-14 -6.7,-20.4 -2.8,-2.5 -8,-4.4 -12.4,-4.8 1.3,-0.8 2.4,-1.9 3.4,-3.3 1.9,-2.8 1.1,-3.2 -2.5,-1.5 -2.2,1 -4,1.2 -6.7,0.8 -3.5,-0.5 -5.1,-1.2 -10.3,-4.8 -5.8,-4 -19.5,-6.1 -27.7,-4.4 l -2.7,0.6 0.8,-4 c 1.7,-8.5 -1.3,-21.7 -6.7,-29.2 -1.3,-1.9 -4.6,-4.7 -7.2,-6.4 -2.6,-1.6 -5.2,-3.4 -5.7,-3.9 -3.6,-3.2 -16.4,-3.3 -23.2,-0.2 -4.7,2.2 -13,9.5 -14.8,13.1 -3,5.8 -5.8,12.2 -5.8,13 0,0.5 -1.3,0 -2.8,-1.1 -13.5,-9.8 -32.8,-7.6 -41.7,4.7 -1.4,1.9 -2.9,3.9 -3.4,4.5 -4,4.6 -6.4,16.5 -5,25.2 1.3,8.1 2.8,11.7 7,16.5 5.4,6.1 5.4,5.8 0.4,8.6 -6.5,3.6 -11.3,8.7 -14.4,15.4 -1.5,3.2 -3.4,7.3 -4.3,9.1 -0.9,1.9 -1.6,3.8 -1.6,4.3 0,2.1 -3.6,7.4 -6.6,9.9 -5.4,3.3 -7.6,2.9 2.4,11.6 0.7,0.6 2.5,1 2.5,1 l -1.4,3 c -3.3,7.2 -4.7,20.2 -2.9,27.6 0.9,3.8 4,7.3 6.4,6.9 1.5,-0.2 1.8,0.5 2.8,5.9 1.8,10.5 8.6,22 16.5,27.6 1.9,1.4 3.5,2.7 3.5,3 0,0.3 1.5,1.5 3.2,2.7 2.6,1.7 8,3.1 10.2,3 0.4,0.6 0.9,1.2 1.4,1.9 5.6,8 12.6,12.9 22,15.3 3,0.8 3.9,0.7 5.8,-0.4 1.2,-0.8 2.4,-2.1 2.6,-2.9 0.5,-2 1.3,-2 3.1,0 0.8,0.8 3.5,2.5 6.1,3.8 2.6,1.3 4.7,2.4 4.7,2.5 0,1 -6.5,11.9 -9.9,16.5 -4.7,6.4 -14.3,15.9 -20,19.9 -5,3.4 -15.3,8.4 -17.4,8.4 -0.9,0 -3.1,-1.3 -4.8,-2.8 -2.7,-2.3 -4.8,-3.4 -11.6,-5.5 1.9,-2.8 3,-12.7 1.4,-16.7 -0.8,-2 -8.7,-10.2 -12.9,-13.3 -4.5,-3.4 -13.7,-4.8 -18.1,-2.9 -2.5,1.1 -6.9,6.6 -6,7.5 0,0 0.1,0.1 0.1,0.1 -3.2,1.1 -5.6,3.4 -7.4,7.4 -1.5,3.3 -2.1,7.2 -3.1,5.9 -0.6,-0.8 -1.4,-2.5 -1.7,-3.7 -0.3,-1.2 -1.1,-2.7 -1.7,-3.3 -0.6,-0.6 -1.6,-1.9 -2.1,-2.9 -2.2,-4 -7.8,-20.4 -10.4,-30.7 -1.6,-6.1 -3.4,-13 -4.1,-15.2 -2.1,-6.9 -3.7,-23.9 -3.7,-39.5 0,-14.4 1.8,-35.2 3.4,-38.1 0.4,-0.8 1.4,-4.5 2.2,-8.4 2.9,-13.6 11.6,-38.8 14.5,-42 0.6,-0.7 2.6,-4.2 4.4,-7.8 3.6,-7.3 9.5,-16.7 11.7,-18.4 0.8,-0.6 1.4,-1.5 1.4,-2 0,-1.6 13.4,-17.4 20,-23.5 3.7,-3.5 7.6,-7.1 8.6,-8.1 3,-3 17,-12.8 19.9,-14 1.5,-0.6 2.8,-1.4 2.8,-1.8 0,-1.7 26.7,-14.1 30.5,-14.1 0.8,0 3.4,-0.9 5.8,-2 8.1,-3.8 27.4,-6.6 43.8,-6.8 z m 157.3,115.8 c 0.4,0 2,4.5 3.5,10.1 1.6,5.5 3.6,12.3 4.4,15 0.9,2.7 2.2,8.6 2.9,13.2 1.9,11.3 2.6,43.8 1.3,55.8 -1.2,10.7 -3.2,21.7 -4.3,24.1 -0.4,0.9 -1.8,5.2 -2.9,9.5 -4.1,15.1 -11.3,33.6 -14.6,37.8 -1.4,1.8 -9,14.7 -9,15.2 0,1 -5.6,8.3 -8.4,11 -1.6,1.5 -3.1,3.5 -3.5,4.4 -0.9,2.3 -9.8,12.1 -10.7,11.9 -0.4,-0.1 -0.9,-1.5 -1.1,-3 -0.8,-7 -2.7,-13.2 -7.6,-24.4 -0.3,-0.6 0.2,-1 1.4,-1 2.3,0 7.1,-5.4 7.1,-6.5 0,-0.1 0,-0.2 0,-0.2 1.5,-0.8 1.3,-1.1 -2.2,-4.1 -4.6,-3.9 -11.7,-14.2 -13.1,-20.5 -1.5,-6.9 -3.2,-13.8 -4.3,-17 1,-3 1.9,-5.2 2.3,-5.6 0.5,-0.6 1.9,-3.7 3,-6.8 4,-10.9 16.3,-39.4 19.7,-44.3 1,-1.4 3,-4.7 4.5,-7.4 3.8,-6.7 2.5,-9.6 -1.5,-6.6 2.9,-4.6 5.1,-8.3 5.1,-8.6 0,-0.7 8.4,-11.5 11.7,-15.2 1.5,-1.6 3.9,-3.6 5.5,-4.4 2.4,-1.2 2.6,-1.4 1.4,-1.7 0.7,-1.8 -1.4,-7.3 -4.7,-8.9 -3.7,-1.7 -3.1,-3.1 4.3,-10.9 3.4,-3.5 6.8,-7.4 7.6,-8.7 0.8,-1.2 1.8,-2.2 2.2,-2.2 z" />
	<path
   id="path3673"
   inkscape:connector-curvature="0"
   class="st1"
   d="m 427.9,30.6 c -2.3,0.1 -3.9,0.6 -7,2.1 -7.1,3.4 -17.3,11.1 -18.6,15.9 -0.5,1.8 -1,3.1 -1.5,3.7 0.3,6 -1.3,12.8 -4.3,17.5 -3.2,5 -12.2,8.2 -16.6,5.9 -2.7,-1.4 -5.3,-8 -5.3,-11 0,-0.6 0,-1 0.1,-1.4 -0.7,-0.5 -1.8,-1.5 -3,-3.1 -4.2,-5.3 -9,-7.5 -16.5,-7.5 -4.4,0 -6.8,0.4 -8.6,1.5 -4.4,2.6 -7.1,5.8 -8,9.6 -2.1,7.9 -8.9,18.1 -3.9,22.6 1.1,1 1.9,1.9 2.1,2.6 2.7,0 5.6,0.9 7.4,2.5 3.4,3 6.8,11 8.9,20.9 1.9,8.9 3.7,14.3 5.1,15.1 0.4,0.2 1,1.3 1.3,2.3 0.7,2.3 -1.2,2.5 -3.2,0.4 -1.2,-1.3 -3,-4.4 -4.5,-7.7 -1.8,4.1 -6.9,12.8 -9.2,15.4 -2.3,2.6 -12.5,21.7 -12.6,23.5 0,0.6 -1,2.8 -2.1,4.8 -1.1,2 -2.7,4.9 -3.4,6.4 -1.4,2.7 -3.8,3.6 -3.8,1.4 0,-1.5 0.5,-3.9 1.2,-6.7 -2.5,3.5 -7.9,11.9 -8.9,21.3 -0.7,6.9 -1.8,11.3 -2.9,11.3 -0.2,0 -0.8,-0.6 -1.4,-1.4 -0.1,-0.1 -0.2,-0.2 -0.2,-0.4 -0.2,0.4 -0.4,0.7 -0.6,1.1 -4,7.2 -10.5,22 -10.6,28.5 -0.1,3.4 -0.5,6.2 -0.9,6.4 -0.5,0.1 -1.7,-0.7 -2.8,-1.8 -0.9,-1 -2.5,-2 -3.8,-2.4 0.2,0.2 0.3,0.4 0.5,0.6 2.2,2.8 1.2,16.2 -0.2,22.7 -0.6,2.5 -3.4,11.3 -6.3,19.4 -4.3,12.1 -5.3,16 -5.6,21.6 -0.3,5.5 -0.6,6.6 -1.5,5.9 -0.6,-0.5 -1.4,-2.1 -1.7,-3.5 l -0.6,-2.6 -0.9,2.1 c -2,4.7 -5.2,10.4 -6.8,12.1 -2.1,2.2 -4,2.4 -4,0.4 0,-0.8 1.4,-3.7 3,-6.4 4.9,-8.1 9,-16.6 9,-18.9 0,-1.2 0.6,-3.5 1.3,-5.1 2.1,-4.9 7,-19.3 8.4,-25 1.8,-7.1 3.8,-16.9 3.1,-21.7 -0.2,-1.2 -0.3,-2.1 -0.2,-2.7 -0.9,-0.7 0.3,-1.6 2.9,-1.4 l 3,0.2 0.1,-3.5 c -2.4,4.1 -1.9,0.4 -2,-2.5 0,-4 -4.1,-14.5 -5.9,-18.1 -2.3,-4.7 -7.7,-11.3 -11.3,-13.9 -2.5,-1.8 -2.8,-2.3 -1.4,-2.3 0.9,0 3.6,0.9 5.9,2 2.4,1.1 4.5,1.7 4.9,1.3 1.4,-1.3 -4.7,-11.7 -9.2,-14.1 -2.4,-1.3 -5.8,-3.2 -7.4,-4.2 -1.6,-1.1 -3.7,-1.9 -4.5,-1.9 -1.2,0 -1.6,-0.5 -1.4,-1 -5.4,-0.3 -13,-3 -24.2,-8.5 -4.1,-2 -6,-2.4 -10.8,-2.4 h -5.8 l -2.7,5.3 c -1.5,2.9 -4,6.3 -5.7,7.6 -1.6,1.3 -4.2,3.3 -5.6,4.4 l -2.6,2.1 2.9,4.5 c 1.6,2.5 3.3,4.9 3.8,5.5 1.8,1.9 4.1,13.6 4,20.8 -0.1,7.6 -2.2,15.6 -5,18.9 -7.3,8.7 -12.9,13 -19.7,15.2 -5.2,1.7 -11.9,2.1 -16.8,0.9 -2.2,-0.5 -4.9,-1.6 -6,-2.4 -7.8,-5.4 -10,-7.3 -12.7,-11.3 -4.5,-6.5 -6.9,-13.9 -7.5,-22.5 l -0.5,-7.3 -5.3,0.5 c -6,0.6 -11.6,-0.4 -17.9,-3.4 l -4.2,-2 -2.7,2 c -7.9,6 -11.9,12.2 -17.2,27.3 -1.3,3.6 -2.7,7.1 -3.3,7.7 -2.4,3 -6,4.9 -9.4,4.9 -7,0.6 -3.6,0.6 0.9,5.3 1.3,1.5 7.3,1.6 10,-1.6 2.4,-2.9 4.9,-3.8 4.9,-1.8 0,0.6 -0.8,2 -1.7,3.1 -0.9,1.1 -3,4.8 -4.6,8.1 -5.3,10.8 -6.3,30.4 -1.6,30.4 1.1,0 1.8,-1.3 2.6,-5 1.8,-7.7 3,-5.8 3.2,4.9 0.2,15.2 3.7,23 15.8,35.3 3,3.1 7.9,6.3 11.1,8.4 -1.5,-2.1 -4.4,-7.6 -4.2,-7.9 0.1,-0.1 3.6,3.1 7.8,7.1 5.2,5 9.2,8.2 12.8,9.9 2.9,1.4 6.2,3.1 7.4,3.7 1.2,0.6 3.2,1.1 4.5,1.2 3,0 3.1,-1.8 0.1,-5.5 -2.8,-3.6 -2.1,-4.3 1.6,-1.5 1.6,1.2 3.2,2.2 3.6,2.2 0.4,0 2.1,1.1 3.9,2.5 1.8,1.4 5,3.3 7.2,4.2 4.8,2.1 17.6,4.8 22.7,4.9 2.1,0 4.6,0.4 5.5,0.7 1.6,0.6 1.6,0.7 -0.4,1.8 -1.4,0.8 -5.2,1.2 -11.5,1.2 l -9.4,0.1 -7.3,12.9 c -4.7,8.3 -9,14.7 -12,17.9 -2.6,2.7 -4.8,5.3 -5,5.7 -0.6,1.5 -8.5,6.5 -13,8.2 -2.6,1 -6.6,1.9 -8.9,2 l -4.3,0.2 0.3,4.3 c 0.2,3.5 0,4.2 -1.1,4.2 -0.8,0 -1.4,-0.7 -1.4,-1.7 0,-2.7 -3.2,-7.6 -6.3,-9.5 -1.5,-1 -5,-2.2 -7.9,-2.8 -6.6,-1.3 -9.7,-2.8 -10.7,-5.4 -1.1,-2.9 -1,-4.1 0.5,-5.6 1.9,-1.8 3.1,-1.6 2.8,0.5 -0.2,1.5 0.4,2 3.6,3 0.5,0.1 0.8,0.3 1.3,0.4 -0.2,-1.4 -0.3,-3.9 -0.2,-6.4 0.1,-4.2 -0.4,-6 -2.1,-8.9 -4.3,-7.1 -12.9,-11 -22.4,-10.5 0,0.3 0,0.6 -0.1,1.1 -0.6,2.8 -0.8,0.8 -1.7,0.8 -3.7,0 -8,6.5 -10.4,10.7 -2,3.5 -2.4,5.1 -2.4,10 0,7.3 2.3,11.3 7.7,13.6 2,0.8 3.8,2 4,2.5 0.2,0.6 1.8,-0.5 4,-2.8 2.4,-2.5 4.7,-4 6.8,-4.5 1.8,-0.4 3.2,-1.2 3.3,-1.9 0.2,-3.5 0.4,-4.1 1.1,-4.1 1.1,0 4.5,7.6 3.7,8.2 -0.4,0.3 -2,1 -3.6,1.6 -5.5,2 -8.6,4.9 -11.7,11 -3.2,6.5 -3.8,11.8 -1.7,16.4 1.7,3.7 7,8.8 9.2,8.8 1,0 3.8,-1.8 6.3,-4.1 4.2,-3.8 8.3,-5.8 9.5,-4.7 0.3,0.3 -1.1,2 -3,3.8 -9.4,8.8 -9.7,18.5 -1,27.3 2.8,2.8 3.6,3.2 7.2,3.2 5.8,0 9.1,-2.3 13.1,-9.1 1.9,-3.1 3.7,-6.4 4,-7.4 0.8,-2.4 2.5,-1.6 2.8,1.3 0.1,1.3 1,2.9 1.9,3.4 1.4,0.9 1.7,0.7 2.2,-1.1 0.3,-1.2 0.4,-4.9 0.2,-8.2 -0.5,-7.8 -4.4,-15.6 -9.6,-19.4 -3.1,-2.2 -3.9,-2.5 -8,-2.1 -2.6,0.2 -7.1,1.6 -10.7,3.3 -3.4,1.6 -6.5,2.6 -6.9,2.2 -1.7,-1.6 4.1,-8.5 8.7,-10.4 7,-2.8 17.9,-0.5 23.7,5 6.1,5.8 8.7,18.3 6,28.3 -0.7,2.5 -1.1,4.6 -1,4.6 0.8,0.6 5.8,2.8 6.4,2.8 0.4,0 0.8,-2 0.9,-4.5 0.3,-9 6.4,-25.4 11.3,-30.5 1.6,-1.7 1.6,-1.7 -1.4,-2.7 -1.6,-0.6 -3,-1.6 -3,-2.2 0,-1.4 1.4,-1.6 2.1,-0.4 1.2,1.8 6.9,0.9 10.6,-1.7 3.6,-2.6 6.3,-2.6 3.1,-0.1 -2.5,2 -9.8,10.5 -9.8,11.4 0,0.4 -0.7,2.3 -1.7,4.1 -0.9,1.8 -2.8,7 -4.2,11.5 -1.4,4.5 -3.3,10.1 -4.3,12.5 l -1.7,4.4 5.3,2.3 c 6.9,3 21.1,6.9 31.4,8.7 26.5,4.6 59.3,1.8 83,-7.2 9.8,-3.7 37.6,-18.8 37.6,-20.4 0,-0.4 2,-2 4.5,-3.6 2.5,-1.6 6.5,-4.7 9,-6.9 l 4.5,-3.9 -2.7,-10.7 c -1.5,-5.9 -4.2,-15.5 -6.1,-21.3 -2.4,-7.2 -3.2,-10.9 -2.6,-11.4 0.6,-0.6 1.5,0.1 2.7,2.1 1.9,3.1 4.9,2.1 8.3,1.1 -0.8,-0.2 -1.5,-0.6 -2.3,-1.1 -3.4,-2.3 -5.3,-5 -8.7,-12.4 -3.4,-7.4 -3.9,-16.7 -4.1,-18.6 -0.4,-3 -0.6,-5.3 -0.8,-7.1 -0.3,0.9 -0.6,1.7 -0.9,2.6 -3.1,9.7 -4.5,12.1 -5.5,9.4 -1.6,-4.1 5.9,-33 9.8,-37.8 1,-1.2 2.9,-4.5 4.2,-7.5 2.2,-4.8 8.4,-19.2 13.5,-29.1 -3.5,4.3 -6.4,6.8 -7,5.8 -0.2,-0.4 0.4,-2.6 1.5,-4.8 1.1,-2.2 2.2,-5 2.5,-6.2 0.3,-1.2 1.1,-2.7 1.8,-3.4 0.7,-0.6 2.8,-4.2 4.7,-7.9 4.4,-8.5 8.6,-14.1 12.7,-17 1.8,-1.3 3.7,-2.9 4.3,-3.7 1.3,-1.7 7.3,-4 10.1,-3.9 -0.4,-1 -0.6,-2.7 -1.1,-3.3 -0.7,-0.9 -2.6,-1.7 -5,-1.9 -7.1,-0.8 -7.1,-2.2 -0.3,-13 2.4,-3.8 4.9,-7.8 5.5,-8.9 0.6,-1 1.6,-2.3 2.3,-2.9 0.7,-0.5 4.5,-4.3 8.4,-8.4 3.9,-4.1 8.3,-8.1 9.6,-8.9 2.2,-1.3 0.8,-4.2 0.4,-6.7 0,-0.1 0,-0.1 0,-0.2 -3.5,3.2 -4.9,3.8 -4.9,2 0,-1.2 0.7,-2.3 3.3,-5.4 1,-1.2 2.8,-3.4 4,-4.8 1.9,-2.3 9.3,-8.1 13.3,-10.7 -6.4,-2.8 -12.6,-7.7 -9.2,-7.7 0.6,0 4.1,0.6 7.8,1.2 8.5,1.6 17.9,1.6 23.3,0 3.5,-1 5.4,-0.9 5.6,0.2 3.6,-0.4 11.4,-0.7 15.5,2.6 3,2.4 5.1,3.4 8.3,3.8 5,0.7 9.9,-0.6 11.2,-2.9 1.1,-2 2.5,-2 2.5,0 0,0.9 -0.6,2 -1.5,3.2 13.8,-7.5 14.3,-21.9 6.1,-29.8 -1.2,-1.1 -4.1,-2.7 -6.6,-3.5 -5.6,-1.8 -16.4,-10.6 -17.8,-12.2 -1.1,-1.3 -0.8,-2.1 0.4,-2.2 -0.8,-1.4 0,-4.1 1.7,-5.2 1.1,-0.7 4,-1.9 6.6,-2.6 15.5,-4.2 20.5,-6.8 20.5,-10.7 0,-1.1 0.4,-2 0.9,-2 1,0 1,2.5 0.3,5.1 2.7,-3.4 7.4,-8.8 7.4,-11.3 0,-2.1 -4.1,-11.8 -6.1,-14.5 -2.7,-3.6 -13.9,-5.2 -21.1,-4.9 -3.1,0.1 -5.4,0 -6.2,-0.3 -7.1,2.8 -12.9,7.1 -15.1,11.3 -2.9,5.4 -5,6.1 -4.2,1.3 0.9,-5.7 11.4,-17.2 15.6,-17.2 0.6,0 1.2,-0.4 1.2,-0.8 0,-0.5 0.7,-0.8 1.6,-0.8 1.8,0 4.4,-5.1 4.4,-8.5 0,-3.2 -2.6,-10.5 -3.9,-11 -0.7,-0.3 -1.2,-1 -1.2,-1.6 0,-1.3 2.2,-1.5 3,-0.3 0.3,0.5 0.9,0.8 1.3,0.8 1.5,0 -2.2,-5.5 -5.9,-8.6 -3.1,-2.6 -4.5,-3.2 -8.3,-3.5 -1,0.9 -1.8,0.9 -2.5,0.9 z M 384.1,98 c 2.1,0 11.6,6.8 11.6,8.3 0,1 -0.6,1 -1.3,0 -0.5,-0.8 -7.4,-4.1 -10.9,-5.2 -2.2,-0.9 -1.8,-3.1 0.6,-3.1 z m 6.1,9.9 c 2.2,-0.1 5.1,0.4 7.7,1.6 2,0.9 4.7,3.2 6.3,5.3 3,4 2.6,4.9 -0.6,1.7 -3,-3 -8.8,-5.4 -13.3,-5.4 -2.9,0 -4,-0.3 -4,-1.2 0,-1.2 1.6,-2 3.9,-2 z m -135.9,97.6 c 6,-0.2 10.7,4.9 11.3,12.7 0.2,3.3 0.1,4.9 -0.6,4.9 -0.5,0 -1,-0.8 -1,-1.9 0,-2.2 -2.5,-6.7 -2.5,-4.6 0,0.7 -2.3,3.5 -5.1,6 l -5,4.7 -0.6,7.9 c -2,27.8 -4,37.5 -10.6,50.2 -4.6,8.9 -7.7,12.7 -16,19.8 -7.8,6.6 -25.5,10 -36.8,7 -10.1,-2.7 -22.7,-10.4 -32.5,-19.9 -5.5,-5.4 -17.7,-18.1 -18.4,-19.2 -0.5,-0.8 -1.8,-0.9 -4.8,-0.4 -5,0.8 -5.8,0.7 -9.9,-1.2 -3.2,-1.5 -3.2,-1.5 -3.2,0.2 0,0.9 0.6,2.4 1.4,3.2 1.2,1.3 1.2,1.5 0.1,1.5 -2,0 -3.9,-2.5 -4.6,-6 -1.1,-5.8 1.1,-11.3 4.5,-11.3 1.1,0 1.2,0.6 0.8,3.3 -0.5,2.9 -0.3,3.4 1.6,4.6 1.2,0.7 3.7,1.5 5.6,1.8 4,0.5 15.3,-1.1 19.7,-2.8 2.9,-1.1 2.9,-1.1 1.1,0.3 -1,0.8 -2.5,1.9 -3.4,2.5 -1.3,0.9 -0.8,1 3.3,0.6 6.6,-0.6 12,-2.3 16.1,-4.9 1.8,-1.2 3.3,-1.8 3.3,-1.3 0,0.4 -0.4,1 -0.9,1.3 -1.4,0.8 -1,2.1 0.7,2.1 1.7,0 10.5,-5.9 13.4,-9 4.8,-5.3 11.8,-8.2 23.1,-9.9 7.8,-1.1 13.3,-2.5 13.3,-3.4 0,-0.4 -0.4,-0.7 -0.9,-0.7 -0.5,0 -0.7,-0.4 -0.4,-0.8 0.3,-0.5 1.3,-0.8 2.2,-0.8 0.9,0 1.7,-0.3 1.7,-0.7 0,-0.4 1.4,-1 3.2,-1.3 6.7,-1.2 14.8,-5.7 14.8,-8.4 0,-0.6 -1.1,-1.2 -2.4,-1.3 -1.9,-0.2 -1.1,-0.6 3.7,-2.1 3.3,-1 7.2,-2.8 8.6,-4 6.3,-5.4 8.1,-7.3 8.1,-8.6 0,-0.8 0.2,-2 0.5,-2.7 0.4,-0.9 -0.4,-1.6 -2.6,-2.5 -3.6,-1.4 -4.3,-4.3 -1.1,-4.8 0.4,-0.1 0.8,-0.1 1.2,-0.1 z m -3.6,115.4 c 0.7,-0.2 0.4,1.9 -1.1,5.9 -2.6,6.8 -5.8,11.5 -9.9,14.6 -3.8,2.8 -6.7,3.3 -7.9,1.3 -0.7,-1.2 -0.9,-1.2 -2,-0.1 -2.8,2.7 -10.3,5.6 -15.7,6.1 -4,0.4 -5.5,0.2 -5.5,-0.5 0,-0.5 1.3,-1.4 2.8,-1.9 4.2,-1.4 15.5,-7.1 16.5,-8.3 2.9,-3.7 9.1,-9.7 9.5,-9.3 0.3,0.3 0,1.6 -0.6,3 -0.6,1.4 -0.9,2.7 -0.6,3 0.9,0.8 9.6,-7 12.2,-10.9 1,-1.9 1.8,-2.8 2.3,-2.9 z m -64.9,34.9 c 0.1,0 0.1,0 0.1,0 0.2,0.2 -1.2,3 -3,6.4 -1.8,3.3 -3.8,7.6 -4.4,9.4 -0.6,1.8 -1.4,3.5 -1.7,3.7 -0.3,0.2 -1.6,3.1 -2.8,6.3 -5.9,15.9 -12.1,22.8 -19.4,21.8 -4.5,-0.6 -5.2,-4.6 -1,-5.5 3.9,-0.9 8.9,-4.8 10.9,-8.6 1.1,-2 3.7,-8 5.8,-13.2 3.9,-9.6 7.6,-15 12.6,-18.6 1.4,-1 2.6,-1.6 2.9,-1.7 z m 102.3,19.8 c 0.2,0 0.8,0.6 1.8,1.9 5.9,7.8 9.2,11.4 11.2,12.4 2.8,1.5 2.9,2.5 0.2,2.5 -1.3,0 -2.9,-1 -4.5,-2.9 -4.8,-5.6 -6.3,-7.8 -7.6,-10.6 -0.9,-2.1 -1.3,-3.2 -1.1,-3.3 z m 3.9,16.3 c 0.5,0 1.2,0.4 1.9,1.1 1,0.8 3.8,1.7 6.6,2 4.6,0.5 4.7,0.6 2.4,1.3 -1.4,0.4 -3.3,0.6 -4.1,0.6 -0.9,-0.1 -1.4,0.2 -1.3,0.5 4.5,8.1 7.7,23.2 4.9,23.2 -0.5,0 -0.9,-0.9 -0.9,-2 0,-5.2 -7.8,-26 -9.7,-26 -0.5,0 -0.6,-0.3 -0.3,-0.6 0,0 0.1,-0.1 0.2,-0.1 0.2,0 0.3,0 0.3,0 z" />
	<g
   id="g3680"
   transform="translate(-85.650557,256.95167)">
		<path
   id="path3665"
   inkscape:connector-curvature="0"
   class="st2"
   d="m 277.1,-142.4 c -0.9,0 -1.9,0 -2.9,0.1 -11.9,0.7 -19.1,5.8 -24,16.9 -1.2,2.9 -2.5,7.6 -2.8,10.5 -0.3,2.9 -0.8,5.3 -1,5.3 -0.3,0 -2.1,-1.8 -4.1,-4.1 -8.7,-9.8 -23.7,-11.6 -34.6,-4.3 -3.1,2.1 -5.6,4.8 -8.1,8.7 -5.4,8.6 -5.6,9.2 -5.7,18.1 -0.1,7.8 0.1,8.5 2.9,13.9 1.6,3.1 5.1,7.9 7.7,10.6 4.3,4.4 5.3,5 10.5,6.3 4.2,1 7.2,1.2 10.9,0.8 2.9,-0.3 5.3,-0.7 5.5,-0.9 0.2,-0.2 0.9,-2.7 1.7,-5.6 1.8,-6.9 5.5,-14.6 8.9,-18.2 1.5,-1.6 5,-4.1 7.9,-5.6 5,-2.6 5.6,-2.7 12.6,-2.3 8.1,0.4 14.6,2.7 20.9,7.5 3.9,2.9 4.8,2.6 11.9,-3.9 13.4,-12.4 11.9,-37.9 -2.9,-48.6 -5.9,-4.1 -9,-5.3 -15.3,-5.2 z m -3.7,21.3 c 3.2,0 7.7,2.4 9.4,5.1 4.2,6.6 2.7,14.5 -3.5,18.8 -4.4,3.1 -8.1,3.1 -11.5,0.1 -6.7,-5.9 -8.1,-12.2 -4.2,-18.2 2.1,-3.1 6.6,-5.8 9.8,-5.8 z m -48.3,18.5 c 0.4,0 0.9,0 1.4,0 4.1,0 5.4,0.3 7.2,2 3.1,2.8 5.1,9.7 4,13.7 -2.3,7.9 -8.8,11.9 -15.2,9.4 -7.5,-2.9 -9.5,-17.4 -3.2,-23.1 1.6,-1.5 2.8,-1.9 5.8,-2 z" />
		<path
   id="path3659"
   inkscape:connector-curvature="0"
   class="st3"
   d="m 261.2,-88.9 c 0.6,0 1.2,0 1.8,0.1 4.9,0.4 6.8,1.1 14.5,5 5.6,2.8 13.2,13.3 15.4,21.1 0.8,2.9 1.8,5.7 2.2,6.1 0.9,1 1,14.7 0,15.7 -0.4,0.4 -1.6,3.2 -2.8,6.1 -3,8 -9.3,13.8 -17.9,16.3 -11.5,3.3 -17.3,2.3 -27.2,-5 -3.6,-2.6 -5.1,-4.5 -7.5,-9.3 -6.7,-13.5 -6.7,-28.9 0.1,-41.8 4.9,-9.4 12.4,-14.4 21.4,-14.3 z" />
	</g>
</g>
</svg>
