<?xml version="1.0" encoding="utf-8"?>
<!-- Generator: Adobe Illustrator 24.3.0, SVG Export Plug-In . SVG Version: 6.00 Build 0)  -->
<svg version="1.1" id="Layer_1" xmlns="http://www.w3.org/2000/svg" xmlns:xlink="http://www.w3.org/1999/xlink" x="0px" y="0px"
	 viewBox="0 0 160.9 164.58" style="enable-background:new 0 0 160.9 164.58;" xml:space="preserve">
<style type="text/css">
	.st0{fill:#231F20;}
	.st1{fill:none;stroke:#939598;stroke-width:0.6;}
	.st2{fill:none;stroke:#ED1C24;stroke-width:0.6;stroke-linecap:round;stroke-linejoin:round;}
	.st3{fill:none;stroke:#F58466;stroke-width:0.6;stroke-linecap:round;stroke-linejoin:round;}
	.st4{fill:none;stroke:#FF674B;stroke-width:0.6;stroke-linecap:round;stroke-linejoin:round;}
	.st5{fill:none;stroke:#FBBEA7;stroke-width:0.6;stroke-linecap:round;stroke-linejoin:round;}
	.st6{fill:none;stroke:#FFB299;stroke-width:0.6;stroke-linecap:round;stroke-linejoin:round;}
	.st7{fill:none;stroke:#231F20;stroke-width:1.362;stroke-linecap:round;stroke-linejoin:round;}
	.st8{fill:none;stroke:#FBBEA7;stroke-width:2.714;stroke-linecap:round;stroke-linejoin:round;}
	.st9{fill:none;stroke:#F58466;stroke-width:2.714;stroke-linecap:round;stroke-linejoin:round;}
	.st10{fill:none;stroke:#ED1C24;stroke-width:2.714;stroke-linecap:round;stroke-linejoin:round;}
	.st11{fill:none;stroke:#000000;stroke-width:0.6;stroke-linecap:round;stroke-linejoin:round;}
	.st12{font-family:'Times-Italic';}
	.st13{font-size:7.2px;}
	.st14{font-size:5.4px;}
	.st15{fill:#FFB299;}
	.st16{fill:#FF674B;}
	.st17{fill:#FF0000;}
</style>
<g>
	<line class="st0" x1="100.97" y1="83.07" x2="112.37" y2="81.97"/>
	<line class="st1" x1="100.97" y1="83.07" x2="112.37" y2="81.97"/>
	<line class="st0" x1="88.96" y1="60.34" x2="100.97" y2="83.07"/>
	<line class="st1" x1="88.96" y1="60.34" x2="100.97" y2="83.07"/>
	<line class="st0" x1="46.39" y1="99.77" x2="53.48" y2="112.41"/>
	<line class="st1" x1="46.39" y1="99.77" x2="53.48" y2="112.41"/>
	<line class="st0" x1="34.17" y1="65.5" x2="46.39" y2="99.77"/>
	<line class="st1" x1="34.17" y1="65.5" x2="46.39" y2="99.77"/>
	<line class="st0" x1="63.45" y1="42.81" x2="61.12" y2="53.24"/>
	<line class="st1" x1="63.45" y1="42.81" x2="61.12" y2="53.24"/>
	<line class="st0" x1="63.22" y1="34.67" x2="63.45" y2="42.81"/>
	<line class="st1" x1="63.22" y1="34.67" x2="63.45" y2="42.81"/>
	<path class="st2" d="M76.8,85.35l36.44-65.01 M76.8,85.35L13.75,77.2 M76.8,85.35l36.3,70.22"/>
	<path class="st3" d="M68.79,75.44L13.75,58.95 M68.79,75.44L90.38,146"/>
	<line class="st4" x1="68.79" y1="75.44" x2="122.47" y2="25.42"/>
	<path class="st5" d="M61.49,62.15L17.86,21.04 M61.49,62.15l7.66,84.62"/>
	<line class="st6" x1="61.49" y1="62.15" x2="101.76" y2="21.77"/>
	<path class="st7" d="M122.14,83.69L122.14,83.69 M124.12,79.87L124.12,79.87 M106.43,60.75L106.43,60.75 M139.05,66.91
		L139.05,66.91 M45.35,105.89L45.35,105.89 M73.32,114.02L73.32,114.02 M38.31,114.7L38.31,114.7 M52.46,94.21L52.46,94.21
		 M48.23,99.15L48.23,99.15 M57.24,101.14L57.24,101.14 M61.86,125.72L61.86,125.72 M59.27,133.4L59.27,133.4 M68.4,99.75
		L68.4,99.75 M70.27,94.15L70.27,94.15 M73.97,119.65L73.97,119.65 M50.59,140.4L50.59,140.4 M33.89,126.75L33.89,126.75
		 M67.08,140.61L67.08,140.61 M59.29,106.03L59.29,106.03 M78.74,126.96L78.74,126.96 M34.15,117.25L34.15,117.25 M80.15,101.7
		L80.15,101.7 M43.84,103.34L43.84,103.34 M61.37,130.55L61.37,130.55 M44.65,148.64L44.65,148.64 M38.71,113.79L38.71,113.79
		 M23.45,112.07L23.45,112.07 M35.69,106.72L35.69,106.72 M40.88,124.94L40.88,124.94 M39.76,109.44L39.76,109.44 M71.5,122.94
		L71.5,122.94 M64.23,92.38L64.23,92.38 M79.67,97.95L79.67,97.95 M83.65,128.89L83.65,128.89 M88.96,60.34L88.96,60.34
		 M33.93,53.87L33.93,53.87 M80.73,55.92L80.73,55.92 M81,38.52L81,38.52 M61.23,71.07L61.23,71.07 M59.79,34.65L59.79,34.65
		 M36.38,90.1L36.38,90.1 M56,67.04L56,67.04 M86.99,45.88L86.99,45.88 M61.8,51.81L61.8,51.81 M34.17,65.5L34.17,65.5 M66.94,61.11
		L66.94,61.11 M61.76,50.49L61.76,50.49 M46.05,66.13L46.05,66.13 M71.1,66.45L71.1,66.45 M49.15,62.98L49.15,62.98 M68.48,29.65
		L68.48,29.65 M74.45,53.09L74.45,53.09 M75.08,71.67L75.08,71.67 M34.46,51.26L34.46,51.26 M63.22,34.67L63.22,34.67 M69.03,54.83
		L69.03,54.83 M63.15,45.97L63.15,45.97 M67.13,75.75L67.13,75.75 M53.03,47.47L53.03,47.47 M58.85,52.06L58.85,52.06 M37.43,57.52
		L37.43,57.52 M89.64,65.95L89.64,65.95 M79.42,65.15L79.42,65.15 M48.99,60.23L48.99,60.23"/>
	<path class="st7" d="M133.97,113.22L133.97,113.22 M126.18,76.77L126.18,76.77 M104.91,79.03L104.91,79.03 M127.38,109.46
		L127.38,109.46 M114.47,107.42L114.47,107.42 M143.17,65.68L143.17,65.68 M128.33,104.83L128.33,104.83 M102.55,61.5L102.55,61.5
		 M95.29,103.34L95.29,103.34 M115.79,49.13L115.79,49.13 M97.37,89.82L97.37,89.82 M129.01,112.91L129.01,112.91 M79.95,101.13
		L79.95,101.13 M126.95,110.97L126.95,110.97 M121.78,101.49L121.78,101.49 M118.47,90.89L118.47,90.89 M113.62,76.15L113.62,76.15
		 M120.4,67.9L120.4,67.9 M109.65,74.61L109.65,74.61 M132.59,70.57L132.59,70.57 M113.87,68.34L113.87,68.34 M113.89,78.08
		L113.89,78.08 M116.02,70.27L116.02,70.27 M118.48,65.08L118.48,65.08 M109.54,75.5L109.54,75.5 M114.06,55.85L114.06,55.85"/>
	<path class="st8" d="M88.96,60.34L88.96,60.34 M34.17,65.5L34.17,65.5 M63.22,34.67L63.22,34.67"/>
	<path class="st9" d="M100.97,83.07L100.97,83.07 M46.39,99.77L46.39,99.77 M63.45,42.81L63.45,42.81"/>
	<path class="st10" d="M112.37,81.97L112.37,81.97 M53.48,112.41L53.48,112.41 M61.12,53.24L61.12,53.24"/>
	<polyline class="st11" points="2.4,12.75 2.4,158.55 148.2,158.55 	"/>
	<path d="M149.62,157.93c-0.99-0.3-1.64-0.58-2.43-0.89v3.03c0.29-0.14,1.44-0.6,2.43-0.9c1.06-0.32,2.02-0.54,2.65-0.62
		C151.64,158.47,150.68,158.25,149.62,157.93"/>
	<path d="M1.79,11.33c-0.3,0.99-0.58,1.64-0.9,2.43h3.03c-0.13-0.28-0.6-1.44-0.9-2.43C2.7,10.27,2.48,9.31,2.4,8.68
		C2.33,9.31,2.11,10.27,1.79,11.33"/>
	<text transform="matrix(1 0 0 1 155.002 160.5483)" class="st0 st12 st13">x</text>
	<text transform="matrix(1 0 0 1 158.1982 162.3481)" class="st0 st12 st14">1</text>
	<text transform="matrix(1 0 0 1 0.2017 5.9482)" class="st0 st12 st13">x</text>
	<text transform="matrix(1 0 0 1 3.3979 7.748)" class="st0 st12 st14">2</text>
	<text transform="matrix(1 0 0 1 103.0015 19.1479)" class="st15 st12 st13">1</text>
	<text transform="matrix(1 0 0 1 124.4014 23.748)" class="st16 st12 st13">2</text>
	<text transform="matrix(1 0 0 1 114.4014 17.1479)" class="st17 st12 st13">3</text>
</g>
</svg>
