<?xml version="1.0" encoding="utf-8"?>
<!-- Generator: Adobe Illustrator 24.3.0, SVG Export Plug-In . SVG Version: 6.00 Build 0)  -->
<svg version="1.1" id="Layer_1" xmlns="http://www.w3.org/2000/svg" xmlns:xlink="http://www.w3.org/1999/xlink" x="0px" y="0px"
	 viewBox="0 0 408.68 176.69" style="enable-background:new 0 0 408.68 176.69;" xml:space="preserve">
<style type="text/css">
	.st0{font-family:'Monaco';}
	.st1{font-size:8.9664px;}
	.st2{fill:none;stroke:#000000;stroke-width:0.0944;stroke-miterlimit:10;stroke-dasharray:0.3775,0.755;}
	.st3{fill:none;stroke:#000000;stroke-width:0.3775;stroke-miterlimit:10;}
	.st4{fill:none;stroke:#000000;stroke-width:0.1888;stroke-miterlimit:10;}
</style>
<text transform="matrix(1 0 0 1 3.8334 7.8814)"><tspan x="0" y="0" class="st0 st1">R</tspan><tspan x="5.36" y="0" class="st0 st1">u</tspan><tspan x="10.73" y="0" class="st0 st1">n</tspan></text>
<text transform="matrix(1 0 0 1 23.374 7.8814)" class="st0 st1">1</text>
<path class="st2" d="M0.19,78.87V13.79 M0.19,78.87H63.1"/>
<polyline class="st3" points="0.19,78.87 63.1,78.87 63.1,13.79 0.19,13.79 0.19,78.87 "/>
<polygon class="st4" points="9.64,61.4 8.45,62.58 9.64,63.76 10.84,62.58 "/>
<line class="st4" x1="9.64" y1="62.67" x2="9.64" y2="62.49"/>
<polygon class="st4" points="6.49,71.19 5.3,72.37 6.49,73.56 7.69,72.37 "/>
<line class="st4" x1="6.49" y1="72.47" x2="6.49" y2="72.28"/>
<polygon class="st4" points="12.76,58.17 11.56,59.35 12.76,60.53 13.95,59.35 "/>
<line class="st4" x1="12.76" y1="59.44" x2="12.76" y2="59.26"/>
<polygon class="st4" points="6.49,58.17 5.3,59.35 6.49,60.53 7.69,59.35 "/>
<line class="st4" x1="6.49" y1="59.44" x2="6.49" y2="59.26"/>
<polygon class="st4" points="12.76,64.66 11.56,65.84 12.76,67.03 13.95,65.84 "/>
<line class="st4" x1="12.76" y1="65.94" x2="12.76" y2="65.75"/>
<polygon class="st4" points="6.49,64.66 5.3,65.84 6.49,67.03 7.69,65.84 "/>
<line class="st4" x1="6.49" y1="65.94" x2="6.49" y2="65.75"/>
<polygon class="st4" points="9.64,67.93 8.45,69.11 9.64,70.29 10.84,69.11 "/>
<line class="st4" x1="9.64" y1="69.2" x2="9.64" y2="69.02"/>
<polygon class="st4" points="9.64,54.9 8.45,56.09 9.64,57.27 10.84,56.09 "/>
<line class="st4" x1="9.64" y1="56.18" x2="9.64" y2="55.99"/>
<polygon class="st4" points="15.91,61.4 14.71,62.58 15.91,63.76 17.1,62.58 "/>
<line class="st4" x1="15.91" y1="62.67" x2="15.91" y2="62.49"/>
<polygon class="st4" points="12.45,67.93 11.26,69.11 12.45,70.29 13.65,69.11 "/>
<line class="st4" x1="12.45" y1="69.2" x2="12.45" y2="69.02"/>
<line class="st4" x1="15.91" y1="50.78" x2="15.91" y2="48.41"/>
<line class="st4" x1="14.71" y1="49.59" x2="17.1" y2="49.59"/>
<line class="st4" x1="19.06" y1="41.02" x2="19.06" y2="38.65"/>
<line class="st4" x1="17.86" y1="39.83" x2="20.26" y2="39.83"/>
<line class="st4" x1="12.76" y1="54" x2="12.76" y2="51.64"/>
<line class="st4" x1="11.56" y1="52.82" x2="13.95" y2="52.82"/>
<line class="st4" x1="12.76" y1="47.51" x2="12.76" y2="45.14"/>
<line class="st4" x1="11.56" y1="46.33" x2="13.95" y2="46.33"/>
<line class="st4" x1="15.91" y1="44.24" x2="15.91" y2="41.88"/>
<line class="st4" x1="14.71" y1="43.06" x2="17.1" y2="43.06"/>
<rect x="33.58" y="35.39" class="st4" width="2.39" height="2.36"/>
<line class="st4" x1="34.78" y1="36.66" x2="34.78" y2="36.48"/>
<rect x="46.19" y="22.36" class="st4" width="2.39" height="2.36"/>
<line class="st4" x1="47.38" y1="23.64" x2="47.38" y2="23.45"/>
<rect x="30.47" y="38.65" class="st4" width="2.39" height="2.37"/>
<line class="st4" x1="31.66" y1="39.93" x2="31.66" y2="39.74"/>
<rect x="43.04" y="25.63" class="st4" width="2.39" height="2.36"/>
<line class="st4" x1="44.23" y1="26.9" x2="44.23" y2="26.72"/>
<rect x="43.04" y="28.86" class="st4" width="2.39" height="2.37"/>
<line class="st4" x1="44.23" y1="30.13" x2="44.23" y2="29.94"/>
<rect x="49.34" y="25.63" class="st4" width="2.39" height="2.36"/>
<line class="st4" x1="50.54" y1="26.9" x2="50.54" y2="26.72"/>
<rect x="43.04" y="38.65" class="st4" width="2.39" height="2.37"/>
<line class="st4" x1="44.23" y1="39.93" x2="44.23" y2="39.74"/>
<rect x="43.04" y="51.64" class="st4" width="2.39" height="2.36"/>
<line class="st4" x1="44.23" y1="52.91" x2="44.23" y2="52.73"/>
<rect x="49.34" y="58.17" class="st4" width="2.39" height="2.36"/>
<line class="st4" x1="50.54" y1="59.44" x2="50.54" y2="59.26"/>
<rect x="49.34" y="51.64" class="st4" width="2.39" height="2.36"/>
<line class="st4" x1="50.54" y1="52.91" x2="50.54" y2="52.73"/>
<rect x="39.89" y="32.12" class="st4" width="2.39" height="2.36"/>
<line class="st4" x1="41.08" y1="33.4" x2="41.08" y2="33.21"/>
<rect x="21.01" y="41.88" class="st4" width="2.39" height="2.36"/>
<line class="st4" x1="22.21" y1="43.16" x2="22.21" y2="42.97"/>
<rect x="52.45" y="45.14" class="st4" width="2.39" height="2.36"/>
<line class="st4" x1="53.65" y1="46.42" x2="53.65" y2="46.23"/>
<rect x="46.19" y="35.39" class="st4" width="2.39" height="2.36"/>
<line class="st4" x1="47.38" y1="36.66" x2="47.38" y2="36.48"/>
<rect x="52.45" y="54.9" class="st4" width="2.39" height="2.37"/>
<line class="st4" x1="53.65" y1="56.18" x2="53.65" y2="55.99"/>
<rect x="52.45" y="48.41" class="st4" width="2.39" height="2.37"/>
<line class="st4" x1="53.65" y1="49.69" x2="53.65" y2="49.5"/>
<rect x="36.73" y="51.64" class="st4" width="2.39" height="2.36"/>
<line class="st4" x1="37.93" y1="52.91" x2="37.93" y2="52.73"/>
<line class="st4" x1="21.01" y1="48.41" x2="23.41" y2="50.78"/>
<line class="st4" x1="21.01" y1="50.78" x2="23.41" y2="48.41"/>
<line class="st4" x1="21.01" y1="54.9" x2="23.41" y2="57.27"/>
<line class="st4" x1="21.01" y1="57.27" x2="23.41" y2="54.9"/>
<line class="st4" x1="17.86" y1="51.64" x2="20.26" y2="54"/>
<line class="st4" x1="17.86" y1="54" x2="20.26" y2="51.64"/>
<line class="st4" x1="17.86" y1="45.14" x2="20.26" y2="47.51"/>
<line class="st4" x1="17.86" y1="47.51" x2="20.26" y2="45.14"/>
<line class="st4" x1="43.04" y1="64.66" x2="45.43" y2="67.03"/>
<line class="st4" x1="43.04" y1="67.03" x2="45.43" y2="64.66"/>
<line class="st4" x1="14.71" y1="54.9" x2="17.1" y2="57.27"/>
<line class="st4" x1="14.71" y1="57.27" x2="17.1" y2="54.9"/>
<line class="st4" x1="46.19" y1="61.4" x2="48.58" y2="63.76"/>
<line class="st4" x1="46.19" y1="63.76" x2="48.58" y2="61.4"/>
<line class="st4" x1="46.19" y1="61.4" x2="48.58" y2="63.76"/>
<line class="st4" x1="46.19" y1="63.76" x2="48.58" y2="61.4"/>
<path class="st4" d="M28.67,61.15l-0.04-0.23l-0.04-0.22l-0.08-0.23l-0.11-0.19l-0.15-0.19l-0.19-0.15l-0.19-0.11l-0.19-0.08
	l-0.23-0.07h-0.42l-0.23,0.07l-0.19,0.08l-0.19,0.11l-0.19,0.15l-0.15,0.19l-0.11,0.19l-0.08,0.23l-0.04,0.22l-0.04,0.23l0.04,0.22
	l0.04,0.23l0.08,0.22l0.11,0.19l0.15,0.15l0.19,0.15l0.19,0.15l0.19,0.08l0.23,0.04l0.23,0.04l0.19-0.04l0.23-0.04l0.19-0.08
	l0.19-0.15l0.19-0.15l0.15-0.15l0.11-0.19l0.08-0.22l0.04-0.23L28.67,61.15h0.91l-0.04-0.38l-0.08-0.37l-0.15-0.34l-0.19-0.34
	l-0.23-0.26l-0.27-0.26l-0.34-0.19l-0.34-0.15l-0.34-0.07l-0.34-0.04l-0.38,0.04l-0.34,0.07l-0.34,0.15l-0.34,0.19l-0.27,0.26
	l-0.23,0.26l-0.19,0.34l-0.15,0.34l-0.08,0.37l-0.04,0.38l0.04,0.37l0.08,0.38l0.15,0.34l0.19,0.34l0.23,0.26l0.27,0.26l0.34,0.19
	l0.34,0.15l0.34,0.07l0.38,0.04l0.34-0.04l0.34-0.07l0.34-0.15l0.34-0.19l0.27-0.26l0.23-0.26l0.19-0.34l0.15-0.34l0.08-0.38
	l0.04-0.37 M41.77,42.57l-0.04-0.22l-0.04-0.23l-0.11-0.22l-0.11-0.19l-0.11-0.19l-0.19-0.15l-0.19-0.11l-0.19-0.07l-0.23-0.08
	h-0.46l-0.19,0.08l-0.23,0.07l-0.19,0.11l-0.15,0.15l-0.15,0.19l-0.11,0.19l-0.08,0.22l-0.08,0.23v0.45l0.08,0.22l0.08,0.23
	l0.11,0.19l0.15,0.19l0.15,0.15l0.19,0.11l0.23,0.08l0.19,0.07h0.46l0.23-0.07l0.19-0.08l0.19-0.11l0.19-0.15l0.11-0.19l0.11-0.19
	l0.11-0.23l0.04-0.22L41.77,42.57h0.91l-0.04-0.37l-0.08-0.38l-0.15-0.34l-0.19-0.34l-0.23-0.26l-0.3-0.26l-0.3-0.19l-0.34-0.15
	l-0.34-0.08l-0.38-0.04l-0.34,0.04l-0.38,0.08l-0.34,0.15l-0.3,0.19l-0.27,0.26l-0.23,0.26l-0.19,0.34l-0.15,0.34l-0.08,0.38
	l-0.04,0.37l0.04,0.38l0.08,0.37l0.15,0.34L38.46,44l0.23,0.26l0.27,0.26l0.3,0.19l0.34,0.15l0.38,0.07l0.34,0.04l0.38-0.04
	l0.34-0.07l0.34-0.15l0.3-0.19l0.3-0.26L42.22,44l0.19-0.34l0.15-0.34l0.08-0.37l0.04-0.38 M4.33,42.27v-0.22l-0.04-0.23l-0.11-0.19
	l-0.11-0.19l-0.15-0.19l-0.15-0.15L3.57,41l-0.19-0.11l-0.23-0.04l-0.23-0.04l-0.23,0.04l-0.19,0.04L2.28,41l-0.19,0.11l-0.15,0.15
	l-0.15,0.19l-0.11,0.19l-0.08,0.19l-0.08,0.23v0.49l0.08,0.23l0.08,0.19l0.11,0.19l0.15,0.19l0.15,0.15l0.19,0.11l0.23,0.11
	l0.19,0.04h0.46l0.23-0.04l0.19-0.11l0.19-0.11l0.15-0.15l0.15-0.19l0.11-0.19l0.11-0.19l0.04-0.23V42.27h0.91V41.9l-0.11-0.34
	l-0.11-0.38l-0.19-0.3l-0.27-0.3l-0.27-0.23l-0.3-0.22l-0.34-0.15L3.3,39.91l-0.38-0.04l-0.34,0.04L2.2,39.98l-0.34,0.15l-0.3,0.22
	l-0.27,0.23l-0.23,0.3l-0.23,0.3l-0.11,0.38L0.64,41.9l-0.04,0.37l0.04,0.38l0.08,0.37l0.11,0.38l0.23,0.3L1.29,44l0.27,0.22
	l0.3,0.23l0.34,0.11l0.38,0.11l0.34,0.04l0.38-0.04l0.34-0.11l0.34-0.11l0.3-0.23L4.56,44l0.27-0.3l0.19-0.3l0.11-0.38l0.11-0.37
	v-0.38 M14.43,70.76v-0.22l-0.08-0.23l-0.08-0.22l-0.11-0.19l-0.15-0.19l-0.15-0.11l-0.19-0.15l-0.19-0.08l-0.23-0.04l-0.23-0.04
	l-0.23,0.04l-0.23,0.04l-0.19,0.08l-0.19,0.15l-0.15,0.11l-0.15,0.19l-0.11,0.19l-0.08,0.22l-0.08,0.23v0.45l0.08,0.22l0.08,0.23
	l0.11,0.19l0.15,0.19l0.15,0.15l0.19,0.11l0.19,0.08l0.23,0.07h0.46l0.23-0.07l0.19-0.08l0.19-0.11l0.15-0.15l0.15-0.19l0.11-0.19
	l0.08-0.23l0.08-0.22V70.76h0.91v-0.37l-0.11-0.38l-0.11-0.34l-0.19-0.34l-0.27-0.26l-0.27-0.26l-0.3-0.19l-0.34-0.15L13.4,68.4
	l-0.38-0.04l-0.38,0.04l-0.34,0.07l-0.34,0.15l-0.3,0.19l-0.27,0.26l-0.27,0.26l-0.19,0.34l-0.11,0.34l-0.11,0.38v0.75l0.11,0.37
	l0.11,0.34l0.19,0.34l0.27,0.26l0.27,0.26l0.3,0.19l0.34,0.15l0.34,0.07l0.38,0.04l0.38-0.04l0.34-0.07l0.34-0.15l0.3-0.19
	l0.27-0.26l0.27-0.26l0.19-0.34l0.11-0.34l0.11-0.37v-0.38"/>
<path class="st2" d="M69.31,78.87V13.79 M69.31,78.87h62.91"/>
<polyline class="st3" points="69.31,78.87 132.22,78.87 132.22,13.79 69.31,13.79 69.31,78.87 "/>
<polygon class="st4" points="78.76,61.4 77.57,62.58 78.76,63.76 79.96,62.58 "/>
<line class="st4" x1="78.76" y1="62.67" x2="78.76" y2="62.49"/>
<polygon class="st4" points="75.61,71.19 74.42,72.37 75.61,73.56 76.81,72.37 "/>
<line class="st4" x1="75.61" y1="72.47" x2="75.61" y2="72.28"/>
<polygon class="st4" points="81.88,58.17 80.68,59.35 81.88,60.53 83.07,59.35 "/>
<line class="st4" x1="81.88" y1="59.44" x2="81.88" y2="59.26"/>
<polygon class="st4" points="75.61,58.17 74.42,59.35 75.61,60.53 76.81,59.35 "/>
<line class="st4" x1="75.61" y1="59.44" x2="75.61" y2="59.26"/>
<polygon class="st4" points="81.88,64.66 80.68,65.84 81.88,67.03 83.07,65.84 "/>
<line class="st4" x1="81.88" y1="65.94" x2="81.88" y2="65.75"/>
<polygon class="st4" points="75.61,64.66 74.42,65.84 75.61,67.03 76.81,65.84 "/>
<line class="st4" x1="75.61" y1="65.94" x2="75.61" y2="65.75"/>
<polygon class="st4" points="78.76,67.93 77.57,69.11 78.76,70.29 79.96,69.11 "/>
<line class="st4" x1="78.76" y1="69.2" x2="78.76" y2="69.02"/>
<polygon class="st4" points="78.76,54.9 77.57,56.09 78.76,57.27 79.96,56.09 "/>
<line class="st4" x1="78.76" y1="56.18" x2="78.76" y2="55.99"/>
<polygon class="st4" points="85.03,61.4 83.83,62.58 85.03,63.76 86.22,62.58 "/>
<line class="st4" x1="85.03" y1="62.67" x2="85.03" y2="62.49"/>
<polygon class="st4" points="81.57,67.93 80.38,69.11 81.57,70.29 82.77,69.11 "/>
<line class="st4" x1="81.57" y1="69.2" x2="81.57" y2="69.02"/>
<line class="st4" x1="91.33" y1="50.78" x2="91.33" y2="48.41"/>
<line class="st4" x1="90.14" y1="49.59" x2="92.53" y2="49.59"/>
<line class="st4" x1="85.03" y1="50.78" x2="85.03" y2="48.41"/>
<line class="st4" x1="83.83" y1="49.59" x2="86.22" y2="49.59"/>
<line class="st4" x1="88.18" y1="54" x2="88.18" y2="51.64"/>
<line class="st4" x1="86.98" y1="52.82" x2="89.38" y2="52.82"/>
<line class="st4" x1="88.18" y1="41.02" x2="88.18" y2="38.65"/>
<line class="st4" x1="86.98" y1="39.83" x2="89.38" y2="39.83"/>
<line class="st4" x1="81.88" y1="54" x2="81.88" y2="51.64"/>
<line class="st4" x1="80.68" y1="52.82" x2="83.07" y2="52.82"/>
<line class="st4" x1="88.18" y1="47.51" x2="88.18" y2="45.14"/>
<line class="st4" x1="86.98" y1="46.33" x2="89.38" y2="46.33"/>
<line class="st4" x1="81.88" y1="47.51" x2="81.88" y2="45.14"/>
<line class="st4" x1="80.68" y1="46.33" x2="83.07" y2="46.33"/>
<line class="st4" x1="85.03" y1="57.27" x2="85.03" y2="54.9"/>
<line class="st4" x1="83.83" y1="56.09" x2="86.22" y2="56.09"/>
<line class="st4" x1="91.33" y1="44.24" x2="91.33" y2="41.88"/>
<line class="st4" x1="90.14" y1="43.06" x2="92.53" y2="43.06"/>
<line class="st4" x1="85.03" y1="44.24" x2="85.03" y2="41.88"/>
<line class="st4" x1="83.83" y1="43.06" x2="86.22" y2="43.06"/>
<rect x="102.7" y="35.39" class="st4" width="2.39" height="2.36"/>
<line class="st4" x1="103.9" y1="36.66" x2="103.9" y2="36.48"/>
<rect x="115.31" y="22.36" class="st4" width="2.39" height="2.36"/>
<line class="st4" x1="116.5" y1="23.64" x2="116.5" y2="23.45"/>
<rect x="99.59" y="38.65" class="st4" width="2.39" height="2.37"/>
<line class="st4" x1="100.79" y1="39.93" x2="100.79" y2="39.74"/>
<rect x="112.16" y="25.63" class="st4" width="2.39" height="2.36"/>
<line class="st4" x1="113.35" y1="26.9" x2="113.35" y2="26.72"/>
<rect x="112.16" y="28.86" class="st4" width="2.39" height="2.37"/>
<line class="st4" x1="113.35" y1="30.13" x2="113.35" y2="29.94"/>
<rect x="118.46" y="25.63" class="st4" width="2.39" height="2.36"/>
<line class="st4" x1="119.66" y1="26.9" x2="119.66" y2="26.72"/>
<rect x="112.16" y="38.65" class="st4" width="2.39" height="2.37"/>
<line class="st4" x1="113.35" y1="39.93" x2="113.35" y2="39.74"/>
<rect x="112.16" y="51.64" class="st4" width="2.39" height="2.36"/>
<line class="st4" x1="113.35" y1="52.91" x2="113.35" y2="52.73"/>
<rect x="118.46" y="58.17" class="st4" width="2.39" height="2.36"/>
<line class="st4" x1="119.66" y1="59.44" x2="119.66" y2="59.26"/>
<rect x="118.46" y="51.64" class="st4" width="2.39" height="2.36"/>
<line class="st4" x1="119.66" y1="52.91" x2="119.66" y2="52.73"/>
<rect x="109.01" y="32.12" class="st4" width="2.39" height="2.36"/>
<line class="st4" x1="110.2" y1="33.4" x2="110.2" y2="33.21"/>
<rect x="121.57" y="45.14" class="st4" width="2.39" height="2.36"/>
<line class="st4" x1="122.77" y1="46.42" x2="122.77" y2="46.23"/>
<rect x="115.31" y="35.39" class="st4" width="2.39" height="2.36"/>
<line class="st4" x1="116.5" y1="36.66" x2="116.5" y2="36.48"/>
<rect x="121.57" y="54.9" class="st4" width="2.39" height="2.37"/>
<line class="st4" x1="122.77" y1="56.18" x2="122.77" y2="55.99"/>
<rect x="121.57" y="48.41" class="st4" width="2.39" height="2.37"/>
<line class="st4" x1="122.77" y1="49.69" x2="122.77" y2="49.5"/>
<line class="st4" x1="90.14" y1="54.9" x2="92.53" y2="57.27"/>
<line class="st4" x1="90.14" y1="57.27" x2="92.53" y2="54.9"/>
<line class="st4" x1="112.16" y1="64.66" x2="114.55" y2="67.03"/>
<line class="st4" x1="112.16" y1="67.03" x2="114.55" y2="64.66"/>
<line class="st4" x1="115.31" y1="61.4" x2="117.7" y2="63.76"/>
<line class="st4" x1="115.31" y1="63.76" x2="117.7" y2="61.4"/>
<line class="st4" x1="115.31" y1="61.4" x2="117.7" y2="63.76"/>
<line class="st4" x1="115.31" y1="63.76" x2="117.7" y2="61.4"/>
<line class="st4" x1="105.85" y1="51.64" x2="108.25" y2="54"/>
<line class="st4" x1="105.85" y1="54" x2="108.25" y2="51.64"/>
<path class="st4" d="M100.22,56.5v-0.23l-0.08-0.22l-0.08-0.23l-0.11-0.19l-0.15-0.19l-0.15-0.15l-0.19-0.11l-0.23-0.08l-0.19-0.07
	h-0.46l-0.23,0.07l-0.19,0.08l-0.19,0.11l-0.19,0.15l-0.11,0.19l-0.15,0.19l-0.08,0.23l-0.04,0.22l-0.04,0.23l0.04,0.22l0.04,0.23
	l0.08,0.22l0.15,0.19l0.11,0.19l0.19,0.15l0.19,0.11l0.19,0.07l0.23,0.04l0.23,0.04l0.23-0.04l0.19-0.04l0.23-0.07l0.19-0.11
	l0.15-0.15l0.15-0.19l0.11-0.19l0.08-0.22l0.08-0.23V56.5h0.91l-0.04-0.38l-0.08-0.37l-0.15-0.34l-0.19-0.34l-0.23-0.26l-0.27-0.26
	l-0.3-0.19l-0.34-0.15l-0.38-0.07l-0.34-0.04l-0.38,0.04l-0.34,0.07l-0.34,0.15l-0.3,0.19l-0.3,0.26l-0.23,0.26l-0.19,0.34
	l-0.15,0.34l-0.08,0.37l-0.04,0.38l0.04,0.37l0.08,0.38l0.15,0.34l0.19,0.34l0.23,0.26l0.3,0.26l0.3,0.19l0.34,0.15l0.34,0.08
	l0.38,0.04l0.34-0.04l0.38-0.08l0.34-0.15l0.3-0.19l0.27-0.26l0.23-0.26l0.19-0.34l0.15-0.34l0.08-0.38l0.04-0.37 M114.76,41.52
	V41.3l-0.08-0.23l-0.08-0.19l-0.11-0.19l-0.15-0.19l-0.15-0.15L114,40.25l-0.23-0.11l-0.19-0.04l-0.23-0.04l-0.23,0.04l-0.23,0.04
	l-0.19,0.11l-0.19,0.11l-0.15,0.15l-0.15,0.19l-0.11,0.19l-0.11,0.19l-0.04,0.23v0.49l0.04,0.23l0.11,0.19l0.11,0.19l0.15,0.19
	l0.15,0.15l0.19,0.11l0.19,0.11l0.23,0.04l0.23,0.04l0.23-0.04l0.19-0.04l0.23-0.11l0.19-0.11l0.15-0.15l0.15-0.19l0.11-0.19
	l0.08-0.19l0.08-0.23v-0.22l0.91-0.04l-0.04-0.37l-0.08-0.34l-0.11-0.38l-0.19-0.3l-0.27-0.3l-0.27-0.22l-0.3-0.23l-0.34-0.15
	l-0.38-0.07l-0.34-0.04l-0.38,0.04l-0.34,0.07l-0.34,0.15l-0.3,0.23l-0.27,0.22l-0.27,0.3l-0.19,0.3l-0.11,0.38l-0.11,0.34v0.79
	l0.11,0.34l0.11,0.38l0.19,0.3l0.27,0.3l0.27,0.22l0.3,0.23l0.34,0.15l0.34,0.07l0.38,0.04l0.34-0.04l0.38-0.07l0.34-0.15l0.3-0.23
	l0.27-0.22l0.23-0.3l0.23-0.3l0.11-0.38l0.08-0.34l0.04-0.37 M85.83,46.33V46.1l-0.08-0.23l-0.08-0.22l-0.11-0.19l-0.15-0.19
	l-0.15-0.15l-0.19-0.11l-0.23-0.07l-0.19-0.08h-0.46l-0.23,0.08l-0.19,0.07l-0.19,0.11l-0.19,0.15l-0.11,0.19l-0.15,0.19l-0.08,0.22
	l-0.04,0.23l-0.04,0.22l0.04,0.23l0.04,0.22L83.13,47l0.15,0.19l0.11,0.19l0.19,0.15l0.19,0.11l0.19,0.07l0.23,0.08h0.46l0.19-0.08
	l0.23-0.07l0.19-0.11l0.15-0.15l0.15-0.19L85.67,47l0.08-0.23l0.08-0.22V46.33h0.91l-0.04-0.37l-0.08-0.38l-0.15-0.34l-0.19-0.34
	l-0.23-0.26l-0.27-0.26l-0.3-0.19l-0.34-0.15l-0.38-0.08l-0.34-0.04l-0.38,0.04l-0.34,0.08l-0.34,0.15l-0.3,0.19l-0.3,0.26
	l-0.23,0.26l-0.19,0.34l-0.15,0.34l-0.08,0.38l-0.04,0.37l0.04,0.38l0.08,0.37l0.15,0.34l0.19,0.34l0.23,0.26l0.3,0.26l0.3,0.19
	l0.34,0.15l0.34,0.08l0.38,0.04l0.34-0.04l0.38-0.08l0.34-0.15l0.3-0.19l0.27-0.26l0.23-0.26l0.19-0.34l0.15-0.34l0.08-0.37
	l0.04-0.38 M80.78,64.23l-0.04-0.22l-0.04-0.23l-0.08-0.22l-0.15-0.19l-0.11-0.19l-0.19-0.15l-0.19-0.11l-0.19-0.07l-0.23-0.08H79.1
	l-0.19,0.08l-0.23,0.07l-0.19,0.11l-0.15,0.15l-0.15,0.19l-0.11,0.19L78,63.78l-0.08,0.23v0.45L78,64.68l0.08,0.23l0.11,0.19
	l0.15,0.15l0.15,0.15l0.19,0.15l0.23,0.07l0.19,0.04l0.23,0.04l0.23-0.04l0.23-0.04l0.19-0.07l0.19-0.15l0.19-0.15l0.11-0.15
	l0.15-0.19l0.08-0.23l0.04-0.22L80.78,64.23h0.91l-0.04-0.37l-0.08-0.38l-0.15-0.34l-0.19-0.34L81,62.5l-0.3-0.23l-0.3-0.19
	l-0.34-0.15l-0.34-0.11h-0.72l-0.38,0.11l-0.34,0.15l-0.3,0.19L77.7,62.5l-0.23,0.3l-0.19,0.34l-0.15,0.34l-0.08,0.38l-0.04,0.37
	l0.04,0.38l0.08,0.37l0.15,0.34l0.19,0.34l0.23,0.26l0.27,0.26l0.3,0.19l0.34,0.15l0.38,0.08l0.34,0.04l0.38-0.04l0.34-0.08
	l0.34-0.15l0.3-0.19l0.3-0.26l0.23-0.26l0.19-0.34l0.15-0.34l0.08-0.37l0.04-0.38"/>
<path class="st2" d="M138.32,78.87V13.79 M138.32,78.87h62.91"/>
<polyline class="st3" points="138.32,78.87 201.24,78.87 201.24,13.79 138.32,13.79 138.32,78.87 "/>
<polygon class="st4" points="147.78,61.4 146.58,62.58 147.78,63.76 148.97,62.58 "/>
<line class="st4" x1="147.78" y1="62.67" x2="147.78" y2="62.49"/>
<polygon class="st4" points="144.62,71.19 143.43,72.37 144.62,73.56 145.82,72.37 "/>
<line class="st4" x1="144.62" y1="72.47" x2="144.62" y2="72.28"/>
<polygon class="st4" points="150.89,58.17 149.69,59.35 150.89,60.53 152.09,59.35 "/>
<line class="st4" x1="150.89" y1="59.44" x2="150.89" y2="59.26"/>
<polygon class="st4" points="144.62,58.17 143.43,59.35 144.62,60.53 145.82,59.35 "/>
<line class="st4" x1="144.62" y1="59.44" x2="144.62" y2="59.26"/>
<polygon class="st4" points="150.89,64.66 149.69,65.84 150.89,67.03 152.09,65.84 "/>
<line class="st4" x1="150.89" y1="65.94" x2="150.89" y2="65.75"/>
<polygon class="st4" points="144.62,64.66 143.43,65.84 144.62,67.03 145.82,65.84 "/>
<line class="st4" x1="144.62" y1="65.94" x2="144.62" y2="65.75"/>
<polygon class="st4" points="147.78,67.93 146.58,69.11 147.78,70.29 148.97,69.11 "/>
<line class="st4" x1="147.78" y1="69.2" x2="147.78" y2="69.02"/>
<polygon class="st4" points="147.78,54.9 146.58,56.09 147.78,57.27 148.97,56.09 "/>
<line class="st4" x1="147.78" y1="56.18" x2="147.78" y2="55.99"/>
<polygon class="st4" points="154.04,61.4 152.84,62.58 154.04,63.76 155.24,62.58 "/>
<line class="st4" x1="154.04" y1="62.67" x2="154.04" y2="62.49"/>
<polygon class="st4" points="150.59,67.93 149.39,69.11 150.59,70.29 151.78,69.11 "/>
<line class="st4" x1="150.59" y1="69.2" x2="150.59" y2="69.02"/>
<line class="st4" x1="160.34" y1="50.78" x2="160.34" y2="48.41"/>
<line class="st4" x1="159.15" y1="49.59" x2="161.54" y2="49.59"/>
<line class="st4" x1="160.34" y1="57.27" x2="160.34" y2="54.9"/>
<line class="st4" x1="159.15" y1="56.09" x2="161.54" y2="56.09"/>
<line class="st4" x1="154.04" y1="50.78" x2="154.04" y2="48.41"/>
<line class="st4" x1="152.84" y1="49.59" x2="155.24" y2="49.59"/>
<line class="st4" x1="157.19" y1="54" x2="157.19" y2="51.64"/>
<line class="st4" x1="156" y1="52.82" x2="158.39" y2="52.82"/>
<line class="st4" x1="157.19" y1="41.02" x2="157.19" y2="38.65"/>
<line class="st4" x1="156" y1="39.83" x2="158.39" y2="39.83"/>
<line class="st4" x1="150.89" y1="54" x2="150.89" y2="51.64"/>
<line class="st4" x1="149.69" y1="52.82" x2="152.09" y2="52.82"/>
<line class="st4" x1="157.19" y1="47.51" x2="157.19" y2="45.14"/>
<line class="st4" x1="156" y1="46.33" x2="158.39" y2="46.33"/>
<line class="st4" x1="150.89" y1="47.51" x2="150.89" y2="45.14"/>
<line class="st4" x1="149.69" y1="46.33" x2="152.09" y2="46.33"/>
<line class="st4" x1="154.04" y1="57.27" x2="154.04" y2="54.9"/>
<line class="st4" x1="152.84" y1="56.09" x2="155.24" y2="56.09"/>
<line class="st4" x1="160.34" y1="44.24" x2="160.34" y2="41.88"/>
<line class="st4" x1="159.15" y1="43.06" x2="161.54" y2="43.06"/>
<line class="st4" x1="154.04" y1="44.24" x2="154.04" y2="41.88"/>
<line class="st4" x1="152.84" y1="43.06" x2="155.24" y2="43.06"/>
<rect x="171.71" y="35.39" class="st4" width="2.39" height="2.36"/>
<line class="st4" x1="172.91" y1="36.66" x2="172.91" y2="36.48"/>
<rect x="184.32" y="22.36" class="st4" width="2.39" height="2.36"/>
<line class="st4" x1="185.52" y1="23.64" x2="185.52" y2="23.45"/>
<rect x="168.6" y="38.65" class="st4" width="2.39" height="2.37"/>
<line class="st4" x1="169.8" y1="39.93" x2="169.8" y2="39.74"/>
<rect x="181.17" y="25.63" class="st4" width="2.39" height="2.36"/>
<line class="st4" x1="182.37" y1="26.9" x2="182.37" y2="26.72"/>
<rect x="181.17" y="28.86" class="st4" width="2.39" height="2.37"/>
<line class="st4" x1="182.37" y1="30.13" x2="182.37" y2="29.94"/>
<rect x="187.47" y="25.63" class="st4" width="2.39" height="2.36"/>
<line class="st4" x1="188.67" y1="26.9" x2="188.67" y2="26.72"/>
<rect x="181.17" y="38.65" class="st4" width="2.39" height="2.37"/>
<line class="st4" x1="182.37" y1="39.93" x2="182.37" y2="39.74"/>
<rect x="187.47" y="51.64" class="st4" width="2.39" height="2.36"/>
<line class="st4" x1="188.67" y1="52.91" x2="188.67" y2="52.73"/>
<rect x="178.02" y="32.12" class="st4" width="2.39" height="2.36"/>
<line class="st4" x1="179.21" y1="33.4" x2="179.21" y2="33.21"/>
<rect x="190.59" y="45.14" class="st4" width="2.39" height="2.36"/>
<line class="st4" x1="191.78" y1="46.42" x2="191.78" y2="46.23"/>
<rect x="184.32" y="35.39" class="st4" width="2.39" height="2.36"/>
<line class="st4" x1="185.52" y1="36.66" x2="185.52" y2="36.48"/>
<rect x="190.59" y="48.41" class="st4" width="2.39" height="2.37"/>
<line class="st4" x1="191.78" y1="49.69" x2="191.78" y2="49.5"/>
<line class="st4" x1="181.17" y1="64.66" x2="183.56" y2="67.03"/>
<line class="st4" x1="181.17" y1="67.03" x2="183.56" y2="64.66"/>
<line class="st4" x1="181.17" y1="51.64" x2="183.56" y2="54"/>
<line class="st4" x1="181.17" y1="54" x2="183.56" y2="51.64"/>
<line class="st4" x1="187.47" y1="58.17" x2="189.86" y2="60.53"/>
<line class="st4" x1="187.47" y1="60.53" x2="189.86" y2="58.17"/>
<line class="st4" x1="184.32" y1="61.4" x2="186.71" y2="63.76"/>
<line class="st4" x1="184.32" y1="63.76" x2="186.71" y2="61.4"/>
<line class="st4" x1="184.32" y1="61.4" x2="186.71" y2="63.76"/>
<line class="st4" x1="184.32" y1="63.76" x2="186.71" y2="61.4"/>
<line class="st4" x1="190.59" y1="54.9" x2="192.98" y2="57.27"/>
<line class="st4" x1="190.59" y1="57.27" x2="192.98" y2="54.9"/>
<line class="st4" x1="174.87" y1="51.64" x2="177.26" y2="54"/>
<line class="st4" x1="174.87" y1="54" x2="177.26" y2="51.64"/>
<path class="st4" d="M179.37,59.99v-0.23l-0.08-0.22l-0.08-0.23l-0.11-0.19l-0.15-0.15l-0.15-0.15l-0.19-0.15l-0.23-0.07l-0.19-0.04
	l-0.23-0.04l-0.23,0.04l-0.23,0.04l-0.19,0.07l-0.19,0.15l-0.15,0.15l-0.15,0.15l-0.11,0.19l-0.11,0.23l-0.04,0.22v0.45l0.04,0.23
	l0.11,0.22l0.11,0.19l0.15,0.19l0.15,0.15l0.19,0.11l0.19,0.07l0.23,0.08h0.46l0.19-0.08l0.23-0.07l0.19-0.11l0.15-0.15l0.15-0.19
	l0.11-0.19l0.08-0.22l0.08-0.23V59.99h0.91l-0.04-0.38l-0.08-0.37l-0.11-0.34l-0.19-0.34l-0.27-0.26l-0.27-0.26l-0.3-0.19
	l-0.34-0.15l-0.34-0.08l-0.38-0.04l-0.38,0.04l-0.34,0.08l-0.34,0.15l-0.3,0.19l-0.27,0.26l-0.27,0.26l-0.19,0.34l-0.11,0.34
	l-0.11,0.37v0.75l0.11,0.38l0.11,0.34l0.19,0.34l0.27,0.3l0.27,0.23l0.3,0.19l0.34,0.15l0.34,0.11h0.76l0.34-0.11l0.34-0.15
	l0.3-0.19l0.27-0.23l0.27-0.3l0.19-0.34l0.11-0.34l0.08-0.38l0.04-0.37 M185.67,40.7l-0.04-0.23l-0.04-0.22l-0.08-0.23l-0.11-0.19
	l-0.15-0.19l-0.15-0.15l-0.19-0.11l-0.23-0.07l-0.23-0.07h-0.42l-0.23,0.07l-0.19,0.07l-0.19,0.11l-0.19,0.15l-0.15,0.19l-0.11,0.19
	l-0.08,0.23l-0.04,0.22l-0.04,0.23l0.04,0.22l0.04,0.23l0.08,0.19l0.11,0.23l0.15,0.15l0.19,0.15l0.19,0.11l0.19,0.11l0.23,0.04
	l0.23,0.04l0.19-0.04l0.23-0.04l0.23-0.11l0.19-0.11l0.15-0.15l0.15-0.15l0.11-0.23l0.08-0.19l0.04-0.23L185.67,40.7h0.91
	l-0.04-0.38l-0.08-0.37l-0.15-0.34l-0.19-0.34l-0.23-0.3l-0.27-0.22l-0.34-0.19l-0.3-0.15l-0.38-0.11h-0.72l-0.34,0.11l-0.34,0.15
	l-0.3,0.19l-0.3,0.22l-0.23,0.3l-0.19,0.34l-0.15,0.34l-0.08,0.37l-0.04,0.38l0.04,0.37l0.08,0.38l0.15,0.34l0.19,0.3l0.23,0.3
	l0.3,0.26l0.3,0.19l0.34,0.15l0.34,0.08l0.38,0.04l0.34-0.04l0.38-0.08l0.3-0.15l0.34-0.19l0.27-0.26l0.23-0.3l0.19-0.3l0.15-0.34
	l0.08-0.38l0.04-0.37 M157.04,47.94L157,47.72l-0.04-0.22l-0.08-0.19l-0.11-0.23l-0.15-0.15l-0.15-0.15l-0.19-0.11l-0.23-0.11
	l-0.19-0.04l-0.23-0.04l-0.23,0.04l-0.23,0.04l-0.19,0.11l-0.19,0.11l-0.19,0.15l-0.11,0.15l-0.15,0.23l-0.08,0.19l-0.04,0.22
	l-0.04,0.23l0.04,0.22l0.04,0.23l0.08,0.22l0.15,0.19l0.11,0.19l0.19,0.15l0.19,0.11l0.19,0.07l0.23,0.08h0.46l0.19-0.08l0.23-0.07
	l0.19-0.11l0.15-0.15l0.15-0.19l0.11-0.19l0.08-0.22l0.04-0.23L157.04,47.94h0.91l-0.04-0.38l-0.08-0.34l-0.15-0.37l-0.19-0.3
	l-0.23-0.3L157,45.99l-0.3-0.19l-0.34-0.15l-0.38-0.08l-0.34-0.04l-0.38,0.04l-0.34,0.08l-0.34,0.15l-0.3,0.19l-0.3,0.26l-0.23,0.3
	l-0.19,0.3l-0.15,0.37l-0.08,0.34l-0.04,0.38l0.04,0.37l0.08,0.38l0.15,0.34l0.19,0.34l0.23,0.3l0.3,0.23l0.3,0.22l0.34,0.11
	l0.34,0.11l0.38,0.04l0.34-0.04l0.38-0.11l0.34-0.11l0.3-0.22l0.27-0.23l0.23-0.3l0.19-0.34l0.15-0.34l0.08-0.38l0.04-0.37
	 M149.79,64.23l-0.04-0.22l-0.04-0.23l-0.08-0.22l-0.15-0.19l-0.11-0.19l-0.19-0.15l-0.19-0.11l-0.19-0.07l-0.23-0.08h-0.46
	l-0.19,0.08l-0.23,0.07l-0.19,0.11l-0.15,0.15l-0.15,0.19l-0.11,0.19l-0.08,0.22l-0.08,0.23v0.45l0.08,0.22l0.08,0.23l0.11,0.19
	l0.15,0.15l0.15,0.15l0.19,0.15l0.23,0.07l0.19,0.04l0.23,0.04l0.23-0.04l0.23-0.04l0.19-0.07l0.19-0.15l0.19-0.15l0.11-0.15
	l0.15-0.19l0.08-0.23l0.04-0.22L149.79,64.23h0.91l-0.04-0.37l-0.08-0.38l-0.15-0.34l-0.19-0.34l-0.23-0.3l-0.3-0.23l-0.3-0.19
	l-0.34-0.15l-0.34-0.11H148l-0.38,0.11l-0.34,0.15l-0.3,0.19l-0.27,0.23l-0.23,0.3l-0.19,0.34l-0.15,0.34l-0.08,0.38l-0.04,0.37
	l0.04,0.38l0.08,0.37l0.15,0.34l0.19,0.34l0.23,0.26l0.27,0.26l0.3,0.19l0.34,0.15L148,66.6l0.34,0.04l0.38-0.04l0.34-0.08
	l0.34-0.15l0.3-0.19l0.3-0.26l0.23-0.26l0.19-0.34l0.15-0.34l0.08-0.37l0.04-0.38"/>
<path class="st2" d="M207.44,78.87V13.79 M207.44,78.87h62.91"/>
<polyline class="st3" points="207.44,78.87 270.36,78.87 270.36,13.79 207.44,13.79 207.44,78.87 "/>
<polygon class="st4" points="216.9,61.4 215.7,62.58 216.9,63.76 218.09,62.58 "/>
<line class="st4" x1="216.9" y1="62.67" x2="216.9" y2="62.49"/>
<polygon class="st4" points="213.74,71.19 212.55,72.37 213.74,73.56 214.94,72.37 "/>
<line class="st4" x1="213.74" y1="72.47" x2="213.74" y2="72.28"/>
<polygon class="st4" points="220.01,58.17 218.81,59.35 220.01,60.53 221.21,59.35 "/>
<line class="st4" x1="220.01" y1="59.44" x2="220.01" y2="59.26"/>
<polygon class="st4" points="213.74,58.17 212.55,59.35 213.74,60.53 214.94,59.35 "/>
<line class="st4" x1="213.74" y1="59.44" x2="213.74" y2="59.26"/>
<polygon class="st4" points="220.01,64.66 218.81,65.84 220.01,67.03 221.21,65.84 "/>
<line class="st4" x1="220.01" y1="65.94" x2="220.01" y2="65.75"/>
<polygon class="st4" points="213.74,64.66 212.55,65.84 213.74,67.03 214.94,65.84 "/>
<line class="st4" x1="213.74" y1="65.94" x2="213.74" y2="65.75"/>
<polygon class="st4" points="216.9,67.93 215.7,69.11 216.9,70.29 218.09,69.11 "/>
<line class="st4" x1="216.9" y1="69.2" x2="216.9" y2="69.02"/>
<polygon class="st4" points="216.9,54.9 215.7,56.09 216.9,57.27 218.09,56.09 "/>
<line class="st4" x1="216.9" y1="56.18" x2="216.9" y2="55.99"/>
<polygon class="st4" points="223.16,61.4 221.96,62.58 223.16,63.76 224.36,62.58 "/>
<line class="st4" x1="223.16" y1="62.67" x2="223.16" y2="62.49"/>
<polygon class="st4" points="219.71,67.93 218.51,69.11 219.71,70.29 220.9,69.11 "/>
<line class="st4" x1="219.71" y1="69.2" x2="219.71" y2="69.02"/>
<line class="st4" x1="229.46" y1="50.78" x2="229.46" y2="48.41"/>
<line class="st4" x1="228.27" y1="49.59" x2="230.66" y2="49.59"/>
<line class="st4" x1="229.46" y1="57.27" x2="229.46" y2="54.9"/>
<line class="st4" x1="228.27" y1="56.09" x2="230.66" y2="56.09"/>
<line class="st4" x1="223.16" y1="50.78" x2="223.16" y2="48.41"/>
<line class="st4" x1="221.96" y1="49.59" x2="224.36" y2="49.59"/>
<line class="st4" x1="226.31" y1="54" x2="226.31" y2="51.64"/>
<line class="st4" x1="225.12" y1="52.82" x2="227.51" y2="52.82"/>
<line class="st4" x1="226.31" y1="41.02" x2="226.31" y2="38.65"/>
<line class="st4" x1="225.12" y1="39.83" x2="227.51" y2="39.83"/>
<line class="st4" x1="220.01" y1="54" x2="220.01" y2="51.64"/>
<line class="st4" x1="218.81" y1="52.82" x2="221.21" y2="52.82"/>
<line class="st4" x1="226.31" y1="47.51" x2="226.31" y2="45.14"/>
<line class="st4" x1="225.12" y1="46.33" x2="227.51" y2="46.33"/>
<line class="st4" x1="220.01" y1="47.51" x2="220.01" y2="45.14"/>
<line class="st4" x1="218.81" y1="46.33" x2="221.21" y2="46.33"/>
<line class="st4" x1="223.16" y1="57.27" x2="223.16" y2="54.9"/>
<line class="st4" x1="221.96" y1="56.09" x2="224.36" y2="56.09"/>
<line class="st4" x1="229.46" y1="44.24" x2="229.46" y2="41.88"/>
<line class="st4" x1="228.27" y1="43.06" x2="230.66" y2="43.06"/>
<line class="st4" x1="223.16" y1="44.24" x2="223.16" y2="41.88"/>
<line class="st4" x1="221.96" y1="43.06" x2="224.36" y2="43.06"/>
<rect x="240.84" y="35.39" class="st4" width="2.39" height="2.36"/>
<line class="st4" x1="242.03" y1="36.66" x2="242.03" y2="36.48"/>
<rect x="253.44" y="22.36" class="st4" width="2.39" height="2.36"/>
<line class="st4" x1="254.64" y1="23.64" x2="254.64" y2="23.45"/>
<rect x="237.72" y="38.65" class="st4" width="2.39" height="2.37"/>
<line class="st4" x1="238.92" y1="39.93" x2="238.92" y2="39.74"/>
<rect x="250.29" y="25.63" class="st4" width="2.39" height="2.36"/>
<line class="st4" x1="251.49" y1="26.9" x2="251.49" y2="26.72"/>
<rect x="250.29" y="28.86" class="st4" width="2.39" height="2.37"/>
<line class="st4" x1="251.49" y1="30.13" x2="251.49" y2="29.94"/>
<rect x="256.59" y="25.63" class="st4" width="2.39" height="2.36"/>
<line class="st4" x1="257.79" y1="26.9" x2="257.79" y2="26.72"/>
<rect x="250.29" y="38.65" class="st4" width="2.39" height="2.37"/>
<line class="st4" x1="251.49" y1="39.93" x2="251.49" y2="39.74"/>
<rect x="247.14" y="32.12" class="st4" width="2.39" height="2.36"/>
<line class="st4" x1="248.33" y1="33.4" x2="248.33" y2="33.21"/>
<rect x="259.71" y="45.14" class="st4" width="2.39" height="2.36"/>
<line class="st4" x1="260.9" y1="46.42" x2="260.9" y2="46.23"/>
<rect x="253.44" y="35.39" class="st4" width="2.39" height="2.36"/>
<line class="st4" x1="254.64" y1="36.66" x2="254.64" y2="36.48"/>
<line class="st4" x1="250.29" y1="64.66" x2="252.68" y2="67.03"/>
<line class="st4" x1="250.29" y1="67.03" x2="252.68" y2="64.66"/>
<line class="st4" x1="250.29" y1="51.64" x2="252.68" y2="54"/>
<line class="st4" x1="250.29" y1="54" x2="252.68" y2="51.64"/>
<line class="st4" x1="256.59" y1="58.17" x2="258.98" y2="60.53"/>
<line class="st4" x1="256.59" y1="60.53" x2="258.98" y2="58.17"/>
<line class="st4" x1="256.59" y1="51.64" x2="258.98" y2="54"/>
<line class="st4" x1="256.59" y1="54" x2="258.98" y2="51.64"/>
<line class="st4" x1="253.44" y1="61.4" x2="255.83" y2="63.76"/>
<line class="st4" x1="253.44" y1="63.76" x2="255.83" y2="61.4"/>
<line class="st4" x1="253.44" y1="61.4" x2="255.83" y2="63.76"/>
<line class="st4" x1="253.44" y1="63.76" x2="255.83" y2="61.4"/>
<line class="st4" x1="259.71" y1="54.9" x2="262.1" y2="57.27"/>
<line class="st4" x1="259.71" y1="57.27" x2="262.1" y2="54.9"/>
<line class="st4" x1="259.71" y1="48.41" x2="262.1" y2="50.78"/>
<line class="st4" x1="259.71" y1="50.78" x2="262.1" y2="48.41"/>
<line class="st4" x1="243.99" y1="51.64" x2="246.38" y2="54"/>
<line class="st4" x1="243.99" y1="54" x2="246.38" y2="51.64"/>
<path class="st4" d="M255.13,58.86v-0.22l-0.04-0.23l-0.11-0.19L254.86,58l-0.15-0.15l-0.15-0.15l-0.19-0.11l-0.19-0.11l-0.23-0.04
	l-0.23-0.04l-0.23,0.04l-0.19,0.04l-0.23,0.11l-0.19,0.11l-0.15,0.15L252.59,58l-0.11,0.22l-0.08,0.19l-0.08,0.23v0.49l0.08,0.19
	l0.08,0.23l0.11,0.19l0.15,0.19l0.15,0.15l0.19,0.11l0.23,0.11l0.19,0.04h0.46l0.23-0.04l0.19-0.11l0.19-0.11l0.15-0.15l0.15-0.19
	l0.11-0.19l0.11-0.23l0.04-0.19V58.86h0.91v-0.37l-0.11-0.34l-0.11-0.38l-0.19-0.3l-0.27-0.3l-0.27-0.22l-0.3-0.23l-0.34-0.15
	l-0.34-0.07l-0.38-0.04l-0.38,0.04L253,56.57l-0.34,0.15l-0.3,0.23l-0.27,0.22l-0.27,0.3l-0.19,0.3l-0.11,0.38l-0.08,0.34
	l-0.04,0.37l0.04,0.38l0.08,0.37l0.11,0.38l0.19,0.3l0.27,0.3l0.27,0.22l0.3,0.23l0.34,0.11l0.34,0.11l0.38,0.04l0.38-0.04
	l0.34-0.11l0.34-0.11l0.3-0.23l0.27-0.22l0.27-0.3l0.19-0.3l0.11-0.38l0.11-0.37v-0.38 M253.95,36.83l-0.04-0.22l-0.04-0.23
	l-0.08-0.22l-0.11-0.19l-0.15-0.15l-0.19-0.15l-0.19-0.15l-0.19-0.07l-0.23-0.04l-0.19-0.04l-0.23,0.04l-0.23,0.04l-0.19,0.07
	l-0.19,0.15l-0.19,0.15l-0.15,0.15l-0.11,0.19l-0.08,0.22l-0.04,0.23l-0.04,0.22l0.04,0.23l0.04,0.22l0.08,0.23l0.11,0.19l0.15,0.19
	l0.19,0.15l0.19,0.11l0.19,0.07l0.23,0.08h0.42l0.23-0.08l0.19-0.07l0.19-0.11l0.19-0.15l0.15-0.19l0.11-0.19l0.08-0.23l0.04-0.22
	L253.95,36.83h0.91l-0.04-0.37l-0.08-0.38l-0.15-0.34l-0.19-0.34l-0.23-0.26l-0.27-0.26l-0.34-0.19l-0.34-0.15l-0.34-0.08
	l-0.34-0.04l-0.38,0.04l-0.34,0.08l-0.34,0.15l-0.34,0.19l-0.27,0.26l-0.23,0.26l-0.19,0.34l-0.15,0.34l-0.08,0.38l-0.04,0.37
	l0.04,0.38l0.08,0.37l0.15,0.34l0.19,0.34l0.23,0.26l0.27,0.26l0.34,0.19l0.34,0.15l0.34,0.08l0.38,0.04l0.34-0.04l0.34-0.08
	l0.34-0.15l0.34-0.19l0.27-0.26l0.23-0.26l0.19-0.34l0.15-0.34l0.08-0.37l0.04-0.38 M226.58,48.69v-0.23l-0.08-0.22l-0.08-0.23
	l-0.11-0.19l-0.15-0.19l-0.15-0.15l-0.19-0.11l-0.23-0.07l-0.19-0.04l-0.23-0.04l-0.23,0.04l-0.23,0.04l-0.19,0.07l-0.19,0.11
	l-0.15,0.15l-0.15,0.19l-0.11,0.19l-0.08,0.23l-0.08,0.22v0.45l0.08,0.23l0.08,0.22l0.11,0.19l0.15,0.19l0.15,0.15l0.19,0.11
	l0.19,0.07l0.23,0.08h0.46l0.19-0.08l0.23-0.07l0.19-0.11l0.15-0.15l0.15-0.19l0.11-0.19l0.08-0.22l0.08-0.23V48.69h0.91v-0.38
	l-0.11-0.37l-0.11-0.34l-0.19-0.34L226.81,47l-0.27-0.26l-0.3-0.19l-0.34-0.15l-0.34-0.08l-0.38-0.04l-0.38,0.04l-0.34,0.08
	l-0.34,0.15l-0.3,0.19L223.54,47l-0.27,0.26l-0.19,0.34l-0.11,0.34l-0.11,0.37v0.75l0.11,0.38l0.11,0.34l0.19,0.34l0.27,0.26
	l0.27,0.26l0.3,0.19l0.34,0.15l0.34,0.08l0.38,0.04l0.38-0.04l0.34-0.08l0.34-0.15l0.3-0.19l0.27-0.26l0.27-0.26l0.19-0.34
	l0.11-0.34l0.11-0.38v-0.37 M218.91,64.23l-0.04-0.22l-0.04-0.23l-0.08-0.22l-0.15-0.19l-0.11-0.19l-0.19-0.15l-0.19-0.11
	l-0.19-0.07l-0.23-0.08h-0.46l-0.19,0.08l-0.23,0.07l-0.19,0.11l-0.15,0.15l-0.15,0.19l-0.11,0.19l-0.08,0.22l-0.08,0.23v0.45
	l0.08,0.22l0.08,0.23l0.11,0.19l0.15,0.15l0.15,0.15l0.19,0.15l0.23,0.07l0.19,0.04l0.23,0.04l0.23-0.04l0.23-0.04l0.19-0.07
	l0.19-0.15l0.19-0.15l0.11-0.15l0.15-0.19l0.08-0.23l0.04-0.22L218.91,64.23h0.91l-0.04-0.37l-0.08-0.38l-0.15-0.34l-0.19-0.34
	l-0.23-0.3l-0.3-0.23l-0.3-0.19l-0.34-0.15l-0.34-0.11h-0.72l-0.38,0.11l-0.34,0.15l-0.3,0.19l-0.27,0.23l-0.23,0.3l-0.19,0.34
	l-0.15,0.34l-0.08,0.38l-0.04,0.37l0.04,0.38l0.08,0.37l0.15,0.34l0.19,0.34l0.23,0.26l0.27,0.26l0.3,0.19l0.34,0.15l0.38,0.08
	l0.34,0.04l0.38-0.04l0.34-0.08l0.34-0.15l0.3-0.19l0.3-0.26l0.23-0.26l0.19-0.34l0.15-0.34l0.08-0.37l0.04-0.38"/>
<path class="st2" d="M276.45,78.87V13.79 M276.45,78.87h62.91"/>
<polyline class="st3" points="276.45,78.87 339.37,78.87 339.37,13.79 276.45,13.79 276.45,78.87 "/>
<polygon class="st4" points="285.91,61.4 284.71,62.58 285.91,63.76 287.1,62.58 "/>
<line class="st4" x1="285.91" y1="62.67" x2="285.91" y2="62.49"/>
<polygon class="st4" points="282.76,71.19 281.56,72.37 282.76,73.56 283.95,72.37 "/>
<line class="st4" x1="282.76" y1="72.47" x2="282.76" y2="72.28"/>
<polygon class="st4" points="289.02,58.17 287.83,59.35 289.02,60.53 290.22,59.35 "/>
<line class="st4" x1="289.02" y1="59.44" x2="289.02" y2="59.26"/>
<polygon class="st4" points="282.76,58.17 281.56,59.35 282.76,60.53 283.95,59.35 "/>
<line class="st4" x1="282.76" y1="59.44" x2="282.76" y2="59.26"/>
<polygon class="st4" points="289.02,64.66 287.83,65.84 289.02,67.03 290.22,65.84 "/>
<line class="st4" x1="289.02" y1="65.94" x2="289.02" y2="65.75"/>
<polygon class="st4" points="282.76,64.66 281.56,65.84 282.76,67.03 283.95,65.84 "/>
<line class="st4" x1="282.76" y1="65.94" x2="282.76" y2="65.75"/>
<polygon class="st4" points="285.91,67.93 284.71,69.11 285.91,70.29 287.1,69.11 "/>
<line class="st4" x1="285.91" y1="69.2" x2="285.91" y2="69.02"/>
<polygon class="st4" points="285.91,54.9 284.71,56.09 285.91,57.27 287.1,56.09 "/>
<line class="st4" x1="285.91" y1="56.18" x2="285.91" y2="55.99"/>
<polygon class="st4" points="292.17,61.4 290.98,62.58 292.17,63.76 293.37,62.58 "/>
<line class="st4" x1="292.17" y1="62.67" x2="292.17" y2="62.49"/>
<polygon class="st4" points="288.72,67.93 287.52,69.11 288.72,70.29 289.91,69.11 "/>
<line class="st4" x1="288.72" y1="69.2" x2="288.72" y2="69.02"/>
<line class="st4" x1="298.48" y1="50.78" x2="298.48" y2="48.41"/>
<line class="st4" x1="297.28" y1="49.59" x2="299.67" y2="49.59"/>
<line class="st4" x1="298.48" y1="57.27" x2="298.48" y2="54.9"/>
<line class="st4" x1="297.28" y1="56.09" x2="299.67" y2="56.09"/>
<line class="st4" x1="292.17" y1="50.78" x2="292.17" y2="48.41"/>
<line class="st4" x1="290.98" y1="49.59" x2="293.37" y2="49.59"/>
<line class="st4" x1="295.32" y1="54" x2="295.32" y2="51.64"/>
<line class="st4" x1="294.13" y1="52.82" x2="296.52" y2="52.82"/>
<line class="st4" x1="295.32" y1="41.02" x2="295.32" y2="38.65"/>
<line class="st4" x1="294.13" y1="39.83" x2="296.52" y2="39.83"/>
<line class="st4" x1="289.02" y1="54" x2="289.02" y2="51.64"/>
<line class="st4" x1="287.83" y1="52.82" x2="290.22" y2="52.82"/>
<line class="st4" x1="295.32" y1="47.51" x2="295.32" y2="45.14"/>
<line class="st4" x1="294.13" y1="46.33" x2="296.52" y2="46.33"/>
<line class="st4" x1="289.02" y1="47.51" x2="289.02" y2="45.14"/>
<line class="st4" x1="287.83" y1="46.33" x2="290.22" y2="46.33"/>
<line class="st4" x1="292.17" y1="57.27" x2="292.17" y2="54.9"/>
<line class="st4" x1="290.98" y1="56.09" x2="293.37" y2="56.09"/>
<line class="st4" x1="298.48" y1="44.24" x2="298.48" y2="41.88"/>
<line class="st4" x1="297.28" y1="43.06" x2="299.67" y2="43.06"/>
<line class="st4" x1="292.17" y1="44.24" x2="292.17" y2="41.88"/>
<line class="st4" x1="290.98" y1="43.06" x2="293.37" y2="43.06"/>
<rect x="309.85" y="35.39" class="st4" width="2.39" height="2.36"/>
<line class="st4" x1="311.04" y1="36.66" x2="311.04" y2="36.48"/>
<rect x="322.45" y="22.36" class="st4" width="2.39" height="2.36"/>
<line class="st4" x1="323.65" y1="23.64" x2="323.65" y2="23.45"/>
<rect x="306.73" y="38.65" class="st4" width="2.39" height="2.37"/>
<line class="st4" x1="307.93" y1="39.93" x2="307.93" y2="39.74"/>
<rect x="319.3" y="25.63" class="st4" width="2.39" height="2.36"/>
<line class="st4" x1="320.5" y1="26.9" x2="320.5" y2="26.72"/>
<rect x="319.3" y="28.86" class="st4" width="2.39" height="2.37"/>
<line class="st4" x1="320.5" y1="30.13" x2="320.5" y2="29.94"/>
<rect x="325.6" y="25.63" class="st4" width="2.39" height="2.36"/>
<line class="st4" x1="326.8" y1="26.9" x2="326.8" y2="26.72"/>
<rect x="319.3" y="38.65" class="st4" width="2.39" height="2.37"/>
<line class="st4" x1="320.5" y1="39.93" x2="320.5" y2="39.74"/>
<rect x="316.15" y="32.12" class="st4" width="2.39" height="2.36"/>
<line class="st4" x1="317.35" y1="33.4" x2="317.35" y2="33.21"/>
<rect x="322.45" y="35.39" class="st4" width="2.39" height="2.36"/>
<line class="st4" x1="323.65" y1="36.66" x2="323.65" y2="36.48"/>
<line class="st4" x1="319.3" y1="64.66" x2="321.69" y2="67.03"/>
<line class="st4" x1="319.3" y1="67.03" x2="321.69" y2="64.66"/>
<line class="st4" x1="319.3" y1="51.64" x2="321.69" y2="54"/>
<line class="st4" x1="319.3" y1="54" x2="321.69" y2="51.64"/>
<line class="st4" x1="325.6" y1="58.17" x2="328" y2="60.53"/>
<line class="st4" x1="325.6" y1="60.53" x2="328" y2="58.17"/>
<line class="st4" x1="325.6" y1="51.64" x2="328" y2="54"/>
<line class="st4" x1="325.6" y1="54" x2="328" y2="51.64"/>
<line class="st4" x1="322.45" y1="61.4" x2="324.85" y2="63.76"/>
<line class="st4" x1="322.45" y1="63.76" x2="324.85" y2="61.4"/>
<line class="st4" x1="328.72" y1="45.14" x2="331.11" y2="47.51"/>
<line class="st4" x1="328.72" y1="47.51" x2="331.11" y2="45.14"/>
<line class="st4" x1="322.45" y1="61.4" x2="324.85" y2="63.76"/>
<line class="st4" x1="322.45" y1="63.76" x2="324.85" y2="61.4"/>
<line class="st4" x1="328.72" y1="54.9" x2="331.11" y2="57.27"/>
<line class="st4" x1="328.72" y1="57.27" x2="331.11" y2="54.9"/>
<line class="st4" x1="328.72" y1="48.41" x2="331.11" y2="50.78"/>
<line class="st4" x1="328.72" y1="50.78" x2="331.11" y2="48.41"/>
<line class="st4" x1="313" y1="51.64" x2="315.39" y2="54"/>
<line class="st4" x1="313" y1="54" x2="315.39" y2="51.64"/>
<path class="st4" d="M325.4,57.17v-0.22l-0.08-0.23l-0.08-0.22l-0.11-0.19l-0.15-0.19l-0.15-0.15l-0.19-0.11l-0.23-0.07l-0.19-0.08
	h-0.46l-0.23,0.08l-0.19,0.07l-0.19,0.11L323,56.12l-0.15,0.19l-0.11,0.19l-0.11,0.22l-0.04,0.23v0.45l0.04,0.22l0.11,0.23
	l0.11,0.19l0.15,0.19l0.15,0.15l0.19,0.11l0.19,0.07l0.23,0.07h0.46l0.19-0.07l0.23-0.07l0.19-0.11l0.15-0.15l0.15-0.19l0.11-0.19
	l0.08-0.23l0.08-0.22V57.17h0.91V56.8l-0.11-0.38l-0.11-0.34l-0.19-0.34l-0.27-0.26l-0.27-0.26l-0.3-0.19l-0.34-0.15l-0.34-0.08
	l-0.38-0.04l-0.38,0.04l-0.34,0.08l-0.34,0.15l-0.3,0.19l-0.27,0.26l-0.27,0.26l-0.19,0.34l-0.11,0.34l-0.11,0.38v0.75l0.11,0.37
	l0.11,0.34l0.19,0.34l0.27,0.26l0.27,0.26l0.3,0.19l0.34,0.15l0.34,0.07l0.38,0.04l0.38-0.04l0.34-0.07l0.34-0.15l0.3-0.19
	l0.27-0.26l0.27-0.26l0.19-0.34l0.11-0.34l0.11-0.37v-0.38 M321.6,33.98l-0.04-0.26l-0.04-0.22l-0.08-0.19l-0.11-0.19l-0.15-0.19
	l-0.15-0.15l-0.19-0.11l-0.23-0.11l-0.23-0.04h-0.42l-0.23,0.04l-0.19,0.11l-0.19,0.11l-0.19,0.15l-0.15,0.19l-0.11,0.19l-0.08,0.19
	l-0.04,0.22l-0.04,0.26l0.04,0.23l0.04,0.22l0.08,0.19l0.11,0.19l0.15,0.19l0.19,0.15l0.19,0.11l0.19,0.11l0.23,0.04l0.23,0.04
	l0.19-0.04l0.23-0.04l0.23-0.11l0.19-0.11l0.15-0.15l0.15-0.19l0.11-0.19l0.08-0.19l0.04-0.22L321.6,33.98h0.91l-0.04-0.37
	l-0.08-0.38l-0.15-0.37l-0.19-0.3l-0.23-0.3l-0.27-0.23l-0.34-0.22l-0.3-0.11l-0.38-0.11l-0.34-0.04l-0.38,0.04l-0.34,0.11
	l-0.34,0.11l-0.3,0.22l-0.3,0.23l-0.23,0.3l-0.19,0.3l-0.15,0.37l-0.08,0.38l-0.04,0.37l0.04,0.38l0.08,0.34l0.15,0.37l0.19,0.3
	l0.23,0.3l0.3,0.23l0.3,0.22l0.34,0.15l0.34,0.08l0.38,0.04l0.34-0.04l0.38-0.08l0.3-0.15l0.34-0.22l0.27-0.23l0.23-0.3l0.19-0.3
	l0.15-0.37l0.08-0.34l0.04-0.38 M295.59,48.69v-0.23l-0.08-0.22l-0.08-0.23l-0.11-0.19l-0.15-0.19l-0.15-0.15l-0.19-0.11l-0.23-0.07
	l-0.19-0.04l-0.23-0.04l-0.23,0.04l-0.23,0.04l-0.19,0.07l-0.19,0.11l-0.15,0.15l-0.15,0.19l-0.11,0.19l-0.08,0.23l-0.08,0.22v0.45
	l0.08,0.23l0.08,0.22l0.11,0.19l0.15,0.19l0.15,0.15l0.19,0.11l0.19,0.07l0.23,0.08h0.46l0.19-0.08l0.23-0.07l0.19-0.11l0.15-0.15
	l0.15-0.19l0.11-0.19l0.08-0.22l0.08-0.23V48.69h0.91v-0.38l-0.11-0.37l-0.11-0.34l-0.19-0.34L295.82,47l-0.27-0.26l-0.3-0.19
	l-0.34-0.15l-0.34-0.08l-0.38-0.04l-0.38,0.04l-0.34,0.08l-0.34,0.15l-0.3,0.19L292.55,47l-0.27,0.26l-0.19,0.34l-0.11,0.34
	l-0.11,0.37v0.75l0.11,0.38l0.11,0.34l0.19,0.34l0.27,0.26l0.27,0.26l0.3,0.19l0.34,0.15l0.34,0.08l0.38,0.04l0.38-0.04l0.34-0.08
	l0.34-0.15l0.3-0.19l0.27-0.26l0.27-0.26l0.19-0.34l0.11-0.34l0.11-0.38v-0.37 M287.92,64.23l-0.04-0.22l-0.04-0.23l-0.08-0.22
	l-0.15-0.19l-0.11-0.19l-0.19-0.15l-0.19-0.11l-0.19-0.07l-0.23-0.08h-0.46l-0.19,0.08l-0.23,0.07l-0.19,0.11l-0.15,0.15l-0.15,0.19
	l-0.11,0.19l-0.08,0.22l-0.08,0.23v0.45l0.08,0.22l0.08,0.23l0.11,0.19l0.15,0.15l0.15,0.15l0.19,0.15l0.23,0.07l0.19,0.04
	l0.23,0.04l0.23-0.04l0.23-0.04l0.19-0.07l0.19-0.15l0.19-0.15l0.11-0.15l0.15-0.19l0.08-0.23l0.04-0.22L287.92,64.23h0.91
	l-0.04-0.37l-0.08-0.38l-0.15-0.34l-0.19-0.34l-0.23-0.3l-0.3-0.23l-0.3-0.19l-0.34-0.15l-0.34-0.11h-0.72l-0.38,0.11l-0.34,0.15
	l-0.3,0.19l-0.27,0.23l-0.23,0.3l-0.19,0.34l-0.15,0.34l-0.08,0.38l-0.04,0.37l0.04,0.38l0.08,0.37l0.15,0.34l0.19,0.34l0.23,0.26
	l0.27,0.26l0.3,0.19l0.34,0.15l0.38,0.08l0.34,0.04l0.38-0.04l0.34-0.08l0.34-0.15l0.3-0.19l0.3-0.26l0.23-0.26l0.19-0.34l0.15-0.34
	l0.08-0.37l0.04-0.38"/>
<text transform="matrix(1 0 0 1 3.8334 105.5137)"><tspan x="0" y="0" class="st0 st1">R</tspan><tspan x="5.36" y="0" class="st0 st1">u</tspan><tspan x="10.73" y="0" class="st0 st1">n</tspan></text>
<text transform="matrix(1 0 0 1 23.3735 105.5137)" class="st0 st1">2</text>
<path class="st2" d="M0.19,176.5v-65.08 M0.19,176.5H63.1"/>
<polyline class="st3" points="0.19,176.5 63.1,176.5 63.1,111.42 0.19,111.42 0.19,176.5 "/>
<polygon class="st4" points="9.64,159.03 8.45,160.21 9.64,161.39 10.84,160.21 "/>
<line class="st4" x1="9.64" y1="160.3" x2="9.64" y2="160.12"/>
<polygon class="st4" points="22.21,152.53 21.01,153.72 22.21,154.9 23.41,153.72 "/>
<line class="st4" x1="22.21" y1="153.81" x2="22.21" y2="153.62"/>
<polygon class="st4" points="15.91,146.04 14.71,147.22 15.91,148.41 17.1,147.22 "/>
<line class="st4" x1="15.91" y1="147.32" x2="15.91" y2="147.13"/>
<polygon class="st4" points="19.06,149.27 17.86,150.45 19.06,151.63 20.26,150.45 "/>
<line class="st4" x1="19.06" y1="150.55" x2="19.06" y2="150.36"/>
<polygon class="st4" points="12.76,149.27 11.56,150.45 12.76,151.63 13.95,150.45 "/>
<line class="st4" x1="12.76" y1="150.55" x2="12.76" y2="150.36"/>
<polygon class="st4" points="12.76,155.8 11.56,156.98 12.76,158.17 13.95,156.98 "/>
<line class="st4" x1="12.76" y1="157.08" x2="12.76" y2="156.89"/>
<polygon class="st4" points="6.49,155.8 5.3,156.98 6.49,158.17 7.69,156.98 "/>
<line class="st4" x1="6.49" y1="157.08" x2="6.49" y2="156.89"/>
<polygon class="st4" points="12.76,142.78 11.56,143.96 12.76,145.14 13.95,143.96 "/>
<line class="st4" x1="12.76" y1="144.05" x2="12.76" y2="143.87"/>
<polygon class="st4" points="15.91,152.53 14.71,153.72 15.91,154.9 17.1,153.72 "/>
<line class="st4" x1="15.91" y1="153.81" x2="15.91" y2="153.62"/>
<polygon class="st4" points="9.64,152.53 8.45,153.72 9.64,154.9 10.84,153.72 "/>
<line class="st4" x1="9.64" y1="153.81" x2="9.64" y2="153.62"/>
<polygon class="st4" points="15.91,159.03 14.71,160.21 15.91,161.39 17.1,160.21 "/>
<line class="st4" x1="15.91" y1="160.3" x2="15.91" y2="160.12"/>
<line class="st4" x1="6.49" y1="171.19" x2="6.49" y2="168.82"/>
<line class="st4" x1="5.3" y1="170.01" x2="7.69" y2="170.01"/>
<line class="st4" x1="12.76" y1="164.66" x2="12.76" y2="162.29"/>
<line class="st4" x1="11.56" y1="163.48" x2="13.95" y2="163.48"/>
<line class="st4" x1="9.64" y1="167.92" x2="9.64" y2="165.56"/>
<line class="st4" x1="8.45" y1="166.74" x2="10.84" y2="166.74"/>
<line class="st4" x1="12.45" y1="167.92" x2="12.45" y2="165.56"/>
<line class="st4" x1="11.26" y1="166.74" x2="13.65" y2="166.74"/>
<rect x="5.3" y="162.29" class="st4" width="2.39" height="2.36"/>
<line class="st4" x1="6.49" y1="163.57" x2="6.49" y2="163.38"/>
<line class="st4" x1="21.01" y1="146.04" x2="23.41" y2="148.41"/>
<line class="st4" x1="21.01" y1="148.41" x2="23.41" y2="146.04"/>
<line class="st4" x1="33.58" y1="133.02" x2="35.97" y2="135.38"/>
<line class="st4" x1="33.58" y1="135.38" x2="35.97" y2="133.02"/>
<line class="st4" x1="46.19" y1="119.99" x2="48.58" y2="122.36"/>
<line class="st4" x1="46.19" y1="122.36" x2="48.58" y2="119.99"/>
<line class="st4" x1="30.47" y1="136.28" x2="32.86" y2="138.65"/>
<line class="st4" x1="30.47" y1="138.65" x2="32.86" y2="136.28"/>
<line class="st4" x1="43.04" y1="123.26" x2="45.43" y2="125.62"/>
<line class="st4" x1="43.04" y1="125.62" x2="45.43" y2="123.26"/>
<line class="st4" x1="43.04" y1="126.49" x2="45.43" y2="128.85"/>
<line class="st4" x1="43.04" y1="128.85" x2="45.43" y2="126.49"/>
<line class="st4" x1="17.86" y1="136.28" x2="20.26" y2="138.65"/>
<line class="st4" x1="17.86" y1="138.65" x2="20.26" y2="136.28"/>
<line class="st4" x1="17.86" y1="142.78" x2="20.26" y2="145.14"/>
<line class="st4" x1="17.86" y1="145.14" x2="20.26" y2="142.78"/>
<line class="st4" x1="43.04" y1="162.29" x2="45.43" y2="164.66"/>
<line class="st4" x1="43.04" y1="164.66" x2="45.43" y2="162.29"/>
<line class="st4" x1="49.34" y1="123.26" x2="51.73" y2="125.62"/>
<line class="st4" x1="49.34" y1="125.62" x2="51.73" y2="123.26"/>
<line class="st4" x1="43.04" y1="136.28" x2="45.43" y2="138.65"/>
<line class="st4" x1="43.04" y1="138.65" x2="45.43" y2="136.28"/>
<line class="st4" x1="43.04" y1="149.27" x2="45.43" y2="151.63"/>
<line class="st4" x1="43.04" y1="151.63" x2="45.43" y2="149.27"/>
<line class="st4" x1="49.34" y1="155.8" x2="51.73" y2="158.17"/>
<line class="st4" x1="49.34" y1="158.17" x2="51.73" y2="155.8"/>
<line class="st4" x1="49.34" y1="149.27" x2="51.73" y2="151.63"/>
<line class="st4" x1="49.34" y1="151.63" x2="51.73" y2="149.27"/>
<line class="st4" x1="39.89" y1="129.75" x2="42.28" y2="132.12"/>
<line class="st4" x1="39.89" y1="132.12" x2="42.28" y2="129.75"/>
<line class="st4" x1="21.01" y1="139.51" x2="23.41" y2="141.88"/>
<line class="st4" x1="21.01" y1="141.88" x2="23.41" y2="139.51"/>
<line class="st4" x1="46.19" y1="159.03" x2="48.58" y2="161.39"/>
<line class="st4" x1="46.19" y1="161.39" x2="48.58" y2="159.03"/>
<line class="st4" x1="52.45" y1="142.78" x2="54.85" y2="145.14"/>
<line class="st4" x1="52.45" y1="145.14" x2="54.85" y2="142.78"/>
<line class="st4" x1="46.19" y1="133.02" x2="48.58" y2="135.38"/>
<line class="st4" x1="46.19" y1="135.38" x2="48.58" y2="133.02"/>
<line class="st4" x1="14.71" y1="139.51" x2="17.1" y2="141.88"/>
<line class="st4" x1="14.71" y1="141.88" x2="17.1" y2="139.51"/>
<line class="st4" x1="46.19" y1="159.03" x2="48.58" y2="161.39"/>
<line class="st4" x1="46.19" y1="161.39" x2="48.58" y2="159.03"/>
<line class="st4" x1="52.45" y1="152.53" x2="54.85" y2="154.9"/>
<line class="st4" x1="52.45" y1="154.9" x2="54.85" y2="152.54"/>
<line class="st4" x1="52.45" y1="146.04" x2="54.85" y2="148.41"/>
<line class="st4" x1="52.45" y1="148.41" x2="54.85" y2="146.04"/>
<line class="st4" x1="36.73" y1="149.27" x2="39.13" y2="151.63"/>
<line class="st4" x1="36.73" y1="151.63" x2="39.13" y2="149.27"/>
<path class="st4" d="M28.78,139.68l-0.04-0.23l-0.04-0.22l-0.08-0.19l-0.11-0.22l-0.15-0.15l-0.19-0.15l-0.19-0.11l-0.19-0.11
	l-0.23-0.04l-0.23-0.04l-0.19,0.04l-0.23,0.04l-0.23,0.11l-0.15,0.11l-0.19,0.15l-0.15,0.15l-0.11,0.22l-0.08,0.19l-0.04,0.22
	l-0.04,0.23l0.04,0.22l0.04,0.23l0.08,0.22l0.11,0.19l0.15,0.19l0.19,0.15l0.15,0.11l0.23,0.08l0.23,0.07h0.42l0.23-0.07l0.19-0.08
	l0.19-0.11l0.19-0.15l0.15-0.19l0.11-0.19l0.08-0.22l0.04-0.23L28.78,139.68h0.91l-0.04-0.38l-0.08-0.37l-0.15-0.34l-0.19-0.3
	l-0.23-0.3l-0.3-0.26l-0.3-0.19l-0.34-0.15l-0.34-0.07l-0.38-0.04l-0.34,0.04l-0.38,0.07l-0.3,0.15l-0.34,0.19l-0.27,0.26l-0.23,0.3
	l-0.19,0.3l-0.15,0.34l-0.08,0.37l-0.04,0.38l0.04,0.37l0.08,0.38l0.15,0.34l0.19,0.34l0.23,0.3l0.27,0.23l0.34,0.19l0.3,0.15
	l0.38,0.11h0.72l0.34-0.11l0.34-0.15l0.3-0.19l0.3-0.23l0.23-0.3l0.19-0.34l0.15-0.34l0.08-0.38l0.04-0.37 M0.19,165.32l0.04,0.07
	l0.19,0.3l0.23,0.3l0.27,0.26l0.34,0.19l0.34,0.15l0.34,0.08l0.34,0.04l0.38-0.04L3,166.59l0.34-0.15l0.34-0.19l0.27-0.26l0.23-0.3
	l0.19-0.3l0.15-0.34l0.08-0.37l0.04-0.38 M3.72,164.3l-0.04-0.22l-0.04-0.23l-0.08-0.22l-0.11-0.19l-0.15-0.19l-0.19-0.15
	l-0.19-0.11l-0.19-0.07l-0.23-0.08H2.09l-0.23,0.08l-0.19,0.07l-0.19,0.11l-0.19,0.15l-0.15,0.19l-0.11,0.19l-0.08,0.22l-0.04,0.23
	l-0.04,0.22l0.04,0.23l0.04,0.22l0.08,0.19l0.11,0.23l0.15,0.15l0.19,0.15l0.19,0.15l0.19,0.07l0.23,0.04l0.19,0.04l0.23-0.04
	l0.23-0.04l0.19-0.07l0.19-0.15l0.19-0.15l0.15-0.15l0.11-0.23l0.08-0.19l0.04-0.22L3.72,164.3h0.91l-0.04-0.37l-0.08-0.38
	l-0.15-0.34l-0.19-0.34l-0.23-0.3l-0.27-0.23l-0.34-0.19L3,162.01l-0.34-0.11H1.94l-0.34,0.11l-0.34,0.15l-0.34,0.19l-0.27,0.23
	l-0.23,0.3l-0.19,0.34l-0.04,0.07 M7.14,168.32l-0.04-0.23l-0.04-0.22l-0.08-0.23l-0.11-0.19l-0.15-0.19l-0.19-0.15L6.34,167
	l-0.19-0.07l-0.23-0.08H5.5l-0.23,0.08L5.09,167l-0.19,0.11l-0.19,0.15l-0.15,0.19l-0.11,0.19l-0.08,0.23l-0.04,0.22l-0.04,0.23
	l0.04,0.22l0.04,0.23l0.08,0.22l0.11,0.19l0.15,0.15l0.19,0.15l0.19,0.15l0.19,0.07l0.23,0.04l0.23,0.04l0.19-0.04l0.23-0.04
	l0.19-0.07l0.19-0.15l0.19-0.15l0.15-0.15l0.11-0.19l0.08-0.22l0.04-0.23L7.14,168.32h0.91l-0.04-0.38l-0.08-0.37l-0.15-0.34
	l-0.19-0.34l-0.23-0.26l-0.27-0.26l-0.34-0.19l-0.34-0.15l-0.34-0.08l-0.34-0.04l-0.38,0.04l-0.34,0.08l-0.34,0.15l-0.34,0.19
	l-0.27,0.26l-0.23,0.26l-0.19,0.34l-0.15,0.34l-0.08,0.37l-0.04,0.38l0.04,0.37l0.08,0.38l0.15,0.34l0.19,0.34l0.23,0.26l0.27,0.26
	l0.34,0.19l0.34,0.15l0.34,0.08l0.38,0.04l0.34-0.04l0.34-0.08l0.34-0.15l0.34-0.19l0.27-0.26l0.23-0.26l0.19-0.34l0.15-0.34
	l0.08-0.38l0.04-0.37 M10.17,151.84v-0.22l-0.04-0.23l-0.11-0.19l-0.11-0.22l-0.15-0.15l-0.15-0.15l-0.19-0.15l-0.19-0.08L9,150.42
	l-0.23-0.04l-0.23,0.04l-0.19,0.04l-0.23,0.08l-0.19,0.15l-0.15,0.15l-0.15,0.15l-0.11,0.22l-0.08,0.19l-0.08,0.23v0.45l0.08,0.22
	l0.08,0.23l0.11,0.19l0.15,0.19l0.15,0.15l0.19,0.11l0.23,0.08l0.19,0.07H9l0.23-0.07l0.19-0.08l0.19-0.11l0.15-0.15l0.15-0.19
	l0.11-0.19l0.11-0.23l0.04-0.22V151.84h0.91v-0.37l-0.11-0.38l-0.11-0.34l-0.19-0.3l-0.27-0.3l-0.27-0.26l-0.3-0.19l-0.34-0.15
	l-0.34-0.07l-0.38-0.04l-0.34,0.04l-0.38,0.07l-0.34,0.15l-0.3,0.19l-0.27,0.26l-0.23,0.3l-0.19,0.3l-0.15,0.34l-0.08,0.38
	l-0.04,0.37l0.04,0.38l0.08,0.37l0.15,0.34l0.19,0.34l0.23,0.3l0.27,0.22l0.3,0.19l0.34,0.15l0.38,0.11h0.72l0.34-0.11l0.34-0.15
	l0.3-0.19l0.27-0.22l0.27-0.3l0.19-0.34l0.11-0.34l0.11-0.37v-0.38"/>
<path class="st2" d="M69.31,176.5v-65.08 M69.31,176.5h62.91"/>
<polyline class="st3" points="69.31,176.5 132.22,176.5 132.22,111.42 69.31,111.42 69.31,176.5 "/>
<polygon class="st4" points="91.33,146.04 90.14,147.22 91.33,148.41 92.53,147.22 "/>
<line class="st4" x1="91.33" y1="147.32" x2="91.33" y2="147.13"/>
<polygon class="st4" points="91.33,152.53 90.14,153.72 91.33,154.9 92.53,153.72 "/>
<line class="st4" x1="91.33" y1="153.81" x2="91.33" y2="153.62"/>
<polygon class="st4" points="85.03,146.04 83.83,147.22 85.03,148.41 86.22,147.22 "/>
<line class="st4" x1="85.03" y1="147.32" x2="85.03" y2="147.13"/>
<polygon class="st4" points="88.18,149.27 86.98,150.45 88.18,151.63 89.38,150.45 "/>
<line class="st4" x1="88.18" y1="150.55" x2="88.18" y2="150.36"/>
<polygon class="st4" points="88.18,136.28 86.98,137.47 88.18,138.65 89.38,137.47 "/>
<line class="st4" x1="88.18" y1="137.56" x2="88.18" y2="137.37"/>
<polygon class="st4" points="81.88,149.27 80.68,150.45 81.88,151.63 83.07,150.45 "/>
<line class="st4" x1="81.88" y1="150.55" x2="81.88" y2="150.36"/>
<polygon class="st4" points="81.88,155.8 80.68,156.98 81.88,158.17 83.07,156.98 "/>
<line class="st4" x1="81.88" y1="157.08" x2="81.88" y2="156.89"/>
<polygon class="st4" points="88.18,142.78 86.98,143.96 88.18,145.14 89.38,143.96 "/>
<line class="st4" x1="88.18" y1="144.05" x2="88.18" y2="143.87"/>
<polygon class="st4" points="81.88,142.78 80.68,143.96 81.88,145.14 83.07,143.96 "/>
<line class="st4" x1="81.88" y1="144.05" x2="81.88" y2="143.87"/>
<polygon class="st4" points="85.03,152.53 83.83,153.72 85.03,154.9 86.22,153.72 "/>
<line class="st4" x1="85.03" y1="153.81" x2="85.03" y2="153.62"/>
<polygon class="st4" points="91.33,139.51 90.14,140.69 91.33,141.88 92.53,140.69 "/>
<line class="st4" x1="91.33" y1="140.79" x2="91.33" y2="140.6"/>
<polygon class="st4" points="78.76,152.53 77.57,153.72 78.76,154.9 79.96,153.72 "/>
<line class="st4" x1="78.76" y1="153.81" x2="78.76" y2="153.62"/>
<polygon class="st4" points="85.03,139.51 83.83,140.69 85.03,141.88 86.22,140.69 "/>
<line class="st4" x1="85.03" y1="140.79" x2="85.03" y2="140.6"/>
<polygon class="st4" points="85.03,159.03 83.83,160.21 85.03,161.39 86.22,160.21 "/>
<line class="st4" x1="85.03" y1="160.3" x2="85.03" y2="160.12"/>
<line class="st4" x1="75.61" y1="171.19" x2="75.61" y2="168.82"/>
<line class="st4" x1="74.42" y1="170.01" x2="76.81" y2="170.01"/>
<line class="st4" x1="81.88" y1="164.66" x2="81.88" y2="162.29"/>
<line class="st4" x1="80.68" y1="163.48" x2="83.07" y2="163.48"/>
<line class="st4" x1="78.76" y1="167.92" x2="78.76" y2="165.56"/>
<line class="st4" x1="77.57" y1="166.74" x2="79.96" y2="166.74"/>
<line class="st4" x1="81.57" y1="167.92" x2="81.57" y2="165.56"/>
<line class="st4" x1="80.38" y1="166.74" x2="82.77" y2="166.74"/>
<rect x="77.57" y="159.03" class="st4" width="2.39" height="2.37"/>
<line class="st4" x1="78.76" y1="160.3" x2="78.76" y2="160.12"/>
<rect x="74.42" y="155.8" class="st4" width="2.39" height="2.36"/>
<line class="st4" x1="75.61" y1="157.08" x2="75.61" y2="156.89"/>
<rect x="74.42" y="162.29" class="st4" width="2.39" height="2.36"/>
<line class="st4" x1="75.61" y1="163.57" x2="75.61" y2="163.38"/>
<line class="st4" x1="102.7" y1="133.02" x2="105.1" y2="135.38"/>
<line class="st4" x1="102.7" y1="135.38" x2="105.1" y2="133.02"/>
<line class="st4" x1="115.31" y1="119.99" x2="117.7" y2="122.36"/>
<line class="st4" x1="115.31" y1="122.36" x2="117.7" y2="119.99"/>
<line class="st4" x1="99.59" y1="136.28" x2="101.98" y2="138.65"/>
<line class="st4" x1="99.59" y1="138.65" x2="101.98" y2="136.28"/>
<line class="st4" x1="112.16" y1="123.26" x2="114.55" y2="125.62"/>
<line class="st4" x1="112.16" y1="125.62" x2="114.55" y2="123.26"/>
<line class="st4" x1="112.16" y1="126.49" x2="114.55" y2="128.85"/>
<line class="st4" x1="112.16" y1="128.85" x2="114.55" y2="126.49"/>
<line class="st4" x1="112.16" y1="162.29" x2="114.55" y2="164.66"/>
<line class="st4" x1="112.16" y1="164.66" x2="114.55" y2="162.29"/>
<line class="st4" x1="118.46" y1="123.26" x2="120.85" y2="125.62"/>
<line class="st4" x1="118.46" y1="125.62" x2="120.85" y2="123.26"/>
<line class="st4" x1="112.16" y1="136.28" x2="114.55" y2="138.65"/>
<line class="st4" x1="112.16" y1="138.65" x2="114.55" y2="136.28"/>
<line class="st4" x1="112.16" y1="149.27" x2="114.55" y2="151.63"/>
<line class="st4" x1="112.16" y1="151.63" x2="114.55" y2="149.27"/>
<line class="st4" x1="118.46" y1="155.8" x2="120.85" y2="158.17"/>
<line class="st4" x1="118.46" y1="158.17" x2="120.85" y2="155.8"/>
<line class="st4" x1="118.46" y1="149.27" x2="120.85" y2="151.63"/>
<line class="st4" x1="118.46" y1="151.63" x2="120.85" y2="149.27"/>
<line class="st4" x1="109.01" y1="129.75" x2="111.4" y2="132.12"/>
<line class="st4" x1="109.01" y1="132.12" x2="111.4" y2="129.75"/>
<line class="st4" x1="115.31" y1="159.03" x2="117.7" y2="161.39"/>
<line class="st4" x1="115.31" y1="161.39" x2="117.7" y2="159.03"/>
<line class="st4" x1="121.57" y1="142.78" x2="123.97" y2="145.14"/>
<line class="st4" x1="121.57" y1="145.14" x2="123.97" y2="142.78"/>
<line class="st4" x1="115.31" y1="133.02" x2="117.7" y2="135.38"/>
<line class="st4" x1="115.31" y1="135.38" x2="117.7" y2="133.02"/>
<line class="st4" x1="115.31" y1="159.03" x2="117.7" y2="161.39"/>
<line class="st4" x1="115.31" y1="161.39" x2="117.7" y2="159.03"/>
<line class="st4" x1="121.57" y1="152.53" x2="123.97" y2="154.9"/>
<line class="st4" x1="121.57" y1="154.9" x2="123.97" y2="152.54"/>
<line class="st4" x1="121.57" y1="146.04" x2="123.97" y2="148.41"/>
<line class="st4" x1="121.57" y1="148.41" x2="123.97" y2="146.04"/>
<line class="st4" x1="105.85" y1="149.27" x2="108.25" y2="151.63"/>
<line class="st4" x1="105.85" y1="151.63" x2="108.25" y2="149.27"/>
<path class="st4" d="M110.85,142.46l-0.04-0.22l-0.04-0.23l-0.08-0.19l-0.15-0.23l-0.11-0.15l-0.19-0.15l-0.19-0.15l-0.19-0.07
	l-0.23-0.04l-0.23-0.04l-0.19,0.04l-0.23,0.04l-0.23,0.07l-0.19,0.15l-0.15,0.15l-0.15,0.15l-0.11,0.23l-0.08,0.19l-0.04,0.23
	l-0.04,0.22l0.04,0.23l0.04,0.22l0.08,0.23l0.11,0.19l0.15,0.19l0.15,0.15l0.19,0.11l0.23,0.07l0.23,0.08h0.42l0.23-0.08l0.19-0.07
	l0.19-0.11l0.19-0.15l0.11-0.19l0.15-0.19l0.08-0.23l0.04-0.22L110.85,142.46h0.91l-0.04-0.37l-0.08-0.38l-0.15-0.34l-0.19-0.3
	l-0.23-0.3l-0.3-0.26l-0.3-0.19l-0.34-0.15l-0.34-0.08l-0.38-0.04l-0.34,0.04l-0.38,0.08l-0.3,0.15l-0.34,0.19l-0.27,0.26l-0.23,0.3
	l-0.19,0.3l-0.15,0.34l-0.08,0.38l-0.04,0.37l0.04,0.38l0.08,0.37l0.15,0.34l0.19,0.34l0.23,0.3l0.27,0.22l0.34,0.19l0.3,0.15
	l0.38,0.11h0.72l0.34-0.11l0.34-0.15l0.3-0.19l0.3-0.22l0.23-0.3l0.19-0.34l0.15-0.34l0.08-0.37l0.04-0.38 M77.02,163.48v-0.23
	l-0.08-0.22l-0.08-0.23l-0.11-0.19l-0.15-0.15l-0.15-0.15l-0.19-0.15l-0.23-0.08l-0.19-0.04l-0.23-0.04l-0.23,0.04l-0.23,0.04
	l-0.19,0.08l-0.19,0.15l-0.19,0.15l-0.11,0.15l-0.15,0.19l-0.08,0.23l-0.04,0.22l-0.04,0.23l0.04,0.22l0.04,0.23l0.08,0.22
	l0.15,0.19l0.11,0.19l0.19,0.15l0.19,0.11l0.19,0.08l0.23,0.07h0.46l0.19-0.07l0.23-0.08l0.19-0.11l0.15-0.15l0.15-0.19l0.11-0.19
	l0.08-0.22l0.08-0.23V163.48h0.91l-0.04-0.38l-0.08-0.37l-0.15-0.34l-0.19-0.34l-0.23-0.26l-0.27-0.26l-0.3-0.19l-0.34-0.15
	l-0.38-0.07l-0.34-0.04l-0.38,0.04l-0.34,0.07l-0.34,0.15l-0.3,0.19l-0.3,0.26l-0.23,0.26l-0.19,0.34l-0.15,0.34l-0.08,0.37
	l-0.04,0.38l0.04,0.37l0.08,0.38l0.15,0.34l0.19,0.34l0.23,0.3l0.3,0.23l0.3,0.19l0.34,0.15l0.34,0.11h0.72l0.38-0.11l0.34-0.15
	l0.3-0.19l0.27-0.23l0.23-0.3l0.19-0.34l0.15-0.34l0.08-0.38l0.04-0.37 M80.85,166.74v-0.22l-0.04-0.23l-0.11-0.22l-0.11-0.19
	l-0.11-0.19l-0.19-0.15l-0.19-0.11l-0.19-0.08l-0.23-0.07h-0.46l-0.19,0.07l-0.23,0.08l-0.19,0.11l-0.15,0.15l-0.15,0.19l-0.11,0.19
	l-0.08,0.22l-0.08,0.23v0.45l0.08,0.22l0.08,0.23l0.11,0.19l0.15,0.15l0.15,0.15l0.19,0.15l0.23,0.08l0.19,0.04l0.23,0.04l0.23-0.04
	l0.23-0.04l0.19-0.08l0.19-0.15l0.19-0.15l0.11-0.15l0.11-0.19l0.11-0.23l0.04-0.22V166.74h0.95l-0.04-0.37l-0.11-0.38l-0.11-0.34
	l-0.19-0.34l-0.23-0.26l-0.3-0.26l-0.3-0.19l-0.34-0.15l-0.34-0.07l-0.38-0.04l-0.34,0.04l-0.38,0.07l-0.34,0.15l-0.3,0.19
	l-0.27,0.26l-0.23,0.26l-0.19,0.34l-0.15,0.34l-0.08,0.38l-0.04,0.37l0.04,0.38l0.08,0.37l0.15,0.34l0.19,0.34l0.23,0.26l0.27,0.26
	l0.3,0.19l0.34,0.15l0.38,0.07l0.34,0.04l0.38-0.04l0.34-0.07l0.34-0.15l0.3-0.19l0.3-0.26l0.23-0.26l0.19-0.34l0.11-0.34l0.11-0.37
	l0.04-0.38 M84.46,153.42l-0.04-0.23l-0.04-0.22l-0.08-0.19l-0.11-0.23l-0.15-0.15l-0.19-0.15l-0.19-0.15l-0.19-0.07l-0.23-0.04
	l-0.19-0.04l-0.23,0.04l-0.23,0.04l-0.19,0.07l-0.19,0.15l-0.19,0.15l-0.15,0.15l-0.11,0.23l-0.08,0.19l-0.04,0.22l-0.04,0.23
	l0.04,0.22l0.04,0.23l0.08,0.22l0.11,0.19l0.15,0.19l0.19,0.15l0.19,0.11l0.19,0.07l0.23,0.08h0.42l0.23-0.08l0.19-0.07l0.19-0.11
	l0.19-0.15l0.15-0.19l0.11-0.19l0.08-0.22l0.04-0.23L84.46,153.42h0.91l-0.04-0.38l-0.08-0.37l-0.15-0.34l-0.19-0.3l-0.23-0.3
	l-0.27-0.26l-0.34-0.19l-0.34-0.15l-0.34-0.08l-0.34-0.04l-0.38,0.04l-0.34,0.08l-0.34,0.15l-0.34,0.19l-0.27,0.26l-0.23,0.3
	l-0.19,0.3l-0.15,0.34l-0.08,0.37l-0.04,0.38l0.04,0.37l0.08,0.38l0.15,0.34l0.19,0.34l0.23,0.3l0.27,0.23l0.34,0.19l0.34,0.15
	l0.34,0.11h0.72l0.34-0.11l0.34-0.15l0.34-0.19l0.27-0.23l0.23-0.3l0.19-0.34l0.15-0.34l0.08-0.38l0.04-0.37"/>
<path class="st2" d="M138.32,176.5v-65.08 M138.32,176.5h62.91"/>
<polyline class="st3" points="138.32,176.5 201.24,176.5 201.24,111.42 138.32,111.42 138.32,176.5 "/>
<polygon class="st4" points="160.34,146.04 159.15,147.22 160.34,148.41 161.54,147.22 "/>
<line class="st4" x1="160.34" y1="147.32" x2="160.34" y2="147.13"/>
<polygon class="st4" points="160.34,152.53 159.15,153.72 160.34,154.9 161.54,153.72 "/>
<line class="st4" x1="160.34" y1="153.81" x2="160.34" y2="153.62"/>
<polygon class="st4" points="154.04,146.04 152.84,147.22 154.04,148.41 155.24,147.22 "/>
<line class="st4" x1="154.04" y1="147.32" x2="154.04" y2="147.13"/>
<polygon class="st4" points="157.19,149.27 156,150.45 157.19,151.63 158.39,150.45 "/>
<line class="st4" x1="157.19" y1="150.55" x2="157.19" y2="150.36"/>
<polygon class="st4" points="157.19,136.28 156,137.47 157.19,138.65 158.39,137.47 "/>
<line class="st4" x1="157.19" y1="137.56" x2="157.19" y2="137.37"/>
<polygon class="st4" points="150.89,149.27 149.69,150.45 150.89,151.63 152.09,150.45 "/>
<line class="st4" x1="150.89" y1="150.55" x2="150.89" y2="150.36"/>
<polygon class="st4" points="157.19,142.78 156,143.96 157.19,145.14 158.39,143.96 "/>
<line class="st4" x1="157.19" y1="144.05" x2="157.19" y2="143.87"/>
<polygon class="st4" points="150.89,142.78 149.69,143.96 150.89,145.14 152.09,143.96 "/>
<line class="st4" x1="150.89" y1="144.05" x2="150.89" y2="143.87"/>
<polygon class="st4" points="154.04,152.53 152.84,153.72 154.04,154.9 155.24,153.72 "/>
<line class="st4" x1="154.04" y1="153.81" x2="154.04" y2="153.62"/>
<polygon class="st4" points="160.34,139.51 159.15,140.69 160.34,141.88 161.54,140.69 "/>
<line class="st4" x1="160.34" y1="140.79" x2="160.34" y2="140.6"/>
<polygon class="st4" points="154.04,139.51 152.84,140.69 154.04,141.88 155.24,140.69 "/>
<line class="st4" x1="154.04" y1="140.79" x2="154.04" y2="140.6"/>
<line class="st4" x1="144.62" y1="171.19" x2="144.62" y2="168.82"/>
<line class="st4" x1="143.43" y1="170.01" x2="145.82" y2="170.01"/>
<line class="st4" x1="150.89" y1="164.66" x2="150.89" y2="162.29"/>
<line class="st4" x1="149.69" y1="163.48" x2="152.09" y2="163.48"/>
<line class="st4" x1="147.78" y1="167.92" x2="147.78" y2="165.56"/>
<line class="st4" x1="146.58" y1="166.74" x2="148.97" y2="166.74"/>
<line class="st4" x1="150.59" y1="167.92" x2="150.59" y2="165.56"/>
<line class="st4" x1="149.39" y1="166.74" x2="151.78" y2="166.74"/>
<rect x="146.58" y="159.03" class="st4" width="2.39" height="2.37"/>
<line class="st4" x1="147.78" y1="160.3" x2="147.78" y2="160.12"/>
<rect x="149.69" y="155.8" class="st4" width="2.39" height="2.36"/>
<line class="st4" x1="150.89" y1="157.08" x2="150.89" y2="156.89"/>
<rect x="143.43" y="155.8" class="st4" width="2.39" height="2.36"/>
<line class="st4" x1="144.62" y1="157.08" x2="144.62" y2="156.89"/>
<rect x="143.43" y="162.29" class="st4" width="2.39" height="2.36"/>
<line class="st4" x1="144.62" y1="163.57" x2="144.62" y2="163.38"/>
<rect x="146.58" y="152.53" class="st4" width="2.39" height="2.37"/>
<line class="st4" x1="147.78" y1="153.81" x2="147.78" y2="153.62"/>
<rect x="152.84" y="159.03" class="st4" width="2.39" height="2.37"/>
<line class="st4" x1="154.04" y1="160.3" x2="154.04" y2="160.12"/>
<line class="st4" x1="171.71" y1="133.02" x2="174.11" y2="135.38"/>
<line class="st4" x1="171.71" y1="135.38" x2="174.11" y2="133.02"/>
<line class="st4" x1="184.32" y1="119.99" x2="186.71" y2="122.36"/>
<line class="st4" x1="184.32" y1="122.36" x2="186.71" y2="119.99"/>
<line class="st4" x1="168.6" y1="136.28" x2="170.99" y2="138.65"/>
<line class="st4" x1="168.6" y1="138.65" x2="170.99" y2="136.28"/>
<line class="st4" x1="181.17" y1="123.26" x2="183.56" y2="125.62"/>
<line class="st4" x1="181.17" y1="125.62" x2="183.56" y2="123.26"/>
<line class="st4" x1="181.17" y1="126.49" x2="183.56" y2="128.85"/>
<line class="st4" x1="181.17" y1="128.85" x2="183.56" y2="126.49"/>
<line class="st4" x1="181.17" y1="162.29" x2="183.56" y2="164.66"/>
<line class="st4" x1="181.17" y1="164.66" x2="183.56" y2="162.29"/>
<line class="st4" x1="187.47" y1="123.26" x2="189.86" y2="125.62"/>
<line class="st4" x1="187.47" y1="125.62" x2="189.86" y2="123.26"/>
<line class="st4" x1="181.17" y1="136.28" x2="183.56" y2="138.65"/>
<line class="st4" x1="181.17" y1="138.65" x2="183.56" y2="136.28"/>
<line class="st4" x1="181.17" y1="149.27" x2="183.56" y2="151.63"/>
<line class="st4" x1="181.17" y1="151.63" x2="183.56" y2="149.27"/>
<line class="st4" x1="187.47" y1="155.8" x2="189.86" y2="158.17"/>
<line class="st4" x1="187.47" y1="158.17" x2="189.86" y2="155.8"/>
<line class="st4" x1="187.47" y1="149.27" x2="189.86" y2="151.63"/>
<line class="st4" x1="187.47" y1="151.63" x2="189.86" y2="149.27"/>
<line class="st4" x1="178.02" y1="129.75" x2="180.41" y2="132.12"/>
<line class="st4" x1="178.02" y1="132.12" x2="180.41" y2="129.75"/>
<line class="st4" x1="184.32" y1="159.03" x2="186.71" y2="161.39"/>
<line class="st4" x1="184.32" y1="161.39" x2="186.71" y2="159.03"/>
<line class="st4" x1="190.59" y1="142.78" x2="192.98" y2="145.14"/>
<line class="st4" x1="190.59" y1="145.14" x2="192.98" y2="142.78"/>
<line class="st4" x1="184.32" y1="133.02" x2="186.71" y2="135.38"/>
<line class="st4" x1="184.32" y1="135.38" x2="186.71" y2="133.02"/>
<line class="st4" x1="184.32" y1="159.03" x2="186.71" y2="161.39"/>
<line class="st4" x1="184.32" y1="161.39" x2="186.71" y2="159.03"/>
<line class="st4" x1="190.59" y1="152.53" x2="192.98" y2="154.9"/>
<line class="st4" x1="190.59" y1="154.9" x2="192.98" y2="152.54"/>
<line class="st4" x1="190.59" y1="146.04" x2="192.98" y2="148.41"/>
<line class="st4" x1="190.59" y1="148.41" x2="192.98" y2="146.04"/>
<line class="st4" x1="174.87" y1="149.27" x2="177.26" y2="151.63"/>
<line class="st4" x1="174.87" y1="151.63" x2="177.26" y2="149.27"/>
<path class="st4" d="M185.25,142.57v-0.23l-0.04-0.22l-0.11-0.19l-0.11-0.19l-0.11-0.19l-0.19-0.15l-0.19-0.11l-0.19-0.11
	l-0.23-0.04l-0.23-0.04l-0.23,0.04l-0.19,0.04l-0.23,0.11l-0.19,0.11l-0.15,0.15l-0.15,0.19l-0.11,0.19l-0.08,0.19l-0.08,0.22v0.49
	l0.08,0.22l0.08,0.19l0.11,0.19l0.15,0.19l0.15,0.15l0.19,0.11l0.23,0.11l0.19,0.04l0.23,0.04l0.23-0.04l0.23-0.04l0.19-0.11
	l0.19-0.11l0.19-0.15l0.11-0.19l0.11-0.19l0.11-0.19l0.04-0.22V142.57h0.91v-0.38l-0.11-0.34l-0.11-0.37l-0.19-0.3l-0.27-0.3
	l-0.27-0.23l-0.3-0.22l-0.34-0.15l-0.34-0.08l-0.38-0.04l-0.34,0.04l-0.38,0.08l-0.34,0.15l-0.3,0.22l-0.27,0.23l-0.23,0.3
	l-0.19,0.3l-0.15,0.37l-0.08,0.34l-0.04,0.38l0.04,0.41l0.08,0.34l0.15,0.37l0.19,0.3l0.23,0.3l0.27,0.23l0.3,0.22l0.34,0.15
	l0.38,0.08l0.34,0.04l0.38-0.04l0.34-0.08l0.34-0.15l0.3-0.22l0.27-0.23l0.27-0.3l0.19-0.3l0.11-0.37l0.11-0.34v-0.41
	 M147.09,160.21l-0.04-0.23l-0.04-0.22l-0.08-0.19l-0.15-0.19l-0.11-0.19l-0.19-0.15l-0.19-0.11l-0.19-0.11l-0.23-0.04l-0.23-0.04
	l-0.23,0.04l-0.19,0.04l-0.23,0.11l-0.19,0.11l-0.15,0.15l-0.15,0.19l-0.11,0.19l-0.08,0.19l-0.08,0.22v0.49l0.08,0.22l0.08,0.19
	l0.11,0.19l0.15,0.19l0.15,0.15l0.19,0.11l0.23,0.11l0.19,0.04l0.23,0.04l0.23-0.04l0.23-0.04l0.19-0.11l0.19-0.11l0.19-0.15
	l0.11-0.19l0.15-0.19l0.08-0.19l0.04-0.22l0.04-0.23l0.91-0.04l-0.04-0.38l-0.08-0.34l-0.15-0.37l-0.19-0.3l-0.23-0.3l-0.3-0.23
	l-0.3-0.22l-0.34-0.15l-0.34-0.08l-0.38-0.04l-0.34,0.04l-0.38,0.08l-0.34,0.15l-0.3,0.22l-0.27,0.23l-0.23,0.3l-0.19,0.3
	l-0.15,0.37l-0.08,0.34l-0.04,0.38l0.04,0.41l0.08,0.34l0.15,0.37l0.19,0.3l0.23,0.3l0.27,0.22l0.3,0.23l0.34,0.15l0.38,0.07
	l0.34,0.04l0.38-0.04l0.34-0.07l0.34-0.15l0.3-0.23l0.3-0.22l0.23-0.3l0.19-0.3l0.15-0.37l0.08-0.34l0.04-0.38 M149.86,166.74v-0.22
	l-0.04-0.23l-0.11-0.22l-0.11-0.19l-0.11-0.19l-0.19-0.15l-0.19-0.11l-0.19-0.08l-0.23-0.07h-0.46l-0.19,0.07l-0.23,0.08l-0.19,0.11
	l-0.15,0.15l-0.15,0.19l-0.11,0.19l-0.08,0.22l-0.08,0.23v0.45l0.08,0.22l0.08,0.23l0.11,0.19l0.15,0.15l0.15,0.15l0.19,0.15
	l0.23,0.08l0.19,0.04l0.23,0.04l0.23-0.04l0.23-0.04l0.19-0.08l0.19-0.15l0.19-0.15l0.11-0.15l0.11-0.19l0.11-0.23l0.04-0.22V166.74
	h0.95l-0.04-0.37l-0.11-0.38l-0.11-0.34l-0.19-0.34l-0.23-0.26l-0.3-0.26l-0.3-0.19l-0.34-0.15l-0.34-0.07l-0.38-0.04l-0.34,0.04
	l-0.38,0.07l-0.34,0.15l-0.3,0.19l-0.27,0.26l-0.23,0.26l-0.19,0.34l-0.15,0.34l-0.08,0.38l-0.04,0.37l0.04,0.38l0.08,0.37
	l0.15,0.34l0.19,0.34l0.23,0.26l0.27,0.26l0.3,0.19l0.34,0.15l0.38,0.07l0.34,0.04l0.38-0.04l0.34-0.07l0.34-0.15l0.3-0.19l0.3-0.26
	l0.23-0.26l0.19-0.34l0.11-0.34l0.11-0.37l0.04-0.38 M156.36,148.61v-0.23l-0.08-0.22l-0.08-0.23l-0.11-0.19l-0.15-0.19l-0.15-0.15
	l-0.19-0.11l-0.23-0.07l-0.19-0.08h-0.46l-0.23,0.08l-0.19,0.07l-0.19,0.11l-0.15,0.15l-0.15,0.19l-0.11,0.19l-0.11,0.23l-0.04,0.22
	v0.45l0.04,0.23l0.11,0.22l0.11,0.19l0.15,0.15l0.15,0.15l0.19,0.15l0.19,0.07l0.23,0.04l0.23,0.04l0.23-0.04l0.19-0.04l0.23-0.07
	l0.19-0.15l0.15-0.15l0.15-0.15l0.11-0.19l0.08-0.22l0.08-0.23V148.61h0.91l-0.04-0.38l-0.08-0.37l-0.11-0.34l-0.19-0.34l-0.27-0.3
	l-0.27-0.22l-0.3-0.19l-0.34-0.15l-0.34-0.11h-0.76l-0.34,0.11l-0.34,0.15l-0.3,0.19l-0.27,0.22l-0.27,0.3l-0.19,0.34l-0.11,0.34
	l-0.11,0.37v0.75l0.11,0.38l0.11,0.34l0.19,0.34l0.27,0.26l0.27,0.26l0.3,0.19l0.34,0.15l0.34,0.08l0.38,0.04l0.38-0.04l0.34-0.08
	l0.34-0.15l0.3-0.19l0.27-0.26l0.27-0.26l0.19-0.34l0.11-0.34l0.08-0.38l0.04-0.37"/>
<path class="st2" d="M207.44,176.5v-65.08 M207.44,176.5h62.91"/>
<polyline class="st3" points="207.44,176.5 270.36,176.5 270.36,111.42 207.44,111.42 207.44,176.5 "/>
<polygon class="st4" points="229.46,146.04 228.27,147.22 229.46,148.41 230.66,147.22 "/>
<line class="st4" x1="229.46" y1="147.32" x2="229.46" y2="147.13"/>
<polygon class="st4" points="229.46,152.53 228.27,153.72 229.46,154.9 230.66,153.72 "/>
<line class="st4" x1="229.46" y1="153.81" x2="229.46" y2="153.62"/>
<polygon class="st4" points="223.16,146.04 221.96,147.22 223.16,148.41 224.36,147.22 "/>
<line class="st4" x1="223.16" y1="147.32" x2="223.16" y2="147.13"/>
<polygon class="st4" points="226.31,149.27 225.12,150.45 226.31,151.63 227.51,150.45 "/>
<line class="st4" x1="226.31" y1="150.55" x2="226.31" y2="150.36"/>
<polygon class="st4" points="226.31,136.28 225.12,137.47 226.31,138.65 227.51,137.47 "/>
<line class="st4" x1="226.31" y1="137.56" x2="226.31" y2="137.37"/>
<polygon class="st4" points="220.01,149.27 218.81,150.45 220.01,151.63 221.21,150.45 "/>
<line class="st4" x1="220.01" y1="150.55" x2="220.01" y2="150.36"/>
<polygon class="st4" points="226.31,142.78 225.12,143.96 226.31,145.14 227.51,143.96 "/>
<line class="st4" x1="226.31" y1="144.05" x2="226.31" y2="143.87"/>
<polygon class="st4" points="220.01,142.78 218.81,143.96 220.01,145.14 221.21,143.96 "/>
<line class="st4" x1="220.01" y1="144.05" x2="220.01" y2="143.87"/>
<polygon class="st4" points="223.16,152.53 221.96,153.72 223.16,154.9 224.36,153.72 "/>
<line class="st4" x1="223.16" y1="153.81" x2="223.16" y2="153.62"/>
<polygon class="st4" points="229.46,139.51 228.27,140.69 229.46,141.88 230.66,140.69 "/>
<line class="st4" x1="229.46" y1="140.79" x2="229.46" y2="140.6"/>
<polygon class="st4" points="223.16,139.51 221.96,140.69 223.16,141.88 224.36,140.69 "/>
<line class="st4" x1="223.16" y1="140.79" x2="223.16" y2="140.6"/>
<line class="st4" x1="213.74" y1="171.19" x2="213.74" y2="168.82"/>
<line class="st4" x1="212.55" y1="170.01" x2="214.94" y2="170.01"/>
<line class="st4" x1="220.01" y1="164.66" x2="220.01" y2="162.29"/>
<line class="st4" x1="218.81" y1="163.48" x2="221.21" y2="163.48"/>
<line class="st4" x1="213.74" y1="164.66" x2="213.74" y2="162.29"/>
<line class="st4" x1="212.55" y1="163.48" x2="214.94" y2="163.48"/>
<line class="st4" x1="216.9" y1="167.92" x2="216.9" y2="165.56"/>
<line class="st4" x1="215.7" y1="166.74" x2="218.09" y2="166.74"/>
<line class="st4" x1="219.71" y1="167.92" x2="219.71" y2="165.56"/>
<line class="st4" x1="218.51" y1="166.74" x2="220.9" y2="166.74"/>
<rect x="215.7" y="159.03" class="st4" width="2.39" height="2.37"/>
<line class="st4" x1="216.9" y1="160.3" x2="216.9" y2="160.12"/>
<rect x="218.81" y="155.8" class="st4" width="2.39" height="2.36"/>
<line class="st4" x1="220.01" y1="157.08" x2="220.01" y2="156.89"/>
<rect x="212.55" y="155.8" class="st4" width="2.39" height="2.36"/>
<line class="st4" x1="213.74" y1="157.08" x2="213.74" y2="156.89"/>
<rect x="215.7" y="152.53" class="st4" width="2.39" height="2.37"/>
<line class="st4" x1="216.9" y1="153.81" x2="216.9" y2="153.62"/>
<rect x="221.96" y="159.03" class="st4" width="2.39" height="2.37"/>
<line class="st4" x1="223.16" y1="160.3" x2="223.16" y2="160.12"/>
<line class="st4" x1="240.84" y1="133.02" x2="243.23" y2="135.38"/>
<line class="st4" x1="240.84" y1="135.38" x2="243.23" y2="133.02"/>
<line class="st4" x1="253.44" y1="119.99" x2="255.83" y2="122.36"/>
<line class="st4" x1="253.44" y1="122.36" x2="255.83" y2="119.99"/>
<line class="st4" x1="237.72" y1="136.28" x2="240.11" y2="138.65"/>
<line class="st4" x1="237.72" y1="138.65" x2="240.11" y2="136.28"/>
<line class="st4" x1="250.29" y1="123.26" x2="252.68" y2="125.62"/>
<line class="st4" x1="250.29" y1="125.62" x2="252.68" y2="123.26"/>
<line class="st4" x1="250.29" y1="126.49" x2="252.68" y2="128.85"/>
<line class="st4" x1="250.29" y1="128.85" x2="252.68" y2="126.49"/>
<line class="st4" x1="250.29" y1="162.29" x2="252.68" y2="164.66"/>
<line class="st4" x1="250.29" y1="164.66" x2="252.68" y2="162.29"/>
<line class="st4" x1="256.59" y1="123.26" x2="258.98" y2="125.62"/>
<line class="st4" x1="256.59" y1="125.62" x2="258.98" y2="123.26"/>
<line class="st4" x1="250.29" y1="136.28" x2="252.68" y2="138.65"/>
<line class="st4" x1="250.29" y1="138.65" x2="252.68" y2="136.28"/>
<line class="st4" x1="250.29" y1="149.27" x2="252.68" y2="151.63"/>
<line class="st4" x1="250.29" y1="151.63" x2="252.68" y2="149.27"/>
<line class="st4" x1="256.59" y1="155.8" x2="258.98" y2="158.17"/>
<line class="st4" x1="256.59" y1="158.17" x2="258.98" y2="155.8"/>
<line class="st4" x1="256.59" y1="149.27" x2="258.98" y2="151.63"/>
<line class="st4" x1="256.59" y1="151.63" x2="258.98" y2="149.27"/>
<line class="st4" x1="247.14" y1="129.75" x2="249.53" y2="132.12"/>
<line class="st4" x1="247.14" y1="132.12" x2="249.53" y2="129.75"/>
<line class="st4" x1="253.44" y1="159.03" x2="255.83" y2="161.39"/>
<line class="st4" x1="253.44" y1="161.39" x2="255.83" y2="159.03"/>
<line class="st4" x1="259.71" y1="142.78" x2="262.1" y2="145.14"/>
<line class="st4" x1="259.71" y1="145.14" x2="262.1" y2="142.78"/>
<line class="st4" x1="253.44" y1="133.02" x2="255.83" y2="135.38"/>
<line class="st4" x1="253.44" y1="135.38" x2="255.83" y2="133.02"/>
<line class="st4" x1="253.44" y1="159.03" x2="255.83" y2="161.39"/>
<line class="st4" x1="253.44" y1="161.39" x2="255.83" y2="159.03"/>
<line class="st4" x1="259.71" y1="152.53" x2="262.1" y2="154.9"/>
<line class="st4" x1="259.71" y1="154.9" x2="262.1" y2="152.54"/>
<line class="st4" x1="259.71" y1="146.04" x2="262.1" y2="148.41"/>
<line class="st4" x1="259.71" y1="148.41" x2="262.1" y2="146.04"/>
<line class="st4" x1="243.99" y1="149.27" x2="246.38" y2="151.63"/>
<line class="st4" x1="243.99" y1="151.63" x2="246.38" y2="149.27"/>
<path class="st4" d="M254.37,142.57v-0.23l-0.04-0.22l-0.11-0.19l-0.11-0.19l-0.11-0.19l-0.19-0.15l-0.19-0.11l-0.19-0.11
	l-0.23-0.04l-0.23-0.04l-0.23,0.04l-0.19,0.04l-0.23,0.11l-0.19,0.11l-0.15,0.15l-0.15,0.19l-0.11,0.19l-0.08,0.19l-0.08,0.22v0.49
	l0.08,0.22l0.08,0.19l0.11,0.19l0.15,0.19l0.15,0.15l0.19,0.11l0.23,0.11l0.19,0.04l0.23,0.04l0.23-0.04l0.23-0.04l0.19-0.11
	l0.19-0.11l0.19-0.15l0.11-0.19l0.11-0.19l0.11-0.19l0.04-0.22V142.57h0.91v-0.38l-0.11-0.34l-0.11-0.37l-0.19-0.3l-0.27-0.3
	l-0.27-0.23l-0.3-0.22l-0.34-0.15l-0.34-0.08l-0.38-0.04l-0.34,0.04l-0.38,0.08l-0.34,0.15l-0.3,0.22l-0.27,0.23l-0.23,0.3
	l-0.19,0.3l-0.15,0.37l-0.08,0.34l-0.04,0.38l0.04,0.41l0.08,0.34l0.15,0.37l0.19,0.3l0.23,0.3l0.27,0.23l0.3,0.22l0.34,0.15
	l0.38,0.08l0.34,0.04l0.38-0.04l0.34-0.08l0.34-0.15l0.3-0.22l0.27-0.23l0.27-0.3l0.19-0.3l0.11-0.37l0.11-0.34v-0.41 M218.83,158.6
	l-0.04-0.22l-0.04-0.23l-0.08-0.22l-0.11-0.19l-0.15-0.15l-0.19-0.15l-0.19-0.15l-0.19-0.07l-0.23-0.04l-0.23-0.04l-0.19,0.04
	l-0.23,0.04l-0.23,0.07l-0.19,0.15l-0.15,0.15l-0.15,0.15l-0.11,0.19l-0.08,0.22l-0.04,0.23l-0.04,0.22l0.04,0.23l0.04,0.22
	l0.08,0.23l0.11,0.19l0.15,0.19l0.15,0.15l0.19,0.11l0.23,0.08l0.23,0.07h0.42l0.23-0.07l0.19-0.08l0.19-0.11l0.19-0.15l0.15-0.19
	l0.11-0.19l0.08-0.23l0.04-0.22L218.83,158.6h0.91l-0.04-0.37l-0.08-0.38l-0.15-0.34l-0.19-0.34l-0.23-0.26l-0.3-0.26l-0.3-0.19
	l-0.34-0.15l-0.34-0.07l-0.38-0.04l-0.34,0.04l-0.38,0.07l-0.3,0.15l-0.34,0.19l-0.27,0.26l-0.23,0.26l-0.19,0.34l-0.15,0.34
	l-0.08,0.38l-0.04,0.37l0.04,0.38l0.08,0.37l0.15,0.34l0.19,0.34l0.23,0.3l0.27,0.22l0.34,0.19l0.3,0.15l0.38,0.11h0.72l0.34-0.11
	l0.34-0.15l0.3-0.19l0.3-0.22l0.23-0.3l0.19-0.34l0.15-0.34l0.08-0.37l0.04-0.38 M218.98,166.74v-0.22l-0.04-0.23l-0.11-0.22
	l-0.11-0.19l-0.11-0.19l-0.19-0.15l-0.19-0.11l-0.19-0.08l-0.23-0.07h-0.46l-0.19,0.07l-0.23,0.08l-0.19,0.11l-0.15,0.15l-0.15,0.19
	l-0.11,0.19l-0.08,0.22l-0.08,0.23v0.45l0.08,0.22l0.08,0.23l0.11,0.19l0.15,0.15l0.15,0.15l0.19,0.15l0.23,0.08l0.19,0.04
	l0.23,0.04l0.23-0.04l0.23-0.04l0.19-0.08l0.19-0.15l0.19-0.15l0.11-0.15l0.11-0.19l0.11-0.23l0.04-0.22V166.74h0.95l-0.04-0.37
	l-0.11-0.38l-0.11-0.34l-0.19-0.34l-0.23-0.26l-0.3-0.26l-0.3-0.19l-0.34-0.15l-0.34-0.07l-0.38-0.04l-0.34,0.04l-0.38,0.07
	l-0.34,0.15l-0.3,0.19l-0.27,0.26l-0.23,0.26l-0.19,0.34l-0.15,0.34l-0.08,0.38l-0.04,0.37l0.04,0.38l0.08,0.37l0.15,0.34l0.19,0.34
	l0.23,0.26l0.27,0.26l0.3,0.19l0.34,0.15l0.38,0.07l0.34,0.04l0.38-0.04l0.34-0.07l0.34-0.15l0.3-0.19l0.3-0.26l0.23-0.26l0.19-0.34
	l0.11-0.34l0.11-0.37l0.04-0.38 M226.58,146.32v-0.23l-0.08-0.22l-0.08-0.23l-0.11-0.19l-0.15-0.19l-0.15-0.15l-0.19-0.11
	l-0.23-0.08l-0.19-0.04l-0.23-0.04l-0.23,0.04l-0.23,0.04l-0.19,0.08l-0.19,0.11l-0.15,0.15l-0.15,0.19l-0.11,0.19l-0.08,0.23
	l-0.08,0.22v0.45l0.08,0.23l0.08,0.22l0.11,0.19l0.15,0.19l0.15,0.15l0.19,0.11l0.19,0.07l0.23,0.08h0.46l0.19-0.08l0.23-0.07
	l0.19-0.11l0.15-0.15l0.15-0.19l0.11-0.19l0.08-0.22l0.08-0.23V146.32h0.91v-0.38l-0.11-0.37l-0.11-0.34l-0.19-0.34l-0.27-0.26
	l-0.27-0.26l-0.3-0.19l-0.34-0.15l-0.34-0.07l-0.38-0.04l-0.38,0.04l-0.34,0.07l-0.34,0.15l-0.3,0.19l-0.27,0.26l-0.27,0.26
	l-0.19,0.34l-0.11,0.34l-0.11,0.37v0.75l0.11,0.38l0.11,0.34l0.19,0.34l0.27,0.26l0.27,0.26l0.3,0.19l0.34,0.15l0.34,0.08l0.38,0.04
	l0.38-0.04l0.34-0.08l0.34-0.15l0.3-0.19l0.27-0.26l0.27-0.26l0.19-0.34l0.11-0.34l0.11-0.38v-0.37"/>
<path class="st2" d="M276.45,176.5v-65.08 M276.45,176.5h62.91"/>
<polyline class="st3" points="276.45,176.5 339.37,176.5 339.37,111.42 276.45,111.42 276.45,176.5 "/>
<polygon class="st4" points="298.48,146.04 297.28,147.22 298.48,148.41 299.67,147.22 "/>
<line class="st4" x1="298.48" y1="147.32" x2="298.48" y2="147.13"/>
<polygon class="st4" points="298.48,152.53 297.28,153.72 298.48,154.9 299.67,153.72 "/>
<line class="st4" x1="298.48" y1="153.81" x2="298.48" y2="153.62"/>
<polygon class="st4" points="292.17,146.04 290.98,147.22 292.17,148.41 293.37,147.22 "/>
<line class="st4" x1="292.17" y1="147.32" x2="292.17" y2="147.13"/>
<polygon class="st4" points="295.32,149.27 294.13,150.45 295.32,151.63 296.52,150.45 "/>
<line class="st4" x1="295.32" y1="150.55" x2="295.32" y2="150.36"/>
<polygon class="st4" points="295.32,136.28 294.13,137.47 295.32,138.65 296.52,137.47 "/>
<line class="st4" x1="295.32" y1="137.56" x2="295.32" y2="137.37"/>
<polygon class="st4" points="289.02,149.27 287.83,150.45 289.02,151.63 290.22,150.45 "/>
<line class="st4" x1="289.02" y1="150.55" x2="289.02" y2="150.36"/>
<polygon class="st4" points="295.32,142.78 294.13,143.96 295.32,145.14 296.52,143.96 "/>
<line class="st4" x1="295.32" y1="144.05" x2="295.32" y2="143.87"/>
<polygon class="st4" points="289.02,142.78 287.83,143.96 289.02,145.14 290.22,143.96 "/>
<line class="st4" x1="289.02" y1="144.05" x2="289.02" y2="143.87"/>
<polygon class="st4" points="298.48,139.51 297.28,140.69 298.48,141.88 299.67,140.69 "/>
<line class="st4" x1="298.48" y1="140.79" x2="298.48" y2="140.6"/>
<polygon class="st4" points="292.17,139.51 290.98,140.69 292.17,141.88 293.37,140.69 "/>
<line class="st4" x1="292.17" y1="140.79" x2="292.17" y2="140.6"/>
<line class="st4" x1="282.76" y1="171.19" x2="282.76" y2="168.82"/>
<line class="st4" x1="281.56" y1="170.01" x2="283.95" y2="170.01"/>
<line class="st4" x1="289.02" y1="164.66" x2="289.02" y2="162.29"/>
<line class="st4" x1="287.83" y1="163.48" x2="290.22" y2="163.48"/>
<line class="st4" x1="282.76" y1="164.66" x2="282.76" y2="162.29"/>
<line class="st4" x1="281.56" y1="163.48" x2="283.95" y2="163.48"/>
<line class="st4" x1="285.91" y1="167.92" x2="285.91" y2="165.56"/>
<line class="st4" x1="284.71" y1="166.74" x2="287.1" y2="166.74"/>
<line class="st4" x1="288.72" y1="167.92" x2="288.72" y2="165.56"/>
<line class="st4" x1="287.52" y1="166.74" x2="289.91" y2="166.74"/>
<rect x="284.71" y="159.03" class="st4" width="2.39" height="2.37"/>
<line class="st4" x1="285.91" y1="160.3" x2="285.91" y2="160.12"/>
<rect x="287.83" y="155.8" class="st4" width="2.39" height="2.36"/>
<line class="st4" x1="289.02" y1="157.08" x2="289.02" y2="156.89"/>
<rect x="281.56" y="155.8" class="st4" width="2.39" height="2.36"/>
<line class="st4" x1="282.76" y1="157.08" x2="282.76" y2="156.89"/>
<rect x="290.98" y="152.53" class="st4" width="2.39" height="2.37"/>
<line class="st4" x1="292.17" y1="153.81" x2="292.17" y2="153.62"/>
<rect x="284.71" y="152.53" class="st4" width="2.39" height="2.37"/>
<line class="st4" x1="285.91" y1="153.81" x2="285.91" y2="153.62"/>
<rect x="290.98" y="159.03" class="st4" width="2.39" height="2.37"/>
<line class="st4" x1="292.17" y1="160.3" x2="292.17" y2="160.12"/>
<line class="st4" x1="309.85" y1="133.02" x2="312.24" y2="135.38"/>
<line class="st4" x1="309.85" y1="135.38" x2="312.24" y2="133.02"/>
<line class="st4" x1="322.45" y1="119.99" x2="324.85" y2="122.36"/>
<line class="st4" x1="322.45" y1="122.36" x2="324.85" y2="119.99"/>
<line class="st4" x1="306.73" y1="136.28" x2="309.13" y2="138.65"/>
<line class="st4" x1="306.73" y1="138.65" x2="309.13" y2="136.28"/>
<line class="st4" x1="319.3" y1="123.26" x2="321.69" y2="125.62"/>
<line class="st4" x1="319.3" y1="125.62" x2="321.69" y2="123.26"/>
<line class="st4" x1="319.3" y1="126.49" x2="321.69" y2="128.85"/>
<line class="st4" x1="319.3" y1="128.85" x2="321.69" y2="126.49"/>
<line class="st4" x1="319.3" y1="162.29" x2="321.69" y2="164.66"/>
<line class="st4" x1="319.3" y1="164.66" x2="321.69" y2="162.29"/>
<line class="st4" x1="325.6" y1="123.26" x2="328" y2="125.62"/>
<line class="st4" x1="325.6" y1="125.62" x2="328" y2="123.26"/>
<line class="st4" x1="319.3" y1="136.28" x2="321.69" y2="138.65"/>
<line class="st4" x1="319.3" y1="138.65" x2="321.69" y2="136.28"/>
<line class="st4" x1="319.3" y1="149.27" x2="321.69" y2="151.63"/>
<line class="st4" x1="319.3" y1="151.63" x2="321.69" y2="149.27"/>
<line class="st4" x1="325.6" y1="155.8" x2="328" y2="158.17"/>
<line class="st4" x1="325.6" y1="158.17" x2="328" y2="155.8"/>
<line class="st4" x1="325.6" y1="149.27" x2="328" y2="151.63"/>
<line class="st4" x1="325.6" y1="151.63" x2="328" y2="149.27"/>
<line class="st4" x1="316.15" y1="129.75" x2="318.54" y2="132.12"/>
<line class="st4" x1="316.15" y1="132.12" x2="318.54" y2="129.75"/>
<line class="st4" x1="322.45" y1="159.03" x2="324.85" y2="161.39"/>
<line class="st4" x1="322.45" y1="161.39" x2="324.85" y2="159.03"/>
<line class="st4" x1="328.72" y1="142.78" x2="331.11" y2="145.14"/>
<line class="st4" x1="328.72" y1="145.14" x2="331.11" y2="142.78"/>
<line class="st4" x1="322.45" y1="133.02" x2="324.85" y2="135.38"/>
<line class="st4" x1="322.45" y1="135.38" x2="324.85" y2="133.02"/>
<line class="st4" x1="322.45" y1="159.03" x2="324.85" y2="161.39"/>
<line class="st4" x1="322.45" y1="161.39" x2="324.85" y2="159.03"/>
<line class="st4" x1="328.72" y1="152.53" x2="331.11" y2="154.9"/>
<line class="st4" x1="328.72" y1="154.9" x2="331.11" y2="152.54"/>
<line class="st4" x1="328.72" y1="146.04" x2="331.11" y2="148.41"/>
<line class="st4" x1="328.72" y1="148.41" x2="331.11" y2="146.04"/>
<line class="st4" x1="313" y1="149.27" x2="315.39" y2="151.63"/>
<line class="st4" x1="313" y1="151.63" x2="315.39" y2="149.27"/>
<path class="st4" d="M323.38,142.57v-0.23l-0.04-0.22l-0.11-0.19l-0.11-0.19l-0.11-0.19l-0.19-0.15l-0.19-0.11l-0.19-0.11
	l-0.23-0.04l-0.23-0.04l-0.23,0.04l-0.19,0.04l-0.23,0.11l-0.19,0.11l-0.15,0.15l-0.15,0.19l-0.11,0.19l-0.08,0.19l-0.08,0.22v0.49
	l0.08,0.22l0.08,0.19l0.11,0.19l0.15,0.19l0.15,0.15l0.19,0.11l0.23,0.11l0.19,0.04l0.23,0.04l0.23-0.04l0.23-0.04l0.19-0.11
	l0.19-0.11l0.19-0.15l0.11-0.19l0.11-0.19l0.11-0.19l0.04-0.22V142.57h0.91v-0.38l-0.11-0.34l-0.11-0.37l-0.19-0.3l-0.27-0.3
	l-0.27-0.23l-0.3-0.22l-0.34-0.15l-0.34-0.08l-0.38-0.04l-0.34,0.04l-0.38,0.08l-0.34,0.15l-0.3,0.22l-0.27,0.23l-0.23,0.3
	l-0.19,0.3l-0.15,0.37l-0.08,0.34l-0.04,0.38l0.04,0.41l0.08,0.34l0.15,0.37l0.19,0.3l0.23,0.3l0.27,0.23l0.3,0.22l0.34,0.15
	l0.38,0.08l0.34,0.04l0.38-0.04l0.34-0.08l0.34-0.15l0.3-0.22l0.27-0.23l0.27-0.3l0.19-0.3l0.11-0.37l0.11-0.34v-0.41
	 M288.57,157.62v-0.23l-0.08-0.22l-0.08-0.23l-0.11-0.19l-0.15-0.15l-0.15-0.15l-0.19-0.15l-0.23-0.07l-0.19-0.04l-0.23-0.04
	l-0.23,0.04l-0.23,0.04l-0.19,0.07l-0.19,0.15l-0.19,0.15l-0.11,0.15l-0.15,0.19l-0.08,0.23l-0.04,0.22l-0.04,0.23l0.04,0.22
	l0.04,0.23l0.08,0.22l0.15,0.19l0.11,0.19l0.19,0.15l0.19,0.11l0.19,0.07l0.23,0.08h0.46l0.19-0.08l0.23-0.07l0.19-0.11l0.15-0.15
	l0.15-0.19l0.11-0.19l0.08-0.22l0.08-0.23V157.62h0.91l-0.04-0.38l-0.08-0.37l-0.15-0.34l-0.19-0.34l-0.23-0.26l-0.27-0.26
	l-0.3-0.19l-0.34-0.15l-0.38-0.07l-0.34-0.04l-0.38,0.04l-0.34,0.07l-0.34,0.15l-0.3,0.19l-0.3,0.26l-0.23,0.26l-0.19,0.34
	l-0.15,0.34l-0.08,0.37l-0.04,0.38l0.04,0.37l0.08,0.38l0.15,0.34l0.19,0.34l0.23,0.3l0.3,0.23l0.3,0.19l0.34,0.15l0.34,0.11h0.72
	l0.38-0.11l0.34-0.15l0.3-0.19l0.27-0.23l0.23-0.3l0.19-0.34l0.15-0.34l0.08-0.38l0.04-0.37 M287.24,166.1v-0.26l-0.08-0.19
	l-0.08-0.22l-0.11-0.19l-0.15-0.19l-0.15-0.15l-0.19-0.11l-0.23-0.11l-0.19-0.04h-0.46l-0.23,0.04l-0.19,0.11L285,164.9l-0.15,0.15
	l-0.15,0.19l-0.11,0.19l-0.11,0.22l-0.04,0.19v0.49l0.04,0.22l0.11,0.19l0.11,0.19l0.15,0.19l0.15,0.15l0.19,0.11l0.19,0.11
	l0.23,0.04l0.23,0.04l0.23-0.04l0.19-0.04l0.23-0.11l0.19-0.11l0.15-0.15l0.15-0.19l0.11-0.19l0.08-0.19l0.08-0.22V166.1h0.91
	l-0.04-0.37l-0.08-0.38l-0.11-0.37l-0.23-0.3l-0.23-0.3l-0.27-0.23l-0.3-0.22l-0.34-0.11l-0.38-0.11l-0.34-0.04l-0.38,0.04
	l-0.34,0.11l-0.34,0.11l-0.3,0.22l-0.27,0.23l-0.27,0.3l-0.19,0.3l-0.11,0.37l-0.11,0.38v0.75l0.11,0.34l0.11,0.37l0.19,0.3
	l0.27,0.3l0.27,0.23l0.3,0.22l0.34,0.15l0.34,0.08l0.38,0.04l0.34-0.04l0.38-0.08l0.34-0.15l0.3-0.22l0.27-0.23l0.23-0.3l0.23-0.3
	l0.11-0.37l0.08-0.34l0.04-0.38 M295.59,146.32v-0.23l-0.08-0.22l-0.08-0.23l-0.11-0.19l-0.15-0.19l-0.15-0.15l-0.19-0.11
	l-0.23-0.08l-0.19-0.04l-0.23-0.04l-0.23,0.04l-0.23,0.04l-0.19,0.08l-0.19,0.11l-0.15,0.15l-0.15,0.19l-0.11,0.19l-0.08,0.23
	l-0.08,0.22v0.45l0.08,0.23l0.08,0.22l0.11,0.19l0.15,0.19l0.15,0.15l0.19,0.11l0.19,0.07l0.23,0.08h0.46l0.19-0.08l0.23-0.07
	l0.19-0.11l0.15-0.15l0.15-0.19l0.11-0.19l0.08-0.22l0.08-0.23V146.32h0.91v-0.38l-0.11-0.37l-0.11-0.34l-0.19-0.34l-0.27-0.26
	l-0.27-0.26l-0.3-0.19l-0.34-0.15l-0.34-0.07l-0.38-0.04l-0.38,0.04l-0.34,0.07l-0.34,0.15l-0.3,0.19l-0.27,0.26l-0.27,0.26
	l-0.19,0.34l-0.11,0.34l-0.11,0.37v0.75l0.11,0.38l0.11,0.34l0.19,0.34l0.27,0.26l0.27,0.26l0.3,0.19l0.34,0.15l0.34,0.08l0.38,0.04
	l0.38-0.04l0.34-0.08l0.34-0.15l0.3-0.19l0.27-0.26l0.27-0.26l0.19-0.34l0.11-0.34l0.11-0.38v-0.37"/>
<path class="st2" d="M345.57,176.5v-65.08 M345.57,176.5h62.91"/>
<polyline class="st3" points="345.57,176.5 408.49,176.5 408.49,111.42 345.57,111.42 345.57,176.5 "/>
<polygon class="st4" points="367.6,146.04 366.4,147.22 367.6,148.41 368.79,147.22 "/>
<line class="st4" x1="367.6" y1="147.32" x2="367.6" y2="147.13"/>
<polygon class="st4" points="367.6,152.53 366.4,153.72 367.6,154.9 368.79,153.72 "/>
<line class="st4" x1="367.6" y1="153.81" x2="367.6" y2="153.62"/>
<polygon class="st4" points="361.29,146.04 360.1,147.22 361.29,148.41 362.49,147.22 "/>
<line class="st4" x1="361.29" y1="147.32" x2="361.29" y2="147.13"/>
<polygon class="st4" points="364.44,149.27 363.25,150.45 364.44,151.63 365.64,150.45 "/>
<line class="st4" x1="364.44" y1="150.55" x2="364.44" y2="150.36"/>
<polygon class="st4" points="364.44,136.28 363.25,137.47 364.44,138.65 365.64,137.47 "/>
<line class="st4" x1="364.44" y1="137.56" x2="364.44" y2="137.37"/>
<polygon class="st4" points="364.44,142.78 363.25,143.96 364.44,145.14 365.64,143.96 "/>
<line class="st4" x1="364.44" y1="144.05" x2="364.44" y2="143.87"/>
<polygon class="st4" points="358.14,142.78 356.95,143.96 358.14,145.14 359.34,143.96 "/>
<line class="st4" x1="358.14" y1="144.05" x2="358.14" y2="143.87"/>
<polygon class="st4" points="367.6,139.51 366.4,140.69 367.6,141.88 368.79,140.69 "/>
<line class="st4" x1="367.6" y1="140.79" x2="367.6" y2="140.6"/>
<polygon class="st4" points="361.29,139.51 360.1,140.69 361.29,141.88 362.49,140.69 "/>
<line class="st4" x1="361.29" y1="140.79" x2="361.29" y2="140.6"/>
<line class="st4" x1="351.88" y1="171.19" x2="351.88" y2="168.82"/>
<line class="st4" x1="350.68" y1="170.01" x2="353.07" y2="170.01"/>
<line class="st4" x1="358.14" y1="164.66" x2="358.14" y2="162.29"/>
<line class="st4" x1="356.95" y1="163.48" x2="359.34" y2="163.48"/>
<line class="st4" x1="351.88" y1="164.66" x2="351.88" y2="162.29"/>
<line class="st4" x1="350.68" y1="163.48" x2="353.07" y2="163.48"/>
<line class="st4" x1="355.03" y1="167.92" x2="355.03" y2="165.56"/>
<line class="st4" x1="353.83" y1="166.74" x2="356.22" y2="166.74"/>
<line class="st4" x1="357.84" y1="167.92" x2="357.84" y2="165.56"/>
<line class="st4" x1="356.64" y1="166.74" x2="359.03" y2="166.74"/>
<rect x="353.83" y="159.03" class="st4" width="2.39" height="2.37"/>
<line class="st4" x1="355.03" y1="160.3" x2="355.03" y2="160.12"/>
<rect x="356.95" y="149.27" class="st4" width="2.39" height="2.36"/>
<line class="st4" x1="358.14" y1="150.55" x2="358.14" y2="150.36"/>
<rect x="356.95" y="155.8" class="st4" width="2.39" height="2.36"/>
<line class="st4" x1="358.14" y1="157.08" x2="358.14" y2="156.89"/>
<rect x="350.68" y="155.8" class="st4" width="2.39" height="2.36"/>
<line class="st4" x1="351.88" y1="157.08" x2="351.88" y2="156.89"/>
<rect x="360.1" y="152.53" class="st4" width="2.39" height="2.37"/>
<line class="st4" x1="361.29" y1="153.81" x2="361.29" y2="153.62"/>
<rect x="353.83" y="152.53" class="st4" width="2.39" height="2.37"/>
<line class="st4" x1="355.03" y1="153.81" x2="355.03" y2="153.62"/>
<rect x="360.1" y="159.03" class="st4" width="2.39" height="2.37"/>
<line class="st4" x1="361.29" y1="160.3" x2="361.29" y2="160.12"/>
<line class="st4" x1="378.97" y1="133.02" x2="381.36" y2="135.38"/>
<line class="st4" x1="378.97" y1="135.38" x2="381.36" y2="133.02"/>
<line class="st4" x1="391.57" y1="119.99" x2="393.97" y2="122.36"/>
<line class="st4" x1="391.57" y1="122.36" x2="393.97" y2="119.99"/>
<line class="st4" x1="375.85" y1="136.28" x2="378.25" y2="138.65"/>
<line class="st4" x1="375.85" y1="138.65" x2="378.25" y2="136.28"/>
<line class="st4" x1="388.42" y1="123.26" x2="390.81" y2="125.62"/>
<line class="st4" x1="388.42" y1="125.62" x2="390.81" y2="123.26"/>
<line class="st4" x1="388.42" y1="126.49" x2="390.81" y2="128.85"/>
<line class="st4" x1="388.42" y1="128.85" x2="390.81" y2="126.49"/>
<line class="st4" x1="388.42" y1="162.29" x2="390.81" y2="164.66"/>
<line class="st4" x1="388.42" y1="164.66" x2="390.81" y2="162.29"/>
<line class="st4" x1="394.72" y1="123.26" x2="397.12" y2="125.62"/>
<line class="st4" x1="394.72" y1="125.62" x2="397.12" y2="123.26"/>
<line class="st4" x1="388.42" y1="136.28" x2="390.81" y2="138.65"/>
<line class="st4" x1="388.42" y1="138.65" x2="390.81" y2="136.28"/>
<line class="st4" x1="388.42" y1="149.27" x2="390.81" y2="151.63"/>
<line class="st4" x1="388.42" y1="151.63" x2="390.81" y2="149.27"/>
<line class="st4" x1="394.72" y1="155.8" x2="397.12" y2="158.17"/>
<line class="st4" x1="394.72" y1="158.17" x2="397.12" y2="155.8"/>
<line class="st4" x1="394.72" y1="149.27" x2="397.12" y2="151.63"/>
<line class="st4" x1="394.72" y1="151.63" x2="397.12" y2="149.27"/>
<line class="st4" x1="385.27" y1="129.75" x2="387.66" y2="132.12"/>
<line class="st4" x1="385.27" y1="132.12" x2="387.66" y2="129.75"/>
<line class="st4" x1="391.57" y1="159.03" x2="393.97" y2="161.39"/>
<line class="st4" x1="391.57" y1="161.39" x2="393.97" y2="159.03"/>
<line class="st4" x1="397.84" y1="142.78" x2="400.23" y2="145.14"/>
<line class="st4" x1="397.84" y1="145.14" x2="400.23" y2="142.78"/>
<line class="st4" x1="391.57" y1="133.02" x2="393.97" y2="135.38"/>
<line class="st4" x1="391.57" y1="135.38" x2="393.97" y2="133.02"/>
<line class="st4" x1="391.57" y1="159.03" x2="393.97" y2="161.39"/>
<line class="st4" x1="391.57" y1="161.39" x2="393.97" y2="159.03"/>
<line class="st4" x1="397.84" y1="152.53" x2="400.23" y2="154.9"/>
<line class="st4" x1="397.84" y1="154.9" x2="400.23" y2="152.54"/>
<line class="st4" x1="397.84" y1="146.04" x2="400.23" y2="148.41"/>
<line class="st4" x1="397.84" y1="148.41" x2="400.23" y2="146.04"/>
<line class="st4" x1="382.12" y1="149.27" x2="384.51" y2="151.63"/>
<line class="st4" x1="382.12" y1="151.63" x2="384.51" y2="149.27"/>
<path class="st4" d="M392.5,142.57v-0.23l-0.04-0.22l-0.11-0.19l-0.11-0.19l-0.11-0.19l-0.19-0.15l-0.19-0.11l-0.19-0.11l-0.23-0.04
	l-0.23-0.04l-0.23,0.04l-0.19,0.04l-0.23,0.11l-0.19,0.11l-0.15,0.15l-0.15,0.19l-0.11,0.19l-0.08,0.19l-0.08,0.22v0.49l0.08,0.22
	l0.08,0.19l0.11,0.19l0.15,0.19l0.15,0.15l0.19,0.11l0.23,0.11l0.19,0.04l0.23,0.04l0.23-0.04l0.23-0.04l0.19-0.11l0.19-0.11
	l0.19-0.15l0.11-0.19l0.11-0.19l0.11-0.19l0.04-0.22V142.57h0.91v-0.38l-0.11-0.34l-0.11-0.37l-0.19-0.3l-0.27-0.3l-0.27-0.23
	l-0.3-0.22l-0.34-0.15l-0.34-0.08l-0.38-0.04l-0.34,0.04l-0.38,0.08l-0.34,0.15l-0.3,0.22l-0.27,0.23l-0.23,0.3l-0.19,0.3
	l-0.15,0.37l-0.08,0.34l-0.04,0.38l0.04,0.41l0.08,0.34l0.15,0.37l0.19,0.3l0.23,0.3l0.27,0.23l0.3,0.22l0.34,0.15l0.38,0.08
	l0.34,0.04l0.38-0.04l0.34-0.08l0.34-0.15l0.3-0.22l0.27-0.23L393,144l0.19-0.3l0.11-0.37l0.11-0.34v-0.41 M358.52,156.98v-0.23
	l-0.08-0.22l-0.08-0.23l-0.11-0.19l-0.15-0.19l-0.15-0.15l-0.19-0.11l-0.23-0.08l-0.19-0.07h-0.46l-0.23,0.07l-0.19,0.08l-0.19,0.11
	l-0.19,0.15l-0.11,0.19l-0.11,0.19l-0.11,0.23l-0.04,0.22v0.45l0.04,0.23l0.11,0.22l0.11,0.19l0.11,0.15l0.19,0.15l0.19,0.15
	l0.19,0.08l0.23,0.04l0.23,0.04l0.23-0.04l0.19-0.04l0.23-0.08l0.19-0.15l0.15-0.15l0.15-0.15l0.11-0.19l0.08-0.22l0.08-0.23V156.98
	h0.91l-0.04-0.38l-0.08-0.37l-0.15-0.34l-0.19-0.34l-0.23-0.3l-0.27-0.22l-0.3-0.19l-0.34-0.15l-0.38-0.11h-0.72l-0.34,0.11
	l-0.34,0.15l-0.3,0.19l-0.3,0.22l-0.23,0.3l-0.19,0.34l-0.15,0.34l-0.08,0.37l-0.04,0.38l0.04,0.37l0.08,0.38l0.15,0.34l0.19,0.34
	l0.23,0.26l0.3,0.26l0.3,0.19l0.34,0.15l0.34,0.07l0.38,0.04l0.34-0.04l0.38-0.07l0.34-0.15l0.3-0.19l0.27-0.26l0.23-0.26l0.19-0.34
	l0.15-0.34l0.08-0.38l0.04-0.37 M356.36,166.1v-0.26l-0.08-0.19l-0.08-0.22l-0.11-0.19l-0.15-0.19l-0.15-0.15l-0.19-0.11l-0.23-0.11
	l-0.19-0.04h-0.46l-0.23,0.04l-0.19,0.11l-0.19,0.11l-0.15,0.15l-0.15,0.19l-0.11,0.19l-0.11,0.22l-0.04,0.19v0.49l0.04,0.22
	l0.11,0.19l0.11,0.19l0.15,0.19l0.15,0.15l0.19,0.11l0.19,0.11l0.23,0.04l0.23,0.04l0.23-0.04l0.19-0.04l0.23-0.11l0.19-0.11
	l0.15-0.15l0.15-0.19l0.11-0.19l0.08-0.19l0.08-0.22V166.1h0.91l-0.04-0.37l-0.08-0.38l-0.11-0.37l-0.23-0.3l-0.23-0.3l-0.27-0.23
	l-0.3-0.22l-0.34-0.11l-0.38-0.11l-0.34-0.04l-0.38,0.04l-0.34,0.11l-0.34,0.11l-0.3,0.22l-0.27,0.23l-0.27,0.3l-0.19,0.3
	l-0.11,0.37l-0.11,0.38v0.75l0.11,0.34l0.11,0.37l0.19,0.3l0.27,0.3l0.27,0.23l0.3,0.22l0.34,0.15l0.34,0.08l0.38,0.04l0.34-0.04
	l0.38-0.08l0.34-0.15l0.3-0.22l0.27-0.23l0.23-0.3l0.23-0.3l0.11-0.37l0.08-0.34l0.04-0.38 M364.94,145.57l-0.04-0.23l-0.04-0.22
	l-0.11-0.19l-0.11-0.23l-0.11-0.15l-0.19-0.15l-0.19-0.11l-0.19-0.11l-0.23-0.04l-0.23-0.04l-0.23,0.04l-0.19,0.04l-0.23,0.11
	l-0.19,0.11l-0.15,0.15l-0.15,0.15l-0.11,0.23l-0.08,0.19l-0.08,0.22v0.45l0.08,0.23l0.08,0.22l0.11,0.19l0.15,0.19l0.15,0.15
	l0.19,0.11l0.23,0.07l0.19,0.08h0.46l0.23-0.08l0.19-0.07l0.19-0.11l0.19-0.15l0.11-0.19l0.11-0.19l0.11-0.22l0.04-0.23
	L364.94,145.57h0.91l-0.04-0.38l-0.08-0.34l-0.15-0.37l-0.19-0.3l-0.23-0.3l-0.3-0.26l-0.3-0.19l-0.34-0.15l-0.34-0.07l-0.38-0.04
	l-0.34,0.04l-0.38,0.07l-0.34,0.15l-0.3,0.19l-0.27,0.26l-0.23,0.3l-0.19,0.3l-0.15,0.37l-0.08,0.34l-0.04,0.38l0.04,0.37l0.08,0.38
	l0.15,0.34l0.19,0.34l0.23,0.3l0.27,0.23l0.3,0.22l0.34,0.11l0.38,0.11l0.34,0.04l0.38-0.04l0.34-0.11l0.34-0.11l0.3-0.22l0.3-0.23
	l0.23-0.3l0.19-0.34l0.15-0.34l0.08-0.38l0.04-0.37"/>
</svg>
