<?xml version="1.0" encoding="utf-8"?>
<!-- Generator: Adobe Illustrator 24.3.0, SVG Export Plug-In . SVG Version: 6.00 Build 0)  -->
<svg version="1.1" id="Layer_1" xmlns="http://www.w3.org/2000/svg" xmlns:xlink="http://www.w3.org/1999/xlink" x="0px" y="0px"
	 viewBox="0 0 483.05 166.53" style="enable-background:new 0 0 483.05 166.53;" xml:space="preserve">
<style type="text/css">
	.st0{font-family:'Monaco';}
	.st1{font-size:8.97px;}
	.st2{fill:none;stroke:#000000;stroke-width:0.1;stroke-miterlimit:10;stroke-dasharray:0.42,0.83;}
	.st3{fill:none;stroke:#000000;stroke-width:0.42;stroke-miterlimit:10;}
	.st4{fill:none;stroke:#000000;stroke-width:0.21;stroke-miterlimit:10;}
</style>
<text transform="matrix(1 0 0 1 7.13 7.8846)" class="st0 st1">Assignment</text>
<text transform="matrix(1 0 0 1 89.82 7.8846)" class="st0 st1">Update</text>
<path class="st2" d="M0.21,85.65V14.06 M0.21,85.65h69.2"/>
<polyline class="st3" points="0.21,85.64 69.41,85.64 69.41,14.06 0.21,14.06 0.21,85.64 "/>
<polygon class="st4" points="24.43,52.14 23.12,53.44 24.43,54.74 25.75,53.44 "/>
<line class="st4" x1="24.43" y1="53.55" x2="24.43" y2="53.34"/>
<polygon class="st4" points="38.26,37.82 36.94,39.12 38.26,40.42 39.57,39.12 "/>
<line class="st4" x1="38.26" y1="39.22" x2="38.26" y2="39.01"/>
<polygon class="st4" points="52.12,23.49 50.81,24.79 52.12,26.09 53.44,24.79 "/>
<line class="st4" x1="52.12" y1="24.89" x2="52.12" y2="24.69"/>
<polygon class="st4" points="24.43,59.28 23.12,60.58 24.43,61.89 25.75,60.58 "/>
<line class="st4" x1="24.43" y1="60.69" x2="24.43" y2="60.48"/>
<polygon class="st4" points="20.96,55.69 19.65,56.99 20.96,58.29 22.28,56.99 "/>
<line class="st4" x1="20.97" y1="57.1" x2="20.97" y2="56.89"/>
<polygon class="st4" points="34.83,41.41 33.52,42.71 34.83,44.01 36.15,42.71 "/>
<line class="st4" x1="34.83" y1="42.81" x2="34.83" y2="42.61"/>
<polygon class="st4" points="48.66,27.08 47.34,28.38 48.66,29.68 49.97,28.38 "/>
<line class="st4" x1="48.66" y1="28.49" x2="48.66" y2="28.28"/>
<polygon class="st4" points="48.66,30.63 47.34,31.93 48.66,33.23 49.97,31.93 "/>
<line class="st4" x1="48.66" y1="32.04" x2="48.66" y2="31.83"/>
<polygon class="st4" points="7.14,77.2 5.83,78.5 7.14,79.8 8.46,78.5 "/>
<line class="st4" x1="7.14" y1="78.61" x2="7.14" y2="78.4"/>
<polygon class="st4" points="14.03,62.88 12.72,64.18 14.03,65.48 15.35,64.18 "/>
<line class="st4" x1="14.03" y1="64.28" x2="14.03" y2="64.07"/>
<polygon class="st4" points="20.96,48.55 19.65,49.85 20.96,51.15 22.28,49.85 "/>
<line class="st4" x1="20.97" y1="49.95" x2="20.97" y2="49.75"/>
<polygon class="st4" points="48.66,70.02 47.34,71.32 48.66,72.62 49.97,71.32 "/>
<line class="st4" x1="48.66" y1="71.42" x2="48.66" y2="71.22"/>
<polygon class="st4" points="55.59,27.08 54.27,28.38 55.59,29.68 56.91,28.38 "/>
<line class="st4" x1="55.59" y1="28.49" x2="55.59" y2="28.28"/>
<polygon class="st4" points="48.66,41.41 47.34,42.71 48.66,44.01 49.97,42.71 "/>
<line class="st4" x1="48.66" y1="42.81" x2="48.66" y2="42.61"/>
<polygon class="st4" points="48.66,55.69 47.34,56.99 48.66,58.29 49.97,56.99 "/>
<line class="st4" x1="48.66" y1="57.1" x2="48.66" y2="56.89"/>
<polygon class="st4" points="55.59,62.88 54.27,64.18 55.59,65.48 56.91,64.18 "/>
<line class="st4" x1="55.59" y1="64.28" x2="55.59" y2="64.07"/>
<polygon class="st4" points="55.59,55.69 54.27,56.99 55.59,58.29 56.91,56.99 "/>
<line class="st4" x1="55.59" y1="57.1" x2="55.59" y2="56.89"/>
<polygon class="st4" points="45.19,34.22 43.87,35.52 45.19,36.82 46.51,35.52 "/>
<line class="st4" x1="45.19" y1="35.63" x2="45.19" y2="35.42"/>
<polygon class="st4" points="14.03,70.02 12.72,71.32 14.03,72.62 15.35,71.32 "/>
<line class="st4" x1="14.03" y1="71.42" x2="14.03" y2="71.22"/>
<polygon class="st4" points="10.61,73.61 9.29,74.91 10.61,76.21 11.92,74.91 "/>
<line class="st4" x1="10.61" y1="75.01" x2="10.61" y2="74.81"/>
<polygon class="st4" points="17.5,59.28 16.18,60.58 17.5,61.89 18.81,60.58 "/>
<line class="st4" x1="17.5" y1="60.69" x2="17.5" y2="60.48"/>
<polygon class="st4" points="24.43,44.96 23.12,46.26 24.43,47.56 25.75,46.26 "/>
<line class="st4" x1="24.43" y1="46.36" x2="24.43" y2="46.16"/>
<polygon class="st4" points="52.12,66.43 50.81,67.73 52.12,69.03 53.44,67.73 "/>
<line class="st4" x1="52.12" y1="67.83" x2="52.12" y2="67.62"/>
<polygon class="st4" points="59.01,48.55 57.7,49.85 59.01,51.15 60.33,49.85 "/>
<line class="st4" x1="59.01" y1="49.95" x2="59.01" y2="49.75"/>
<polygon class="st4" points="52.12,37.82 50.81,39.12 52.12,40.42 53.44,39.12 "/>
<line class="st4" x1="52.12" y1="39.22" x2="52.12" y2="39.01"/>
<polygon class="st4" points="52.12,66.43 50.81,67.73 52.12,69.03 53.44,67.73 "/>
<line class="st4" x1="52.12" y1="67.83" x2="52.12" y2="67.62"/>
<polygon class="st4" points="59.01,59.28 57.7,60.58 59.01,61.89 60.33,60.58 "/>
<line class="st4" x1="59.01" y1="60.69" x2="59.01" y2="60.48"/>
<polygon class="st4" points="59.01,52.14 57.7,53.44 59.01,54.74 60.33,53.44 "/>
<line class="st4" x1="59.01" y1="53.55" x2="59.01" y2="53.34"/>
<polygon class="st4" points="41.72,55.69 40.41,56.99 41.72,58.29 43.04,56.99 "/>
<line class="st4" x1="41.72" y1="57.1" x2="41.72" y2="56.89"/>
<polygon class="st4" points="17.5,66.43 16.18,67.73 17.5,69.03 18.81,67.73 "/>
<line class="st4" x1="17.5" y1="67.83" x2="17.5" y2="67.62"/>
<polygon class="st4" points="13.7,73.61 12.38,74.91 13.7,76.21 15.01,74.91 "/>
<line class="st4" x1="13.7" y1="75.01" x2="13.7" y2="74.81"/>
<line class="st4" x1="10.61" y1="69.03" x2="10.61" y2="66.43"/>
<line class="st4" x1="9.29" y1="67.73" x2="11.92" y2="67.73"/>
<line class="st4" x1="17.5" y1="54.74" x2="17.5" y2="52.14"/>
<line class="st4" x1="16.18" y1="53.44" x2="18.81" y2="53.44"/>
<line class="st4" x1="20.97" y1="44.01" x2="20.97" y2="41.41"/>
<line class="st4" x1="19.65" y1="42.71" x2="22.28" y2="42.71"/>
<line class="st4" x1="14.03" y1="58.29" x2="14.03" y2="55.69"/>
<line class="st4" x1="12.72" y1="56.99" x2="15.35" y2="56.99"/>
<line class="st4" x1="7.14" y1="65.48" x2="7.14" y2="62.88"/>
<line class="st4" x1="5.83" y1="64.18" x2="8.46" y2="64.18"/>
<line class="st4" x1="14.03" y1="51.15" x2="14.03" y2="48.55"/>
<line class="st4" x1="12.72" y1="49.85" x2="15.35" y2="49.85"/>
<line class="st4" x1="7.14" y1="72.62" x2="7.14" y2="70.02"/>
<line class="st4" x1="5.83" y1="71.32" x2="8.46" y2="71.32"/>
<line class="st4" x1="10.61" y1="61.89" x2="10.61" y2="59.28"/>
<line class="st4" x1="9.29" y1="60.58" x2="11.92" y2="60.58"/>
<line class="st4" x1="17.5" y1="47.56" x2="17.5" y2="44.96"/>
<line class="st4" x1="16.18" y1="46.26" x2="18.81" y2="46.26"/>
<path class="st4" d="M9.48,33.76v-0.25v-0.25l-0.09-0.2l-0.2-0.3L9,32.63l-0.21-0.16L8.58,32.3l-0.21-0.08H8.12H7.91H7.66H7.41
	L7.2,32.3L7,32.47l-0.21,0.16L6.62,32.8l-0.13,0.25l-0.08,0.2v0.25v0.25V34v0.24l0.08,0.25l0.13,0.21l0.17,0.2L7,35.07l0.2,0.12
	l0.21,0.09l0.25,0.08h0.46l0.25-0.08l0.21-0.09l0.21-0.12L9,34.9l0.17-0.2l0.12-0.21l0.09-0.25V34v-0.25h1v-0.41l-0.08-0.42
	l-0.17-0.37l-0.21-0.33l-0.25-0.33L9.38,31.6L9,31.4l-0.33-0.17l-0.42-0.08H7.87H7.46l-0.38,0.08L6.71,31.4l-0.34,0.2l-0.33,0.29
	l-0.25,0.33l-0.21,0.33l-0.17,0.37l-0.08,0.42v0.41v0.41l0.08,0.41l0.17,0.38l0.21,0.37l0.25,0.33l0.33,0.25l0.34,0.2l0.37,0.17
	l0.38,0.12h0.79l0.42-0.12L9,36.1l0.38-0.2l0.29-0.25l0.25-0.33l0.21-0.37l0.17-0.38l0.08-0.41v-0.41 M41.79,50.1v-0.25V49.6
	l-0.09-0.2l-0.12-0.21l-0.17-0.21l-0.21-0.16l-0.21-0.13l-0.21-0.12h-0.25h-0.25h-0.21h-0.25l-0.25,0.12l-0.21,0.13l-0.16,0.16
	l-0.17,0.21L38.9,49.4l-0.08,0.2v0.25v0.25v0.29v0.24l0.08,0.21l0.13,0.21l0.17,0.2l0.16,0.17l0.21,0.12l0.25,0.13h0.25h0.21h0.25
	h0.25l0.21-0.13l0.21-0.12l0.21-0.17l0.17-0.2l0.12-0.21l0.09-0.21v-0.24V50.1h1v-0.42l-0.08-0.37l-0.17-0.41l-0.21-0.33l-0.25-0.33
	l-0.33-0.25l-0.34-0.24l-0.37-0.17l-0.38-0.08h-0.42h-0.37l-0.42,0.08l-0.34,0.17l-0.37,0.24l-0.29,0.25l-0.25,0.33l-0.21,0.33
	l-0.17,0.41l-0.08,0.37v0.42v0.45l0.08,0.37l0.17,0.42l0.21,0.33L38.45,52l0.29,0.25l0.37,0.24l0.34,0.17l0.42,0.08h0.37h0.42
	l0.38-0.08l0.37-0.17l0.34-0.24L42.08,52l0.25-0.33l0.21-0.33l0.17-0.42l0.08-0.37V50.1"/>
<path class="st2" d="M82.94,85.65V14.06 M82.94,85.65h69.2"/>
<polyline class="st3" points="82.94,85.64 152.14,85.64 152.14,14.06 82.94,14.06 82.94,85.64 "/>
<polygon class="st4" points="107.16,52.14 105.84,53.44 107.16,54.74 108.47,53.44 "/>
<line class="st4" x1="107.16" y1="53.55" x2="107.16" y2="53.34"/>
<polygon class="st4" points="120.98,37.82 119.67,39.12 120.98,40.42 122.3,39.12 "/>
<line class="st4" x1="120.98" y1="39.22" x2="120.98" y2="39.01"/>
<polygon class="st4" points="134.85,23.49 133.53,24.79 134.85,26.09 136.17,24.79 "/>
<line class="st4" x1="134.85" y1="24.89" x2="134.85" y2="24.69"/>
<polygon class="st4" points="107.16,59.28 105.84,60.58 107.16,61.89 108.47,60.58 "/>
<line class="st4" x1="107.16" y1="60.69" x2="107.16" y2="60.48"/>
<polygon class="st4" points="103.69,55.69 102.38,56.99 103.69,58.29 105.01,56.99 "/>
<line class="st4" x1="103.69" y1="57.1" x2="103.69" y2="56.89"/>
<polygon class="st4" points="117.56,41.41 116.24,42.71 117.56,44.01 118.88,42.71 "/>
<line class="st4" x1="117.56" y1="42.81" x2="117.56" y2="42.61"/>
<polygon class="st4" points="131.38,27.08 130.07,28.38 131.38,29.68 132.7,28.38 "/>
<line class="st4" x1="131.38" y1="28.49" x2="131.38" y2="28.28"/>
<polygon class="st4" points="131.38,30.63 130.07,31.93 131.38,33.23 132.7,31.93 "/>
<line class="st4" x1="131.38" y1="32.04" x2="131.38" y2="31.83"/>
<polygon class="st4" points="89.87,77.2 88.55,78.5 89.87,79.8 91.19,78.5 "/>
<line class="st4" x1="89.87" y1="78.61" x2="89.87" y2="78.4"/>
<polygon class="st4" points="96.76,62.88 95.44,64.18 96.76,65.48 98.08,64.18 "/>
<line class="st4" x1="96.76" y1="64.28" x2="96.76" y2="64.07"/>
<polygon class="st4" points="103.69,48.55 102.38,49.85 103.69,51.15 105.01,49.85 "/>
<line class="st4" x1="103.69" y1="49.95" x2="103.69" y2="49.75"/>
<polygon class="st4" points="131.38,70.02 130.07,71.32 131.38,72.62 132.7,71.32 "/>
<line class="st4" x1="131.38" y1="71.42" x2="131.38" y2="71.22"/>
<polygon class="st4" points="138.32,27.08 137,28.38 138.32,29.68 139.63,28.38 "/>
<line class="st4" x1="138.32" y1="28.49" x2="138.32" y2="28.28"/>
<polygon class="st4" points="131.38,41.41 130.07,42.71 131.38,44.01 132.7,42.71 "/>
<line class="st4" x1="131.38" y1="42.81" x2="131.38" y2="42.61"/>
<polygon class="st4" points="131.38,55.69 130.07,56.99 131.38,58.29 132.7,56.99 "/>
<line class="st4" x1="131.38" y1="57.1" x2="131.38" y2="56.89"/>
<polygon class="st4" points="138.32,62.88 137,64.18 138.32,65.48 139.63,64.18 "/>
<line class="st4" x1="138.32" y1="64.28" x2="138.32" y2="64.07"/>
<polygon class="st4" points="138.32,55.69 137,56.99 138.32,58.29 139.63,56.99 "/>
<line class="st4" x1="138.32" y1="57.1" x2="138.32" y2="56.89"/>
<polygon class="st4" points="127.92,34.22 126.6,35.52 127.92,36.82 129.23,35.52 "/>
<line class="st4" x1="127.92" y1="35.63" x2="127.92" y2="35.42"/>
<polygon class="st4" points="96.76,70.02 95.44,71.32 96.76,72.62 98.08,71.32 "/>
<line class="st4" x1="96.76" y1="71.42" x2="96.76" y2="71.22"/>
<polygon class="st4" points="93.33,73.61 92.02,74.91 93.33,76.21 94.65,74.91 "/>
<line class="st4" x1="93.34" y1="75.01" x2="93.34" y2="74.81"/>
<polygon class="st4" points="100.23,59.28 98.91,60.58 100.23,61.89 101.54,60.58 "/>
<line class="st4" x1="100.23" y1="60.69" x2="100.23" y2="60.48"/>
<polygon class="st4" points="107.16,44.96 105.84,46.26 107.16,47.56 108.47,46.26 "/>
<line class="st4" x1="107.16" y1="46.36" x2="107.16" y2="46.16"/>
<polygon class="st4" points="134.85,66.43 133.53,67.73 134.85,69.03 136.17,67.73 "/>
<line class="st4" x1="134.85" y1="67.83" x2="134.85" y2="67.62"/>
<polygon class="st4" points="141.74,48.55 140.43,49.85 141.74,51.15 143.06,49.85 "/>
<line class="st4" x1="141.74" y1="49.95" x2="141.74" y2="49.75"/>
<polygon class="st4" points="134.85,37.82 133.53,39.12 134.85,40.42 136.17,39.12 "/>
<line class="st4" x1="134.85" y1="39.22" x2="134.85" y2="39.01"/>
<polygon class="st4" points="134.85,66.43 133.53,67.73 134.85,69.03 136.17,67.73 "/>
<line class="st4" x1="134.85" y1="67.83" x2="134.85" y2="67.62"/>
<polygon class="st4" points="141.74,59.28 140.43,60.58 141.74,61.89 143.06,60.58 "/>
<line class="st4" x1="141.74" y1="60.69" x2="141.74" y2="60.48"/>
<polygon class="st4" points="141.74,52.14 140.43,53.44 141.74,54.74 143.06,53.44 "/>
<line class="st4" x1="141.74" y1="53.55" x2="141.74" y2="53.34"/>
<polygon class="st4" points="124.45,55.69 123.14,56.99 124.45,58.29 125.77,56.99 "/>
<line class="st4" x1="124.45" y1="57.1" x2="124.45" y2="56.89"/>
<polygon class="st4" points="100.23,66.43 98.91,67.73 100.23,69.03 101.54,67.73 "/>
<line class="st4" x1="100.23" y1="67.83" x2="100.23" y2="67.62"/>
<polygon class="st4" points="96.43,73.61 95.11,74.91 96.43,76.21 97.74,74.91 "/>
<line class="st4" x1="96.43" y1="75.01" x2="96.43" y2="74.81"/>
<line class="st4" x1="93.34" y1="69.03" x2="93.34" y2="66.43"/>
<line class="st4" x1="92.02" y1="67.73" x2="94.65" y2="67.73"/>
<line class="st4" x1="100.23" y1="54.74" x2="100.23" y2="52.14"/>
<line class="st4" x1="98.91" y1="53.44" x2="101.54" y2="53.44"/>
<line class="st4" x1="103.69" y1="44.01" x2="103.69" y2="41.41"/>
<line class="st4" x1="102.38" y1="42.71" x2="105.01" y2="42.71"/>
<line class="st4" x1="96.76" y1="58.29" x2="96.76" y2="55.69"/>
<line class="st4" x1="95.44" y1="56.99" x2="98.08" y2="56.99"/>
<line class="st4" x1="89.87" y1="65.48" x2="89.87" y2="62.88"/>
<line class="st4" x1="88.55" y1="64.18" x2="91.18" y2="64.18"/>
<line class="st4" x1="96.76" y1="51.15" x2="96.76" y2="48.55"/>
<line class="st4" x1="95.44" y1="49.85" x2="98.08" y2="49.85"/>
<line class="st4" x1="89.87" y1="72.62" x2="89.87" y2="70.02"/>
<line class="st4" x1="88.55" y1="71.32" x2="91.18" y2="71.32"/>
<line class="st4" x1="93.34" y1="61.89" x2="93.34" y2="59.28"/>
<line class="st4" x1="92.02" y1="60.58" x2="94.65" y2="60.58"/>
<line class="st4" x1="100.23" y1="47.56" x2="100.23" y2="44.96"/>
<line class="st4" x1="98.91" y1="46.26" x2="101.54" y2="46.26"/>
<path class="st4" d="M97.55,56.99v-0.23l-0.08-0.24l-0.08-0.21l-0.13-0.25l-0.17-0.16l-0.16-0.17l-0.21-0.12l-0.21-0.12l-0.25-0.05
	h-0.25h-0.25l-0.25,0.05l-0.21,0.12l-0.21,0.12l-0.17,0.17l-0.16,0.16l-0.13,0.25l-0.08,0.21l-0.09,0.24v0.54l0.09,0.21l0.08,0.25
	l0.13,0.2l0.16,0.21l0.17,0.16l0.21,0.13l0.21,0.12h0.25h0.5h0.25l0.21-0.12l0.21-0.13l0.16-0.16l0.17-0.21l0.13-0.2l0.08-0.25
	l0.08-0.21v-0.29h1V56.6l-0.13-0.37l-0.12-0.41l-0.21-0.33l-0.3-0.33l-0.29-0.29l-0.33-0.21l-0.38-0.17l-0.37-0.08H96h-0.42
	l-0.38,0.08l-0.37,0.17l-0.34,0.21l-0.29,0.29l-0.29,0.33l-0.21,0.33l-0.12,0.41l-0.13,0.37v0.83l0.13,0.41l0.12,0.41l0.21,0.33
	l0.29,0.33l0.29,0.25l0.34,0.25l0.37,0.12l0.38,0.13H96h0.42l0.37-0.13l0.38-0.12l0.33-0.25l0.29-0.25l0.3-0.33l0.21-0.33l0.12-0.41
	l0.13-0.41v-0.42 M121.85,54.12v-0.25v-0.24l-0.13-0.21l-0.12-0.21l-0.17-0.2l-0.16-0.17l-0.21-0.12l-0.21-0.12h-0.25h-0.25h-0.25
	h-0.21l-0.25,0.12l-0.21,0.12l-0.17,0.17l-0.17,0.2l-0.12,0.21l-0.09,0.21l-0.08,0.24v0.54l0.08,0.25l0.09,0.21l0.12,0.2l0.17,0.21
	l0.17,0.16l0.21,0.13l0.25,0.12h0.21h0.5h0.25l0.21-0.12l0.21-0.13l0.16-0.16l0.17-0.21l0.12-0.2l0.13-0.21v-0.25V54.12h1v-0.41
	l-0.12-0.37l-0.13-0.41l-0.21-0.33l-0.29-0.33l-0.29-0.25l-0.33-0.25l-0.38-0.17l-0.38-0.08h-0.41h-0.42l-0.38,0.08l-0.37,0.17
	l-0.34,0.25l-0.29,0.25l-0.29,0.33l-0.21,0.33l-0.13,0.41l-0.12,0.37v0.87l0.12,0.37l0.13,0.41l0.21,0.33l0.29,0.33l0.29,0.25
	l0.34,0.25l0.37,0.12l0.38,0.12l0.42,0.05l0.41-0.05l0.38-0.12l0.38-0.12l0.33-0.25l0.29-0.25l0.29-0.33l0.21-0.33l0.13-0.41
	l0.12-0.37v-0.46"/>
<path class="st2" d="M165.56,85.65V14.06 M165.56,85.65h69.2"/>
<polyline class="st3" points="165.56,85.64 234.76,85.64 234.76,14.06 165.56,14.06 165.56,85.64 "/>
<polygon class="st4" points="203.6,37.82 202.29,39.12 203.6,40.42 204.92,39.12 "/>
<line class="st4" x1="203.6" y1="39.22" x2="203.6" y2="39.01"/>
<polygon class="st4" points="217.47,23.49 216.16,24.79 217.47,26.09 218.79,24.79 "/>
<line class="st4" x1="217.47" y1="24.89" x2="217.47" y2="24.69"/>
<polygon class="st4" points="200.18,41.41 198.87,42.71 200.18,44.01 201.5,42.71 "/>
<line class="st4" x1="200.18" y1="42.81" x2="200.18" y2="42.61"/>
<polygon class="st4" points="214,27.08 212.69,28.38 214,29.68 215.32,28.38 "/>
<line class="st4" x1="214" y1="28.49" x2="214" y2="28.28"/>
<polygon class="st4" points="214,30.63 212.69,31.93 214,33.23 215.32,31.93 "/>
<line class="st4" x1="214" y1="32.04" x2="214" y2="31.83"/>
<polygon class="st4" points="214,70.02 212.69,71.32 214,72.62 215.32,71.32 "/>
<line class="st4" x1="214" y1="71.42" x2="214" y2="71.22"/>
<polygon class="st4" points="220.94,27.08 219.62,28.38 220.94,29.68 222.25,28.38 "/>
<line class="st4" x1="220.94" y1="28.49" x2="220.94" y2="28.28"/>
<polygon class="st4" points="214,41.41 212.69,42.71 214,44.01 215.32,42.71 "/>
<line class="st4" x1="214" y1="42.81" x2="214" y2="42.61"/>
<polygon class="st4" points="214,55.69 212.69,56.99 214,58.29 215.32,56.99 "/>
<line class="st4" x1="214" y1="57.1" x2="214" y2="56.89"/>
<polygon class="st4" points="220.94,62.88 219.62,64.18 220.94,65.48 222.25,64.18 "/>
<line class="st4" x1="220.94" y1="64.28" x2="220.94" y2="64.07"/>
<polygon class="st4" points="220.94,55.69 219.62,56.99 220.94,58.29 222.25,56.99 "/>
<line class="st4" x1="220.94" y1="57.1" x2="220.94" y2="56.89"/>
<polygon class="st4" points="210.54,34.22 209.22,35.52 210.54,36.82 211.85,35.52 "/>
<line class="st4" x1="210.54" y1="35.63" x2="210.54" y2="35.42"/>
<polygon class="st4" points="189.78,44.96 188.47,46.26 189.78,47.56 191.1,46.26 "/>
<line class="st4" x1="189.78" y1="46.36" x2="189.78" y2="46.16"/>
<polygon class="st4" points="217.47,66.43 216.16,67.73 217.47,69.03 218.79,67.73 "/>
<line class="st4" x1="217.47" y1="67.83" x2="217.47" y2="67.62"/>
<polygon class="st4" points="224.36,48.55 223.05,49.85 224.36,51.15 225.68,49.85 "/>
<line class="st4" x1="224.36" y1="49.95" x2="224.36" y2="49.75"/>
<polygon class="st4" points="217.47,37.82 216.16,39.12 217.47,40.42 218.79,39.12 "/>
<line class="st4" x1="217.47" y1="39.22" x2="217.47" y2="39.01"/>
<polygon class="st4" points="217.47,66.43 216.16,67.73 217.47,69.03 218.79,67.73 "/>
<line class="st4" x1="217.47" y1="67.83" x2="217.47" y2="67.62"/>
<polygon class="st4" points="224.36,59.28 223.05,60.58 224.36,61.89 225.68,60.58 "/>
<line class="st4" x1="224.36" y1="60.69" x2="224.36" y2="60.48"/>
<polygon class="st4" points="224.36,52.14 223.05,53.44 224.36,54.74 225.68,53.44 "/>
<line class="st4" x1="224.36" y1="53.55" x2="224.36" y2="53.34"/>
<polygon class="st4" points="207.07,55.69 205.75,56.99 207.07,58.29 208.39,56.99 "/>
<line class="st4" x1="207.07" y1="57.1" x2="207.07" y2="56.89"/>
<line class="st4" x1="175.96" y1="69.03" x2="175.96" y2="66.43"/>
<line class="st4" x1="174.64" y1="67.73" x2="177.27" y2="67.73"/>
<line class="st4" x1="189.78" y1="54.74" x2="189.78" y2="52.14"/>
<line class="st4" x1="188.46" y1="53.44" x2="191.1" y2="53.44"/>
<line class="st4" x1="189.78" y1="61.89" x2="189.78" y2="59.28"/>
<line class="st4" x1="188.46" y1="60.58" x2="191.1" y2="60.58"/>
<line class="st4" x1="182.85" y1="54.74" x2="182.85" y2="52.14"/>
<line class="st4" x1="181.53" y1="53.44" x2="184.16" y2="53.44"/>
<line class="st4" x1="186.31" y1="58.29" x2="186.31" y2="55.69"/>
<line class="st4" x1="185" y1="56.99" x2="187.63" y2="56.99"/>
<line class="st4" x1="186.31" y1="44.01" x2="186.31" y2="41.41"/>
<line class="st4" x1="185" y1="42.71" x2="187.63" y2="42.71"/>
<line class="st4" x1="179.38" y1="58.29" x2="179.38" y2="55.69"/>
<line class="st4" x1="178.07" y1="56.99" x2="180.7" y2="56.99"/>
<line class="st4" x1="172.49" y1="79.8" x2="172.49" y2="77.2"/>
<line class="st4" x1="171.17" y1="78.5" x2="173.8" y2="78.5"/>
<line class="st4" x1="179.38" y1="65.48" x2="179.38" y2="62.88"/>
<line class="st4" x1="178.07" y1="64.18" x2="180.7" y2="64.18"/>
<line class="st4" x1="186.31" y1="51.15" x2="186.31" y2="48.55"/>
<line class="st4" x1="185" y1="49.85" x2="187.63" y2="49.85"/>
<line class="st4" x1="172.49" y1="65.48" x2="172.49" y2="62.88"/>
<line class="st4" x1="171.17" y1="64.18" x2="173.8" y2="64.18"/>
<line class="st4" x1="179.38" y1="51.15" x2="179.38" y2="48.55"/>
<line class="st4" x1="178.07" y1="49.85" x2="180.7" y2="49.85"/>
<line class="st4" x1="179.38" y1="72.62" x2="179.38" y2="70.02"/>
<line class="st4" x1="178.07" y1="71.32" x2="180.7" y2="71.32"/>
<line class="st4" x1="172.49" y1="72.62" x2="172.49" y2="70.02"/>
<line class="st4" x1="171.17" y1="71.32" x2="173.8" y2="71.32"/>
<line class="st4" x1="175.96" y1="76.21" x2="175.96" y2="73.61"/>
<line class="st4" x1="174.64" y1="74.91" x2="177.27" y2="74.91"/>
<line class="st4" x1="182.85" y1="61.89" x2="182.85" y2="59.28"/>
<line class="st4" x1="181.53" y1="60.58" x2="184.16" y2="60.58"/>
<line class="st4" x1="175.96" y1="61.89" x2="175.96" y2="59.28"/>
<line class="st4" x1="174.64" y1="60.58" x2="177.27" y2="60.58"/>
<line class="st4" x1="182.85" y1="47.56" x2="182.85" y2="44.96"/>
<line class="st4" x1="181.53" y1="46.26" x2="184.16" y2="46.26"/>
<line class="st4" x1="182.85" y1="69.03" x2="182.85" y2="66.43"/>
<line class="st4" x1="181.53" y1="67.73" x2="184.16" y2="67.73"/>
<line class="st4" x1="179.05" y1="76.21" x2="179.05" y2="73.61"/>
<line class="st4" x1="177.73" y1="74.91" x2="180.36" y2="74.91"/>
<path class="st4" d="M180.17,56.99v-0.23l-0.08-0.24l-0.08-0.21l-0.13-0.25l-0.17-0.16l-0.16-0.17l-0.21-0.12l-0.21-0.12l-0.25-0.05
	h-0.25h-0.25l-0.25,0.05l-0.21,0.12l-0.21,0.12l-0.17,0.17l-0.16,0.16l-0.13,0.25l-0.08,0.21l-0.09,0.24v0.54l0.09,0.21l0.08,0.25
	l0.13,0.2l0.16,0.21l0.17,0.16l0.21,0.13l0.21,0.12h0.25h0.5h0.25l0.21-0.12l0.21-0.13l0.16-0.16l0.17-0.21l0.13-0.2l0.08-0.25
	l0.08-0.21v-0.29h1V56.6l-0.13-0.37l-0.12-0.41l-0.21-0.33l-0.3-0.33l-0.29-0.29l-0.33-0.21l-0.38-0.17l-0.37-0.08h-0.42h-0.42
	l-0.37,0.08l-0.38,0.17l-0.33,0.21l-0.3,0.29l-0.29,0.33l-0.21,0.33l-0.12,0.41l-0.13,0.37v0.83l0.13,0.41l0.12,0.41l0.21,0.33
	l0.29,0.33l0.3,0.25l0.33,0.25l0.38,0.12l0.37,0.13h0.42h0.42l0.37-0.13l0.38-0.12l0.33-0.25l0.29-0.25l0.3-0.33l0.21-0.33
	l0.12-0.41l0.13-0.41v-0.42 M204.47,54.12v-0.25v-0.24l-0.13-0.21l-0.12-0.21l-0.17-0.2l-0.16-0.17l-0.21-0.12l-0.21-0.12h-0.25
	h-0.25h-0.25h-0.21l-0.25,0.12l-0.21,0.12l-0.17,0.17l-0.17,0.2l-0.12,0.21l-0.09,0.21l-0.08,0.24v0.54l0.08,0.25l0.09,0.21
	l0.12,0.2l0.17,0.21l0.17,0.16l0.21,0.13l0.25,0.12h0.21h0.5h0.25l0.21-0.12l0.21-0.13l0.16-0.16l0.17-0.21l0.12-0.2l0.13-0.21
	v-0.25V54.12h1v-0.41l-0.12-0.37l-0.13-0.41l-0.21-0.33l-0.29-0.33l-0.29-0.25l-0.33-0.25l-0.38-0.17l-0.38-0.08h-0.41h-0.42
	l-0.38,0.08l-0.37,0.17l-0.34,0.25l-0.29,0.25l-0.29,0.33l-0.21,0.33l-0.13,0.41l-0.12,0.37v0.87l0.12,0.37l0.13,0.41l0.21,0.33
	l0.29,0.33l0.29,0.25l0.34,0.25l0.37,0.12l0.38,0.12l0.42,0.05l0.41-0.05l0.38-0.12l0.38-0.12l0.33-0.25l0.29-0.25l0.29-0.33
	l0.21-0.33l0.13-0.41l0.12-0.37v-0.46"/>
<path class="st2" d="M248.28,85.65V14.06 M248.28,85.65h69.21"/>
<polyline class="st3" points="248.28,85.64 317.49,85.64 317.49,14.06 248.28,14.06 248.28,85.64 "/>
<polygon class="st4" points="286.33,37.82 285.02,39.12 286.33,40.42 287.65,39.12 "/>
<line class="st4" x1="286.33" y1="39.22" x2="286.33" y2="39.01"/>
<polygon class="st4" points="300.2,23.49 298.88,24.79 300.2,26.09 301.51,24.79 "/>
<line class="st4" x1="300.2" y1="24.89" x2="300.2" y2="24.69"/>
<polygon class="st4" points="282.91,41.41 281.59,42.71 282.91,44.01 284.22,42.71 "/>
<line class="st4" x1="282.91" y1="42.81" x2="282.91" y2="42.61"/>
<polygon class="st4" points="296.73,27.08 295.42,28.38 296.73,29.68 298.05,28.38 "/>
<line class="st4" x1="296.73" y1="28.49" x2="296.73" y2="28.28"/>
<polygon class="st4" points="296.73,30.63 295.42,31.93 296.73,33.23 298.05,31.93 "/>
<line class="st4" x1="296.73" y1="32.04" x2="296.73" y2="31.83"/>
<polygon class="st4" points="296.73,70.02 295.42,71.32 296.73,72.62 298.05,71.32 "/>
<line class="st4" x1="296.73" y1="71.42" x2="296.73" y2="71.22"/>
<polygon class="st4" points="303.67,27.08 302.35,28.38 303.67,29.68 304.98,28.38 "/>
<line class="st4" x1="303.67" y1="28.49" x2="303.67" y2="28.28"/>
<polygon class="st4" points="296.73,41.41 295.42,42.71 296.73,44.01 298.05,42.71 "/>
<line class="st4" x1="296.73" y1="42.81" x2="296.73" y2="42.61"/>
<polygon class="st4" points="296.73,55.69 295.42,56.99 296.73,58.29 298.05,56.99 "/>
<line class="st4" x1="296.73" y1="57.1" x2="296.73" y2="56.89"/>
<polygon class="st4" points="303.67,62.88 302.35,64.18 303.67,65.48 304.98,64.18 "/>
<line class="st4" x1="303.67" y1="64.28" x2="303.67" y2="64.07"/>
<polygon class="st4" points="303.67,55.69 302.35,56.99 303.67,58.29 304.98,56.99 "/>
<line class="st4" x1="303.67" y1="57.1" x2="303.67" y2="56.89"/>
<polygon class="st4" points="293.27,34.22 291.95,35.52 293.27,36.82 294.58,35.52 "/>
<line class="st4" x1="293.27" y1="35.63" x2="293.27" y2="35.42"/>
<polygon class="st4" points="272.51,44.96 271.19,46.26 272.51,47.56 273.82,46.26 "/>
<line class="st4" x1="272.51" y1="46.36" x2="272.51" y2="46.16"/>
<polygon class="st4" points="300.2,66.43 298.88,67.73 300.2,69.03 301.51,67.73 "/>
<line class="st4" x1="300.2" y1="67.83" x2="300.2" y2="67.62"/>
<polygon class="st4" points="307.09,48.55 305.77,49.85 307.09,51.15 308.41,49.85 "/>
<line class="st4" x1="307.09" y1="49.95" x2="307.09" y2="49.75"/>
<polygon class="st4" points="300.2,37.82 298.88,39.12 300.2,40.42 301.51,39.12 "/>
<line class="st4" x1="300.2" y1="39.22" x2="300.2" y2="39.01"/>
<polygon class="st4" points="300.2,66.43 298.88,67.73 300.2,69.03 301.51,67.73 "/>
<line class="st4" x1="300.2" y1="67.83" x2="300.2" y2="67.62"/>
<polygon class="st4" points="307.09,59.28 305.77,60.58 307.09,61.89 308.41,60.58 "/>
<line class="st4" x1="307.09" y1="60.69" x2="307.09" y2="60.48"/>
<polygon class="st4" points="307.09,52.14 305.77,53.44 307.09,54.74 308.41,53.44 "/>
<line class="st4" x1="307.09" y1="53.55" x2="307.09" y2="53.34"/>
<polygon class="st4" points="289.8,55.69 288.48,56.99 289.8,58.29 291.12,56.99 "/>
<line class="st4" x1="289.8" y1="57.1" x2="289.8" y2="56.89"/>
<line class="st4" x1="258.68" y1="69.03" x2="258.68" y2="66.43"/>
<line class="st4" x1="257.37" y1="67.73" x2="260" y2="67.73"/>
<line class="st4" x1="272.51" y1="54.74" x2="272.51" y2="52.14"/>
<line class="st4" x1="271.19" y1="53.44" x2="273.82" y2="53.44"/>
<line class="st4" x1="272.51" y1="61.89" x2="272.51" y2="59.28"/>
<line class="st4" x1="271.19" y1="60.58" x2="273.82" y2="60.58"/>
<line class="st4" x1="265.58" y1="54.74" x2="265.58" y2="52.14"/>
<line class="st4" x1="264.26" y1="53.44" x2="266.89" y2="53.44"/>
<line class="st4" x1="269.04" y1="58.29" x2="269.04" y2="55.69"/>
<line class="st4" x1="267.73" y1="56.99" x2="270.36" y2="56.99"/>
<line class="st4" x1="269.04" y1="44.01" x2="269.04" y2="41.41"/>
<line class="st4" x1="267.73" y1="42.71" x2="270.36" y2="42.71"/>
<line class="st4" x1="262.11" y1="58.29" x2="262.11" y2="55.69"/>
<line class="st4" x1="260.79" y1="56.99" x2="263.42" y2="56.99"/>
<line class="st4" x1="255.22" y1="79.8" x2="255.22" y2="77.2"/>
<line class="st4" x1="253.9" y1="78.5" x2="256.53" y2="78.5"/>
<line class="st4" x1="262.11" y1="65.48" x2="262.11" y2="62.88"/>
<line class="st4" x1="260.79" y1="64.18" x2="263.42" y2="64.18"/>
<line class="st4" x1="269.04" y1="51.15" x2="269.04" y2="48.55"/>
<line class="st4" x1="267.73" y1="49.85" x2="270.36" y2="49.85"/>
<line class="st4" x1="255.22" y1="65.48" x2="255.22" y2="62.88"/>
<line class="st4" x1="253.9" y1="64.18" x2="256.53" y2="64.18"/>
<line class="st4" x1="262.11" y1="51.15" x2="262.11" y2="48.55"/>
<line class="st4" x1="260.79" y1="49.85" x2="263.42" y2="49.85"/>
<line class="st4" x1="262.11" y1="72.62" x2="262.11" y2="70.02"/>
<line class="st4" x1="260.79" y1="71.32" x2="263.42" y2="71.32"/>
<line class="st4" x1="255.22" y1="72.62" x2="255.22" y2="70.02"/>
<line class="st4" x1="253.9" y1="71.32" x2="256.53" y2="71.32"/>
<line class="st4" x1="258.68" y1="76.21" x2="258.68" y2="73.61"/>
<line class="st4" x1="257.37" y1="74.91" x2="260" y2="74.91"/>
<line class="st4" x1="265.58" y1="61.89" x2="265.58" y2="59.28"/>
<line class="st4" x1="264.26" y1="60.58" x2="266.89" y2="60.58"/>
<line class="st4" x1="258.68" y1="61.89" x2="258.68" y2="59.28"/>
<line class="st4" x1="257.37" y1="60.58" x2="260" y2="60.58"/>
<line class="st4" x1="265.58" y1="47.56" x2="265.58" y2="44.96"/>
<line class="st4" x1="264.26" y1="46.26" x2="266.89" y2="46.26"/>
<line class="st4" x1="265.58" y1="69.03" x2="265.58" y2="66.43"/>
<line class="st4" x1="264.26" y1="67.73" x2="266.89" y2="67.73"/>
<line class="st4" x1="261.78" y1="76.21" x2="261.78" y2="73.61"/>
<line class="st4" x1="260.46" y1="74.91" x2="263.09" y2="74.91"/>
<path class="st4" d="M264.87,61.29v-0.25l-0.09-0.25l-0.08-0.21l-0.13-0.2l-0.16-0.21l-0.17-0.16l-0.21-0.13l-0.21-0.12h-0.25h-0.25
	h-0.25h-0.25l-0.21,0.12l-0.21,0.13l-0.17,0.16l-0.16,0.21l-0.13,0.2l-0.08,0.21l-0.08,0.25v0.54l0.08,0.2l0.08,0.25l0.13,0.21
	l0.16,0.2l0.17,0.17l0.21,0.12l0.21,0.13h0.25h0.5h0.25l0.18-0.1l0.21-0.12l0.17-0.17l0.16-0.2l0.13-0.21l0.08-0.25l0.09-0.2v-0.29
	h1V60.9l-0.13-0.37l-0.12-0.41l-0.21-0.33l-0.29-0.33l-0.3-0.25l-0.33-0.25l-0.38-0.16l-0.37-0.08l-0.42-0.05l-0.42,0.05l-0.37,0.08
	l-0.38,0.16l-0.33,0.25l-0.3,0.25l-0.29,0.33l-0.21,0.33l-0.12,0.41l-0.13,0.37v0.83l0.13,0.41l0.12,0.42l0.21,0.33l0.29,0.33
	l0.3,0.24l0.33,0.25l0.38,0.12l0.37,0.13h0.42h0.42l0.37-0.13l0.38-0.12l0.33-0.25l0.3-0.24l0.29-0.33l0.21-0.33l0.12-0.42
	l0.13-0.41v-0.41 M298.58,48.27v-0.25v-0.24l-0.13-0.25l-0.12-0.21l-0.13-0.21l-0.2-0.16l-0.21-0.12l-0.21-0.09l-0.25-0.08h-0.5
	l-0.21,0.08l-0.25,0.09l-0.21,0.12l-0.17,0.16l-0.17,0.21l-0.12,0.21l-0.08,0.25l-0.09,0.24v0.5l0.09,0.25l0.08,0.24l0.12,0.21
	l0.17,0.21l0.17,0.16l0.21,0.12l0.25,0.09l0.21,0.08h0.5l0.25-0.08l0.21-0.09l0.21-0.12l0.2-0.16l0.13-0.21l0.12-0.21l0.13-0.24
	v-0.25V48.27h1v-0.41l-0.12-0.41l-0.13-0.38l-0.21-0.37l-0.25-0.29l-0.33-0.29l-0.33-0.2l-0.38-0.17l-0.38-0.08h-0.41h-0.38
	l-0.42,0.08l-0.37,0.17l-0.34,0.2l-0.29,0.29l-0.25,0.29l-0.21,0.37l-0.16,0.38l-0.09,0.41v0.41v0.41l0.09,0.42l0.16,0.37l0.21,0.37
	l0.25,0.29l0.29,0.29l0.34,0.2l0.37,0.17l0.42,0.08h0.38h0.41l0.38-0.08l0.38-0.17l0.33-0.2l0.33-0.29l0.25-0.29l0.21-0.37
	l0.13-0.37l0.12-0.42v-0.41"/>
<path class="st2" d="M330.9,85.65V14.06 M330.9,85.65h69.21"/>
<polyline class="st3" points="330.9,85.64 400.11,85.64 400.11,14.06 330.9,14.06 330.9,85.64 "/>
<polygon class="st4" points="368.95,37.82 367.64,39.12 368.95,40.42 370.27,39.12 "/>
<line class="st4" x1="368.95" y1="39.22" x2="368.95" y2="39.01"/>
<polygon class="st4" points="382.82,23.49 381.5,24.79 382.82,26.09 384.13,24.79 "/>
<line class="st4" x1="382.82" y1="24.89" x2="382.82" y2="24.69"/>
<polygon class="st4" points="365.53,41.41 364.21,42.71 365.53,44.01 366.84,42.71 "/>
<line class="st4" x1="365.53" y1="42.81" x2="365.53" y2="42.61"/>
<polygon class="st4" points="379.35,27.08 378.04,28.38 379.35,29.68 380.67,28.38 "/>
<line class="st4" x1="379.35" y1="28.49" x2="379.35" y2="28.28"/>
<polygon class="st4" points="379.35,30.63 378.04,31.93 379.35,33.23 380.67,31.93 "/>
<line class="st4" x1="379.35" y1="32.04" x2="379.35" y2="31.83"/>
<polygon class="st4" points="379.35,70.02 378.04,71.32 379.35,72.62 380.67,71.32 "/>
<line class="st4" x1="379.35" y1="71.42" x2="379.35" y2="71.22"/>
<polygon class="st4" points="386.29,27.08 384.97,28.38 386.29,29.68 387.6,28.38 "/>
<line class="st4" x1="386.29" y1="28.49" x2="386.29" y2="28.28"/>
<polygon class="st4" points="379.35,41.41 378.04,42.71 379.35,44.01 380.67,42.71 "/>
<line class="st4" x1="379.35" y1="42.81" x2="379.35" y2="42.61"/>
<polygon class="st4" points="379.35,55.69 378.04,56.99 379.35,58.29 380.67,56.99 "/>
<line class="st4" x1="379.35" y1="57.1" x2="379.35" y2="56.89"/>
<polygon class="st4" points="386.29,62.88 384.97,64.18 386.29,65.48 387.6,64.18 "/>
<line class="st4" x1="386.29" y1="64.28" x2="386.29" y2="64.07"/>
<polygon class="st4" points="386.29,55.69 384.97,56.99 386.29,58.29 387.6,56.99 "/>
<line class="st4" x1="386.29" y1="57.1" x2="386.29" y2="56.89"/>
<polygon class="st4" points="375.89,34.22 374.57,35.52 375.89,36.82 377.2,35.52 "/>
<line class="st4" x1="375.89" y1="35.63" x2="375.89" y2="35.42"/>
<polygon class="st4" points="382.82,66.43 381.5,67.73 382.82,69.03 384.13,67.73 "/>
<line class="st4" x1="382.82" y1="67.83" x2="382.82" y2="67.62"/>
<polygon class="st4" points="389.71,48.55 388.39,49.85 389.71,51.15 391.03,49.85 "/>
<line class="st4" x1="389.71" y1="49.95" x2="389.71" y2="49.75"/>
<polygon class="st4" points="382.82,37.82 381.5,39.12 382.82,40.42 384.13,39.12 "/>
<line class="st4" x1="382.82" y1="39.22" x2="382.82" y2="39.01"/>
<polygon class="st4" points="382.82,66.43 381.5,67.73 382.82,69.03 384.13,67.73 "/>
<line class="st4" x1="382.82" y1="67.83" x2="382.82" y2="67.62"/>
<polygon class="st4" points="389.71,59.28 388.39,60.58 389.71,61.89 391.03,60.58 "/>
<line class="st4" x1="389.71" y1="60.69" x2="389.71" y2="60.48"/>
<polygon class="st4" points="389.71,52.14 388.39,53.44 389.71,54.74 391.03,53.44 "/>
<line class="st4" x1="389.71" y1="53.55" x2="389.71" y2="53.34"/>
<polygon class="st4" points="372.42,55.69 371.1,56.99 372.42,58.29 373.74,56.99 "/>
<line class="st4" x1="372.42" y1="57.1" x2="372.42" y2="56.89"/>
<line class="st4" x1="341.3" y1="69.03" x2="341.3" y2="66.43"/>
<line class="st4" x1="339.99" y1="67.73" x2="342.62" y2="67.73"/>
<line class="st4" x1="355.13" y1="54.74" x2="355.13" y2="52.14"/>
<line class="st4" x1="353.81" y1="53.44" x2="356.44" y2="53.44"/>
<line class="st4" x1="355.13" y1="61.89" x2="355.13" y2="59.28"/>
<line class="st4" x1="353.81" y1="60.58" x2="356.44" y2="60.58"/>
<line class="st4" x1="348.2" y1="54.74" x2="348.2" y2="52.14"/>
<line class="st4" x1="346.88" y1="53.44" x2="349.51" y2="53.44"/>
<line class="st4" x1="351.66" y1="58.29" x2="351.66" y2="55.69"/>
<line class="st4" x1="350.35" y1="56.99" x2="352.98" y2="56.99"/>
<line class="st4" x1="351.66" y1="44.01" x2="351.66" y2="41.41"/>
<line class="st4" x1="350.35" y1="42.71" x2="352.98" y2="42.71"/>
<line class="st4" x1="344.73" y1="58.29" x2="344.73" y2="55.69"/>
<line class="st4" x1="343.41" y1="56.99" x2="346.04" y2="56.99"/>
<line class="st4" x1="337.84" y1="79.8" x2="337.84" y2="77.2"/>
<line class="st4" x1="336.52" y1="78.5" x2="339.15" y2="78.5"/>
<line class="st4" x1="344.73" y1="65.48" x2="344.73" y2="62.88"/>
<line class="st4" x1="343.41" y1="64.18" x2="346.04" y2="64.18"/>
<line class="st4" x1="351.66" y1="51.15" x2="351.66" y2="48.55"/>
<line class="st4" x1="350.35" y1="49.85" x2="352.98" y2="49.85"/>
<line class="st4" x1="337.84" y1="65.48" x2="337.84" y2="62.88"/>
<line class="st4" x1="336.52" y1="64.18" x2="339.15" y2="64.18"/>
<line class="st4" x1="344.73" y1="51.15" x2="344.73" y2="48.55"/>
<line class="st4" x1="343.41" y1="49.85" x2="346.04" y2="49.85"/>
<line class="st4" x1="344.73" y1="72.62" x2="344.73" y2="70.02"/>
<line class="st4" x1="343.41" y1="71.32" x2="346.04" y2="71.32"/>
<line class="st4" x1="337.84" y1="72.62" x2="337.84" y2="70.02"/>
<line class="st4" x1="336.52" y1="71.32" x2="339.15" y2="71.32"/>
<line class="st4" x1="341.3" y1="76.21" x2="341.3" y2="73.61"/>
<line class="st4" x1="339.99" y1="74.91" x2="342.62" y2="74.91"/>
<line class="st4" x1="348.2" y1="61.89" x2="348.2" y2="59.28"/>
<line class="st4" x1="346.88" y1="60.58" x2="349.51" y2="60.58"/>
<line class="st4" x1="355.13" y1="47.56" x2="355.13" y2="44.96"/>
<line class="st4" x1="353.81" y1="46.26" x2="356.44" y2="46.26"/>
<line class="st4" x1="341.3" y1="61.89" x2="341.3" y2="59.28"/>
<line class="st4" x1="339.99" y1="60.58" x2="342.62" y2="60.58"/>
<line class="st4" x1="348.2" y1="47.56" x2="348.2" y2="44.96"/>
<line class="st4" x1="346.88" y1="46.26" x2="349.51" y2="46.26"/>
<line class="st4" x1="348.2" y1="69.03" x2="348.2" y2="66.43"/>
<line class="st4" x1="346.88" y1="67.73" x2="349.51" y2="67.73"/>
<line class="st4" x1="344.39" y1="76.21" x2="344.39" y2="73.61"/>
<line class="st4" x1="343.08" y1="74.91" x2="345.71" y2="74.91"/>
<path class="st4" d="M347.49,61.29v-0.25l-0.09-0.25l-0.08-0.21l-0.13-0.2l-0.16-0.21l-0.17-0.16l-0.21-0.13l-0.21-0.12h-0.25h-0.25
	h-0.25h-0.25l-0.21,0.12l-0.21,0.13l-0.17,0.16l-0.16,0.21l-0.13,0.2l-0.08,0.21l-0.09,0.25v0.54l0.09,0.2l0.08,0.25l0.13,0.21
	l0.16,0.2l0.17,0.17l0.21,0.12l0.21,0.13h0.25h0.5h0.25l0.21-0.13l0.21-0.12l0.17-0.17l0.16-0.2l0.13-0.21l0.08-0.25l0.09-0.2V61.29
	h1v-0.42l-0.13-0.37l-0.12-0.41L348,59.76l-0.29-0.33l-0.3-0.25l-0.33-0.25l-0.38-0.16l-0.37-0.08l-0.42-0.05l-0.42,0.05l-0.37,0.08
	l-0.38,0.16l-0.33,0.25l-0.3,0.25l-0.29,0.33l-0.21,0.33l-0.12,0.41l-0.13,0.37v0.83l0.13,0.41l0.12,0.42l0.21,0.33l0.29,0.33
	l0.3,0.24l0.33,0.25l0.38,0.12l0.37,0.13h0.42h0.42l0.37-0.13l0.38-0.12l0.33-0.25l0.3-0.24l0.29-0.33l0.21-0.33l0.12-0.42
	l0.13-0.41v-0.41 M381.2,48.24v-0.25v-0.24l-0.12-0.25l-0.13-0.21l-0.12-0.21l-0.21-0.16l-0.21-0.12l-0.21-0.09l-0.25-0.08h-0.5
	l-0.21,0.08L379,46.76l-0.21,0.12l-0.17,0.16l-0.17,0.21l-0.12,0.21l-0.08,0.25l-0.09,0.24v0.5l0.09,0.25l0.08,0.24l0.12,0.21
	l0.17,0.21l0.17,0.16l0.21,0.12l0.25,0.09l0.21,0.08h0.5l0.25-0.08l0.21-0.09l0.21-0.12l0.21-0.16l0.12-0.21l0.13-0.21l0.12-0.24
	v-0.25V48.2h1v-0.41l-0.12-0.41L381.96,47l-0.2-0.37l-0.25-0.29l-0.34-0.29l-0.33-0.2l-0.38-0.17l-0.37-0.08h-0.42h-0.38l-0.42,0.08
	l-0.37,0.17l-0.34,0.2l-0.29,0.29l-0.25,0.29L377.41,47l-0.17,0.38l-0.08,0.41v0.41v0.41l0.08,0.42l0.17,0.37l0.21,0.37l0.25,0.29
	l0.29,0.29l0.34,0.2l0.37,0.17l0.42,0.08h0.38h0.42l0.37-0.08l0.38-0.17l0.33-0.2l0.34-0.29l0.25-0.29l0.2-0.37l0.13-0.37l0.12-0.42
	V48.2"/>
<path class="st2" d="M413.63,85.65V14.06 M413.63,85.65h69.21"/>
<polyline class="st3" points="413.63,85.64 482.84,85.64 482.84,14.06 413.63,14.06 413.63,85.64 "/>
<polygon class="st4" points="451.68,37.82 450.37,39.12 451.68,40.42 453,39.12 "/>
<line class="st4" x1="451.68" y1="39.22" x2="451.68" y2="39.01"/>
<polygon class="st4" points="465.55,23.49 464.23,24.79 465.55,26.09 466.86,24.79 "/>
<line class="st4" x1="465.55" y1="24.89" x2="465.55" y2="24.69"/>
<polygon class="st4" points="448.26,41.41 446.94,42.71 448.26,44.01 449.57,42.71 "/>
<line class="st4" x1="448.26" y1="42.81" x2="448.26" y2="42.61"/>
<polygon class="st4" points="462.08,27.08 460.77,28.38 462.08,29.68 463.4,28.38 "/>
<line class="st4" x1="462.08" y1="28.49" x2="462.08" y2="28.28"/>
<polygon class="st4" points="462.08,30.63 460.77,31.93 462.08,33.23 463.4,31.93 "/>
<line class="st4" x1="462.08" y1="32.04" x2="462.08" y2="31.83"/>
<polygon class="st4" points="462.08,70.02 460.77,71.32 462.08,72.62 463.4,71.32 "/>
<line class="st4" x1="462.08" y1="71.42" x2="462.08" y2="71.22"/>
<polygon class="st4" points="469.01,27.08 467.7,28.38 469.01,29.68 470.33,28.38 "/>
<line class="st4" x1="469.01" y1="28.49" x2="469.01" y2="28.28"/>
<polygon class="st4" points="462.08,41.41 460.77,42.71 462.08,44.01 463.4,42.71 "/>
<line class="st4" x1="462.08" y1="42.81" x2="462.08" y2="42.61"/>
<polygon class="st4" points="462.08,55.69 460.77,56.99 462.08,58.29 463.4,56.99 "/>
<line class="st4" x1="462.08" y1="57.1" x2="462.08" y2="56.89"/>
<polygon class="st4" points="469.01,62.88 467.7,64.18 469.01,65.48 470.33,64.18 "/>
<line class="st4" x1="469.01" y1="64.28" x2="469.01" y2="64.07"/>
<polygon class="st4" points="469.01,55.69 467.7,56.99 469.01,58.29 470.33,56.99 "/>
<line class="st4" x1="469.01" y1="57.1" x2="469.01" y2="56.89"/>
<polygon class="st4" points="458.61,34.22 457.3,35.52 458.61,36.82 459.93,35.52 "/>
<line class="st4" x1="458.61" y1="35.63" x2="458.61" y2="35.42"/>
<polygon class="st4" points="465.55,66.43 464.23,67.73 465.55,69.03 466.86,67.73 "/>
<line class="st4" x1="465.55" y1="67.83" x2="465.55" y2="67.62"/>
<polygon class="st4" points="472.44,48.55 471.12,49.85 472.44,51.15 473.75,49.85 "/>
<line class="st4" x1="472.44" y1="49.95" x2="472.44" y2="49.75"/>
<polygon class="st4" points="465.55,37.82 464.23,39.12 465.55,40.42 466.86,39.12 "/>
<line class="st4" x1="465.55" y1="39.22" x2="465.55" y2="39.01"/>
<polygon class="st4" points="465.55,66.43 464.23,67.73 465.55,69.03 466.86,67.73 "/>
<line class="st4" x1="465.55" y1="67.83" x2="465.55" y2="67.62"/>
<polygon class="st4" points="472.44,59.28 471.12,60.58 472.44,61.89 473.75,60.58 "/>
<line class="st4" x1="472.44" y1="60.69" x2="472.44" y2="60.48"/>
<polygon class="st4" points="472.44,52.14 471.12,53.44 472.44,54.74 473.75,53.44 "/>
<line class="st4" x1="472.44" y1="53.55" x2="472.44" y2="53.34"/>
<polygon class="st4" points="455.15,55.69 453.83,56.99 455.15,58.29 456.46,56.99 "/>
<line class="st4" x1="455.15" y1="57.1" x2="455.15" y2="56.89"/>
<line class="st4" x1="424.03" y1="69.03" x2="424.03" y2="66.43"/>
<line class="st4" x1="422.72" y1="67.73" x2="425.35" y2="67.73"/>
<line class="st4" x1="437.86" y1="54.74" x2="437.86" y2="52.14"/>
<line class="st4" x1="436.54" y1="53.44" x2="439.17" y2="53.44"/>
<line class="st4" x1="437.86" y1="61.89" x2="437.86" y2="59.28"/>
<line class="st4" x1="436.54" y1="60.58" x2="439.17" y2="60.58"/>
<line class="st4" x1="430.92" y1="54.74" x2="430.92" y2="52.14"/>
<line class="st4" x1="429.61" y1="53.44" x2="432.24" y2="53.44"/>
<line class="st4" x1="434.39" y1="58.29" x2="434.39" y2="55.69"/>
<line class="st4" x1="433.08" y1="56.99" x2="435.71" y2="56.99"/>
<line class="st4" x1="434.39" y1="44.01" x2="434.39" y2="41.41"/>
<line class="st4" x1="433.08" y1="42.71" x2="435.71" y2="42.71"/>
<line class="st4" x1="427.46" y1="58.29" x2="427.46" y2="55.69"/>
<line class="st4" x1="426.14" y1="56.99" x2="428.77" y2="56.99"/>
<line class="st4" x1="420.57" y1="79.8" x2="420.57" y2="77.2"/>
<line class="st4" x1="419.25" y1="78.5" x2="421.88" y2="78.5"/>
<line class="st4" x1="427.46" y1="65.48" x2="427.46" y2="62.88"/>
<line class="st4" x1="426.14" y1="64.18" x2="428.77" y2="64.18"/>
<line class="st4" x1="434.39" y1="51.15" x2="434.39" y2="48.55"/>
<line class="st4" x1="433.08" y1="49.85" x2="435.71" y2="49.85"/>
<line class="st4" x1="420.57" y1="65.48" x2="420.57" y2="62.88"/>
<line class="st4" x1="419.25" y1="64.18" x2="421.88" y2="64.18"/>
<line class="st4" x1="427.46" y1="51.15" x2="427.46" y2="48.55"/>
<line class="st4" x1="426.14" y1="49.85" x2="428.77" y2="49.85"/>
<line class="st4" x1="427.46" y1="72.62" x2="427.46" y2="70.02"/>
<line class="st4" x1="426.14" y1="71.32" x2="428.77" y2="71.32"/>
<line class="st4" x1="420.57" y1="72.62" x2="420.57" y2="70.02"/>
<line class="st4" x1="419.25" y1="71.32" x2="421.88" y2="71.32"/>
<line class="st4" x1="424.03" y1="76.21" x2="424.03" y2="73.61"/>
<line class="st4" x1="422.72" y1="74.91" x2="425.35" y2="74.91"/>
<line class="st4" x1="430.92" y1="61.89" x2="430.92" y2="59.28"/>
<line class="st4" x1="429.61" y1="60.58" x2="432.24" y2="60.58"/>
<line class="st4" x1="437.86" y1="47.56" x2="437.86" y2="44.96"/>
<line class="st4" x1="436.54" y1="46.26" x2="439.17" y2="46.26"/>
<line class="st4" x1="424.03" y1="61.89" x2="424.03" y2="59.28"/>
<line class="st4" x1="422.72" y1="60.58" x2="425.35" y2="60.58"/>
<line class="st4" x1="430.92" y1="47.56" x2="430.92" y2="44.96"/>
<line class="st4" x1="429.61" y1="46.26" x2="432.24" y2="46.26"/>
<line class="st4" x1="430.92" y1="69.03" x2="430.92" y2="66.43"/>
<line class="st4" x1="429.61" y1="67.73" x2="432.24" y2="67.73"/>
<line class="st4" x1="427.12" y1="76.21" x2="427.12" y2="73.61"/>
<line class="st4" x1="425.81" y1="74.91" x2="428.44" y2="74.91"/>
<path class="st4" d="M430.67,60.58v-0.24v-0.25l-0.08-0.25l-0.13-0.2l-0.17-0.17l-0.21-0.16l-0.2-0.17l-0.21-0.08h-0.25h-0.25h-0.21
	h-0.25l-0.21,0.08l-0.21,0.17l-0.21,0.16l-0.17,0.17l-0.12,0.2l-0.08,0.25l-0.05,0.25v0.24v0.25l0.05,0.25l0.08,0.25l0.12,0.2
	l0.17,0.21l0.21,0.17l0.21,0.12l0.21,0.08l0.25,0.09h0.46l0.25-0.09l0.21-0.08l0.2-0.12l0.21-0.17l0.17-0.21l0.13-0.2l0.08-0.25
	v-0.25V60.58h1l-0.05-0.41l-0.08-0.41l-0.17-0.37l-0.21-0.37l-0.25-0.29l-0.33-0.29l-0.33-0.21l-0.38-0.16l-0.38-0.09h-0.41h-0.38
	l-0.38,0.09l-0.37,0.16l-0.38,0.21l-0.29,0.29l-0.25,0.29l-0.21,0.37l-0.17,0.37l-0.08,0.41v0.41V61l0.08,0.41l0.17,0.37l0.21,0.37
	l0.25,0.29l0.29,0.29l0.38,0.21l0.37,0.16l0.38,0.09h0.38h0.41l0.38-0.09l0.38-0.16l0.33-0.21l0.33-0.29l0.25-0.29l0.21-0.37
	l0.17-0.37l0.08-0.41l0.05-0.42 M465.25,48.32v-0.24l-0.05-0.25l-0.12-0.21l-0.13-0.2l-0.12-0.21l-0.21-0.17l-0.21-0.12l-0.21-0.12
	h-0.25h-0.25h-0.25h-0.21l-0.25,0.12l-0.21,0.12l-0.17,0.17l-0.16,0.21l-0.13,0.2l-0.08,0.21l-0.09,0.25v0.53l0.09,0.25l0.08,0.21
	l0.13,0.2l0.16,0.21l0.17,0.16l0.21,0.13l0.25,0.12h0.21h0.25h0.25h0.25l0.21-0.12l0.21-0.13l0.21-0.16l0.12-0.21l0.13-0.2
	l0.12-0.21l0.05-0.25V48.32h1v-0.41l-0.13-0.37L466,47.13l-0.21-0.33l-0.29-0.34l-0.3-0.24l-0.33-0.25l-0.38-0.17l-0.37-0.08h-0.42
	h-0.38l-0.41,0.08l-0.38,0.17l-0.33,0.25l-0.3,0.24l-0.25,0.34l-0.21,0.33l-0.16,0.41l-0.09,0.37v0.41v0.46l0.09,0.37l0.16,0.41
	l0.21,0.33l0.25,0.33l0.3,0.25l0.33,0.25l0.38,0.16l0.41,0.09h0.38h0.42l0.37-0.09l0.38-0.16l0.33-0.25l0.3-0.25l0.29-0.33
	l0.21-0.33l0.12-0.41l0.13-0.37v-0.46"/>
<g>
	<path class="st2" d="M165.51,166.32V94.73 M165.51,166.32h69.2"/>
	<polyline class="st3" points="165.51,166.32 234.71,166.32 234.71,94.73 165.51,94.73 165.51,166.32 	"/>
	<line class="st4" x1="174.59" y1="147.1" x2="177.22" y2="149.7"/>
	<line class="st4" x1="174.59" y1="149.7" x2="177.22" y2="147.1"/>
	<line class="st4" x1="188.42" y1="132.81" x2="191.05" y2="135.42"/>
	<line class="st4" x1="188.42" y1="135.42" x2="191.05" y2="132.81"/>
	<line class="st4" x1="202.24" y1="118.49" x2="204.87" y2="121.09"/>
	<line class="st4" x1="202.24" y1="121.09" x2="204.87" y2="118.49"/>
	<line class="st4" x1="216.11" y1="104.16" x2="218.74" y2="106.76"/>
	<line class="st4" x1="216.11" y1="106.76" x2="218.74" y2="104.16"/>
	<line class="st4" x1="188.42" y1="139.96" x2="191.05" y2="142.56"/>
	<line class="st4" x1="188.42" y1="142.56" x2="191.05" y2="139.96"/>
	<line class="st4" x1="181.48" y1="132.81" x2="184.11" y2="135.42"/>
	<line class="st4" x1="181.48" y1="135.42" x2="184.11" y2="132.81"/>
	<line class="st4" x1="184.95" y1="136.36" x2="187.58" y2="138.97"/>
	<line class="st4" x1="184.95" y1="138.97" x2="187.58" y2="136.36"/>
	<line class="st4" x1="198.82" y1="122.08" x2="201.45" y2="124.68"/>
	<line class="st4" x1="198.82" y1="124.68" x2="201.45" y2="122.08"/>
	<line class="st4" x1="212.64" y1="107.75" x2="215.27" y2="110.35"/>
	<line class="st4" x1="212.64" y1="110.35" x2="215.27" y2="107.75"/>
	<line class="st4" x1="212.64" y1="111.3" x2="215.27" y2="113.91"/>
	<line class="st4" x1="212.64" y1="113.91" x2="215.27" y2="111.3"/>
	<line class="st4" x1="184.95" y1="122.08" x2="187.58" y2="124.68"/>
	<line class="st4" x1="184.95" y1="124.68" x2="187.58" y2="122.08"/>
	<line class="st4" x1="178.02" y1="136.36" x2="180.65" y2="138.97"/>
	<line class="st4" x1="178.02" y1="138.97" x2="180.65" y2="136.36"/>
	<line class="st4" x1="171.13" y1="157.87" x2="173.76" y2="160.48"/>
	<line class="st4" x1="171.13" y1="160.48" x2="173.76" y2="157.87"/>
	<line class="st4" x1="178.02" y1="143.55" x2="180.65" y2="146.15"/>
	<line class="st4" x1="178.02" y1="146.15" x2="180.65" y2="143.55"/>
	<line class="st4" x1="184.95" y1="129.22" x2="187.58" y2="131.82"/>
	<line class="st4" x1="184.95" y1="131.82" x2="187.58" y2="129.22"/>
	<line class="st4" x1="212.64" y1="150.69" x2="215.27" y2="153.29"/>
	<line class="st4" x1="212.64" y1="153.29" x2="215.27" y2="150.69"/>
	<line class="st4" x1="219.57" y1="107.75" x2="222.2" y2="110.35"/>
	<line class="st4" x1="219.57" y1="110.35" x2="222.2" y2="107.75"/>
	<line class="st4" x1="212.64" y1="122.08" x2="215.27" y2="124.68"/>
	<line class="st4" x1="212.64" y1="124.68" x2="215.27" y2="122.08"/>
	<line class="st4" x1="171.13" y1="143.55" x2="173.76" y2="146.15"/>
	<line class="st4" x1="171.13" y1="146.15" x2="173.76" y2="143.55"/>
	<line class="st4" x1="178.02" y1="129.22" x2="180.65" y2="131.82"/>
	<line class="st4" x1="178.02" y1="131.82" x2="180.65" y2="129.22"/>
	<line class="st4" x1="212.64" y1="136.36" x2="215.27" y2="138.97"/>
	<line class="st4" x1="212.64" y1="138.97" x2="215.27" y2="136.36"/>
	<line class="st4" x1="219.57" y1="143.55" x2="222.2" y2="146.15"/>
	<line class="st4" x1="219.57" y1="146.15" x2="222.2" y2="143.55"/>
	<line class="st4" x1="219.57" y1="136.36" x2="222.2" y2="138.97"/>
	<line class="st4" x1="219.57" y1="138.97" x2="222.2" y2="136.36"/>
	<line class="st4" x1="209.17" y1="114.9" x2="211.8" y2="117.5"/>
	<line class="st4" x1="209.17" y1="117.5" x2="211.8" y2="114.9"/>
	<line class="st4" x1="178.02" y1="150.69" x2="180.65" y2="153.29"/>
	<line class="st4" x1="178.02" y1="153.29" x2="180.65" y2="150.69"/>
	<line class="st4" x1="171.13" y1="150.69" x2="173.76" y2="153.29"/>
	<line class="st4" x1="171.13" y1="153.29" x2="173.76" y2="150.69"/>
	<line class="st4" x1="174.59" y1="154.28" x2="177.22" y2="156.88"/>
	<line class="st4" x1="174.59" y1="156.88" x2="177.22" y2="154.28"/>
	<line class="st4" x1="181.48" y1="139.96" x2="184.11" y2="142.56"/>
	<line class="st4" x1="181.48" y1="142.56" x2="184.11" y2="139.96"/>
	<line class="st4" x1="188.42" y1="125.63" x2="191.05" y2="128.23"/>
	<line class="st4" x1="188.42" y1="128.23" x2="191.05" y2="125.63"/>
	<line class="st4" x1="216.11" y1="147.1" x2="218.74" y2="149.7"/>
	<line class="st4" x1="216.11" y1="149.7" x2="218.74" y2="147.1"/>
	<line class="st4" x1="223" y1="129.22" x2="225.63" y2="131.82"/>
	<line class="st4" x1="223" y1="131.82" x2="225.63" y2="129.22"/>
	<line class="st4" x1="216.11" y1="118.49" x2="218.74" y2="121.09"/>
	<line class="st4" x1="216.11" y1="121.09" x2="218.74" y2="118.49"/>
	<line class="st4" x1="174.59" y1="139.96" x2="177.22" y2="142.56"/>
	<line class="st4" x1="174.59" y1="142.56" x2="177.22" y2="139.96"/>
	<line class="st4" x1="181.48" y1="125.63" x2="184.11" y2="128.23"/>
	<line class="st4" x1="181.48" y1="128.23" x2="184.11" y2="125.63"/>
	<line class="st4" x1="216.11" y1="147.1" x2="218.74" y2="149.7"/>
	<line class="st4" x1="216.11" y1="149.7" x2="218.74" y2="147.1"/>
	<line class="st4" x1="223" y1="139.96" x2="225.63" y2="142.56"/>
	<line class="st4" x1="223" y1="142.56" x2="225.63" y2="139.96"/>
	<line class="st4" x1="223" y1="132.81" x2="225.63" y2="135.42"/>
	<line class="st4" x1="223" y1="135.42" x2="225.63" y2="132.81"/>
	<line class="st4" x1="205.71" y1="136.36" x2="208.34" y2="138.97"/>
	<line class="st4" x1="205.71" y1="138.97" x2="208.34" y2="136.36"/>
	<line class="st4" x1="181.48" y1="147.1" x2="184.11" y2="149.7"/>
	<line class="st4" x1="181.48" y1="149.7" x2="184.11" y2="147.1"/>
	<line class="st4" x1="177.68" y1="154.28" x2="180.31" y2="156.88"/>
	<line class="st4" x1="177.68" y1="156.88" x2="180.31" y2="154.28"/>
</g>
<text transform="matrix(1 0 0 1 337.93 7.8846)" class="st0 st1">Assignment</text>
<text transform="matrix(1 0 0 1 172.64 7.8846)" class="st0 st1">Assignment</text>
<text transform="matrix(1 0 0 1 255.78 7.8846)" class="st0 st1">Update</text>
<text transform="matrix(1 0 0 1 421.07 7.8846)" class="st0 st1">Update</text>
</svg>
