<?xml version="1.0" encoding="utf-8"?>
<!-- Generator: Adobe Illustrator 24.3.0, SVG Export Plug-In . SVG Version: 6.00 Build 0)  -->
<svg version="1.1" id="Layer_1" xmlns="http://www.w3.org/2000/svg" xmlns:xlink="http://www.w3.org/1999/xlink" x="0px" y="0px"
	 viewBox="0 0 259.93 113.5" style="enable-background:new 0 0 259.93 113.5;" xml:space="preserve">
<style type="text/css">
	.st0{fill:none;stroke:#000000;stroke-width:0.5045;stroke-miterlimit:10;}
	.st1{fill:none;stroke:#000000;stroke-width:0.2523;stroke-miterlimit:10;}
	.st2{fill:none;stroke:#000000;stroke-width:0.2523;stroke-linecap:round;stroke-miterlimit:10;}
	.st3{fill:#010101;}
	.st4{font-family:'MyriadPro-Regular';}
	.st5{font-size:12px;}
</style>
<polyline class="st0" points="0.25,113.25 100.59,113.25 100.59,13.6 0.25,13.6 0.25,113.25 "/>
<line class="st1" x1="32.27" y1="42.09" x2="35.46" y2="45.25"/>
<line class="st1" x1="32.27" y1="45.25" x2="35.46" y2="42.09"/>
<line class="st1" x1="38.96" y1="51.59" x2="42.14" y2="54.75"/>
<line class="st1" x1="38.96" y1="54.75" x2="42.14" y2="51.59"/>
<line class="st1" x1="38.65" y1="58.68" x2="41.84" y2="61.84"/>
<line class="st1" x1="38.65" y1="61.84" x2="41.84" y2="58.68"/>
<line class="st1" x1="36.17" y1="20.42" x2="39.36" y2="23.58"/>
<line class="st1" x1="36.17" y1="23.58" x2="39.36" y2="20.42"/>
<line class="st1" x1="38.15" y1="72.5" x2="41.33" y2="75.67"/>
<line class="st1" x1="38.15" y1="75.67" x2="41.33" y2="72.5"/>
<line class="st1" x1="38.2" y1="60.84" x2="41.39" y2="64.01"/>
<line class="st1" x1="38.2" y1="64.01" x2="41.39" y2="60.84"/>
<line class="st1" x1="35.41" y1="65.21" x2="38.6" y2="68.38"/>
<line class="st1" x1="35.41" y1="68.38" x2="38.6" y2="65.21"/>
<line class="st1" x1="41.79" y1="66.62" x2="44.98" y2="69.79"/>
<line class="st1" x1="41.79" y1="69.79" x2="44.98" y2="66.62"/>
<line class="st1" x1="43.36" y1="85.37" x2="46.55" y2="88.54"/>
<line class="st1" x1="43.36" y1="88.54" x2="46.55" y2="85.37"/>
<line class="st1" x1="41.23" y1="62.25" x2="44.42" y2="65.41"/>
<line class="st1" x1="41.23" y1="65.41" x2="44.42" y2="62.25"/>
<line class="st1" x1="39.11" y1="51.69" x2="42.3" y2="54.86"/>
<line class="st1" x1="39.11" y1="54.86" x2="42.3" y2="51.69"/>
<line class="st1" x1="40.07" y1="56.01" x2="43.26" y2="59.18"/>
<line class="st1" x1="40.07" y1="59.18" x2="43.26" y2="56.01"/>
<line class="st1" x1="37.94" y1="64.71" x2="41.13" y2="67.88"/>
<line class="st1" x1="37.94" y1="67.88" x2="41.13" y2="64.71"/>
<line class="st1" x1="34.96" y1="40.93" x2="38.15" y2="44.1"/>
<line class="st1" x1="34.96" y1="44.1" x2="38.15" y2="40.93"/>
<line class="st1" x1="37.74" y1="58.48" x2="40.93" y2="61.64"/>
<line class="st1" x1="37.74" y1="61.64" x2="40.93" y2="58.48"/>
<line class="st1" x1="39.21" y1="89.4" x2="42.4" y2="92.56"/>
<line class="st1" x1="39.21" y1="92.56" x2="42.4" y2="89.4"/>
<line class="st1" x1="38.45" y1="43.49" x2="41.64" y2="46.66"/>
<line class="st1" x1="38.45" y1="46.66" x2="41.64" y2="43.49"/>
<line class="st1" x1="39.11" y1="65.87" x2="42.3" y2="69.03"/>
<line class="st1" x1="39.11" y1="69.03" x2="42.3" y2="65.87"/>
<line class="st1" x1="38.3" y1="49.43" x2="41.49" y2="52.59"/>
<line class="st1" x1="38.3" y1="52.59" x2="41.49" y2="49.43"/>
<line class="st1" x1="35.46" y1="51.44" x2="38.65" y2="54.6"/>
<line class="st1" x1="35.46" y1="54.6" x2="38.65" y2="51.44"/>
<line class="st1" x1="39.36" y1="102.77" x2="42.55" y2="105.94"/>
<line class="st1" x1="39.36" y1="105.94" x2="42.55" y2="102.77"/>
<line class="st1" x1="37.79" y1="61.79" x2="40.98" y2="64.96"/>
<line class="st1" x1="37.79" y1="64.96" x2="40.98" y2="61.79"/>
<line class="st1" x1="35.41" y1="45.45" x2="38.6" y2="48.62"/>
<line class="st1" x1="35.41" y1="48.62" x2="38.6" y2="45.45"/>
<line class="st1" x1="38.45" y1="67.27" x2="41.64" y2="70.44"/>
<line class="st1" x1="38.45" y1="70.44" x2="41.64" y2="67.27"/>
<line class="st1" x1="38.85" y1="56.67" x2="42.04" y2="59.83"/>
<line class="st1" x1="38.85" y1="59.83" x2="42.04" y2="56.67"/>
<line class="st1" x1="42.3" y1="71.65" x2="45.49" y2="74.82"/>
<line class="st1" x1="42.3" y1="74.82" x2="45.49" y2="71.65"/>
<line class="st1" x1="40.73" y1="79.54" x2="43.92" y2="82.71"/>
<line class="st1" x1="40.73" y1="82.71" x2="43.92" y2="79.54"/>
<line class="st1" x1="38.04" y1="43.69" x2="41.23" y2="46.86"/>
<line class="st1" x1="38.04" y1="46.86" x2="41.23" y2="43.69"/>
<line class="st1" x1="38.85" y1="65.67" x2="42.04" y2="68.83"/>
<line class="st1" x1="38.85" y1="68.83" x2="42.04" y2="65.67"/>
<line class="st1" x1="32.43" y1="56.87" x2="35.61" y2="60.03"/>
<line class="st1" x1="32.43" y1="60.03" x2="35.61" y2="56.87"/>
<line class="st1" x1="37.94" y1="67.12" x2="41.13" y2="70.29"/>
<line class="st1" x1="37.94" y1="70.29" x2="41.13" y2="67.12"/>
<line class="st1" x1="35.87" y1="84.07" x2="39.06" y2="87.23"/>
<line class="st1" x1="35.87" y1="87.23" x2="39.06" y2="84.07"/>
<line class="st1" x1="37.03" y1="58.58" x2="40.22" y2="61.74"/>
<line class="st1" x1="37.03" y1="61.74" x2="40.22" y2="58.58"/>
<line class="st1" x1="42.09" y1="76.07" x2="45.28" y2="79.24"/>
<line class="st1" x1="42.09" y1="79.24" x2="45.28" y2="76.07"/>
<line class="st1" x1="36.78" y1="98.85" x2="39.97" y2="102.01"/>
<line class="st1" x1="36.78" y1="102.01" x2="39.97" y2="98.85"/>
<line class="st1" x1="39.92" y1="89.24" x2="43.11" y2="92.41"/>
<line class="st1" x1="39.92" y1="92.41" x2="43.11" y2="89.24"/>
<line class="st1" x1="42.2" y1="78.34" x2="45.38" y2="81.5"/>
<line class="st1" x1="42.2" y1="81.5" x2="45.38" y2="78.34"/>
<line class="st1" x1="39.61" y1="55.11" x2="42.8" y2="58.27"/>
<line class="st1" x1="39.61" y1="58.27" x2="42.8" y2="55.11"/>
<line class="st1" x1="42.6" y1="67.98" x2="45.79" y2="71.15"/>
<line class="st1" x1="42.6" y1="71.15" x2="45.79" y2="67.98"/>
<line class="st1" x1="36.53" y1="47.92" x2="39.72" y2="51.09"/>
<line class="st1" x1="36.53" y1="51.09" x2="39.72" y2="47.92"/>
<line class="st1" x1="37.74" y1="44.1" x2="40.93" y2="47.26"/>
<line class="st1" x1="37.74" y1="47.26" x2="40.93" y2="44.1"/>
<line class="st1" x1="36.37" y1="39.52" x2="39.56" y2="42.69"/>
<line class="st1" x1="36.37" y1="42.69" x2="39.56" y2="39.52"/>
<line class="st1" x1="38.8" y1="59.48" x2="41.99" y2="62.65"/>
<line class="st1" x1="38.8" y1="62.65" x2="41.99" y2="59.48"/>
<line class="st1" x1="42.6" y1="74.31" x2="45.79" y2="77.48"/>
<line class="st1" x1="42.6" y1="77.48" x2="45.79" y2="74.31"/>
<line class="st1" x1="36.42" y1="69.94" x2="39.61" y2="73.11"/>
<line class="st1" x1="36.42" y1="73.11" x2="39.61" y2="69.94"/>
<line class="st1" x1="37.34" y1="69.18" x2="40.53" y2="72.35"/>
<line class="st1" x1="37.34" y1="72.35" x2="40.53" y2="69.18"/>
<line class="st1" x1="40.12" y1="75.62" x2="43.31" y2="78.79"/>
<line class="st1" x1="40.12" y1="78.79" x2="43.31" y2="75.62"/>
<line class="st1" x1="39.31" y1="60.44" x2="42.5" y2="63.6"/>
<line class="st1" x1="39.31" y1="63.6" x2="42.5" y2="60.44"/>
<line class="st1" x1="40.47" y1="70.34" x2="43.66" y2="73.51"/>
<line class="st1" x1="40.47" y1="73.51" x2="43.66" y2="70.34"/>
<line class="st1" x1="35.82" y1="67.38" x2="39.01" y2="70.54"/>
<line class="st1" x1="35.82" y1="70.54" x2="39.01" y2="67.38"/>
<line class="st1" x1="39.06" y1="92.81" x2="42.25" y2="95.98"/>
<line class="st1" x1="39.06" y1="95.98" x2="42.25" y2="92.81"/>
<line class="st1" x1="41.69" y1="73.71" x2="44.88" y2="76.88"/>
<line class="st1" x1="41.69" y1="76.88" x2="44.88" y2="73.71"/>
<line class="st1" x1="38.4" y1="68.03" x2="41.59" y2="71.2"/>
<line class="st1" x1="38.4" y1="71.2" x2="41.59" y2="68.03"/>
<line class="st1" x1="35.21" y1="62.45" x2="38.4" y2="65.62"/>
<line class="st1" x1="35.21" y1="65.62" x2="38.4" y2="62.45"/>
<line class="st1" x1="36.02" y1="62.8" x2="39.21" y2="65.97"/>
<line class="st1" x1="36.02" y1="65.97" x2="39.21" y2="62.8"/>
<line class="st1" x1="39.77" y1="65.87" x2="42.95" y2="69.03"/>
<line class="st1" x1="39.77" y1="69.03" x2="42.95" y2="65.87"/>
<line class="st1" x1="41.23" y1="78.74" x2="44.42" y2="81.9"/>
<line class="st1" x1="41.23" y1="81.9" x2="44.42" y2="78.74"/>
<line class="st1" x1="41.69" y1="48.47" x2="44.88" y2="51.64"/>
<line class="st1" x1="41.69" y1="51.64" x2="44.88" y2="48.47"/>
<line class="st1" x1="42.6" y1="43.85" x2="45.79" y2="47.01"/>
<line class="st1" x1="42.6" y1="47.01" x2="45.79" y2="43.85"/>
<line class="st1" x1="45.59" y1="29.67" x2="48.78" y2="32.84"/>
<line class="st1" x1="45.59" y1="32.84" x2="48.78" y2="29.67"/>
<line class="st1" x1="40.12" y1="69.69" x2="43.31" y2="72.86"/>
<line class="st1" x1="40.12" y1="72.86" x2="43.31" y2="69.69"/>
<line class="st1" x1="36.02" y1="57.82" x2="39.21" y2="60.99"/>
<line class="st1" x1="36.02" y1="60.99" x2="39.21" y2="57.82"/>
<line class="st1" x1="39.46" y1="25.39" x2="42.65" y2="28.56"/>
<line class="st1" x1="39.46" y1="28.56" x2="42.65" y2="25.39"/>
<line class="st1" x1="39.31" y1="76.22" x2="42.5" y2="79.39"/>
<line class="st1" x1="39.31" y1="79.39" x2="42.5" y2="76.22"/>
<line class="st1" x1="40.22" y1="42.54" x2="43.41" y2="45.71"/>
<line class="st1" x1="40.22" y1="45.71" x2="43.41" y2="42.54"/>
<line class="st1" x1="39.41" y1="76.93" x2="42.6" y2="80.09"/>
<line class="st1" x1="39.41" y1="80.09" x2="42.6" y2="76.93"/>
<line class="st1" x1="41.39" y1="81.25" x2="44.58" y2="84.42"/>
<line class="st1" x1="41.39" y1="84.42" x2="44.58" y2="81.25"/>
<line class="st1" x1="39.77" y1="30.22" x2="42.95" y2="33.39"/>
<line class="st1" x1="39.77" y1="33.39" x2="42.95" y2="30.22"/>
<line class="st1" x1="40.63" y1="64.31" x2="43.82" y2="67.47"/>
<line class="st1" x1="40.63" y1="67.47" x2="43.82" y2="64.31"/>
<line class="st1" x1="41.28" y1="56.36" x2="44.47" y2="59.53"/>
<line class="st1" x1="41.28" y1="59.53" x2="44.47" y2="56.36"/>
<line class="st1" x1="53.38" y1="71.4" x2="56.57" y2="74.56"/>
<line class="st1" x1="53.38" y1="74.56" x2="56.57" y2="71.4"/>
<line class="st1" x1="59.86" y1="59.23" x2="63.05" y2="62.4"/>
<line class="st1" x1="59.86" y1="62.4" x2="63.05" y2="59.23"/>
<line class="st1" x1="55.41" y1="62.9" x2="58.6" y2="66.07"/>
<line class="st1" x1="55.41" y1="66.07" x2="58.6" y2="62.9"/>
<line class="st1" x1="56.12" y1="60.49" x2="59.31" y2="63.65"/>
<line class="st1" x1="56.12" y1="63.65" x2="59.31" y2="60.49"/>
<line class="st1" x1="63.51" y1="54.75" x2="66.7" y2="57.92"/>
<line class="st1" x1="63.51" y1="57.92" x2="66.7" y2="54.75"/>
<line class="st1" x1="59.86" y1="65.36" x2="63.05" y2="68.53"/>
<line class="st1" x1="59.86" y1="68.53" x2="63.05" y2="65.36"/>
<line class="st1" x1="60.62" y1="58.53" x2="63.81" y2="61.69"/>
<line class="st1" x1="60.62" y1="61.69" x2="63.81" y2="58.53"/>
<line class="st1" x1="53.59" y1="53" x2="56.78" y2="56.16"/>
<line class="st1" x1="53.59" y1="56.16" x2="56.78" y2="53"/>
<line class="st1" x1="60.42" y1="61.14" x2="63.61" y2="64.31"/>
<line class="st1" x1="60.42" y1="64.31" x2="63.61" y2="61.14"/>
<line class="st1" x1="58.45" y1="57.72" x2="61.64" y2="60.89"/>
<line class="st1" x1="58.45" y1="60.89" x2="61.64" y2="57.72"/>
<line class="st1" x1="59.51" y1="74.56" x2="62.7" y2="77.73"/>
<line class="st1" x1="59.51" y1="77.73" x2="62.7" y2="74.56"/>
<line class="st1" x1="59.91" y1="60.94" x2="63.1" y2="64.11"/>
<line class="st1" x1="59.91" y1="64.11" x2="63.1" y2="60.94"/>
<line class="st1" x1="58.5" y1="76.73" x2="61.69" y2="79.89"/>
<line class="st1" x1="58.5" y1="79.89" x2="61.69" y2="76.73"/>
<line class="st1" x1="57.33" y1="49.98" x2="60.52" y2="53.15"/>
<line class="st1" x1="57.33" y1="53.15" x2="60.52" y2="49.98"/>
<line class="st1" x1="58.5" y1="47.21" x2="61.69" y2="50.38"/>
<line class="st1" x1="58.5" y1="50.38" x2="61.69" y2="47.21"/>
<line class="st1" x1="62.65" y1="68.58" x2="65.84" y2="71.75"/>
<line class="st1" x1="62.65" y1="71.75" x2="65.84" y2="68.58"/>
<line class="st1" x1="60.88" y1="57.72" x2="64.07" y2="60.89"/>
<line class="st1" x1="60.88" y1="60.89" x2="64.07" y2="57.72"/>
<line class="st1" x1="58.9" y1="74.87" x2="62.09" y2="78.03"/>
<line class="st1" x1="58.9" y1="78.03" x2="62.09" y2="74.87"/>
<line class="st1" x1="59.41" y1="43.19" x2="62.6" y2="46.36"/>
<line class="st1" x1="59.41" y1="46.36" x2="62.6" y2="43.19"/>
<line class="st1" x1="59" y1="56.06" x2="62.19" y2="59.23"/>
<line class="st1" x1="59" y1="59.23" x2="62.19" y2="56.06"/>
<line class="st1" x1="57.08" y1="37.31" x2="60.27" y2="40.48"/>
<line class="st1" x1="57.08" y1="40.48" x2="60.27" y2="37.31"/>
<line class="st1" x1="58.24" y1="83.61" x2="61.43" y2="86.78"/>
<line class="st1" x1="58.24" y1="86.78" x2="61.43" y2="83.61"/>
<line class="st1" x1="64.52" y1="63.25" x2="67.71" y2="66.42"/>
<line class="st1" x1="64.52" y1="66.42" x2="67.71" y2="63.25"/>
<line class="st1" x1="59.56" y1="69.13" x2="62.75" y2="72.3"/>
<line class="st1" x1="59.56" y1="72.3" x2="62.75" y2="69.13"/>
<line class="st1" x1="61.48" y1="24.44" x2="64.67" y2="27.61"/>
<line class="st1" x1="61.48" y1="27.61" x2="64.67" y2="24.44"/>
<line class="st1" x1="57.13" y1="63.4" x2="60.32" y2="66.57"/>
<line class="st1" x1="57.13" y1="66.57" x2="60.32" y2="63.4"/>
<line class="st1" x1="56.27" y1="70.64" x2="59.46" y2="73.81"/>
<line class="st1" x1="56.27" y1="73.81" x2="59.46" y2="70.64"/>
<line class="st1" x1="61.89" y1="40.63" x2="65.08" y2="43.79"/>
<line class="st1" x1="61.89" y1="43.79" x2="65.08" y2="40.63"/>
<line class="st1" x1="54.5" y1="37.86" x2="57.69" y2="41.03"/>
<line class="st1" x1="54.5" y1="41.03" x2="57.69" y2="37.86"/>
<line class="st1" x1="62.34" y1="58.58" x2="65.53" y2="61.74"/>
<line class="st1" x1="62.34" y1="61.74" x2="65.53" y2="58.58"/>
<polyline class="st0" points="159.34,113.25 259.68,113.25 259.68,13.6 159.34,13.6 159.34,113.25 "/>
<line class="st1" x1="199.33" y1="61.84" x2="199.33" y2="58.68"/>
<line class="st1" x1="197.74" y1="60.26" x2="200.93" y2="60.26"/>
<line class="st1" x1="198.82" y1="75.67" x2="198.82" y2="72.5"/>
<line class="st1" x1="197.23" y1="74.09" x2="200.42" y2="74.09"/>
<line class="st1" x1="198.88" y1="64.01" x2="198.88" y2="60.84"/>
<line class="st1" x1="197.28" y1="62.42" x2="200.47" y2="62.42"/>
<line class="st1" x1="196.09" y1="68.38" x2="196.09" y2="65.21"/>
<line class="st1" x1="194.5" y1="66.8" x2="197.69" y2="66.8"/>
<line class="st1" x1="202.47" y1="69.79" x2="202.47" y2="66.62"/>
<line class="st1" x1="200.87" y1="68.2" x2="204.06" y2="68.2"/>
<line class="st1" x1="204.04" y1="88.54" x2="204.04" y2="85.37"/>
<line class="st1" x1="202.44" y1="86.96" x2="205.63" y2="86.96"/>
<line class="st1" x1="201.91" y1="65.41" x2="201.91" y2="62.25"/>
<line class="st1" x1="200.32" y1="63.83" x2="203.51" y2="63.83"/>
<line class="st1" x1="198.62" y1="67.88" x2="198.62" y2="64.71"/>
<line class="st1" x1="197.03" y1="66.29" x2="200.22" y2="66.29"/>
<line class="st1" x1="198.42" y1="61.64" x2="198.42" y2="58.48"/>
<line class="st1" x1="196.82" y1="60.06" x2="200.01" y2="60.06"/>
<line class="st1" x1="199.89" y1="92.56" x2="199.89" y2="89.4"/>
<line class="st1" x1="198.29" y1="90.98" x2="201.48" y2="90.98"/>
<line class="st1" x1="199.79" y1="69.03" x2="199.79" y2="65.87"/>
<line class="st1" x1="198.19" y1="67.45" x2="201.38" y2="67.45"/>
<line class="st1" x1="200.04" y1="105.94" x2="200.04" y2="102.77"/>
<line class="st1" x1="198.44" y1="104.35" x2="201.63" y2="104.35"/>
<line class="st1" x1="198.47" y1="64.96" x2="198.47" y2="61.79"/>
<line class="st1" x1="196.88" y1="63.38" x2="200.06" y2="63.38"/>
<line class="st1" x1="199.13" y1="70.44" x2="199.13" y2="67.27"/>
<line class="st1" x1="197.53" y1="68.86" x2="200.72" y2="68.86"/>
<line class="st1" x1="202.98" y1="74.82" x2="202.98" y2="71.65"/>
<line class="st1" x1="201.38" y1="73.23" x2="204.57" y2="73.23"/>
<line class="st1" x1="201.41" y1="82.71" x2="201.41" y2="79.54"/>
<line class="st1" x1="199.81" y1="81.13" x2="203" y2="81.13"/>
<line class="st1" x1="199.53" y1="68.83" x2="199.53" y2="65.67"/>
<line class="st1" x1="197.94" y1="67.25" x2="201.13" y2="67.25"/>
<line class="st1" x1="198.62" y1="70.29" x2="198.62" y2="67.12"/>
<line class="st1" x1="197.03" y1="68.71" x2="200.22" y2="68.71"/>
<line class="st1" x1="196.55" y1="87.23" x2="196.55" y2="84.07"/>
<line class="st1" x1="194.95" y1="85.65" x2="198.14" y2="85.65"/>
<line class="st1" x1="197.71" y1="61.74" x2="197.71" y2="58.58"/>
<line class="st1" x1="196.12" y1="60.16" x2="199.3" y2="60.16"/>
<line class="st1" x1="202.77" y1="79.24" x2="202.77" y2="76.07"/>
<line class="st1" x1="201.18" y1="77.66" x2="204.37" y2="77.66"/>
<line class="st1" x1="197.46" y1="102.01" x2="197.46" y2="98.85"/>
<line class="st1" x1="195.86" y1="100.43" x2="199.05" y2="100.43"/>
<line class="st1" x1="200.6" y1="92.41" x2="200.6" y2="89.24"/>
<line class="st1" x1="199" y1="90.83" x2="202.19" y2="90.83"/>
<line class="st1" x1="202.87" y1="81.5" x2="202.87" y2="78.34"/>
<line class="st1" x1="201.28" y1="79.92" x2="204.47" y2="79.92"/>
<line class="st1" x1="203.28" y1="71.15" x2="203.28" y2="67.98"/>
<line class="st1" x1="201.68" y1="69.56" x2="204.87" y2="69.56"/>
<line class="st1" x1="199.48" y1="62.65" x2="199.48" y2="59.48"/>
<line class="st1" x1="197.89" y1="61.07" x2="201.08" y2="61.07"/>
<line class="st1" x1="203.28" y1="77.48" x2="203.28" y2="74.31"/>
<line class="st1" x1="201.68" y1="75.9" x2="204.87" y2="75.9"/>
<line class="st1" x1="197.1" y1="73.11" x2="197.1" y2="69.94"/>
<line class="st1" x1="195.51" y1="71.52" x2="198.7" y2="71.52"/>
<line class="st1" x1="198.01" y1="72.35" x2="198.01" y2="69.18"/>
<line class="st1" x1="196.42" y1="70.77" x2="199.61" y2="70.77"/>
<line class="st1" x1="200.8" y1="78.79" x2="200.8" y2="75.62"/>
<line class="st1" x1="199.2" y1="77.2" x2="202.39" y2="77.2"/>
<line class="st1" x1="199.99" y1="63.6" x2="199.99" y2="60.44"/>
<line class="st1" x1="198.39" y1="62.02" x2="201.58" y2="62.02"/>
<line class="st1" x1="201.15" y1="73.51" x2="201.15" y2="70.34"/>
<line class="st1" x1="199.56" y1="71.92" x2="202.75" y2="71.92"/>
<line class="st1" x1="196.49" y1="70.54" x2="196.49" y2="67.38"/>
<line class="st1" x1="194.9" y1="68.96" x2="198.09" y2="68.96"/>
<line class="st1" x1="199.74" y1="95.98" x2="199.74" y2="92.81"/>
<line class="st1" x1="198.14" y1="94.4" x2="201.33" y2="94.4"/>
<line class="st1" x1="202.37" y1="76.88" x2="202.37" y2="73.71"/>
<line class="st1" x1="200.77" y1="75.29" x2="203.96" y2="75.29"/>
<line class="st1" x1="199.08" y1="71.2" x2="199.08" y2="68.03"/>
<line class="st1" x1="197.48" y1="69.61" x2="200.67" y2="69.61"/>
<line class="st1" x1="195.89" y1="65.62" x2="195.89" y2="62.45"/>
<line class="st1" x1="194.29" y1="64.03" x2="197.48" y2="64.03"/>
<line class="st1" x1="196.7" y1="65.97" x2="196.7" y2="62.8"/>
<line class="st1" x1="195.1" y1="64.38" x2="198.29" y2="64.38"/>
<line class="st1" x1="200.44" y1="69.03" x2="200.44" y2="65.87"/>
<line class="st1" x1="198.85" y1="67.45" x2="202.04" y2="67.45"/>
<line class="st1" x1="201.91" y1="81.9" x2="201.91" y2="78.74"/>
<line class="st1" x1="200.32" y1="80.32" x2="203.51" y2="80.32"/>
<line class="st1" x1="200.8" y1="72.86" x2="200.8" y2="69.69"/>
<line class="st1" x1="199.2" y1="71.27" x2="202.39" y2="71.27"/>
<line class="st1" x1="196.7" y1="60.99" x2="196.7" y2="57.82"/>
<line class="st1" x1="195.1" y1="59.41" x2="198.29" y2="59.41"/>
<line class="st1" x1="199.99" y1="79.39" x2="199.99" y2="76.22"/>
<line class="st1" x1="198.39" y1="77.81" x2="201.58" y2="77.81"/>
<line class="st1" x1="200.09" y1="80.09" x2="200.09" y2="76.93"/>
<line class="st1" x1="198.49" y1="78.51" x2="201.68" y2="78.51"/>
<line class="st1" x1="202.06" y1="84.42" x2="202.06" y2="81.25"/>
<line class="st1" x1="200.47" y1="82.83" x2="203.66" y2="82.83"/>
<line class="st1" x1="201.3" y1="67.47" x2="201.3" y2="64.31"/>
<line class="st1" x1="199.71" y1="65.89" x2="202.9" y2="65.89"/>
<line class="st1" x1="214.06" y1="74.56" x2="214.06" y2="71.4"/>
<line class="st1" x1="212.47" y1="72.98" x2="215.66" y2="72.98"/>
<line class="st1" x1="216.09" y1="66.07" x2="216.09" y2="62.9"/>
<line class="st1" x1="214.49" y1="64.48" x2="217.68" y2="64.48"/>
<line class="st1" x1="216.8" y1="63.65" x2="216.8" y2="60.49"/>
<line class="st1" x1="215.2" y1="62.07" x2="218.39" y2="62.07"/>
<line class="st1" x1="220.54" y1="68.53" x2="220.54" y2="65.36"/>
<line class="st1" x1="218.95" y1="66.95" x2="222.14" y2="66.95"/>
<line class="st1" x1="221.1" y1="64.31" x2="221.1" y2="61.14"/>
<line class="st1" x1="219.5" y1="62.72" x2="222.69" y2="62.72"/>
<line class="st1" x1="220.19" y1="77.73" x2="220.19" y2="74.56"/>
<line class="st1" x1="218.59" y1="76.15" x2="221.78" y2="76.15"/>
<line class="st1" x1="220.59" y1="64.11" x2="220.59" y2="60.94"/>
<line class="st1" x1="219" y1="62.52" x2="222.19" y2="62.52"/>
<line class="st1" x1="219.18" y1="79.89" x2="219.18" y2="76.73"/>
<line class="st1" x1="217.58" y1="78.31" x2="220.77" y2="78.31"/>
<line class="st1" x1="223.33" y1="71.75" x2="223.33" y2="68.58"/>
<line class="st1" x1="221.73" y1="70.17" x2="224.92" y2="70.17"/>
<line class="st1" x1="219.58" y1="78.03" x2="219.58" y2="74.87"/>
<line class="st1" x1="217.99" y1="76.45" x2="221.17" y2="76.45"/>
<line class="st1" x1="218.92" y1="86.78" x2="218.92" y2="83.61"/>
<line class="st1" x1="217.33" y1="85.2" x2="220.52" y2="85.2"/>
<line class="st1" x1="225.2" y1="66.42" x2="225.2" y2="63.25"/>
<line class="st1" x1="223.61" y1="64.84" x2="226.79" y2="64.84"/>
<line class="st1" x1="220.24" y1="72.3" x2="220.24" y2="69.13"/>
<line class="st1" x1="218.64" y1="70.72" x2="221.83" y2="70.72"/>
<line class="st1" x1="217.81" y1="66.57" x2="217.81" y2="63.4"/>
<line class="st1" x1="216.21" y1="64.99" x2="219.4" y2="64.99"/>
<line class="st1" x1="216.95" y1="73.81" x2="216.95" y2="70.64"/>
<line class="st1" x1="215.35" y1="72.23" x2="218.54" y2="72.23"/>
<rect x="191.36" y="42.09" class="st1" width="3.19" height="3.17"/>
<line class="st2" x1="192.95" y1="43.67" x2="192.95" y2="43.67"/>
<rect x="198.04" y="51.59" class="st1" width="3.19" height="3.17"/>
<line class="st2" x1="199.63" y1="53.17" x2="199.63" y2="53.17"/>
<rect x="195.25" y="20.42" class="st1" width="3.19" height="3.17"/>
<line class="st2" x1="196.85" y1="22" x2="196.85" y2="22"/>
<rect x="198.19" y="51.69" class="st1" width="3.19" height="3.17"/>
<line class="st2" x1="199.79" y1="53.27" x2="199.79" y2="53.27"/>
<rect x="199.15" y="56.01" class="st1" width="3.19" height="3.17"/>
<line class="st2" x1="200.75" y1="57.6" x2="200.75" y2="57.6"/>
<rect x="194.04" y="40.93" class="st1" width="3.19" height="3.17"/>
<line class="st2" x1="195.63" y1="42.51" x2="195.63" y2="42.51"/>
<rect x="197.53" y="43.49" class="st1" width="3.19" height="3.17"/>
<line class="st2" x1="199.13" y1="45.08" x2="199.13" y2="45.08"/>
<rect x="197.38" y="49.43" class="st1" width="3.19" height="3.17"/>
<line class="st2" x1="198.98" y1="51.01" x2="198.98" y2="51.01"/>
<rect x="194.55" y="51.44" class="st1" width="3.19" height="3.17"/>
<line class="st2" x1="196.14" y1="53.02" x2="196.14" y2="53.02"/>
<rect x="194.5" y="45.45" class="st1" width="3.19" height="3.17"/>
<line class="st2" x1="196.09" y1="47.04" x2="196.09" y2="47.04"/>
<rect x="197.94" y="56.67" class="st1" width="3.19" height="3.17"/>
<line class="st2" x1="199.53" y1="58.25" x2="199.53" y2="58.25"/>
<rect x="197.13" y="43.69" class="st1" width="3.19" height="3.17"/>
<line class="st2" x1="198.72" y1="45.28" x2="198.72" y2="45.28"/>
<rect x="191.51" y="56.87" class="st1" width="3.19" height="3.17"/>
<line class="st2" x1="193.1" y1="58.45" x2="193.1" y2="58.45"/>
<rect x="198.7" y="55.11" class="st1" width="3.19" height="3.17"/>
<line class="st2" x1="200.29" y1="56.69" x2="200.29" y2="56.69"/>
<rect x="195.61" y="47.92" class="st1" width="3.19" height="3.17"/>
<line class="st2" x1="197.2" y1="49.5" x2="197.2" y2="49.5"/>
<rect x="196.82" y="44.1" class="st1" width="3.19" height="3.17"/>
<line class="st2" x1="198.42" y1="45.68" x2="198.42" y2="45.68"/>
<rect x="195.46" y="39.52" class="st1" width="3.19" height="3.17"/>
<line class="st2" x1="197.05" y1="41.11" x2="197.05" y2="41.11"/>
<rect x="200.77" y="48.47" class="st1" width="3.19" height="3.17"/>
<line class="st2" x1="202.37" y1="50.05" x2="202.37" y2="50.05"/>
<rect x="201.68" y="43.85" class="st1" width="3.19" height="3.17"/>
<line class="st2" x1="203.28" y1="45.43" x2="203.28" y2="45.43"/>
<rect x="204.67" y="29.67" class="st1" width="3.19" height="3.17"/>
<line class="st2" x1="206.27" y1="31.25" x2="206.27" y2="31.25"/>
<rect x="198.55" y="25.39" class="st1" width="3.19" height="3.17"/>
<line class="st2" x1="200.14" y1="26.98" x2="200.14" y2="26.98"/>
<rect x="199.3" y="42.54" class="st1" width="3.19" height="3.17"/>
<line class="st2" x1="200.9" y1="44.12" x2="200.9" y2="44.12"/>
<rect x="198.85" y="30.22" class="st1" width="3.19" height="3.17"/>
<line class="st2" x1="200.44" y1="31.8" x2="200.44" y2="31.8"/>
<rect x="200.37" y="56.36" class="st1" width="3.19" height="3.17"/>
<line class="st2" x1="201.96" y1="57.95" x2="201.96" y2="57.95"/>
<rect x="218.95" y="59.23" class="st1" width="3.19" height="3.17"/>
<line class="st2" x1="220.54" y1="60.81" x2="220.54" y2="60.81"/>
<rect x="222.59" y="54.75" class="st1" width="3.19" height="3.17"/>
<line class="st2" x1="224.19" y1="56.34" x2="224.19" y2="56.34"/>
<rect x="219.71" y="58.53" class="st1" width="3.19" height="3.17"/>
<line class="st2" x1="221.3" y1="60.11" x2="221.3" y2="60.11"/>
<rect x="212.67" y="53" class="st1" width="3.19" height="3.17"/>
<line class="st2" x1="214.27" y1="54.58" x2="214.27" y2="54.58"/>
<rect x="217.53" y="57.72" class="st1" width="3.19" height="3.17"/>
<line class="st2" x1="219.12" y1="59.31" x2="219.12" y2="59.31"/>
<rect x="216.42" y="49.98" class="st1" width="3.19" height="3.17"/>
<line class="st2" x1="218.01" y1="51.56" x2="218.01" y2="51.56"/>
<rect x="217.58" y="47.21" class="st1" width="3.19" height="3.17"/>
<line class="st2" x1="219.18" y1="48.8" x2="219.18" y2="48.8"/>
<rect x="219.96" y="57.72" class="st1" width="3.19" height="3.17"/>
<line class="st2" x1="221.55" y1="59.31" x2="221.55" y2="59.31"/>
<rect x="218.49" y="43.19" class="st1" width="3.19" height="3.17"/>
<line class="st2" x1="220.09" y1="44.78" x2="220.09" y2="44.78"/>
<rect x="218.09" y="56.06" class="st1" width="3.19" height="3.17"/>
<line class="st2" x1="219.68" y1="57.65" x2="219.68" y2="57.65"/>
<rect x="216.16" y="37.31" class="st1" width="3.19" height="3.17"/>
<line class="st2" x1="217.76" y1="38.89" x2="217.76" y2="38.89"/>
<rect x="220.57" y="24.44" class="st1" width="3.19" height="3.17"/>
<line class="st2" x1="222.16" y1="26.02" x2="222.16" y2="26.02"/>
<rect x="220.97" y="40.63" class="st1" width="3.19" height="3.17"/>
<line class="st2" x1="222.57" y1="42.21" x2="222.57" y2="42.21"/>
<rect x="213.58" y="37.86" class="st1" width="3.19" height="3.17"/>
<line class="st2" x1="215.18" y1="39.45" x2="215.18" y2="39.45"/>
<rect x="221.43" y="58.58" class="st1" width="3.19" height="3.17"/>
<line class="st2" x1="223.02" y1="60.16" x2="223.02" y2="60.16"/>
<polyline class="st1" points="206.92,72.48 206.87,72.13 206.77,71.77 206.67,71.42 206.47,71.12 206.27,70.87 205.96,70.67 
	205.66,70.47 205.35,70.32 205,70.27 204.65,70.22 204.29,70.27 203.94,70.32 203.63,70.47 203.33,70.67 203.03,70.87 202.82,71.12 
	202.62,71.42 202.52,71.77 202.42,72.13 202.37,72.48 202.42,72.83 202.52,73.13 202.62,73.48 202.82,73.78 203.03,74.04 
	203.33,74.29 203.63,74.44 203.94,74.59 204.29,74.69 205,74.69 205.35,74.59 205.66,74.44 205.96,74.29 206.27,74.04 206.47,73.78 
	206.67,73.48 206.77,73.13 206.87,72.83 206.92,72.48 208.34,72.48 208.29,71.87 208.19,71.32 207.94,70.77 207.63,70.32 
	207.28,69.86 206.82,69.46 206.32,69.16 205.81,68.96 205.2,68.81 204.65,68.76 204.09,68.81 203.48,68.96 202.98,69.16 
	202.47,69.46 202.01,69.86 201.66,70.32 201.36,70.77 201.1,71.32 201,71.87 200.95,72.48 201,73.03 201.1,73.58 201.36,74.14 
	201.66,74.64 202.01,75.04 202.47,75.44 202.98,75.75 203.48,75.95 204.09,76.1 204.65,76.15 205.2,76.1 205.81,75.95 206.32,75.75 
	206.82,75.44 207.28,75.04 207.63,74.64 207.94,74.14 208.19,73.58 208.29,73.03 208.34,72.48 "/>
<polyline class="st1" points="209.3,47.99 209.25,47.64 209.2,47.29 209.05,46.94 208.85,46.64 208.65,46.39 208.34,46.18 
	208.04,45.98 207.73,45.83 207.38,45.78 207.03,45.73 206.67,45.78 206.32,45.83 206.01,45.98 205.71,46.18 205.46,46.39 
	205.2,46.64 205,46.94 204.9,47.29 204.8,47.64 204.8,48.35 204.9,48.65 205,49 205.2,49.3 205.46,49.55 205.71,49.8 206.01,49.95 
	206.32,50.11 206.67,50.21 207.38,50.21 207.73,50.11 208.04,49.95 208.34,49.8 208.65,49.55 208.85,49.3 209.05,49 209.2,48.65 
	209.25,48.35 209.3,47.99 210.72,47.99 210.72,47.39 210.57,46.84 210.32,46.28 210.01,45.78 209.66,45.38 209.2,44.98 208.7,44.67 
	208.19,44.47 207.63,44.32 207.03,44.27 206.47,44.32 205.86,44.47 205.35,44.67 204.85,44.98 204.39,45.38 204.04,45.78 
	203.73,46.28 203.48,46.84 203.38,47.39 203.33,47.99 203.38,48.55 203.48,49.1 203.73,49.65 204.04,50.15 204.39,50.56 
	204.85,50.96 205.35,51.26 205.86,51.46 206.47,51.61 207.03,51.66 207.63,51.61 208.19,51.46 208.7,51.26 209.2,50.96 
	209.66,50.56 210.01,50.15 210.32,49.65 210.57,49.1 210.72,48.55 210.72,47.99 "/>
<text transform="matrix(1 0 0 1 36.3954 10.0441)" class="st3 st4 st5">data</text>
<text transform="matrix(1 0 0 1 163.7441 10.0443)" class="st3 st4 st5">k-means clustering</text>
</svg>
