<?xml version="1.0" encoding="UTF-8" standalone="no"?>
<svg
   id="a"
   viewBox="0 0 143.58986 146.48318"
   version="1.1"
   sodipodi:docname="mlbbq_logo.svg"
   width="143.58986"
   height="146.48318"
   inkscape:version="1.1.2 (b8e25be8, 2022-02-05)"
   inkscape:export-filename="/Users/splis/Documents/talks/atlanta/figures/mlbbq_logo.png"
   inkscape:export-xdpi="300"
   inkscape:export-ydpi="300"
   xmlns:inkscape="http://www.inkscape.org/namespaces/inkscape"
   xmlns:sodipodi="http://sodipodi.sourceforge.net/DTD/sodipodi-0.dtd"
   xmlns="http://www.w3.org/2000/svg"
   xmlns:svg="http://www.w3.org/2000/svg">
  <sodipodi:namedview
     id="namedview119"
     pagecolor="#ffffff"
     bordercolor="#666666"
     borderopacity="1.0"
     inkscape:pageshadow="2"
     inkscape:pageopacity="0.0"
     inkscape:pagecheckerboard="0"
     showgrid="false"
     fit-margin-top="0"
     fit-margin-left="0"
     fit-margin-right="0"
     fit-margin-bottom="0"
     inkscape:zoom="2.49"
     inkscape:cx="71.686747"
     inkscape:cy="73.293173"
     inkscape:window-width="976"
     inkscape:window-height="732"
     inkscape:window-x="1528"
     inkscape:window-y="2409"
     inkscape:window-maximized="0"
     inkscape:current-layer="a" />
  <defs
     id="defs11">
    <style
       id="style9">.c{fill:#fff;}.d{fill:#ff4e4b;}.e{fill:#9d9fa2;}.f{fill:#a9c8d0;}.g,.h{fill:#e0e0e0;}.h{stroke:#000;stroke-miterlimit:10;stroke-width:4px;}</style>
  </defs>
  <circle
     class="h"
     cx="-67.686295"
     cy="69.593193"
     r="45.889999"
     id="circle13"
     transform="scale(-1,1)" />
  <g
     id="g27"
     transform="matrix(-0.7875613,-0.61623632,-0.61623632,0.7875613,212.55317,54.564393)">
    <g
       id="g450"
       transform="matrix(-1,0,0,1,192.55909,0)">
      <g
         id="g455">
        <path
           d="M 97.380002,76.82 C 102.81,76.29 108.22,76.51 113.59,78.99 c 4.52,2.09 8.5,5.42 10.75,11.68 2.57,7.169995 0.51,14.57 -4.9,16.84 -2.36,0.99 -5.06,1.48 -7.58,1.04 -11.939998,-2.07 -23.27,-0.04 -34.27,4.7 -1.13,0.49 -2.33,0.78 -3.53,0.88 -4.74,0.4 -7.83,-3.96 -6.71,-10.27 0.71,-3.980005 2.19,-7.910005 4.05,-11.000005 C 76.05,85.14 82.6,81.28 89.66,78.83 c 2.53,-0.88 5.150002,-1.36 7.730002,-2.03 z"
           id="path21" />
        <path
           class="c"
           d="m 108.59,89.41 c 3.2,-0.18 5.8,2.49 5.77,5.51 -0.03,3.06 -2.05,5.56 -5.36,5.73 -3.2,0.16 -5.78,-2.16 -5.94,-5.52 -0.13,-2.79 2.3,-5.81 5.52,-5.72 z"
           id="path23" />
        <path
           class="c"
           d="m 78.38,98.2 c 2.12,-0.6 4.12,-0.3 5.95,0.89 0.82,0.54 1.59,1.21 1.79,2.29 0.13,0.67 -0.29,1.48 -0.94,1.69 -0.1,0.03 -0.2,0.05 -0.3,0.09 -0.97,0.48 -1.7,0.14 -2.35,-0.64 -0.73,-0.86 -2.85,-1.12 -3.8,-0.33 -0.83,0.68 -1.27,1.48 -1.46,2.44 -0.22,1.09 -1.09,1.41 -2.09,1.45 -0.78,0.03 -1.5,-0.85 -1.55,-1.72 -0.09,-1.42 0.47,-2.62 1.28,-3.72 0.88,-1.18 2.02,-2.02 3.45,-2.46 z"
           id="path25" />
      </g>
    </g>
  </g>
  <g
     id="g19"
     transform="matrix(-1,0,0,1,172.2363,-27.02681)">
    <path
       d="m 147.57,88.13 c -0.77,-4.29 -1.56,-8.59 -2.28,-12.89 -0.12,-0.69 -0.07,-1.45 0.08,-2.14 0.15,-0.7 1.06,-1.17 1.78,-1.13 1.54,0.07 3.08,0.21 4.62,0.15 2.65,-0.11 4.57,1.05 5.97,3.18 0.34,0.52 0.53,1.19 0.64,1.82 1.05,5.76 2.05,11.53 3.12,17.28 0.44,2.37 -0.23,4.34 -1.91,5.98 -0.53,0.52 -1.2,0.95 -1.88,1.24 -1.54,0.65 -3.13,1.19 -4.7,1.77 -1.63,0.6 -2.7,0 -3.01,-1.73 -0.48,-2.61 -0.94,-5.23 -1.41,-7.84 -0.34,-1.89 -0.68,-3.79 -1.02,-5.68 v 0 z"
       id="path15" />
    <path
       d="m 60.08,107.21 c 0.75,3.11 1.5,6.21 2.23,9.32 0.29,1.23 -0.16,1.86 -1.43,1.95 -1.21,0.09 -2.42,0.19 -3.64,0.18 -1.81,0 -3.77,-1.29 -4.2,-3.08 -1.01,-4.23 -2.04,-8.47 -3.05,-12.7 -0.45,-1.87 0.95,-4.21 2.83,-4.83 0.97,-0.32 1.86,-0.84 2.78,-1.29 1.07,-0.52 1.91,-0.15 2.19,1.01 0.77,3.14 1.51,6.29 2.27,9.43 z"
       id="path17" />
  </g>
  <path
     d="m 91.3363,29.51319 c -0.91,-3.1 -3.36,-5.27 -6.03,-7.1 -1.24,-0.85 -3.31,-0.81 -3.04,-3.31 0.24,-2.27 1.98,-2.28 3.41,-2.96 4.24,-2.02 6.07,-6.07 4.75,-10.27 -1.24,-3.94 -5.26,-6.42 -9.33,-5.77 -4.24,0.68 -7.21,4.49 -7.02,8.93 0.09,2.12 0.99,3.86 2.44,5.31 1.06,1.06 2.2,1.83 1.64,3.72 -0.61,2.06 -2.06,1.69 -3.54,1.81 -2.51,0.22 -5.38,0.58 -6.94,2.42 l 23.67,7.22 z"
     id="path29" />
  <path
     class="d"
     d="m 80.2063,7.74319 c -0.22,1.3 0.17,2.7 1.26,3.6 0.48,0.4 1.06,0.64 1.67,0.77 2.53,0.55 4.32,-0.74 4.75,-3.17 0.4,-2.27 -1.01,-3.97 -3.2,-4.31 -1.04,-0.16 -2.12,0 -2.98,0.63 -0.83,0.6 -1.34,1.51 -1.5,2.48 z"
     id="path31" />
  <g
     id="b"
     transform="matrix(-0.99253436,-0.12196525,-0.12196525,0.99253436,189.36245,-16.509146)">
    <g
       id="g61">
      <g
         id="g39">
        <path
           d="m 76.09,172.53 c -0.55,0 -1.11,-0.1 -1.62,-0.28 -4.78,-1.76 -9.56,-3.53 -14.34,-5.29 l -10.28,-3.8 c -0.57,-0.21 -1.22,-0.69 -1.05,-1.79 1.62,-10.92 3.23,-21.85 4.84,-32.78 l 0.47,-3.2 c 0.04,-0.3 0.22,-0.56 0.47,-0.71 0.16,-0.09 0.34,-0.14 0.52,-0.14 0.11,0 0.23,0.02 0.34,0.06 l 1.14,0.41 0.54,-3.65 c 0.05,-0.33 0.26,-0.61 0.56,-0.76 0.14,-0.07 0.28,-0.1 0.43,-0.1 0.18,0 0.35,0.05 0.51,0.14 l 2.89,1.71 0.56,-3.79 c 0.05,-0.37 0.3,-0.67 0.65,-0.8 0.11,-0.04 0.23,-0.06 0.34,-0.06 0.24,0 0.48,0.09 0.67,0.26 l 4.31,3.89 0.44,-3.01 c 0.06,-0.41 0.37,-0.74 0.77,-0.83 l 0.1,-0.02 c 0.08,-0.02 0.16,-0.03 0.24,-0.03 0.32,0 0.64,0.15 0.83,0.41 l 2.3,3.16 0.51,-3.46 c 0.06,-0.44 0.41,-0.78 0.85,-0.84 l 0.15,-0.02 c 0.05,0 0.1,-0.01 0.16,-0.01 0.39,0 0.76,0.23 0.92,0.6 l 6.24,14.5 10.15,-12.07 c 0.19,-0.23 0.48,-0.36 0.77,-0.36 0.1,0 0.2,0.01 0.3,0.05 0.47,0.15 0.9,0.66 0.83,1.14 l -0.41,2.78 2.5,-1.71 c 0.17,-0.12 0.37,-0.17 0.56,-0.17 0.18,0 0.37,0.05 0.53,0.15 0.34,0.21 0.52,0.6 0.46,0.99 l -0.46,3.13 5.24,-2.61 c 0.14,-0.07 0.29,-0.1 0.45,-0.1 0.21,0 0.41,0.06 0.59,0.19 0.3,0.22 0.46,0.59 0.4,0.96 l -0.56,3.83 3.26,-0.83 c 0.08,-0.02 0.16,-0.03 0.25,-0.03 0.25,0 0.48,0.09 0.67,0.26 0.25,0.22 0.37,0.56 0.32,0.89 l -0.54,3.69 c 0,0 1.52,-0.07 1.54,-0.07 0.28,0 0.55,0.12 0.74,0.33 0.2,0.22 0.29,0.52 0.25,0.82 l -0.92,6.25 c -1.45,9.83 -2.9,19.65 -4.33,29.48 -0.16,1.08 -0.74,1.61 -1.83,1.67 -4.76,0.28 -9.51,0.58 -14.27,0.87 -3.88,0.24 -7.77,0.48 -11.65,0.71 -0.09,0 -0.18,0 -0.27,0 z m 6.6,-35.29 c -1.23,8.39 -2.46,16.73 -3.69,25.07 l -1.01,6.85 4.76,-0.29 c 6.08,-0.38 12.17,-0.76 18.26,-1.12 1.32,-9.05 2.65,-18.11 3.99,-27.16 l 0.7,-4.75 -4.92,0.3 c -6.03,0.37 -12.06,0.74 -18.09,1.11 z m -9.24,31.16 c 0.14,0.05 0.28,0.1 0.42,0.15 l 0.87,-5.88 c 1.28,-8.68 2.56,-17.36 3.85,-26.03 -4.75,-1.74 -9.49,-3.5 -14.24,-5.25 l -7.41,-2.74 -0.93,6.28 c -1.26,8.54 -2.52,17.08 -3.79,25.62 5.49,2.03 21.22,7.85 21.22,7.85 z M 98.6,132.99 c 1.62,-0.1 3.24,-0.2 4.86,-0.31 0.05,-0.32 0.1,-0.65 0.15,-0.99 l -5.01,1.29 z m -2.54,-2.74 c 1.12,-0.29 2.25,-0.59 3.37,-0.88 0.05,-0.29 0.1,-0.58 0.14,-0.87 z m -36.3,-4.05 c 1.56,0.57 3.11,1.14 4.66,1.71 l -4.51,-2.68 c -0.05,0.33 -0.1,0.65 -0.16,0.97 z m 4.81,-2 c 1.11,0.65 2.21,1.3 3.31,1.95 l -3.16,-2.86 c -0.05,0.31 -0.09,0.61 -0.15,0.9 z"
           id="path35" />
        <path
           d="m 74.39,118.18 c 2.28,5.3 4.56,10.6 6.88,15.99 3.78,-4.49 7.48,-8.9 11.19,-13.32 l 0.14,0.05 c -0.25,1.69 -0.5,3.38 -0.74,5.04 1.48,-1.02 2.93,-2 4.39,-3 -0.24,1.61 -0.48,3.24 -0.74,5.03 2.36,-1.18 4.6,-2.29 6.95,-3.46 -0.27,1.8 -0.52,3.5 -0.78,5.31 1.62,-0.41 3.13,-0.79 4.71,-1.2 -0.25,1.66 -0.48,3.24 -0.72,4.9 l 2.71,-0.13 c -0.04,0.26 -0.07,0.46 -0.1,0.67 -1.72,11.69 -3.45,23.37 -5.16,35.06 -0.09,0.6 -0.28,0.78 -0.9,0.82 -8.64,0.51 -17.28,1.06 -25.92,1.58 -0.07,0 -0.14,0 -0.21,0 -0.43,0 -0.88,-0.08 -1.27,-0.22 -8.21,-3.02 -16.42,-6.06 -24.63,-9.09 -0.38,-0.14 -0.47,-0.31 -0.41,-0.7 1.75,-11.82 3.49,-23.63 5.24,-35.45 l 0.08,-0.53 c 0.78,0.28 1.5,0.54 2.29,0.82 0.24,-1.6 0.47,-3.17 0.72,-4.86 1.45,0.86 2.76,1.63 4.17,2.47 0.26,-1.77 0.51,-3.44 0.78,-5.26 1.94,1.75 3.77,3.4 5.7,5.14 0.25,-1.69 0.48,-3.28 0.72,-4.86 l 0.14,-0.03 c 1.21,1.67 2.43,3.34 3.74,5.14 0.3,-2.06 0.59,-3.97 0.87,-5.89 l 0.17,-0.02 m 1,13.59 0.1,-0.1 c -3.79,-3.43 -7.59,-6.86 -11.49,-10.39 -0.15,1.04 -0.26,1.95 -0.43,2.84 -0.09,0.46 0.07,0.67 0.44,0.89 2.61,1.53 5.22,3.09 7.82,4.64 1.18,0.7 2.37,1.41 3.55,2.12 m 1.18,-0.87 0.08,-0.08 c -2.07,-2.85 -4.13,-5.7 -6.2,-8.54 l -0.14,0.02 c -0.11,0.72 -0.19,1.44 -0.33,2.15 -0.06,0.34 0.03,0.55 0.29,0.78 1.76,1.58 3.51,3.17 5.26,4.75 0.34,0.31 0.69,0.61 1.04,0.92 m 1.72,0.06 0.16,-0.1 c -1.15,-2.67 -2.29,-5.34 -3.44,-8.01 h -0.14 c -0.11,0.79 -0.25,1.56 -0.33,2.34 -0.02,0.25 0.05,0.56 0.2,0.76 1.03,1.47 2.1,2.91 3.15,4.37 0.15,0.21 0.28,0.43 0.41,0.64 m -4.52,1.46 0.05,-0.1 c -4.86,-2.89 -9.71,-5.78 -14.67,-8.73 -0.14,0.96 -0.23,1.8 -0.4,2.62 -0.1,0.49 0.07,0.69 0.52,0.85 2.92,1.06 5.84,2.15 8.75,3.23 1.92,0.71 3.84,1.42 5.75,2.12 m 12.93,-2.71 c 0.81,-0.54 2.13,-1.41 3.44,-2.3 0.12,-0.08 0.22,-0.26 0.25,-0.41 0.11,-0.59 0.18,-1.19 0.27,-1.78 l -0.12,-0.07 c -1.42,1.69 -2.84,3.37 -3.84,4.57 m -2.2,3.72 c 0.15,-0.06 0.3,-0.12 0.44,-0.2 2.61,-1.3 5.2,-2.65 7.84,-3.88 1.01,-0.47 1.57,-1.04 1.55,-2.16 0,-0.44 0.12,-0.89 0.19,-1.34 l -0.15,-0.04 c -3.31,2.51 -6.61,5.03 -9.92,7.54 l 0.04,0.08 m 16.26,-6.65 c -4.44,2.22 -8.81,4.39 -13.3,6.63 0.15,0 0.22,0.01 0.25,0.01 0.01,0 0.02,0 0.03,0 4.07,-1.05 8.15,-2.1 12.22,-3.17 0.17,-0.05 0.38,-0.3 0.41,-0.49 0.16,-0.83 0.27,-1.67 0.38,-2.51 0.02,-0.13 0,-0.27 0,-0.48 m -26.07,43.1 c 0.05,-0.36 0.09,-0.62 0.13,-0.87 1.59,-10.75 3.17,-21.51 4.77,-32.26 0.09,-0.61 -0.05,-0.84 -0.63,-1.05 -6.31,-2.31 -12.61,-4.65 -18.91,-6.98 -1.28,-0.47 -2.56,-0.94 -3.9,-1.44 -0.05,0.23 -0.08,0.36 -0.09,0.49 -1.62,10.96 -3.23,21.92 -4.86,32.88 -0.07,0.46 0.09,0.62 0.49,0.76 7.14,2.63 14.28,5.28 21.41,7.92 0.5,0.19 1.02,0.36 1.58,0.56 m 30.14,-39.54 c -5.38,1.39 -10.65,2.75 -15.92,4.11 l 0.02,0.13 c 1.13,-0.07 2.26,-0.14 3.4,-0.21 3.84,-0.24 7.69,-0.47 11.53,-0.72 0.18,-0.01 0.48,-0.12 0.5,-0.22 0.18,-0.99 0.31,-1.99 0.48,-3.08 M 76.85,170.2 c 0.26,0 0.45,0 0.64,-0.01 7.88,-0.49 15.76,-0.98 23.64,-1.45 0.59,-0.04 0.78,-0.21 0.86,-0.79 1.58,-10.83 3.18,-21.66 4.77,-32.48 l 0.1,-0.68 c -0.15,0 -0.25,0 -0.34,0 -0.05,0 -0.09,0 -0.14,0 -7.99,0.49 -15.99,0.99 -23.98,1.47 -0.44,0.03 -0.6,0.16 -0.67,0.61 -1.6,10.92 -3.21,21.84 -4.82,32.76 -0.03,0.18 -0.04,0.36 -0.06,0.58 m 19.39,-47.25 v 0 m 6.2,1.57 v 0 m 3.93,4.12 v 0 m 1.98,4.76 v 0 M 74.36,116.2 c -0.1,0 -0.2,0 -0.29,0.02 h -0.08 l -0.08,0.02 c -0.87,0.13 -1.56,0.81 -1.69,1.69 l -0.15,1.04 -0.86,-1.18 c -0.38,-0.52 -0.99,-0.82 -1.62,-0.82 -0.15,0 -0.31,0.02 -0.46,0.05 l -0.14,0.03 c -0.8,0.19 -1.4,0.84 -1.52,1.65 l -0.17,1.16 -2.93,-2.64 c -0.37,-0.34 -0.85,-0.51 -1.34,-0.51 -0.23,0 -0.46,0.04 -0.68,0.12 -0.69,0.25 -1.19,0.86 -1.3,1.59 l -0.34,2.31 -1.61,-0.95 c -0.31,-0.19 -0.67,-0.28 -1.02,-0.28 -0.29,0 -0.59,0.06 -0.86,0.19 -0.6,0.29 -1.02,0.85 -1.12,1.51 l -0.36,2.44 c -0.22,-0.08 -0.44,-0.11 -0.67,-0.11 -0.36,0 -0.71,0.1 -1.03,0.28 -0.51,0.31 -0.86,0.83 -0.95,1.42 l -0.06,0.41 -0.02,0.12 -0.72,4.88 c -1.5,10.19 -3,20.38 -4.52,30.57 -0.2,1.33 0.44,2.41 1.7,2.87 3.42,1.26 6.84,2.53 10.27,3.79 4.79,1.77 9.57,3.54 14.36,5.3 0.61,0.23 1.29,0.34 1.96,0.34 0.11,0 0.22,0 0.33,0 3.91,-0.23 7.83,-0.48 11.74,-0.72 4.72,-0.29 9.45,-0.58 14.17,-0.86 1.55,-0.09 2.53,-0.99 2.76,-2.53 1.41,-9.68 2.84,-19.36 4.27,-29.04 l 0.89,-6.02 0.08,-0.56 c 0.03,-0.13 0.04,-0.26 0.04,-0.4 0,-1.1 -0.89,-2 -2,-2 h -0.03 c 0,0 -0.06,0 -0.08,0 h -0.26 l 0.05,-0.35 0.3,-2.02 c 0.03,-0.13 0.04,-0.26 0.04,-0.4 0,-1.1 -0.89,-1.99 -1.99,-2 h -0.01 c 0,0 -0.06,0 -0.08,0 v 0 c -0.16,0 -0.31,0.03 -0.45,0.07 l -1.76,0.45 0.33,-2.24 c 0.03,-0.13 0.04,-0.26 0.04,-0.4 0,-1.1 -0.89,-2 -2,-2 h -0.06 c -0.32,0 -0.61,0.09 -0.88,0.23 l -3.49,1.73 0.17,-1.14 c 0.03,-0.13 0.04,-0.26 0.04,-0.4 0,-1.1 -0.89,-2 -2,-2 v 0 c -0.43,0 -0.83,0.13 -1.15,0.36 l -0.59,0.41 0.08,-0.51 c 0.14,-0.96 -0.43,-1.89 -1.36,-2.19 l -0.06,-0.02 -0.07,-0.02 c -0.2,-0.07 -0.41,-0.1 -0.62,-0.1 -0.58,0 -1.14,0.25 -1.53,0.71 l -4.49,5.35 -4.61,5.48 -4.68,-10.87 -0.92,-2.15 c -0.32,-0.74 -1.05,-1.21 -1.84,-1.21 v 0 z m -21.05,43.7 c 1.27,-8.54 2.53,-17.08 3.79,-25.62 l 0.63,-4.26 1.61,0.59 4.33,1.6 c 4.6,1.7 9.19,3.4 13.79,5.09 -1.28,8.6 -2.55,17.18 -3.81,25.75 l -0.61,4.14 -4.99,-1.85 c -4.91,-1.82 -9.82,-3.64 -14.73,-5.45 v 0 z m 30.22,-21.7 c 5.83,-0.35 11.66,-0.71 17.49,-1.07 l 3.48,-0.21 -0.57,3.84 c -1.28,8.68 -2.56,17.37 -3.83,26.05 -5.83,0.35 -11.63,0.71 -17.43,1.07 l -3.55,0.22 0.7,-4.77 c 1.23,-8.37 2.47,-16.75 3.69,-25.12 v 0 z"
           id="path37" />
      </g>
      <path
         class="f"
         d="m 56.16,127.28 c 1.34,0.49 2.62,0.96 3.9,1.44 6.3,2.33 12.6,4.67 18.91,6.98 0.57,0.21 0.72,0.44 0.63,1.05 -1.61,10.75 -3.19,21.51 -4.77,32.26 l -0.13,0.87 c -0.57,-0.2 -1.08,-0.37 -1.58,-0.56 -7.14,-2.64 -14.27,-5.29 -21.41,-7.92 -0.4,-0.15 -0.56,-0.3 -0.49,-0.76 1.63,-10.96 3.24,-21.92 4.86,-32.88 0.02,-0.13 0.05,-0.26 0.09,-0.49 z"
         id="path41" />
      <path
         class="f"
         d="m 106.87,134.78 -0.1,0.68 c -1.6,10.83 -3.2,21.65 -4.77,32.48 -0.08,0.58 -0.27,0.76 -0.86,0.79 -7.88,0.47 -15.76,0.96 -23.64,1.45 -0.19,0.01 -0.38,0 -0.64,0.01 0.02,-0.22 0.03,-0.4 0.06,-0.58 1.61,-10.92 3.22,-21.84 4.82,-32.76 0.07,-0.45 0.23,-0.58 0.67,-0.61 7.99,-0.48 15.99,-0.98 23.98,-1.47 0.13,0 0.26,0 0.48,0 z"
         id="path43" />
      <path
         class="c"
         d="m 59.14,123.6 c 4.96,2.95 9.82,5.84 14.67,8.73 l -0.05,0.1 c -1.92,-0.71 -3.84,-1.41 -5.75,-2.12 -2.92,-1.08 -5.83,-2.17 -8.75,-3.23 -0.45,-0.16 -0.62,-0.36 -0.52,-0.85 0.17,-0.83 0.26,-1.67 0.4,-2.62 z"
         id="path45" />
      <path
         class="c"
         d="m 88.9,134.45 c 5.27,-1.36 10.54,-2.72 15.92,-4.11 -0.16,1.09 -0.29,2.09 -0.48,3.08 -0.02,0.1 -0.32,0.21 -0.5,0.22 -3.84,0.25 -7.69,0.48 -11.53,0.72 -1.13,0.07 -2.26,0.14 -3.4,0.21 l -0.02,-0.13 z"
         id="path47" />
      <path
         class="c"
         d="m 75.39,131.77 c -1.18,-0.71 -2.37,-1.41 -3.55,-2.12 -2.61,-1.55 -5.21,-3.1 -7.82,-4.64 -0.38,-0.22 -0.53,-0.44 -0.44,-0.89 0.18,-0.9 0.28,-1.8 0.43,-2.84 l 11.49,10.39 -0.1,0.1 z"
         id="path49" />
      <path
         class="c"
         d="m 87.46,133.41 c 4.49,-2.24 8.86,-4.42 13.3,-6.63 0,0.21 0.01,0.34 0,0.48 -0.12,0.84 -0.23,1.68 -0.38,2.51 -0.04,0.19 -0.24,0.44 -0.41,0.49 -4.07,1.07 -8.14,2.12 -12.22,3.17 -0.03,0 -0.07,0 -0.29,0 z"
         id="path51" />
      <path
         class="c"
         d="m 84.46,133.36 c 3.31,-2.51 6.61,-5.03 9.92,-7.54 l 0.15,0.04 c -0.07,0.45 -0.19,0.89 -0.19,1.34 0.02,1.12 -0.54,1.7 -1.55,2.16 -2.65,1.22 -5.23,2.58 -7.84,3.88 -0.14,0.07 -0.29,0.13 -0.44,0.2 l -0.04,-0.08 z"
         id="path53" />
      <path
         class="c"
         d="m 70.45,122.28 6.2,8.54 -0.08,0.08 c -0.35,-0.31 -0.69,-0.61 -1.03,-0.92 -1.75,-1.59 -3.5,-3.18 -5.26,-4.75 -0.25,-0.23 -0.35,-0.44 -0.29,-0.78 0.13,-0.71 0.22,-1.44 0.33,-2.15 l 0.14,-0.02 z"
         id="path55" />
      <path
         class="c"
         d="m 75,122.85 3.44,8.01 -0.16,0.1 c -0.14,-0.21 -0.26,-0.43 -0.41,-0.64 -1.05,-1.45 -2.11,-2.9 -3.15,-4.37 -0.14,-0.2 -0.22,-0.51 -0.2,-0.76 0.08,-0.78 0.21,-1.55 0.33,-2.33 h 0.14 z"
         id="path57" />
      <path
         class="c"
         d="m 90.66,125.22 c -0.09,0.59 -0.16,1.19 -0.27,1.78 -0.03,0.15 -0.13,0.33 -0.25,0.41 -1.31,0.89 -2.63,1.76 -3.44,2.3 l 3.84,-4.57 0.12,0.07 z"
         id="path59" />
    </g>
  </g>
  <g
     id="g78"
     transform="matrix(-1,0,0,1,172.2363,-27.02681)">
    <path
       d="m 58.11,152.95 c -0.32,-2.88 -2.1,-4.21 -4.95,-4.16 -1.46,0.03 -3.26,0.75 -3.96,-1.13 -0.83,-2.2 1.33,-2.69 2.56,-3.67 1.88,-1.5 2.46,-3.37 1.42,-5.62 -1.01,-2.19 -2.48,-3.95 -5.15,-3.6 -5,0.66 -9.41,2.37 -11.46,7.57 -0.32,0.82 -0.21,1.86 -1.15,2.36 -0.83,0.44 -1.65,0.9 -2.48,1.35 -0.01,0.01 -0.03,0.02 -0.05,0.03 -0.33,0.18 -0.65,0.35 -0.98,0.53 -0.04,0.02 -0.09,0.05 -0.13,0.08 -3.27,2.2 -4.04,5.6 -2.03,8.87 1.09,1.77 2.57,2.88 4.28,3.22 0.38,0.08 0.76,0.11 1.14,0.11 0.29,0 0.57,-0.02 0.86,-0.07 0.15,-0.04 0.3,-0.06 0.45,-0.08 0.06,-0.01 0.11,-0.02 0.17,-0.03 1.64,-0.25 3.24,-0.2 4.59,0.43 4.83,2.27 9.06,1.35 13.58,-0.06 3.15,-0.97 3.59,-3.4 3.29,-6.13 z m -23.47,2.81 c -1.08,-0.21 -1.83,-1.1 -2.26,-1.81 -1.14,-1.85 -0.77,-3.43 1.12,-4.7 0.6,-0.4 1.17,-0.58 1.73,-0.58 0.93,0 1.86,0.47 3,1.16 1.32,3.13 0.21,4.42 -0.77,5.12 -0.98,0.71 -1.95,0.98 -2.82,0.81 z m 17.45,-0.11 c -1.75,0.39 -3.52,0.64 -5.3,0.88 -0.43,0.06 -0.9,-0.08 -1.33,-0.19 -0.71,-0.18 -5.3,-11.24 -5.09,-12.22 0.65,-3.04 4.8,-5.46 8.52,-4.92 0.21,0.03 0.35,0.45 0.73,0.96 -3.1,2.32 -5.93,4.38 -4.37,8.66 1.16,3.18 3.39,4.35 6.6,4.27 0.76,-0.02 2.01,-0.49 2.09,0.93 0.05,1.11 -1.01,1.45 -1.85,1.63 z"
       id="path64" />
    <path
       d="m 38.23,149.83 c 1.32,3.13 0.21,4.42 -0.77,5.12 -0.98,0.71 -1.95,0.98 -2.82,0.81 -1.08,-0.21 -1.83,-1.1 -2.26,-1.81 -1.14,-1.85 -0.77,-3.43 1.12,-4.7 0.6,-0.4 1.17,-0.58 1.73,-0.58 0.93,0 1.86,0.47 3,1.16 z"
       id="path66" />
    <path
       d="m 53.94,154.02 c 0.05,1.11 -1.01,1.45 -1.85,1.63 -1.75,0.39 -3.52,0.64 -5.3,0.88 -0.43,0.06 -0.9,-0.08 -1.33,-0.19 -0.71,-0.18 -5.3,-11.24 -5.09,-12.22 0.65,-3.04 4.8,-5.46 8.52,-4.92 0.21,0.03 0.35,0.45 0.73,0.96 -3.1,2.32 -5.93,4.38 -4.37,8.66 1.16,3.18 3.39,4.35 6.6,4.27 0.76,-0.02 2.01,-0.49 2.09,0.93 z"
       id="path68" />
    <path
       class="g"
       d="m 53.94,154.02 c 0.05,1.11 -1.01,1.45 -1.85,1.63 -1.75,0.39 -3.52,0.64 -5.3,0.88 -0.43,0.06 -0.9,-0.08 -1.33,-0.19 -0.71,-0.18 -5.3,-11.24 -5.09,-12.22 0.65,-3.04 4.8,-5.46 8.52,-4.92 0.21,0.03 0.35,0.45 0.73,0.96 -3.1,2.32 -5.93,4.38 -4.37,8.66 1.16,3.18 3.39,4.35 6.6,4.27 0.76,-0.02 2.01,-0.49 2.09,0.93 z"
       id="path70" />
    <g
       id="g76">
      <path
         class="c"
         d="m 37.46,154.95 c -0.98,0.71 -1.95,0.98 -2.82,0.81 -1.08,-0.21 -1.83,-1.1 -2.26,-1.81 -1.14,-1.85 -0.77,-3.43 1.12,-4.7 0.6,-0.4 1.17,-0.58 1.73,-0.58 0.93,0 1.86,0.47 3,1.16 1.32,3.13 0.21,4.42 -0.77,5.12 z"
         id="path72" />
      <path
         d="m 31.91,146.61 c 0.33,-0.18 0.65,-0.35 0.98,-0.53 -0.32,0.14 -0.65,0.31 -0.98,0.53 z"
         id="path74" />
    </g>
  </g>
  <g
     id="g116"
     transform="matrix(-1,0,0,1,172.2363,-27.02681)">
    <g
       id="g100">
      <path
         d="m 172.17,154.25 c -0.14,-1.52 -0.54,-2.92 -1.12,-4.17 -0.04,-0.08 -0.07,-0.15 -0.12,-0.22 -0.22,-0.47 -0.43,-0.96 -0.62,-1.44 -0.66,-1.75 -1.12,-3.57 -1.53,-5.35 -0.01,-0.03 -0.01,-0.06 -0.03,-0.08 -3.09,-13.29 -9,-24.43 -20.57,-32.13 -0.03,-0.02 -0.05,-0.04 -0.08,-0.06 -1.06,-0.71 -0.27,-0.78 -1.3,-0.04 -0.18,0.13 -0.3,0.22 -0.37,0.28 h -0.01 c -0.08,0 -0.21,0.02 -0.4,0.06 l -1.66,1.22 c 0,0 -2.2,1.85 -5,6.53 l -2.15,4.65 c -1.54,4.97 -1.36,4.66 -0.58,5.93 0.06,0.1 0.13,0.21 0.2,0.34 l 5.9,3.29 c 0.27,-0.18 0.55,-0.32 0.87,-0.44 1.88,-0.73 2.57,1.16 3.51,2.14 0.47,0.5 0.92,0.99 1.35,1.49 2.66,3.07 4.45,6.19 5.37,9.42 0.14,0.49 0.25,0.98 0.35,1.46 0.1,0.31 0.16,0.63 0.18,0.97 0.04,0.37 0.03,0.75 -0.02,1.14 -0.24,2 -2.23,1.73 -3.53,2.1 -0.52,0.15 -1.03,0.28 -1.54,0.4 -4.47,1.08 -8.45,1.17 -12.09,0.23 -0.84,-0.21 -1.66,-0.47 -2.46,-0.8 -3.98,-1.6 -7.52,-4.52 -10.82,-8.83 -0.93,-1.2 -2.17,-2.17 -2.97,-2.85 -0.16,-0.13 -0.31,-0.26 -0.43,-0.37 -3.53,-1.84 -6.47,-2.41 -9.47,-2.68 -1.28,-0.12 -2.32,0.09 -3.19,0.53 -0.56,0.29 -1.05,0.67 -1.46,1.14 -0.82,0.88 -1.41,2.03 -1.91,3.31 -0.15,0.37 -0.25,0.73 -0.32,1.08 -0.35,1.62 0.02,2.99 0.96,4.18 0.32,0.4 0.7,0.78 1.14,1.13 0.17,0.15 0.36,0.29 0.55,0.42 1.59,1.1 4.38,1.54 3.42,4.32 -0.81,2.36 -3.06,1.66 -4.92,1.71 -0.17,0 -0.34,0 -0.5,0.03 -0.29,0.03 -0.56,0.08 -0.83,0.14 -2.32,0.5 -3.86,2 -4.23,4.37 -0.42,2.79 -0.39,6.16 2.5,7.45 l 0.06,0.03 c 0.38,0.16 0.77,0.33 1.16,0.49 4.73,1.92 10.01,3.23 14.59,0.53 5.3,-3.13 10.45,-1.99 15.26,-0.71 5.87,1.56 11.62,2.43 17.27,2.32 1.67,-0.02 3.33,-0.13 4.98,-0.33 2.07,-0.25 4.12,-0.65 6.16,-1.2 0.54,-0.15 1.09,-0.3 1.62,-0.47 0.03,-0.02 0.06,-0.02 0.1,-0.03 0.75,-0.23 1.49,-0.49 2.23,-0.79 3.66,-1.69 6.14,-5.08 6.49,-9.22 0.1,-0.86 0.1,-1.71 0.01,-2.62 z m -52.45,-2.5 c -1.4,1.79 -2.36,4 -1.71,6.27 0.9,3.19 -0.49,4.66 -3.31,5.1 -3.34,0.52 -7.02,0.75 -9.47,-1.77 -1.53,-1.58 0.85,-1.85 2.01,-1.89 4.22,-0.15 6.97,-1.93 8.1,-6.22 1,-3.75 -0.89,-6 -3.39,-8.17 -0.88,-0.76 -3.04,-0.73 -2.4,-2.47 0.05,-0.14 0.11,-0.27 0.19,-0.38 0.04,-0.07 0.09,-0.14 0.13,-0.2 0.04,-0.06 0.09,-0.11 0.15,-0.16 0.05,-0.04 0.09,-0.08 0.14,-0.11 0.04,-0.04 0.09,-0.07 0.14,-0.09 0.1,-0.07 0.22,-0.11 0.35,-0.14 0.03,0 0.06,-0.02 0.09,-0.02 0.06,-0.02 0.13,-0.03 0.2,-0.03 0.14,-0.01 0.28,-0.01 0.43,0 0.07,0 0.13,0.01 0.19,0.02 0.15,0.03 0.31,0.05 0.46,0.08 0.03,0 0.06,0 0.09,0.02 0.1,0.02 0.21,0.04 0.31,0.07 0.07,0.01 0.13,0.03 0.19,0.04 0.08,0.02 0.15,0.04 0.22,0.06 h 0.01 c 0.21,0.05 0.42,0.09 0.62,0.12 1.27,0.17 2.48,0.76 3.71,1.15 2.82,2.36 5.8,4.54 2.55,8.72 z m 10.92,6.83 c -1.1,2.21 -3.06,2.9 -5.14,2.04 -2.42,-1.01 -3.16,-3.34 -2.04,-5.59 1,-2.03 3.14,-2.74 5.28,-1.66 2.11,1.06 2.78,2.91 1.9,5.21 z m 17.85,-30.5 c -1.69,-0.15 -1.93,-1.21 -1.9,-2.03 0.09,-2.88 1.73,-5 4.26,-5.94 0.97,-0.35 2.76,1.65 2.37,2.56 -0.96,2.34 -4.02,2.97 -4.73,5.41 z m 1.39,1.77 c 0.56,-2.45 2.63,-4.05 4.69,-5.07 1.31,-0.63 2.63,1.97 2.37,2.36 -1.27,1.9 -3.01,3.48 -4.72,5.32 -0.98,-1.05 -2.47,-2.02 -2.34,-2.61 z m 3.77,3.94 c 0.53,-2.12 2.39,-3.42 4.19,-4.03 1.06,-0.36 1.62,1.59 2.07,3.5 -1.48,0.78 -3.08,1.88 -4.85,2.45 -0.93,0.29 -1.63,-1.03 -1.41,-1.92 z m -14.75,27.55 c -0.44,1.59 -1.9,0.97 -2.75,0.49 -1.72,-0.99 0.13,-2.28 -0.11,-3.42 0.62,-0.94 1.52,-1.29 2.34,-0.61 1.14,0.92 0.82,2.41 0.52,3.54 z m 5.34,1.06 c -0.23,1.49 -1.57,1.18 -2.63,0.83 -2.5,-0.83 -0.64,-2.86 -1.21,-3.98 0.34,-1.79 1.77,-1.88 2.61,-1.55 2.33,0.89 1.49,3.04 1.23,4.7 z m 5.96,0.76 c -0.18,1.12 -2.17,0.7 -4.07,0.19 0,-1.67 -0.22,-3.6 0.12,-5.43 0.17,-0.96 1.67,-0.96 2.35,-0.35 0.13,0.13 0.25,0.25 0.37,0.39 q 0,0 0.01,0.01 c 0.08,0.08 0.15,0.17 0.2,0.26 0.1,0.12 0.19,0.24 0.27,0.38 0.09,0.14 0.17,0.27 0.24,0.42 0.09,0.17 0.17,0.36 0.23,0.54 0.06,0.15 0.11,0.32 0.15,0.47 v 0.03 c 0,0 0.03,0.06 0.03,0.1 0.09,0.3 0.13,0.63 0.15,0.96 0.03,0.15 0.04,0.32 0.04,0.48 0.02,0.53 0,1.05 -0.09,1.55 z m 2.73,0.43 c -0.29,-0.54 -0.55,-1.11 -0.79,-1.7 -0.63,-1.55 -1.1,-3.22 -1.7,-4.95 1.39,-0.38 2.94,-1.24 3.4,-0.85 0.06,0.05 0.12,0.1 0.16,0.15 l 0.21,0.2 c 1.02,1.04 1.54,2.41 1.78,3.81 0.12,0.79 0.15,1.59 0.12,2.36 -0.04,1.45 -2.95,1.39 -3.18,0.98 z m 3.44,-24.91 c -0.3,-2.49 2,-2.75 3.58,-3.3 1.43,-0.5 1.77,0.84 1.96,1.93 0.44,2.59 -2.22,1.91 -2.93,2.94 -1.75,0.54 -2.49,-0.68 -2.61,-1.57 z m 2.46,5.13 c -0.21,-0.28 -0.29,-0.65 -0.2,-1.09 0.04,-0.25 0.14,-0.48 0.25,-0.67 0.54,-0.92 1.69,-1.24 2.64,-1.45 0.19,-0.05 0.36,-0.06 0.51,-0.06 1.14,0.06 1.24,1.39 1.2,2.26 -0.02,0.61 -0.21,0.92 -0.51,1.1 -0.09,0.06 -0.2,0.09 -0.3,0.13 -0.68,0.2 -1.62,0.01 -2.15,0.46 -0.07,-0.01 -0.13,-0.01 -0.2,-0.03 -0.55,-0.08 -0.99,-0.3 -1.24,-0.65 z m 8.33,9.86 c -0.04,0.48 -0.16,0.92 -0.34,1.33 -0.61,1.33 -1.94,2.13 -3.64,2.19 -0.97,0.02 -1.83,-0.25 -2.48,-0.76 -0.48,-0.36 -0.86,-0.83 -1.11,-1.42 -0.22,-0.5 -0.34,-1.08 -0.35,-1.72 -0.03,-1.58 0.55,-2.75 1.67,-3.43 0.39,-0.25 0.85,-0.43 1.37,-0.55 0.21,-0.06 0.44,-0.09 0.67,-0.13 2.47,-0.06 4,1.36 4.21,3.58 0.04,0.32 0.04,0.61 0,0.91 z"
         id="path80" />
      <path
         class="e"
         d="m 150.29,161.61 c 0.02,0.53 0,1.05 -0.09,1.55 -0.18,1.12 -2.17,0.7 -4.07,0.19 0,-1.67 -0.22,-3.6 0.12,-5.43 0.17,-0.96 1.67,-0.96 2.35,-0.35 0.13,0.13 0.25,0.25 0.37,0.39 q 0,0 0.01,0.01 c 0.08,0.08 0.15,0.17 0.2,0.26 0.1,0.12 0.19,0.24 0.27,0.38 0.09,0.14 0.17,0.27 0.24,0.42 0.09,0.17 0.17,0.36 0.23,0.54 0.06,0.15 0.11,0.32 0.15,0.47 v 0.03 c 0,0 0.03,0.06 0.03,0.1 0.09,0.3 0.13,0.63 0.15,0.96 0.03,0.15 0.04,0.32 0.04,0.48 z"
         id="path82" />
      <path
         class="e"
         d="m 156.11,162.61 c -0.04,1.45 -2.95,1.39 -3.18,0.98 -0.29,-0.54 -0.55,-1.11 -0.79,-1.7 -0.63,-1.55 -1.1,-3.22 -1.7,-4.95 1.39,-0.38 2.94,-1.24 3.4,-0.85 0.06,0.05 0.12,0.1 0.16,0.15 l 0.21,0.2 c 1.02,1.04 1.54,2.41 1.78,3.81 0.12,0.79 0.15,1.59 0.12,2.36 z"
         id="path84" />
      <path
         class="e"
         d="m 163.23,142.8 c -0.02,0.61 -0.21,0.92 -0.51,1.1 -0.09,0.06 -0.2,0.09 -0.3,0.13 -0.68,0.2 -1.62,0.01 -2.15,0.46 -0.07,-0.01 -0.13,-0.01 -0.2,-0.03 -0.55,-0.08 -0.99,-0.3 -1.24,-0.65 -0.21,-0.28 -0.29,-0.65 -0.2,-1.09 0.04,-0.25 0.14,-0.48 0.25,-0.67 0.54,-0.92 1.69,-1.24 2.64,-1.45 0.19,-0.05 0.36,-0.06 0.51,-0.06 1.14,0.06 1.24,1.39 1.2,2.26 z"
         id="path86" />
      <path
         d="m 119.72,151.75 c -1.4,1.79 -2.36,4.01 -1.72,6.28 0.9,3.18 -0.49,4.66 -3.31,5.1 -3.34,0.52 -7.02,0.74 -9.47,-1.77 -1.54,-1.58 0.85,-1.85 2.01,-1.9 4.22,-0.15 6.98,-1.93 8.1,-6.22 0.99,-3.75 -0.89,-5.99 -3.4,-8.17 -0.88,-0.76 -3.04,-0.72 -2.39,-2.46 0.69,-1.87 2.56,-0.91 3.91,-0.72 1.28,0.17 2.48,0.76 3.71,1.15 2.82,2.36 5.8,4.54 2.55,8.71 z"
         id="path88" />
      <path
         d="m 130.64,158.58 c -1.09,2.21 -3.06,2.9 -5.14,2.04 -2.43,-1 -3.16,-3.34 -2.04,-5.59 1,-2.03 3.14,-2.74 5.28,-1.66 2.11,1.06 2.78,2.91 1.9,5.2 z"
         id="path90" />
      <path
         class="g"
         d="m 119.72,151.75 c -1.4,1.79 -2.36,4.01 -1.72,6.28 0.9,3.18 -0.49,4.66 -3.31,5.1 -3.34,0.52 -7.02,0.74 -9.47,-1.77 -1.54,-1.58 0.85,-1.85 2.01,-1.9 4.22,-0.15 6.98,-1.93 8.1,-6.22 0.99,-3.75 -0.89,-5.99 -3.4,-8.17 -0.88,-0.76 -3.04,-0.72 -2.39,-2.46 0.69,-1.87 2.56,-0.91 3.91,-0.72 1.28,0.17 2.48,0.76 3.71,1.15 2.82,2.36 5.8,4.54 2.55,8.71 z"
         id="path92" />
      <path
         class="c"
         d="m 130.64,158.58 c -1.09,2.21 -3.06,2.9 -5.14,2.04 -2.43,-1 -3.16,-3.34 -2.04,-5.59 1,-2.03 3.14,-2.74 5.28,-1.66 2.11,1.06 2.78,2.91 1.9,5.2 z"
         id="path94" />
      <path
         class="e"
         d="m 144.24,162.4 c -0.23,1.49 -1.57,1.18 -2.63,0.83 -2.5,-0.83 -0.64,-2.86 -1.21,-3.98 0.34,-1.79 1.77,-1.88 2.61,-1.55 2.33,0.89 1.49,3.04 1.23,4.7 z"
         id="path96" />
      <path
         class="e"
         d="m 138.9,161.34 c -0.44,1.59 -1.9,0.97 -2.75,0.49 -1.72,-0.99 0.13,-2.28 -0.11,-3.42 0.62,-0.94 1.52,-1.29 2.34,-0.61 1.14,0.92 0.82,2.41 0.52,3.54 z"
         id="path98" />
    </g>
    <g
       id="g112">
      <path
         d="m 154.36,148.1 c -0.05,-0.33 -0.1,-0.65 -0.18,-0.97 0.1,0.3 0.16,0.63 0.18,0.97 z"
         id="path102" />
      <path
         class="e"
         d="m 153.22,122.67 c -0.96,2.34 -4.02,2.97 -4.73,5.41 -1.69,-0.15 -1.93,-1.21 -1.9,-2.03 0.09,-2.88 1.73,-5 4.26,-5.94 0.97,-0.35 2.76,1.65 2.37,2.56 z"
         id="path104" />
      <path
         class="e"
         d="m 156.94,127.14 c -1.27,1.9 -3.01,3.48 -4.72,5.32 -0.98,-1.05 -2.47,-2.02 -2.34,-2.61 0.56,-2.45 2.63,-4.05 4.69,-5.07 1.31,-0.63 2.63,1.97 2.37,2.36 z"
         id="path106" />
      <path
         class="e"
         d="m 159.91,133.26 c -1.48,0.78 -3.08,1.88 -4.85,2.45 -0.93,0.29 -1.63,-1.03 -1.41,-1.92 0.53,-2.12 2.39,-3.42 4.19,-4.03 1.06,-0.36 1.62,1.59 2.07,3.5 z"
         id="path108" />
      <path
         class="e"
         d="m 158.98,140.25 c -1.75,0.54 -2.49,-0.68 -2.61,-1.57 -0.3,-2.49 2,-2.75 3.58,-3.3 1.43,-0.5 1.77,0.84 1.96,1.93 0.44,2.59 -2.22,1.91 -2.93,2.94 z"
         id="path110" />
    </g>
    <path
       d="m 154.18,147.13 c 0.08,0.32 0.14,0.64 0.18,0.97 -0.02,-0.34 -0.08,-0.67 -0.18,-0.97 z m 9.26,19.75 c 0.78,-0.19 1.54,-0.46 2.23,-0.79 -0.74,0.29 -1.48,0.55 -2.23,0.79 z"
       id="path114" />
  </g>
</svg>
