<?xml version="1.0" encoding="utf-8" standalone="no"?>
<!DOCTYPE svg PUBLIC "-//W3C//DTD SVG 1.1//EN"
  "http://www.w3.org/Graphics/SVG/1.1/DTD/svg11.dtd">
<!-- Created with matplotlib (https://matplotlib.org/) -->
<svg height="54.36pt" version="1.1" viewBox="0 0 557.057721 54.36" width="557.057721pt" xmlns="http://www.w3.org/2000/svg" xmlns:xlink="http://www.w3.org/1999/xlink">
 <defs>
  <style type="text/css">
*{stroke-linecap:butt;stroke-linejoin:round;}
  </style>
 </defs>
 <g id="figure_1">
  <g id="patch_1">
   <path d="M 0 54.36 
L 557.057721 54.36 
L 557.057721 0 
L 0 0 
z
" style="fill:none;"/>
  </g>
  <g id="axes_1">
   <g id="PathCollection_1">
    <defs>
     <path d="M 0 3 
C 0.795609 3 1.55874 2.683901 2.12132 2.12132 
C 2.683901 1.55874 3 0.795609 3 0 
C 3 -0.795609 2.683901 -1.55874 2.12132 -2.12132 
C 1.55874 -2.683901 0.795609 -3 0 -3 
C -0.795609 -3 -1.55874 -2.683901 -2.12132 -2.12132 
C -2.683901 -1.55874 -3 -0.795609 -3 0 
C -3 0.795609 -2.683901 1.55874 -2.12132 2.12132 
C -1.55874 2.683901 -0.795609 3 0 3 
z
" id="C0_0_d79f5ee8ee"/>
    </defs>
    <g clip-path="url(#p9200abc317)">
     <use style="fill:#ffffff;stroke:#000000;" x="18.12" xlink:href="#C0_0_d79f5ee8ee" y="36.24"/>
    </g>
    <g clip-path="url(#p9200abc317)">
     <use style="fill:#ffffff;stroke:#000000;" x="18.12" xlink:href="#C0_0_d79f5ee8ee" y="18.12"/>
    </g>
    <g clip-path="url(#p9200abc317)">
     <use style="stroke:#000000;" x="36.24" xlink:href="#C0_0_d79f5ee8ee" y="36.24"/>
    </g>
    <g clip-path="url(#p9200abc317)">
     <use style="stroke:#000000;" x="36.24" xlink:href="#C0_0_d79f5ee8ee" y="18.12"/>
    </g>
   </g>
   <g id="line2d_1">
    <path clip-path="url(#p9200abc317)" d="M 23.418441 -1 
L 18.12 33.317305 
L 14.88687 55.36 
" style="fill:none;stroke:#1f77b4;stroke-linecap:square;stroke-width:1.5;"/>
   </g>
  </g>
  <g id="axes_2">
   <g id="PathCollection_2">
    <defs>
     <path d="M 0 3 
C 0.795609 3 1.55874 2.683901 2.12132 2.12132 
C 2.683901 1.55874 3 0.795609 3 0 
C 3 -0.795609 2.683901 -1.55874 2.12132 -2.12132 
C 1.55874 -2.683901 0.795609 -3 0 -3 
C -0.795609 -3 -1.55874 -2.683901 -2.12132 -2.12132 
C -2.683901 -1.55874 -3 -0.795609 -3 0 
C -3 0.795609 -2.683901 1.55874 -2.12132 2.12132 
C -1.55874 2.683901 -0.795609 3 0 3 
z
" id="C1_0_041536c718"/>
    </defs>
    <g clip-path="url(#pd0ec357d1c)">
     <use style="fill:#ffffff;stroke:#000000;" x="73.975302" xlink:href="#C1_0_041536c718" y="36.24"/>
    </g>
    <g clip-path="url(#pd0ec357d1c)">
     <use style="fill:#ffffff;stroke:#000000;" x="73.975302" xlink:href="#C1_0_041536c718" y="18.12"/>
    </g>
    <g clip-path="url(#pd0ec357d1c)">
     <use style="stroke:#000000;" x="92.095302" xlink:href="#C1_0_041536c718" y="36.24"/>
    </g>
    <g clip-path="url(#pd0ec357d1c)">
     <use style="stroke:#000000;" x="92.095302" xlink:href="#C1_0_041536c718" y="18.12"/>
    </g>
   </g>
   <g id="line2d_2">
    <defs>
     <path d="M 0 5 
C 1.326016 5 2.597899 4.473168 3.535534 3.535534 
C 4.473168 2.597899 5 1.326016 5 0 
C 5 -1.326016 4.473168 -2.597899 3.535534 -3.535534 
C 2.597899 -4.473168 1.326016 -5 0 -5 
C -1.326016 -5 -2.597899 -4.473168 -3.535534 -3.535534 
C -4.473168 -2.597899 -5 -1.326016 -5 0 
C -5 1.326016 -4.473168 2.597899 -3.535534 3.535534 
C -2.597899 4.473168 -1.326016 5 0 5 
z
" id="mf65592d045" style="stroke:#000000;"/>
    </defs>
    <g clip-path="url(#pd0ec357d1c)">
     <use style="fill:#ffffff;fill-opacity:0;stroke:#000000;" x="92.095302" xlink:href="#mf65592d045" y="18.12"/>
    </g>
   </g>
   <g id="line2d_3">
    <path clip-path="url(#pd0ec357d1c)" d="M 52.657142 55.36 
L 73.975302 51.102496 
L 321.818403 -1 
" style="fill:none;stroke:#ff7f0e;stroke-linecap:square;stroke-width:1.5;"/>
   </g>
  </g>
  <g id="axes_3">
   <g id="PathCollection_3">
    <defs>
     <path d="M 0 3 
C 0.795609 3 1.55874 2.683901 2.12132 2.12132 
C 2.683901 1.55874 3 0.795609 3 0 
C 3 -0.795609 2.683901 -1.55874 2.12132 -2.12132 
C 1.55874 -2.683901 0.795609 -3 0 -3 
C -0.795609 -3 -1.55874 -2.683901 -2.12132 -2.12132 
C -2.683901 -1.55874 -3 -0.795609 -3 0 
C -3 0.795609 -2.683901 1.55874 -2.12132 2.12132 
C -1.55874 2.683901 -0.795609 3 0 3 
z
" id="C2_0_7a71a5c325"/>
    </defs>
    <g clip-path="url(#p4ca6cdc37f)">
     <use style="fill:#ffffff;stroke:#000000;" x="129.830605" xlink:href="#C2_0_7a71a5c325" y="36.24"/>
    </g>
    <g clip-path="url(#p4ca6cdc37f)">
     <use style="fill:#ffffff;stroke:#000000;" x="129.830605" xlink:href="#C2_0_7a71a5c325" y="18.12"/>
    </g>
    <g clip-path="url(#p4ca6cdc37f)">
     <use style="stroke:#000000;" x="147.950605" xlink:href="#C2_0_7a71a5c325" y="36.24"/>
    </g>
    <g clip-path="url(#p4ca6cdc37f)">
     <use style="stroke:#000000;" x="147.950605" xlink:href="#C2_0_7a71a5c325" y="18.12"/>
    </g>
   </g>
   <g id="line2d_4">
    <g clip-path="url(#p4ca6cdc37f)">
     <use style="fill:#ffffff;fill-opacity:0;stroke:#000000;" x="129.830605" xlink:href="#mf65592d045" y="18.12"/>
    </g>
   </g>
   <g id="line2d_5">
    <path clip-path="url(#p4ca6cdc37f)" d="M 156.431203 -1 
L 129.830605 33.317305 
L 113.59881 55.36 
" style="fill:none;stroke:#ff7f0e;stroke-linecap:square;stroke-width:1.5;"/>
   </g>
  </g>
  <g id="axes_4">
   <g id="PathCollection_4">
    <defs>
     <path d="M 0 3 
C 0.795609 3 1.55874 2.683901 2.12132 2.12132 
C 2.683901 1.55874 3 0.795609 3 0 
C 3 -0.795609 2.683901 -1.55874 2.12132 -2.12132 
C 1.55874 -2.683901 0.795609 -3 0 -3 
C -0.795609 -3 -1.55874 -2.683901 -2.12132 -2.12132 
C -2.683901 -1.55874 -3 -0.795609 -3 0 
C -3 0.795609 -2.683901 1.55874 -2.12132 2.12132 
C -1.55874 2.683901 -0.795609 3 0 3 
z
" id="C3_0_aebd969886"/>
    </defs>
    <g clip-path="url(#p5acbbf56ef)">
     <use style="fill:#ffffff;stroke:#000000;" x="185.685907" xlink:href="#C3_0_aebd969886" y="36.24"/>
    </g>
    <g clip-path="url(#p5acbbf56ef)">
     <use style="fill:#ffffff;stroke:#000000;" x="185.685907" xlink:href="#C3_0_aebd969886" y="18.12"/>
    </g>
    <g clip-path="url(#p5acbbf56ef)">
     <use style="stroke:#000000;" x="203.805907" xlink:href="#C3_0_aebd969886" y="36.24"/>
    </g>
    <g clip-path="url(#p5acbbf56ef)">
     <use style="stroke:#000000;" x="203.805907" xlink:href="#C3_0_aebd969886" y="18.12"/>
    </g>
   </g>
   <g id="line2d_6">
    <g clip-path="url(#p5acbbf56ef)">
     <use style="fill:#ffffff;fill-opacity:0;stroke:#000000;" x="203.805907" xlink:href="#mf65592d045" y="36.24"/>
    </g>
   </g>
   <g id="line2d_7">
    <path clip-path="url(#p5acbbf56ef)" d="M 166.940768 55.36 
L 153.200346 -1 
" style="fill:none;stroke:#ff7f0e;stroke-linecap:square;stroke-width:1.5;"/>
   </g>
  </g>
  <g id="axes_5">
   <g id="PathCollection_5">
    <defs>
     <path d="M 0 3 
C 0.795609 3 1.55874 2.683901 2.12132 2.12132 
C 2.683901 1.55874 3 0.795609 3 0 
C 3 -0.795609 2.683901 -1.55874 2.12132 -2.12132 
C 1.55874 -2.683901 0.795609 -3 0 -3 
C -0.795609 -3 -1.55874 -2.683901 -2.12132 -2.12132 
C -2.683901 -1.55874 -3 -0.795609 -3 0 
C -3 0.795609 -2.683901 1.55874 -2.12132 2.12132 
C -1.55874 2.683901 -0.795609 3 0 3 
z
" id="C4_0_a827057c13"/>
    </defs>
    <g clip-path="url(#pe1d45902dc)">
     <use style="fill:#ffffff;stroke:#000000;" x="241.541209" xlink:href="#C4_0_a827057c13" y="36.24"/>
    </g>
    <g clip-path="url(#pe1d45902dc)">
     <use style="fill:#ffffff;stroke:#000000;" x="241.541209" xlink:href="#C4_0_a827057c13" y="18.12"/>
    </g>
    <g clip-path="url(#pe1d45902dc)">
     <use style="stroke:#000000;" x="259.661209" xlink:href="#C4_0_a827057c13" y="36.24"/>
    </g>
    <g clip-path="url(#pe1d45902dc)">
     <use style="stroke:#000000;" x="259.661209" xlink:href="#C4_0_a827057c13" y="18.12"/>
    </g>
   </g>
   <g id="line2d_8">
    <g clip-path="url(#pe1d45902dc)">
     <use style="fill:#ffffff;fill-opacity:0;stroke:#000000;" x="241.541209" xlink:href="#mf65592d045" y="36.24"/>
    </g>
   </g>
   <g id="line2d_9">
    <path clip-path="url(#pe1d45902dc)" d="M 232.734399 -1 
L 241.541209 33.317305 
L 246.915161 55.36 
" style="fill:none;stroke:#ff7f0e;stroke-linecap:square;stroke-width:1.5;"/>
   </g>
  </g>
  <g id="axes_6">
   <g id="PathCollection_6">
    <defs>
     <path d="M 0 3 
C 0.795609 3 1.55874 2.683901 2.12132 2.12132 
C 2.683901 1.55874 3 0.795609 3 0 
C 3 -0.795609 2.683901 -1.55874 2.12132 -2.12132 
C 1.55874 -2.683901 0.795609 -3 0 -3 
C -0.795609 -3 -1.55874 -2.683901 -2.12132 -2.12132 
C -2.683901 -1.55874 -3 -0.795609 -3 0 
C -3 0.795609 -2.683901 1.55874 -2.12132 2.12132 
C -1.55874 2.683901 -0.795609 3 0 3 
z
" id="C5_0_fa4a58992a"/>
    </defs>
    <g clip-path="url(#p59c0514d30)">
     <use style="fill:#ffffff;stroke:#000000;" x="297.396511" xlink:href="#C5_0_fa4a58992a" y="36.24"/>
    </g>
    <g clip-path="url(#p59c0514d30)">
     <use style="fill:#ffffff;stroke:#000000;" x="297.396511" xlink:href="#C5_0_fa4a58992a" y="18.12"/>
    </g>
    <g clip-path="url(#p59c0514d30)">
     <use style="stroke:#000000;" x="315.516511" xlink:href="#C5_0_fa4a58992a" y="36.24"/>
    </g>
    <g clip-path="url(#p59c0514d30)">
     <use style="stroke:#000000;" x="315.516511" xlink:href="#C5_0_fa4a58992a" y="18.12"/>
    </g>
   </g>
   <g id="line2d_10">
    <g clip-path="url(#p59c0514d30)">
     <use style="fill:#ffffff;fill-opacity:0;stroke:#000000;" x="297.396511" xlink:href="#mf65592d045" y="18.12"/>
    </g>
   </g>
   <g id="line2d_11">
    <path clip-path="url(#p59c0514d30)" d="M 301.439388 55.36 
L 362.71839 -1 
" style="fill:none;stroke:#ff7f0e;stroke-linecap:square;stroke-width:1.5;"/>
   </g>
  </g>
  <g id="axes_7">
   <g id="PathCollection_7">
    <defs>
     <path d="M 0 3 
C 0.795609 3 1.55874 2.683901 2.12132 2.12132 
C 2.683901 1.55874 3 0.795609 3 0 
C 3 -0.795609 2.683901 -1.55874 2.12132 -2.12132 
C 1.55874 -2.683901 0.795609 -3 0 -3 
C -0.795609 -3 -1.55874 -2.683901 -2.12132 -2.12132 
C -2.683901 -1.55874 -3 -0.795609 -3 0 
C -3 0.795609 -2.683901 1.55874 -2.12132 2.12132 
C -1.55874 2.683901 -0.795609 3 0 3 
z
" id="C6_0_b9f3945fd7"/>
    </defs>
    <g clip-path="url(#pb95bcbcc70)">
     <use style="fill:#ffffff;stroke:#000000;" x="353.251814" xlink:href="#C6_0_b9f3945fd7" y="36.24"/>
    </g>
    <g clip-path="url(#pb95bcbcc70)">
     <use style="fill:#ffffff;stroke:#000000;" x="353.251814" xlink:href="#C6_0_b9f3945fd7" y="18.12"/>
    </g>
    <g clip-path="url(#pb95bcbcc70)">
     <use style="stroke:#000000;" x="371.371814" xlink:href="#C6_0_b9f3945fd7" y="36.24"/>
    </g>
    <g clip-path="url(#pb95bcbcc70)">
     <use style="stroke:#000000;" x="371.371814" xlink:href="#C6_0_b9f3945fd7" y="18.12"/>
    </g>
   </g>
   <g id="line2d_12">
    <g clip-path="url(#pb95bcbcc70)">
     <use style="fill:#ffffff;fill-opacity:0;stroke:#000000;" x="371.371814" xlink:href="#mf65592d045" y="18.12"/>
    </g>
   </g>
   <g id="line2d_13">
    <path clip-path="url(#pb95bcbcc70)" d="M 349.473811 -1 
L 353.251814 33.317305 
L 355.557167 55.36 
" style="fill:none;stroke:#ff7f0e;stroke-linecap:square;stroke-width:1.5;"/>
   </g>
  </g>
  <g id="axes_8">
   <g id="PathCollection_8">
    <defs>
     <path d="M 0 3 
C 0.795609 3 1.55874 2.683901 2.12132 2.12132 
C 2.683901 1.55874 3 0.795609 3 0 
C 3 -0.795609 2.683901 -1.55874 2.12132 -2.12132 
C 1.55874 -2.683901 0.795609 -3 0 -3 
C -0.795609 -3 -1.55874 -2.683901 -2.12132 -2.12132 
C -2.683901 -1.55874 -3 -0.795609 -3 0 
C -3 0.795609 -2.683901 1.55874 -2.12132 2.12132 
C -1.55874 2.683901 -0.795609 3 0 3 
z
" id="C7_0_e9f96b4bcb"/>
    </defs>
    <g clip-path="url(#p4252600bf6)">
     <use style="fill:#ffffff;stroke:#000000;" x="409.107116" xlink:href="#C7_0_e9f96b4bcb" y="36.24"/>
    </g>
    <g clip-path="url(#p4252600bf6)">
     <use style="fill:#ffffff;stroke:#000000;" x="409.107116" xlink:href="#C7_0_e9f96b4bcb" y="18.12"/>
    </g>
    <g clip-path="url(#p4252600bf6)">
     <use style="stroke:#000000;" x="427.227116" xlink:href="#C7_0_e9f96b4bcb" y="36.24"/>
    </g>
    <g clip-path="url(#p4252600bf6)">
     <use style="stroke:#000000;" x="427.227116" xlink:href="#C7_0_e9f96b4bcb" y="18.12"/>
    </g>
   </g>
   <g id="line2d_14">
    <g clip-path="url(#p4252600bf6)">
     <use style="fill:#ffffff;fill-opacity:0;stroke:#000000;" x="409.107116" xlink:href="#mf65592d045" y="18.12"/>
    </g>
   </g>
   <g id="line2d_15">
    <path clip-path="url(#p4252600bf6)" d="M 410.841455 55.36 
L 437.12932 -1 
" style="fill:none;stroke:#ff7f0e;stroke-linecap:square;stroke-width:1.5;"/>
   </g>
  </g>
  <g id="axes_9">
   <g id="PathCollection_9">
    <defs>
     <path d="M 0 3 
C 0.795609 3 1.55874 2.683901 2.12132 2.12132 
C 2.683901 1.55874 3 0.795609 3 0 
C 3 -0.795609 2.683901 -1.55874 2.12132 -2.12132 
C 1.55874 -2.683901 0.795609 -3 0 -3 
C -0.795609 -3 -1.55874 -2.683901 -2.12132 -2.12132 
C -2.683901 -1.55874 -3 -0.795609 -3 0 
C -3 0.795609 -2.683901 1.55874 -2.12132 2.12132 
C -1.55874 2.683901 -0.795609 3 0 3 
z
" id="C8_0_11ad0b17f5"/>
    </defs>
    <g clip-path="url(#p502e21d28e)">
     <use style="fill:#ffffff;stroke:#000000;" x="464.962418" xlink:href="#C8_0_11ad0b17f5" y="36.24"/>
    </g>
    <g clip-path="url(#p502e21d28e)">
     <use style="fill:#ffffff;stroke:#000000;" x="464.962418" xlink:href="#C8_0_11ad0b17f5" y="18.12"/>
    </g>
    <g clip-path="url(#p502e21d28e)">
     <use style="stroke:#000000;" x="483.082418" xlink:href="#C8_0_11ad0b17f5" y="36.24"/>
    </g>
    <g clip-path="url(#p502e21d28e)">
     <use style="stroke:#000000;" x="483.082418" xlink:href="#C8_0_11ad0b17f5" y="18.12"/>
    </g>
   </g>
   <g id="line2d_16">
    <g clip-path="url(#p502e21d28e)">
     <use style="fill:#ffffff;fill-opacity:0;stroke:#000000;" x="483.082418" xlink:href="#mf65592d045" y="18.12"/>
    </g>
   </g>
   <g id="line2d_17">
    <path clip-path="url(#p502e21d28e)" d="M 462.557599 -1 
L 464.962418 33.317305 
L 466.429849 55.36 
" style="fill:none;stroke:#ff7f0e;stroke-linecap:square;stroke-width:1.5;"/>
   </g>
  </g>
  <g id="axes_10">
   <g id="PathCollection_10">
    <defs>
     <path d="M 0 3 
C 0.795609 3 1.55874 2.683901 2.12132 2.12132 
C 2.683901 1.55874 3 0.795609 3 0 
C 3 -0.795609 2.683901 -1.55874 2.12132 -2.12132 
C 1.55874 -2.683901 0.795609 -3 0 -3 
C -0.795609 -3 -1.55874 -2.683901 -2.12132 -2.12132 
C -2.683901 -1.55874 -3 -0.795609 -3 0 
C -3 0.795609 -2.683901 1.55874 -2.12132 2.12132 
C -1.55874 2.683901 -0.795609 3 0 3 
z
" id="C9_0_8d5f406132"/>
    </defs>
    <g clip-path="url(#pf4d62d2eb4)">
     <use style="fill:#ffffff;stroke:#000000;" x="520.817721" xlink:href="#C9_0_8d5f406132" y="36.24"/>
    </g>
    <g clip-path="url(#pf4d62d2eb4)">
     <use style="fill:#ffffff;stroke:#000000;" x="520.817721" xlink:href="#C9_0_8d5f406132" y="18.12"/>
    </g>
    <g clip-path="url(#pf4d62d2eb4)">
     <use style="stroke:#000000;" x="538.937721" xlink:href="#C9_0_8d5f406132" y="36.24"/>
    </g>
    <g clip-path="url(#pf4d62d2eb4)">
     <use style="stroke:#000000;" x="538.937721" xlink:href="#C9_0_8d5f406132" y="18.12"/>
    </g>
   </g>
   <g id="line2d_18">
    <g clip-path="url(#pf4d62d2eb4)">
     <use style="fill:#ffffff;fill-opacity:0;stroke:#000000;" x="520.817721" xlink:href="#mf65592d045" y="18.12"/>
    </g>
   </g>
   <g id="line2d_19">
    <path clip-path="url(#pf4d62d2eb4)" d="M 521.921683 55.36 
L 538.654744 -1 
" style="fill:none;stroke:#ff7f0e;stroke-linecap:square;stroke-width:1.5;"/>
   </g>
  </g>
 </g>
 <defs>
  <clipPath id="p9200abc317">
   <rect height="54.36" width="54.36" x="0" y="-0"/>
  </clipPath>
  <clipPath id="pd0ec357d1c">
   <rect height="54.36" width="54.36" x="55.855302" y="-0"/>
  </clipPath>
  <clipPath id="p4ca6cdc37f">
   <rect height="54.36" width="54.36" x="111.710605" y="-0"/>
  </clipPath>
  <clipPath id="p5acbbf56ef">
   <rect height="54.36" width="54.36" x="167.565907" y="-0"/>
  </clipPath>
  <clipPath id="pe1d45902dc">
   <rect height="54.36" width="54.36" x="223.421209" y="-0"/>
  </clipPath>
  <clipPath id="p59c0514d30">
   <rect height="54.36" width="54.36" x="279.276511" y="-0"/>
  </clipPath>
  <clipPath id="pb95bcbcc70">
   <rect height="54.36" width="54.36" x="335.131814" y="-0"/>
  </clipPath>
  <clipPath id="p4252600bf6">
   <rect height="54.36" width="54.36" x="390.987116" y="-0"/>
  </clipPath>
  <clipPath id="p502e21d28e">
   <rect height="54.36" width="54.36" x="446.842418" y="-0"/>
  </clipPath>
  <clipPath id="pf4d62d2eb4">
   <rect height="54.36" width="54.36" x="502.697721" y="-0"/>
  </clipPath>
 </defs>
</svg>
