<?xml version="1.0" encoding="utf-8" standalone="no"?>
<!DOCTYPE svg PUBLIC "-//W3C//DTD SVG 1.1//EN"
  "http://www.w3.org/Graphics/SVG/1.1/DTD/svg11.dtd">
<!-- Created with matplotlib (https://matplotlib.org/) -->
<svg height="217.44pt" version="1.1" viewBox="0 0 215.393252 217.44" width="215.393252pt" xmlns="http://www.w3.org/2000/svg" xmlns:xlink="http://www.w3.org/1999/xlink">
 <defs>
  <style type="text/css">
*{stroke-linecap:butt;stroke-linejoin:round;}
  </style>
 </defs>
 <g id="figure_1">
  <g id="patch_1">
   <path d="M 0 217.44 
L 215.393252 217.44 
L 215.393252 0 
L 0 0 
z
" style="fill:none;"/>
  </g>
  <g id="axes_1">
   <g id="PathCollection_1">
    <defs>
     <path d="M 0 3 
C 0.795609 3 1.55874 2.683901 2.12132 2.12132 
C 2.683901 1.55874 3 0.795609 3 0 
C 3 -0.795609 2.683901 -1.55874 2.12132 -2.12132 
C 1.55874 -2.683901 0.795609 -3 0 -3 
C -0.795609 -3 -1.55874 -2.683901 -2.12132 -2.12132 
C -2.683901 -1.55874 -3 -0.795609 -3 0 
C -3 0.795609 -2.683901 1.55874 -2.12132 2.12132 
C -1.55874 2.683901 -0.795609 3 0 3 
z
" id="C0_0_2cc96c8fe3"/>
    </defs>
    <g clip-path="url(#p32d33d6fb0)">
     <use style="fill:#ffffff;stroke:#000000;" x="11.5143" xlink:href="#C0_0_2cc96c8fe3" y="204.902326"/>
    </g>
    <g clip-path="url(#p32d33d6fb0)">
     <use style="stroke:#000000;" x="11.5143" xlink:href="#C0_0_2cc96c8fe3" y="12.537674"/>
    </g>
    <g clip-path="url(#p32d33d6fb0)">
     <use style="stroke:#000000;" x="203.878952" xlink:href="#C0_0_2cc96c8fe3" y="204.902326"/>
    </g>
    <g clip-path="url(#p32d33d6fb0)">
     <use style="fill:#ffffff;stroke:#000000;" x="203.878952" xlink:href="#C0_0_2cc96c8fe3" y="12.537674"/>
    </g>
   </g>
  </g>
 </g>
 <defs>
  <clipPath id="p32d33d6fb0">
   <rect height="217.44" width="215.393252" x="0" y="-0"/>
  </clipPath>
 </defs>
</svg>
